<svg xmlns="http://www.w3.org/2000/svg" xmlns:xlink="http://www.w3.org/1999/xlink" viewBox="0 0 1042 1768">
  <defs>
    <clipPath id="clip-path">
      <rect id="Retângulo_144" data-name="Retângulo 144" width="1042" height="1768" transform="translate(-9 -1767)" fill="none"/>
    </clipPath>
    <clipPath id="clip-path-2">
      <path id="Caminho_2135" data-name="Caminho 2135" d="M0-1760V0L1012-1508l12-252Z" fill="none"/>
    </clipPath>
    <clipPath id="clip-path-3">
      <rect id="Retângulo_142" data-name="Retângulo 142" width="2371.009" height="2647.198" transform="translate(-908.619 -2187.19)" fill="none"/>
    </clipPath>
    <clipPath id="clip-path-4">
      <rect id="Retângulo_143" data-name="Retângulo 143" width="2560.52" height="2887.159" transform="translate(-1208.97 -2596.07)" fill="none"/>
    </clipPath>
  </defs>
  <g id="Grupo_2418" data-name="Grupo 2418" transform="translate(9 1767)" opacity="0.5">
    <g id="Grupo_2417" data-name="Grupo 2417">
      <g id="Grupo_2416" data-name="Grupo 2416" clip-path="url(#clip-path)">
        <g id="Grupo_2415" data-name="Grupo 2415" clip-path="url(#clip-path-2)">
          <g id="Grupo_2401" data-name="Grupo 2401" transform="translate(-893.147 155.829)">
            <path id="Caminho_2127" data-name="Caminho 2127" d="M0,0,37.348,25.236,0,0M2299.531-2064.873q31.783,99.7,63.568,199.393-48.092-5.2-93.168-6.12c-582.191-12.383-795.089,492.25-1008.02,996.881C1048.995-370.127,835.973,134.519,253.894,122.158c-26.017-.552-52.679-2.13-80.206-4.792q-41.88-28.3-83.771-56.608,3.673,2.482,7.35,4.966C1227.291-71.767,1193.41-1838.887,2331.219-1965.476q-15.844-49.7-31.688-99.4" fill="#4d8cca"/>
          </g>
          <g id="Grupo_2402" data-name="Grupo 2402" transform="translate(1397.634 -1936.49)">
            <path id="Caminho_2128" data-name="Caminho 2128" d="M0,0,2.34,7.34Q1.17,3.674,0,0M-32.017-100.426q15.94,50,31.879,100C-928.524,466.355-1365.66,1620.961-2290.781,2092.319l-76.42-51.64C-1603.075,1307-795.854,633.654-32.017-100.426" fill="#3e92cf"/>
          </g>
          <g id="Grupo_2406" data-name="Grupo 2406" opacity="0.2">
            <g id="Grupo_2405" data-name="Grupo 2405">
              <g id="Grupo_2404" data-name="Grupo 2404" clip-path="url(#clip-path-3)">
                <g id="Grupo_2403" data-name="Grupo 2403" transform="translate(1397.496 -1936.921)">
                  <path id="Caminho_2129" data-name="Caminho 2129" d="M0,0C.046.142.092.287.138.431Q1.305,4.1,2.478,7.77q3.2,10.054,6.41,20.107Q5.681,17.822,2.478,7.77q3.2,10.054,6.41,20.107,15.841,49.7,31.687,99.4c-1137.809,126.589-1103.927,1893.709-2233.952,2031.2l-7.35-4.966q-26.286-17.762-52.569-35.522l-37.348-25.236C-1365.522,1621.392-928.387,466.786,0,0" fill="#3e92cf"/>
                </g>
              </g>
            </g>
          </g>
          <g id="Grupo_2407" data-name="Grupo 2407" transform="translate(-855.8 181.066)">
            <path id="Caminho_2130" data-name="Caminho 2130" d="M0,0,52.569,35.521,0,0M2262.184-2090.109h0q15.842,49.7,31.687,99.4-15.844-49.7-31.687-99.4m-6.411-20.107q3.205,10.055,6.411,20.107-3.207-10.056-6.411-20.107" fill="#3e92cf"/>
          </g>
          <g id="Grupo_2408" data-name="Grupo 2408" transform="translate(1323.593 -2168.731)">
            <path id="Caminho_2131" data-name="Caminho 2131" d="M0,0Q10.867,34.089,21.737,68.18C-637.393,972.355-1680.116,1339.444-2341.8,2240.057q-38.537-26.04-77.064-52.078l24.961,16.865C-1841.99,1125.379-546.938,1086.42,0,0" fill="#3e92cf"/>
          </g>
          <g id="Grupo_2409" data-name="Grupo 2409" transform="translate(1251.138 -2396)">
            <path id="Caminho_2132" data-name="Caminho 2132" d="M0,0Q10.863,34.094,21.737,68.18q-2.194,11.626-4.512,23.075c-299.336,1478.29-2158.665,772.37-2458.5,2249.957q-.885,4.359-1.752,8.745,21.537,14.556,43.072,29.1-47.589-32.15-95.18-64.309C-2309.119,639.094-172.972,1693.912,0,0" fill="#3e92cf"/>
          </g>
          <g id="Grupo_2413" data-name="Grupo 2413" opacity="0.2">
            <g id="Grupo_2412" data-name="Grupo 2412">
              <g id="Grupo_2411" data-name="Grupo 2411" clip-path="url(#clip-path-4)">
                <g id="Grupo_2410" data-name="Grupo 2410" transform="translate(1272.875 -2327.82)">
                  <path id="Caminho_2133" data-name="Caminho 2133" d="M0,0Q25.359,79.546,50.718,159.089c-546.937,1086.42-1841.99,1125.379-2393.9,2204.845l-24.962-16.866-53.553-36.189q-21.534-14.551-43.071-29.1.867-4.386,1.751-8.746C-2163.177,795.444-303.848,1501.365-4.512,23.075Q-2.193,11.624,0,0" fill="#3e92cf"/>
                </g>
              </g>
            </g>
          </g>
          <g id="Grupo_2414" data-name="Grupo 2414" transform="translate(-1148.82 -16.941)">
            <path id="Caminho_2134" data-name="Caminho 2134" d="M0,0Q26.775,18.093,53.553,36.19,26.776,18.1,0,0M2421.7-2310.879q25.36,79.542,50.718,159.09-25.36-79.547-50.718-159.09" fill="#3e92cf"/>
          </g>
        </g>
      </g>
    </g>
  </g>
</svg>
