<svg xmlns="http://www.w3.org/2000/svg" viewBox="0 0 1891.002 488.337"><path d="M-11057.138,577.6h-.046c-13.681,0-27.371-.45-40.692-1.328-13.625-.9-27.288-2.271-40.609-4.084-13.594-1.852-27.227-4.212-40.519-7.014-13.523-2.851-27.123-6.254-40.421-10.113-13.52-3.925-27.084-8.427-40.315-13.38-13.444-5.034-26.971-10.693-40.205-16.822-13.409-6.21-26.9-13.084-40.092-20.429-13.371-7.448-26.816-15.592-39.962-24.208V463.581c12.887,9.874,26.054,19.2,39.136,27.718,12.916,8.407,26.13,16.281,39.276,23.4,12.932,7.007,26.189,13.495,39.406,19.284,12.991,5.688,26.292,10.852,39.533,15.348,13.044,4.428,26.385,8.334,39.652,11.607,13.055,3.222,26.435,5.933,39.767,8.057,13.089,2.083,26.5,3.662,39.87,4.692,13.093,1.01,26.541,1.522,39.97,1.522,12.849,0,26.023-.469,39.159-1.394,12.874-.906,26.077-2.273,39.241-4.061,12.886-1.752,26.116-3.957,39.324-6.555,12.907-2.539,26.162-5.522,39.4-8.865,12.9-3.26,26.18-6.962,39.462-11,12.846-3.905,26.145-8.265,39.526-12.958,25.271-8.867,51.924-19.324,79.215-31.079,25.375-10.928,51.347-22.956,79.4-36.771,24.994-12.309,51.009-25.734,79.533-41.041,53.095-28.49,107.087-59.356,159.3-89.207l.087-.049.077-.046.1-.055c52.169-29.823,106.114-60.662,159.143-89.113,28.593-15.341,54.613-28.769,79.549-41.049,27.979-13.783,53.955-25.814,79.414-36.78,27.285-11.753,53.942-22.212,79.229-31.085,13.344-4.68,26.646-9.041,39.533-12.96,13.322-4.05,26.6-7.753,39.47-11,13.26-3.35,26.517-6.334,39.4-8.868,13.193-2.6,26.426-4.8,39.327-6.557,13.214-1.794,26.418-3.16,39.247-4.061,13.139-.925,26.315-1.394,39.162-1.394a517.07,517.07,0,0,1,55.675,2.976,489.191,489.191,0,0,1,55.472,9.282,485.141,485.141,0,0,1,55.253,16.1,507.342,507.342,0,0,1,55.02,23.428,558.477,558.477,0,0,1,54.766,31.279c10.29,6.663,20.692,13.867,30.917,21.412v77.83c-12.168-7.776-24.616-15.163-37-21.954s-25.055-13.176-37.657-18.979-25.5-11.192-38.348-16.019-25.986-9.223-39.073-13.073-26.489-7.262-39.833-10.142-27.009-5.31-40.629-7.226c-13.6-1.914-27.554-3.369-41.458-4.325-13.883-.954-28.123-1.438-42.323-1.438-12.707,0-25.747.385-38.759,1.145-12.742.746-25.806,1.87-38.83,3.339-12.741,1.437-25.827,3.248-38.893,5.384-12.747,2.082-25.852,4.533-38.95,7.283-25.075,5.265-51.341,11.888-78.069,19.684-24.957,7.281-51.285,15.87-78.252,25.53-25.093,8.99-50.737,18.871-78.4,30.208-24.683,10.116-50.366,21.146-78.518,33.718-52.473,23.433-105.724,48.776-157.222,73.285l-.041.02-.105.051-.042.02-.071.035c-51.5,24.505-104.749,49.845-157.076,73.216-28.2,12.592-53.879,23.62-78.5,33.712-27.7,11.35-53.339,21.229-78.39,30.2-26.982,9.666-53.306,18.255-78.24,25.527-26.7,7.79-52.959,14.411-78.055,19.681-13.09,2.75-26.192,5.2-38.944,7.286-13.075,2.135-26.158,3.945-38.887,5.381-13.071,1.475-26.133,2.6-38.822,3.339C-11031.406,577.21-11044.443,577.6-11057.138,577.6Z" transform="translate(11380 -89.259)" fill="#fff"/></svg>