<svg xmlns="http://www.w3.org/2000/svg" viewBox="0 0 1891.002 488.343"><path d="M-9907.573,488.342h-.043c-12.7,0-25.738-.385-38.753-1.145-12.714-.743-25.774-1.865-38.819-3.336-12.745-1.439-25.827-3.25-38.882-5.384-12.712-2.074-25.814-4.523-38.944-7.28-25.083-5.268-51.343-11.889-78.049-19.678-24.964-7.282-51.285-15.87-78.231-25.524-25.095-8.991-50.733-18.87-78.384-30.2-24.7-10.123-50.376-21.15-78.5-33.71-52.411-23.4-105.674-48.753-157.184-73.268l-.143-.069-.04-.017-.086-.041c-51.49-24.5-104.733-49.84-157.1-73.224-28.187-12.586-53.872-23.616-78.522-33.721-27.656-11.332-53.306-21.215-78.412-30.211-26.913-9.641-53.245-18.232-78.264-25.533-26.733-7.8-53-14.42-78.077-19.684-13.092-2.75-26.2-5.2-38.956-7.286-13.062-2.135-26.148-3.946-38.9-5.384-13.077-1.475-26.142-2.6-38.83-3.339-13.017-.76-26.058-1.145-38.762-1.145-18.652,0-37.292.832-55.4,2.473-18.577,1.683-37.162,4.275-55.237,7.7a560.544,560.544,0,0,0-55.053,13.363A567.65,567.65,0,0,0-11380,132.159V46.933a502.375,502.375,0,0,1,52.536-21.2,485.333,485.333,0,0,1,52.753-14.591,490.074,490.074,0,0,1,52.95-8.428A517.343,517.343,0,0,1-11168.639,0c12.845,0,26.02.469,39.158,1.394,12.83.9,26.032,2.267,39.241,4.061,12.86,1.747,26.09,3.951,39.319,6.552,12.847,2.526,26.1,5.509,39.393,8.865,12.9,3.261,26.175,6.962,39.458,11,12.909,3.925,26.206,8.284,39.521,12.955,25.288,8.874,51.938,19.329,79.21,31.073,25.41,10.947,51.378,22.974,79.388,36.768,25,12.316,51.013,25.739,79.528,41.038,52.914,28.391,106.78,59.185,158.874,88.965l.013.008.382.218.021.011.125.071.033.02.429.245c52.082,29.772,105.936,60.558,158.854,88.95,28.58,15.335,54.6,28.762,79.548,41.05,28.014,13.8,53.989,25.828,79.411,36.777,27.262,11.744,53.917,22.2,79.228,31.085,13.345,4.681,26.646,9.041,39.533,12.96,13.271,4.037,26.55,7.739,39.47,11,13.27,3.353,26.525,6.336,39.4,8.868,13.216,2.6,26.447,4.806,39.327,6.555,13.191,1.792,26.4,3.159,39.25,4.064,13.136.925,26.312,1.394,39.162,1.394,152.669,0,287.554-65.25,412.363-199.477v29.613c-14.021,12.808-28.327,25.023-42.52,36.306-17.413,13.846-35.282,26.8-53.114,38.49-17.5,11.473-35.446,22.056-53.34,31.456-17.526,9.209-35.543,17.565-53.55,24.836a566.562,566.562,0,0,1-53.751,18.613c-17.634,5.122-35.78,9.428-53.936,12.8-17.7,3.283-35.9,5.767-54.1,7.383C-9871.02,487.541-9889.275,488.34-9907.573,488.342Z" transform="translate(11380)" fill="#fff"/></svg>