<svg xmlns="http://www.w3.org/2000/svg" viewBox="0 0 1702.15 299.306"><path d="M1126.923,597.933c-16.833,0-34.422-.583-52.276-1.736-17.016-1.1-34.843-2.75-52.986-4.909-33.481-3.985-68.708-9.718-107.7-17.526-32.495-6.508-68.255-14.614-109.324-24.781-36.629-9.068-74-18.9-110.144-28.41l-.094-.025h-.016c-36.131-9.506-73.493-19.336-110.142-28.409-41.076-10.169-76.844-18.276-109.346-24.785-39-7.81-74.236-13.544-107.72-17.53-18.141-2.16-35.971-3.812-53-4.911-17.856-1.153-35.447-1.738-52.284-1.738-17.232,0-34.238.612-50.544,1.82-16.916,1.253-33.625,3.185-49.663,5.745-16.574,2.645-32.955,6.043-48.686,10.1a490.062,490.062,0,0,0-47.6,14.883,468.8,468.8,0,0,0-91.619,45.833,498.312,498.312,0,0,0-43.815,31.809,547.541,547.541,0,0,0-42.356,38.3v-82.2a500.362,500.362,0,0,1,37.023-35.739,447.415,447.415,0,0,1,38.346-29.838A416.2,416.2,0,0,1,2.565,419.6a405.014,405.014,0,0,1,40.759-19.081A412.422,412.422,0,0,1,85.17,386.285a438.045,438.045,0,0,1,42.855-9.735c14.166-2.485,28.9-4.364,43.786-5.584,14.436-1.183,29.454-1.784,44.638-1.784,18,0,36.86.844,56.05,2.509,18.292,1.587,37.5,3.973,57.078,7.092,18.513,2.949,38.013,6.656,57.959,11.02,18.643,4.079,38.391,8.887,58.694,14.293,18.914,5.036,38.3,10.568,59.281,16.911,18.689,5.652,38.224,11.826,59.722,18.876,39.929,13.092,80.725,27.292,120.179,41.024l.062.022.044.015c39.436,13.726,80.215,27.919,120.145,41.012,21.495,7.048,41.032,13.223,59.73,18.878,20.981,6.345,40.375,11.878,59.291,16.914,20.3,5.406,40.055,10.216,58.7,14.3,19.948,4.364,39.451,8.072,57.968,11.022,19.586,3.12,38.792,5.506,57.085,7.093,19.2,1.666,38.055,2.51,56.055,2.51a534.75,534.75,0,0,0,61.873-3.495c10.229-1.2,20.426-2.726,30.308-4.545,10.075-1.854,20.119-4.064,29.854-6.567,9.915-2.55,19.8-5.48,29.373-8.707,9.746-3.285,19.459-6.974,28.866-10.965,9.567-4.059,19.1-8.547,28.333-13.341,9.38-4.871,18.725-10.2,27.773-15.835,9.185-5.722,18.333-11.928,27.188-18.446,8.983-6.612,17.924-13.737,26.575-21.176,8.773-7.544,17.5-15.626,25.937-24.023,8.552-8.511,17.055-17.591,25.272-26.988,8.324-9.519,16.594-19.637,24.58-30.071,8.085-10.562,16.113-21.756,23.863-33.271,7.84-11.649,15.618-23.96,23.119-36.59,7.586-12.774,15.106-26.241,22.349-40.026q-.8,14.374-1.6,28.751l-.139,2.492-.695,12.486c-2.375,3.6-4.778,7.19-7.143,10.658-7.882,11.56-16.035,22.85-24.234,33.556-8.1,10.58-16.476,20.888-24.889,30.638-8.31,9.63-16.9,18.991-25.521,27.823-8.513,8.718-17.3,17.167-26.129,25.114-8.707,7.84-17.7,15.412-26.714,22.507-8.894,7-18.071,13.727-27.276,20-9.073,6.188-18.431,12.111-27.814,17.606-9.242,5.412-18.773,10.564-28.329,15.311-9.405,4.673-19.1,9.088-28.82,13.121-9.559,3.967-19.413,7.68-29.288,11.035a503.31,503.31,0,0,1-59.887,16.225,568.762,568.762,0,0,1-61.478,9.126C1169.653,596.97,1148.5,597.932,1126.923,597.933Z" transform="translate(112.395 -298.627)" fill="#3e92cf" opacity="0.2"/></svg>