<svg xmlns="http://www.w3.org/2000/svg" viewBox="0 0 1323 386.534"><path d="M1400.18,641.547h0c-11.979-3.52-24.427-6.772-37-9.666-13.74-3.163-28.107-6.01-42.7-8.462-52.75-8.86-111.538-13.167-179.723-13.167-35.792,0-75.445,1.188-121.228,3.632-40.833,2.179-82.653,5.134-123.1,7.991h-.072c-40.444,2.857-82.265,5.811-123.116,7.992-22,1.175-41.949,2.036-60.977,2.634-21.372.672-41.087,1-60.269,1-64.478,0-120.36-3.835-170.837-11.725-13.886-2.17-27.592-4.693-40.738-7.5-13.561-2.893-26.939-6.175-39.764-9.755-13.207-3.688-26.226-7.8-38.7-12.231-12.82-4.553-25.448-9.574-37.533-14.923-12.4-5.49-24.61-11.489-36.279-17.831-11.955-6.5-23.707-13.546-34.93-20.954-11.476-7.574-22.743-15.749-33.489-24.3-10.97-8.725-21.721-18.1-31.953-27.851-10.431-9.944-20.634-20.584-30.326-31.625-9.869-11.244-19.493-23.227-28.6-35.614-9.265-12.6-18.279-26-26.789-39.82-8.644-14.032-17.015-28.917-24.882-44.233V255.013c5.457,21.826,10.725,41.019,16.1,58.675,6.173,20.239,12.366,38.075,18.936,54.525,3.5,8.776,7.148,17.2,10.826,25.044,3.836,8.176,7.837,15.984,11.893,23.207,4.211,7.5,8.612,14.6,13.08,21.1A215.317,215.317,0,0,0,162.4,456.313c6.6,7.649,13.52,15.113,20.552,22.184,6.942,6.979,14.186,13.764,21.532,20.167a410.1,410.1,0,0,0,45.838,34.607A426.538,426.538,0,0,0,299.6,560.779,472.348,472.348,0,0,0,352,581.834a550.6,550.6,0,0,0,55.213,15.25c18.337,4.076,37.753,7.471,57.709,10.092,19.021,2.5,39.171,4.376,59.89,5.581,19.583,1.139,40.36,1.717,61.756,1.717,24.928,0,50.735-.745,78.893-2.278,25.086-1.366,51.479-3.33,80.685-6,54.307-4.976,110.244-11.71,164.339-18.223h.01l.109-.013h.035l.165-.02c54.028-6.5,109.9-13.229,164.033-18.191,29.174-2.674,55.534-4.637,80.586-6,28.111-1.532,53.874-2.276,78.761-2.276,14.978,0,29.693.283,43.735.841,14.649.582,29.062,1.481,42.839,2.674,14.308,1.239,28.383,2.833,41.834,4.736,12.8,1.811,25.446,3.96,37.585,6.39Z" transform="translate(-77.18 -255.013)" fill="#4d8cca" opacity="0.5"/></svg>