<svg xmlns="http://www.w3.org/2000/svg" viewBox="0 0 797.252 613.102">
  <defs>
      <style>
          .cls-1 {
              fill: #292623;
              font-size: 13px;
              font-family: ArialMT, Arial;
          }

          .cls-2 {
              fill: #9bc4e6;
          }

          .cls-3 {
              fill: #ebecec;
          }

          .cls-4 {
              fill: #4d8cca;
          }

          .cls-5 {
              fill: #323e5f;
          }

          .cls-10,
          .cls-6 {
              fill: #fff;
          }

          .cls-15,
          .cls-6 {
              font-size: 17px;
          }

          .cls-14,
          .cls-15,
          .cls-6 {
              font-family: Arial-BoldMT, Arial;
              font-weight: 700;
          }

          .cls-11,
          .cls-12,
          .cls-13,
          .cls-7,
          .cls-8,
          .cls-9 {
              fill: none;
          }

          .cls-7 {
              stroke: #9a9b9f;
              stroke-width: 0.305px;
          }

          .cls-8,
          .cls-9 {
              stroke: #aba8a5;
              stroke-width: 0.414px;
          }

          .cls-12,
          .cls-13,
          .cls-8,
          .cls-9 {
              stroke-linecap: round;
          }

          .cls-8 {
              stroke-dasharray: 1.651 1.651;
          }

          .cls-9 {
              stroke-dasharray: 1.658 1.658;
          }

          .cls-12 {
              stroke: #4d8cca;
          }

          .cls-12,
          .cls-13 {
              stroke-width: 9.927px;
          }

          .cls-13 {
              stroke: #9bc4e6;
          }

          .cls-14,
          .cls-15 {
              fill: #2b2e34;
          }

          .cls-14 {
              font-size: 14px;
          }
      </style>
  </defs>
  <g id="Grupo_3430" data-name="Grupo 3430" transform="translate(-575.095 -2460.193)">
      <text id="Learning_outcome" data-name="Learning outcome" class="cls-1"
          transform="translate(604.172 3043.772)">
          <tspan x="0" y="0">Learning outcome</tspan>
      </text>
      <path id="Caminho_172" data-name="Caminho 172" class="cls-2"
          d="M0,0A9.379,9.379,0,0,0,9.379-9.379,9.379,9.379,0,0,0,0-18.759a9.379,9.379,0,0,0-9.379,9.38A9.379,9.379,0,0,0,0,0"
          transform="translate(584.475 3049.144)" />
      <path id="Caminho_174" data-name="Caminho 174" class="cls-3"
          d="M237.9-8.539H402.507v-30.62H237.9Z" transform="translate(548 3073.296)" />
      <text id="Other_knowledge-sharing_" data-name="Other knowledge-sharing " class="cls-1"
          transform="translate(785.898 3043.772)">
          <tspan x="0" y="0">Other knowledge-sharing </tspan>
      </text>
      <text id="and_training-related" data-name="and training-related" class="cls-1"
          transform="translate(785.898 3061.971)">
          <tspan x="0" y="0">and training-related</tspan>
      </text>
      <path id="Caminho_175" data-name="Caminho 175" class="cls-4"
          d="M0,0A9.379,9.379,0,0,0,9.379-9.379,9.379,9.379,0,0,0,0-18.759a9.379,9.379,0,0,0-9.379,9.38A9.379,9.379,0,0,0,0,0"
          transform="translate(766.201 3049.144)" />
      <path id="Caminho_176" data-name="Caminho 176" class="cls-5"
          d="M0,0A25.324,25.324,0,0,0-25.324,25.324,25.324,25.324,0,0,0,0,50.649H229.093a25.324,25.324,0,0,0,0-50.649Z"
          transform="translate(1112.324 3022.646)" />
      <text id="Total_of_beneficiaries_133_421" data-name="Total of beneficiaries 133,421"
          class="cls-6" transform="translate(1110 3054.623)">
          <tspan x="0" y="0">Total of beneficiaries 133,421</tspan>
      </text>
      <path id="Caminho_178" data-name="Caminho 178" class="cls-7" d="M0,0H797.252"
          transform="translate(575.095 2938.392)" />
      <path id="Caminho_179" data-name="Caminho 179" class="cls-7" d="M0,0H797.252"
          transform="translate(575.095 2798.893)" />
      <path id="Caminho_180" data-name="Caminho 180" class="cls-7" d="M0,0H797.252"
          transform="translate(575.095 2659.395)" />
      <path id="Caminho_181" data-name="Caminho 181" class="cls-7" d="M0,0H797.252"
          transform="translate(575.095 2891.892)" />
      <path id="Caminho_182" data-name="Caminho 182" class="cls-7" d="M0,0H797.252"
          transform="translate(575.095 2752.394)" />
      <path id="Caminho_183" data-name="Caminho 183" class="cls-7" d="M0,0H797.252"
          transform="translate(575.095 2612.895)" />
      <path id="Caminho_184" data-name="Caminho 184" class="cls-7" d="M0,0H797.252"
          transform="translate(575.095 2519.896)" />
      <path id="Caminho_185" data-name="Caminho 185" class="cls-7" d="M0,0H797.252"
          transform="translate(575.095 2845.392)" />
      <path id="Caminho_186" data-name="Caminho 186" class="cls-7" d="M0,0H797.252"
          transform="translate(575.095 2705.894)" />
      <path id="Caminho_187" data-name="Caminho 187" class="cls-7" d="M0,0H797.252"
          transform="translate(575.095 2566.396)" />
      <path id="Caminho_188" data-name="Caminho 188" class="cls-7" d="M0,0H797.252"
          transform="translate(575.095 2473.397)" />
      <text id="_2016" data-name="2016" class="cls-1" transform="translate(578.826 2964.754)">
          <tspan x="0" y="0">2016</tspan>
      </text>
      <text id="_2017" data-name="2017" class="cls-1" transform="translate(830.894 2964.754)">
          <tspan x="0" y="0">2017</tspan>
      </text>
      <text id="_2018" data-name="2018" class="cls-1"
          transform="translate(1074.756 2964.754)">
          <tspan x="0" y="0">2018</tspan>
      </text>
      <path id="Caminho_189" data-name="Caminho 189" class="cls-8" d="M0,0V-490.345"
          transform="translate(594.792 2950.745)" />
      <path id="Caminho_190" data-name="Caminho 190" class="cls-8" d="M0,0V-490.345"
          transform="translate(846.892 2950.745)" />
      <path id="Caminho_191" data-name="Caminho 191" class="cls-8" d="M0,0V-490.345"
          transform="translate(1090.757 2950.745)" />
      <path id="Caminho_192" data-name="Caminho 192" class="cls-9" d="M0,0V-555.474"
          transform="translate(1347.229 3015.874)" />
      <path id="Caminho_193" data-name="Caminho 193" class="cls-10"
          d="M783.525-108.542H817.34v-9.636H783.525Z" transform="translate(548 3073.296)" />
      <path id="Caminho_194" data-name="Caminho 194" class="cls-3"
          d="M783.525-105.757H817.34v-12.421H783.525Z" transform="translate(548 3073.296)" />
      <text id="_2019" data-name="2019" class="cls-1"
          transform="translate(1331.525 2964.754)">
          <tspan x="0" y="0">2019</tspan>
      </text>
      <path id="Caminho_195" data-name="Caminho 195" class="cls-3"
          d="M520.1-29.789h47.863V-50.116H520.1Z" transform="translate(579 2890.146)" />
      <path id="Caminho_196" data-name="Caminho 196" class="cls-11" d="M0,0H784.2V-399.573H0Z"
          transform="translate(579 2890.146)" />
      <path id="Caminho_199" data-name="Caminho 199" class="cls-11" d="M0,0H784.2V-399.573H0Z"
          transform="translate(579 2890.146)" />
      <path id="Caminho_197" data-name="Caminho 197" class="cls-13"
          d="M0,0S184.071,14.069,263.8-9.379s226.044-93.8,240.113-101.3,270.362-155.7,270.362-155.7"
          transform="translate(583.963 2767.501)" />
      <path id="Caminho_198" data-name="Caminho 198" class="cls-12"
          d="M0,0S232.375,14.3,260.045,13.835,443.413-.234,504.379-14.772s266.376-80.9,266.376-80.9"
          transform="translate(586.308 2845.819)" />
      <text id="_35_093" data-name="35,093" class="cls-14"
          transform="translate(600.866 2792.165)">
          <tspan x="0" y="0">35,093</tspan>
      </text>
      <text id="_38_090" data-name="38,090" class="cls-14"
          transform="translate(855.889 2775.772)">
          <tspan x="0" y="0">38,090</tspan>
      </text>
      <text id="_60_901" data-name="60,901" class="cls-14"
          transform="translate(1096.749 2676.098)">
          <tspan x="0" y="0">60,901</tspan>
      </text>
      <text id="_92_378" data-name="92,378" class="cls-15"
          transform="translate(1289.555 2499.402)">
          <tspan x="0" y="0">92,378</tspan>
      </text>
      <text id="_19_747" data-name="19,747" class="cls-14"
          transform="translate(600.866 2871.052)">
          <tspan x="0" y="0">19,747</tspan>
      </text>
      <text id="_18_120" data-name="18,120" class="cls-14"
          transform="translate(855.889 2880.566)">
          <tspan x="0" y="0">18,120</tspan>
      </text>
      <text id="_24_000" data-name="24,000" class="cls-14"
          transform="translate(1100.101 2850.859)">
          <tspan x="0" y="0">24,000</tspan>
      </text>
      <text id="_41_043" data-name="41,043" class="cls-15"
          transform="translate(1287.555 2740.658)">
          <tspan x="0" y="0">41,043</tspan>
      </text>
  </g>
</svg>