<svg xmlns="http://www.w3.org/2000/svg" viewBox="0 0 297.835 478.751"><g transform="translate(-39 -113.249)"><text transform="translate(58.835 589)" fill="#292623" font-size="11" font-family="ArialMT, Arial"><tspan x="0" y="0">S04 Inclusive and sustainable economic growth </tspan></text><text transform="translate(57.835 564)" fill="#292623" font-size="11" font-family="ArialMT, Arial"><tspan x="0" y="0">S05 Indivisible and integrated Nature of the 2030 Agenda</tspan></text><text transform="translate(57.6 464)" fill="#292623" font-size="11" font-family="ArialMT, Arial"><tspan x="0" y="0">S03 Planet and environmental protection and restoration</tspan></text><text transform="translate(57.97 488)" fill="#292623" font-size="11" font-family="ArialMT, Arial"><tspan x="0" y="0">S02 People and social inclusion</tspan></text><text transform="translate(57.988 539)" fill="#292623" font-size="11" font-family="ArialMT, Arial"><tspan x="0" y="0">Multiple objectives</tspan></text><text transform="translate(57.73 513)" fill="#292623" font-size="11" font-family="ArialMT, Arial"><tspan x="0" y="0">S01 Peace and just and inclusive societies</tspan></text><g transform="translate(130.247 183.249)"><g transform="translate(16.961)"><path d="M-110.4-111.141l70.552,32.152a77.533,77.533,0,0,0-38.4-102.7,77.533,77.533,0,0,0-102.7,38.4,76.731,76.731,0,0,0-6.483,23.375Z" transform="translate(187.434 188.693)" fill="#219e45"/></g><g transform="translate(54.238 87.7)"><path d="M-66.093,0l-46.118,62.326A77.533,77.533,0,0,0-3.767,46.118,71.634,71.634,0,0,0,4.459,32.152Z" transform="translate(112.211)" fill="#7771b1"/></g><g transform="translate(11.271 97.245)"><path d="M-108.043,0l-75.391,18.1c4.458,18.57,13.92,32.866,29.272,44.226Z" transform="translate(183.434)" fill="#63c3ef"/></g><g transform="translate(16.35 90.228)"><path d="M-110.163,0l-76.87,10.12c.335,2.547.88,5.481,1.479,7.98Z" transform="translate(187.033)" fill="#4d4945"/></g><g transform="translate(0 81.704)"><path d="M-111.13-6.784l-77.389-4.733A74.353,74.353,0,0,0-188,3.336Z" transform="translate(188.675 11.517)" fill="#323e5f"/></g><g transform="translate(4.03 72.755)"><path d="M-110.906-12.578l-77.035-8.777c-.194,1.7-.249,2.334-.354,4.043Z" transform="translate(188.295 21.355)" fill="none" stroke="#f09300" stroke-linecap="round" stroke-linejoin="round" stroke-width="2.28"/></g><g transform="translate(16.961)"><path d="M-110.4-111.141l70.552,32.152a77.533,77.533,0,0,0-38.4-102.7,77.533,77.533,0,0,0-102.7,38.4,76.731,76.731,0,0,0-6.483,23.375Z" transform="translate(187.434 188.693)" fill="none" stroke="#219e45" stroke-linecap="round" stroke-linejoin="round" stroke-width="2.28"/></g><g transform="translate(54.238 87.7)"><path d="M-66.093,0l-46.118,62.326A77.533,77.533,0,0,0-3.767,46.118,71.634,71.634,0,0,0,4.459,32.152Z" transform="translate(112.211)" fill="none" stroke="#7771b1" stroke-linecap="round" stroke-linejoin="round" stroke-width="2.28"/></g><g transform="translate(11.271 97.245)"><path d="M-108.043,0l-75.391,18.1c4.458,18.57,13.92,32.866,29.272,44.226Z" transform="translate(183.434)" fill="none" stroke="#63c3ef" stroke-linecap="round" stroke-linejoin="round" stroke-width="2.28"/></g><g transform="translate(16.35 90.228)"><path d="M-110.163,0l-76.87,10.12c.335,2.547.88,5.481,1.479,7.98Z" transform="translate(187.033)" fill="none" stroke="#4d4945" stroke-linecap="round" stroke-linejoin="round" stroke-width="2.28"/></g><g transform="translate(0 81.704)"><path d="M-111.13-6.784l-77.389-4.733A74.353,74.353,0,0,0-188,3.336Z" transform="translate(188.675 11.517)" fill="none" stroke="#323e5f" stroke-linecap="round" stroke-linejoin="round" stroke-width="2.28"/></g><g transform="translate(4.03 72.755)"><path d="M-110.906-12.578l-77.035-8.777c-.194,1.7-.249,2.334-.354,4.043Z" transform="translate(188.295 21.355)" fill="#f09300"/></g></g><rect width="136" height="281" transform="translate(174 125)" fill="none"/><g transform="translate(236.992 141.566)"><path d="M0-44.541,21.153-113.57" transform="translate(0 113.57)" fill="none" stroke="#7c7975" stroke-width="0.5"/></g><g transform="matrix(0.616, 0.788, -0.788, 0.616, 256.403, 320.624)"><path d="M46.372,10.042,0,0" transform="translate(0 0)" fill="none" stroke="#7c7975" stroke-width="0.5"/></g><g transform="matrix(0.839, 0.545, -0.545, 0.839, 96.9, 220.654)"><path d="M58.692,7.393,0,0" fill="none" stroke="#7c7975" stroke-width="0.5"/></g><text transform="translate(75.925 213.479)" fill="#f09300" font-size="24" font-family="Arial-BoldMT, Arial" font-weight="700"><tspan x="0" y="0">1% </tspan></text><text transform="translate(60.821 268.685)" fill="#323e5f" font-size="24" font-family="Arial-BoldMT, Arial" font-weight="700"><tspan x="0" y="0">3% </tspan></text><text transform="translate(70.158 317.062)" fill="#4d4945" font-size="24" font-family="Arial-BoldMT, Arial" font-weight="700"><tspan x="0" y="0">1%</tspan></text><text transform="translate(173.135 292.391)" fill="#223d60" font-size="11" font-family="Arial-BoldMT, Arial" font-weight="700"><tspan x="0" y="0"> </tspan></text><text transform="translate(117.34 384.066)" fill="#63c3ef" font-size="24" font-family="Arial-BoldMT, Arial" font-weight="700"><tspan x="0" y="0">11% </tspan></text><text transform="translate(242.049 135.249)" fill="#219e45" font-size="24" font-family="Arial-BoldMT, Arial" font-weight="700"><tspan x="0" y="0">54%</tspan></text><text transform="translate(259.556 386.633)" fill="#7771b1" font-size="24" font-family="Arial-BoldMT, Arial" font-weight="700"><tspan x="0" y="0">30%</tspan></text><g transform="matrix(0.985, 0.174, -0.174, 0.985, 99.327, 262.821)"><path d="M0,0,47.492,2.245" fill="none" stroke="#7c7975" stroke-width="0.5"/></g><g transform="translate(108.311 286.066)"><path d="M0-7.25,45.191-29.082" transform="translate(0 29.082)" fill="none" stroke="#7c7975" stroke-width="0.5"/></g><g transform="translate(144.378 319.422)"><path d="M0-.44,18.247-40.067" transform="translate(0 40.067)" fill="none" stroke="#7c7975" stroke-width="0.5"/></g><circle cx="5.5" cy="5.5" r="5.5" transform="translate(39 455)" fill="#219e45"/><circle cx="5.5" cy="5.5" r="5.5" transform="translate(39 530)" fill="#4d4944"/><circle cx="5.5" cy="5.5" r="5.5" transform="translate(39 479)" fill="#7771b1"/><circle cx="5.5" cy="5.5" r="5.5" transform="translate(39 555)" fill="#323e5f"/><circle cx="5.5" cy="5.5" r="5.5" transform="translate(39 504)" fill="#63c3ef"/><circle cx="5.5" cy="5.5" r="5.5" transform="translate(39 580)" fill="#f09326"/></g></svg>