<svg xmlns="http://www.w3.org/2000/svg" viewBox="0 0 347.996 333.764"><g transform="translate(-16 -154.93)"><g transform="translate(21.752 164.247)"><g transform="translate(0 195.645)"><path d="M0,0H335.442" fill="none" stroke="#9a9b9f" stroke-width="0.2"/></g><g transform="translate(0 136.952)"><path d="M0,0H335.442" fill="none" stroke="#9a9b9f" stroke-width="0.2"/></g><g transform="translate(0 78.258)"><path d="M0,0H335.442" fill="none" stroke="#9a9b9f" stroke-width="0.2"/></g><g transform="translate(0 176.081)"><path d="M0,0H335.442" fill="none" stroke="#9a9b9f" stroke-width="0.2"/></g><g transform="translate(0 117.387)"><path d="M0,0H335.442" fill="none" stroke="#9a9b9f" stroke-width="0.2"/></g><g transform="translate(0 58.693)"><path d="M0,0H335.442" fill="none" stroke="#9a9b9f" stroke-width="0.2"/></g><g transform="translate(0 19.565)"><path d="M0,0H335.442" fill="none" stroke="#9a9b9f" stroke-width="0.2"/></g><g transform="translate(0 156.516)"><path d="M0,0H335.442" fill="none" stroke="#9a9b9f" stroke-width="0.2"/></g><g transform="translate(0 97.823)"><path d="M0,0H335.442" fill="none" stroke="#9a9b9f" stroke-width="0.2"/></g><g transform="translate(0 39.129)"><path d="M0,0H335.442" fill="none" stroke="#9a9b9f" stroke-width="0.2"/></g><g transform="translate(0)"><path d="M0,0H335.442" fill="none" stroke="#9a9b9f" stroke-width="0.2"/></g></g><text transform="translate(20.321 377)" fill="#292623" font-size="9" font-family="ArialMT, Arial"><tspan x="0" y="0">2016</tspan></text><text transform="translate(126.379 377)" fill="#292623" font-size="9" font-family="ArialMT, Arial"><tspan x="0" y="0">2017</tspan></text><text transform="translate(228.983 377)" fill="#292623" font-size="9" font-family="ArialMT, Arial"><tspan x="0" y="0">2018</tspan></text><g transform="translate(30.039 158.779)"><path d="M0-284.034V-490.345" transform="translate(0 490.345)" fill="none" stroke="#aba8a5" stroke-linecap="round" stroke-width="0.3" stroke-dasharray="1.651 1.651"/></g><g transform="translate(136.11 158.779)"><path d="M0-284.034V-490.345" transform="translate(0 490.345)" fill="none" stroke="#aba8a5" stroke-linecap="round" stroke-width="0.3" stroke-dasharray="1.651 1.651"/></g><g transform="translate(238.715 158.779)"><path d="M0-284.034V-490.345" transform="translate(0 490.345)" fill="none" stroke="#aba8a5" stroke-linecap="round" stroke-width="0.3" stroke-dasharray="1.651 1.651"/></g><g transform="translate(346.625 158.779)"><path d="M0-305.682V-555.474" transform="translate(0 555.474)" fill="none" stroke="#aba8a5" stroke-linecap="round" stroke-width="0.3" stroke-dasharray="1.658 1.658"/></g><path d="M783.525-106.108h14.228v-12.07H783.525Z" transform="translate(-443.507 489.108)" fill="#ebecec"/><path d="M783.525-106.108h34.433v-12.07H783.525Z" transform="translate(-457.628 273.108)" fill="#ebecec"/><path d="M783.525-106.108h14.228v-12.07H783.525Z" transform="translate(-443.507 381.108)" fill="#ebecec"/><text transform="translate(336.018 379)" fill="#292623" font-size="9" font-family="ArialMT, Arial"><tspan x="0" y="0">2019</tspan></text><text transform="translate(323.377 168.494)" fill="#2b2e34" font-size="13" font-family="Arial-BoldMT, Arial" font-weight="700"><tspan x="0" y="0">92,378</tspan></text><text transform="translate(323.377 273.001)" fill="#2b2e34" font-size="13" font-family="Arial-BoldMT, Arial" font-weight="700"><tspan x="0" y="0">41,043</tspan></text><g transform="translate(25.483 174.722)"><path d="M0-154.3s77.447,5.92,110.992-3.946,95.107-39.464,101.027-42.621,113.754-65.51,113.754-65.51" transform="translate(0 266.376)" fill="none" stroke="#9bc4e6" stroke-linecap="round" stroke-width="6"/></g><g transform="translate(26.47 279.498)"><path d="M0-55.417S97.771-49.4,109.413-49.6s77.152-5.92,102.8-12.036S324.293-95.67,324.293-95.67" transform="translate(0 95.67)" fill="none" stroke="#4d8cca" stroke-linecap="round" stroke-width="6"/></g><g transform="translate(-14 -24)"><text transform="translate(63.117 483.694)" fill="#292623" font-size="11" font-family="ArialMT, Arial"><tspan x="0" y="0">Learning outcome</tspan></text><circle cx="5.5" cy="5.5" r="5.5" transform="translate(44 474)" fill="#9bc4e6"/></g><g transform="translate(-14 -24)"><text transform="translate(63.265 509.694)" fill="#292623" font-size="11" font-family="ArialMT, Arial"><tspan x="0" y="0">Other knowledge-sharing and training-related</tspan></text><circle cx="5.5" cy="5.5" r="5.5" transform="translate(44 500)" fill="#4d8cca"/></g><g transform="translate(187 399)"><path d="M-9.3,0A16.023,16.023,0,0,0-25.324,16.023,16.023,16.023,0,0,0-9.3,32.046h144.95a16.023,16.023,0,0,0,0-32.046Z" transform="translate(25.324)" fill="#323e5f"/></g><text transform="translate(200 419)" fill="#fff" font-size="11" font-family="Arial-BoldMT, Arial" font-weight="700"><tspan x="0" y="0">Total of beneficiaries 133,421</tspan></text><rect width="11" height="14" transform="translate(233 322)" fill="#ebecec"/><rect width="11" height="14" transform="translate(233 246)" fill="#ebecec"/><rect width="31" height="11" transform="translate(121 332)" fill="#ebecec"/><rect width="11" height="9" transform="translate(131 289)" fill="#ebecec"/><rect width="11" height="12" transform="translate(25 327)" fill="#ebecec"/><rect width="33" height="11" transform="translate(20 292)" fill="#ebecec"/><text transform="translate(223.647 330.402)" fill="#2b2e34" font-size="10" font-family="Arial-BoldMT, Arial" font-weight="700"><tspan x="0" y="0">24,000</tspan></text><text transform="translate(120.895 340.901)" fill="#2b2e34" font-size="10" font-family="Arial-BoldMT, Arial" font-weight="700"><tspan x="0" y="0">18,120</tspan></text><text transform="translate(16 301.706)" fill="#2b2e34" font-size="10" font-family="Arial-BoldMT, Arial" font-weight="700"><tspan x="0" y="0">35,093</tspan></text><text transform="translate(16 335.898)" fill="#2b2e34" font-size="10" font-family="Arial-BoldMT, Arial" font-weight="700"><tspan x="0" y="0">19,747</tspan></text><text transform="translate(120.895 297.809)" fill="#2b2e34" font-size="10" font-family="Arial-BoldMT, Arial" font-weight="700"><tspan x="0" y="0">38,090</tspan></text><text transform="translate(228.236 256.063)" fill="#2b2e34" font-size="10" font-family="Arial-BoldMT, Arial" font-weight="700"><tspan x="0" y="0">60,901</tspan></text></g></svg>