<svg xmlns="http://www.w3.org/2000/svg" viewBox="0 0 317.744 424"><g transform="translate(-35.226 -185)"><g transform="translate(107.829 188.311) rotate(90)"><path d="M561.476-821.6H406.29v-72.6H561.476Z" transform="translate(-406.29 894.204)" fill="#4d8cca"/><path d="M985.113-821.6H897.572v-72.6h87.541Z" transform="translate(-742.662 894.204)" fill="#323e5f"/><path d="M1246.576-821.6h-71.624v-72.6h71.624Z" transform="translate(-932.58 894.204)" fill="#219e45"/><path d="M1433.934-821.6H1402.1v-72.6h31.833Z" transform="translate(-1088.104 894.204)" fill="#63c3ef"/><path d="M1526.931-821.6h-23.875v-72.6h23.875Z" transform="translate(-1157.227 894.204)" fill="#d53216"/><path d="M1597.471-821.6h-19.9v-72.6h19.9Z" transform="translate(-1208.248 894.204)" fill="#7771b1"/><path d="M1652.505-821.6h-11.937v-72.6h11.937Z" transform="translate(-1251.378 894.204)" fill="#b81371"/></g><text transform="translate(175.696 207)" fill="#4d8cca" font-size="24" font-family="Arial-BoldMT, Arial" font-weight="700"><tspan x="0" y="0">39% </tspan></text><text transform="translate(175.696 361)" fill="#323e5f" font-size="24" font-family="Arial-BoldMT, Arial" font-weight="700"><tspan x="0" y="0">22%</tspan></text><text transform="translate(242.696 549)" fill="#d53216" font-size="24" font-family="Arial-BoldMT, Arial" font-weight="700"><tspan x="0" y="0">6%</tspan></text><text transform="translate(193.696 572)" fill="#7771b1" font-size="24" font-family="Arial-BoldMT, Arial" font-weight="700"><tspan x="0" y="0">5%</tspan></text><text transform="translate(175.696 450)" fill="#219e45" font-size="24" font-family="Arial-BoldMT, Arial" font-weight="700"><tspan x="0" y="0">18%</tspan></text><text transform="translate(286.696 502)" fill="#63c3ef" font-size="24" font-family="Arial-BoldMT, Arial" font-weight="700"><tspan x="0" y="0">8%</tspan></text><text transform="translate(139.696 592)" fill="#b81371" font-size="24" font-family="Arial-BoldMT, Arial" font-weight="700"><tspan x="0" y="0">3%</tspan></text><path d="M0,0V65.585" transform="translate(101.948 198.5) rotate(-90)" fill="none" stroke="#7c7975" stroke-width="0.5"/><path d="M0,0V65.585" transform="translate(101.948 352.5) rotate(-90)" fill="none" stroke="#7c7975" stroke-width="0.5"/><path d="M0,0V136.313" transform="translate(101.948 540.5) rotate(-90)" fill="none" stroke="#7c7975" stroke-width="0.5"/><path d="M0,0V83.588" transform="translate(101.948 563.5) rotate(-90)" fill="none" stroke="#7c7975" stroke-width="0.5"/><path d="M0,0V68.156" transform="translate(101.948 441.5) rotate(-90)" fill="none" stroke="#7c7975" stroke-width="0.5"/><path d="M0,0V178.707" transform="translate(101.948 510.5) rotate(-90)" fill="none" stroke="#7c7975" stroke-width="0.5"/><path d="M0,0V30.543" transform="translate(101.948 583.5) rotate(-90)" fill="none" stroke="#7c7975" stroke-width="0.5"/><text transform="translate(175.97 223)" fill="#292623" font-size="13" font-family="ArialMT, Arial"><tspan x="0" y="0">UN</tspan></text><text transform="translate(173.97 376)" fill="#292623" font-size="11" font-family="ArialMT, Arial"><tspan x="0" y="0">Government</tspan></text><text transform="translate(242.97 564)" fill="#292623" font-size="11" font-family="ArialMT, Arial"><tspan x="0" y="0">Private </tspan><tspan x="0" y="12">sector</tspan></text><text transform="translate(193.97 587)" fill="#292623" font-size="11" font-family="ArialMT, Arial"><tspan x="0" y="0">NGO</tspan></text><text transform="translate(178.97 465)" fill="#292623" font-size="11" font-family="ArialMT, Arial"><tspan x="0" y="0">Academia</tspan></text><text transform="translate(286.97 516)" fill="#292623" font-size="11" font-family="ArialMT, Arial"><tspan x="0" y="0">International </tspan><tspan x="0" y="12">Organization </tspan><tspan x="0" y="24">(non UN)</tspan></text><text transform="translate(139.97 607)" fill="#292623" font-size="11" font-family="ArialMT, Arial"><tspan x="0" y="0">Foundation</tspan></text></g></svg>