<svg xmlns="http://www.w3.org/2000/svg" viewBox="0 0 314.401 410.514"><g transform="translate(-36.104 -56.486)"><g transform="translate(31 72)"><text transform="translate(57.6 333)" fill="#292623" font-size="11" font-family="ArialMT, Arial"><tspan x="0" y="0">Governments </tspan></text><circle cx="5.5" cy="5.5" r="5.5" transform="translate(39 324)" fill="#9bc4e6"/></g><g transform="translate(38 4)"><text transform="translate(199.988 425)" fill="#292623" font-size="11" font-family="ArialMT, Arial"><tspan x="0" y="0">NGOs</tspan></text><circle cx="5.5" cy="5.5" r="5.5" transform="translate(181 416)" fill="#b81371"/></g><g transform="translate(51 73)"><text transform="translate(186.97 332)" fill="#292623" font-size="11" font-family="ArialMT, Arial"><tspan x="0" y="0">Private sector</tspan></text><circle cx="5.5" cy="5.5" r="5.5" transform="translate(168 323)" fill="#323e5f"/></g><g transform="translate(-110 4)"><text transform="translate(199.835 461)" fill="#292623" font-size="11" font-family="ArialMT, Arial"><tspan x="0" y="0">Academia</tspan></text><circle cx="5.5" cy="5.5" r="5.5" transform="translate(181 452)" fill="#7771b1"/></g><g transform="translate(31 47)"><text transform="translate(57.73 382)" fill="#292623" font-size="11" font-family="ArialMT, Arial"><tspan x="0" y="0">UN &amp; International </tspan><tspan x="0" y="12">organisations</tspan></text><circle cx="5.5" cy="5.5" r="5.5" transform="translate(39 373)" fill="#219e45"/></g><g transform="translate(38 -33)"><text transform="translate(200.835 486)" fill="#292623" font-size="11" font-family="ArialMT, Arial"><tspan x="0" y="0">Other</tspan></text><circle cx="5.5" cy="5.5" r="5.5" transform="translate(181 477)" fill="#4d8cca"/></g><g transform="translate(18.104 41.062)"><g transform="translate(84.1 75.988)"><path d="M-58-58.565l-80.084-11.255A80.378,80.378,0,0,1-58-139.435Z" transform="translate(138.079 139.435)" fill="#4d8cca"/></g><g transform="translate(84.1 75.988)"><path d="M-58-58.565l-80.084-11.255A80.378,80.378,0,0,1-58-139.435Z" transform="translate(138.079 139.435)" fill="none" stroke="#4d8cca" stroke-linecap="round" stroke-linejoin="round" stroke-width="2.706"/></g><g transform="translate(79.194 151.986)"><path d="M-58.6-8.15l-75.5,28.982a78.677,78.677,0,0,1-4.585-40.236Z" transform="translate(139.518 19.405)" fill="#b81371"/></g><g transform="translate(79.194 151.986)"><path d="M-58.6-8.15l-75.5,28.982a78.677,78.677,0,0,1-4.585-40.236Z" transform="translate(139.518 19.405)" fill="none" stroke="#b81371" stroke-linecap="round" stroke-linejoin="round" stroke-width="2.706"/></g><g transform="translate(81.887 170.677)"><path d="M-54.675,0-98.72,67.824a78.221,78.221,0,0,1-31.454-38.842Z" transform="translate(130.174)" fill="#323e5f"/></g><g transform="translate(81.887 170.677)"><path d="M-54.675,0-98.72,67.824a78.221,78.221,0,0,1-31.454-38.842Z" transform="translate(130.174)" fill="none" stroke="#323e5f" stroke-linecap="round" stroke-linejoin="round" stroke-width="2.706"/></g><g transform="translate(125.317 165.445)"><path d="M-31.9,0,44.1,27.66A80.871,80.871,0,0,1-59.556,75.994a74.924,74.924,0,0,1-16.386-8.17Z" transform="translate(75.942)" fill="#7771b1"/></g><g transform="translate(125.317 165.445)"><path d="M-31.9,0,44.1,27.66A80.871,80.871,0,0,1-59.556,75.994a74.924,74.924,0,0,1-16.386-8.17Z" transform="translate(75.942)" fill="none" stroke="#7771b1" stroke-linecap="round" stroke-linejoin="round" stroke-width="2.706"/></g><g transform="translate(179.628 144.116)"><path d="M0-12.176,79.1-28.99a77.223,77.223,0,0,1-3.11,44.473Z" transform="translate(0 28.99)" fill="#219e45"/></g><g transform="translate(179.628 144.116)"><path d="M0-12.176,79.1-28.99a77.223,77.223,0,0,1-3.11,44.473Z" transform="translate(0 28.99)" fill="none" stroke="#219e45" stroke-linecap="round" stroke-linejoin="round" stroke-width="2.706"/></g><g transform="translate(171.019 74.723)"><path d="M0-58.565v-80.87c38.9,0,71.015,26,79.1,64.057Z" transform="translate(0 139.435)" fill="#9bc4e6"/></g><g transform="translate(171.019 74.723)"><path d="M0-58.565v-80.87c38.9,0,71.015,26,79.1,64.057Z" transform="translate(0 139.435)" fill="none" stroke="#9bc4e6" stroke-linecap="round" stroke-linejoin="round" stroke-width="2.706"/></g></g><text transform="translate(246.791 93.578)" fill="#9bc4e6" font-size="24" font-family="Arial-BoldMT, Arial" font-weight="700"><tspan x="0" y="0">22% </tspan></text><text transform="translate(308.505 196.897)" fill="#219e45" font-size="24" font-family="Arial-BoldMT, Arial" font-weight="700"><tspan x="0" y="0">9% </tspan></text><text transform="translate(53.713 312.442)" fill="#323e5f" font-size="24" font-family="Arial-BoldMT, Arial" font-weight="700"><tspan x="0" y="0">10%</tspan></text><text transform="translate(36.104 170.499)" fill="#b81371" font-size="24" font-family="Arial-BoldMT, Arial" font-weight="700"><tspan x="0" y="0">8%</tspan></text><text transform="translate(121.594 78.486)" fill="#4d8cca" font-size="24" font-family="Arial-BoldMT, Arial" font-weight="700"><tspan x="0" y="0">23%</tspan></text><g transform="translate(262.985 190.84)"><path d="M0-4.6,41.414-22.33" transform="translate(0 22.33)" fill="none" stroke="#7c7975" stroke-width="0.5"/></g><g transform="translate(233.607 100.373)"><path d="M0-84.809l28.632-49.082" transform="translate(0 133.891)" fill="none" stroke="#7c7975" stroke-width="0.5"/></g><g transform="translate(144.373 85.326)"><path d="M-18.965-88.5l-13.169-61.454" transform="translate(32.134 149.958)" fill="none" stroke="#7c7975" stroke-width="0.5"/></g><g transform="translate(50.535 177.897)"><path d="M-119.068-98.451l-60.89-39.021" transform="translate(179.958 137.472)" fill="none" stroke="#7c7975" stroke-width="0.5"/></g><g transform="translate(82.919 246.256)"><path d="M0-60.056l49.017-41.7" transform="translate(0 101.757)" fill="none" stroke="#7c7975" stroke-width="0.5"/></g><text transform="translate(255.474 310.536)" fill="#7771b1" font-size="24" font-family="Arial-BoldMT, Arial" font-weight="700"><tspan x="0" y="0">29%</tspan></text><g transform="translate(217.372 271.442)"><path d="M0,0,32.469,29.741" fill="none" stroke="#7c7975" stroke-width="0.5"/></g></g></svg>