<svg xmlns="http://www.w3.org/2000/svg" viewBox="0 0 1131.271 495.791"><g id="Grupo_3436" data-name="Grupo 3436" transform="translate(-399.442 -3710.08)"><path id="Caminho_2974" data-name="Caminho 2974" d="M1142.2,505.5a189.542,189.542,0,0,0-365.889,44.98,1.14,1.14,0,0,0,1,1.26l187.025,21.334,171.288,78.155a1.118,1.118,0,0,0,.471.1,1.137,1.137,0,0,0,1.037-.668A188.758,188.758,0,0,0,1142.2,505.5Z" transform="translate(123.696 3419.926)" fill="#219e45"/><g id="Grupo_3435" data-name="Grupo 3435"><text id="S03_Planet_and_environmental_" data-name="S03 Planet and environmental " transform="translate(1263.099 3729.743)" fill="#292623" font-size="18" font-family="ArialMT, Arial"><tspan x="0" y="0">S03 Planet and environmental</tspan></text><text id="protection_and_restoration" data-name="protection and restoration" transform="translate(1263.099 3750.261)" fill="#292623" font-size="18" font-family="ArialMT, Arial"><tspan x="0" y="0">protection and restoration</tspan></text><path id="Caminho_223" data-name="Caminho 223" d="M0,0,37.254-113.57" transform="translate(1104.445 3851.202)" fill="none" stroke="#7c7975" stroke-width="0.57"/><text id="_54_" data-name="54%" transform="translate(1157.102 3749.08)" fill="#219e45" font-size="43" font-family="Arial-BoldMT, Arial" font-weight="700"><tspan x="0" y="0">54%</tspan></text></g><path id="Caminho_2975" data-name="Caminho 2975" d="M582.085,429,410.424,350.768a1.141,1.141,0,0,0-1.389.359L296.824,502.772a1.141,1.141,0,0,0,.238,1.6c84.282,62.241,203.044,44.491,265.445-39.672a175.742,175.742,0,0,0,20.147-34.2,1.141,1.141,0,0,0-.569-1.5Z" transform="translate(692.4 3664.334)" fill="#7771b1"/><g id="Grupo_3434" data-name="Grupo 3434"><text id="S02_People_and_" data-name="S02 People and " transform="translate(1401.713 4174.038)" fill="#292623" font-size="18" font-family="ArialMT, Arial"><tspan x="0" y="0">S02 People and</tspan></text><text id="social_inclusion" data-name="social inclusion" transform="translate(1401.713 4194.556)" fill="#292623" font-size="18" font-family="ArialMT, Arial"><tspan x="0" y="0">social inclusion</tspan></text><path id="Caminho_224" data-name="Caminho 224" d="M0,0-148.638,3.878" transform="translate(1289.927 4173.968)" fill="none" stroke="#7c7975" stroke-width="0.57"/><text id="_30_" data-name="30%" transform="translate(1299.287 4192.082)" fill="#7771b1" font-size="43" font-family="Arial-BoldMT, Arial" font-weight="700"><tspan x="0" y="0">30%</tspan></text></g><path id="Caminho_2976" data-name="Caminho 2976" d="M787.779,307.7a1.14,1.14,0,0,0-1.217-.479L603.128,351.255a1.14,1.14,0,0,0-.842,1.375c10.85,45.2,34.288,80.608,71.653,108.256a1.137,1.137,0,0,0,.678.224,1.2,1.2,0,0,0,.169-.012,1.145,1.145,0,0,0,.748-.45L787.745,309a1.142,1.142,0,0,0,.034-1.3Z" transform="translate(281.746 3731.816)" fill="#63c3ef"/><g id="Grupo_3433" data-name="Grupo 3433"><text id="_1" data-name="1" transform="translate(686.277 4181.43)" fill="#63c3ef" font-size="43" font-family="Arial-BoldMT, Arial" font-weight="700"><tspan x="0" y="0">1</tspan></text><text id="_1_" data-name="1% " transform="translate(707.624 4181.43)" fill="#63c3ef" font-size="43" font-family="Arial-BoldMT, Arial" font-weight="700"><tspan x="0" y="0">1%</tspan></text><text id="S01_Peace_and_just_and_" data-name="S01 Peace and just and " transform="translate(476.153 4162.719)" fill="#292623" font-size="18" font-family="ArialMT, Arial"><tspan x="0" y="0">S01 Peace and just and</tspan></text><text id="inclusive_societies" data-name="inclusive societies" transform="translate(523.865 4183.237)" fill="#292623" font-size="18" font-family="ArialMT, Arial"><tspan x="0" y="0">inclusive societies</tspan></text><path id="Caminho_228" data-name="Caminho 228" d="M0,0,145.407-40.067" transform="translate(781.641 4168.836)" fill="none" stroke="#7c7975" stroke-width="0.57"/></g><path id="Caminho_2977" data-name="Caminho 2977" d="M693.405,235.055,506.373,259.678a1.141,1.141,0,0,0-.982,1.279,198.617,198.617,0,0,0,3.622,19.533,1.141,1.141,0,0,0,1.108.874,1.172,1.172,0,0,0,.267-.031L693.82,237.294a1.14,1.14,0,0,0-.415-2.239Z" transform="translate(392.619 3786.954)" fill="#4d4945"/><g id="Grupo_3432" data-name="Grupo 3432"><text id="_1_2" data-name="1%" transform="translate(672.088 4098.727)" fill="#4d4945" font-size="43" font-family="Arial-BoldMT, Arial" font-weight="700"><tspan x="0" y="0">1%</tspan></text><g id="Grupo"><text id="Multiple" transform="translate(592.16 4083.006)" fill="#292623" font-size="18" font-family="ArialMT, Arial"><tspan x="0" y="0">Multiple</tspan></text><text id="objectives" transform="translate(574.142 4104.006)" fill="#292623" font-size="18" font-family="ArialMT, Arial"><tspan x="0" y="0">objectives</tspan></text></g><path id="Caminho_227" data-name="Caminho 227" d="M0,2.544,169.053-29.082" transform="translate(745.07 4084.823)" fill="none" stroke="#7c7975" stroke-width="0.57"/></g><path id="Caminho_2978" data-name="Caminho 2978" d="M595.95,690.569l-188.3-11.516a1.121,1.121,0,0,0-1.208,1.063,182.518,182.518,0,0,0,1.27,36.367,1.141,1.141,0,0,0,1.128.987,1.106,1.106,0,0,0,.151-.01l187.033-24.623a1.14,1.14,0,0,0-.079-2.268Z" transform="translate(451.938 3321.952)" fill="#323e5f"/><g id="Grupo_3431" data-name="Grupo 3431"><text id="S04_Indivisible_and_integrated" data-name="S05 Indivisible and integrated" transform="translate(399.442 4007.628)" fill="#292623" font-size="18" font-family="ArialMT, Arial"><tspan x="0" y="0">S05 Indivisible and integrated</tspan></text><text id="Nature_of_the_2030_Agenda" data-name="Nature of the 2030 Agenda" transform="translate(420.892 4028.146)" fill="#292623" font-size="18" font-family="ArialMT, Arial"><tspan x="0" y="0">Nature of the 2030 Agenda</tspan></text><text id="_3_" data-name="3% " transform="translate(659.476 4026.547)" fill="#323e5f" font-size="43" font-family="Arial-BoldMT, Arial" font-weight="700"><tspan x="0" y="0">3%</tspan></text><path id="Caminho_226" data-name="Caminho 226" d="M0,0,140.883,6.462" transform="translate(730.587 4013.735)" fill="none" stroke="#7c7975" stroke-width="0.57"/></g><path id="Caminho_2979" data-name="Caminho 2979" d="M774.816,522.8,587.382,501.45a1.139,1.139,0,0,0-1.261,1c-.472,4.137-.61,5.709-.866,9.9a1.139,1.139,0,0,0,1.068,1.207l188.295,11.517h.07a1.14,1.14,0,0,0,.128-2.273Z" transform="translate(282.747 3477.558)" fill="#f09300"/><g id="Grupo_3430" data-name="Grupo 3430"><text id="S04_Inclusive_and_sustainable_" data-name="S04 Inclusive and sustainable " transform="translate(399.442 3943.646)" fill="#292623" font-size="18" font-family="ArialMT, Arial"><tspan x="0" y="0">S04 Inclusive and sustainable</tspan></text><text id="economic_growth_" data-name="economic growth " transform="translate(502.892 3964.165)" fill="#292623" font-size="18" font-family="ArialMT, Arial"><tspan x="0" y="0">economic growth</tspan></text><path id="Caminho_225" data-name="Caminho 225" d="M0,0-138.945-30.7" transform="translate(875.348 3986.27)" fill="none" stroke="#7c7975" stroke-width="0.57"/><text id="_1_3" data-name="1% " transform="translate(659.476 3962.549)" fill="#f09300" font-size="43" font-family="Arial-BoldMT, Arial" font-weight="700"><tspan x="0" y="0">1%</tspan></text></g></g></svg>