<svg xmlns="http://www.w3.org/2000/svg" width="797.252" height="613.102" viewBox="0 0 797.252 613.102">
  <g id="Grupo_3438" data-name="Grupo 3438" transform="translate(-575.095 -2460.193)">
    <g id="Grupo_3430" data-name="Grupo 3430">
      <path id="Caminho_178" data-name="Caminho 178" d="M0,0H797.252" transform="translate(575.095 2938.392)" fill="none" stroke="#9a9b9f" stroke-width="0.305"/>
      <path id="Caminho_179" data-name="Caminho 179" d="M0,0H797.252" transform="translate(575.095 2798.893)" fill="none" stroke="#9a9b9f" stroke-width="0.305"/>
      <path id="Caminho_180" data-name="Caminho 180" d="M0,0H797.252" transform="translate(575.095 2659.395)" fill="none" stroke="#9a9b9f" stroke-width="0.305"/>
      <path id="Caminho_181" data-name="Caminho 181" d="M0,0H797.252" transform="translate(575.095 2891.892)" fill="none" stroke="#9a9b9f" stroke-width="0.305"/>
      <path id="Caminho_182" data-name="Caminho 182" d="M0,0H797.252" transform="translate(575.095 2752.394)" fill="none" stroke="#9a9b9f" stroke-width="0.305"/>
      <path id="Caminho_183" data-name="Caminho 183" d="M0,0H797.252" transform="translate(575.095 2612.895)" fill="none" stroke="#9a9b9f" stroke-width="0.305"/>
      <path id="Caminho_184" data-name="Caminho 184" d="M0,0H797.252" transform="translate(575.095 2519.896)" fill="none" stroke="#9a9b9f" stroke-width="0.305"/>
      <path id="Caminho_185" data-name="Caminho 185" d="M0,0H797.252" transform="translate(575.095 2845.392)" fill="none" stroke="#9a9b9f" stroke-width="0.305"/>
      <path id="Caminho_186" data-name="Caminho 186" d="M0,0H797.252" transform="translate(575.095 2705.894)" fill="none" stroke="#9a9b9f" stroke-width="0.305"/>
      <path id="Caminho_187" data-name="Caminho 187" d="M0,0H797.252" transform="translate(575.095 2566.396)" fill="none" stroke="#9a9b9f" stroke-width="0.305"/>
      <path id="Caminho_188" data-name="Caminho 188" d="M0,0H797.252" transform="translate(575.095 2473.397)" fill="none" stroke="#9a9b9f" stroke-width="0.305"/>
      <text id="_2016" data-name="2016" transform="translate(578.826 2964.754)" fill="#292623" font-size="13" font-family="ArialMT, Arial"><tspan x="0" y="0">2016</tspan></text>
      <text id="_2017" data-name="2017" transform="translate(830.894 2964.754)" fill="#292623" font-size="13" font-family="ArialMT, Arial"><tspan x="0" y="0">2017</tspan></text>
      <text id="_2018" data-name="2018" transform="translate(1074.756 2964.754)" fill="#292623" font-size="13" font-family="ArialMT, Arial"><tspan x="0" y="0">2018</tspan></text>
      <path id="Caminho_189" data-name="Caminho 189" d="M0,0V-490.345" transform="translate(594.792 2950.745)" fill="none" stroke="#aba8a5" stroke-linecap="round" stroke-width="0.414" stroke-dasharray="1.651 1.651"/>
      <path id="Caminho_190" data-name="Caminho 190" d="M0,0V-490.345" transform="translate(846.892 2950.745)" fill="none" stroke="#aba8a5" stroke-linecap="round" stroke-width="0.414" stroke-dasharray="1.651 1.651"/>
      <path id="Caminho_191" data-name="Caminho 191" d="M0,0V-490.345" transform="translate(1090.757 2950.745)" fill="none" stroke="#aba8a5" stroke-linecap="round" stroke-width="0.414" stroke-dasharray="1.651 1.651"/>
      <path id="Caminho_192" data-name="Caminho 192" d="M0,0V-555.474" transform="translate(1347.229 3015.874)" fill="none" stroke="#aba8a5" stroke-linecap="round" stroke-width="0.414" stroke-dasharray="1.658 1.658"/>
      <path id="Caminho_193" data-name="Caminho 193" d="M783.525-108.542H817.34v-9.636H783.525Z" transform="translate(548 3073.296)" fill="#fff"/>
      <path id="Caminho_194" data-name="Caminho 194" d="M783.525-105.757H817.34v-12.421H783.525Z" transform="translate(548 3073.296)" fill="#ebecec"/>
      <text id="_2019" data-name="2019" transform="translate(1331.525 2964.754)" fill="#292623" font-size="13" font-family="ArialMT, Arial"><tspan x="0" y="0">2019</tspan></text>
      <path id="Caminho_196" data-name="Caminho 196" d="M0,0H784.2V-399.573H0Z" transform="translate(579 2890.146)" fill="none"/>
      <path id="Caminho_199" data-name="Caminho 199" d="M0,0H784.2V-399.573H0Z" transform="translate(579 2890.146)" fill="none"/>
    </g>
    <g id="Grupo_3433" data-name="Grupo 3433">
      <text id="Learning_outcome" data-name="Learning outcome" transform="translate(604.172 3043.772)" fill="#292623" font-size="13" font-family="ArialMT, Arial"><tspan x="0" y="0">Learning outcome</tspan></text>
      <path id="Caminho_172" data-name="Caminho 172" d="M0,0A9.379,9.379,0,0,0,9.379-9.379,9.379,9.379,0,0,0,0-18.759a9.379,9.379,0,0,0-9.379,9.38A9.379,9.379,0,0,0,0,0" transform="translate(584.475 3049.144)" fill="#9bc4e6"/>
    </g>
    <g id="Grupo_3434" data-name="Grupo 3434">
      <text id="Other_knowledge-sharing_" data-name="Other knowledge-sharing " transform="translate(785.898 3043.772)" fill="#292623" font-size="13" font-family="ArialMT, Arial"><tspan x="0" y="0">Other knowledge-sharing </tspan></text>
      <text id="and_training-related" data-name="and training-related" transform="translate(785.898 3061.971)" fill="#292623" font-size="13" font-family="ArialMT, Arial"><tspan x="0" y="0">and training-related</tspan></text>
      <path id="Caminho_175" data-name="Caminho 175" d="M0,0A9.379,9.379,0,0,0,9.379-9.379,9.379,9.379,0,0,0,0-18.759a9.379,9.379,0,0,0-9.379,9.38A9.379,9.379,0,0,0,0,0" transform="translate(766.201 3049.144)" fill="#4d8cca"/>
    </g>
    <g id="Grupo_3435" data-name="Grupo 3435">
      <path id="Caminho_176" data-name="Caminho 176" d="M0,0A25.324,25.324,0,0,0-25.324,25.324,25.324,25.324,0,0,0,0,50.649H229.093a25.324,25.324,0,0,0,0-50.649Z" transform="translate(1112.537 3022.646)" fill="#323e5f"/>
      <text id="T" transform="translate(1110.426 3054.623)" fill="#fff" font-size="17" font-family="Arial-BoldMT, Arial" font-weight="700"><tspan x="0" y="0">T</tspan></text>
      <text id="otal_of_beneficiaries_133_421" data-name="otal of beneficiaries 133,421" transform="translate(1119.304 3054.623)" fill="#fff" font-size="17" font-family="Arial-BoldMT, Arial" font-weight="700"><tspan x="0" y="0">otal of beneficiaries 133,421</tspan></text>
    </g>
    <text id="_19_747" data-name="19,747" transform="translate(600.866 2871.052)" fill="#2b2e34" font-size="14" font-family="Arial-BoldMT, Arial" font-weight="700"><tspan x="0" y="0">19,747</tspan></text>
    <text id="_18_120" data-name="18,120" transform="translate(855.889 2880.566)" fill="#2b2e34" font-size="14" font-family="Arial-BoldMT, Arial" font-weight="700"><tspan x="0" y="0">18,120</tspan></text>
    <g id="Grupo_3437" data-name="Grupo 3437">
      <path id="Caminho_2974" data-name="Caminho 2974" d="M520.1-29.789h47.863V-50.116H520.1Z" transform="translate(579 2890.146)" fill="#ebecec"/>
      <text id="_24_000" data-name="24,000" transform="translate(1100.101 2850.859)" fill="#2b2e34" font-size="14" font-family="Arial-BoldMT, Arial" font-weight="700"><tspan x="0" y="0">24,000</tspan></text>
    </g>
    <text id="_41_043" data-name="41,043" transform="translate(1287.555 2740.658)" fill="#2b2e34" font-size="17" font-family="Arial-BoldMT, Arial" font-weight="700"><tspan x="0" y="0">41,043</tspan></text>
    <text id="_35_093" data-name="35,093" transform="translate(600.866 2792.165)" fill="#2b2e34" font-size="14" font-family="Arial-BoldMT, Arial" font-weight="700"><tspan x="0" y="0">35,093</tspan></text>
    <text id="_38_090" data-name="38,090" transform="translate(855.889 2775.772)" fill="#2b2e34" font-size="14" font-family="Arial-BoldMT, Arial" font-weight="700"><tspan x="0" y="0">38,090</tspan></text>
    <text id="_60_901" data-name="60,901" transform="translate(1096.749 2676.098)" fill="#2b2e34" font-size="14" font-family="Arial-BoldMT, Arial" font-weight="700"><tspan x="0" y="0">60,901</tspan></text>
    <text id="_92_378" data-name="92,378" transform="translate(1289.555 2499.402)" fill="#2b2e34" font-size="17" font-family="Arial-BoldMT, Arial" font-weight="700"><tspan x="0" y="0">92,378</tspan></text>
    <g id="Grupo_3431" data-name="Grupo 3431" transform="translate(583.963 2767.501)">
      <path id="Caminho_197" data-name="Caminho 197" d="M0,0S184.071,14.069,263.8-9.379s226.044-93.8,240.113-101.3,270.362-155.7,270.362-155.7" fill="none" stroke="#9bc4e6" stroke-linecap="round" stroke-width="9.927"/>
    </g>
    <g id="Grupo_3432" data-name="Grupo 3432" transform="translate(586.308 2845.819)">
      <path id="Caminho_198" data-name="Caminho 198" d="M0,0S232.375,14.3,260.045,13.835,443.413-.234,504.379-14.772s266.376-80.9,266.376-80.9" fill="none" stroke="#4d8cca" stroke-linecap="round" stroke-width="9.927"/>
    </g>
  </g>
</svg>
