<svg xmlns="http://www.w3.org/2000/svg" width="1230.832" height="434.621" viewBox="0 0 1230.832 434.621">
  <g id="home-grafico-5" transform="translate(-362.29 -11451.813)">
    <path id="Caminho_2104" data-name="Caminho 2104" d="M869.257-723.409H406.29V-894.2H869.257Z" transform="translate(-44 12527.588)" fill="#4d8cca"/>
    <g id="Grupo_3453" data-name="Grupo 3453">
      <text id="_39_" data-name="39% " transform="translate(362.291 11858.828)" fill="#4d8cca" font-size="34" font-family="Arial-BoldMT, Arial" font-weight="700"><tspan x="0" y="0">39% </tspan></text>
      <text id="UN" transform="translate(366.288 11883.435)" fill="#292623" font-size="16" font-family="ArialMT, Arial"><tspan x="0" y="0">UN</tspan></text>
      <path id="Caminho_2109" data-name="Caminho 2109" d="M0,0V43.607" transform="translate(385.51 11780.196)" fill="none" stroke="#7c7975" stroke-width="0.597"/>
    </g>
    <path id="Caminho_2105" data-name="Caminho 2105" d="M1158.733-723.409H897.572V-894.2h261.161Z" transform="translate(-73.138 12527.588)" fill="#323e5f"/>
    <g id="Grupo_3454" data-name="Grupo 3454">
      <text id="_22_" data-name="22% " transform="translate(821.561 11858.828)" fill="#323e5f" font-size="34" font-family="Arial-BoldMT, Arial" font-weight="700"><tspan x="0" y="0">22% </tspan></text>
      <text id="Government" transform="translate(821.57 11883.435)" fill="#292623" font-size="16" font-family="ArialMT, Arial"><tspan x="0" y="0">Government</tspan></text>
      <path id="Caminho_2110" data-name="Caminho 2110" d="M0,0V43.607" transform="translate(844.816 11780.196)" fill="none" stroke="#7c7975" stroke-width="0.597"/>
    </g>
    <path id="Caminho_2106" data-name="Caminho 2106" d="M1388.629-723.409H1174.952V-894.2h213.677Z" transform="translate(-89.59 12527.588)" fill="#219e45"/>
    <g id="Grupo_3455" data-name="Grupo 3455">
      <text id="_18_" data-name="18% " transform="translate(1079.986 11858.828)" fill="#219e45" font-size="34" font-family="Arial-BoldMT, Arial" font-weight="700"><tspan x="0" y="0">18% </tspan></text>
      <text id="Academia" transform="translate(1084 11883.435)" fill="#292623" font-size="16" font-family="ArialMT, Arial"><tspan x="0" y="0">Academia</tspan></text>
      <path id="Caminho_2111" data-name="Caminho 2111" d="M0,0V43.607" transform="translate(1103.257 11780.196)" fill="none" stroke="#7c7975" stroke-width="0.597"/>
    </g>
    <path id="Caminho_2107" data-name="Caminho 2107" d="M1497.068-723.409H1402.1V-894.2h94.967Z" transform="translate(-103.062 12527.588)" fill="#63c3ef"/>
    <g id="Grupo_3459" data-name="Grupo 3459">
      <text id="_8_" data-name="8% " transform="translate(1300 11481.813)" fill="#63c3ef" font-size="33" font-family="Arial-BoldMT, Arial" font-weight="700"><tspan x="0" y="0">8% </tspan></text>
      <text id="International_" data-name="International " transform="translate(1300 11507.424)" fill="#292623" font-size="15" font-family="ArialMT, Arial"><tspan x="0" y="0">International </tspan></text>
      <text id="Organization_" data-name="Organization " transform="translate(1300 11525.396)" fill="#292623" font-size="16" font-family="ArialMT, Arial"><tspan x="0" y="0">Organization </tspan></text>
      <text id="_non_UN_" data-name="(non UN)" transform="translate(1300 11543.368)" fill="#292623" font-size="15" font-family="ArialMT, Arial"><tspan x="0" y="0">(non UN)</tspan></text>
      <path id="Caminho_2113" data-name="Caminho 2113" d="M0,0V88.921" transform="translate(1323.86 11560.452)" fill="none" stroke="#7c7975" stroke-width="0.597"/>
    </g>
    <path id="Caminho_2108" data-name="Caminho 2108" d="M1574.281-723.409h-71.225V-894.2h71.225Z" transform="translate(-109.05 12527.588)" fill="#d53216"/>
    <g id="Grupo_3456" data-name="Grupo 3456">
      <text id="_6_" data-name="6%" transform="translate(1390.704 11857.828)" fill="#d53216" font-size="33" font-family="Arial-BoldMT, Arial" font-weight="700"><tspan x="0" y="0">6%</tspan></text>
      <text id="Private_sector" data-name="Private sector" transform="translate(1390.711 11883.435)" fill="#292623" font-size="15" font-family="ArialMT, Arial"><tspan x="0" y="0">Private sector</tspan></text>
      <path id="Caminho_2112" data-name="Caminho 2112" d="M0,0V43.607" transform="translate(1413.978 11780.196)" fill="none" stroke="#7c7975" stroke-width="0.597"/>
    </g>
    <path id="Caminho_2114" data-name="Caminho 2114" d="M1636.93-723.409h-59.355V-894.2h59.355Z" transform="translate(-113.47 12527.588)" fill="#7771b1"/>
    <g id="Grupo_3460" data-name="Grupo 3460">
      <text id="_5_" data-name="5%" transform="translate(1469.357 11481.822)" fill="#7771b1" font-size="33" font-family="Arial-BoldMT, Arial" font-weight="700"><tspan x="0" y="0">5%</tspan></text>
      <text id="NGO" transform="translate(1470.355 11507.43)" fill="#292623" font-size="16" font-family="ArialMT, Arial"><tspan x="0" y="0">NGO</tspan></text>
      <path id="Caminho_2115" data-name="Caminho 2115" d="M0,0V123.046" transform="translate(1492.927 11522.461)" fill="none" stroke="#7c7975" stroke-width="0.597"/>
    </g>
    <path id="Caminho_2116" data-name="Caminho 2116" d="M1676.181-723.409h-35.613V-894.2h35.613Z" transform="translate(-117.206 12527.588)" fill="#b81371"/>
    <g id="Grupo_3457" data-name="Grupo 3457">
      <text id="_3_" data-name="3%" transform="translate(1515.125 11567.584)" fill="#b81371" font-size="33" font-family="Arial-BoldMT, Arial" font-weight="700"><tspan x="0" y="0">3%</tspan></text>
      <text id="Foundation" transform="translate(1517.122 11593.191)" fill="#292623" font-size="15" font-family="ArialMT, Arial"><tspan x="0" y="0">Foundation</tspan></text>
      <path id="Caminho_2117" data-name="Caminho 2117" d="M0,0V38.2" transform="translate(1541.581 11607.305)" fill="none" stroke="#7c7975" stroke-width="0.597"/>
    </g>
    <text id="_" data-name=" " transform="translate(1442.301 11818.078)" fill="#ff9128" font-size="36" font-family="Arial-BoldMT, Arial" font-weight="700"><tspan x="0" y="0"> </tspan></text>
    <text id="_2" data-name=" " transform="translate(1518.044 11482.822)" fill="#7771b1" font-size="34" font-family="Arial-BoldMT, Arial" font-weight="700"><tspan x="0" y="0"> </tspan></text>
    <text id="_3" data-name=" " transform="translate(1563.812 11568.584)" fill="#b81371" font-size="34" font-family="Arial-BoldMT, Arial" font-weight="700"><tspan x="0" y="0"> </tspan></text>
  </g>
</svg>
