<svg xmlns="http://www.w3.org/2000/svg" viewBox="0 0 793.324 625.379">
  <g id="home-grafico-4" transform="translate(-549 -8030.276)">
    <path id="Caminho_2071" data-name="Caminho 2071" d="M0,0-75.942,116.94c-25.576-16.608-43.3-38.5-54.232-66.97Z" transform="translate(877.062 8386.778)" fill="#323e5f"/>
    <g id="Grupo_3452" data-name="Grupo 3452">
      <text id="Private_sector" data-name="Private sector" transform="translate(619.324 8639.221)" fill="#292623" font-size="20" font-family="ArialMT, Arial"><tspan x="0" y="0">Private sector</tspan></text>
      <text id="_10_" data-name="10%" transform="translate(618.81 8612.441)" fill="#323e5f" font-size="47" font-family="Arial-BoldMT, Arial" font-weight="700"><tspan x="0" y="0">10%</tspan></text>
      <path id="Caminho_2088" data-name="Caminho 2088" d="M0,0,119.609-101.757" transform="translate(670.556 8558.496)" fill="none" stroke="#7c7975" stroke-width="0.63"/>
    </g>
    <path id="Caminho_2073" data-name="Caminho 2073" d="M0,0,131.026,47.69A139.435,139.435,0,0,1-47.69,131.027,129.18,129.18,0,0,1-75.942,116.94Z" transform="translate(897.713 8377.757)" fill="#7771b1"/>
    <g id="Grupo_3451" data-name="Grupo 3451">
      <text id="Academia" transform="translate(1055.539 8651.655)" fill="#292623" font-size="20" font-family="ArialMT, Arial"><tspan x="0" y="0">Academia</tspan></text>
      <text id="_29_" data-name="29%" transform="translate(1055.013 8624.87)" fill="#7771b1" font-size="47" font-family="Arial-BoldMT, Arial" font-weight="700"><tspan x="0" y="0">29%</tspan></text>
      <path id="Caminho_2084" data-name="Caminho 2084" d="M0,0,110.709,133.291" transform="translate(933 8477)" fill="none" stroke="#7c7975" stroke-width="0.63"/>
    </g>
    <path id="Caminho_2075" data-name="Caminho 2075" d="M0,0,136.388-28.99c5.7,26.816,4.015,50.918-5.362,76.68Z" transform="translate(915.412 8369.972)" fill="#219e45"/>
    <g id="Grupo_3450" data-name="Grupo 3450">
      <text id="UN_" data-name="UN &amp; " transform="translate(1223.324 8406.087)" fill="#292623" font-size="20" font-family="ArialMT, Arial"><tspan x="0" y="0">UN &amp; </tspan></text>
      <text id="International_" data-name="International " transform="translate(1223.324 8428.76)" fill="#292623" font-size="20" font-family="ArialMT, Arial"><tspan x="0" y="0">International </tspan></text>
      <text id="organizations" transform="translate(1223.324 8451.432)" fill="#292623" font-size="20" font-family="ArialMT, Arial"><tspan x="0" y="0">organizations</tspan></text>
      <text id="_9_" data-name="9% " transform="translate(1221.019 8379.298)" fill="#219e45" font-size="47" font-family="Arial-BoldMT, Arial" font-weight="700"><tspan x="0" y="0">9% </tspan></text>
      <path id="Caminho_2083" data-name="Caminho 2083" d="M0,0,174.476-22.33" transform="translate(1036.524 8385.33)" fill="none" stroke="#7c7975" stroke-width="0.63"/>
    </g>
    <path id="Caminho_2077" data-name="Caminho 2077" d="M0,0V-139.435c67.074,0,122.443,44.837,136.388,110.445Z" transform="translate(900.568 8360.77)" fill="#9bc4e6"/>
    <g id="Grupo_3449" data-name="Grupo 3449">
      <text id="Governments" transform="translate(1035.121 8170.381)" fill="#292623" font-size="20" font-family="ArialMT, Arial"><tspan x="0" y="0">Governments</tspan></text>
      <text id="_22_" data-name="22% " transform="translate(1033.827 8141.823)" fill="#9bc4e6" font-size="47" font-family="Arial-BoldMT, Arial" font-weight="700"><tspan x="0" y="0">22% </tspan></text>
      <path id="Caminho_2085" data-name="Caminho 2085" d="M0,0,76.764-133.891" transform="translate(950.834 8263.937)" fill="none" stroke="#7c7975" stroke-width="0.63"/>
    </g>
    <path id="Caminho_2067" data-name="Caminho 2067" d="M0,0-138.079-19.405c9.754-69.4,68-120.03,138.079-120.03Z" transform="translate(888.784 8362.95)" fill="#4d8cca"/>
    <g id="Grupo_3448" data-name="Grupo 3448">
      <text id="Other" transform="translate(799.633 8100.087)" fill="#292623" font-size="20" font-family="ArialMT, Arial"><tspan x="0" y="0">Other</tspan></text>
      <text id="_23_" data-name="23%" transform="translate(799.091 8073.276)" fill="#4d8cca" font-size="47" font-family="Arial-BoldMT, Arial" font-weight="700"><tspan x="0" y="0">23%</tspan></text>
      <path id="Caminho_2086" data-name="Caminho 2086" d="M0,0-32.134-149.958" transform="translate(852.647 8260.366)" fill="none" stroke="#7c7975" stroke-width="0.63"/>
    </g>
    <path id="Caminho_2069" data-name="Caminho 2069" d="M0,0-130.174,49.97a135.654,135.654,0,0,1-7.9-69.375Z" transform="translate(881.765 8373.955)" fill="#b81371"/>
    <g id="Grupo_3447" data-name="Grupo 3447">
      <text id="NGOs" transform="translate(551.328 8244.081)" fill="#292623" font-size="20" font-family="ArialMT, Arial"><tspan x="0" y="0">NGOs</tspan></text>
      <text id="_8_" data-name="8%" transform="translate(549 8217.276)" fill="#b81371" font-size="47" font-family="Arial-BoldMT, Arial" font-weight="700"><tspan x="0" y="0">8%</tspan></text>
      <path id="Caminho_2087" data-name="Caminho 2087" d="M0,0-179.958-137.472" transform="translate(766.958 8392.472)" fill="none" stroke="#7c7975" stroke-width="0.63"/>
    </g>
    <path id="Caminho_2068" data-name="Caminho 2068" d="M0,0-138.079-19.405c9.754-69.4,68-120.03,138.079-120.03Z" transform="translate(888.784 8362.95)" fill="none" stroke="#4d8cca" stroke-linecap="round" stroke-linejoin="round" stroke-width="2.706"/>
    <path id="Caminho_2070" data-name="Caminho 2070" d="M0,0-130.174,49.97a135.654,135.654,0,0,1-7.9-69.375Z" transform="translate(881.765 8373.955)" fill="none" stroke="#b81371" stroke-linecap="round" stroke-linejoin="round" stroke-width="2.706"/>
    <path id="Caminho_2072" data-name="Caminho 2072" d="M0,0-75.942,116.94c-25.576-16.608-43.3-38.5-54.232-66.97Z" transform="translate(877.062 8386.778)" fill="none" stroke="#323e5f" stroke-linecap="round" stroke-linejoin="round" stroke-width="2.706"/>
    <path id="Caminho_2074" data-name="Caminho 2074" d="M0,0,131.026,47.69A139.435,139.435,0,0,1-47.69,131.027,129.18,129.18,0,0,1-75.942,116.94Z" transform="translate(897.713 8377.757)" fill="none" stroke="#7771b1" stroke-linecap="round" stroke-linejoin="round" stroke-width="2.706"/>
    <path id="Caminho_2076" data-name="Caminho 2076" d="M0,0,136.388-28.99c5.7,26.816,4.015,50.918-5.362,76.68Z" transform="translate(915.412 8369.972)" fill="none" stroke="#219e45" stroke-linecap="round" stroke-linejoin="round" stroke-width="2.706"/>
    <path id="Caminho_2078" data-name="Caminho 2078" d="M0,0V-139.435c67.074,0,122.443,44.837,136.388,110.445Z" transform="translate(900.568 8360.77)" fill="none" stroke="#9bc4e6" stroke-linecap="round" stroke-linejoin="round" stroke-width="2.706"/>
  </g>
</svg>