<svg xmlns="http://www.w3.org/2000/svg" width="42.282" height="26.641" viewBox="0 0 42.282 26.641"><g transform="translate(-1202.805 -684.714)"><path d="M1241.41,697.72v9.957h-34.928V697.72H1202.8v13.634h42.282V697.72Z" fill="#4d8cca"/><path d="M1222.566,702.436a.9.9,0,0,0,.123.123c.015,0,.03.015.046.03.046.031.076.062.122.092a.238.238,0,0,0,.062.046c.03.016.061.046.092.062a.126.126,0,0,1,.061.03l.092.046c.015.015.046.015.061.031.031.015.077.03.107.046.016,0,.046.015.061.015.047.015.077.015.123.031.015,0,.046.015.061.015a.29.29,0,0,0,.123.031c.015,0,.031.015.046.015.062,0,.124.037.185.037s.122-.031.183-.031c.016,0,.031-.031.046-.031a.366.366,0,0,0,.123-.015c.015,0,.046-.015.061-.015a.366.366,0,0,1,.107-.031c.016,0,.047-.015.062-.015.03-.016.076-.031.107-.046.015-.016.046-.016.061-.031l.092-.046a.113.113,0,0,0,.062-.03.568.568,0,0,0,.091-.062c.016-.015.046-.03.062-.046.046-.03.076-.061.122-.092.016-.015.031-.03.046-.046a.875.875,0,0,0,.123-.127l4.412-4.9a1.833,1.833,0,0,0-2.727-2.451l-1.241,1.378.015-9.866a1.838,1.838,0,1,0-3.676.015l-.016,9.743-1.133-1.271-.012-.013a1.824,1.824,0,0,0-2.577-.141h0a1.86,1.86,0,0,0-.138,2.62Z" fill="#4d8cca"/></g></svg>