<svg xmlns="http://www.w3.org/2000/svg" width="47.446" height="47.446" viewBox="0 0 47.446 47.446"><path d="M0,0A23.723,23.723,0,0,0,0,47.446,23.75,23.75,0,0,0,23.723,23.723,23.75,23.75,0,0,0,0,0M6.581,14.072a.358.358,0,0,1-.359.358H3.369A1.268,1.268,0,0,0,2.1,15.7v2.987H6.16a.357.357,0,0,1,.356.388l-.356,4.21a.357.357,0,0,1-.357.328H2.1V37.585a.359.359,0,0,1-.358.358H-3.362a.358.358,0,0,1-.358-.358V23.611H-6.273a.358.358,0,0,1-.358-.358v-4.21a.358.358,0,0,1,.358-.358H-3.72V14.626A5.122,5.122,0,0,1,1.4,9.5h4.82a.358.358,0,0,1,.359.358Z" transform="translate(23.723)" fill="#3e92cf"/></svg>