<svg xmlns="http://www.w3.org/2000/svg" width="47.446" height="47.446" viewBox="0 0 47.446 47.446"><path d="M0,0A23.723,23.723,0,0,0,0,47.446,23.75,23.75,0,0,0,23.723,23.723,23.75,23.75,0,0,0,0,0M14.607,15.09a.668.668,0,0,1-.136.44,10.943,10.943,0,0,1-2.2,2.3c-.126.095-.337.194-.337.372,0,4.57-1.168,9.133-4.5,12.443-4.242,4.213-10.6,5.36-16.253,3.8a15.546,15.546,0,0,1-3.143-1.257c-.333-.182-.659-.369-.98-.581-.081-.066-.141-.126-.072-.169s.122-.037.374,0a11.072,11.072,0,0,0,4.7-.6c.822-.287,2.587-.865,3.1-1.641.011-.018.024-.018.036-.036-.206-.048-.412-.048-.617-.084a6.071,6.071,0,0,1-4.534-3.8c-.06-.151,0-.229.158-.2a6.5,6.5,0,0,0,2.158-.067,3.441,3.441,0,0,1-.732-.223,5.849,5.849,0,0,1-3.6-4.661,3.57,3.57,0,0,1-.036-.653c.012-.151.079-.2.212-.115a5.834,5.834,0,0,0,2.2.617c-.248-.193-.477-.4-.7-.617-1.676-1.588-2.327-4.819-.985-6.83.109-.164.181-.164.314-.012,3.066,3.494,6.844,5.125,11.4,5.8.121.018.132,0,.114-.133a6.127,6.127,0,0,1,.06-2.383,5.788,5.788,0,0,1,1.127-2.256,6.02,6.02,0,0,1,1.886-1.541,5.9,5.9,0,0,1,2.339-.661,5.6,5.6,0,0,1,2.465.4,5.871,5.871,0,0,1,1.607.985,2.716,2.716,0,0,1,.29.3.222.222,0,0,0,.229.061,14.242,14.242,0,0,0,3.317-1.269.159.159,0,0,1,.149-.013c.048.037.029.1.006.146a5.14,5.14,0,0,1-.931,1.693c-.265.33-.928,1.145-1.378,1.22a11.365,11.365,0,0,0,2.793-.8c.112-.051.1-.073.1,0Z" transform="translate(23.723)" fill="#3e92cf"/></svg>