<svg xmlns="http://www.w3.org/2000/svg" viewBox="0 0 158.885 152.697"><path d="M-2827.1,152.7a17.916,17.916,0,0,1-17.9-17.9V30.1a17.916,17.916,0,0,1,17.9-17.895h23.414V5.519A5.569,5.569,0,0,1-2798.171,0a5.568,5.568,0,0,1,5.52,5.519v6.691h54.355V5.519A5.569,5.569,0,0,1-2732.777,0a5.568,5.568,0,0,1,5.52,5.519v6.691h23.248a17.881,17.881,0,0,1,17.895,17.727V134.8a17.916,17.916,0,0,1-17.895,17.9Zm-6.856-18.063a6.854,6.854,0,0,0,6.856,6.691h123.095a6.747,6.747,0,0,0,6.856-6.691h-.167V63.721H-2833.96Zm0-104.7V52.516h136.641V29.937a6.856,6.856,0,0,0-6.857-6.69h-23.248v6.69a5.568,5.568,0,0,1-5.519,5.52,5.568,5.568,0,0,1-5.519-5.52v-6.69h-54.356v6.69a5.568,5.568,0,0,1-5.519,5.52,5.568,5.568,0,0,1-5.52-5.52v-6.69H-2827.1A6.747,6.747,0,0,0-2833.96,29.937Zm58.87,93.492-18.063-19.234a5.721,5.721,0,0,1,.336-7.861,5.715,5.715,0,0,1,7.86.334l13.882,14.885,25.924-27.762a5.563,5.563,0,0,1,7.861-.335,5.418,5.418,0,0,1,.334,7.861l-30.1,32.112a5.339,5.339,0,0,1-4.014,1.84A5.344,5.344,0,0,1-2775.091,123.429Z" transform="translate(2845)"/></svg>