<svg xmlns="http://www.w3.org/2000/svg" width="190.339" height="147.503" viewBox="0 0 190.339 147.503"><path d="M0,0-32.5-69.1A5.91,5.91,0,0,0-40-72.075l-13.8,5.414a5.853,5.853,0,0,0-3.351,7.569c.054.139.113.277.178.412l2.282,4.824-2.4,1.02a28.679,28.679,0,0,1-15.423-.585L-86.252-57.28a19.922,19.922,0,0,0-11.4.184l-13.286,4.181a19.935,19.935,0,0,0-7.4,4.243c-2.228-.894-7.32-2.349-14.59-.919l2.6-4.934a5.882,5.882,0,0,0-2.153-7.759l-12.655-7.68a5.9,5.9,0,0,0-8.109,1.983c-.064.105-.124.212-.181.321L-189.1.439a5.853,5.853,0,0,0,2.333,7.847l12.717,7.153a5.9,5.9,0,0,0,8.039-2.254l.072-.133,2.446-4.645,7.7,6.4-9.544,13.207a9.749,9.749,0,0,0,2.2,13.611l.019.014,1.1.794a9.8,9.8,0,0,0,9.1,1.221,10.023,10.023,0,0,0,.121,1.864,9.689,9.689,0,0,0,3.943,6.359l1.1.79a9.74,9.74,0,0,0,5.7,1.857,9.957,9.957,0,0,0,3.4-.6,9.744,9.744,0,0,0,4.063,8.223l1.1.79a9.718,9.718,0,0,0,5.7,1.836,9.921,9.921,0,0,0,3.4-.6,10.025,10.025,0,0,0,.121,1.864,9.69,9.69,0,0,0,3.943,6.355l1.1.794a9.812,9.812,0,0,0,13.654-2.211l4.08-5.644,6.321,5.016A11.313,11.313,0,0,0-79.2,69.131a11.315,11.315,0,0,0,2.7-8.168l-.026-.272a11.287,11.287,0,0,0,15.406-4.182,11.288,11.288,0,0,0,1.464-6.445.843.843,0,0,0-.03-.272,11.342,11.342,0,0,0,14.148-2.429,11.2,11.2,0,0,0,2.726-8.2.121.121,0,0,1,0-.038,11.248,11.248,0,0,0,6.476,2.04,11.373,11.373,0,0,0,8.616-3.93l.159-.183a10.975,10.975,0,0,0-1.09-15.482l-.047-.041-4.867-4.181a25.856,25.856,0,0,0,8.83-7.943l.66,1.392A5.854,5.854,0,0,0-16.4,13.683l13.412-5.79A5.874,5.874,0,0,0,.085.176C.059.116.032.055,0,0ZM-168.9,11.493a2.559,2.559,0,0,1-3.459,1.061l-.053-.029-12.734-7.153a2.509,2.509,0,0,1-1.025-3.382L-150.493-66.1a2.539,2.539,0,0,1,1.577-1.254,2.578,2.578,0,0,1,.694-.1,2.545,2.545,0,0,1,1.321.372l12.655,7.68a2.533,2.533,0,0,1,.928,3.344Zm8.842,28.224-1.1-.795a6.388,6.388,0,0,1-1.484-8.911l.025-.035,14.077-19.453a6.467,6.467,0,0,1,8.992-1.455l1.1.794a6.4,6.4,0,0,1,1.479,8.924l-.016.023-3.645,5.042-10.423,14.411a6.463,6.463,0,0,1-9.005,1.455m14.269,10.247-1.1-.8a6.4,6.4,0,0,1-1.478-8.93l.015-.021,10.414-14.4a6.467,6.467,0,0,1,8.993-1.455l1.1.79a6.405,6.405,0,0,1,1.469,8.938l-.01.013L-136.8,48.509a6.463,6.463,0,0,1-8.992,1.455m14.264,10.242-1.1-.79a6.405,6.405,0,0,1-1.469-8.938l.009-.013,7.425-10.276a6.468,6.468,0,0,1,8.993-1.455l1.1.795a6.388,6.388,0,0,1,1.484,8.911l-.025.035-7.425,10.276a6.46,6.46,0,0,1-8.993,1.455m23.262,8.78a6.465,6.465,0,0,1-8.993,1.455l-1.1-.791a6.4,6.4,0,0,1-1.478-8.924l.019-.026,4.44-6.15a6.463,6.463,0,0,1,8.993-1.451l1.1.79a6.393,6.393,0,0,1,1.508,8.914l-.036.05Zm80.022-39.692a7.573,7.573,0,0,1-1.848,5.56l-.158.184a8.021,8.021,0,0,1-11.288.857l-5.122-4.406-.046-.042L-60.29,19.741l-.063-.054a1.672,1.672,0,0,0-2.361.126,1.673,1.673,0,0,0,.126,2.362c.017.015.035.031.053.045l1.292,1.117L-48.864,34a7.919,7.919,0,0,1,.808,11.169l-.005.006a8,8,0,0,1-11.246.837l-4.24-3.65-9.415-8.107a1.672,1.672,0,0,0-2.361.127A1.672,1.672,0,0,0-75.2,36.74c.017.016.035.031.053.046l9.415,8.106a7.919,7.919,0,0,1,.863,11.165l-.027.031a8,8,0,0,1-11.246.836l-9.415-8.11a1.672,1.672,0,0,0-2.358.175,1.767,1.767,0,0,0-.2.281,1.672,1.672,0,0,0,.372,2.09l5.163,4.419a7.919,7.919,0,0,1,.863,11.165l-.027.031a8,8,0,0,1-11.246.836l-.05-.038-6.773-5.4a9.766,9.766,0,0,0-3.512-11.171l-1.1-.79a9.792,9.792,0,0,0-6.932-1.76A9.733,9.733,0,0,0-114.6,36.832l-1.1-.794a9.775,9.775,0,0,0-6.932-1.756,9.732,9.732,0,0,0-3.248-11.823l-1.1-.8a9.757,9.757,0,0,0-6.714-1.781,9.736,9.736,0,0,0-2.8-12.717l-1.1-.8a9.817,9.817,0,0,0-13.654,2.216l-2.554,3.529L-161.9,5.385l26.886-51a25.16,25.16,0,0,1,14.215-.33,20,20,0,0,0-2.509,4.289l-4.059,9.863c-1.024,2.508-1.969,5.046-2.81,7.6l-4.051,12.329a1.673,1.673,0,0,0,.912,2.049l.869.388a19.229,19.229,0,0,0,18.521-1.409,18.748,18.748,0,0,0,8.361-13.854c.025-.23.042-.46.059-.7.154-.781,1.672-7.884,6.856-8.1l5.991,1.673a14.865,14.865,0,0,1,6.409,3.7L-50.005,7.605l.083.075,19.048,16.388a7.6,7.6,0,0,1,2.633,5.239Zm-8.077-14.327L-47.706,5.192-83.915-30.49a18.185,18.185,0,0,0-7.83-4.548L-97.958-36.8a1.672,1.672,0,0,0-.456-.062c-3.557,0-6.5,1.977-8.5,5.673a18.865,18.865,0,0,0-1.873,5.288,1.187,1.187,0,0,0-.021.168c0,.238-.037.468-.058.7a15.407,15.407,0,0,1-6.886,11.388,16.078,16.078,0,0,1-14.8,1.359l3.579-10.87c.815-2.475,1.731-4.954,2.726-7.366l4.055-9.846A16.526,16.526,0,0,1-109.923-49.7l13.29-4.181a16.588,16.588,0,0,1,9.486-.155l13.772,3.859a32.05,32.05,0,0,0,17.182.6,1.427,1.427,0,0,0,.3-.1l2.668-1.158,26.8,56.661a22.641,22.641,0,0,1-9.892,9.147ZM-2.947,3.378A2.51,2.51,0,0,1-4.319,4.812L-17.73,10.627a2.55,2.55,0,0,1-3.324-1.254l-1.794-3.8a1.7,1.7,0,0,0-.418-.9l-30.652-64.8A2.536,2.536,0,0,1-52.7-63.5c.05-.024.1-.045.152-.066l13.8-5.409a2.5,2.5,0,0,1,.932-.18,2.558,2.558,0,0,1,2.312,1.463L-3.023,1.43a2.507,2.507,0,0,1,.076,1.961Z" transform="translate(189.774 72.483)" fill="#3e92cf"/></svg>