<svg xmlns="http://www.w3.org/2000/svg" width="104.572" height="54.332" viewBox="0 0 104.572 54.332">
  <path id="icon-face_to_face" d="M0,0V-20.037a17.809,17.809,0,0,1-5.866-13.1c0-10.241,8.991-18.549,20.08-18.549S34.3-43.38,34.3-33.139c0,.282-.012.562-.026.84l2.8,4.487,3.689,5.9H36.1v7.322a5.219,5.219,0,0,1-5.414,5H22.111V0M90.194,0V-20.037a17.8,17.8,0,0,0,5.868-13.1c0-10.241-8.988-18.549-20.082-18.549S55.9-43.38,55.9-33.139c0,.282.009.562.023.84l-2.8,4.487-3.691,5.9H54.1v7.322a5.219,5.219,0,0,0,5.414,5h8.576V0" transform="translate(7.188 53.01)" fill="none" stroke="#4d8cca" stroke-linecap="round" stroke-linejoin="round" stroke-width="2.644"/>
</svg>
