<svg xmlns="http://www.w3.org/2000/svg" width="47.366" height="47.366" viewBox="0 0 47.366 47.366"><path d="M0,0A23.683,23.683,0,0,0,0,47.366,23.71,23.71,0,0,0,23.683,23.683,23.71,23.71,0,0,0,0,0M-5.923,34.329a.4.4,0,0,1-.4.4h-4.563a.4.4,0,0,1-.4-.4V19.01a.4.4,0,0,1,.4-.4h4.563a.4.4,0,0,1,.4.4ZM-8.761,16.565A2.867,2.867,0,0,1-11.628,13.7a2.868,2.868,0,0,1,2.867-2.867A2.867,2.867,0,0,1-5.894,13.7a2.866,2.866,0,0,1-2.867,2.867m22.15,17.764a.4.4,0,0,1-.4.4H8.428a.4.4,0,0,1-.4-.4V26.1c0-2.164-.774-3.642-2.713-3.642a2.929,2.929,0,0,0-2.747,1.959,3.639,3.639,0,0,0-.178,1.3v8.6a.4.4,0,0,1-.395.4H-2.564a.394.394,0,0,1-.4-.4c.011-2.19.056-12.816.01-15.314a.393.393,0,0,1,.395-.4H2a.4.4,0,0,1,.4.4V20.9a5.316,5.316,0,0,1,4.827-2.662c3.524,0,6.166,2.3,6.166,7.25Z" transform="translate(23.683)" fill="#3e92cf"/></svg>