<svg xmlns="http://www.w3.org/2000/svg" width="80.969" height="80.97" viewBox="0 0 80.969 80.97">
  <path id="icon-e_learning" d="M0,0V-42.432a4.9,4.9,0,0,1,4.895-4.9H31.9m-.636,8.779a7.3,7.3,0,0,0-4.341,6.674c-.016,4.373.1,8.909,2.448,11.341v.016a3.276,3.276,0,0,1-2.007,3.035l-7,2.937a6.605,6.605,0,0,0-4.047,6.087V0m35.9,0V-8.458a6.605,6.605,0,0,0-4.047-6.087l-7-2.937A3.279,3.279,0,0,1,39.163-20.5v-.049c2.04-2.121,2.4-5.825,2.431-9.643m26.941-2.954V0m-.362-66.541a17.95,17.95,0,0,0-25.385,0,17.955,17.955,0,0,0-2.321,22.533l-3.448,8.621,8.621-3.449a17.953,17.953,0,0,0,22.533-2.321A17.948,17.948,0,0,0,68.173-66.541ZM-4.895,0V1.632A4.895,4.895,0,0,0,0,6.527H68.535A4.895,4.895,0,0,0,73.43,1.632V0Z" transform="translate(6.217 73.121)" fill="none" stroke="#323e5f" stroke-linecap="round" stroke-linejoin="round" stroke-width="2.644"/>
</svg>
