<svg xmlns="http://www.w3.org/2000/svg" width="47.446" height="47.446" viewBox="0 0 47.446 47.446"><g transform="translate(-1348.277 127.536)"><path d="M0,0A23.723,23.723,0,0,0,0,47.446,23.75,23.75,0,0,0,23.723,23.723,23.75,23.75,0,0,0,0,0M14.2,27.531a6.092,6.092,0,0,1-6.093,6.092h-15.8a6.091,6.091,0,0,1-6.092-6.092V20.126a6.092,6.092,0,0,1,6.092-6.093h15.8A6.093,6.093,0,0,1,14.2,20.126Z" transform="translate(1372 -127.536)" fill="#3e92cf"/><path d="M0,0C-.274-.156-.528.042-.528.357v7.1c0,.311.246.51.52.361l6.3-3.456a.413.413,0,0,0,.051-.719Z" transform="translate(1369.941 -107.691)" fill="#3e92cf"/></g></svg>