<svg xmlns="http://www.w3.org/2000/svg" viewBox="0 0 183.961 185.553"><g transform="translate(-650.3 -641.929)"><path d="M729.151,727.194a8.036,8.036,0,1,0,8.036,8.034A8.047,8.047,0,0,0,729.151,727.194Z"/><path d="M833.379,654.372l-90.921-12.433a1.022,1.022,0,0,0-.282,0l-91,12.924a1.02,1.02,0,0,0-.134,1.991l26.382,7.437v8.968a3.99,3.99,0,0,0-2.3,3.129,1.023,1.023,0,0,0-.045.3.828.828,0,0,0,.006.1c0,.038-.006.075-.006.1a.943.943,0,0,0,.019.193v14.707a1.02,1.02,0,0,0,1.02,1.02h.538v.2a1.019,1.019,0,0,0,1.019,1.019H678.9a.954.954,0,0,0,.162-.012.985.985,0,0,0,.173.014h1.224A1.019,1.019,0,0,0,681.474,693v-.2h.539a1.019,1.019,0,0,0,1.019-1.02v-15.1a.972.972,0,0,0-.042-.287,3.988,3.988,0,0,0-2.3-3.144v-8.045l12.466,3.516v19.207a57.429,57.429,0,0,0-16.092,39.514L661.239,772.3a1.02,1.02,0,0,0,.962,1.358h20.254V783.85h0a22.623,22.623,0,0,0,22.564,22.561h10.908v20.051a1.019,1.019,0,0,0,1.019,1.019h90.493a1.02,1.02,0,0,0,1.02-1.019V768.044a57.2,57.2,0,0,0,16.13-40.1A58.151,58.151,0,0,0,791.4,675.587V668.68c0-.08-.006-.159-.011-.238l42.128-12.08a1.019,1.019,0,0,0-.142-1.99ZM803.591,764.856l0,0-.536.538a1.025,1.025,0,0,0-.3.72v55.664H753.329V801.736a1.019,1.019,0,0,0-1.019-1.019h-15.6a16.9,16.9,0,0,1-16.852-16.811V768.97a1.02,1.02,0,0,0-1.02-1.02H700.525l13.88-39.357a1.033,1.033,0,0,0,.058-.339v-.317a52.209,52.209,0,1,1,89.128,36.919Zm-101.11-29.628a5.995,5.995,0,1,1-6-6A6.005,6.005,0,0,1,702.481,735.228Z"/></g></svg>