<svg xmlns="http://www.w3.org/2000/svg" width="189.932" height="56.176" viewBox="0 0 189.932 56.176"><g transform="translate(-42.411 -43.035)"><g transform="translate(42.411 43.035)"><g transform="translate(0 48.521)"><path d="M46.9,177h-.632a.186.186,0,0,0-.2.2v3.408a2.492,2.492,0,0,1-.06.573.746.746,0,0,1-.309.416,1.141,1.141,0,0,1-.408.188,1.92,1.92,0,0,1-.914-.007,1.052,1.052,0,0,1-.386-.211.749.749,0,0,1-.182-.2.874.874,0,0,1-.094-.226,1.165,1.165,0,0,1-.035-.25q0-.14,0-.3V177.2a.186.186,0,0,0-.2-.2h-.864a.186.186,0,0,0-.2.2v3.433c0,.177.006.344.017.5a2.208,2.208,0,0,0,.083.465,1.637,1.637,0,0,0,.2.428,1.406,1.406,0,0,0,.373.373,2.133,2.133,0,0,0,.8.369,4.009,4.009,0,0,0,.86.09,4.575,4.575,0,0,0,.861-.081,1.9,1.9,0,0,0,.8-.362,1.68,1.68,0,0,0,.536-.665,2.058,2.058,0,0,0,.166-.831V177.2A.186.186,0,0,0,46.9,177Z" transform="translate(-42.411 -176.712)" fill="#007cd8"/><path d="M60.592,180.583a2.543,2.543,0,0,0-.375.026,1.715,1.715,0,0,0-.364.1c-.106.039-.2.076-.281.109a.584.584,0,0,1-.163.039.471.471,0,0,0-.011-.068c-.02-.079-.094-.12-.219-.12h-.665a.187.187,0,0,0-.2.2v3.94a.186.186,0,0,0,.2.2H59.3a.186.186,0,0,0,.2-.2v-2.693a.462.462,0,0,1,.2-.436,1.014,1.014,0,0,1,.534-.137.738.738,0,0,1,.57.184.887.887,0,0,1,.168.6v2.486a.186.186,0,0,0,.2.2h.782a.186.186,0,0,0,.2-.2V182.18a1.654,1.654,0,0,0-.4-1.183A1.549,1.549,0,0,0,60.592,180.583Z" transform="translate(-52.519 -178.989)" fill="#007cd8"/><path d="M72.4,176.248a.889.889,0,0,0-.491.123.536.536,0,0,0-.208.485.581.581,0,0,0,.18.48.762.762,0,0,0,.486.137.832.832,0,0,0,.481-.129.542.542,0,0,0,.2-.479.588.588,0,0,0-.177-.47A.705.705,0,0,0,72.4,176.248Z" transform="translate(-61.032 -176.233)" fill="#007cd8"/><path d="M.553,0H.632a.552.552,0,0,1,.552.552v3.24a.551.551,0,0,1-.551.551H.551A.551.551,0,0,1,0,3.791V.553A.553.553,0,0,1,.553,0Z" transform="translate(10.756 1.677)" fill="#007cd8"/><path d="M79.951,178.853H78.822v-.921a.186.186,0,0,0-.2-.2H77.84a.187.187,0,0,0-.2.2v.921h-.3a.187.187,0,0,0-.2.2c0,.158,0,.275-.008.35a.315.315,0,0,0,.05.228.263.263,0,0,0,.218.079h.239v2.31a1.973,1.973,0,0,0,.061.5.826.826,0,0,0,.3.44,1.224,1.224,0,0,0,.5.242,2.427,2.427,0,0,0,.536.061,3.278,3.278,0,0,0,.471-.039,1.718,1.718,0,0,0,.472-.131A.468.468,0,0,0,80.1,183a.272.272,0,0,0,.047-.181V182.4a.173.173,0,0,0-.176-.193.383.383,0,0,0-.168.04,2.022,2.022,0,0,1-.255.087.964.964,0,0,1-.25.03.475.475,0,0,1-.367-.122.564.564,0,0,1-.114-.383v-2.152h1.129a.186.186,0,0,0,.2-.2v-.457A.186.186,0,0,0,79.951,178.853Z" transform="translate(-64.48 -177.176)" fill="#007cd8"/><path d="M88.089,180.629a2.307,2.307,0,0,0-.905.165,1.776,1.776,0,0,0-.653.47,2,2,0,0,0-.392.714,2.979,2.979,0,0,0-.129.9,2.266,2.266,0,0,0,.567,1.653,2.218,2.218,0,0,0,1.646.576,4.45,4.45,0,0,0,.717-.059,2.6,2.6,0,0,0,.69-.214.4.4,0,0,0,.183-.122.4.4,0,0,0,.04-.213v-.375a.612.612,0,0,0-.015-.129c-.027-.122-.144-.176-.319-.087-.11.055-.219.107-.329.156a1.767,1.767,0,0,1-.341.111,2,2,0,0,1-.477.055,1.173,1.173,0,0,1-.854-.311,1.077,1.077,0,0,1-.314-.751h2.7a.186.186,0,0,0,.2-.2v-.341a1.983,1.983,0,0,0-.53-1.48A2.042,2.042,0,0,0,88.089,180.629Zm-.372.942a1.129,1.129,0,0,1,.338-.05.845.845,0,0,1,.639.218.907.907,0,0,1,.218.552H87.2v-.022a.744.744,0,0,1,.066-.323.67.67,0,0,1,.179-.232A.761.761,0,0,1,87.717,181.571Z" transform="translate(-70.124 -179.018)" fill="#007cd8"/><path d="M102.463,176.248h-.781a.187.187,0,0,0-.2.2v1.631l-.062-.034a1.68,1.68,0,0,0-.414-.172,1.881,1.881,0,0,0-.446-.048,2.027,2.027,0,0,0-.879.183,1.945,1.945,0,0,0-.651.5,2.211,2.211,0,0,0-.4.725,2.73,2.73,0,0,0-.138.873,2.649,2.649,0,0,0,.138.865,2.064,2.064,0,0,0,.4.7,1.818,1.818,0,0,0,.648.465,2.186,2.186,0,0,0,.868.165,2.078,2.078,0,0,0,.509-.061,2.246,2.246,0,0,0,.473-.181c.016-.009.031-.015.044-.021,0,.016,0,.034,0,.051,0,.038.031.163.217.163h.673a.186.186,0,0,0,.2-.2v-5.6A.187.187,0,0,0,102.463,176.248Zm-.982,3.011v1.679a.394.394,0,0,1-.062.233.473.473,0,0,1-.172.15.784.784,0,0,1-.246.082,1.266,1.266,0,0,1-.776-.082.861.861,0,0,1-.32-.285,1.251,1.251,0,0,1-.178-.426,2.387,2.387,0,0,1-.056-.528,2.519,2.519,0,0,1,.056-.537,1.3,1.3,0,0,1,.179-.438.882.882,0,0,1,.32-.294,1.054,1.054,0,0,1,.508-.109,1.518,1.518,0,0,1,.313.035.777.777,0,0,1,.276.116.277.277,0,0,1,.131.152A1.051,1.051,0,0,1,101.481,179.259Z" transform="translate(-78.057 -176.233)" fill="#007cd8"/><path d="M123.6,177h-.615a.186.186,0,0,0-.2.2v3.671l-2.264-3.662a.492.492,0,0,0-.145-.157.4.4,0,0,0-.216-.052h-.914a.186.186,0,0,0-.2.2v5.329a.186.186,0,0,0,.2.2h.615a.186.186,0,0,0,.2-.2V178.7l2.339,3.819a.537.537,0,0,0,.138.155.371.371,0,0,0,.215.054h.848a.186.186,0,0,0,.2-.2V177.2A.186.186,0,0,0,123.6,177Z" transform="translate(-91.123 -176.712)" fill="#007cd8"/><path d="M137.566,180.87a1.587,1.587,0,0,0-.534-.19,4.147,4.147,0,0,0-1.374.012,3.511,3.511,0,0,0-.768.211.548.548,0,0,0-.156.1.277.277,0,0,0-.064.2v.457a.353.353,0,0,0,.022.119.2.2,0,0,0,.274.085l.062-.028a4.429,4.429,0,0,1,.623-.24,2.289,2.289,0,0,1,.651-.092,1.458,1.458,0,0,1,.222.02.789.789,0,0,1,.208.063.406.406,0,0,1,.142.112.26.26,0,0,1,.05.17c0,.049-.008.111-.042.128a1.621,1.621,0,0,1-.218.083l-.856.282c-.186.062-.361.129-.519.2a1.8,1.8,0,0,0-.442.272,1.194,1.194,0,0,0-.311.4,1.338,1.338,0,0,0-.113.581,1.362,1.362,0,0,0,.112.566,1.2,1.2,0,0,0,.307.414,1.267,1.267,0,0,0,.458.247,1.949,1.949,0,0,0,.563.078,1.891,1.891,0,0,0,.411-.039,2.109,2.109,0,0,0,.389-.134c.067-.028.132-.056.194-.084a.4.4,0,0,1,.148-.034c0,.019,0,.036,0,.054a.176.176,0,0,0,.2.154h.69a.186.186,0,0,0,.2-.2v-2.968a1.188,1.188,0,0,0-.146-.618A1.089,1.089,0,0,0,137.566,180.87Zm-.651,2.033v.8a.909.909,0,0,1-.027.23.287.287,0,0,1-.113.153.555.555,0,0,1-.228.107,1.18,1.18,0,0,1-.536,0,.683.683,0,0,1-.212-.088.433.433,0,0,1-.141-.147.449.449,0,0,1-.054-.231.421.421,0,0,1,.066-.243.721.721,0,0,1,.188-.184,1.328,1.328,0,0,1,.261-.136c.1-.038.191-.07.286-.1Z" transform="translate(-100.898 -179.018)" fill="#007cd8"/><path d="M149.055,178.853h-1.129v-.921a.186.186,0,0,0-.2-.2h-.781a.187.187,0,0,0-.2.2v.921h-.3a.186.186,0,0,0-.2.2c0,.158,0,.275-.008.35a.317.317,0,0,0,.05.228.262.262,0,0,0,.218.079h.239v2.31a1.957,1.957,0,0,0,.061.5.825.825,0,0,0,.3.44,1.224,1.224,0,0,0,.5.242,2.428,2.428,0,0,0,.536.061,3.282,3.282,0,0,0,.471-.039,1.722,1.722,0,0,0,.472-.131.459.459,0,0,0,.125-.091.272.272,0,0,0,.047-.181V182.4a.173.173,0,0,0-.176-.193.383.383,0,0,0-.168.04,2.043,2.043,0,0,1-.255.087.967.967,0,0,1-.25.03.476.476,0,0,1-.367-.122.564.564,0,0,1-.114-.383v-2.152h1.129a.186.186,0,0,0,.2-.2v-.457A.186.186,0,0,0,149.055,178.853Z" transform="translate(-108.407 -177.176)" fill="#007cd8"/><path d="M156.68,176.248a.889.889,0,0,0-.491.123.537.537,0,0,0-.209.485.581.581,0,0,0,.18.48.762.762,0,0,0,.486.137.829.829,0,0,0,.481-.129.542.542,0,0,0,.2-.479.587.587,0,0,0-.178-.47A.7.7,0,0,0,156.68,176.248Z" transform="translate(-114.602 -176.233)" fill="#007cd8"/><path d="M.553,0H.631a.552.552,0,0,1,.552.552v3.24a.551.551,0,0,1-.551.551H.551A.551.551,0,0,1,0,3.791V.553A.553.553,0,0,1,.553,0Z" transform="translate(41.462 1.677)" fill="#007cd8"/><path d="M165.6,181.227a1.777,1.777,0,0,0-.653-.474,2.321,2.321,0,0,0-.926-.17,3.556,3.556,0,0,0-.786.081,1.67,1.67,0,0,0-.706.383,1.831,1.831,0,0,0-.547.833,3.432,3.432,0,0,0,0,1.945,1.843,1.843,0,0,0,.538.836,1.661,1.661,0,0,0,.683.382,3,3,0,0,0,.759.09,3.1,3.1,0,0,0,.767-.09,1.65,1.65,0,0,0,.692-.382,1.787,1.787,0,0,0,.542-.828,3.5,3.5,0,0,0,.017-1.877A1.925,1.925,0,0,0,165.6,181.227Zm-1.621,3.03a.775.775,0,0,1-.458-.125.921.921,0,0,1-.291-.326,1.549,1.549,0,0,1-.157-.46,2.808,2.808,0,0,1-.048-.5,2.673,2.673,0,0,1,.048-.5,1.448,1.448,0,0,1,.16-.447.96.96,0,0,1,.292-.32.791.791,0,0,1,.454-.121.752.752,0,0,1,.445.125.975.975,0,0,1,.292.332,1.482,1.482,0,0,1,.156.459,2.97,2.97,0,0,1,.044.5,2.908,2.908,0,0,1-.044.5,1.377,1.377,0,0,1-.156.445.958.958,0,0,1-.292.32A.772.772,0,0,1,163.982,184.257Z" transform="translate(-118.329 -178.989)" fill="#007cd8"/><path d="M178.2,180.583a2.549,2.549,0,0,0-.376.026,1.717,1.717,0,0,0-.363.1q-.16.059-.282.109a.581.581,0,0,1-.163.039.482.482,0,0,0-.011-.066c-.019-.081-.093-.121-.219-.121h-.665a.187.187,0,0,0-.2.2v3.94a.186.186,0,0,0,.2.2h.781a.186.186,0,0,0,.2-.2v-2.693a.461.461,0,0,1,.2-.436,1.016,1.016,0,0,1,.534-.137.739.739,0,0,1,.571.184.891.891,0,0,1,.168.6v2.486a.186.186,0,0,0,.2.2h.782a.186.186,0,0,0,.2-.2V182.18a1.655,1.655,0,0,0-.4-1.183A1.551,1.551,0,0,0,178.2,180.583Z" transform="translate(-127.277 -178.989)" fill="#007cd8"/><path d="M191.328,182.837a2.372,2.372,0,0,0-.394-.3q-.212-.128-.425-.268c-.032-.021-.063-.042-.093-.065s-.064-.046-.1-.069c-.093-.06-.177-.117-.254-.172a.228.228,0,0,1-.078-.2.188.188,0,0,1,.108-.2,1.113,1.113,0,0,1,.743-.01,1.762,1.762,0,0,1,.42.151l.074.036a.2.2,0,0,0,.29-.075.336.336,0,0,0,.028-.128v-.416a.294.294,0,0,0-.063-.193.392.392,0,0,0-.136-.1.818.818,0,0,0-.169-.055l-.124-.029a2.672,2.672,0,0,0-1.44-.041,1.365,1.365,0,0,0-.467.24,1.183,1.183,0,0,0-.325.41,1.284,1.284,0,0,0-.122.569,1.135,1.135,0,0,0,.285.789,1.658,1.658,0,0,0,.3.264c.109.076.227.151.348.222l.4.25c.1.066.2.135.3.208a.286.286,0,0,1,.112.246c0,.161-.07.211-.124.235a.847.847,0,0,1-.349.071,1.71,1.71,0,0,1-.5-.066,2.884,2.884,0,0,1-.487-.21.628.628,0,0,1-.069-.031.2.2,0,0,0-.285.1.527.527,0,0,0-.015.125v.448a.3.3,0,0,0,.068.236.573.573,0,0,0,.185.093,3.768,3.768,0,0,0,.55.145,3.189,3.189,0,0,0,.578.051,2.521,2.521,0,0,0,.591-.069,1.553,1.553,0,0,0,.526-.23,1.213,1.213,0,0,0,.373-.414,1.246,1.246,0,0,0,.14-.61,1.223,1.223,0,0,0-.113-.549A1.414,1.414,0,0,0,191.328,182.837Z" transform="translate(-135.412 -179.015)" fill="#007cd8"/><path d="M.3,0H.785a.3.3,0,0,1,.3.3V5.248a.3.3,0,0,1-.3.3H.295A.295.295,0,0,1,0,5.249V.3A.3.3,0,0,1,.3,0Z" transform="translate(59.409 0.382)" fill="#007cd8"/><path d="M214.476,180.838a2.528,2.528,0,0,0-.361.025,1.594,1.594,0,0,0-.345.092c-.105.038-.2.075-.278.107a.752.752,0,0,1-.287.05.632.632,0,0,0-.012-.141c-.009-.034-.052-.05-.129-.05H212.4a.1.1,0,0,0-.108.108v3.94a.1.1,0,0,0,.108.107h.781a.1.1,0,0,0,.108-.107v-2.693a.551.551,0,0,1,.25-.515,1.1,1.1,0,0,1,.581-.15.82.82,0,0,1,.64.216.969.969,0,0,1,.192.657v2.486a.1.1,0,0,0,.108.107h.781a.1.1,0,0,0,.108-.107v-2.627a1.554,1.554,0,0,0-.37-1.118A1.455,1.455,0,0,0,214.476,180.838Z" transform="translate(-150.395 -179.151)" fill="#007cd8"/><path d="M227.54,183.07a2.2,2.2,0,0,0-.378-.287q-.212-.129-.428-.27c-.033-.022-.065-.044-.1-.067s-.062-.044-.1-.066c-.094-.061-.18-.119-.258-.175a.314.314,0,0,1-.116-.275.282.282,0,0,1,.162-.282.794.794,0,0,1,.337-.075,2.044,2.044,0,0,1,.465.058,1.826,1.826,0,0,1,.441.158l.075.037a.18.18,0,0,0,.083.021.077.077,0,0,0,.079-.05.231.231,0,0,0,.021-.091v-.416a.2.2,0,0,0-.042-.133.292.292,0,0,0-.1-.079.691.691,0,0,0-.137-.046l-.141-.033a3.22,3.22,0,0,0-.856-.117,1.829,1.829,0,0,0-.532.075,1.282,1.282,0,0,0-.436.224,1.094,1.094,0,0,0-.3.378,1.188,1.188,0,0,0-.112.528,1.108,1.108,0,0,0,.071.416,1.078,1.078,0,0,0,.191.312,1.524,1.524,0,0,0,.282.25q.162.113.345.22l.4.25q.158.1.307.212a.375.375,0,0,1,.15.32.315.315,0,0,1-.179.32.95.95,0,0,1-.387.079,1.8,1.8,0,0,1-.528-.07,2.87,2.87,0,0,1-.494-.212c-.028-.011-.053-.022-.075-.034a.175.175,0,0,0-.075-.016.07.07,0,0,0-.079.054.474.474,0,0,0-.012.1v.448c0,.089.012.145.037.167a.517.517,0,0,0,.154.075,3.741,3.741,0,0,0,.536.142,3.127,3.127,0,0,0,.561.05,2.418,2.418,0,0,0,.569-.067,1.45,1.45,0,0,0,.495-.216,1.121,1.121,0,0,0,.345-.383,1.15,1.15,0,0,0,.129-.565,1.124,1.124,0,0,0-.1-.508A1.309,1.309,0,0,0,227.54,183.07Z" transform="translate(-158.531 -179.18)" fill="#007cd8"/><path d="M237.12,179.109H235.9V178.1a.1.1,0,0,0-.108-.108h-.781a.1.1,0,0,0-.108.108v1.014h-.391a.1.1,0,0,0-.108.108c0,.161,0,.279-.009.357a.24.24,0,0,0,.029.162.184.184,0,0,0,.146.046h.333v2.4a1.9,1.9,0,0,0,.058.474.733.733,0,0,0,.266.391,1.127,1.127,0,0,0,.465.224,2.362,2.362,0,0,0,.515.058,3.2,3.2,0,0,0,.457-.038,1.612,1.612,0,0,0,.44-.12.386.386,0,0,0,.1-.07.2.2,0,0,0,.025-.121v-.416c0-.066-.028-.1-.083-.1a.3.3,0,0,0-.133.034,2.264,2.264,0,0,1-.266.091,1.077,1.077,0,0,1-.274.033.557.557,0,0,1-.436-.154.646.646,0,0,1-.137-.445v-2.244h1.222a.1.1,0,0,0,.108-.108v-.457A.1.1,0,0,0,237.12,179.109Z" transform="translate(-164.445 -177.339)" fill="#007cd8"/><path d="M.3,0H.7A.3.3,0,0,1,1,.3V3.859a.3.3,0,0,1-.3.3H.295A.295.295,0,0,1,0,3.861V.3A.3.3,0,0,1,.3,0Z" transform="translate(73.581 1.77)" fill="#007cd8"/><path d="M244.746,176.5a.793.793,0,0,0-.44.108.449.449,0,0,0-.166.407.493.493,0,0,0,.145.407.675.675,0,0,0,.428.117.74.74,0,0,0,.428-.113.456.456,0,0,0,.162-.4.5.5,0,0,0-.145-.4A.614.614,0,0,0,244.746,176.5Z" transform="translate(-170.64 -176.396)" fill="#007cd8"/><path d="M252.291,179.109h-1.222V178.1a.1.1,0,0,0-.108-.108h-.781a.1.1,0,0,0-.108.108v1.014h-.391a.1.1,0,0,0-.108.108c0,.161,0,.279-.009.357a.24.24,0,0,0,.029.162.184.184,0,0,0,.146.046h.333v2.4a1.9,1.9,0,0,0,.058.474.731.731,0,0,0,.266.391,1.127,1.127,0,0,0,.465.224,2.362,2.362,0,0,0,.515.058,3.2,3.2,0,0,0,.457-.038,1.616,1.616,0,0,0,.44-.12.393.393,0,0,0,.1-.07.2.2,0,0,0,.025-.121v-.416c0-.066-.028-.1-.083-.1a.3.3,0,0,0-.133.034,2.267,2.267,0,0,1-.266.091,1.077,1.077,0,0,1-.274.033.557.557,0,0,1-.436-.154.646.646,0,0,1-.137-.445v-2.244h1.222a.1.1,0,0,0,.108-.108v-.457A.1.1,0,0,0,252.291,179.109Z" transform="translate(-174.088 -177.339)" fill="#007cd8"/><path d="M262.842,181.067h-.782a.1.1,0,0,0-.108.108v2.76a.529.529,0,0,1-.075.291.553.553,0,0,1-.191.183.869.869,0,0,1-.262.1,1.532,1.532,0,0,1-.295.029.74.74,0,0,1-.649-.25,1.2,1.2,0,0,1-.175-.7v-2.41a.1.1,0,0,0-.108-.108h-.782a.1.1,0,0,0-.108.108v2.76a1.332,1.332,0,0,0,.37,1.035,1.51,1.51,0,0,0,1.052.337,3.154,3.154,0,0,0,.395-.025,1.486,1.486,0,0,0,.387-.1c.089-.034.175-.068.258-.1a.654.654,0,0,1,.266-.054h.017a1.185,1.185,0,0,0,.008.125.075.075,0,0,0,.083.075h.7a.1.1,0,0,0,.108-.107v-3.94A.1.1,0,0,0,262.842,181.067Z" transform="translate(-180.283 -179.297)" fill="#007cd8"/><path d="M274.467,179.109h-1.222V178.1a.1.1,0,0,0-.108-.108h-.781a.1.1,0,0,0-.108.108v1.014h-.391a.1.1,0,0,0-.108.108c0,.161,0,.279-.008.357a.236.236,0,0,0,.029.162.184.184,0,0,0,.146.046h.332v2.4a1.864,1.864,0,0,0,.058.474.73.73,0,0,0,.266.391,1.13,1.13,0,0,0,.466.224,2.365,2.365,0,0,0,.516.058,3.2,3.2,0,0,0,.457-.038,1.624,1.624,0,0,0,.44-.12.389.389,0,0,0,.1-.07.2.2,0,0,0,.025-.121v-.416c0-.066-.028-.1-.083-.1a.294.294,0,0,0-.133.034,2.268,2.268,0,0,1-.266.091,1.073,1.073,0,0,1-.274.033.556.556,0,0,1-.436-.154.646.646,0,0,1-.137-.445v-2.244h1.222a.1.1,0,0,0,.108-.108v-.457A.1.1,0,0,0,274.467,179.109Z" transform="translate(-188.184 -177.339)" fill="#007cd8"/><path d="M282.6,180.883a2.213,2.213,0,0,0-.869.158,1.686,1.686,0,0,0-.619.445,1.888,1.888,0,0,0-.374.682,2.874,2.874,0,0,0-.125.869,2.171,2.171,0,0,0,.54,1.588,2.122,2.122,0,0,0,1.579.549,4.377,4.377,0,0,0,.7-.058,2.5,2.5,0,0,0,.669-.208.352.352,0,0,0,.141-.087.335.335,0,0,0,.025-.161v-.375a.541.541,0,0,0-.012-.108.071.071,0,0,0-.079-.058.266.266,0,0,0-.108.034c-.11.055-.222.108-.332.158a1.826,1.826,0,0,1-.357.117,2.059,2.059,0,0,1-.5.058,1.256,1.256,0,0,1-.919-.337,1.213,1.213,0,0,1-.345-.91h2.793a.1.1,0,0,0,.108-.108v-.341a1.883,1.883,0,0,0-.5-1.413A1.946,1.946,0,0,0,282.6,180.883Zm-.98,1.663v-.116a.833.833,0,0,1,.075-.363.774.774,0,0,1,.2-.264.871.871,0,0,1,.3-.16,1.229,1.229,0,0,1,.366-.054.926.926,0,0,1,.707.247,1.054,1.054,0,0,1,.249.709Z" transform="translate(-193.828 -179.18)" fill="#007cd8"/><path d="M300.8,176.324a1.464,1.464,0,0,0-.312-.087,1.889,1.889,0,0,0-.328-.029,1.557,1.557,0,0,0-.461.07,1.192,1.192,0,0,0-.411.22.779.779,0,0,0-.241.312,1.417,1.417,0,0,0-.1.373,2.676,2.676,0,0,0-.021.4c0,.136,0,.267,0,.395h-.557a.1.1,0,0,0-.108.108c0,.177,0,.306,0,.386s.012.133.046.158a.308.308,0,0,0,.191.029q.142-.009.432-.008v3.375a.1.1,0,0,0,.108.107h.782a.1.1,0,0,0,.108-.107v-3.375h.889a.1.1,0,0,0,.108-.108v-.457a.1.1,0,0,0-.108-.108h-.889c0-.105,0-.221,0-.345a1.227,1.227,0,0,1,.038-.345.534.534,0,0,1,.153-.262.5.5,0,0,1,.345-.1.613.613,0,0,1,.216.038.491.491,0,0,0,.158.038.075.075,0,0,0,.07-.038.164.164,0,0,0,.021-.079V176.5a.181.181,0,0,0-.025-.112A.3.3,0,0,0,300.8,176.324Z" transform="translate(-205.045 -176.208)" fill="#007cd8"/><path d="M310.289,181.449a1.67,1.67,0,0,0-.619-.449,2.224,2.224,0,0,0-.89-.162,3.4,3.4,0,0,0-.764.079,1.555,1.555,0,0,0-.666.361,1.729,1.729,0,0,0-.519.79,3.323,3.323,0,0,0,0,1.891,1.746,1.746,0,0,0,.512.794,1.558,1.558,0,0,0,.644.361,2.919,2.919,0,0,0,.736.087,3.02,3.02,0,0,0,.744-.087,1.555,1.555,0,0,0,.653-.361,1.692,1.692,0,0,0,.515-.786,3.411,3.411,0,0,0,.017-1.825A1.831,1.831,0,0,0,310.289,181.449Zm-.565,2.1a1.482,1.482,0,0,1-.166.475,1.052,1.052,0,0,1-.32.35.858.858,0,0,1-.5.137.873.873,0,0,1-.511-.141,1.019,1.019,0,0,1-.32-.359,1.659,1.659,0,0,1-.167-.487,2.851,2.851,0,0,1-.05-.521,2.717,2.717,0,0,1,.05-.512,1.542,1.542,0,0,1,.171-.475,1.043,1.043,0,0,1,.319-.35.876.876,0,0,1,.508-.137.839.839,0,0,1,.5.142,1.059,1.059,0,0,1,.32.362,1.576,1.576,0,0,1,.166.488,3.036,3.036,0,0,1,.046.516A2.973,2.973,0,0,1,309.724,183.549Z" transform="translate(-210.404 -179.151)" fill="#007cd8"/><path d="M323.058,180.992c-.033-.006-.068-.01-.1-.013s-.07,0-.1,0a1.762,1.762,0,0,0-.474.067,3.6,3.6,0,0,0-.457.158.681.681,0,0,1-.112.042,1.09,1.09,0,0,1-.12.016c0-.06,0-.118,0-.17s-.046-.079-.129-.079h-.673a.1.1,0,0,0-.108.108v3.94a.1.1,0,0,0,.108.107h.781a.1.1,0,0,0,.107-.107v-2.627a.581.581,0,0,1,.163-.486.846.846,0,0,1,.5-.12,1.474,1.474,0,0,1,.316.033,1.361,1.361,0,0,0,.307.034c.083,0,.125-.044.125-.133v-.607a.262.262,0,0,0-.016-.112C323.154,181.018,323.119,181,323.058,180.992Z" transform="translate(-219.353 -179.238)" fill="#007cd8"/><path d="M337.953,177.256h-4.206a.1.1,0,0,0-.107.108v.6a.1.1,0,0,0,.107.108H335.3v4.622a.1.1,0,0,0,.108.107h.865a.1.1,0,0,0,.108-.107v-4.622h1.571a.1.1,0,0,0,.108-.108v-.6A.1.1,0,0,0,337.953,177.256Z" transform="translate(-227.532 -176.874)" fill="#007cd8"/><path d="M348.929,180.992c-.033-.006-.067-.01-.1-.013s-.07,0-.1,0a1.762,1.762,0,0,0-.474.067,3.6,3.6,0,0,0-.457.158.683.683,0,0,1-.112.042,1.067,1.067,0,0,1-.12.016c0-.06,0-.118,0-.17s-.046-.079-.129-.079h-.673a.1.1,0,0,0-.108.108v3.94a.1.1,0,0,0,.108.107h.781a.1.1,0,0,0,.108-.107v-2.627a.583.583,0,0,1,.162-.486.847.847,0,0,1,.5-.12,1.474,1.474,0,0,1,.316.033,1.361,1.361,0,0,0,.307.034c.083,0,.125-.044.125-.133v-.607a.246.246,0,0,0-.016-.112C349.025,181.018,348.99,181,348.929,180.992Z" transform="translate(-235.798 -179.238)" fill="#007cd8"/><path d="M357.5,181.112a1.5,1.5,0,0,0-.5-.179,3.269,3.269,0,0,0-.574-.051,4.969,4.969,0,0,0-.769.063,3.379,3.379,0,0,0-.744.2.44.44,0,0,0-.129.079.192.192,0,0,0-.037.137v.457a.251.251,0,0,0,.016.088.07.07,0,0,0,.075.046.185.185,0,0,0,.071-.012c.02-.008.04-.017.062-.029a4.536,4.536,0,0,1,.636-.245,2.361,2.361,0,0,1,.677-.1,1.485,1.485,0,0,1,.236.021.867.867,0,0,1,.234.07.5.5,0,0,1,.174.137.353.353,0,0,1,.071.228c0,.111-.032.182-.1.212a1.763,1.763,0,0,1-.228.087l-.857.282c-.183.061-.353.126-.511.2a1.712,1.712,0,0,0-.42.257,1.1,1.1,0,0,0-.287.369,1.249,1.249,0,0,0-.1.541,1.269,1.269,0,0,0,.1.528,1.1,1.1,0,0,0,.282.382,1.165,1.165,0,0,0,.424.228,1.843,1.843,0,0,0,.536.075,1.8,1.8,0,0,0,.391-.037,2.107,2.107,0,0,0,.375-.129c.067-.028.13-.056.191-.083A.5.5,0,0,1,357,184.9h.075a.577.577,0,0,0,0,.137c.006.047.042.07.108.07h.69a.1.1,0,0,0,.108-.107V182.03a1.085,1.085,0,0,0-.133-.569A.989.989,0,0,0,357.5,181.112Zm-.512,2.756a1.017,1.017,0,0,1-.028.253.386.386,0,0,1-.146.2.644.644,0,0,1-.266.125,1.364,1.364,0,0,1-.3.033,1.168,1.168,0,0,1-.278-.033.766.766,0,0,1-.241-.1.528.528,0,0,1-.171-.179.536.536,0,0,1-.066-.278.506.506,0,0,1,.083-.3.789.789,0,0,1,.212-.208,1.36,1.36,0,0,1,.278-.145c.1-.039.2-.072.291-.1l.631-.208Z" transform="translate(-240.786 -179.18)" fill="#007cd8"/><path d="M368.033,176.5a.793.793,0,0,0-.441.108.45.45,0,0,0-.166.407.492.492,0,0,0,.146.407.673.673,0,0,0,.427.117.741.741,0,0,0,.428-.113.455.455,0,0,0,.162-.4.5.5,0,0,0-.145-.4A.613.613,0,0,0,368.033,176.5Z" transform="translate(-249.008 -176.396)" fill="#007cd8"/><path d="M.3,0H.7A.3.3,0,0,1,1,.3V3.861A.295.295,0,0,1,.7,4.156H.3a.3.3,0,0,1-.3-.3V.3A.3.3,0,0,1,.3,0Z" transform="translate(118.501 1.77)" fill="#007cd8"/><path d="M376.388,180.838a2.54,2.54,0,0,0-.362.025,1.6,1.6,0,0,0-.345.092c-.105.038-.2.075-.278.107a.748.748,0,0,1-.287.05.637.637,0,0,0-.012-.141c-.008-.034-.052-.05-.129-.05h-.665a.1.1,0,0,0-.108.108v3.94a.1.1,0,0,0,.108.107h.782a.1.1,0,0,0,.108-.107v-2.693a.551.551,0,0,1,.249-.515,1.1,1.1,0,0,1,.582-.15.82.82,0,0,1,.64.216.969.969,0,0,1,.191.657v2.486a.1.1,0,0,0,.108.107h.782a.1.1,0,0,0,.108-.107v-2.627a1.556,1.556,0,0,0-.37-1.118A1.458,1.458,0,0,0,376.388,180.838Z" transform="translate(-253.316 -179.151)" fill="#007cd8"/><path d="M388.2,176.5a.8.8,0,0,0-.441.108.45.45,0,0,0-.166.407.494.494,0,0,0,.145.407.675.675,0,0,0,.428.117.737.737,0,0,0,.428-.113.456.456,0,0,0,.163-.4.5.5,0,0,0-.145-.4A.615.615,0,0,0,388.2,176.5Z" transform="translate(-261.828 -176.396)" fill="#007cd8"/><path d="M.3,0H.7A.3.3,0,0,1,1,.3V3.861A.295.295,0,0,1,.7,4.156H.295A.295.295,0,0,1,0,3.861V.3A.3.3,0,0,1,.3,0Z" transform="translate(125.849 1.77)" fill="#007cd8"/><path d="M396.556,180.838a2.534,2.534,0,0,0-.362.025,1.6,1.6,0,0,0-.345.092c-.105.038-.2.075-.278.107a.75.75,0,0,1-.287.05.587.587,0,0,0-.013-.141c-.008-.034-.051-.05-.129-.05h-.665a.1.1,0,0,0-.108.108v3.94a.1.1,0,0,0,.108.107h.782a.1.1,0,0,0,.108-.107v-2.693a.55.55,0,0,1,.249-.515,1.1,1.1,0,0,1,.582-.15.82.82,0,0,1,.64.216.969.969,0,0,1,.191.657v2.486a.1.1,0,0,0,.108.107h.782a.1.1,0,0,0,.108-.107v-2.627a1.556,1.556,0,0,0-.369-1.118A1.458,1.458,0,0,0,396.556,180.838Z" transform="translate(-266.135 -179.151)" fill="#007cd8"/><path d="M410.959,180.921h-.7c-.067,0-.1.022-.1.066s0,.089,0,.133a.157.157,0,0,1-.1-.012l-.083-.054a1.3,1.3,0,0,0-.407-.171,2.13,2.13,0,0,0-.449-.046,2.026,2.026,0,0,0-.848.171,1.951,1.951,0,0,0-.64.461,2,2,0,0,0-.407.685,2.5,2.5,0,0,0-.141.852,2.547,2.547,0,0,0,.129.827,1.834,1.834,0,0,0,.379.653,1.759,1.759,0,0,0,.611.432,2.047,2.047,0,0,0,.827.158,1.982,1.982,0,0,0,.433-.041,1.606,1.606,0,0,0,.4-.158.745.745,0,0,1,.1-.05.493.493,0,0,1,.111-.025c0,.167,0,.331-.012.495a.756.756,0,0,1-.187.453.852.852,0,0,1-.454.3,2.246,2.246,0,0,1-.553.067,2.773,2.773,0,0,1-.719-.088,3.97,3.97,0,0,1-.677-.253.244.244,0,0,0-.063-.029.2.2,0,0,0-.062-.013.082.082,0,0,0-.079.038.174.174,0,0,0-.02.087v.482a.177.177,0,0,0,.066.145.621.621,0,0,0,.154.092,1.029,1.029,0,0,0,.183.058c.064.014.118.026.162.037a4.565,4.565,0,0,0,1.114.133c.139,0,.282-.007.433-.02a3.543,3.543,0,0,0,.44-.071,3.016,3.016,0,0,0,.423-.133,1.487,1.487,0,0,0,.374-.216,1.016,1.016,0,0,0,.4-.561,3.033,3.033,0,0,0,.075-.7V181.03A.1.1,0,0,0,410.959,180.921Zm-.89,2.9a.47.47,0,0,1-.075.274.574.574,0,0,1-.191.174.789.789,0,0,1-.262.092,1.662,1.662,0,0,1-.278.025,1.26,1.26,0,0,1-.549-.108.987.987,0,0,1-.366-.3,1.246,1.246,0,0,1-.208-.445,2.194,2.194,0,0,1-.066-.548,2.382,2.382,0,0,1,.062-.552,1.367,1.367,0,0,1,.2-.462.98.98,0,0,1,.361-.316,1.188,1.188,0,0,1,.549-.116,1.5,1.5,0,0,1,.294.029.937.937,0,0,1,.279.1.438.438,0,0,1,.208.195.8.8,0,0,1,.041.287Z" transform="translate(-274.213 -179.151)" fill="#007cd8"/><path d="M429.633,181.112a1.491,1.491,0,0,0-.5-.179,3.268,3.268,0,0,0-.573-.051,4.979,4.979,0,0,0-.769.063,3.368,3.368,0,0,0-.744.2.449.449,0,0,0-.129.079.19.19,0,0,0-.038.137v.457a.271.271,0,0,0,.016.088.071.071,0,0,0,.075.046.188.188,0,0,0,.071-.012c.019-.008.04-.017.062-.029a4.517,4.517,0,0,1,.636-.245,2.367,2.367,0,0,1,.678-.1,1.5,1.5,0,0,1,.237.021.869.869,0,0,1,.233.07.5.5,0,0,1,.174.137.353.353,0,0,1,.071.228c0,.111-.032.182-.1.212a1.717,1.717,0,0,1-.228.087l-.856.282c-.183.061-.353.126-.512.2a1.7,1.7,0,0,0-.419.257,1.1,1.1,0,0,0-.287.369,1.243,1.243,0,0,0-.1.541,1.263,1.263,0,0,0,.1.528,1.091,1.091,0,0,0,.283.382,1.162,1.162,0,0,0,.423.228,1.843,1.843,0,0,0,.537.075,1.811,1.811,0,0,0,.391-.037,2.1,2.1,0,0,0,.374-.129l.191-.083a.5.5,0,0,1,.208-.042h.075a.544.544,0,0,0,0,.137c.006.047.042.07.108.07h.69a.1.1,0,0,0,.108-.107V182.03a1.1,1.1,0,0,0-.133-.569A1,1,0,0,0,429.633,181.112Zm-.511,2.756a1.015,1.015,0,0,1-.029.253.385.385,0,0,1-.145.2.653.653,0,0,1-.266.125,1.373,1.373,0,0,1-.3.033,1.172,1.172,0,0,1-.278-.033.762.762,0,0,1-.241-.1.527.527,0,0,1-.17-.179.532.532,0,0,1-.067-.278.507.507,0,0,1,.083-.3.8.8,0,0,1,.212-.208,1.37,1.37,0,0,1,.278-.145c.1-.039.2-.072.291-.1l.632-.208Z" transform="translate(-286.641 -179.18)" fill="#007cd8"/><path d="M441.979,180.838a2.531,2.531,0,0,0-.361.025,1.6,1.6,0,0,0-.345.092c-.105.038-.2.075-.278.107a.75.75,0,0,1-.287.05.608.608,0,0,0-.013-.141c-.008-.034-.051-.05-.129-.05H439.9a.1.1,0,0,0-.108.108v3.94a.1.1,0,0,0,.108.107h.782a.1.1,0,0,0,.107-.107v-2.693a.55.55,0,0,1,.25-.515,1.1,1.1,0,0,1,.582-.15.82.82,0,0,1,.64.216.971.971,0,0,1,.191.657v2.486a.1.1,0,0,0,.108.107h.782a.1.1,0,0,0,.107-.107v-2.627a1.556,1.556,0,0,0-.369-1.118A1.458,1.458,0,0,0,441.979,180.838Z" transform="translate(-295.009 -179.151)" fill="#007cd8"/><path d="M456.382,176.5H455.6a.1.1,0,0,0-.108.108v1.737a.19.19,0,0,1-.1-.009c-.025-.011-.057-.028-.1-.05a1.593,1.593,0,0,0-.391-.162,1.786,1.786,0,0,0-.423-.046,1.929,1.929,0,0,0-.84.175,1.838,1.838,0,0,0-.619.474,2.1,2.1,0,0,0-.387.694,2.626,2.626,0,0,0-.133.843,2.552,2.552,0,0,0,.133.835,1.956,1.956,0,0,0,.383.669,1.707,1.707,0,0,0,.615.441,2.079,2.079,0,0,0,.831.157,2,2,0,0,0,.487-.058,2.105,2.105,0,0,0,.453-.175c.034-.016.061-.028.083-.037a.257.257,0,0,1,.092-.013,1.49,1.49,0,0,0,.008.153c.006.054.047.079.125.079h.674a.1.1,0,0,0,.107-.107v-5.6A.1.1,0,0,0,456.382,176.5Zm-.89,4.6a.485.485,0,0,1-.079.287.58.58,0,0,1-.2.179.879.879,0,0,1-.275.092,1.79,1.79,0,0,1-.291.025,1.146,1.146,0,0,1-.544-.117.953.953,0,0,1-.353-.315,1.339,1.339,0,0,1-.191-.458,2.452,2.452,0,0,1-.058-.549,2.573,2.573,0,0,1,.058-.557,1.371,1.371,0,0,1,.191-.469.971.971,0,0,1,.353-.325,1.138,1.138,0,0,1,.553-.12,1.571,1.571,0,0,1,.332.037.849.849,0,0,1,.307.129.362.362,0,0,1,.171.208,1.148,1.148,0,0,1,.029.275Z" transform="translate(-303.086 -176.396)" fill="#007cd8"/><path d="M477.22,182.535l-.9-1.33q-.191-.283-.391-.549t-.391-.548a1.3,1.3,0,0,0,.885-.445,1.488,1.488,0,0,0,.287-.952,1.839,1.839,0,0,0-.1-.59,1.111,1.111,0,0,0-.336-.49,1.33,1.33,0,0,0-.6-.312,3.475,3.475,0,0,0-.686-.063h-1.829a.1.1,0,0,0-.108.108v5.329a.1.1,0,0,0,.108.107h.865a.1.1,0,0,0,.108-.107v-2.452h.2c.05,0,.1.038.15.116l1.57,2.394a.1.1,0,0,0,.083.05h.948a.589.589,0,0,0,.133-.016.085.085,0,0,0,.075-.091.163.163,0,0,0-.025-.083A.857.857,0,0,0,477.22,182.535Zm-2.378-2.9h-.706v-1.663h.706a.755.755,0,0,1,.582.224.847.847,0,0,1,.208.6.882.882,0,0,1-.208.6A.734.734,0,0,1,474.842,179.634Z" transform="translate(-316.152 -176.874)" fill="#007cd8"/><path d="M487.59,180.883a2.21,2.21,0,0,0-.868.158,1.689,1.689,0,0,0-.62.445,1.9,1.9,0,0,0-.373.682,2.863,2.863,0,0,0-.125.869,2.171,2.171,0,0,0,.54,1.588,2.121,2.121,0,0,0,1.579.549,4.377,4.377,0,0,0,.7-.058,2.5,2.5,0,0,0,.67-.208.347.347,0,0,0,.141-.087.331.331,0,0,0,.025-.161v-.375a.569.569,0,0,0-.012-.108.072.072,0,0,0-.079-.058.264.264,0,0,0-.108.034q-.167.083-.332.158a1.837,1.837,0,0,1-.358.117,2.059,2.059,0,0,1-.5.058,1.255,1.255,0,0,1-.918-.337,1.21,1.21,0,0,1-.345-.91H489.4a.1.1,0,0,0,.108-.108v-.341a1.883,1.883,0,0,0-.5-1.413A1.945,1.945,0,0,0,487.59,180.883Zm-.98,1.663v-.116a.833.833,0,0,1,.075-.363.766.766,0,0,1,.2-.264.869.869,0,0,1,.3-.16,1.226,1.226,0,0,1,.366-.054.926.926,0,0,1,.706.247,1.054,1.054,0,0,1,.25.709Z" transform="translate(-324.129 -179.18)" fill="#007cd8"/><path d="M500.626,183.07a2.22,2.22,0,0,0-.379-.287c-.141-.086-.284-.176-.428-.27-.034-.022-.066-.044-.1-.067s-.062-.044-.1-.066c-.094-.061-.18-.119-.258-.175a.315.315,0,0,1-.117-.275.282.282,0,0,1,.162-.282.8.8,0,0,1,.337-.075,2.041,2.041,0,0,1,.466.058,1.817,1.817,0,0,1,.44.158l.075.037a.175.175,0,0,0,.082.021.077.077,0,0,0,.079-.05.231.231,0,0,0,.021-.091v-.416a.2.2,0,0,0-.042-.133.3.3,0,0,0-.1-.079.675.675,0,0,0-.137-.046l-.141-.033a3.221,3.221,0,0,0-.856-.117,1.83,1.83,0,0,0-.532.075,1.27,1.27,0,0,0-.436.224,1.091,1.091,0,0,0-.3.378,1.187,1.187,0,0,0-.112.528,1.108,1.108,0,0,0,.07.416,1.077,1.077,0,0,0,.191.312,1.5,1.5,0,0,0,.283.25c.108.075.223.148.344.22l.4.25q.158.1.308.212a.377.377,0,0,1,.15.32.314.314,0,0,1-.179.32.947.947,0,0,1-.387.079,1.79,1.79,0,0,1-.527-.07,2.872,2.872,0,0,1-.495-.212c-.028-.011-.053-.022-.075-.034a.17.17,0,0,0-.075-.016.07.07,0,0,0-.079.054.5.5,0,0,0-.012.1v.448c0,.089.012.145.037.167a.514.514,0,0,0,.154.075,3.757,3.757,0,0,0,.536.142,3.126,3.126,0,0,0,.561.05,2.417,2.417,0,0,0,.569-.067,1.439,1.439,0,0,0,.494-.216,1.123,1.123,0,0,0,.345-.383,1.15,1.15,0,0,0,.129-.565,1.124,1.124,0,0,0-.1-.508A1.322,1.322,0,0,0,500.626,183.07Z" transform="translate(-332.119 -179.18)" fill="#007cd8"/><path d="M509.948,180.883a2.214,2.214,0,0,0-.869.158,1.7,1.7,0,0,0-.619.445,1.894,1.894,0,0,0-.374.682,2.874,2.874,0,0,0-.125.869,2.17,2.17,0,0,0,.54,1.588,2.12,2.12,0,0,0,1.58.549,4.375,4.375,0,0,0,.7-.058,2.5,2.5,0,0,0,.669-.208.358.358,0,0,0,.142-.087.34.34,0,0,0,.025-.161v-.375a.5.5,0,0,0-.013-.108.071.071,0,0,0-.079-.058.266.266,0,0,0-.108.034c-.111.055-.221.108-.333.158a1.816,1.816,0,0,1-.357.117,2.062,2.062,0,0,1-.5.058,1.257,1.257,0,0,1-.919-.337,1.215,1.215,0,0,1-.345-.91h2.793a.1.1,0,0,0,.108-.108v-.341a1.883,1.883,0,0,0-.5-1.413A1.944,1.944,0,0,0,509.948,180.883Zm-.981,1.663v-.116a.823.823,0,0,1,.075-.363.766.766,0,0,1,.2-.264.859.859,0,0,1,.3-.16,1.23,1.23,0,0,1,.366-.054.926.926,0,0,1,.706.247,1.052,1.052,0,0,1,.249.709Z" transform="translate(-338.34 -179.18)" fill="#007cd8"/><path d="M523.446,181.112a1.491,1.491,0,0,0-.5-.179,3.274,3.274,0,0,0-.573-.051,4.978,4.978,0,0,0-.769.063,3.374,3.374,0,0,0-.744.2.441.441,0,0,0-.129.079.19.19,0,0,0-.038.137v.457a.268.268,0,0,0,.016.088.071.071,0,0,0,.075.046.19.19,0,0,0,.071-.012c.019-.008.04-.017.062-.029a4.517,4.517,0,0,1,.636-.245,2.366,2.366,0,0,1,.677-.1,1.5,1.5,0,0,1,.237.021.861.861,0,0,1,.233.07.5.5,0,0,1,.174.137.353.353,0,0,1,.071.228c0,.111-.032.182-.1.212a1.7,1.7,0,0,1-.228.087l-.856.282c-.183.061-.354.126-.512.2a1.706,1.706,0,0,0-.419.257,1.1,1.1,0,0,0-.287.369,1.244,1.244,0,0,0-.1.541,1.263,1.263,0,0,0,.1.528,1.085,1.085,0,0,0,.282.382,1.164,1.164,0,0,0,.423.228,1.845,1.845,0,0,0,.537.075,1.808,1.808,0,0,0,.391-.037,2.107,2.107,0,0,0,.375-.129l.191-.083a.5.5,0,0,1,.208-.042h.075a.533.533,0,0,0,0,.137c.005.047.042.07.108.07h.69a.1.1,0,0,0,.108-.107V182.03a1.1,1.1,0,0,0-.133-.569A1,1,0,0,0,523.446,181.112Zm-.511,2.756a1.011,1.011,0,0,1-.03.253.381.381,0,0,1-.145.2.654.654,0,0,1-.266.125,1.377,1.377,0,0,1-.3.033,1.168,1.168,0,0,1-.278-.033.762.762,0,0,1-.241-.1.522.522,0,0,1-.17-.179.532.532,0,0,1-.067-.278.5.5,0,0,1,.083-.3.791.791,0,0,1,.212-.208,1.37,1.37,0,0,1,.278-.145c.1-.039.2-.072.291-.1l.632-.208Z" transform="translate(-346.274 -179.18)" fill="#007cd8"/><path d="M535.89,180.992c-.033-.006-.068-.01-.1-.013s-.071,0-.1,0a1.754,1.754,0,0,0-.474.067,3.653,3.653,0,0,0-.458.158.678.678,0,0,1-.111.042,1.086,1.086,0,0,1-.121.016c0-.06,0-.118,0-.17s-.046-.079-.129-.079h-.673a.1.1,0,0,0-.108.108v3.94a.1.1,0,0,0,.108.107h.781a.1.1,0,0,0,.108-.107v-2.627a.581.581,0,0,1,.162-.486.845.845,0,0,1,.5-.12,1.475,1.475,0,0,1,.316.033,1.371,1.371,0,0,0,.308.034c.083,0,.125-.044.125-.133v-.607a.249.249,0,0,0-.017-.112C535.987,181.018,535.951,181,535.89,180.992Z" transform="translate(-354.64 -179.238)" fill="#007cd8"/><path d="M544.742,184.138a.168.168,0,0,0-.075.017l-.066.034a2.278,2.278,0,0,1-.478.182,1.984,1.984,0,0,1-.511.067,1.288,1.288,0,0,1-.569-.112.982.982,0,0,1-.37-.307,1.275,1.275,0,0,1-.2-.457,2.445,2.445,0,0,1-.063-.57,2.4,2.4,0,0,1,.067-.59,1.244,1.244,0,0,1,.215-.461,1.011,1.011,0,0,1,.387-.3,1.412,1.412,0,0,1,.585-.107,1.918,1.918,0,0,1,.47.058,2.25,2.25,0,0,1,.445.166c.022.011.047.022.075.034a.233.233,0,0,0,.083.016.07.07,0,0,0,.062-.029.118.118,0,0,0,.021-.071v-.449a.189.189,0,0,0-.042-.125.331.331,0,0,0-.1-.083.548.548,0,0,0-.133-.05c-.047-.011-.09-.022-.129-.034a3.343,3.343,0,0,0-.914-.125,2.2,2.2,0,0,0-.877.167,1.882,1.882,0,0,0-.653.457,2.054,2.054,0,0,0-.411.694,2.571,2.571,0,0,0-.145.877,2.743,2.743,0,0,0,.132.881,1.783,1.783,0,0,0,.4.665,1.724,1.724,0,0,0,.645.419,2.454,2.454,0,0,0,.881.146,2.851,2.851,0,0,0,.295-.017c.108-.011.216-.026.325-.046s.214-.043.316-.07a1.805,1.805,0,0,0,.278-.1.329.329,0,0,0,.117-.075.289.289,0,0,0,.025-.15c0-.022,0-.062,0-.12s0-.119,0-.183a.987.987,0,0,0-.021-.17C544.789,184.163,544.77,184.138,544.742,184.138Z" transform="translate(-359.602 -179.151)" fill="#007cd8"/><path d="M556.478,178.453a1.455,1.455,0,0,0-1.056-.37,2.588,2.588,0,0,0-.49.046,1.834,1.834,0,0,0-.466.162,1.052,1.052,0,0,1-.121.054.436.436,0,0,1-.129.013H554.2v-1.746a.1.1,0,0,0-.108-.108h-.781a.1.1,0,0,0-.108.108v5.6a.1.1,0,0,0,.108.107h.781a.1.1,0,0,0,.108-.107V179.43a.455.455,0,0,1,.083-.278.661.661,0,0,1,.208-.183.888.888,0,0,1,.274-.1,1.532,1.532,0,0,1,.291-.029,1.158,1.158,0,0,1,.333.046.6.6,0,0,1,.274.187.656.656,0,0,1,.175.357,3.067,3.067,0,0,1,.025.408v2.377a.1.1,0,0,0,.108.107h.781a.1.1,0,0,0,.108-.107v-2.71A1.4,1.4,0,0,0,556.478,178.453Z" transform="translate(-367.098 -176.396)" fill="#007cd8"/></g><g transform="translate(0.072 0)"><g transform="translate(49.746)"><rect width="1.093" height="42.619" fill="#007cd8"/></g><path d="M64.273,80.8c.109.075.2-.062.163-.18C64.331,80.545,64.235,80.68,64.273,80.8ZM51.1,79.411a.131.131,0,0,0,.026-.111c-.04-.039-.162-.1-.214-.027a.155.155,0,0,0,.069.137C51.01,79.391,51.068,79.435,51.1,79.411Zm-1.08.2c.031-.018.118,0,.163-.026C50.173,79.445,50.012,79.469,50.022,79.609Zm21.416-9.195c.057.035.089.12.18.111a.107.107,0,0,0,.043-.111c-.083-.02-.085-.134-.137-.207a.48.48,0,0,0-.188-.145c-.234-.028-.01.283.051.334C71.4,70.407,71.423,70.4,71.438,70.414ZM50.322,79.488a.226.226,0,0,0,.034-.068c-.034-.085-.173-.2-.232-.069C50.193,79.395,50.213,79.486,50.322,79.488Zm1.3,3.462c.084.11.135.4.343.275,0-.161-.128-.265-.2-.385C51.692,82.846,51.67,82.911,51.624,82.95Zm12.718-2.424c.048-.071-.016-.181-.095-.12C64.248,80.477,64.257,80.539,64.342,80.526ZM51.376,82.471c-.067.043.011.18.043.214.065.071.193.11.24-.009C51.633,82.6,51.477,82.406,51.376,82.471Zm-.729-.677c.024.133.09.384.24.257C50.889,81.9,50.782,81.674,50.647,81.794Zm28.992-14.38a7.8,7.8,0,0,1,.412,1.448A7.116,7.116,0,0,0,78,66.72c-.419-.275-.855-.537-1.251-.84a12.651,12.651,0,0,1-1.037-.925c-.015-.014-.029-.057-.06-.043a7.558,7.558,0,0,0,1.037,1.86,10.846,10.846,0,0,0,1.336,1.568c.5.467,1.058.879,1.586,1.32a6,6,0,0,1,1.26,1.457c.022.036.046.1.068.086a12.266,12.266,0,0,1,.086-2.57,5.591,5.591,0,0,0-.4-2.323,6.224,6.224,0,0,0-2.339-3.145c-.005,0-.011,0-.009.009a7.207,7.207,0,0,1,1.037,2.707A12.9,12.9,0,0,0,79.639,67.414Zm-6.873,6.538c.107.007.026-.238-.051-.12C72.726,73.891,72.716,73.95,72.766,73.952Zm-.806-2.545c.033.122.247.212.265.043.011-.092-.1-.186-.12-.248C71.947,71.159,71.987,71.317,71.961,71.407Zm.369.583c.018.1.047.3-.078.308a.669.669,0,0,1,.026-.274.132.132,0,0,0-.145-.009c-.058.143.091.213.085.36a.915.915,0,0,1,.24.591,1.042,1.042,0,0,0-.008.146c.016.088.1.161.129.231.058-.014.122-.02.154-.06a2.2,2.2,0,0,0-.12-.669,1.792,1.792,0,0,0-.085-.377.571.571,0,0,1-.078-.214C72.412,72.013,72.368,71.972,72.329,71.99Zm-.18-.291c.026.085.153.033.189-.017C72.32,71.553,72.179,71.627,72.149,71.7Zm2.443-9.452c.164.193.312.386.462.583.518.675,1,1.4,1.526,2.057a6.321,6.321,0,0,0,1.234,1.157,16.2,16.2,0,0,1,1.371,1.046c-.005,0-.01,0-.008-.009a7.473,7.473,0,0,0-.694-1.688A5.185,5.185,0,0,0,77.488,64a8.957,8.957,0,0,0-1.389-.994,12.752,12.752,0,0,0-1.551-.831C74.531,62.215,74.576,62.229,74.592,62.247Zm-2.4,9.563c-.036.168.218.1.214.025S72.27,71.809,72.192,71.81Zm-1.637-2.254c.013.088.181.092.189.017S70.586,69.476,70.555,69.556ZM50.142,80.029c.029-.031.014-.1,0-.137a.334.334,0,0,0-.163.05A.139.139,0,0,0,50.142,80.029Zm21.681-9.075c-.012.022-.055.013-.069.034,0,.105.079.138.18.146a.173.173,0,0,0-.043-.172c.011-.015.018-.033.043-.034.061.019.025.134.068.171a.094.094,0,0,0,.068-.017c.012-.123-.034-.217-.145-.189-.091-.067-.179-.295-.326-.172C71.594,70.88,71.763,70.863,71.823,70.953Zm.068-.352c.026-.163-.151-.11-.162-.017C71.756,70.646,71.843,70.64,71.892,70.6Zm9.59-.6a7.459,7.459,0,0,0,.009,2.083c.055.317.133.618.206.916a2.453,2.453,0,0,1,.111.977,11.263,11.263,0,0,0-.582-1.74,4.479,4.479,0,0,0-1.037-1.285c-.8-.74-1.609-1.489-2.391-2.253,0-.013-.01,0,0,.008.313.7.611,1.383.96,2.04a19.426,19.426,0,0,0,1.071,1.919c.4.581.867,1.123,1.268,1.723a4.184,4.184,0,0,1,.866,2.133c.184-.919.418-1.793.643-2.7A9.741,9.741,0,0,0,83,70.9a7.562,7.562,0,0,0-1.723-4.756c-.032-.035-.059-.1-.094-.086a5.475,5.475,0,0,1,.411,1.825A13.466,13.466,0,0,1,81.482,70Zm-8.9,4.284a.067.067,0,0,0,.086-.1C72.6,74.171,72.587,74.225,72.586,74.286Zm-7.7,6.668a.251.251,0,0,0-.017-.222c-.122.014-.214.06-.214.2A.305.305,0,0,0,64.891,80.954Zm-7.6-1.79c-.034.031-.11.02-.094.1.04.037.092,0,.128-.018,0-.069.046-.091.06-.146C57.352,79.025,57.242,79.076,57.289,79.163Zm.849-12.272a.158.158,0,0,0,.163.034c.007-.042.028-.069.034-.111A.112.112,0,0,0,58.138,66.891Zm3.591-1.046c.02.012.028.035.068.026a.112.112,0,0,0,.034-.1C61.773,65.743,61.712,65.77,61.729,65.846Zm.3.086a.182.182,0,0,0,.06-.137c-.035-.043-.118-.036-.18-.052C61.89,65.831,61.914,65.949,62.028,65.931Zm-1.148,3.65c-.053-.016-.049-.066-.085-.085-.111-.06-.219.052-.257.146.062.137.29.1.368.008.027.077.18.042.18-.034C61.068,69.532,60.916,69.557,60.88,69.582Zm-3.753,8.707a1.108,1.108,0,0,0,.043-.2c0-.1-.082-.174-.1-.248-.049-.006-.073.013-.12.009-.039-.058-.031-.164-.086-.206-.177-.016-.15.107-.12.223a1.03,1.03,0,0,0,.128.36c.069.1.114.2.215.206C57.136,78.409,57.118,78.343,57.126,78.289Zm.052,1.062c-.01,0-.009-.013-.009-.025-.061-.051-.112.028-.12.085C57.1,79.455,57.162,79.4,57.178,79.351Zm-.163-.814c-.016.108.055.195.137.18C57.3,78.69,57.13,78.387,57.015,78.537Zm.086.326c.006.066.108.1.162.06C57.27,78.847,57.142,78.812,57.1,78.863Zm.248.164a.051.051,0,0,0-.086-.052C57.257,79.033,57.309,79.037,57.349,79.027Zm-5.3,3.024A.073.073,0,0,0,52.053,82a.039.039,0,0,1-.026-.008A.04.04,0,0,0,52.044,82.051Zm10.087-16.06c.082.056.205.02.18-.077S62.093,65.829,62.131,65.991ZM53.184,79.36c.016-.04-.046-.045-.06-.026C53.137,79.35,53.16,79.381,53.184,79.36Zm13.471,1.054c.007-.06.031-.1.035-.163-.1-.05-.223.07-.274.154C66.451,80.49,66.6,80.471,66.656,80.414Zm-5.219,4.748c.042-.192-.2-.176-.172-.009A.1.1,0,0,0,61.437,85.162Zm4.62-4.474c-.038-.126-.24.059-.343.035-.024.029-.076.032-.077.085C65.713,80.931,66.089,80.8,66.056,80.688ZM62.9,72.325a.158.158,0,0,0,.051-.129c-.027.05-.147.008-.18.051C62.766,72.324,62.834,72.324,62.9,72.325Zm-.077.077a.1.1,0,0,0-.137-.068C62.524,72.409,62.828,72.567,62.825,72.4ZM54.881,86.867c-.024.007-.056.005-.069.042-.036.111.135.2.18.249.069.069.158.219.24.2.042-.011.072-.1.043-.18-.02-.052-.12-.119-.171-.171C55.021,86.921,54.973,86.844,54.881,86.867ZM62.045,73.1c.09.017.1-.167.086-.232C62.009,72.814,61.955,73.078,62.045,73.1Zm.617-.591c-.016-.061-.13-.063-.153.008C62.534,72.616,62.692,72.615,62.662,72.5Zm0,13.625c-.062-.071-.19-.024-.153.1A.092.092,0,0,0,62.662,86.13Zm2.374-24.157a.055.055,0,0,0-.051-.078.057.057,0,0,0,.034.086C65.021,61.975,65.026,61.971,65.036,61.973ZM62.474,75.29a.486.486,0,0,0,.017-.12.12.12,0,0,0-.215.009c.006.046.065.064.035.12.047-.005.047.093,0,.086a.31.31,0,0,1-.077-.18.124.124,0,0,0-.086.232.781.781,0,0,0,.42-.052C62.561,75.328,62.484,75.342,62.474,75.29Zm-.446.283a.293.293,0,0,0,.248.085c.005-.032.019-.09,0-.12C62.185,75.515,62.077,75.5,62.028,75.572Zm-.043-.043c-.022-.061.014-.081.017-.137-.07-.092-.131.05-.137.129A.092.092,0,0,0,61.985,75.53Zm.068.223c-.039.075-.06.168-.137.205.023.12.134.152.206.223C62.114,76.058,62.153,75.814,62.054,75.752Zm2.52-1.071c0-.06-.119-.166-.112-.035C64.507,74.648,64.526,74.711,64.574,74.681Zm-.034,1.868a.141.141,0,0,0,.085.1c.2-.058.042-.265,0-.395C64.553,76.27,64.523,76.457,64.539,76.549Zm-1.5,1.466c-.064-.028-.148.016-.214-.009-.039-.015-.061-.072-.1-.086a.124.124,0,0,0-.171.069c-.015.085.058.1.085.163,0,.046-.058.038-.06.085a.208.208,0,0,0,.24.128,1.1,1.1,0,0,0,.2-.051A.166.166,0,0,0,63.039,78.015Zm1.466-2.332c-.006.027-.034.031-.026.069a.1.1,0,0,0,.068.017c.015-.005,0-.041.017-.043.043-.009.042.026.077.026a.053.053,0,0,0,.017-.085c-.06-.012-.062.034-.1.043C64.542,75.7,64.534,75.681,64.505,75.683Zm.171,1.089c.03.137.4.231.351,0-.016-.071-.226-.151-.274-.137A.105.105,0,0,0,64.676,76.772Zm-2.057-1.029c.031-.107-.076-.121-.085-.214a.186.186,0,0,0-.154.043.353.353,0,0,0,.009.12c.048.04.147.03.214.052.025.214-.329.165-.248.411.206-.023.329-.057.548-.068C63.012,75.89,62.782,75.778,62.619,75.744ZM65.7,73.113c.113-.173.212-.36.446-.411.027-.061.078-.1.086-.18-.056-.027-.112-.054-.171-.078-.071.081-.128.175-.257.2C65.805,72.823,65.49,73.051,65.7,73.113Zm-.334-.857c.044,0,.026-.055.06-.06.063.074.134-.007.2-.008.044,0,.067.036.1.026a.086.086,0,0,0,.051-.085c-.022-.092-.151-.026-.223-.009-.111.027-.189.008-.257.051C65.3,72.216,65.309,72.258,65.362,72.256Zm.514-.043a.154.154,0,0,0,.188-.223c-.065,0-.056.06-.12.078s-.126-.032-.137.043A.18.18,0,0,0,65.876,72.213Zm-.626.085c.02-.049.007-.122-.051-.12a.269.269,0,0,0-.034.1c.02.011.031.032.068.026C65.235,72.3,65.24,72.3,65.25,72.3Zm-3.059,2.82c.063-.006.1-.1.086-.163-.027-.1-.265-.18-.291-.017C62.085,74.96,62.081,75.128,62.191,75.118ZM64.453,72.5c-.085-.135-.148.1-.008.034A.051.051,0,0,1,64.453,72.5Zm-.231-.086a.077.077,0,0,0,.077.026.113.113,0,0,0,.026-.086C64.287,72.321,64.2,72.34,64.222,72.419ZM64,72.3a.086.086,0,0,0,.034-.094C63.942,72.111,63.868,72.3,64,72.3Zm.343,2.443c.013-.03.02-.066.034-.095-.035-.037-.065-.064-.12-.026a.206.206,0,0,0,.026.112C64.309,74.728,64.312,74.747,64.342,74.741Zm11.3,18.938a6.544,6.544,0,0,1-1.851-.034c-1.107-.166-2.167-.525-3.222-.763a12.338,12.338,0,0,0-3.633-.265,15.645,15.645,0,0,0-2.974.5,2.142,2.142,0,0,1-.394.112,2.066,2.066,0,0,1-.386-.112c-.4-.111-.818-.206-1.217-.282a13.9,13.9,0,0,0-3.694-.248c-1.837.16-3.239.77-4.962,1.037a6.093,6.093,0,0,1-3.419-.394c-.017.023.016.055.026.068s.042.05.06.069a4.96,4.96,0,0,0,2.6,1.294,11.37,11.37,0,0,0,3.779.258,28.553,28.553,0,0,0,4.825-1.4,4.018,4.018,0,0,1,1.851-.112,11.177,11.177,0,0,0-4.782,3.179c-.039.046-.1.088-.094.128.239.087.488.163.737.24a8.773,8.773,0,0,1,4.688-3.444,8.86,8.86,0,0,1,4.636,3.436c.242-.084.491-.16.737-.24a4.193,4.193,0,0,0-.463-.531c-.163-.177-.342-.337-.522-.5a11.648,11.648,0,0,0-3.848-2.271,4,4,0,0,1,1.825.137,29.448,29.448,0,0,0,4.808,1.388,11.383,11.383,0,0,0,3.771-.256,4.656,4.656,0,0,0,2.7-1.431c.005,0,.01-.007,0-.009A5.829,5.829,0,0,1,75.646,93.68ZM46.38,84.33c.482.424.972.838,1.457,1.243.163.135.315.281.489.4a3.411,3.411,0,0,1-.394-2.228c.055-.816.16-1.637.205-2.451a10.148,10.148,0,0,0-.669-4.594,15.961,15.961,0,0,0-.694,4.243,9.946,9.946,0,0,0,.2,2.27,7.408,7.408,0,0,0,.685,1.792c-.009,0-.01-.007-.017-.009s-.007-.009-.008-.016c-.657-.987-1-2.167-1.688-3.077-.226-.3-.478-.576-.729-.865a10.361,10.361,0,0,1-2.451-3.908,8.7,8.7,0,0,0,.548,3.05,7.85,7.85,0,0,0,1.242,2.366A16.691,16.691,0,0,0,46.38,84.33Zm29.883,6.29c-.782.195-1.58.355-2.348.583s-1.5.517-2.253.668a5.137,5.137,0,0,0,2.956-2.356,15.626,15.626,0,0,0,.771-1.885c.212-.668.393-1.367.583-2.082-.041-.011-.073.037-.094.06-.728.727-1.406,1.508-2.091,2.271-.24.267-.488.529-.712.806a12.948,12.948,0,0,0-1.139,1.894,3.17,3.17,0,0,1-1.475,1.56c.995.187,1.986.44,3.042.565a6.419,6.419,0,0,0,3.094-.42,7.34,7.34,0,0,0,3.831-3.393c.005,0,.01-.007,0-.008A11.811,11.811,0,0,1,76.263,90.62ZM48.788,89.249c.936.283,1.986.5,2.931.806a5.646,5.646,0,0,1-.548-2.347,8.282,8.282,0,0,0-.574-2.323c-.292-.657-.659-1.275-.994-1.9s-.672-1.271-.96-1.937a23.454,23.454,0,0,0,.205,3.608,7.726,7.726,0,0,0,.137,1.149,8.147,8.147,0,0,0,1.954,3.161c-.624-.5-1.206-1.083-1.8-1.645-.293-.278-.582-.548-.891-.8s-.635-.494-.96-.737a18.515,18.515,0,0,1-1.851-1.543,9.184,9.184,0,0,1-1.448-1.842c-.009-.015,0-.049-.034-.043a8.384,8.384,0,0,0,2.476,5.013,6.162,6.162,0,0,0,1.037.831A5.187,5.187,0,0,0,48.788,89.249Zm4.774,3.437c1.055-.13,2.047-.359,3.034-.575a3.069,3.069,0,0,1-1.483-1.542,12.045,12.045,0,0,0-1.131-1.9c-.226-.275-.48-.531-.72-.8-.688-.763-1.364-1.553-2.082-2.271-.031-.031-.07-.081-.095-.068.193.714.355,1.418.574,2.082A17.313,17.313,0,0,0,52.43,89.5a5.21,5.21,0,0,0,2.957,2.365c-.771-.166-1.495-.447-2.254-.677s-1.561-.384-2.357-.582a12.066,12.066,0,0,1-4.148-1.723c0-.005-.007-.01-.009,0a7.431,7.431,0,0,0,3.848,3.394A6.4,6.4,0,0,0,53.561,92.686Zm30.611-21.63A10.2,10.2,0,0,1,82.81,75a10.087,10.087,0,0,0-.617,2.031c-.15.721-.287,1.462-.5,2.151.141-2.767-1.018-4.4-2.057-6.059-.052-.085-.105-.164-.162-.248-.012-.019-.016-.066-.052-.06a9.923,9.923,0,0,0,.18,2.313,8.509,8.509,0,0,0,.566,1.938c.254.561.548,1.129.763,1.747a4.354,4.354,0,0,1,.265,2.134c.883-1.782,2.349-3.063,2.889-5.2a11.931,11.931,0,0,0,.36-2.331v-.677A6.7,6.7,0,0,0,84.173,71.056ZM79.751,86.3c-.325.245-.651.479-.96.737-.931.775-1.735,1.688-2.682,2.434,0-.009.007-.011.008-.018.2-.211.417-.445.609-.685A5.04,5.04,0,0,0,78.2,85.153a21.315,21.315,0,0,0,.205-3.59c-.557,1.339-1.347,2.518-1.945,3.847a7.988,7.988,0,0,0-.574,2.323,5.924,5.924,0,0,1-.548,2.348c1.419-.516,3.08-.661,4.242-1.38a5.775,5.775,0,0,0,1.045-.831A8.392,8.392,0,0,0,83.1,82.848,11.707,11.707,0,0,1,79.751,86.3ZM81.1,81.939a7.944,7.944,0,0,0-.6,1,16.234,16.234,0,0,1-1.106,2.083,7.4,7.4,0,0,0,.4-.866,7.263,7.263,0,0,0,.291-.943,9.915,9.915,0,0,0,.2-2.262,16.246,16.246,0,0,0-.694-4.233,9.908,9.908,0,0,0-.668,4.585c.058.813.161,1.641.206,2.451a3.464,3.464,0,0,1-.394,2.228c.022.017.04-.017.051-.025.145-.122.279-.25.42-.369a27.985,27.985,0,0,0,3.3-3.025,5.457,5.457,0,0,0,.694-1.114,9.158,9.158,0,0,0,1.089-4.319,9.939,9.939,0,0,1-2.468,3.933C81.564,81.349,81.318,81.636,81.1,81.939Zm-13.6-14.7c-.286-.169-.111.478.094.24C67.6,67.361,67.524,67.326,67.5,67.243Zm-2.931,7.532c-.066-.02-.159-.054-.146.06C64.463,74.884,64.581,74.863,64.565,74.775ZM45.857,80.928c0,.005.007.01.009,0a4.085,4.085,0,0,1,.257-2.133c.222-.616.508-1.187.763-1.748a8.583,8.583,0,0,0,.565-1.945,9.288,9.288,0,0,0,.172-2.306c-1.074,1.761-2.426,3.429-2.271,6.385-.189-.7-.347-1.441-.5-2.16a10.235,10.235,0,0,0-.608-2.048,10.461,10.461,0,0,1-1.38-3.933,8.3,8.3,0,0,0-.205,3.034,9.416,9.416,0,0,0,.651,2.69C43.984,78.295,45.12,79.476,45.857,80.928Zm3.017-8.364a16.032,16.032,0,0,0-.325,3.368,14.1,14.1,0,0,0,.42,3.291,14.377,14.377,0,0,0,.977,2.734A15.147,15.147,0,0,0,53.021,86.3a14.475,14.475,0,0,0,4.4,3.016A14.92,14.92,0,0,0,74.034,86.31a15.233,15.233,0,0,0,3.085-4.336,14.78,14.78,0,0,0,1.4-6.016,14.535,14.535,0,0,0-1.234-6.187,13.571,13.571,0,0,0-1.328-2.382,14.91,14.91,0,0,0-6-5.133,15.123,15.123,0,0,0-5.982-1.431h-.866A15.063,15.063,0,0,0,49.79,69.771,14.011,14.011,0,0,0,48.873,72.564Zm1.475,9.22A14.022,14.022,0,0,1,49,76.455c-.009-.178-.013-.392-.017-.582v-.026h2.5a11.965,11.965,0,0,0,.608,3.6.336.336,0,0,0-.188.025.414.414,0,0,1-.215-.129c-.063-.081-.042-.165-.188-.145-.05.007-.076.05-.128.069s-.131-.006-.18.042c-.007.058.037.066.034.12a.239.239,0,0,1-.111.086c-.022,0-.051-.007-.077,0-.047.012-.107.07-.145.068-.077,0-.077-.09-.129-.137.007-.023.063.006.06-.026-.01-.142-.067-.281-.214-.257-.054.021.007.1-.034.137-.067.013-.057-.052-.1-.06a.178.178,0,0,0-.085.068c.009.066.064.085.12.1s.027-.047.069-.043.132.006.154.051c-.076.049-.158.005-.24.026-.128.031-.154.231-.283.256a.563.563,0,0,1-.163-.05.176.176,0,0,0-.077.128c.053.095.2.007.214-.034a2.469,2.469,0,0,0,.12.694c-.008.035-.017.068-.026.1-.055-.056.014-.189-.077-.214-.044,0-.051.035-.1.026,0-.072,0-.148.043-.179-.034-.041-.063-.125-.129-.112-.118.024-.005.265.043.325-.008.035-.07.016-.068.06a.321.321,0,0,0,.12.231c-.012.092.077.134.1.2s0,.151.051.223a.64.64,0,0,0-.06-.025.112.112,0,0,0,.146.163c.028-.056-.048-.061-.043-.119.114.026.128.152.162.256-.061.018-.058-.1-.154-.077-.032.107.086.164.172.154a.281.281,0,0,0,.154.258c.04,0,.041-.046.077-.052a.941.941,0,0,0,.017-.188c-.005-.048-.042-.087-.051-.13a.738.738,0,0,1,0-.085c-.016-.14-.117-.207-.163-.317.114.057.172-.054.24-.095.019.027.011.081.026.111.117.02.174.215.291.3.079.058.287.133.334.017.023-.056-.025-.12.017-.18.141.051.109.273.266.308.047.046.021.113.069.146.064.046.149-.011.24.018,0-.078-.077-.184-.06-.274.147.091.032.455.223.5.071.016.131-.024.214-.026a.13.13,0,0,1,.034.155,2.015,2.015,0,0,0,.171.29,1.364,1.364,0,0,0,.172.155c.056.051.1.147.163.171a.549.549,0,0,0,.248.009c.069-.02.074-.1.128-.146.072.1.052.254.1.352a1.072,1.072,0,0,0,.163.2,1.823,1.823,0,0,0,.651.317c.195.254.421.476.626.72q-.88.868-1.748,1.748A14.065,14.065,0,0,1,50.348,81.785Zm11.818-8.646a.383.383,0,0,1-.2.171c-.051.014-.063-.023-.1-.008-.063.024-.045.087-.077.154-.063.014-.069-.028-.111-.034-.048.018-.075.057-.128.068s.019-.018.008-.042q-.948-.938-1.885-1.886a5.543,5.543,0,0,1,3.651-1.482v2.433a3.24,3.24,0,0,0-.754.146c-.073-.159-.162-.037-.223.077a2.152,2.152,0,0,0-.12.18c-.013.034-.005.073-.017.1s-.035.038-.043.06S62.171,73.125,62.165,73.139Zm-1.7.326c-.032,0-.016-.042-.043-.044a1.8,1.8,0,0,0-.334.078c0-.032.012-.04-.009-.06-.04-.048-.113-.056-.154-.094-.093-.086-.08-.142-.172-.18-.026-.011-.053,0-.086-.017-.059-.027-.087-.076-.137-.095a1.3,1.3,0,0,0-.3-.06.705.705,0,0,0-.462.1.345.345,0,0,1-.18.111c-.053.005-.122-.024-.18-.009a5.861,5.861,0,0,1,.943-1.346c.559.538,1.131,1.109,1.654,1.654-.152-.013-.183.1-.308.111,0-.036.025-.038.017-.077A.315.315,0,0,0,60.469,73.465Zm-.232,5.047a.486.486,0,0,0,.112-.359c.081-.073.167-.142.24-.223a1.766,1.766,0,0,1,.111-.334.228.228,0,0,0,.111-.121c.075.1.142.2.223.292-.564.6-1.16,1.159-1.731,1.749a5.645,5.645,0,0,1-1.226-2.083A.855.855,0,0,1,58,76.969c.113.055.162.2.3.223.112.021.227-.013.36,0a.9.9,0,0,1,.172.026c.141.059.045.344.283.292.023-.034-.01-.072,0-.12a.912.912,0,0,1,.232.172c.06,0,.111.013.12.069a.209.209,0,0,0-.12-.018c-.105.078,0,.137.051.2s.127.173.189.189c.041,0,.035-.039.086-.026.038.031.019.118.06.146.2.033.136-.128.086-.214.032-.009.024.021.051.016.05-.125-.122-.129-.077-.248.114.006.139.1.18.18,0,.03-.024.046-.034.068,0,.046.046.046.051.086-.01.039-.023.076-.034.112a.445.445,0,0,0,.137.257c0,.047-.023.063-.026.1C60.089,78.521,60.178,78.531,60.237,78.511Zm-.128-.651c.095.075.264,0,.36.052a.178.178,0,0,0-.094.1c-.035-.007-.044.012-.077.008C60.261,77.943,60.133,77.953,60.109,77.86Zm.617-.848c.053-.089.1-.27.223-.231-.013.107-.07.17-.078.283a.037.037,0,0,0-.034.016A.243.243,0,0,0,60.726,77.012Zm-3.677,4.045c-.017-.107,0-.248-.026-.334-.014-.054-.08-.11-.129-.181a.861.861,0,0,1-.215-.531.886.886,0,0,0-.026-.352c.09-.044.2-.069.214-.189.021-.013.067,0,.086-.017.005-.045-.021-.059-.043-.078-.055,0-.061.043-.111.043-.03-.016-.019-.073-.06-.078-.07.013-.024.106-.095.129-.079-.107.129-.195.051-.291-.024-.031-.075-.038-.1-.069a.732.732,0,0,1-.1-.214c.035-.03.074.033.111,0,0-.009,0-.015.008-.016-.019-.107-.171-.081-.172-.206,0-.047.056-.035.06-.077-.024-.087-.02-.2-.086-.248-.094.016-.183.113-.282.068a.151.151,0,0,1,.068-.128c.044,0,.106.008.137-.009.064-.052.011-.126-.008-.188-.055-.086-.145-.14-.205-.222-.026-.035-.031-.089-.06-.12-.055-.06-.189-.117-.205-.223s.062-.167.051-.258-.113-.14-.128-.24a.4.4,0,0,1,.017-.2c.082-.178.485-.01.548-.223a.662.662,0,0,0,0-.188,1.387,1.387,0,0,1,.069-.257.4.4,0,0,0,.205.026,1.3,1.3,0,0,0,.154.017c.1-.021.078-.113.137-.172a1.725,1.725,0,0,1-.086-.188H57.5c-.045.167-.05.353.146.359.008.061-.064.08-.077.137-.02.085.028.185-.051.24-.152.005-.2.152-.377.1-.055-.106-.227-.392-.369-.223-.008.06.056.108.069.172.007.035-.007.078,0,.12,0,.024.024.052.026.077a1.132,1.132,0,0,1-.026.18c-.007.078.016.175-.043.223-.077-.009-.076-.078-.137-.086-.209-.027-.106.3-.009.361.04.006.1-.012.129.009.039.084.136.193.248.1-.022.073.026.195.129.163.032-.067-.056-.072-.06-.129.074-.037.232-.076.231-.162a.093.093,0,0,0-.111-.078c-.058.012-.03.071-.068.112s-.07,0-.094.043A.648.648,0,0,1,57.1,77.2c.047.008.059.05.1.06.068-.029.121-.118.2-.112a.152.152,0,0,1-.12.181c0,.11.169.048.189,0,.03.056.075.012.111-.017a6.183,6.183,0,0,0,1.406,2.511c-.609.622-1.233,1.229-1.842,1.852a1.775,1.775,0,0,0-.42.025.53.53,0,0,1,.043-.171c.062-.1.238-.087.282-.18A.489.489,0,0,0,57.049,81.057Zm-1.542-3.882c.035.049.134.056.145.119.023.125-.186.216-.3.2-.066-.011-.1-.074-.154-.1s-.115-.023-.163-.06a8.017,8.017,0,0,1-.146-1.482h1.046a1.491,1.491,0,0,1-.086.2,1.365,1.365,0,0,1-.051.205c-.033.062-.145.09-.172.154a.988.988,0,0,0-.017.154,1.844,1.844,0,0,1-.068.248c-.016.044-.061.077-.068.111A.424.424,0,0,0,55.507,77.175Zm-.163,6.29c-.055.068-.125.121-.18.189a.631.631,0,0,1-.18-.189A.283.283,0,0,1,55.344,83.465Zm2.383-9.795c-.024.11-.122.072-.2.094a1.536,1.536,0,0,0-.215.111.7.7,0,0,1-.223.1c-.067,0-.137-.039-.205-.026-.144.029-.175.227-.24.351-.043.084-.123.105-.163.18-.007.153-.132.227-.171.334a1.011,1.011,0,0,0-.043.248c0,.056.041.116.034.181a.33.33,0,0,1-.171.205,1.54,1.54,0,0,1-.318,0h-.925A8.354,8.354,0,0,1,57.3,69.788c.523.511,1.1,1.105,1.645,1.645.036.036.111.094.111.1,0,.025-.149.164-.172.188a5.935,5.935,0,0,0-.874,1.285,1.92,1.92,0,0,1-.111.248,1,1,0,0,1-.111.086c-.043.038-.074.085-.094.094-.05.022-.109.016-.154.034-.083.034-.178.09-.18.154C57.352,73.808,57.62,73.7,57.727,73.67Zm-.172,1.773c-.271.021-.58,0-.866.009a.206.206,0,0,1,0-.214.718.718,0,0,1,.669-.137C57.477,75.16,57.5,75.31,57.555,75.443Zm-.129,1.543a.309.309,0,0,0-.034.128.211.211,0,0,0-.266.018c-.035-.1.028-.172.017-.274C57.232,76.908,57.286,77.012,57.426,76.986Zm1.217.162a.1.1,0,0,1,.129-.085A.117.117,0,0,1,58.643,77.148Zm1.123.232c.068,0,.125.043.094.111A.128.128,0,0,1,59.766,77.381Zm.12.18c.089.055.207.123.2.248C60.016,77.733,59.886,77.674,59.885,77.561Zm-.531-6.316c-.588-.587-1.183-1.165-1.757-1.766a8.7,8.7,0,0,1,5.707-2.34c.007,0,.009.009.017.009v2.485A6.092,6.092,0,0,0,59.354,71.245ZM57.289,69.17q-.9-.871-1.773-1.773a11.561,11.561,0,0,1,7.807-3.2v2.5A9.047,9.047,0,0,0,57.289,69.17Zm-.308.309a8.84,8.84,0,0,0-2.537,5.973H51.933a11.19,11.19,0,0,1,1.02-4.473,11.34,11.34,0,0,1,2.262-3.273C55.806,68.295,56.4,68.876,56.981,69.479Zm-5.039,6.368h2.5a8.445,8.445,0,0,0,.12,1.336.606.606,0,0,0-.275-.026c-.134.039-.15.233-.231.352-.04.059-.133.083-.188.154-.017.021-.033.063-.052.094s-.046.058-.06.085c-.027.054-.021.126-.052.189-.043.09-.156.171-.18.292-.013.064.021.125.017.2-.006.1-.079.19-.077.265s.064.128.069.2c.007.121-.1.219-.069.325-.067.088-.165.066-.317.095-.059.011-.115.051-.172.06a1.482,1.482,0,0,1-.411-.008,11.179,11.179,0,0,1-.634-3.582C51.932,75.86,51.932,75.849,51.942,75.847ZM63.323,90.192a14.422,14.422,0,0,1-9.941-4.173c.591-.578,1.166-1.171,1.757-1.748A11.96,11.96,0,0,0,63.323,87.7Zm0-2.939a11.481,11.481,0,0,1-7.868-3.291,1.325,1.325,0,0,1,.24-.24c.067.054.141.113.223.18a.916.916,0,0,0,.223.171,1.19,1.19,0,0,0,.154.009.48.48,0,0,0,.258-.009c.043-.012.1-.006.137-.017s.094-.052.145-.069.119-.024.172-.043c.11-.038.2-.123.282-.137.052-.008.133.02.206.018.057,0,.107-.032.145-.034.058,0,.112.031.163.034a.555.555,0,0,0,.36-.137.264.264,0,0,0,.128-.162c.012-.065-.035-.135-.017-.189-.124-.188-.266-.357-.385-.548a8.952,8.952,0,0,0,5.433,1.97Zm0-2.93a8.544,8.544,0,0,1-3.351-.771,8.181,8.181,0,0,1-2.442-1.68c.587-.575,1.16-1.165,1.747-1.739a6.258,6.258,0,0,0,2.931,1.551,1.532,1.532,0,0,1-.257.146c-.09.139-.252.205-.368.317-.018.077-.064.125-.051.231a1.178,1.178,0,0,0-.095.275c-.063.039-.169.037-.205.1a.636.636,0,0,0,.1.308,1.531,1.531,0,0,0,.342.463c.045.209.248.33.42.454.06.043.11.106.154.12a2.733,2.733,0,0,0,.42.017c.035,0,.069.03.1.034a4.086,4.086,0,0,1,.549.076Zm.154-3.111c-.1.005-.115.073-.206.085-.118.016-.258-.065-.368-.043-.047.009-.075.06-.12.077a5.7,5.7,0,0,1-3.188-1.508c.561-.594,1.155-1.153,1.723-1.739a3.267,3.267,0,0,0,2.717.822.615.615,0,0,1-.077.121c.019.089.055.121.026.2-.019.048-.088.06-.094.1s.031.054.034.1a.314.314,0,0,0-.162-.008.3.3,0,0,0-.112-.163.149.149,0,0,0-.06-.18c-.085.01-.163.026-.248.034a.836.836,0,0,0,.06.189c-.055.038-.093.014-.146-.009-.055,0-.017.086-.069.086.062-.279-.362-.2-.223,0-.179.034-.065.3.094.24.07-.028.075-.134.111-.2.052.036.116.061.12.146-.1.02-.215.155-.077.214a.4.4,0,0,1,.172-.034,1.105,1.105,0,0,1,.154-.146.171.171,0,0,0,.2-.068c.033.025.006.076,0,.111-.106.046-.237.066-.283.172-.148-.047-.3-.007-.257.146a.12.12,0,0,0,.137.077.169.169,0,0,1-.026.257,2.384,2.384,0,0,0-.36-.008c-.162.044-.131.248-.189.4.078.15-.061.286.051.369.033.024.08,0,.12.034s.031.087.069.111c.127,0,.176-.076.291-.085.017-.017.013-.055.026-.078a.46.46,0,0,1,.266-.026c.031-.015.025-.066.026-.111.075-.034.1-.114.137-.189.052-.031.123-.043.154-.094,0-.04-.043-.066-.017-.112.06-.041.1,0,.154-.016.125-.033.191-.192.309-.18.095.009.088.14.171.18a.632.632,0,0,1,.36.111c.064.054.09.147.18.171.062-.031.032-.166.008-.214,0-.046.067-.024.077-.06-.024-.068-.115-.068-.137-.137a.2.2,0,0,1-.051.018c-.088-.072-.247-.073-.274-.206a.582.582,0,0,1,.505.163c-.039.094.044.158.077.231a.455.455,0,0,1,.334.1c.051.024.1-.016.146-.026a.2.2,0,0,0-.129-.249c-.02-.035.039-.055.043-.094.132,0,.173.1.231.172.082,0,.117.054.18.052s.115-.1.205-.095c.033-.061.048-.116.078-.163.049-.038.1-.027.163-.051s.081-.078.145-.068c.118.016.083.176.078.308a.252.252,0,0,1-.068.206,1.316,1.316,0,0,1-.146.077c-.04.027-.061.066-.094.086a.618.618,0,0,1-.18.043,1.3,1.3,0,0,1-.274.078l-.051-.1a4.487,4.487,0,0,1-1.182.394c-.065-.154-.059-.353-.317-.309-.055.01-.11.051-.172.06-.11.018-.23-.023-.351-.008A.532.532,0,0,0,63.477,81.211Zm1.054-2.623a.845.845,0,0,1,.017-.471c.223.021.02.319.111.463.039.061.14.029.2.085-.012.082-.174.048-.188.137-.011.066.094.11.077.189-.009.042-.095.071-.129.111s-.037.1-.094.111c-.075.012-.166-.062-.249-.068.017-.114-.1-.142-.1-.266-.016-.025-.06-.02-.086-.035-.009-.071,0-.136.094-.129.1.124.113.423.352.352.047-.046.028-.14.043-.223.01-.056.047-.094.043-.137C64.61,78.649,64.556,78.631,64.531,78.589Zm1.217,1.346c.066-.1.169-.21.06-.334.042-.039.036-.124.111-.129.038.025,0,.051.008.078.056.142.26-.033.3-.094.142-.017.333-.09.446.008.016.019.006.063.009.094-.088.116-.241.093-.377.137a1.523,1.523,0,0,0-.223.12.612.612,0,0,0-.24.205c-.007.042.025.044.017.086a.268.268,0,0,1-.188.111C65.681,80.115,65.822,80.065,65.748,79.935Zm.334-.574a.089.089,0,0,1,.077-.094C66.366,79.222,66.111,79.546,66.082,79.36ZM67.2,78.7c.026,0,.046.013.077.016.049,0,.1-.013.145-.008a.46.46,0,0,1,.291.188c-.051.06-.075.2-.162.206-.068,0-.1-.081-.129-.154-.1-.1-.35,0-.471-.086-.019-.084-.133-.131-.1-.249.019-.073.178-.185.206-.034,0,.06-.069.052-.069.111C67.033,78.771,67.122,78.7,67.2,78.7Zm.454-6.616c-.028-.041-.077-.06-.111-.095.032-.045.079-.075.111-.119.062.055.109.126.172.18-.066.009-.1.117-.137.179.014.1.1.134.223.129a.845.845,0,0,0,.051-.129,1.172,1.172,0,0,1,.154.206c-.031.012-.071.014-.1.025-.068.064,0,.15.069.171a.3.3,0,0,1,.12-.017c.023-.01,0-.044,0-.06.079.093.135.208.205.308a.069.069,0,0,1-.094.026c-.071.046-.145.089-.146.206-.078-.024-.193-.091-.257-.009a.763.763,0,0,0,.154.412c-.1.046-.195-.043-.24-.1-.034-.02-.091-.017-.1-.06.091.016.1-.046.145-.078-.046-.085-.137-.125-.162-.231.025-.058.1-.066.128-.119-.046-.13.123-.158.129-.248s-.092-.169-.18-.215c-.276-.033-.3.188-.437.292-.1-.01-.157.025-.257.017-.07-.219.129-.3.223-.411.114-.017.206,0,.317-.017C67.666,72.243,67.609,72.149,67.65,72.085Zm3.531-2.52c.013-.066-.083-.062-.068-.1.1,0,.2.02.317.026.06.053.028.138.06.223a.634.634,0,0,0,.1.137.735.735,0,0,0,.1.128c.107.079.256.078.368.154.026.018.034.054.06.077s.087.036.128.069.067.091.1.1c.062.021.138-.021.18-.017.073.008.191.134.248.2.024.026.038.065.06.085s.089.054.111.078c.078.081.14.205.223.308a1.8,1.8,0,0,0,.129.137c.05.051.113.1.128.137s0,.085.017.12c.039.079.2.058.283.034.06-.018.091-.068.145-.086.024-.008.052,0,.077-.008.107-.035.158-.152.231-.172a11.481,11.481,0,0,1,.925,4.243c-.823.02-1.683,0-2.519.008,0-.229-.018-.438-.043-.685a3.469,3.469,0,0,1-.06-.455c.015-.132.131-.223.172-.334a3.647,3.647,0,0,1,.051-.437c-.022-.041-.03-.1-.068-.12-.341.088-.432.471-.506.8-.041-.007-.055.013-.095.008.047-.126.151-.235.137-.394.069-.049.037-.146.086-.214a.3.3,0,0,1,.017-.145c.067-.039.193-.056.189-.137s-.143-.1-.214-.078a.454.454,0,0,1-.026-.077.08.08,0,0,0,.095-.017c.042-.137-.048-.266-.172-.214-.041-.1.038-.185.026-.282-.005-.041-.043-.076-.051-.12s.005-.066,0-.095c-.01-.046-.051-.078-.069-.128-.034-.093-.037-.208-.068-.291-.038-.1-.133-.164-.18-.231-.049.007-.073-.012-.12-.009-.044-.091-.094-.173-.137-.265.029-.043.022-.081.06-.12s.127-.031.129-.12c0-.169-.234-.072-.309-.034,0-.079.113-.132.086-.266a.14.14,0,0,0-.086-.094c-.074-.016-.129.067-.188.06s-.128-.148-.154-.189c-.05-.073-.085-.137-.129-.205a.237.237,0,0,0,.009-.163c-.026-.046-.1-.044-.146-.068-.1-.152-.154-.348-.36-.394a1.315,1.315,0,0,0-.1-.129c.034-.212-.128-.292-.2-.428.138-.171.309-.307.454-.471.04.037.015.139.035.2.106.029.1.171.18.231s.206.019.223.137c-.017.033-.094.007-.111.017C70.977,69.554,71.111,69.638,71.181,69.565Zm.471-2.4c0-.128.154-.154.257-.154A.278.278,0,0,1,71.652,67.165Zm.154,15.94c-.014-.063-.053-.126-.06-.18a1.279,1.279,0,0,0,0-.2c-.016-.056-.1-.086-.12-.145-.016-.044.006-.107-.009-.137-.025-.053-.137-.075-.2-.095a.364.364,0,0,0-.24-.034c-.072.031-.025.181-.094.214a.711.711,0,0,1-.017.258c-.037.008-.073-.055-.111-.095-.259-.258-.551-.546-.814-.806A9,9,0,0,0,72.6,75.863c0-.012,0-.024.008-.026h2.5a11.467,11.467,0,0,1-.994,4.525,11.677,11.677,0,0,1-2.143,3.205c-.022.024-.039.081-.086.068-.053-.063-.016-.112-.017-.179A1.56,1.56,0,0,0,71.806,83.106Zm-1.963,1.481c.018-.085.09-.137.146-.2s.079-.144.129-.215c.065-.093.2-.187.248-.308.036-.089,0-.152-.06-.231-.076-.1-.132-.154-.214-.248-.039-.045-.078-.105-.112-.12s-.083,0-.12-.017a.737.737,0,0,1-.119-.077.4.4,0,0,1-.137-.48c.015-.039.063-.063.086-.111.057-.125.013-.326.154-.386q.526.494,1.02,1.02c-.026.026-.03.073-.051.1a.563.563,0,0,0,.171.325c-.008.275.239.352.471.335.058-.02.092-.113.137-.052s-.127.164-.163.2a10.46,10.46,0,0,1-1.543,1.216c-.032-.112.085-.146.12-.223C70.106,84.9,69.95,84.729,69.844,84.587Zm1-9.632c.036-.141.285-.085.412-.171a.755.755,0,0,0,.42-.069c.015-.131.1-.194.146-.292a.347.347,0,0,0,.2-.171c.1.142-.05.277-.085.394a.887.887,0,0,0,.008.258c0,.067-.04.165.043.188.063.018.08-.034.146-.025.018.116.016.252.025.377-.286-.029-.632.04-.9,0-.031,0-.04,0-.06-.025-.031,0-.021.031-.051.025s-.012-.05-.051-.042c-.1.078-.325.029-.489.042.046-.084.3-.085.317-.214C70.932,75.149,70.817,75.073,70.846,74.955Zm-.591-4.362a.217.217,0,0,0,.077.111c.052.012.039-.041.085-.034a1.325,1.325,0,0,1,.326.368,1.758,1.758,0,0,1,.129.223c.069.132.2.247.223.411-.047.061-.133.02-.189.052-.073.041-.038.125-.06.223-.031.053-.074.055-.085.111-.027.129.216.224.352.215a.529.529,0,0,0,.128.069c.05.135.216.147.309.257a2.941,2.941,0,0,1,.274.746c.009.024.035.059.035.077,0,.049-.061.09-.069.137-.017.1.04.152.051.24-.042.056-.1.071-.137.137-.015.028-.01.065-.026.094-.043.076-.142.133-.137.24-.07.071-.137.144-.206.214-.085-.015-.2,0-.275-.008-.031-.061.021-.1.026-.146,0-.027-.014-.056-.009-.086.019-.114.146-.179.154-.265,0-.036-.037-.081-.034-.111.006-.061.074-.063.077-.12,0-.087-.079-.081-.137-.129s-.047-.092-.095-.129a.647.647,0,0,0-.162-.068.375.375,0,0,0-.3,0,1.1,1.1,0,0,0-.283.274c-.054.084-.053.178-.162.163-.063-.009-.085-.086-.129-.128-.059-.057-.143-.081-.146-.146.015-.042.054-.1.095-.086.024.063,0,.154.06.2.129.035.286-.016.24-.128a.325.325,0,0,0-.291-.146c-.054-.008-.04-.085-.086-.1-.023-.022-.045.005-.077,0a.264.264,0,0,1-.085-.223.84.84,0,0,0-.352-.3c-.086-.029-.191-.023-.283-.051s-.172-.089-.266-.043a5.131,5.131,0,0,0-.352-.54.138.138,0,0,0,.12-.068c-.014-.1-.184-.045-.214-.129-.015,0-.019.015-.017.034-.133-.141-.248-.3-.386-.437.581-.594,1.176-1.172,1.757-1.766a3.087,3.087,0,0,1,.325.369C70.13,70.272,70.377,70.454,70.255,70.593ZM67.05,80.9c0-.08-.1-.066-.094-.155.021-.015.048-.025.06-.05a.488.488,0,0,0,.137.213,4.326,4.326,0,0,1,.548.137c.038.016.066.052.1.06a2.033,2.033,0,0,0,.205,0,1.452,1.452,0,0,1,.36.1,1.256,1.256,0,0,0,.334.12,1.972,1.972,0,0,0,.352-.06.216.216,0,0,0,.026-.2c.054-.081.131-.137.18-.223-.031-.114.056-.187.094-.283s.015-.272.051-.411c.024-.091.125-.161.137-.231.008-.05-.034-.111-.035-.164,0-.031.023-.058.026-.085a.854.854,0,0,0,0-.189c-.02-.089-.161-.139-.137-.248-.078-.14-.221-.068-.36-.026a1.3,1.3,0,0,0-.18.052c-.02.019-.014.041-.034.085s-.06.081-.068.112,0,.065-.008.094a.268.268,0,0,1-.129.137c-.06.012-.114-.027-.154-.017s-.065.048-.111.095c-.156.01-.293,0-.343-.095.046-.028.077-.071.12-.1.195.007.435,0,.514-.137.024-.084.059-.218.146-.257.065-.03.149-.012.205-.034.22-.09.211-.352.386-.515.006-.038-.011-.051-.009-.086a.691.691,0,0,0,.24-.42c.012-.056-.012-.137.051-.171.056.061,0,.231.06.291.113.048.28.023.325-.068.019-.056.017-.132.052-.172.09-.039.156.05.231.069a.608.608,0,0,0,.446-.137c.262-.026.434-.143.711-.154.014-.023.036-.038.052-.06a1.234,1.234,0,0,0-.112-.265c-.034-.057-.116-.1-.18-.164-.023-.021-.031-.059-.052-.077s-.063-.017-.094-.043-.054-.073-.086-.086-.1,0-.137-.016c-.1-.044-.07-.2-.129-.326-.034-.073-.121-.114-.146-.18s-.008-.11-.026-.154a.644.644,0,0,0-.086-.146c-.047-.063-.134-.1-.163-.2.011-.077.025-.152.034-.231h1.791a8.345,8.345,0,0,1-.7,3.257A8.006,8.006,0,0,1,69.9,81.477a1.749,1.749,0,0,0-.248-.831c-.176-.056-.247.16-.309.258a2.573,2.573,0,0,0-.18.274c0,.064.005.176-.051.214-.038.025-.129.007-.18.008-.158.008-.316.091-.455.095a1.6,1.6,0,0,1-.419-.129c-.078-.018-.158-.013-.232-.034-.128-.036-.239-.1-.369-.145-.054-.018-.118-.015-.171-.034s-.065-.053-.1-.068c-.063-.028-.143-.02-.188-.069-.1,0-.225.013-.274-.043C66.754,80.809,66.961,80.9,67.05,80.9ZM64.7,84.176c.009.019.03.027.026.06a7.739,7.739,0,0,1-.96.086v-.2a.777.777,0,0,1,.394-.017c.064.011.128.055.188.06.087.008.143-.058.231-.043,0,.046-.046.046-.051.086C64.573,84.271,64.683,84.22,64.7,84.176Zm-.017.514a1.615,1.615,0,0,1,.283-.043c.079.008.166.124.24.18s.169.1.24.164c.01.133.114.172.172.257-.021.1.093.163.1.24.017.131-.124.251-.112.411a.951.951,0,0,0,.1.257c.027.041.083.048.111.086s.014.08.034.111c.113.172.425.107.48.326a.4.4,0,0,1,.18.18,11.162,11.162,0,0,1-2.751.394V84.759A7.44,7.44,0,0,0,64.685,84.69ZM69.518,88.9a14.245,14.245,0,0,1-5.75,1.294V87.7a12.334,12.334,0,0,0,3.119-.48,1.037,1.037,0,0,1,.223.172c.041.006.055-.014.094-.009a.554.554,0,0,0,.446.12c.07-.066.159-.073.232-.129.027-.021.044-.063.077-.085a2.224,2.224,0,0,1,.369-.129c.071-.031.108-.117.18-.163a1.417,1.417,0,0,1,.257-.111c.242-.338.754-.406.994-.745a1.154,1.154,0,0,1,.043-.206,14.062,14.062,0,0,0,2.126-1.672c.594.581,1.172,1.177,1.766,1.758A14.164,14.164,0,0,1,69.518,88.9Zm7.3-7.335A14.719,14.719,0,0,1,74,85.727q-.9-.871-1.774-1.774a11.827,11.827,0,0,0,3.325-8.09c0-.012,0-.024.009-.026h2.511A14.186,14.186,0,0,1,76.82,81.563Zm-.034-11.818a14.161,14.161,0,0,1,1.285,5.7H75.551a11.537,11.537,0,0,0-.917-4.319,1.268,1.268,0,0,1-.1-.24c0-.044.077-.109.086-.163.027-.162-.058-.245-.111-.352-.039-.079-.062-.165-.1-.231a1.823,1.823,0,0,0-.18-.2,1.046,1.046,0,0,1-.172-.2c-.018-.037-.009-.083-.026-.12a.758.758,0,0,0-.077-.095c-.026-.037-.039-.082-.06-.111-.046-.064-.119-.112-.162-.172s-.036-.127-.077-.171-.125-.048-.18-.094-.072-.122-.128-.181-.148-.089-.189-.145-.058-.132-.094-.188a1.5,1.5,0,0,0-.351-.326,2.293,2.293,0,0,1-.223-.171,2.13,2.13,0,0,1-.128-.189c-.048-.066-.126-.118-.146-.172a.817.817,0,0,1-.034-.24c.009-.052.133-.159.205-.231.222-.221.435-.426.651-.642.315-.314.612-.632.892-.882A14.353,14.353,0,0,1,76.785,69.745ZM63.768,61.261a14.573,14.573,0,0,1,5.7,1.26,14.117,14.117,0,0,1,4.148,2.8c-.529.51-1.032,1.047-1.569,1.551-.053-.046-.064-.1-.128-.129-.045-.019-.1,0-.146-.025-.134-.069-.12-.305-.188-.471-.158-.094-.234-.257-.36-.394-.031-.034-.052-.079-.077-.1-.1-.1-.238-.1-.368-.154s-.2-.31-.343-.334c-.058-.01-.109.026-.162.026-.18,0-.335-.186-.531-.163-.06.007-.1.046-.146.06a.945.945,0,0,0-.257.06,12.131,12.131,0,0,0-4.182-1.38c-.095-.135-.419-.206-.274-.446-.054-.074-.148-.109-.162-.223.041.063.1.055.205.085.075.022.131.081.18.086.107.011.2-.067.3-.1.052-.018.126-.02.188-.034a1.472,1.472,0,0,1,.172-.051c.1-.007.194.032.282.017s.2-.048.2-.12a.637.637,0,0,0,.3-.017c-.016-.1-.139-.164-.223-.223-.216-.052-.393-.175-.643-.094a1.226,1.226,0,0,0-.171.1c-.2.1-.441.028-.532.214a.169.169,0,0,0-.248.1c-.016-.075-.088-.114-.205-.111a1.269,1.269,0,0,0-.223.077c-.1.031-.2.019-.231.112-.147-.009-.188.086-.3.112Zm0,2.288c.189.034.32-.047.454.026.077.041.114.148.188.154.054.005.112-.047.163-.034s.075.06.094.12a7.572,7.572,0,0,0-.9-.051Zm0,2.005c.038.046.043-.028.094-.051.082-.037.24-.008.2-.154-.018-.062-.107-.069-.2-.077-.039-.033-.061-.052-.094-.034V64.2a11.206,11.206,0,0,1,5.047,1.285c-.084.027-.161.061-.24.095.014.069-.056.11-.069.179H68.43a.142.142,0,0,0,.026.214c.044,0,.051-.04.06-.077.027.079.1.081.163.137.038.031.059.085.094.111s.087.032.12.068a.866.866,0,0,1,.06.138c.015.026.041.046.051.068.067.152.027.339.1.462s.214.086.24.189a.518.518,0,0,1-.008.24c-.01.035-.039.063-.043.1a.4.4,0,0,0,.052.2c.022.037.073.049.094.095.068.144-.022.4.146.428a.421.421,0,0,0,.231-.06c.087-.049.182-.192.352-.163.079.014.236.175.291.24a.461.461,0,0,1,.1.2,3.034,3.034,0,0,1-.326.352c-.115.115-.232.235-.342.325a.211.211,0,0,1-.026-.162c.091-.019.167.009.18-.069a.134.134,0,0,0-.1-.128c-.072,0-.062.08-.086.146a2.3,2.3,0,0,0-.137-.258.4.4,0,0,0-.215-.394.79.79,0,0,0-.162-.111c-.052-.006-.1.056-.154.051s-.2-.218-.231-.265c-.012-.022-.008-.064-.026-.078-.077-.071-.171-.188-.257-.283-.026-.028-.076-.05-.111-.086s-.048-.085-.086-.094a.156.156,0,0,0-.145.06c.066.24.269.342.325.591-.061.011-.093-.046-.172-.008-.039-.029-.037-.1-.051-.154-.046-.054-.117-.083-.162-.137,0-.034.029-.04.026-.078a.313.313,0,0,0-.12-.137c-.056.039-.165.07-.154.137s.11.043.163.086c-.089.06-.382-.135-.352.128-.091-.014-.082-.128-.145-.172-.04-.019-.063.044-.1.052a8.917,8.917,0,0,0-3.822-.96Zm4.979,2.785c-.213-.126-.45-.3-.694-.428.087-.01.186.042.3.034.061.033.053.135.154.129.022-.01,0-.066.017-.078a.222.222,0,0,1,.086.163A.546.546,0,0,1,68.747,68.339Zm-4.979-1.166c0-.012,0-.024.008-.026a8.586,8.586,0,0,1,5.673,2.331c-.595.6-1.182,1.2-1.791,1.783a5.994,5.994,0,0,0-3.89-1.62Zm0,2.906A5.66,5.66,0,0,1,67.35,71.57c-.06.074-.129.185-.249.172-.036-.064.048-.06.035-.129-.207,0-.327.164-.446.283-.163.031-.247.225-.026.223.023.013.042.077.077.051.033.017-.052.055-.06.086-.017-.034-.063-.128-.12-.137s-.073.054-.129.034-.01-.1-.051-.12c-.1.022-.161-.04-.24,0-.07.122.054.261.034.385.078.1.163-.005.231-.026.086-.025.158,0,.2-.068,0-.018.033-.019.008-.009-.123.107-.228.261-.369.377-.067.056-.149.092-.214.145-.042.035-.064.087-.1.12-.064.055-.166.073-.154.205-.093.085-.2.243-.385.18-.04-.023-.044-.089-.077-.121s-.085-.031-.129-.06-.05-.07-.086-.094a.543.543,0,0,0-.214-.077c-.082,0-.219.148-.3.163a.42.42,0,0,1-.18-.034c-.015-.06.046-.061.077-.086a1.148,1.148,0,0,1,.171-.145c.142-.074.349-.082.42-.214a.925.925,0,0,0,.06-.318.137.137,0,0,0-.154-.111c-.062.009-.1.095-.163.129-.031.018-.07.016-.1.034a.747.747,0,0,0-.291.3c-.013.033.006.116-.051.128-.034-.043.027-.137.034-.2a2.146,2.146,0,0,0-.634-.12Zm-.24,3.248c.043.019.152-.03.188.008,0,.042-.034.04-.043.068a.521.521,0,0,1-.257-.068.516.516,0,0,0-.283.085c-.016.267.172.331.325.428.021.116.078.181.188.163.028,0,.051-.032.078-.034.084-.008.16.066.257.068.059,0,.086-.024.146-.008.028.137.126.173.223.258s.13.238.257.308a1.068,1.068,0,0,0,.248-.017c-.054.14-.124.433.068.5-.005.044-.009.088-.017.13-.035.044-.114.046-.154.085a.255.255,0,0,1-.112.248.273.273,0,0,0,.1.146c.032,0,.04-.017.06-.026.152.041.152.426.3.446.11.013.066-.1.154-.12.019.049-.047.067-.034.137-.041.043-.12.046-.129.12.05.069.168.031.257.009a1.1,1.1,0,0,0,.189-.06c.055-.026.1-.1.162-.069.023.077-.074.079-.077.129s.056.058.112.094c-.086.047-.245-.025-.377-.018-.035,0-.066.017-.094.018-.07,0-.191-.038-.214.043-.046.154.2.228.24.309a.87.87,0,0,0-.086.394c-.128.049-.089.265-.2.334-.109-.033-.251.023-.369.009-.082-.011-.145-.08-.257-.043-.134.043-.139.165-.223.283a.8.8,0,0,0-.12.18c-.028.081-.019.2-.043.274a1.7,1.7,0,0,1-.214.352,2.777,2.777,0,0,1-1.954-.565c.027-.044.09-.049.146-.078.037-.019.069-.063.111-.068.071-.009.161.048.266.017.043-.012.083-.063.128-.068s.1.027.154.026a.309.309,0,0,0,.274-.128c.1.007.149-.152.026-.155.03-.043.12-.028.154-.068,0-.06.057-.1.052-.154s-.048-.04-.06-.094c.08-.028.113-.1.171-.154-.015-.149.184-.234.12-.4-.03-.019-.1,0-.112-.034-.006-.091.119-.059.112-.137-.015-.15-.32-.227-.489-.248-.053.046-.118.01-.188.008s-.184.052-.283.051c-.14,0-.275-.025-.283.146,0,.034.023.071.026.112a.858.858,0,0,1-.043.18c-.029.128.042.27-.069.3-.056-.047,0-.1.008-.154a1.929,1.929,0,0,0-.291.111c-.019.216-.19.279-.266.437,0,.043-.019-.019-.043-.008-.044.026-.061.076-.111.095a3.489,3.489,0,0,1-.248-.378A.152.152,0,0,1,61.231,77c.048-.045.087-.141.18-.111.009.055-.031.06-.026.111.057.047.179.071.231.016s.051-.249.094-.351c.064-.15.183-.191.189-.3.037-.051.092-.085.12-.146-.034-.057-.138-.045-.172-.1.045-.125-.025-.334.052-.411-.028-.058-.087-.085-.129-.129-.047,0-.041.051-.1.034-.041.039-.079.149-.025.205.075.026.154-.046.18.034-.041.077-.171.063-.24.112-.03.084-.07.2-.009.282a.4.4,0,0,1-.266.232c0-.01,0-.016-.009-.018-.015-.063.056-.041.077-.068-.07-.063-.14-.166-.291-.12-.04.058-.07.106-.145.1-.027,0-.049-.024-.078-.026-.161-.009-.364.1-.548.086,0-.027.027-.026.017-.06a.122.122,0,0,0-.2.1c-.058,0-.181,0-.223-.043.032-.134.225-.107.3-.2-.063-.27.128-.415.223-.583a.369.369,0,0,1,.214-.008c.1.035.117.149.214.129.046-.009.044-.049.078-.086-.005-.045-.058-.064-.035-.111a.218.218,0,0,1,.163.248c-.028,0-.043.015-.077.008-.04.1-.115.17-.129.3a.245.245,0,0,0,.2.017c.095-.089-.032-.227.009-.308.114.037.066.236.137.317a.753.753,0,0,0,.274.026c.043-.073-.011-.161,0-.231.006-.036.039-.047.052-.077.066-.158-.026-.338.06-.5.043-.006.053.021.077.034.178-.054.4-.06.42-.274-.089-.036-.2-.12-.317-.078-.064.025-.067.092-.129.12-.071-.156.179-.3.248-.42.274.075.118-.281.309-.36a1.285,1.285,0,0,1,.205-.026,1.006,1.006,0,0,0,.206-.095c.08-.04.169-.042.223-.077a1.512,1.512,0,0,0,.154-.163c.087-.087.2-.175.077-.282.024-.14-.031-.214-.026-.377.047-.047.149-.041.2-.086-.038-.154-.267-.032-.266.06-.094-.023-.033-.182.009-.223-.034-.04-.089-.06-.112-.112a3.288,3.288,0,0,1,.677-.077A.488.488,0,0,0,63.528,73.327Zm-1.054,4.284a.052.052,0,0,1,.06,0c-.009.012-.009.031-.017.043C62.486,77.656,62.472,77.642,62.474,77.612Zm-.84-16.222c.254-.035.513-.067.78-.086s.541-.009.823-.034c.041,0,.073-.038.086.034a3.384,3.384,0,0,1,0,.557v1.9a11.922,11.922,0,0,0-8.116,3.325c-.31-.282-.6-.587-.892-.882s-.6-.575-.874-.892A14.582,14.582,0,0,1,61.634,61.39Zm-9.35,5.167a10.779,10.779,0,0,1,.858-.925c.59.578,1.166,1.17,1.757,1.748a11.822,11.822,0,0,0-3.411,8.072h-2.5a14.108,14.108,0,0,1,2.554-7.9C51.771,67.215,52.02,66.876,52.284,66.557Zm12.1,9.23c.032,0,.04-.017.06-.026a.194.194,0,0,0-.017-.094C64.345,75.651,64.331,75.76,64.385,75.787Zm-.42,1.311c.112-.147-.082-.215-.052-.352a.364.364,0,0,0,.12-.008c.021-.119-.212-.143-.188.017C63.631,76.779,63.793,77.18,63.965,77.1Zm-18.871-.591a4.219,4.219,0,0,1,.857-2.134c.4-.6.869-1.13,1.277-1.714a18.684,18.684,0,0,0,1.063-1.928c.348-.652.654-1.335.968-2.022-.034-.026-.055.03-.068.043s-.055.046-.077.068c-.922.922-1.94,1.768-2.819,2.717a5.973,5.973,0,0,0-1.054,2.442,4.576,4.576,0,0,1,.231-1.465,6.755,6.755,0,0,0,.18-1.337,9.86,9.86,0,0,0-.1-1.414,7.265,7.265,0,0,1,.325-3.728c0-.006,0-.011-.008-.008a5.363,5.363,0,0,0-.728.976,8.336,8.336,0,0,0-1.088,3.908,9.937,9.937,0,0,0,.4,2.9C44.678,74.717,44.9,75.592,45.094,76.507Zm1.02-5.314a6.715,6.715,0,0,1,1.328-1.551c.26-.224.537-.427.806-.642a11.121,11.121,0,0,0,2.117-2.237A7.9,7.9,0,0,0,51.4,64.894c-.025-.012-.048.023-.06.034-.158.152-.306.31-.463.455A12.929,12.929,0,0,1,49.053,66.7a7.291,7.291,0,0,0-2.048,2.134,7.217,7.217,0,0,1,.42-1.44,14.5,14.5,0,0,0,.317-1.543,7.481,7.481,0,0,1,1.029-2.7s.009-.007,0-.009A6.289,6.289,0,0,0,46.422,66.3a5.467,5.467,0,0,0-.394,2.322A12.491,12.491,0,0,1,46.114,71.193Zm1.757-4.121c.03.006.051-.027.068-.043.6-.555,1.331-.979,1.937-1.509a4.884,4.884,0,0,0,.574-.626c.716-.884,1.319-1.867,2.065-2.725,0,0,.009-.007,0-.009a12.568,12.568,0,0,0-1.568.84,9.217,9.217,0,0,0-1.388.994,5.107,5.107,0,0,0-.994,1.389A8.253,8.253,0,0,0,47.871,67.071Zm18.46-.685c.032.007.041.038.085.034-.005-.032.022-.054,0-.078A.125.125,0,0,0,66.331,66.386Zm4.182,4.627a.185.185,0,0,0-.008-.077c-.082-.064-.165.053-.086.1A.137.137,0,0,0,70.512,71.013Zm.206.652a.1.1,0,0,0-.146-.069C70.554,71.688,70.67,71.716,70.718,71.665Zm-.832-.412c.017.073.2.095.258.154s.042.118.094.206c.1.036.22.02.231-.06.018-.117-.1-.1-.1-.2,0-.043.031-.081.034-.121a.2.2,0,0,0-.111-.205C70.1,70.976,69.86,71.138,69.887,71.253Zm.429.858a.075.075,0,0,0-.017.068,1.132,1.132,0,0,0,.326.043c.022-.031.024-.092-.009-.111A.4.4,0,0,1,70.315,72.11Zm-.009-1.286a.088.088,0,0,0-.154.043C70.186,70.916,70.324,70.921,70.307,70.825Zm-.42,9.6c.108,0,.153-.161.129-.283a.181.181,0,0,0-.163,0C69.748,80.2,69.783,80.42,69.887,80.423Zm1.954-3.145c.01-.1-.035-.137-.06-.2-.158-.132-.415,0-.514.1C71.326,77.387,71.676,77.4,71.841,77.278Zm5.253,2.579a.075.075,0,0,0-.12.078.16.16,0,0,0,.085.042A.1.1,0,0,0,77.094,79.857ZM70.17,71.613c-.061.011-.124.182-.206.18a.112.112,0,0,0,.043.111c.026-.033.079-.006.12-.025C70.205,71.841,70.322,71.585,70.17,71.613Zm1.679,3.608c-.058-.01-.156.068-.12.128C71.859,75.458,71.983,75.243,71.849,75.221Zm-.994-3.54c.006-.026-.009-.031-.009-.051a.106.106,0,0,0-.111.017C70.739,71.7,70.819,71.714,70.855,71.682Zm-.24,11.543a.363.363,0,0,0-.128-.095C70.418,83.206,70.577,83.333,70.615,83.225Zm2.04-1.242c-.112-.034-.243.063-.163.172C72.6,82.237,72.735,82.086,72.655,81.983ZM69.818,71.63c.053-.035.05-.127.112-.154.031.032.026.1.026.162.075,0,.091-.063.172-.06.035-.083-.037-.128-.078-.163a.32.32,0,0,0-.1.009c0-.035-.031-.038-.043-.06C69.78,71.393,69.572,71.585,69.818,71.63ZM67.264,67.08c-.1-.1-.149,0-.111.128.043.075.192.067.171-.06a.07.07,0,0,1-.051-.017C67.252,67.113,67.28,67.093,67.264,67.08Zm2.768,4.893c-.04-.037-.062-.093-.129-.1a.479.479,0,0,1-.051-.206c-.136.03-.072.226-.086.342-.092.057-.275.044-.309.163-.063.221.176.28.249.146.056.083.148.033.248.026.059,0,.14.039.146-.026-.07-.023-.2-.087-.111-.163.114.015.24-.012.223-.154A.219.219,0,0,0,70.032,71.973Zm-1.045.4c.016-.134-.16-.12-.137-.026C68.859,72.391,68.938,72.414,68.987,72.376Zm.146.051c-.031.01-.059.042-.086.051-.055.02-.126.014-.137.06.02.1.217.148.325.12a.252.252,0,0,0,.129-.129C69.378,72.419,69.235,72.4,69.133,72.427Zm-2.614-6.812c.035-.118-.064-.165-.129-.223-.039-.035-.065-.079-.094-.094s-.1-.021-.145-.043c-.076-.032-.137-.087-.172-.026-.017.083.078.127.086.214C66.2,65.505,66.314,65.728,66.519,65.615ZM76.888,80.191c.066.006.082-.039.077-.1-.059-.057-.138.022-.094.094C76.878,80.184,76.888,80.183,76.888,80.191ZM65.8,65.786c-.049.016-.041.077-.051.163.015.1.218.138.231.025C65.987,65.905,65.874,65.761,65.8,65.786Zm0-.069c-.048-.1-.157.046-.026.043A.207.207,0,0,0,65.8,65.717Zm.839.951c0-.066-.055-.067-.025-.137-.092-.02-.146-.076-.163.017a.141.141,0,0,0,.172.146A.064.064,0,0,1,66.638,66.668Zm-1.174-1.363a.08.08,0,0,0-.077.06c0,.053.105.08.163.137s.1.153.154.043C65.663,65.428,65.545,65.385,65.465,65.306Zm1.483,1.628c-.18.023-.093.273.051.231C67.119,67.131,67.037,66.923,66.947,66.934Zm-.214-.119c-.025-.021-.017-.075-.051-.086-.03.034-.1.01-.12.069-.034.2.3.246.291.094C66.851,66.849,66.8,66.811,66.733,66.815Zm6.1,14.86c-.083-.112-.214-.018-.188.128a.134.134,0,0,0,.086.06C72.79,81.823,72.854,81.79,72.834,81.674ZM65.867,65.341a.262.262,0,0,0-.034-.129.12.12,0,0,0-.137,0C65.674,65.3,65.757,65.381,65.867,65.341ZM76.1,78.589c-.017-.166-.162-.036-.248-.043C75.726,78.71,76.047,78.67,76.1,78.589Zm-5.588-13.36c.129.085.227.346.437.24a.571.571,0,0,1,.034-.18c-.087-.243-.209-.453-.532-.462-.03.01-.019.061-.06.06s-.058-.039-.1-.043C70.045,64.964,70.283,65.248,70.512,65.229ZM76.374,80.8a.913.913,0,0,0,.129-.352c-.128-.065-.223.1-.3.172a.66.66,0,0,0,.009.154A.173.173,0,0,0,76.374,80.8Zm-9.41-18.185c0-.129-.284-.14-.317,0C66.686,62.7,66.966,62.755,66.965,62.615Zm-.034,4.2c.067-.081-.1-.2-.146-.12C66.832,66.735,66.854,66.8,66.93,66.815Zm-.72-4.568c-.012-.075-.145-.1-.223-.077C65.7,62.243,66.247,62.482,66.21,62.247Zm.326.642a.13.13,0,0,0-.2-.128C66.353,62.855,66.455,62.862,66.536,62.889Z" transform="translate(-42.609 -54.343)" fill="#007cd8"/><path d="M355.813,101.574a6.4,6.4,0,0,0-4.528-1.5,9.036,9.036,0,0,0-4.324.953,1.465,1.465,0,0,1-.75.205h-.068c0-.34.068-.852-.443-.852h-3.881a.451.451,0,0,0-.443.443v16.411a.45.45,0,0,0,.443.443h4.222a.451.451,0,0,0,.443-.443V106.17c0-1.669,1.09-2.383,2.656-2.383,2.452,0,3.133,1.635,3.133,3.847v9.6a.45.45,0,0,0,.442.443h4.223a.45.45,0,0,0,.442-.443V106.409C357.379,104.569,357.244,102.867,355.813,101.574Zm33.673-1.226c-1.4,0-5.208.408-6.3,1.226-.34.238-.34.441-.34.851v1.362a.43.43,0,0,0,.476.476.985.985,0,0,0,.613-.238,10.26,10.26,0,0,1,5.107-1.295c1.5,0,2.928.34,2.928,2.111v.749c0,.682-.408.851-.987,1.055a32.4,32.4,0,0,0-7.219,2.928,4.273,4.273,0,0,0-2.111,3.713c0,3.166,2.862,4.664,5.687,4.664a9.213,9.213,0,0,0,3.337-.612,3.643,3.643,0,0,1,1.567-.477h.067c0,.477.034.817.614.817h1.736a.524.524,0,0,0,.511-.511v-12.19C395.173,101.47,392.619,100.348,389.486,100.348Zm2.486,12.973c0,.917-.136,1.292-.987,1.7a6.789,6.789,0,0,1-2.86.545c-1.634,0-3.133-.511-3.133-2.418,0-2.179,1.669-2.723,3.473-3.336l3.507-1.226Zm-27.238-12.7h-2.145a.522.522,0,0,0-.511.51v16.037a.523.523,0,0,0,.511.511h2.145a.522.522,0,0,0,.51-.511V101.13A.522.522,0,0,0,364.734,100.62Zm-28.261-.239h-4.222a.45.45,0,0,0-.443.443v10.861c0,1.772-.988,2.588-2.724,2.588-2.281,0-3.066-1.6-3.066-3.677v-9.772a.45.45,0,0,0-.441-.443h-4.222a.451.451,0,0,0-.442.443V111.89c0,3.882,2.28,6.061,6.128,6.061a9.9,9.9,0,0,0,3.439-.612,4.612,4.612,0,0,1,1.6-.511h.068c0,.34-.068.851.443.851h3.881a.45.45,0,0,0,.442-.443V100.824A.451.451,0,0,0,336.473,100.381Zm71.366.239a7.084,7.084,0,0,0-3.609.885,1.573,1.573,0,0,1-.886.24h-.1c0-.547.135-1.124-.579-1.124h-1.737a.524.524,0,0,0-.511.51v16.037a.524.524,0,0,0,.511.511h2.009a.494.494,0,0,0,.477-.511V105.319c0-1.8,1.191-2.009,2.725-2.009a13.067,13.067,0,0,1,2.315.238,1.7,1.7,0,0,0,.408.069c.341,0,.477-.273.477-.579C409.338,101.3,409.746,100.62,407.839,100.62Zm-44.161-6.776a1.755,1.755,0,0,0-1.94,1.872,1.924,1.924,0,1,0,1.94-1.872Zm15.458,6.776h-4.9V96.6a.524.524,0,0,0-.51-.511h-2.146a.524.524,0,0,0-.511.511v4.019h-1.873a.522.522,0,0,0-.51.51c0,2.35-.136,1.873,2.383,1.873v10.589c0,2.894,1.873,4.359,4.665,4.359a9.016,9.016,0,0,0,3.54-.715.556.556,0,0,0,.375-.613V115.4c0-.273-.136-.546-.443-.546a9.316,9.316,0,0,1-2.519.716c-1.805,0-2.452-.954-2.452-2.69V103h4.9a.523.523,0,0,0,.511-.511V101.13A.523.523,0,0,0,379.136,100.62Z" transform="translate(-219.514 -75.332)" fill="#007cd8"/><path d="M209.915,84.573c1.718,1.319,4.438.94,6.346-1.117A5.454,5.454,0,0,0,209.915,84.573Zm2.556-5.114c-.007,2.059,2.313,3.579,3.9,3.655A4.348,4.348,0,0,0,212.471,79.459Zm-7.158,2.294c1.635,1.681,3.578,1.831,5.8.615A4.835,4.835,0,0,0,205.313,81.753Zm1.9-1.905a3.754,3.754,0,0,0-4.324-1.722A3.488,3.488,0,0,0,207.212,79.847Zm14.263,1.23c-1.5-1.383-3.243-2.121-5.2-.75C217.734,81.921,219.492,82.057,221.475,81.077ZM217.05,85.9c2.317,0,4.785-2.651,4.583-4.512C219.42,81.793,216.748,83.968,217.05,85.9Zm-12.408-9.093a2.889,2.889,0,0,0-2.659-2.091A2.522,2.522,0,0,0,204.642,76.807Zm.21-.167a2.25,2.25,0,0,0,.035-2.828A2.222,2.222,0,0,0,204.852,76.639Zm9.91-30.234a6.9,6.9,0,0,0,.642,1.95c.761,1.781,1.793,3.551,1.983,5.311.019.177.218.192.253.013.3-1.565-.888-4.391-1.5-6.367l.262-.138c1.23-.657,1.818-.912,2.6-1.416a5.86,5.86,0,0,0-.03,1.943,19.683,19.683,0,0,1,.206,4.107c-.005.176.165.261.219.1.484-1.461.32-3.152.4-5.169.071-.016.149-.035.241-.06.944-.257,1.534-.413,2.263-.6a6.15,6.15,0,0,0-.438,1.5,33.346,33.346,0,0,1-.959,4.552c-.058.163.043.3.133.17.8-1.2,1.207-3.49,1.884-5.368.927-.068,2.382-.262,2.781-.269a6.33,6.33,0,0,0-.762,1.305,33.582,33.582,0,0,1-2.936,5.256c-.1.129-.051.293.066.2,1.389-1.073,2.871-4.2,3.939-5.8a24.55,24.55,0,0,1,1.659-2.252s-2.875.8-4.608,1.182a13.619,13.619,0,0,1,1.24-2.491s-2.211,1.254-4.2,2.227c-.1.048-.2.1-.285.147a12.677,12.677,0,0,1,.518-3.016s-1.87,1.672-4,3.367l-.275.222v0a10.438,10.438,0,0,1-.427-3.276s-1.834,2.351-3.69,4.687c.106.115.226.241.354.371C213.279,47.881,214.12,47.082,214.762,46.406ZM202.7,72.1a2.483,2.483,0,0,0,1.045,2.583A2.519,2.519,0,0,0,202.7,72.1Zm16.846-19.111c-.933.166-1.5,1.355-1.269,2.656s1.175,2.22,2.109,2.054,1.5-1.355,1.267-2.656S220.482,52.825,219.549,52.992Zm-8.262,29.056c.356-1.423-.909-3.8-2.47-4.144C208.351,79.487,209.762,81.49,211.287,82.048Zm-3.909-2.469a3.034,3.034,0,0,0-.923-3.693C205.739,76.891,206.142,78.547,207.378,79.579Zm.78-11.1a8.212,8.212,0,0,0-1.511,2.685,9.749,9.749,0,0,1-.791-2.989q-.7-.116-1.34-.254A11.088,11.088,0,0,0,206,72.775,11.269,11.269,0,0,0,220.223,77.4q-.334-.571-.684-1.137c-.024.01-.047.022-.071.032a8.032,8.032,0,0,1-4.675-2.258,22.839,22.839,0,0,0,2.5-1.077q-.206-.271-.414-.53a22.114,22.114,0,0,1-2.637,1.1,17.927,17.927,0,0,1-2.96-3.82c-.2-.344-.386-.693-.561-1.042-.253-.011-.5-.024-.748-.039.226.474.471.946.742,1.412a18.787,18.787,0,0,0,2.815,3.714,12.21,12.21,0,0,1-3.326.541,5.446,5.446,0,0,1-1.549-.2,9.715,9.715,0,0,1-1.517-1.97,6.558,6.558,0,0,1,1.828-3.567Q208.552,68.514,208.158,68.474Zm2.044,6.469a13.228,13.228,0,0,0,3.868-.671,10.432,10.432,0,0,0,4.047,2.453,9.917,9.917,0,0,1-8.52-1.806C209.79,74.936,209.992,74.944,210.2,74.944Zm21.058-3.936c2.192-1.266,3.071-3.005,2.483-5.275A4.837,4.837,0,0,0,231.26,71.008Zm-1.742,4.967c2.749-.564,4.483-2.693,4.248-4.845A5.454,5.454,0,0,0,229.518,75.975Zm-2.682-17.361a2.439,2.439,0,0,0,1.666,2.148A2.4,2.4,0,0,0,226.837,58.614Zm-1.873,20.88c1.487,1.139,5.028.4,6.234-1.576C229.7,76.657,226.46,77.814,224.964,79.494ZM209.1,63.686a11.137,11.137,0,0,1-.107-1.2c0-.035,0-.068,0-.1q-.31-.223-.655-.448c-.005.186-.006.376,0,.571a12.054,12.054,0,0,0,.11,1.259C208.673,63.742,208.891,63.717,209.1,63.686Zm-2.687-2.824a11.4,11.4,0,0,0-1.4,2.916q.694.049,1.368.06a10.025,10.025,0,0,1,1.206-2.366C207.219,61.259,206.826,61.054,206.413,60.862Zm27.539-9.114a12.07,12.07,0,0,1-3.318,1.9c-1.942.751-5.063,1.407-7.984,3.514-.117.076-.229.151-.33.224a4.349,4.349,0,0,1-3.829.766c-1.174-3.889-5.447-7.45-7.107-9.259a12.067,12.067,0,0,1-2.133-3.172s-5.753,10.444-6.5,11.327c-.485.571,1.615,2.076,3.933,3.144a17.428,17.428,0,0,1,4.965,3.5c-3.357,1.746-11.522.629-15-1.165-.277-.144-.434.282-.139.578,1.719,1.736,5.145,4.631,15.425,4.876,4.762.114,10.721,12.05,12.1,15.367.164.395.622.615.57.009-1.8-11.293-6.918-16.822-6.854-16.867a13.8,13.8,0,0,0,4.516-5.57c.036-.071.1-.234.2-.449h0c.038-.089.085-.176.132-.263.026-.048.054-.1.082-.15,2.173-3.682,10.242-5.177,11.249-7.736A.743.743,0,0,0,233.952,51.748Zm-6.775,9.5a2.249,2.249,0,0,0,2.434,1.438A2.22,2.22,0,0,0,227.177,61.249Zm3.718,9.745c.315-1.593-.666-3.838-2.261-4.261C228.121,68.246,229.494,70.559,230.9,70.993Zm-7.567,4.414a11.274,11.274,0,0,0,2.245-14.027,11.019,11.019,0,0,0-1.493-1.994,4.744,4.744,0,0,0-.8,1.077c.2.22.386.446.562.685a6.02,6.02,0,0,0-.835-.127c-.007.017-.018.04-.024.055-.031.071-.056.127-.074.163-.071.145-.145.278-.217.416a4.328,4.328,0,0,1,1.748.393,9.806,9.806,0,0,1,.963,2.274,8.541,8.541,0,0,1-2.327,3.693,18.8,18.8,0,0,0-1.766-4.08c-.141.2-.283.388-.429.573a17.854,17.854,0,0,1,1.663,4.034,20.521,20.521,0,0,1-1.661,1.411c.107.195.213.393.318.591.545-.411,1.056-.831,1.522-1.255A12.063,12.063,0,0,1,223,71.426a7.266,7.266,0,0,1-.286,2.376Q223.037,74.591,223.329,75.407Zm2.338-9.852a10.017,10.017,0,0,1-2.148,7.755,8.77,8.77,0,0,0,.139-1.9,12.964,12.964,0,0,0-.374-2.642A11.462,11.462,0,0,0,225.667,65.555Zm1.173,8.8c-2.19.965-2.461,2.834-2.059,4.839C226.647,78.013,227.442,76.439,226.84,74.36Zm2.327,1.536c.761-1.4.665-4.173-1.1-5.235A4.351,4.351,0,0,0,229.167,75.9Zm.288-16.66a2.89,2.89,0,0,0,.408,3.357A2.522,2.522,0,0,0,229.455,59.236Zm2.445,2.543a3.754,3.754,0,0,0-.772,4.59A3.489,3.489,0,0,0,231.9,61.779Zm-3.765,1.886a3.034,3.034,0,0,0,2.678,2.705C230.572,64.777,229.366,63.574,228.135,63.665Z" transform="translate(-140.334 -43.281)" fill="#007cd8"/></g></g></g></svg>