<svg xmlns="http://www.w3.org/2000/svg" width="212.25" height="212.25" viewBox="0 0 212.25 212.25"><g transform="translate(-1272.544 -5025.26)"><path d="M0,0A106.125,106.125,0,0,0,106.125-106.125,106.125,106.125,0,0,0,0-212.25,106.125,106.125,0,0,0-106.125-106.125,106.125,106.125,0,0,0,0,0" transform="translate(1378.669 5237.51)" fill="#ebecec"/><path d="M0,0A30.227,30.227,0,0,0-7.971-11.386c-.476-.423-.969-.828-1.473-1.221-.216-.887-.44-1.766-.679-2.629a1.178,1.178,0,0,0-.539-.7,39.056,39.056,0,0,0-8.5-3.675,1.183,1.183,0,0,0-.987.143,1.181,1.181,0,0,0-.524.848c-.013.114-.032.226-.048.339q-.729-.216-1.476-.407A21,21,0,0,0-15.355-28a5.743,5.743,0,0,0,4.894-5.673,5.706,5.706,0,0,0-1.186-3.486A4.5,4.5,0,0,0-9.4-39.95a4.654,4.654,0,0,0-1.321-4.643c-.152-13.775-10.594-24.932-23.408-24.932S-57.385-58.368-57.538-44.593a4.654,4.654,0,0,0-1.321,4.643,4.5,4.5,0,0,0,2.246,2.793A5.707,5.707,0,0,0-57.8-33.672,5.743,5.743,0,0,0-52.9-28a20.994,20.994,0,0,0,6.834,9.3q-.743.191-1.468.405c-.016-.113-.034-.225-.048-.339a1.177,1.177,0,0,0-.523-.849,1.18,1.18,0,0,0-.987-.143,38.942,38.942,0,0,0-8.5,3.673,1.179,1.179,0,0,0-.539.7c-.24.865-.465,1.745-.68,2.634q-.726.565-1.415,1.171A30.231,30.231,0,0,0-68.214-.092a42.981,42.981,0,0,0-2.922,16.245l0,1.179,9.724.016c.017.313.031.626.05.938a1.179,1.179,0,0,0,1.175,1.106l52.11.087h0a1.179,1.179,0,0,0,1.177-1.1c.019-.311.034-.624.05-.936l9.725.017,0-1.179A42.989,42.989,0,0,0,0,0M-6.747,15.082c.039-1.2.059-2.414.059-3.62A105.783,105.783,0,0,0-8.6-8.751C-2.755-3.072.306,4.937.508,15.094ZM-9.191,17.12l-49.882-.083c-.015-.287-.026-.576-.039-.864q-.026-.588-.044-1.178c-.038-1.178-.059-2.358-.059-3.533a101.648,101.648,0,0,1,2.483-22.653c.139-.6.286-1.2.437-1.789.1-.394.2-.788.307-1.176a36.236,36.236,0,0,1,6.287-2.8c.04.195.086.387.133.579.1.384.205.761.327,1.132A15.908,15.908,0,0,0-34.13-4.288,15.911,15.911,0,0,0-19.024-15.23q.185-.56.329-1.136c.047-.192.093-.384.133-.578a36.311,36.311,0,0,1,6.294,2.8c.1.388.2.78.3,1.172.146.574.289,1.152.424,1.736a101.594,101.594,0,0,1,2.494,22.7c0,1.2-.022,2.413-.062,3.616q-.019.589-.045,1.178c-.012.288-.024.577-.039.864m-59.573-2.141c.247-10.006,3.429-18.035,9.086-23.637a105.84,105.84,0,0,0-1.894,20.12q0,1.761.056,3.529Zm13.323-48.651a3.367,3.367,0,0,1,1.148-2.53l.03-.028v.661a21.76,21.76,0,0,0,.542,4.838,3.379,3.379,0,0,1-1.72-2.941m-.269-9.367.532-.351,0-.9q0-.656.034-1.3a23.606,23.606,0,0,1,7.334-16.071A20.008,20.008,0,0,1-34.13-67.167a19.554,19.554,0,0,1,8.9,2.147,23.01,23.01,0,0,1,12.122,19.5q.03.614.031,1.235l-.005.9.532.351a2.246,2.246,0,0,1,.878,2.46,2.048,2.048,0,0,1-1.859,1.544c-.019,0-.038,0-.058,0A1.888,1.888,0,0,1-14-39.081c-.021,0-.042-.007-.063-.013-.213-.055-.426-.108-.64-.162-.158-.04-.317-.082-.476-.121-.227-.057-.454-.11-.682-.165-.165-.039-.33-.079-.5-.117l-.663-.15-.319-.07q-.427-.093-.855-.182l-.324-.066q-.425-.085-.85-.167l-.328-.062A78.645,78.645,0,0,0-34.13-41.7a78.661,78.661,0,0,0-14.437,1.345l-.34.064c-.28.053-.559.109-.838.165l-.34.069c-.28.058-.559.118-.839.179l-.338.075c-.215.048-.43.1-.644.145q-.246.057-.492.117c-.229.054-.458.108-.686.165l-.47.119c-.215.055-.431.108-.646.164-.021.006-.042.008-.063.013a1.888,1.888,0,0,1-.408.049c-.017,0-.033,0-.05,0a2.048,2.048,0,0,1-1.867-1.544,2.246,2.246,0,0,1,.878-2.46m41.171,12.308A21.76,21.76,0,0,0-14-35.569v-.661a3.37,3.37,0,0,1,1.179,2.558,3.38,3.38,0,0,1-1.721,2.941M-17.687-28.5c-.03.077-.06.154-.092.23A18.592,18.592,0,0,1-23.7-20.509a17.785,17.785,0,0,1-1.68,1.135,17.179,17.179,0,0,1-1.761.916,16.871,16.871,0,0,1-1.762.679q-.365.118-.735.219a17,17,0,0,1-4.494.6,16.96,16.96,0,0,1-4.512-.608q-.5-.138-.993-.307-.765-.261-1.5-.591a17.547,17.547,0,0,1-1.758-.917,17.844,17.844,0,0,1-2.155-1.51,18.622,18.622,0,0,1-5.39-7.275q-.231-.553-.427-1.126s0,0,0,0q-.192-.558-.35-1.132a19.272,19.272,0,0,1-.627-3.583q-.047-.585-.058-1.179c0-.126,0-.252,0-.379v-1.668l.014,0c.213-.051.426-.1.64-.152l.328-.073v1.9c0,.128.007.253.009.379.008.4.027.792.06,1.179a15.561,15.561,0,0,0,1.277,5.053,14.233,14.233,0,0,0,3.4,4.7c.079.072.155.148.236.219a17.127,17.127,0,0,0,9.29,3.983,20.982,20.982,0,0,0,2.525.152,20.873,20.873,0,0,0,2.506-.15,17.163,17.163,0,0,0,9.217-3.907c.03-.027.062-.052.092-.078A14.3,14.3,0,0,0-19-28.294a15.386,15.386,0,0,0,1.593-5.717c.033-.387.052-.781.06-1.179,0-.126.009-.251.009-.379v-1.9c.091.02.182.039.272.06.235.053.469.111.7.167h.006v1.668c0,.127,0,.253,0,.379q-.01.594-.058,1.179a19.263,19.263,0,0,1-.677,3.757q-.174.61-.386,1.2-.1.277-.207.55m-2.006-7.868v.8c0,.128-.006.253-.009.379-.01.4-.033.793-.074,1.179-.735,6.993-6.43,11.75-14.354,11.75s-13.618-4.757-14.354-11.75c-.04-.386-.064-.78-.074-1.179,0-.126-.009-.251-.009-.379v-2.389A76.315,76.315,0,0,1-34.13-39.344a76.307,76.307,0,0,1,14.437,1.386ZM-40.6-15.71a13.347,13.347,0,0,0,6.4,2.218,13.151,13.151,0,0,0,6.235-2.116A19.707,19.707,0,0,0-24.968-16.9q1.914.376,3.711.917A13.554,13.554,0,0,1-34.13-6.645,13.552,13.552,0,0,1-47.009-16q1.783-.537,3.695-.914a19.533,19.533,0,0,0,2.714,1.2" transform="translate(1372.705 5160.238)" fill="#56cdf2"/><path d="M0,0A30.227,30.227,0,0,0-7.971-11.386c-.476-.423-.969-.828-1.473-1.221-.216-.887-.44-1.766-.679-2.629a1.178,1.178,0,0,0-.539-.7,39.056,39.056,0,0,0-8.5-3.675,1.183,1.183,0,0,0-.987.143,1.181,1.181,0,0,0-.524.848c-.013.114-.032.226-.048.339q-.729-.216-1.476-.407A21,21,0,0,0-15.355-28a5.743,5.743,0,0,0,4.894-5.673,5.706,5.706,0,0,0-1.186-3.486A4.5,4.5,0,0,0-9.4-39.95a4.654,4.654,0,0,0-1.321-4.643c-.152-13.775-10.594-24.932-23.408-24.932S-57.385-58.368-57.538-44.593a4.654,4.654,0,0,0-1.321,4.643,4.5,4.5,0,0,0,2.246,2.793A5.707,5.707,0,0,0-57.8-33.672,5.743,5.743,0,0,0-52.9-28a20.994,20.994,0,0,0,6.834,9.3q-.743.191-1.468.405c-.016-.113-.034-.225-.048-.339a1.177,1.177,0,0,0-.523-.849,1.18,1.18,0,0,0-.987-.143,38.942,38.942,0,0,0-8.5,3.673,1.179,1.179,0,0,0-.539.7c-.24.865-.465,1.745-.68,2.634q-.726.565-1.415,1.171A30.231,30.231,0,0,0-68.214-.092a42.981,42.981,0,0,0-2.922,16.245l0,1.179,9.724.016c.017.313.031.626.05.938a1.179,1.179,0,0,0,1.175,1.106l52.11.087h0a1.179,1.179,0,0,0,1.177-1.1c.019-.311.034-.624.05-.936l9.725.017,0-1.179A42.989,42.989,0,0,0,0,0ZM-6.747,15.082c.039-1.2.059-2.414.059-3.62A105.783,105.783,0,0,0-8.6-8.751C-2.755-3.072.306,4.937.508,15.094ZM-9.191,17.12l-49.882-.083c-.015-.287-.026-.576-.039-.864q-.026-.588-.044-1.178c-.038-1.178-.059-2.358-.059-3.533a101.648,101.648,0,0,1,2.483-22.653c.139-.6.286-1.2.437-1.789.1-.394.2-.788.307-1.176a36.236,36.236,0,0,1,6.287-2.8c.04.195.086.387.133.579.1.384.205.761.327,1.132A15.908,15.908,0,0,0-34.13-4.288,15.911,15.911,0,0,0-19.024-15.23q.185-.56.329-1.136c.047-.192.093-.384.133-.578a36.311,36.311,0,0,1,6.294,2.8c.1.388.2.78.3,1.172.146.574.289,1.152.424,1.736a101.594,101.594,0,0,1,2.494,22.7c0,1.2-.022,2.413-.062,3.616q-.019.589-.045,1.178C-9.164,16.544-9.176,16.833-9.191,17.12Zm-59.573-2.141c.247-10.006,3.429-18.035,9.086-23.637a105.84,105.84,0,0,0-1.894,20.12q0,1.761.056,3.529Zm13.323-48.651a3.367,3.367,0,0,1,1.148-2.53l.03-.028v.661a21.76,21.76,0,0,0,.542,4.838A3.379,3.379,0,0,1-55.441-33.672Zm-.269-9.367.532-.351,0-.9q0-.656.034-1.3a23.606,23.606,0,0,1,7.334-16.071A20.008,20.008,0,0,1-34.13-67.167a19.554,19.554,0,0,1,8.9,2.147,23.01,23.01,0,0,1,12.122,19.5q.03.614.031,1.235l-.005.9.532.351a2.246,2.246,0,0,1,.878,2.46,2.048,2.048,0,0,1-1.859,1.544c-.019,0-.038,0-.058,0A1.888,1.888,0,0,1-14-39.081c-.021,0-.042-.007-.063-.013-.213-.055-.426-.108-.64-.162-.158-.04-.317-.082-.476-.121-.227-.057-.454-.11-.682-.165-.165-.039-.33-.079-.5-.117l-.663-.15-.319-.07q-.427-.093-.855-.182l-.324-.066q-.425-.085-.85-.167l-.328-.062A78.645,78.645,0,0,0-34.13-41.7a78.661,78.661,0,0,0-14.437,1.345l-.34.064c-.28.053-.559.109-.838.165l-.34.069c-.28.058-.559.118-.839.179l-.338.075c-.215.048-.43.1-.644.145q-.246.057-.492.117c-.229.054-.458.108-.686.165l-.47.119c-.215.055-.431.108-.646.164-.021.006-.042.008-.063.013a1.888,1.888,0,0,1-.408.049c-.017,0-.033,0-.05,0a2.048,2.048,0,0,1-1.867-1.544A2.246,2.246,0,0,1-55.71-43.039Zm41.171,12.308A21.76,21.76,0,0,0-14-35.569v-.661a3.37,3.37,0,0,1,1.179,2.558A3.38,3.38,0,0,1-14.539-30.731ZM-17.687-28.5c-.03.077-.06.154-.092.23A18.592,18.592,0,0,1-23.7-20.509a17.785,17.785,0,0,1-1.68,1.135,17.179,17.179,0,0,1-1.761.916,16.871,16.871,0,0,1-1.762.679q-.365.118-.735.219a17,17,0,0,1-4.494.6,16.96,16.96,0,0,1-4.512-.608q-.5-.138-.993-.307-.765-.261-1.5-.591a17.547,17.547,0,0,1-1.758-.917,17.844,17.844,0,0,1-2.155-1.51,18.622,18.622,0,0,1-5.39-7.275q-.231-.553-.427-1.126s0,0,0,0q-.192-.558-.35-1.132a19.272,19.272,0,0,1-.627-3.583q-.047-.585-.058-1.179c0-.126,0-.252,0-.379v-1.668l.014,0c.213-.051.426-.1.64-.152l.328-.073v1.9c0,.128.007.253.009.379.008.4.027.792.06,1.179a15.561,15.561,0,0,0,1.277,5.053,14.233,14.233,0,0,0,3.4,4.7c.079.072.155.148.236.219a17.127,17.127,0,0,0,9.29,3.983,20.982,20.982,0,0,0,2.525.152,20.873,20.873,0,0,0,2.506-.15,17.163,17.163,0,0,0,9.217-3.907c.03-.027.062-.052.092-.078A14.3,14.3,0,0,0-19-28.294a15.386,15.386,0,0,0,1.593-5.717c.033-.387.052-.781.06-1.179,0-.126.009-.251.009-.379v-1.9c.091.02.182.039.272.06.235.053.469.111.7.167h.006v1.668c0,.127,0,.253,0,.379q-.01.594-.058,1.179a19.263,19.263,0,0,1-.677,3.757q-.174.61-.386,1.2Q-17.579-28.773-17.687-28.5Zm-2.006-7.868v.8c0,.128-.006.253-.009.379-.01.4-.033.793-.074,1.179-.735,6.993-6.43,11.75-14.354,11.75s-13.618-4.757-14.354-11.75c-.04-.386-.064-.78-.074-1.179,0-.126-.009-.251-.009-.379v-2.389A76.315,76.315,0,0,1-34.13-39.344a76.307,76.307,0,0,1,14.437,1.386ZM-40.6-15.71a13.347,13.347,0,0,0,6.4,2.218,13.151,13.151,0,0,0,6.235-2.116A19.707,19.707,0,0,0-24.968-16.9q1.914.376,3.711.917A13.554,13.554,0,0,1-34.13-6.645,13.552,13.552,0,0,1-47.009-16q1.783-.537,3.695-.914A19.533,19.533,0,0,0-40.6-15.71Z" transform="translate(1372.705 5160.238)" fill="none" stroke="#56cdf2" stroke-width="0.381"/><path d="M0,0A4.158,4.158,0,0,0-4.064-3.328H-34.581A4.158,4.158,0,0,0-38.645,0l-.9,4.479a4.131,4.131,0,0,0,.857,3.443,4.133,4.133,0,0,0,3.207,1.519H-3.163A4.13,4.13,0,0,0,.044,7.922,4.127,4.127,0,0,0,.9,4.479ZM-36.865,6.429a1.784,1.784,0,0,1-.37-1.486l.9-4.478A1.794,1.794,0,0,1-34.581-.971H-4.064A1.793,1.793,0,0,1-2.311.465l.9,4.478a1.783,1.783,0,0,1-.369,1.486,1.784,1.784,0,0,1-1.384.655H-35.482a1.782,1.782,0,0,1-1.383-.655" transform="translate(1357.897 5164.92)" fill="#56cdf2"/><path d="M0,0C-.269-2.292-.314-4.067-.314-4.067M-18.85-4.85A13.068,13.068,0,0,1-18.825.525M0,0C-.269-2.292-.314-4.067-.314-4.067M-18.85-4.85A13.068,13.068,0,0,1-18.825.525M.084.525S.4,9.643-9.092,9.643-18.825.525-18.825.525s-23.383,5.643-25.506,13.5C-45.737,19.235-45.6,31.447-45.6,31.447l36.466.671,36.466-.671s.139-12.212-1.266-17.418C23.946,6.168.563.525.563.525m-.479,0S.4,9.643-9.092,9.643-18.825.525-18.825.525s-23.383,5.643-25.506,13.5C-45.737,19.235-45.6,31.447-45.6,31.447" transform="translate(1433.79 5135.816)" fill="none" stroke="#56cdf2" stroke-linecap="round" stroke-linejoin="round" stroke-width="3.051"/><path d="M0,0-4.648-7.808A5.414,5.414,0,0,0-4.827-8.9a6.736,6.736,0,0,0-.779-1.769,5.768,5.768,0,0,1-.549-1.157,2.963,2.963,0,0,1-.173-.925,1.142,1.142,0,0,1,.06-.4.484.484,0,0,1,.085-.151.629.629,0,0,1,.271-.177,2.206,2.206,0,0,1,.78-.115c.084,0,.174,0,.269.009a1.278,1.278,0,0,0,.969-.358,1.275,1.275,0,0,0,.386-.957c-.056-1.69-.083-3.544-.088-5.573h.036c.147,0,.357.012.62.013a3.865,3.865,0,0,0,1.257-.185c.326-.11.664-.223,1-.36a4.857,4.857,0,0,0,1.023-.547h0a4.751,4.751,0,0,0,.824-.8c.233-.277.441-.561.643-.834a10.234,10.234,0,0,1,.98-1.2,3.173,3.173,0,0,1,.492-.407,2.092,2.092,0,0,1,.507-.249h0a2.051,2.051,0,0,1,.633-.093,4.1,4.1,0,0,1,.916.122c.334.077.689.186,1.057.3.336.1.684.214,1.051.3a5.011,5.011,0,0,0,1.18.161,4.974,4.974,0,0,0,1.18-.161c.367-.089.715-.2,1.051-.3.368-.116.723-.225,1.056-.3a4.169,4.169,0,0,1,.917-.122,2.071,2.071,0,0,1,.634.093h0a2.117,2.117,0,0,1,.508.249,3.836,3.836,0,0,1,.736.667c.245.277.486.6.735.938.2.273.41.557.643.834a4.722,4.722,0,0,0,.825.8,4.827,4.827,0,0,0,1.023.546c.34.138.678.251,1,.361h0a3.913,3.913,0,0,0,1.257.185c.261,0,.47-.014.619-.013h.037c0,2.029-.033,3.883-.089,5.573a1.279,1.279,0,0,0,.388.958,1.277,1.277,0,0,0,.97.357c.093-.006.182-.009.265-.009a2.342,2.342,0,0,1,.725.1.882.882,0,0,1,.246.121.466.466,0,0,1,.09.086.563.563,0,0,1,.091.186,1.208,1.208,0,0,1,.045.355,2.987,2.987,0,0,1-.173.925,5.767,5.767,0,0,1-.549,1.157A6.769,6.769,0,0,0,22.082-8.9,5.559,5.559,0,0,0,21.9-7.808L17.253,0a20.287,20.287,0,0,1-2.708,2.579c-.469.378-.925.725-1.346,1.039s-.805.6-1.139.856a3.278,3.278,0,0,1-1.657.658c-.185.019-.448.034-.741.044S9.04,5.2,8.71,5.2c-.357,0-.717-.006-1.044-.017s-.619-.026-.832-.045a2.979,2.979,0,0,1-.871-.213A3.29,3.29,0,0,1,5.2,4.477c-.334-.26-.719-.541-1.14-.856C3.426,3.15,2.714,2.606,2,1.99A18.681,18.681,0,0,1,0,0M-4.4.889A3.4,3.4,0,0,1-5.769.606,3.6,3.6,0,0,1-7.331-.712,3.713,3.713,0,0,1-7.943-2.76a3.7,3.7,0,0,1,.695-2.167A3.626,3.626,0,0,1-6.4-5.766l3.693,6.2a3.537,3.537,0,0,1-.348.175A3.405,3.405,0,0,1-4.4.889M-11.3-8.483a4.008,4.008,0,0,1-.662-.72,4.072,4.072,0,0,1-.5-.969,7.116,7.116,0,0,1-.365-1.751c-.06-.632-.069-1.3-.077-1.972-.007-.559-.012-1.124-.053-1.685a7.319,7.319,0,0,0-.289-1.67h0a6.8,6.8,0,0,0-.7-1.462c-.28-.458-.591-.9-.9-1.341a17.178,17.178,0,0,1-1.393-2.223,6.139,6.139,0,0,1-.43-1.119,4.4,4.4,0,0,1-.156-1.145,4.4,4.4,0,0,1,.156-1.144,7.056,7.056,0,0,1,.728-1.677c.322-.557.707-1.11,1.095-1.665.307-.439.618-.883.9-1.341a6.754,6.754,0,0,0,.7-1.462,7.256,7.256,0,0,0,.29-1.671c.041-.56.046-1.125.053-1.684a17.672,17.672,0,0,1,.156-2.591,6.167,6.167,0,0,1,.286-1.132,4.072,4.072,0,0,1,.5-.969,4.04,4.04,0,0,1,.751-.794A6.652,6.652,0,0,1-9.7-41.563c.569-.253,1.188-.468,1.813-.683.514-.177,1.035-.355,1.542-.566a6.872,6.872,0,0,0,1.462-.795A6.87,6.87,0,0,0-3.71-44.768c.346-.422.667-.868.986-1.309A17.046,17.046,0,0,1-1.1-48.1a5.945,5.945,0,0,1,.889-.751,4.011,4.011,0,0,1,.978-.488h0a3.8,3.8,0,0,1,1.22-.186,6.95,6.95,0,0,1,1.608.215c.561.132,1.139.315,1.72.5.531.168,1.068.341,1.615.478a7.091,7.091,0,0,0,1.7.239,7.09,7.09,0,0,0,1.7-.239c.547-.137,1.085-.31,1.615-.478h0c.58-.186,1.158-.369,1.719-.5a7,7,0,0,1,1.608-.214,3.821,3.821,0,0,1,1.221.186,4.011,4.011,0,0,1,.978.488,6.845,6.845,0,0,1,1.311,1.209c.415.481.809,1.023,1.2,1.569.319.44.64.887.987,1.309a6.8,6.8,0,0,0,1.169,1.161,6.841,6.841,0,0,0,1.461.795c.507.211,1.029.389,1.542.566a16.652,16.652,0,0,1,2.363.95,5.763,5.763,0,0,1,.963.626,3.982,3.982,0,0,1,.751.794,4.072,4.072,0,0,1,.5.969,7.027,7.027,0,0,1,.365,1.75c.06.633.07,1.3.077,1.973.007.559.013,1.124.053,1.684a7.32,7.32,0,0,0,.29,1.671h0a6.754,6.754,0,0,0,.7,1.462c.281.458.592.9.9,1.341A17.177,17.177,0,0,1,33.5-26.8a6.111,6.111,0,0,1,.43,1.119,4.354,4.354,0,0,1,.156,1.144,4.356,4.356,0,0,1-.156,1.145,7.016,7.016,0,0,1-.728,1.677c-.321.557-.706,1.11-1.1,1.665-.306.439-.617.883-.9,1.341a6.754,6.754,0,0,0-.7,1.462,7.311,7.311,0,0,0-.29,1.67c-.04.561-.046,1.126-.053,1.685A17.534,17.534,0,0,1,30-11.3a6.166,6.166,0,0,1-.286,1.132,4.072,4.072,0,0,1-.5.969,4.008,4.008,0,0,1-.662.72,6.084,6.084,0,0,1-1.309.831,13.424,13.424,0,0,1-1.268.524,6.116,6.116,0,0,0-1.435-1.089l0-.022a4.209,4.209,0,0,1,.493-1.1,8.288,8.288,0,0,0,.791-1.677,5.51,5.51,0,0,0,.305-1.734,3.692,3.692,0,0,0-.221-1.291,3.055,3.055,0,0,0-.517-.895,3.169,3.169,0,0,0-1.315-.923,4.034,4.034,0,0,0-.734-.2c.039-1.575.056-3.269.056-5.1a1.264,1.264,0,0,0-.244-.75,2.79,2.79,0,0,0-.544-.567,2.516,2.516,0,0,0-.976-.463,3.58,3.58,0,0,0-.825-.085c-.252,0-.456.013-.619.012a1.417,1.417,0,0,1-.445-.051c-.325-.109-.619-.209-.853-.306a2.428,2.428,0,0,1-.485-.246,2.359,2.359,0,0,1-.372-.375c-.16-.191-.343-.437-.545-.71a12.567,12.567,0,0,0-1.237-1.5,5.809,5.809,0,0,0-.88-.722,4.652,4.652,0,0,0-1.126-.546h0a4.573,4.573,0,0,0-1.421-.218,6.67,6.67,0,0,0-1.493.187c-.455.106-.871.237-1.24.352-.335.1-.639.2-.894.26a2.581,2.581,0,0,1-.577.089,2.581,2.581,0,0,1-.577-.089c-.256-.062-.56-.156-.895-.26-.368-.115-.784-.246-1.24-.352a6.61,6.61,0,0,0-1.492-.187A4.562,4.562,0,0,0,3-27.464H3a4.67,4.67,0,0,0-1.126.546A6.367,6.367,0,0,0,.633-25.812c-.341.388-.624.773-.874,1.111-.2.273-.384.519-.545.71a2.368,2.368,0,0,1-.371.375,2.416,2.416,0,0,1-.485.247c-.235.1-.529.2-.854.305a1.38,1.38,0,0,1-.444.051c-.162,0-.367-.011-.62-.012a3.992,3.992,0,0,0-.522.03,2.818,2.818,0,0,0-.464.1,2.483,2.483,0,0,0-.737.362,2.753,2.753,0,0,0-.622.625,1.289,1.289,0,0,0-.244.75c0,1.83.018,3.525.056,5.1a4.462,4.462,0,0,0-.561.138,3.365,3.365,0,0,0-.969.5,3,3,0,0,0-.574.557,3.126,3.126,0,0,0-.529,1.026,3.762,3.762,0,0,0-.154,1.092,5.51,5.51,0,0,0,.305,1.734,8.293,8.293,0,0,0,.792,1.677,4.2,4.2,0,0,1,.492,1.1.18.18,0,0,0,.006.022,6.078,6.078,0,0,0-1.436,1.09A11.283,11.283,0,0,1-10.464-7.9a5.505,5.505,0,0,1-.834-.58m36.214,7.15A3.653,3.653,0,0,1,23.623.273a3.436,3.436,0,0,1-1.964.616A3.409,3.409,0,0,1,20.311.613a3.521,3.521,0,0,1-.347-.175l3.693-6.2a3.645,3.645,0,0,1,.847.839A3.7,3.7,0,0,1,25.2-2.76a3.717,3.717,0,0,1-.282,1.427M12.131,7.346c-.029-.084,2.424-1.447,2.38-1.521l.215-.16c.647-.484,1.41-1.065,2.2-1.745.5-.433,1.014-.908,1.512-1.424a6.166,6.166,0,0,0,.873.463,5.981,5.981,0,0,0,2.351.481,5.98,5.98,0,0,0,2.38-.493A6.151,6.151,0,0,0,26.715.694,6.254,6.254,0,0,0,27.749-2.76a6.25,6.25,0,0,0-.384-2.165A12.234,12.234,0,0,0,28.99-5.69a7.984,7.984,0,0,0,1.224-.856,6.612,6.612,0,0,0,1.08-1.178,6.6,6.6,0,0,0,.82-1.569,9.5,9.5,0,0,0,.509-2.387c.074-.773.081-1.513.089-2.185.007-.558.014-1.079.047-1.529a4.85,4.85,0,0,1,.177-1.084,4.356,4.356,0,0,1,.447-.9c.222-.363.507-.772.813-1.21a19.564,19.564,0,0,0,1.593-2.561,8.778,8.778,0,0,0,.6-1.581,6.948,6.948,0,0,0,.243-1.807,6.94,6.94,0,0,0-.243-1.806,9.562,9.562,0,0,0-.982-2.29c-.4-.683-.826-1.3-1.214-1.852-.306-.438-.591-.847-.813-1.21a4.356,4.356,0,0,1-.447-.9h0a4.85,4.85,0,0,1-.177-1.085c-.033-.449-.04-.97-.047-1.528a19.856,19.856,0,0,0-.188-2.969,8.743,8.743,0,0,0-.41-1.6,6.6,6.6,0,0,0-.82-1.569,6.554,6.554,0,0,0-1.219-1.293,9.156,9.156,0,0,0-2.086-1.246c-.7-.313-1.4-.549-2.021-.764-.513-.176-.99-.342-1.39-.509a4.434,4.434,0,0,1-.92-.487,4.411,4.411,0,0,1-.721-.732c-.274-.335-.572-.744-.889-1.185A19.363,19.363,0,0,0,20.171-49.9a8.463,8.463,0,0,0-1.277-1.072,6.512,6.512,0,0,0-1.6-.795,6.381,6.381,0,0,0-2.025-.317,9.582,9.582,0,0,0-2.2.284c-.685.163-1.325.368-1.907.553h0c-.53.169-1.023.326-1.456.433a4.636,4.636,0,0,1-1.08.164,4.636,4.636,0,0,1-1.08-.164c-.434-.107-.927-.264-1.457-.433-.581-.185-1.221-.39-1.906-.553a9.582,9.582,0,0,0-2.2-.284,6.381,6.381,0,0,0-2.025.317h0a6.547,6.547,0,0,0-1.6.795,9.324,9.324,0,0,0-1.814,1.656c-.51.592-.945,1.2-1.339,1.742-.318.441-.615.85-.89,1.185a4.465,4.465,0,0,1-.721.733,4.487,4.487,0,0,1-.92.486c-.4.167-.877.333-1.39.509a18.837,18.837,0,0,0-2.726,1.106,8.388,8.388,0,0,0-1.381.9,6.613,6.613,0,0,0-1.219,1.293,6.678,6.678,0,0,0-.82,1.569,9.548,9.548,0,0,0-.509,2.387c-.074.773-.081,1.514-.089,2.185-.007.558-.014,1.079-.047,1.528A4.858,4.858,0,0,1-15.68-32.6a4.421,4.421,0,0,1-.448.9c-.222.364-.506.772-.813,1.21a19.5,19.5,0,0,0-1.593,2.561,8.778,8.778,0,0,0-.6,1.581,6.94,6.94,0,0,0-.243,1.806,6.948,6.948,0,0,0,.243,1.807,9.524,9.524,0,0,0,.983,2.29c.394.683.825,1.3,1.213,1.852.307.438.591.847.813,1.21a4.369,4.369,0,0,1,.448.9h0a4.879,4.879,0,0,1,.176,1.085c.034.45.04.971.047,1.529a19.732,19.732,0,0,0,.189,2.969,8.659,8.659,0,0,0,.409,1.6,6.678,6.678,0,0,0,.82,1.569,6.579,6.579,0,0,0,1.081,1.178A8.58,8.58,0,0,0-11.1-5.357c.334.162.666.3.993.431a6.279,6.279,0,0,0-.384,2.166A6.244,6.244,0,0,0-8.719,1.612,6.09,6.09,0,0,0-6.783,2.947,5.975,5.975,0,0,0-4.4,3.44a5.981,5.981,0,0,0,2.351-.481,6.029,6.029,0,0,0,.874-.464A24.916,24.916,0,0,0,1.108,4.567c.471.38.92.722,1.327,1.027-.123.13,1.12.637,1.059.819l1.05.642m-.034,0c.159.083.321.161.49.231a5.545,5.545,0,0,0,1.616.392c.281.024.608.041.967.053s.742.018,1.127.018c.356,0,.71,0,1.04-.017s.636-.028.906-.055h0a5.837,5.837,0,0,0,1.67-.428" transform="translate(1416.031 5129.229)" fill="#56cdf2"/><path d="M0,0-4.648-7.808A5.414,5.414,0,0,0-4.827-8.9a6.736,6.736,0,0,0-.779-1.769,5.768,5.768,0,0,1-.549-1.157,2.963,2.963,0,0,1-.173-.925,1.142,1.142,0,0,1,.06-.4.484.484,0,0,1,.085-.151.629.629,0,0,1,.271-.177,2.206,2.206,0,0,1,.78-.115c.084,0,.174,0,.269.009a1.278,1.278,0,0,0,.969-.358,1.275,1.275,0,0,0,.386-.957c-.056-1.69-.083-3.544-.088-5.573h.036c.147,0,.357.012.62.013a3.865,3.865,0,0,0,1.257-.185c.326-.11.664-.223,1-.36a4.857,4.857,0,0,0,1.023-.547h0a4.751,4.751,0,0,0,.824-.8c.233-.277.441-.561.643-.834a10.234,10.234,0,0,1,.98-1.2,3.173,3.173,0,0,1,.492-.407,2.092,2.092,0,0,1,.507-.249h0a2.051,2.051,0,0,1,.633-.093,4.1,4.1,0,0,1,.916.122c.334.077.689.186,1.057.3.336.1.684.214,1.051.3a5.011,5.011,0,0,0,1.18.161,4.974,4.974,0,0,0,1.18-.161c.367-.089.715-.2,1.051-.3.368-.116.723-.225,1.056-.3a4.169,4.169,0,0,1,.917-.122,2.071,2.071,0,0,1,.634.093h0a2.117,2.117,0,0,1,.508.249,3.836,3.836,0,0,1,.736.667c.245.277.486.6.735.938.2.273.41.557.643.834a4.722,4.722,0,0,0,.825.8,4.827,4.827,0,0,0,1.023.546c.34.138.678.251,1,.361h0a3.913,3.913,0,0,0,1.257.185c.261,0,.47-.014.619-.013h.037c0,2.029-.033,3.883-.089,5.573a1.279,1.279,0,0,0,.388.958,1.277,1.277,0,0,0,.97.357c.093-.006.182-.009.265-.009a2.342,2.342,0,0,1,.725.1.882.882,0,0,1,.246.121.466.466,0,0,1,.09.086.563.563,0,0,1,.091.186,1.208,1.208,0,0,1,.045.355,2.987,2.987,0,0,1-.173.925,5.767,5.767,0,0,1-.549,1.157A6.769,6.769,0,0,0,22.082-8.9,5.559,5.559,0,0,0,21.9-7.808L17.253,0a20.287,20.287,0,0,1-2.708,2.579c-.469.378-.925.725-1.346,1.039s-.805.6-1.139.856a3.278,3.278,0,0,1-1.657.658c-.185.019-.448.034-.741.044S9.04,5.2,8.71,5.2c-.357,0-.717-.006-1.044-.017s-.619-.026-.832-.045a2.979,2.979,0,0,1-.871-.213A3.29,3.29,0,0,1,5.2,4.477c-.334-.26-.719-.541-1.14-.856C3.426,3.15,2.714,2.606,2,1.99A18.681,18.681,0,0,1,0,0ZM-4.4.889A3.4,3.4,0,0,1-5.769.606,3.6,3.6,0,0,1-7.331-.712,3.713,3.713,0,0,1-7.943-2.76a3.7,3.7,0,0,1,.695-2.167A3.626,3.626,0,0,1-6.4-5.766l3.693,6.2a3.537,3.537,0,0,1-.348.175A3.405,3.405,0,0,1-4.4.889ZM-11.3-8.483a4.008,4.008,0,0,1-.662-.72,4.072,4.072,0,0,1-.5-.969,7.116,7.116,0,0,1-.365-1.751c-.06-.632-.069-1.3-.077-1.972-.007-.559-.012-1.124-.053-1.685a7.319,7.319,0,0,0-.289-1.67h0a6.8,6.8,0,0,0-.7-1.462c-.28-.458-.591-.9-.9-1.341a17.178,17.178,0,0,1-1.393-2.223,6.139,6.139,0,0,1-.43-1.119,4.4,4.4,0,0,1-.156-1.145,4.4,4.4,0,0,1,.156-1.144,7.056,7.056,0,0,1,.728-1.677c.322-.557.707-1.11,1.095-1.665.307-.439.618-.883.9-1.341a6.754,6.754,0,0,0,.7-1.462,7.256,7.256,0,0,0,.29-1.671c.041-.56.046-1.125.053-1.684a17.672,17.672,0,0,1,.156-2.591,6.167,6.167,0,0,1,.286-1.132,4.072,4.072,0,0,1,.5-.969,4.04,4.04,0,0,1,.751-.794A6.652,6.652,0,0,1-9.7-41.563c.569-.253,1.188-.468,1.813-.683.514-.177,1.035-.355,1.542-.566a6.872,6.872,0,0,0,1.462-.795A6.87,6.87,0,0,0-3.71-44.768c.346-.422.667-.868.986-1.309A17.046,17.046,0,0,1-1.1-48.1a5.945,5.945,0,0,1,.889-.751,4.011,4.011,0,0,1,.978-.488h0a3.8,3.8,0,0,1,1.22-.186,6.95,6.95,0,0,1,1.608.215c.561.132,1.139.315,1.72.5.531.168,1.068.341,1.615.478a7.091,7.091,0,0,0,1.7.239,7.09,7.09,0,0,0,1.7-.239c.547-.137,1.085-.31,1.615-.478h0c.58-.186,1.158-.369,1.719-.5a7,7,0,0,1,1.608-.214,3.821,3.821,0,0,1,1.221.186,4.011,4.011,0,0,1,.978.488,6.845,6.845,0,0,1,1.311,1.209c.415.481.809,1.023,1.2,1.569.319.44.64.887.987,1.309a6.8,6.8,0,0,0,1.169,1.161,6.841,6.841,0,0,0,1.461.795c.507.211,1.029.389,1.542.566a16.652,16.652,0,0,1,2.363.95,5.763,5.763,0,0,1,.963.626,3.982,3.982,0,0,1,.751.794,4.072,4.072,0,0,1,.5.969,7.027,7.027,0,0,1,.365,1.75c.06.633.07,1.3.077,1.973.007.559.013,1.124.053,1.684a7.32,7.32,0,0,0,.29,1.671h0a6.754,6.754,0,0,0,.7,1.462c.281.458.592.9.9,1.341A17.177,17.177,0,0,1,33.5-26.8a6.111,6.111,0,0,1,.43,1.119,4.354,4.354,0,0,1,.156,1.144,4.356,4.356,0,0,1-.156,1.145,7.016,7.016,0,0,1-.728,1.677c-.321.557-.706,1.11-1.1,1.665-.306.439-.617.883-.9,1.341a6.754,6.754,0,0,0-.7,1.462,7.311,7.311,0,0,0-.29,1.67c-.04.561-.046,1.126-.053,1.685A17.534,17.534,0,0,1,30-11.3a6.166,6.166,0,0,1-.286,1.132,4.072,4.072,0,0,1-.5.969,4.008,4.008,0,0,1-.662.72,6.084,6.084,0,0,1-1.309.831,13.424,13.424,0,0,1-1.268.524,6.116,6.116,0,0,0-1.435-1.089l0-.022a4.209,4.209,0,0,1,.493-1.1,8.288,8.288,0,0,0,.791-1.677,5.51,5.51,0,0,0,.305-1.734,3.692,3.692,0,0,0-.221-1.291,3.055,3.055,0,0,0-.517-.895,3.169,3.169,0,0,0-1.315-.923,4.034,4.034,0,0,0-.734-.2c.039-1.575.056-3.269.056-5.1a1.264,1.264,0,0,0-.244-.75,2.79,2.79,0,0,0-.544-.567,2.516,2.516,0,0,0-.976-.463,3.58,3.58,0,0,0-.825-.085c-.252,0-.456.013-.619.012a1.417,1.417,0,0,1-.445-.051c-.325-.109-.619-.209-.853-.306a2.428,2.428,0,0,1-.485-.246,2.359,2.359,0,0,1-.372-.375c-.16-.191-.343-.437-.545-.71a12.567,12.567,0,0,0-1.237-1.5,5.809,5.809,0,0,0-.88-.722,4.652,4.652,0,0,0-1.126-.546h0a4.573,4.573,0,0,0-1.421-.218,6.67,6.67,0,0,0-1.493.187c-.455.106-.871.237-1.24.352-.335.1-.639.2-.894.26a2.581,2.581,0,0,1-.577.089,2.581,2.581,0,0,1-.577-.089c-.256-.062-.56-.156-.895-.26-.368-.115-.784-.246-1.24-.352a6.61,6.61,0,0,0-1.492-.187A4.562,4.562,0,0,0,3-27.464H3a4.67,4.67,0,0,0-1.126.546A6.367,6.367,0,0,0,.633-25.812c-.341.388-.624.773-.874,1.111-.2.273-.384.519-.545.71a2.368,2.368,0,0,1-.371.375,2.416,2.416,0,0,1-.485.247c-.235.1-.529.2-.854.305a1.38,1.38,0,0,1-.444.051c-.162,0-.367-.011-.62-.012a3.992,3.992,0,0,0-.522.03,2.818,2.818,0,0,0-.464.1,2.483,2.483,0,0,0-.737.362,2.753,2.753,0,0,0-.622.625,1.289,1.289,0,0,0-.244.75c0,1.83.018,3.525.056,5.1a4.462,4.462,0,0,0-.561.138,3.365,3.365,0,0,0-.969.5,3,3,0,0,0-.574.557,3.126,3.126,0,0,0-.529,1.026,3.762,3.762,0,0,0-.154,1.092,5.51,5.51,0,0,0,.305,1.734,8.293,8.293,0,0,0,.792,1.677,4.2,4.2,0,0,1,.492,1.1.18.18,0,0,0,.006.022,6.078,6.078,0,0,0-1.436,1.09A11.283,11.283,0,0,1-10.464-7.9,5.505,5.505,0,0,1-11.3-8.483Zm36.214,7.15A3.653,3.653,0,0,1,23.623.273a3.436,3.436,0,0,1-1.964.616A3.409,3.409,0,0,1,20.311.613a3.521,3.521,0,0,1-.347-.175l3.693-6.2a3.645,3.645,0,0,1,.847.839A3.7,3.7,0,0,1,25.2-2.76,3.717,3.717,0,0,1,24.916-1.333ZM12.131,7.346c-.029-.084,2.424-1.447,2.38-1.521l.215-.16c.647-.484,1.41-1.065,2.2-1.745.5-.433,1.014-.908,1.512-1.424a6.166,6.166,0,0,0,.873.463,5.981,5.981,0,0,0,2.351.481,5.98,5.98,0,0,0,2.38-.493A6.151,6.151,0,0,0,26.715.694,6.254,6.254,0,0,0,27.749-2.76a6.25,6.25,0,0,0-.384-2.165A12.234,12.234,0,0,0,28.99-5.69a7.984,7.984,0,0,0,1.224-.856,6.612,6.612,0,0,0,1.08-1.178,6.6,6.6,0,0,0,.82-1.569,9.5,9.5,0,0,0,.509-2.387c.074-.773.081-1.513.089-2.185.007-.558.014-1.079.047-1.529a4.85,4.85,0,0,1,.177-1.084,4.356,4.356,0,0,1,.447-.9c.222-.363.507-.772.813-1.21a19.564,19.564,0,0,0,1.593-2.561,8.778,8.778,0,0,0,.6-1.581,6.948,6.948,0,0,0,.243-1.807,6.94,6.94,0,0,0-.243-1.806,9.562,9.562,0,0,0-.982-2.29c-.4-.683-.826-1.3-1.214-1.852-.306-.438-.591-.847-.813-1.21a4.356,4.356,0,0,1-.447-.9h0a4.85,4.85,0,0,1-.177-1.085c-.033-.449-.04-.97-.047-1.528a19.856,19.856,0,0,0-.188-2.969,8.743,8.743,0,0,0-.41-1.6,6.6,6.6,0,0,0-.82-1.569,6.554,6.554,0,0,0-1.219-1.293,9.156,9.156,0,0,0-2.086-1.246c-.7-.313-1.4-.549-2.021-.764-.513-.176-.99-.342-1.39-.509a4.434,4.434,0,0,1-.92-.487,4.411,4.411,0,0,1-.721-.732c-.274-.335-.572-.744-.889-1.185A19.363,19.363,0,0,0,20.171-49.9a8.463,8.463,0,0,0-1.277-1.072,6.512,6.512,0,0,0-1.6-.795,6.381,6.381,0,0,0-2.025-.317,9.582,9.582,0,0,0-2.2.284c-.685.163-1.325.368-1.907.553h0c-.53.169-1.023.326-1.456.433a4.636,4.636,0,0,1-1.08.164,4.636,4.636,0,0,1-1.08-.164c-.434-.107-.927-.264-1.457-.433-.581-.185-1.221-.39-1.906-.553a9.582,9.582,0,0,0-2.2-.284,6.381,6.381,0,0,0-2.025.317h0a6.547,6.547,0,0,0-1.6.795,9.324,9.324,0,0,0-1.814,1.656c-.51.592-.945,1.2-1.339,1.742-.318.441-.615.85-.89,1.185a4.465,4.465,0,0,1-.721.733,4.487,4.487,0,0,1-.92.486c-.4.167-.877.333-1.39.509a18.837,18.837,0,0,0-2.726,1.106,8.388,8.388,0,0,0-1.381.9,6.613,6.613,0,0,0-1.219,1.293,6.678,6.678,0,0,0-.82,1.569,9.548,9.548,0,0,0-.509,2.387c-.074.773-.081,1.514-.089,2.185-.007.558-.014,1.079-.047,1.528A4.858,4.858,0,0,1-15.68-32.6a4.421,4.421,0,0,1-.448.9c-.222.364-.506.772-.813,1.21a19.5,19.5,0,0,0-1.593,2.561,8.778,8.778,0,0,0-.6,1.581,6.94,6.94,0,0,0-.243,1.806,6.948,6.948,0,0,0,.243,1.807,9.524,9.524,0,0,0,.983,2.29c.394.683.825,1.3,1.213,1.852.307.438.591.847.813,1.21a4.369,4.369,0,0,1,.448.9h0a4.879,4.879,0,0,1,.176,1.085c.034.45.04.971.047,1.529a19.732,19.732,0,0,0,.189,2.969,8.659,8.659,0,0,0,.409,1.6,6.678,6.678,0,0,0,.82,1.569,6.579,6.579,0,0,0,1.081,1.178A8.58,8.58,0,0,0-11.1-5.357c.334.162.666.3.993.431a6.279,6.279,0,0,0-.384,2.166A6.244,6.244,0,0,0-8.719,1.612,6.09,6.09,0,0,0-6.783,2.947,5.975,5.975,0,0,0-4.4,3.44a5.981,5.981,0,0,0,2.351-.481,6.029,6.029,0,0,0,.874-.464A24.916,24.916,0,0,0,1.108,4.567c.471.38.92.722,1.327,1.027-.123.13,1.12.637,1.059.819l1.05.642m-.034,0c.159.083.321.161.49.231a5.545,5.545,0,0,0,1.616.392c.281.024.608.041.967.053s.742.018,1.127.018c.356,0,.71,0,1.04-.017s.636-.028.906-.055h0a5.837,5.837,0,0,0,1.67-.428" transform="translate(1416.031 5129.229)" fill="none" stroke="#56cdf2" stroke-width="0.381"/></g></svg>