<svg xmlns="http://www.w3.org/2000/svg" viewBox="0 0 1890.006 383.507"><path d="M736.837,885.566h-.058c-24.122,0-47.936-1.106-70.78-3.279-11.2-1.066-22.481-2.423-33.522-4.033v-6.77c9.879,1.082,19.99,1.942,30.054,2.554,13.317.81,27.072,1.221,40.884,1.221,12.923,0,26.248-.36,39.605-1.07,13.06-.694,26.538-1.744,40.06-3.12,26.052-2.653,53.427-6.638,81.365-11.845,26.428-4.925,54.292-11.117,82.819-18.4,26.667-6.812,54.939-14.843,84.029-23.871,27.1-8.41,54.9-17.649,85-28.245,26.823-9.445,54.862-19.756,85.718-31.525,57.5-21.932,116.029-45.616,172.628-68.52l.422-.17.014-.006c56.626-22.914,115.18-46.609,172.446-68.459,30.807-11.755,58.808-22.057,85.6-31.5,30.016-10.575,57.772-19.8,84.856-28.219,29.04-9.019,57.255-17.042,83.864-23.847,28.465-7.279,56.265-13.465,82.629-18.385,27.871-5.2,55.172-9.182,81.147-11.831,13.493-1.376,26.931-2.425,39.941-3.118,13.326-.71,26.609-1.069,39.479-1.069a653.029,653.029,0,0,1,66.315,3.3,570.906,570.906,0,0,1,64.723,10.36c10.662,2.356,21.333,5.061,31.716,8.04,10.515,3.017,21.033,6.4,31.262,10.059,10.375,3.711,20.733,7.8,30.787,12.165,10.2,4.423,20.394,9.253,30.3,14.355,10.029,5.166,20.05,10.761,29.784,16.63,9.853,5.941,19.695,12.33,29.252,18.991,9.665,6.736,19.322,13.949,28.7,21.436,9.477,7.566,18.943,15.63,28.135,23.968,9.3,8.436,18.565,17.38,27.546,26.584,9.086,9.311,18.15,19.164,26.941,29.285,8.876,10.221,17.73,21.011,26.315,32.071,8.669,11.17,17.306,22.926,25.67,34.942v86.921c-.425-.544-.849-1.085-1.172-1.495-9.594-12.228-19.468-24.188-29.347-35.548-9.773-11.237-19.824-22.2-29.874-32.582-9.949-10.278-20.172-20.273-30.385-29.707-10.111-9.341-20.5-18.4-30.878-26.928-10.268-8.435-20.818-16.59-31.356-24.238-10.418-7.561-21.122-14.843-31.817-21.643-10.565-6.72-21.42-13.16-32.26-19.142-10.707-5.908-21.7-11.538-32.689-16.732-10.841-5.128-21.978-9.978-33.1-14.416-10.964-4.375-22.233-8.477-33.5-12.192-11.079-3.655-22.475-7.04-33.873-10.062-11.214-2.972-22.732-5.671-34.235-8.024a660.033,660.033,0,0,0-69.489-10.311c-22.834-2.17-46.634-3.27-70.738-3.27-24.495,0-50.09,1.136-76.074,3.377-24.776,2.135-50.74,5.346-77.169,9.543-24.98,3.966-51.259,8.955-78.107,14.828-25.082,5.487-51.624,11.958-78.889,19.233-25.375,6.771-51.385,14.215-79.515,22.756-25.067,7.612-51.23,15.92-79.984,25.4-53.464,17.625-108,36.728-160.741,55.2h-.009l-.172.059c-52.7,18.461-107.2,37.55-160.7,55.186-28.752,9.479-54.906,17.784-79.955,25.39-28.13,8.542-54.13,15.982-79.485,22.747-27.23,7.267-53.762,13.735-78.859,19.225-26.824,5.868-53.094,10.855-78.079,14.823-26.427,4.2-52.382,7.4-77.144,9.538C786.9,884.426,761.315,885.566,736.837,885.566Z" transform="translate(-632.477 -502.059)" fill="#fff" opacity="0.2"/></svg>