<svg xmlns="http://www.w3.org/2000/svg" width="212.25" height="212.25" viewBox="0 0 212.25 212.25"><g transform="translate(-479.225 -4199.001)"><path d="M0,0A106.125,106.125,0,0,0,106.125-106.125,106.125,106.125,0,0,0,0-212.25,106.125,106.125,0,0,0-106.125-106.125,106.125,106.125,0,0,0,0,0" transform="translate(585.35 4411.251)" fill="#ebecec"/><path d="M0,0C-.6.331-1.192.671-1.764,1.01c-4.727,2.725-9.193,5.3-18.281,5.3S-33.588,3.74-38.308,1.02c-5.007-2.89-10.183-5.877-20.439-5.877S-74.172-1.874-79.174,1.012c-4.719,2.724-9.176,5.3-18.276,5.3S-110.993,3.74-115.709,1.02c-5.007-2.89-10.185-5.877-20.44-5.877a2.083,2.083,0,0,0-2.112,2.05,2.085,2.085,0,0,0,2.112,2.052c9.093,0,13.548,2.57,18.266,5.292,5,2.887,10.178,5.874,20.433,5.874s15.421-2.982,20.427-5.868c4.722-2.725,9.183-5.3,18.276-5.3S-45.2,1.814-40.479,4.536c5.006,2.888,10.183,5.875,20.434,5.875S-4.616,7.426.383,4.54L.72,4.346c.463-.267.926-.533,1.393-.8a2.058,2.058,0,0,0,1-1.241,1.992,1.992,0,0,0-.2-1.571A2.168,2.168,0,0,0,0,0" transform="translate(654.855 4329.933)" fill="#ef9300"/><path d="M0,0C-.6.331-1.192.671-1.764,1.01c-4.727,2.725-9.193,5.3-18.281,5.3S-33.588,3.74-38.308,1.02c-5.007-2.89-10.183-5.877-20.439-5.877S-74.172-1.874-79.174,1.012c-4.719,2.724-9.176,5.3-18.276,5.3S-110.993,3.74-115.709,1.02c-5.007-2.89-10.185-5.877-20.44-5.877a2.083,2.083,0,0,0-2.112,2.05,2.085,2.085,0,0,0,2.112,2.052c9.093,0,13.548,2.57,18.266,5.292,5,2.887,10.178,5.874,20.433,5.874s15.421-2.982,20.427-5.868c4.722-2.725,9.183-5.3,18.276-5.3S-45.2,1.814-40.479,4.536c5.006,2.888,10.183,5.875,20.434,5.875S-4.616,7.426.383,4.54L.72,4.346c.463-.267.926-.533,1.393-.8a2.058,2.058,0,0,0,1-1.241,1.992,1.992,0,0,0-.2-1.571A2.168,2.168,0,0,0,0,0Z" transform="translate(654.855 4329.933)" fill="none" stroke="#ebecec" stroke-width="0.25"/><path d="M0,0C-.6.331-1.192.671-1.764,1.01c-4.727,2.725-9.193,5.3-18.281,5.3S-33.588,3.74-38.308,1.02c-5.008-2.89-10.185-5.877-20.439-5.877S-74.17-1.875-79.174,1.012c-4.719,2.724-9.176,5.3-18.276,5.3s-13.543-2.569-18.26-5.29c-5.007-2.889-10.186-5.876-20.439-5.876a2.083,2.083,0,0,0-2.112,2.05,2.085,2.085,0,0,0,2.112,2.052c9.093,0,13.548,2.57,18.266,5.292,5,2.887,10.178,5.874,20.433,5.874s15.421-2.982,20.427-5.868c4.722-2.725,9.183-5.3,18.276-5.3S-45.2,1.814-40.479,4.536c5.006,2.888,10.183,5.875,20.434,5.875S-4.616,7.426.383,4.54L.72,4.346c.463-.267.926-.533,1.394-.794a2.064,2.064,0,0,0,1-1.242,1.992,1.992,0,0,0-.2-1.571A2.168,2.168,0,0,0,0,0" transform="translate(654.855 4342.283)" fill="#ef9300"/><path d="M0,0C-.6.331-1.192.671-1.764,1.01c-4.727,2.725-9.193,5.3-18.281,5.3S-33.588,3.74-38.308,1.02c-5.008-2.89-10.185-5.877-20.439-5.877S-74.17-1.875-79.174,1.012c-4.719,2.724-9.176,5.3-18.276,5.3s-13.543-2.569-18.26-5.29c-5.007-2.889-10.186-5.876-20.439-5.876a2.083,2.083,0,0,0-2.112,2.05,2.085,2.085,0,0,0,2.112,2.052c9.093,0,13.548,2.57,18.266,5.292,5,2.887,10.178,5.874,20.433,5.874s15.421-2.982,20.427-5.868c4.722-2.725,9.183-5.3,18.276-5.3S-45.2,1.814-40.479,4.536c5.006,2.888,10.183,5.875,20.434,5.875S-4.616,7.426.383,4.54L.72,4.346c.463-.267.926-.533,1.394-.794a2.064,2.064,0,0,0,1-1.242,1.992,1.992,0,0,0-.2-1.571A2.168,2.168,0,0,0,0,0Z" transform="translate(654.855 4342.283)" fill="none" stroke="#ebecec" stroke-width="0.25"/><path d="M0,0C-22.578,0-35.5-14.272-41.157-22.7c-.07-.165-.355-.6-1.235-1.909-.425-.633-.857-1.276-1.092-1.647-.737-1.169-7.431-11.614-15.321-18.274C-76.395-58.891-94.972-59.2-95.758-59.208c-25.416,0-35.292,10.195-39.1,18.746a5.969,5.969,0,0,0-.109,4.679,6.258,6.258,0,0,0,3.459,3.482,6.648,6.648,0,0,0,4.535.2l.166-.052a14.025,14.025,0,0,0,.1,3.908A5.733,5.733,0,0,0-122.3-23.6a5.751,5.751,0,0,0,6.023-2.085,13.324,13.324,0,0,1,7.906-4.8c3.885-.045,6.976,1.057,9.247,3.309,5.259,5.2,4.883,14.922,4.865,15.338a23.4,23.4,0,0,1-1.007,5.9,18.5,18.5,0,0,1-9.468,11.092A20.774,20.774,0,0,1-120.153,6.4a62.867,62.867,0,0,0-18.6-3.3,2.207,2.207,0,0,0-2.237,2.17,2.207,2.207,0,0,0,2.237,2.17,58.418,58.418,0,0,1,17.22,3.094,25.228,25.228,0,0,0,7.523,1.14,25.282,25.282,0,0,0,11.349-2.669,22.858,22.858,0,0,0,11.688-13.7,27.784,27.784,0,0,0,1.168-6.932c.026-.484.573-11.915-6.126-18.563-3.2-3.174-7.432-4.71-12.6-4.618a1.655,1.655,0,0,0-.3.005,17.558,17.558,0,0,0-11.041,6.528,1.329,1.329,0,0,1-1.37.457,1.348,1.348,0,0,1-1.054-1.095,10.222,10.222,0,0,1,.58-5.317,2.1,2.1,0,0,0-.063-1.647,2.195,2.195,0,0,0-1.281-1.146,2.352,2.352,0,0,0-.936-.122,22.091,22.091,0,0,0-4.334.915,1.974,1.974,0,0,1-2.476-1.183,1.777,1.777,0,0,1,.071-1.333c3.282-7.356,12.015-16.124,34.982-16.124A60.279,60.279,0,0,1-61.1-40.737c4.265,3.283,11.653,13.2,13.866,16.711.513.811,1.411,2.257,1.471,2.357a59.626,59.626,0,0,0,15.2,16.254A51.174,51.174,0,0,0,0,4.341,2.207,2.207,0,0,0,2.238,2.17,2.208,2.208,0,0,0,0,0" transform="translate(656.76 4309.665)" fill="#ef9300"/><path d="M0,0C-22.578,0-35.5-14.272-41.157-22.7c-.07-.165-.355-.6-1.235-1.909-.425-.633-.857-1.276-1.092-1.647-.737-1.169-7.431-11.614-15.321-18.274C-76.395-58.891-94.972-59.2-95.758-59.208c-25.416,0-35.292,10.195-39.1,18.746a5.969,5.969,0,0,0-.109,4.679,6.258,6.258,0,0,0,3.459,3.482,6.648,6.648,0,0,0,4.535.2l.166-.052a14.025,14.025,0,0,0,.1,3.908A5.733,5.733,0,0,0-122.3-23.6a5.751,5.751,0,0,0,6.023-2.085,13.324,13.324,0,0,1,7.906-4.8c3.885-.045,6.976,1.057,9.247,3.309,5.259,5.2,4.883,14.922,4.865,15.338a23.4,23.4,0,0,1-1.007,5.9,18.5,18.5,0,0,1-9.468,11.092A20.774,20.774,0,0,1-120.153,6.4a62.867,62.867,0,0,0-18.6-3.3,2.207,2.207,0,0,0-2.237,2.17,2.207,2.207,0,0,0,2.237,2.17,58.418,58.418,0,0,1,17.22,3.094,25.228,25.228,0,0,0,7.523,1.14,25.282,25.282,0,0,0,11.349-2.669,22.858,22.858,0,0,0,11.688-13.7,27.784,27.784,0,0,0,1.168-6.932c.026-.484.573-11.915-6.126-18.563-3.2-3.174-7.432-4.71-12.6-4.618a1.655,1.655,0,0,0-.3.005,17.558,17.558,0,0,0-11.041,6.528,1.329,1.329,0,0,1-1.37.457,1.348,1.348,0,0,1-1.054-1.095,10.222,10.222,0,0,1,.58-5.317,2.1,2.1,0,0,0-.063-1.647,2.195,2.195,0,0,0-1.281-1.146,2.352,2.352,0,0,0-.936-.122,22.091,22.091,0,0,0-4.334.915,1.974,1.974,0,0,1-2.476-1.183,1.777,1.777,0,0,1,.071-1.333c3.282-7.356,12.015-16.124,34.982-16.124A60.279,60.279,0,0,1-61.1-40.737c4.265,3.283,11.653,13.2,13.866,16.711.513.811,1.411,2.257,1.471,2.357a59.626,59.626,0,0,0,15.2,16.254A51.174,51.174,0,0,0,0,4.341,2.207,2.207,0,0,0,2.238,2.17,2.208,2.208,0,0,0,0,0Z" transform="translate(656.76 4309.665)" fill="none" stroke="#ebecec" stroke-width="0.25"/></g></svg>