<svg xmlns="http://www.w3.org/2000/svg" width="212.25" height="212.25" viewBox="0 0 212.25 212.25"><g transform="translate(-473.953 -3005.511)"><path d="M0,0A106.125,106.125,0,0,0,106.125-106.125,106.125,106.125,0,0,0,0-212.25,106.125,106.125,0,0,0-106.125-106.125,106.125,106.125,0,0,0,0,0" transform="translate(580.078 3217.761)" fill="#ebecec"/><path d="M0,0A38.117,38.117,0,0,0,38.083,38.084,38.118,38.118,0,0,0,76.167,0,38.083,38.083,0,0,0,0,0M71.574-2.24H60.359a62.171,62.171,0,0,0-1.543-12.321h9.526A33.4,33.4,0,0,1,71.574-2.24M4.593,2.24H15.808A62.192,62.192,0,0,0,17.35,14.562H7.825A33.4,33.4,0,0,1,4.593,2.24m15.7,0H35.843V14.562H22.036A56.865,56.865,0,0,1,20.29,2.24m15.553,16.8V33.295c-3.694-.9-7.224-4-10.063-9.046A37.167,37.167,0,0,1,23.4,19.042Zm4.481,14.253V19.042H52.766a37.167,37.167,0,0,1-2.379,5.207c-2.839,5.048-6.369,8.141-10.063,9.046m0-18.733V2.24H55.877a56.865,56.865,0,0,1-1.746,12.322ZM60.359,2.24H71.574a33.42,33.42,0,0,1-3.231,12.322H58.818A62.267,62.267,0,0,0,60.359,2.24M55.877-2.24H40.324V-14.561H54.13A56.784,56.784,0,0,1,55.877-2.24m-15.553-16.8V-33.294c3.694.907,7.224,4.007,10.063,9.054a37.261,37.261,0,0,1,2.377,5.2ZM35.843-33.294v14.252H23.4a37.377,37.377,0,0,1,2.377-5.2c2.839-5.047,6.369-8.147,10.063-9.054m0,18.733V-2.24H20.29a56.793,56.793,0,0,1,1.747-12.321ZM15.808-2.24H4.593A33.4,33.4,0,0,1,7.825-14.561h9.526A62.171,62.171,0,0,0,15.808-2.24M10.393,19.042H18.72a43.815,43.815,0,0,0,3.157,7.4,31.542,31.542,0,0,0,3.055,4.492,33.641,33.641,0,0,1-14.539-11.9m40.842,11.9a31.46,31.46,0,0,0,3.055-4.492,43.734,43.734,0,0,0,3.157-7.4h8.327a33.641,33.641,0,0,1-14.539,11.9M65.774-19.042H57.445a43.782,43.782,0,0,0-3.155-7.394,31.477,31.477,0,0,0-3.064-4.5,33.649,33.649,0,0,1,14.548,11.9m-40.833-11.9a31.559,31.559,0,0,0-3.064,4.5,43.781,43.781,0,0,0-3.155,7.394H10.393a33.649,33.649,0,0,1,14.548-11.9" transform="translate(543.023 3112.463)" fill="#b81370"/><path d="M0,0A38.117,38.117,0,0,0,38.083,38.084,38.118,38.118,0,0,0,76.167,0,38.083,38.083,0,0,0,0,0ZM71.574-2.24H60.359a62.171,62.171,0,0,0-1.543-12.321h9.526A33.4,33.4,0,0,1,71.574-2.24ZM4.593,2.24H15.808A62.192,62.192,0,0,0,17.35,14.562H7.825A33.4,33.4,0,0,1,4.593,2.24Zm15.7,0H35.843V14.562H22.036A56.865,56.865,0,0,1,20.29,2.24Zm15.553,16.8V33.295c-3.694-.9-7.224-4-10.063-9.046A37.167,37.167,0,0,1,23.4,19.042Zm4.481,14.253V19.042H52.766a37.167,37.167,0,0,1-2.379,5.207C47.548,29.3,44.018,32.39,40.324,33.295Zm0-18.733V2.24H55.877a56.865,56.865,0,0,1-1.746,12.322ZM60.359,2.24H71.574a33.42,33.42,0,0,1-3.231,12.322H58.818A62.267,62.267,0,0,0,60.359,2.24ZM55.877-2.24H40.324V-14.561H54.13A56.784,56.784,0,0,1,55.877-2.24Zm-15.553-16.8V-33.294c3.694.907,7.224,4.007,10.063,9.054a37.261,37.261,0,0,1,2.377,5.2ZM35.843-33.294v14.252H23.4a37.377,37.377,0,0,1,2.377-5.2C28.619-29.287,32.149-32.387,35.843-33.294Zm0,18.733V-2.24H20.29a56.793,56.793,0,0,1,1.747-12.321ZM15.808-2.24H4.593A33.4,33.4,0,0,1,7.825-14.561h9.526A62.171,62.171,0,0,0,15.808-2.24ZM10.393,19.042H18.72a43.815,43.815,0,0,0,3.157,7.4,31.542,31.542,0,0,0,3.055,4.492A33.641,33.641,0,0,1,10.393,19.042Zm40.842,11.9a31.46,31.46,0,0,0,3.055-4.492,43.734,43.734,0,0,0,3.157-7.4h8.327A33.641,33.641,0,0,1,51.235,30.937ZM65.774-19.042H57.445a43.782,43.782,0,0,0-3.155-7.394,31.477,31.477,0,0,0-3.064-4.5A33.649,33.649,0,0,1,65.774-19.042Zm-40.833-11.9a31.559,31.559,0,0,0-3.064,4.5,43.781,43.781,0,0,0-3.155,7.394H10.393A33.649,33.649,0,0,1,24.941-30.941Z" transform="translate(543.023 3112.463)" fill="none" stroke="#ebecec" stroke-width="0.7"/><path d="M0,0A2.247,2.247,0,0,0-.592-.4,52.552,52.552,0,0,0-6.044-2.47c-3.029-.959-6.581-1.96-9.844-1.146v-.017a11.364,11.364,0,0,0-3.363,1.565,51.312,51.312,0,0,0,2.1-7.175,51.226,51.226,0,0,0,.9-6.527c.915-.494,2.576-1.419,4.458-2.636,2.774-1.793,5.92-3.992,7.684-6.782,1.5-2.373,1.988-5.441,2.336-8.1s.411-4.857.411-4.857a2.239,2.239,0,0,0-2.169-2.308l-.071,0v0a2.258,2.258,0,0,0-.648.094,53.189,53.189,0,0,0-5.46,2.048c-2.88,1.267-6.167,2.854-8.089,5.569a51.631,51.631,0,0,0-2.61-7.548,2.247,2.247,0,0,0,.207-.207s1.493-2.277,3.019-5.207,3.188-6.407,3.342-9.7c.132-2.805-.96-5.7-1.969-8.182s-2.047-4.428-2.047-4.428a2.24,2.24,0,0,0-2.013-1.2,2.24,2.24,0,0,0-1.584.7,52.792,52.792,0,0,0-3.736,4.471c-1.9,2.551-4.009,5.585-4.306,8.935-.025.279.031.556.03.835a51.366,51.366,0,0,0-6.873-6.356c-.01-.008-.024-.011-.034-.019-.108-1.073-.3-2.636-.631-4.418-.587-3.124-1.389-6.733-3.649-9.224s-5.771-3.629-8.821-4.515a53.746,53.746,0,0,0-5.679-1.313,2.316,2.316,0,0,0-.455-.045v.019a2.24,2.24,0,0,0-2.145,2.332,1.979,1.979,0,0,0,.027.267s.357,2.176,1.05,4.761,1.571,5.563,3.369,7.718c2.115,2.534,5.53,4.3,8.515,5.714s5.556,2.319,5.556,2.319a2.229,2.229,0,0,0,.267.038A47.041,47.041,0,0,1-21.533-10.144,47.035,47.035,0,0,1-43.514,20.738c-5.956,3.551-16.719,7.688-24.092,11.454-7.374-3.766-18.135-7.9-24.091-11.454a47.04,47.04,0,0,1-21.982-30.881A47.042,47.042,0,0,1-96.266-56.971a2.154,2.154,0,0,0,.29-.041s2.572-.906,5.557-2.319,6.4-3.179,8.514-5.714c1.8-2.155,2.676-5.133,3.369-7.719s1.051-4.76,1.051-4.76A2.24,2.24,0,0,0-79.332-80.1a2.231,2.231,0,0,0-.516-.025v-.019q-.106.018-.21.045a53.5,53.5,0,0,0-5.68,1.313c-3.049.887-6.56,2.028-8.82,4.515s-3.062,6.1-3.649,9.224c-.333,1.77-.52,3.325-.629,4.4-.011.008-.025.011-.036.02a51.321,51.321,0,0,0-6.874,6.357c0-.279.055-.557.03-.836-.3-3.351-2.408-6.385-4.305-8.935a52.682,52.682,0,0,0-3.737-4.471,2.241,2.241,0,0,0-1.6-.7,2.24,2.24,0,0,0-1.995,1.2s-1.039,1.949-2.048,4.428-2.1,5.378-1.969,8.182c.155,3.3,1.817,6.775,3.343,9.7s3.019,5.207,3.019,5.207a2.14,2.14,0,0,0,.207.208,51.607,51.607,0,0,0-2.611,7.549c-1.922-2.716-5.209-4.3-8.088-5.569a53.313,53.313,0,0,0-5.461-2.049,2.3,2.3,0,0,0-.665-.094h0a2.24,2.24,0,0,0-2.223,2.257c0,.018,0,.035,0,.053,0,0,.064,2.2.411,4.857s.837,5.721,2.336,8.094c1.764,2.791,4.91,4.989,7.684,6.782,1.882,1.217,3.543,2.142,4.457,2.636a51.587,51.587,0,0,0,.9,6.527,51.4,51.4,0,0,0,2.094,7.15,11.349,11.349,0,0,0-3.354-1.559v.018c-3.263-.814-6.815.188-9.845,1.146A52.283,52.283,0,0,0-134.62-.413a2.241,2.241,0,0,0-1.1,2.97,2.226,2.226,0,0,0,.4.591s1.505,1.615,3.517,3.378,4.405,3.751,7.1,4.542c3.167.932,6.989.5,10.256,0,2.067-.307,3.794-.671,4.85-.91a51.48,51.48,0,0,0,8.56,9.292,10.091,10.091,0,0,0-1.736.142h0c-3.292.688-6.065,3.137-8.375,5.32a51.875,51.875,0,0,0-4,4.236,2.24,2.24,0,0,0,.294,3.154,2.255,2.255,0,0,0,.616.364s2.059.8,4.638,1.513,5.6,1.447,8.366.989c3.256-.54,6.511-2.586,9.241-4.445,1.758-1.2,3.177-2.3,4.015-2.969,5.04,2.429,10.788,4.835,15.511,7.05l-7.38,4.039a2.241,2.241,0,0,0-.941,3.026,2.241,2.241,0,0,0,3.025.941l.069-.038,10.1-5.527,10.1,5.528a2.241,2.241,0,0,0,3.056-.835,2.239,2.239,0,0,0-.835-3.056c-.023-.013-.046-.027-.068-.038l-7.381-4.04c4.722-2.215,10.472-4.621,15.512-7.051.838.671,2.256,1.772,4.015,2.969,2.729,1.86,5.984,3.9,9.24,4.446,2.769.458,5.787-.278,8.366-.989s4.638-1.514,4.638-1.514a2.24,2.24,0,0,0,1.273-2.9,2.249,2.249,0,0,0-.362-.616,52.2,52.2,0,0,0-4-4.236c-2.31-2.182-5.082-4.632-8.374-5.32h0a9.993,9.993,0,0,0-1.736-.142,51.575,51.575,0,0,0,8.55-9.276c1.053.238,2.786.6,4.859.911,3.267.485,7.09.915,10.256,0,2.693-.791,5.085-2.778,7.1-4.541S.117,3.166.117,3.166A2.241,2.241,0,0,0,0,0M-21.594-61.363c.613-.824.681-.824,1.208-1.452h0c.2.448.211.408.42.919a20.421,20.421,0,0,1,1.645,6.283c-.08,1.706-1.423,5.13-2.835,7.841-.456.875-.5.858-.9,1.557-.348-.618-.387-.589-.761-1.339-1.282-2.571-2.334-5.8-2.214-7.158s1.724-4.345,3.439-6.651M-42.876-63.4c-2.762-1.308-5.888-3.221-6.983-4.533a20.5,20.5,0,0,1-2.494-6.012c-.144-.537-.107-.51-.219-.989h0c.8.184.857.143,1.847.43,2.758.8,5.842,2.222,6.755,3.229s2.033,4.221,2.564,7.044c.156.827.1.826.2,1.532-.748-.314-.775-.278-1.672-.7m-50.93-.833c.532-2.824,1.651-6.038,2.564-7.044s4-2.427,6.756-3.229c.99-.287,1.045-.247,1.846-.431v0c-.111.479-.074.452-.218.989a20.478,20.478,0,0,1-2.494,6.011c-1.1,1.313-4.221,3.227-6.983,4.533-.9.426-.924.386-1.672.7.1-.706.046-.7.2-1.532m-23.084,8.62a20.392,20.392,0,0,1,1.645-6.283c.209-.513.22-.47.42-.918h0c.527.629.594.629,1.207,1.453,1.715,2.306,3.32,5.3,3.44,6.651s-.932,4.587-2.214,7.158c-.374.749-.414.72-.762,1.339-.4-.7-.445-.682-.9-1.558-1.412-2.71-2.755-6.134-2.835-7.841m1.767,62.26c-3.023.449-6.692.6-8.33.113a20.5,20.5,0,0,1-5.408-3.605c-.419-.368-.376-.364-.736-.7a18.972,18.972,0,0,1,1.777-.673c2.739-.867,6.093-1.4,7.412-1.067v0c1.319.327,4.036,2.375,6.047,4.427.585.6.544.625,1.015,1.155-.8.157-.795.207-1.777.349m-4.3-27.9c-.7-.412-.731-.38-1.567-.918-2.566-1.659-5.423-3.964-6.335-5.409a20.5,20.5,0,0,1-1.672-6.283c-.072-.549-.039-.517-.087-1.006.768.286.828.251,1.767.665,2.63,1.157,5.511,2.968,6.284,4.086s1.454,4.448,1.61,7.316c.045.841,0,.836,0,1.549m24.9,48.27c-2.526,1.72-5.771,3.448-7.456,3.728a20.483,20.483,0,0,1-6.441-.892c-.536-.148-.492-.171-.962-.314.563-.6.556-.667,1.3-1.374,2.088-1.973,4.873-3.913,6.2-4.191v0c1.33-.278,4.665.386,7.368,1.356.792.287.768.327,1.427.6-.649.485-.625.527-1.444,1.085m61.186-3.045c1.331.278,4.116,2.218,6.2,4.191.748.708.741.777,1.3,1.375-.47.147-.426.165-.963.313a20.48,20.48,0,0,1-6.44.893c-1.685-.279-4.93-2.009-7.456-3.729-.819-.558-.8-.6-1.444-1.085.659-.273.634-.318,1.427-.6,2.7-.972,6.029-1.635,7.359-1.357v0ZM-15.792-22.8c.155-2.868.837-6.2,1.61-7.316S-10.528-33.043-7.9-34.2c.94-.412,1-.381,1.768-.665-.048.489-.016.457-.088,1.006A20.474,20.474,0,0,1-7.89-27.576c-.912,1.444-3.769,3.75-6.335,5.409-.836.54-.866.508-1.567.918,0-.713-.046-.708,0-1.549M-6.35,3.157a20.448,20.448,0,0,1-5.408,3.605c-1.639.482-5.308.336-8.331-.112-.982-.148-.98-.2-1.776-.35.471-.53.43-.558,1.015-1.155,2.011-2.051,4.728-4.1,6.047-4.427v0c1.319-.327,4.673.2,7.412,1.067.984.313,1.008.381,1.776.674-.36.335-.316.331-.735.7" transform="translate(648.713 3132.128)" fill="#b81370"/><path d="M0,0A2.247,2.247,0,0,0-.592-.4,52.552,52.552,0,0,0-6.044-2.47c-3.029-.959-6.581-1.96-9.844-1.146v-.017a11.364,11.364,0,0,0-3.363,1.565,51.312,51.312,0,0,0,2.1-7.175,51.226,51.226,0,0,0,.9-6.527c.915-.494,2.576-1.419,4.458-2.636,2.774-1.793,5.92-3.992,7.684-6.782,1.5-2.373,1.988-5.441,2.336-8.1s.411-4.857.411-4.857a2.239,2.239,0,0,0-2.169-2.308l-.071,0v0a2.258,2.258,0,0,0-.648.094,53.189,53.189,0,0,0-5.46,2.048c-2.88,1.267-6.167,2.854-8.089,5.569a51.631,51.631,0,0,0-2.61-7.548,2.247,2.247,0,0,0,.207-.207s1.493-2.277,3.019-5.207,3.188-6.407,3.342-9.7c.132-2.805-.96-5.7-1.969-8.182s-2.047-4.428-2.047-4.428a2.24,2.24,0,0,0-2.013-1.2,2.24,2.24,0,0,0-1.584.7,52.792,52.792,0,0,0-3.736,4.471c-1.9,2.551-4.009,5.585-4.306,8.935-.025.279.031.556.03.835a51.366,51.366,0,0,0-6.873-6.356c-.01-.008-.024-.011-.034-.019-.108-1.073-.3-2.636-.631-4.418-.587-3.124-1.389-6.733-3.649-9.224s-5.771-3.629-8.821-4.515a53.746,53.746,0,0,0-5.679-1.313,2.316,2.316,0,0,0-.455-.045v.019a2.24,2.24,0,0,0-2.145,2.332,1.979,1.979,0,0,0,.027.267s.357,2.176,1.05,4.761,1.571,5.563,3.369,7.718c2.115,2.534,5.53,4.3,8.515,5.714s5.556,2.319,5.556,2.319a2.229,2.229,0,0,0,.267.038A47.041,47.041,0,0,1-21.533-10.144,47.035,47.035,0,0,1-43.514,20.738c-5.956,3.551-16.719,7.688-24.092,11.454-7.374-3.766-18.135-7.9-24.091-11.454a47.04,47.04,0,0,1-21.982-30.881A47.042,47.042,0,0,1-96.266-56.971a2.154,2.154,0,0,0,.29-.041s2.572-.906,5.557-2.319,6.4-3.179,8.514-5.714c1.8-2.155,2.676-5.133,3.369-7.719s1.051-4.76,1.051-4.76A2.24,2.24,0,0,0-79.332-80.1a2.231,2.231,0,0,0-.516-.025v-.019q-.106.018-.21.045a53.5,53.5,0,0,0-5.68,1.313c-3.049.887-6.56,2.028-8.82,4.515s-3.062,6.1-3.649,9.224c-.333,1.77-.52,3.325-.629,4.4-.011.008-.025.011-.036.02a51.321,51.321,0,0,0-6.874,6.357c0-.279.055-.557.03-.836-.3-3.351-2.408-6.385-4.305-8.935a52.682,52.682,0,0,0-3.737-4.471,2.241,2.241,0,0,0-1.6-.7,2.24,2.24,0,0,0-1.995,1.2s-1.039,1.949-2.048,4.428-2.1,5.378-1.969,8.182c.155,3.3,1.817,6.775,3.343,9.7s3.019,5.207,3.019,5.207a2.14,2.14,0,0,0,.207.208,51.607,51.607,0,0,0-2.611,7.549c-1.922-2.716-5.209-4.3-8.088-5.569a53.313,53.313,0,0,0-5.461-2.049,2.3,2.3,0,0,0-.665-.094h0a2.24,2.24,0,0,0-2.223,2.257c0,.018,0,.035,0,.053,0,0,.064,2.2.411,4.857s.837,5.721,2.336,8.094c1.764,2.791,4.91,4.989,7.684,6.782,1.882,1.217,3.543,2.142,4.457,2.636a51.587,51.587,0,0,0,.9,6.527,51.4,51.4,0,0,0,2.094,7.15,11.349,11.349,0,0,0-3.354-1.559v.018c-3.263-.814-6.815.188-9.845,1.146A52.283,52.283,0,0,0-134.62-.413a2.241,2.241,0,0,0-1.1,2.97,2.226,2.226,0,0,0,.4.591s1.505,1.615,3.517,3.378,4.405,3.751,7.1,4.542c3.167.932,6.989.5,10.256,0,2.067-.307,3.794-.671,4.85-.91a51.48,51.48,0,0,0,8.56,9.292,10.091,10.091,0,0,0-1.736.142h0c-3.292.688-6.065,3.137-8.375,5.32a51.875,51.875,0,0,0-4,4.236,2.24,2.24,0,0,0,.294,3.154,2.255,2.255,0,0,0,.616.364s2.059.8,4.638,1.513,5.6,1.447,8.366.989c3.256-.54,6.511-2.586,9.241-4.445,1.758-1.2,3.177-2.3,4.015-2.969,5.04,2.429,10.788,4.835,15.511,7.05l-7.38,4.039a2.241,2.241,0,0,0-.941,3.026,2.241,2.241,0,0,0,3.025.941l.069-.038,10.1-5.527,10.1,5.528a2.241,2.241,0,0,0,3.056-.835,2.239,2.239,0,0,0-.835-3.056c-.023-.013-.046-.027-.068-.038l-7.381-4.04c4.722-2.215,10.472-4.621,15.512-7.051.838.671,2.256,1.772,4.015,2.969,2.729,1.86,5.984,3.9,9.24,4.446,2.769.458,5.787-.278,8.366-.989s4.638-1.514,4.638-1.514a2.24,2.24,0,0,0,1.273-2.9,2.249,2.249,0,0,0-.362-.616,52.2,52.2,0,0,0-4-4.236c-2.31-2.182-5.082-4.632-8.374-5.32h0a9.993,9.993,0,0,0-1.736-.142,51.575,51.575,0,0,0,8.55-9.276c1.053.238,2.786.6,4.859.911,3.267.485,7.09.915,10.256,0,2.693-.791,5.085-2.778,7.1-4.541S.117,3.166.117,3.166A2.241,2.241,0,0,0,0,0ZM-21.594-61.363c.613-.824.681-.824,1.208-1.452h0c.2.448.211.408.42.919a20.421,20.421,0,0,1,1.645,6.283c-.08,1.706-1.423,5.13-2.835,7.841-.456.875-.5.858-.9,1.557-.348-.618-.387-.589-.761-1.339-1.282-2.571-2.334-5.8-2.214-7.158S-23.309-59.057-21.594-61.363ZM-42.876-63.4c-2.762-1.308-5.888-3.221-6.983-4.533a20.5,20.5,0,0,1-2.494-6.012c-.144-.537-.107-.51-.219-.989h0c.8.184.857.143,1.847.43,2.758.8,5.842,2.222,6.755,3.229s2.033,4.221,2.564,7.044c.156.827.1.826.2,1.532C-41.952-63.014-41.979-62.978-42.876-63.4Zm-50.93-.833c.532-2.824,1.651-6.038,2.564-7.044s4-2.427,6.756-3.229c.99-.287,1.045-.247,1.846-.431v0c-.111.479-.074.452-.218.989a20.478,20.478,0,0,1-2.494,6.011c-1.1,1.313-4.221,3.227-6.983,4.533-.9.426-.924.386-1.672.7C-93.91-63.407-93.961-63.406-93.806-64.233Zm-23.084,8.62a20.392,20.392,0,0,1,1.645-6.283c.209-.513.22-.47.42-.918h0c.527.629.594.629,1.207,1.453,1.715,2.306,3.32,5.3,3.44,6.651s-.932,4.587-2.214,7.158c-.374.749-.414.72-.762,1.339-.4-.7-.445-.682-.9-1.558C-115.467-50.482-116.81-53.906-116.89-55.613Zm1.767,62.26c-3.023.449-6.692.6-8.33.113a20.5,20.5,0,0,1-5.408-3.605c-.419-.368-.376-.364-.736-.7a18.972,18.972,0,0,1,1.777-.673c2.739-.867,6.093-1.4,7.412-1.067v0c1.319.327,4.036,2.375,6.047,4.427.585.6.544.625,1.015,1.155C-114.143,6.455-114.141,6.505-115.123,6.647Zm-4.3-27.9c-.7-.412-.731-.38-1.567-.918-2.566-1.659-5.423-3.964-6.335-5.409a20.5,20.5,0,0,1-1.672-6.283c-.072-.549-.039-.517-.087-1.006.768.286.828.251,1.767.665,2.63,1.157,5.511,2.968,6.284,4.086s1.454,4.448,1.61,7.316C-119.374-21.957-119.422-21.962-119.419-21.249Zm24.9,48.27c-2.526,1.72-5.771,3.448-7.456,3.728a20.483,20.483,0,0,1-6.441-.892c-.536-.148-.492-.171-.962-.314.563-.6.556-.667,1.3-1.374,2.088-1.973,4.873-3.913,6.2-4.191v0c1.33-.278,4.665.386,7.368,1.356.792.287.768.327,1.427.6C-93.728,26.421-93.7,26.463-94.523,27.021Zm61.186-3.045c1.331.278,4.116,2.218,6.2,4.191.748.708.741.777,1.3,1.375-.47.147-.426.165-.963.313a20.48,20.48,0,0,1-6.44.893c-1.685-.279-4.93-2.009-7.456-3.729-.819-.558-.8-.6-1.444-1.085.659-.273.634-.318,1.427-.6,2.7-.972,6.029-1.635,7.359-1.357v0ZM-15.792-22.8c.155-2.868.837-6.2,1.61-7.316S-10.528-33.043-7.9-34.2c.94-.412,1-.381,1.768-.665-.048.489-.016.457-.088,1.006A20.474,20.474,0,0,1-7.89-27.576c-.912,1.444-3.769,3.75-6.335,5.409-.836.54-.866.508-1.567.918C-15.789-21.962-15.838-21.957-15.792-22.8ZM-6.35,3.157a20.448,20.448,0,0,1-5.408,3.605c-1.639.482-5.308.336-8.331-.112-.982-.148-.98-.2-1.776-.35.471-.53.43-.558,1.015-1.155,2.011-2.051,4.728-4.1,6.047-4.427v0c1.319-.327,4.673.2,7.412,1.067.984.313,1.008.381,1.776.674C-5.975,2.792-5.931,2.788-6.35,3.157Z" transform="translate(648.713 3132.128)" fill="none" stroke="#ebecec" stroke-width="0.7"/></g></svg>