<svg xmlns="http://www.w3.org/2000/svg" width="212.25" height="212.25" viewBox="0 0 212.25 212.25"><g transform="translate(-1168.607 -7247.632)"><path d="M0,0A106.125,106.125,0,0,0,106.125-106.125,106.125,106.125,0,0,0,0-212.25,106.125,106.125,0,0,0-106.125-106.125,106.125,106.125,0,0,0,0,0" transform="translate(1274.732 7459.882)" fill="#ebecec"/><path d="M0,0A3.992,3.992,0,0,0-1.312-.223a3.954,3.954,0,0,0-1.739.4A50.488,50.488,0,0,0-31.2,45.346,50.024,50.024,0,0,0,18.6,95.485,50.023,50.023,0,0,0,68.391,45.346,50.488,50.488,0,0,0,40.244.18,3.946,3.946,0,0,0,37.194,0a3.994,3.994,0,0,0-2.3,2.059,4.066,4.066,0,0,0,1.865,5.408A42.341,42.341,0,0,1,60.371,45.346,41.96,41.96,0,0,1,18.6,87.4a41.96,41.96,0,0,1-41.773-42.05A42.341,42.341,0,0,1,.436,7.468,4.062,4.062,0,0,0,2.3,2.062,4,4,0,0,0,0,0" transform="translate(1257.631 7308.776)" fill="#63c1ef"/><path d="M0,0A3.992,3.992,0,0,0-1.312-.223a3.954,3.954,0,0,0-1.739.4A50.488,50.488,0,0,0-31.2,45.346,50.024,50.024,0,0,0,18.6,95.485,50.023,50.023,0,0,0,68.391,45.346,50.488,50.488,0,0,0,40.244.18,3.946,3.946,0,0,0,37.194,0a3.994,3.994,0,0,0-2.3,2.059,4.066,4.066,0,0,0,1.865,5.408A42.341,42.341,0,0,1,60.371,45.346,41.96,41.96,0,0,1,18.6,87.4a41.96,41.96,0,0,1-41.773-42.05A42.341,42.341,0,0,1,.436,7.468,4.062,4.062,0,0,0,2.3,2.062,4,4,0,0,0,0,0Z" transform="translate(1257.631 7308.776)" fill="none" stroke="#ebecec" stroke-width="2"/><path d="M0,0A4.032,4.032,0,0,0-4.01,4.045V46.19A4.032,4.032,0,0,0,0,50.235,4.032,4.032,0,0,0,4.01,46.19V4.045A4.032,4.032,0,0,0,0,0" transform="translate(1276.229 7295.117)" fill="#63c1ef"/><path d="M0,0A4.032,4.032,0,0,0-4.01,4.045V46.19A4.032,4.032,0,0,0,0,50.235,4.032,4.032,0,0,0,4.01,46.19V4.045A4.032,4.032,0,0,0,0,0Z" transform="translate(1276.229 7295.117)" fill="none" stroke="#ebecec" stroke-width="2"/></g></svg>