<svg xmlns="http://www.w3.org/2000/svg" width="212.25" height="212.25" viewBox="0 0 212.25 212.25"><g transform="translate(-473.24 -3002.622)"><g transform="translate(579.365 3214.872)"><path d="M0,0A106.125,106.125,0,0,0,106.125-106.125,106.125,106.125,0,0,0,0-212.25,106.125,106.125,0,0,0-106.125-106.125,106.125,106.125,0,0,0,0,0" fill="#ebecec"/></g><g transform="translate(518.672 3128.929)"><path d="M0,0A1.891,1.891,0,0,0,1.891-1.891V-4.944c0-10.275,5.653-18.808,13.757-22.033a18.044,18.044,0,0,1-3.455-2.585C3.8-25.253-1.891-15.962-1.891-4.944v3.053A1.891,1.891,0,0,0,0,0" fill="#323e5f"/></g><g transform="translate(518.672 3128.929)"><path d="M0,0A1.891,1.891,0,0,0,1.891-1.891V-4.944c0-10.275,5.653-18.808,13.757-22.033a18.044,18.044,0,0,1-3.455-2.585C3.8-25.253-1.891-15.962-1.891-4.944v3.053A1.891,1.891,0,0,0,0,0Z" fill="none" stroke="#ebecec" stroke-width="0.5"/></g><g transform="translate(552.876 3101.529)"><path d="M0,0C8.739,2.836,14.953,11.687,14.953,22.457V25.51a1.89,1.89,0,0,0,3.781,0V22.457c0-11.569-6.272-21.231-15.371-25.224A18,18,0,0,1,0,0" fill="#323e5f"/></g><g transform="translate(552.876 3101.529)"><path d="M0,0C8.739,2.836,14.953,11.687,14.953,22.457V25.51a1.89,1.89,0,0,0,3.781,0V22.457c0-11.569-6.272-21.231-15.371-25.224A18,18,0,0,1,0,0Z" fill="none" stroke="#ebecec" stroke-width="0.5"/></g><g transform="translate(543.249 3072.21)"><path d="M0,0A14.181,14.181,0,0,0-14.178,14.182,14.183,14.183,0,0,0,0,28.359,14.185,14.185,0,0,0,14.181,14.182,14.182,14.182,0,0,0,0,0M0,24.578a10.408,10.408,0,0,1-10.4-10.4A10.411,10.411,0,0,1,0,3.781a10.412,10.412,0,0,1,10.4,10.4A10.41,10.41,0,0,1,0,24.578" fill="#323e5f"/></g><g transform="translate(543.249 3072.21)"><path d="M0,0A14.181,14.181,0,0,0-14.178,14.182,14.183,14.183,0,0,0,0,28.359,14.185,14.185,0,0,0,14.181,14.182,14.182,14.182,0,0,0,0,0ZM0,24.578a10.408,10.408,0,0,1-10.4-10.4A10.411,10.411,0,0,1,0,3.781a10.412,10.412,0,0,1,10.4,10.4A10.41,10.41,0,0,1,0,24.578Z" fill="none" stroke="#ebecec" stroke-width="0.5"/></g><g transform="translate(587.68 3140.274)"><path d="M0,0A10.4,10.4,0,0,0-10.4-10.4,10.4,10.4,0,0,0-20.8,0a10.4,10.4,0,0,0,6.3,9.556c-6.83.635-12.145,4.3-14.81,9.845-2.666-5.54-7.982-9.208-14.811-9.844A10.4,10.4,0,0,0-37.813,0a10.4,10.4,0,0,0-10.4-10.4A10.4,10.4,0,0,0-58.609,0a10.4,10.4,0,0,0,6.3,9.556c-9.936.924-16.7,8.25-16.7,18.454v2.239a1.891,1.891,0,0,0,1.891,1.891,1.891,1.891,0,0,0,1.89-1.891V28.01c0-8.976,5.916-14.777,15.073-14.777h3.877c9.162,0,15.082,5.8,15.082,14.777v2.238h0a1.891,1.891,0,0,0,1.89,1.891,1.891,1.891,0,0,0,1.891-1.891h0V28.01c0-8.976,5.916-14.777,15.072-14.777h3.878c9.162,0,15.081,5.8,15.081,14.777v2.238h0a1.89,1.89,0,1,0,3.781,0h0V28.01c0-8.976,5.917-14.777,15.074-14.777h3.877c9.161,0,15.081,5.8,15.081,14.777v2.238a1.89,1.89,0,1,0,3.781,0V28.01c0-10.2-6.765-17.527-16.7-18.453A10.4,10.4,0,0,0,37.813,0a10.4,10.4,0,0,0-10.4-10.4A10.4,10.4,0,0,0,17.016,0a10.4,10.4,0,0,0,6.3,9.556c-6.828.636-12.144,4.3-14.809,9.846C5.842,13.862.526,10.193-6.3,9.557A10.4,10.4,0,0,0,0,0M-48.212,6.616A6.624,6.624,0,0,1-54.828,0a6.625,6.625,0,0,1,6.616-6.618A6.626,6.626,0,0,1-41.594,0a6.625,6.625,0,0,1-6.618,6.616M20.8,0A6.617,6.617,0,1,1,34.031,0a6.624,6.624,0,0,1-6.617,6.616A6.624,6.624,0,0,1,20.8,0M-10.4,6.616A6.624,6.624,0,0,1-17.016,0,6.626,6.626,0,0,1-10.4-6.618,6.626,6.626,0,0,1-3.781,0,6.625,6.625,0,0,1-10.4,6.616" fill="#323e5f"/></g><g transform="translate(587.68 3140.274)"><path d="M0,0A10.4,10.4,0,0,0-10.4-10.4,10.4,10.4,0,0,0-20.8,0a10.4,10.4,0,0,0,6.3,9.556c-6.83.635-12.145,4.3-14.81,9.845-2.666-5.54-7.982-9.208-14.811-9.844A10.4,10.4,0,0,0-37.813,0a10.4,10.4,0,0,0-10.4-10.4A10.4,10.4,0,0,0-58.609,0a10.4,10.4,0,0,0,6.3,9.556c-9.936.924-16.7,8.25-16.7,18.454v2.239a1.891,1.891,0,0,0,1.891,1.891,1.891,1.891,0,0,0,1.89-1.891V28.01c0-8.976,5.916-14.777,15.073-14.777h3.877c9.162,0,15.082,5.8,15.082,14.777v2.238h0a1.891,1.891,0,0,0,1.89,1.891,1.891,1.891,0,0,0,1.891-1.891h0V28.01c0-8.976,5.916-14.777,15.072-14.777h3.878c9.162,0,15.081,5.8,15.081,14.777v2.238h0a1.89,1.89,0,1,0,3.781,0h0V28.01c0-8.976,5.917-14.777,15.074-14.777h3.877c9.161,0,15.081,5.8,15.081,14.777v2.238a1.89,1.89,0,1,0,3.781,0V28.01c0-10.2-6.765-17.527-16.7-18.453A10.4,10.4,0,0,0,37.813,0a10.4,10.4,0,0,0-10.4-10.4A10.4,10.4,0,0,0,17.016,0a10.4,10.4,0,0,0,6.3,9.556c-6.828.636-12.144,4.3-14.809,9.846C5.842,13.862.526,10.193-6.3,9.557A10.4,10.4,0,0,0,0,0ZM-48.212,6.616A6.624,6.624,0,0,1-54.828,0a6.625,6.625,0,0,1,6.616-6.618A6.626,6.626,0,0,1-41.594,0,6.625,6.625,0,0,1-48.212,6.616ZM20.8,0A6.617,6.617,0,1,1,34.031,0a6.624,6.624,0,0,1-6.617,6.616A6.624,6.624,0,0,1,20.8,0ZM-10.4,6.616A6.624,6.624,0,0,1-17.016,0,6.626,6.626,0,0,1-10.4-6.618,6.626,6.626,0,0,1-3.781,0,6.625,6.625,0,0,1-10.4,6.616Z" fill="none" stroke="#ebecec" stroke-width="0.5"/></g><g transform="translate(580.117 3101.515)"><path d="M0,0V5.672a1.891,1.891,0,0,0,3.781,0V0a1.891,1.891,0,0,0-1.89-1.891A1.891,1.891,0,0,0,0,0" fill="#323e5f"/></g><g transform="translate(580.117 3101.515)"><path d="M0,0V5.672a1.891,1.891,0,0,0,3.781,0V0a1.891,1.891,0,0,0-1.89-1.891A1.891,1.891,0,0,0,0,0Z" fill="none" stroke="#ebecec" stroke-width="0.5"/></g><g transform="translate(589.57 3095.843)"><path d="M0,0V11.344a1.891,1.891,0,0,0,3.781,0V0a1.891,1.891,0,0,0-1.89-1.891A1.891,1.891,0,0,0,0,0" fill="#323e5f"/></g><g transform="translate(589.57 3095.843)"><path d="M0,0V11.344a1.891,1.891,0,0,0,3.781,0V0a1.891,1.891,0,0,0-1.89-1.891A1.891,1.891,0,0,0,0,0Z" fill="none" stroke="#ebecec" stroke-width="0.5"/></g><g transform="translate(599.023 3088.281)"><path d="M0,0V18.906a1.891,1.891,0,1,0,3.781,0V0a1.891,1.891,0,0,0-1.89-1.891A1.891,1.891,0,0,0,0,0" fill="#323e5f"/></g><g transform="translate(599.023 3088.281)"><path d="M0,0V18.906a1.891,1.891,0,1,0,3.781,0V0a1.891,1.891,0,0,0-1.89-1.891A1.891,1.891,0,0,0,0,0Z" fill="none" stroke="#ebecec" stroke-width="0.5"/></g><g transform="translate(608.477 3080.718)"><path d="M0,0V26.469a1.891,1.891,0,0,0,3.781,0V0a1.891,1.891,0,0,0-1.89-1.891A1.891,1.891,0,0,0,0,0" fill="#323e5f"/></g><g transform="translate(608.477 3080.718)"><path d="M0,0V26.469a1.891,1.891,0,0,0,3.781,0V0a1.891,1.891,0,0,0-1.89-1.891A1.891,1.891,0,0,0,0,0Z" fill="none" stroke="#ebecec" stroke-width="0.5"/></g><g transform="translate(621.711 3107.187)"><path d="M0,0V-34.031a1.891,1.891,0,0,0-1.891-1.891,1.891,1.891,0,0,0-1.89,1.891V0a1.891,1.891,0,0,0,1.89,1.891A1.891,1.891,0,0,0,0,0" fill="#323e5f"/></g><g transform="translate(621.711 3107.187)"><path d="M0,0V-34.031a1.891,1.891,0,0,0-1.891-1.891,1.891,1.891,0,0,0-1.89,1.891V0a1.891,1.891,0,0,0,1.89,1.891A1.891,1.891,0,0,0,0,0Z" fill="none" stroke="#ebecec" stroke-width="0.5"/></g><g transform="translate(578.682 3097.073)"><path d="M0,0A1.886,1.886,0,0,0,1.437.661,1.889,1.889,0,0,0,2.666.207L32.3-25.168l-.027.14a1.89,1.89,0,0,0,1.49,2.22,1.9,1.9,0,0,0,.366.036A1.89,1.89,0,0,0,35.981-24.3l1.341-6.816a1.888,1.888,0,0,0-.614-1.791,1.889,1.889,0,0,0-1.859-.36L28.472-31.06a1.89,1.89,0,0,0-1.168,2.4,1.883,1.883,0,0,0,1.775,1.265L.207-2.666A1.891,1.891,0,0,0,0,0" fill="#323e5f"/></g><g transform="translate(578.682 3097.073)"><path d="M0,0A1.886,1.886,0,0,0,1.437.661,1.889,1.889,0,0,0,2.666.207L32.3-25.168l-.027.14a1.89,1.89,0,0,0,1.49,2.22,1.9,1.9,0,0,0,.366.036A1.89,1.89,0,0,0,35.981-24.3l1.341-6.816a1.888,1.888,0,0,0-.614-1.791,1.889,1.889,0,0,0-1.859-.36L28.472-31.06a1.89,1.89,0,0,0-1.168,2.4,1.883,1.883,0,0,0,1.775,1.265L.207-2.666A1.891,1.891,0,0,0,0,0Z" fill="none" stroke="#ebecec" stroke-width="0.5"/></g><g transform="translate(543.249 3104.351)"><path d="M0,0A18.006,18.006,0,0,1-3.135-.292L-5.588,13.065A3.275,3.275,0,0,0-3.88,16.613l2.7,1.749.154.088a4.355,4.355,0,0,0,1.991.459,4.341,4.341,0,0,0,1.992-.46l2.854-1.836a3.16,3.16,0,0,0,1.631-3.626L4.44-.578A17.92,17.92,0,0,1,.687-.035L3.682,13.488,1.185,15.1a1.191,1.191,0,0,1-.433,0l-2.565-1.659L.662-.033C.441-.026.224,0,0,0" fill="#323e5f"/></g><g transform="translate(543.249 3104.351)"><path d="M0,0A18.006,18.006,0,0,1-3.135-.292L-5.588,13.065A3.275,3.275,0,0,0-3.88,16.613l2.7,1.749.154.088a4.355,4.355,0,0,0,1.991.459,4.341,4.341,0,0,0,1.992-.46l2.854-1.836a3.16,3.16,0,0,0,1.631-3.626L4.44-.578A17.92,17.92,0,0,1,.687-.035L3.682,13.488,1.185,15.1a1.191,1.191,0,0,1-.433,0l-2.565-1.659L.662-.033C.441-.026.224,0,0,0Z" fill="none" stroke="#ebecec" stroke-width="0.5"/></g><g transform="translate(634.006 3051.414)"><path d="M0,0H-86.98a3.957,3.957,0,0,0-3.776,4.115v12.9a17.865,17.865,0,0,1,3.782.409V4.115a.563.563,0,0,1,.094-.334H-.1a.563.563,0,0,1,.094.334V65.839a.562.562,0,0,1-.094.333H-59.2a34.432,34.432,0,0,1,.483,3.781H0a3.956,3.956,0,0,0,3.776-4.114V4.115A3.957,3.957,0,0,0,0,0" fill="#323e5f"/></g><g transform="translate(634.006 3051.414)"><path d="M0,0H-86.98a3.957,3.957,0,0,0-3.776,4.115v12.9a17.865,17.865,0,0,1,3.782.409V4.115a.563.563,0,0,1,.094-.334H-.1a.563.563,0,0,1,.094.334V65.839a.562.562,0,0,1-.094.333H-59.2a34.432,34.432,0,0,1,.483,3.781H0a3.956,3.956,0,0,0,3.776-4.114V4.115A3.957,3.957,0,0,0,0,0Z" fill="none" stroke="#ebecec" stroke-width="0.5"/></g><g transform="translate(563.85 3080.913)"><path d="M0,0,4.341-3.306a7.043,7.043,0,0,1-.806-1.6L-1.708-3.387A12.468,12.468,0,0,0,0,0" fill="#313d5e"/></g><g transform="translate(563.85 3080.913)"><path d="M0,0,4.341-3.306a7.043,7.043,0,0,1-.806-1.6L-1.708-3.387A12.468,12.468,0,0,0,0,0Z" fill="none" stroke="#ebecec" stroke-width="0.25"/></g><g transform="translate(574.438 3066.614)"><path d="M0,0A7.021,7.021,0,0,1,1.773.329L3.745-4.752A12.447,12.447,0,0,0,0-5.45Z" fill="#313d5e"/></g><g transform="translate(574.438 3066.614)"><path d="M0,0A7.021,7.021,0,0,1,1.773.329L3.745-4.752A12.447,12.447,0,0,0,0-5.45Z" fill="none" stroke="#ebecec" stroke-width="0.25"/></g><g transform="translate(571.854 3066.949)"><path d="M0,0A7.02,7.02,0,0,1,1.778-.334V-5.785a12.46,12.46,0,0,0-3.757.7Z" fill="#313d5e"/></g><g transform="translate(571.854 3066.949)"><path d="M0,0A7.02,7.02,0,0,1,1.778-.334V-5.785a12.46,12.46,0,0,0-3.757.7Z" fill="none" stroke="#ebecec" stroke-width="0.25"/></g><g transform="translate(569.571 3068.199)"><path d="M0,0A7.087,7.087,0,0,1,1.533-.958L-.447-6.041A12.525,12.525,0,0,0-3.689-4.02Z" fill="#313d5e"/></g><g transform="translate(569.571 3068.199)"><path d="M0,0A7.087,7.087,0,0,1,1.533-.958L-.447-6.041A12.525,12.525,0,0,0-3.689-4.02Z" fill="none" stroke="#ebecec" stroke-width="0.25"/></g><g transform="translate(578.935 3062.153)"><path d="M0,0-1.972,5.08a7.063,7.063,0,0,1,1.537.955L3.243,2.019A12.481,12.481,0,0,0,0,0" fill="#313d5e"/></g><g transform="translate(578.935 3062.153)"><path d="M0,0-1.972,5.08a7.063,7.063,0,0,1,1.537.955L3.243,2.019A12.481,12.481,0,0,0,0,0Z" fill="none" stroke="#ebecec" stroke-width="0.25"/></g><g transform="translate(561.621 3072.167)"><path d="M0,0,5.437.477A7.048,7.048,0,0,1,5.92-1.257l-4.9-2.411A12.42,12.42,0,0,0,0,0" fill="#313d5e"/></g><g transform="translate(561.621 3072.167)"><path d="M0,0,5.437.477A7.048,7.048,0,0,1,5.92-1.257l-4.9-2.411A12.42,12.42,0,0,0,0,0Z" fill="none" stroke="#ebecec" stroke-width="0.25"/></g><g transform="translate(585.933 3077.513)"><path d="M0,0-5.231-1.51a7.054,7.054,0,0,1-.807,1.6L-1.7,3.388A12.474,12.474,0,0,0,0,0" fill="#313d5e"/></g><g transform="translate(585.933 3077.513)"><path d="M0,0-5.231-1.51a7.054,7.054,0,0,1-.807,1.6L-1.7,3.388A12.474,12.474,0,0,0,0,0Z" fill="none" stroke="#ebecec" stroke-width="0.25"/></g><g transform="translate(580.252 3084.51)"><path d="M0,0-2.859-4.637a7.014,7.014,0,0,1-1.669.643l1,5.356A12.392,12.392,0,0,0,0,0" fill="#313d5e"/></g><g transform="translate(580.252 3084.51)"><path d="M0,0-2.859-4.637a7.014,7.014,0,0,1-1.669.643l1,5.356A12.392,12.392,0,0,0,0,0Z" fill="none" stroke="#ebecec" stroke-width="0.25"/></g><g transform="translate(570.002 3079.372)"><path d="M0,0A7.129,7.129,0,0,1-1.324-1.22l-4.34,3.36A12.634,12.634,0,0,0-2.858,4.722Z" fill="#313d5e"/></g><g transform="translate(570.002 3079.372)"><path d="M0,0A7.129,7.129,0,0,1-1.324-1.22l-4.34,3.36A12.634,12.634,0,0,0-2.858,4.722Z" fill="none" stroke="#ebecec" stroke-width="0.25"/></g><g transform="translate(571.232 3085.926)"><path d="M0,0,1.218-5.315A7.006,7.006,0,0,1-.42-6.027L-3.47-1.5A12.444,12.444,0,0,0,0,0" fill="#313d5e"/></g><g transform="translate(571.232 3085.926)"><path d="M0,0,1.218-5.315A7.006,7.006,0,0,1-.42-6.027L-3.47-1.5A12.444,12.444,0,0,0,0,0Z" fill="none" stroke="#ebecec" stroke-width="0.25"/></g><g transform="translate(574.933 3080.662)"><path d="M0,0A7.065,7.065,0,0,1-.89.056,6.964,6.964,0,0,1-1.786,0L-2.781,5.36A12.593,12.593,0,0,0-.9,5.5,12.624,12.624,0,0,0,1,5.358Z" fill="#313d5e"/></g><g transform="translate(574.933 3080.662)"><path d="M0,0A7.065,7.065,0,0,1-.89.056,6.964,6.964,0,0,1-1.786,0L-2.781,5.36A12.593,12.593,0,0,0-.9,5.5,12.624,12.624,0,0,0,1,5.358Z" fill="none" stroke="#ebecec" stroke-width="0.25"/></g><g transform="translate(567.16 3075.233)"><path d="M0,0A7.088,7.088,0,0,1-.176-1.573q0-.107,0-.213L-5.61-2.263c-.012.229-.019.459-.019.69A12.511,12.511,0,0,0-5.243,1.52Z" fill="#313d5e"/></g><g transform="translate(567.16 3075.233)"><path d="M0,0A7.088,7.088,0,0,1-.176-1.573q0-.107,0-.213L-5.61-2.263c-.012.229-.019.459-.019.69A12.511,12.511,0,0,0-5.243,1.52Z" fill="none" stroke="#ebecec" stroke-width="0.25"/></g><g transform="translate(581.097 3073.438)"><path d="M0,0C0,.074,0,.148,0,.222a7.12,7.12,0,0,1-.175,1.57L5.06,3.3A12.56,12.56,0,0,0,5.442.222q0-.354-.02-.7Z" fill="#313d5e"/></g><g transform="translate(581.097 3073.438)"><path d="M0,0C0,.074,0,.148,0,.222a7.12,7.12,0,0,1-.175,1.57L5.06,3.3A12.56,12.56,0,0,0,5.442.222q0-.354-.02-.7Z" fill="none" stroke="#ebecec" stroke-width="0.25"/></g><g transform="translate(579.609 3078.151)"><path d="M0,0A7.085,7.085,0,0,1-1.406,1.109L1.129,5.93A12.53,12.53,0,0,0,4.1,3.583Z" fill="#313d5e"/></g><g transform="translate(579.609 3078.151)"><path d="M0,0A7.085,7.085,0,0,1-1.406,1.109L1.129,5.93A12.53,12.53,0,0,0,4.1,3.583Z" fill="none" stroke="#ebecec" stroke-width="0.25"/></g><g transform="translate(567.896 3070.188)"><path d="M0,0A7.079,7.079,0,0,1,1.082-1.443l-3.689-4.02A12.542,12.542,0,0,0-4.9-2.411Z" fill="#313d5e"/></g><g transform="translate(567.896 3070.188)"><path d="M0,0A7.079,7.079,0,0,1,1.082-1.443l-3.689-4.02A12.542,12.542,0,0,0-4.9-2.411Z" fill="none" stroke="#ebecec" stroke-width="0.25"/></g><g transform="translate(585.422 3068.487)"><path d="M0,0-4.883,2.411A6.979,6.979,0,0,1-4.4,4.148l5.422-.481A12.418,12.418,0,0,0,0,0" fill="#313d5e"/></g><g transform="translate(585.422 3068.487)"><path d="M0,0-4.883,2.411A6.979,6.979,0,0,1-4.4,4.148l5.422-.481A12.418,12.418,0,0,0,0,0Z" fill="none" stroke="#ebecec" stroke-width="0.25"/></g><g transform="translate(579.094 3068.732)"><path d="M0,0A7.054,7.054,0,0,1,1.087,1.444L5.97-.967A12.538,12.538,0,0,0,3.677-4.016Z" fill="#313d5e"/></g><g transform="translate(579.094 3068.732)"><path d="M0,0A7.054,7.054,0,0,1,1.087,1.444L5.97-.967A12.538,12.538,0,0,0,3.677-4.016Z" fill="none" stroke="#ebecec" stroke-width="0.25"/></g></g></svg>