<svg xmlns="http://www.w3.org/2000/svg" width="212.25" height="212.25" viewBox="0 0 212.25 212.25"><g transform="translate(-1101.607 -5614.882)"><path d="M0,0A106.125,106.125,0,0,0,106.125-106.125,106.125,106.125,0,0,0,0-212.25,106.125,106.125,0,0,0-106.125-106.125,106.125,106.125,0,0,0,0,0" transform="translate(1207.732 5827.132)" fill="#ebecec"/><path d="M0,0C13.738,0,24.914-11.89,24.914-26.507S13.738-53.013,0-53.013c-9.976,0-18.577,6.284-22.553,15.316l-6.671-2.619a11.4,11.4,0,0,0,.158-1.653c0-6.09-4.657-11.044-10.381-11.044s-10.381,4.954-10.381,11.044,4.657,11.045,10.381,11.045a10.244,10.244,0,0,0,8.795-5.244l6.66,2.615a27.881,27.881,0,0,0-.922,7.046,27.87,27.87,0,0,0,1.263,8.281L-46.485-7.93c-4.181-8.409-12.48-14.159-22.028-14.159a23.467,23.467,0,0,0-8.782,1.732L-83.038-33.2a11.238,11.238,0,0,0,4.144-8.772c0-6.09-4.657-11.044-10.381-11.044s-10.38,4.954-10.38,11.044S-95-30.924-89.275-30.924a9.66,9.66,0,0,0,2.5-.36l5.736,12.827A26.849,26.849,0,0,0-93.427,4.418,26.978,26.978,0,0,0-82.373,26.429l-3.8,7.263a9.689,9.689,0,0,0-3.1-.559c-5.724,0-10.38,4.954-10.38,11.044S-95,55.222-89.275,55.222s10.381-4.955,10.381-11.045a11.266,11.266,0,0,0-3.648-8.336l3.806-7.278a23.469,23.469,0,0,0,10.223,2.361,23.82,23.82,0,0,0,15.139-5.5l8.172,9.564a27.312,27.312,0,0,0-6.7,18.029,28.269,28.269,0,0,0,.31,3.965L-61.209,59.4a10.351,10.351,0,0,0-9.38-6.392c-5.724,0-10.381,4.954-10.381,11.044S-76.313,75.1-70.589,75.1s10.381-4.955,10.381-11.045c0-.121-.032-.236-.034-.358l9.6-2.421c3.272,10.579,12.632,18.241,23.656,18.241,13.738,0,24.914-11.89,24.914-26.506A27.659,27.659,0,0,0-5.047,40.48L7.148,32.044a10.054,10.054,0,0,0,7.385,3.3c5.724,0,10.381-4.955,10.381-11.045S20.257,13.253,14.533,13.253,4.152,18.208,4.152,24.3a11.546,11.546,0,0,0,.742,4.036L-7.331,36.789a25.367,25.367,0,0,0-9.278-7.842L-6.475-.941A23.392,23.392,0,0,0,0,0M-39.447-35.342a6.444,6.444,0,0,1-6.228-6.627A6.444,6.444,0,0,1-39.447-48.6a6.445,6.445,0,0,1,6.229,6.626,6.445,6.445,0,0,1-6.229,6.627M-95.5-41.969A6.444,6.444,0,0,1-89.275-48.6a6.445,6.445,0,0,1,6.229,6.626,6.445,6.445,0,0,1-6.229,6.627A6.444,6.444,0,0,1-95.5-41.969M-89.275,50.8A6.444,6.444,0,0,1-95.5,44.177a6.444,6.444,0,0,1,6.228-6.626,6.445,6.445,0,0,1,6.229,6.626A6.445,6.445,0,0,1-89.275,50.8m18.686,19.88a6.445,6.445,0,0,1-6.229-6.627,6.446,6.446,0,0,1,6.229-6.627,6.445,6.445,0,0,1,6.228,6.627,6.444,6.444,0,0,1-6.228,6.627M14.533,17.671A6.445,6.445,0,0,1,20.762,24.3a6.445,6.445,0,0,1-6.229,6.627A6.444,6.444,0,0,1,8.305,24.3a6.444,6.444,0,0,1,6.228-6.626M-12.226-8.694a10.607,10.607,0,0,1,10.15-8.977H2.076A10.608,10.608,0,0,1,12.227-8.694,19.818,19.818,0,0,1,0-4.418,19.815,19.815,0,0,1-12.226-8.694M0-22.089a6.444,6.444,0,0,1-6.228-6.626A6.444,6.444,0,0,1,0-35.342a6.445,6.445,0,0,1,6.229,6.627A6.445,6.445,0,0,1,0-22.089M0-48.6c11.448,0,20.762,9.909,20.762,22.088a22.8,22.8,0,0,1-5.091,14.444A15.239,15.239,0,0,0,7.4-21a11.357,11.357,0,0,0,2.977-7.717C10.381-34.805,5.724-39.76,0-39.76s-10.381,4.955-10.381,11.045A11.357,11.357,0,0,0-7.4-21a15.239,15.239,0,0,0-8.267,8.935,22.8,22.8,0,0,1-5.09-14.444C-20.761-38.686-11.448-48.6,0-48.6M-89.275,4.418c0-12.18,9.314-22.089,20.762-22.089S-47.751-7.762-47.751,4.418A22.8,22.8,0,0,1-52.871,18.9a15.232,15.232,0,0,0-8.278-8.97,11.369,11.369,0,0,0,2.975-7.718c0-6.09-4.657-11.045-10.381-11.045s-10.38,4.955-10.38,11.045a11.356,11.356,0,0,0,2.977,7.718,15.223,15.223,0,0,0-8.257,8.9,22.81,22.81,0,0,1-5.06-14.408m14.492-2.209a6.444,6.444,0,0,1,6.228-6.627,6.445,6.445,0,0,1,6.229,6.627,6.445,6.445,0,0,1-6.229,6.626,6.444,6.444,0,0,1-6.228-6.626M-80.775,22.2a10.6,10.6,0,0,1,10.144-8.948h4.153a10.606,10.606,0,0,1,10.154,9.006,19.805,19.805,0,0,1-12.189,4.247A19.813,19.813,0,0,1-80.775,22.2M-39.252,70.8a10.6,10.6,0,0,1,10.144-8.948h4.153A10.606,10.606,0,0,1-14.8,70.854,19.806,19.806,0,0,1-26.99,75.1,19.814,19.814,0,0,1-39.252,70.8M-27.031,57.43A6.445,6.445,0,0,1-33.26,50.8a6.445,6.445,0,0,1,6.229-6.627A6.445,6.445,0,0,1-20.8,50.8a6.445,6.445,0,0,1-6.228,6.626m20.8-4.417a22.805,22.805,0,0,1-5.12,14.479,15.232,15.232,0,0,0-8.278-8.97A11.369,11.369,0,0,0-16.651,50.8c0-6.09-4.656-11.044-10.38-11.044S-37.412,44.714-37.412,50.8a11.361,11.361,0,0,0,2.977,7.718,15.223,15.223,0,0,0-8.257,8.9,22.807,22.807,0,0,1-5.059-14.408c0-12.18,9.313-22.089,20.761-22.089S-6.228,40.833-6.228,53.013M-20.514,27.447a23.405,23.405,0,0,0-6.476-.941,23.821,23.821,0,0,0-15.139,5.505L-50.3,22.447A27.312,27.312,0,0,0-43.6,4.418a27.9,27.9,0,0,0-1.262-8.281l22.833-10.3A25.774,25.774,0,0,0-10.379-2.441Z" transform="translate(1246.465 5710.819)" fill="#62c1ee"/><path d="M0,0C13.738,0,24.914-11.89,24.914-26.507S13.738-53.013,0-53.013c-9.976,0-18.577,6.284-22.553,15.316l-6.671-2.619a11.4,11.4,0,0,0,.158-1.653c0-6.09-4.657-11.044-10.381-11.044s-10.381,4.954-10.381,11.044,4.657,11.045,10.381,11.045a10.244,10.244,0,0,0,8.795-5.244l6.66,2.615a27.881,27.881,0,0,0-.922,7.046,27.87,27.87,0,0,0,1.263,8.281L-46.485-7.93c-4.181-8.409-12.48-14.159-22.028-14.159a23.467,23.467,0,0,0-8.782,1.732L-83.038-33.2a11.238,11.238,0,0,0,4.144-8.772c0-6.09-4.657-11.044-10.381-11.044s-10.38,4.954-10.38,11.044S-95-30.924-89.275-30.924a9.66,9.66,0,0,0,2.5-.36l5.736,12.827A26.849,26.849,0,0,0-93.427,4.418,26.978,26.978,0,0,0-82.373,26.429l-3.8,7.263a9.689,9.689,0,0,0-3.1-.559c-5.724,0-10.38,4.954-10.38,11.044S-95,55.222-89.275,55.222s10.381-4.955,10.381-11.045a11.266,11.266,0,0,0-3.648-8.336l3.806-7.278a23.469,23.469,0,0,0,10.223,2.361,23.82,23.82,0,0,0,15.139-5.5l8.172,9.564a27.312,27.312,0,0,0-6.7,18.029,28.269,28.269,0,0,0,.31,3.965L-61.209,59.4a10.351,10.351,0,0,0-9.38-6.392c-5.724,0-10.381,4.954-10.381,11.044S-76.313,75.1-70.589,75.1s10.381-4.955,10.381-11.045c0-.121-.032-.236-.034-.358l9.6-2.421c3.272,10.579,12.632,18.241,23.656,18.241,13.738,0,24.914-11.89,24.914-26.506A27.659,27.659,0,0,0-5.047,40.48L7.148,32.044a10.054,10.054,0,0,0,7.385,3.3c5.724,0,10.381-4.955,10.381-11.045S20.257,13.253,14.533,13.253,4.152,18.208,4.152,24.3a11.546,11.546,0,0,0,.742,4.036L-7.331,36.789a25.367,25.367,0,0,0-9.278-7.842L-6.475-.941A23.392,23.392,0,0,0,0,0ZM-39.447-35.342a6.444,6.444,0,0,1-6.228-6.627A6.444,6.444,0,0,1-39.447-48.6a6.445,6.445,0,0,1,6.229,6.626A6.445,6.445,0,0,1-39.447-35.342ZM-95.5-41.969A6.444,6.444,0,0,1-89.275-48.6a6.445,6.445,0,0,1,6.229,6.626,6.445,6.445,0,0,1-6.229,6.627A6.444,6.444,0,0,1-95.5-41.969ZM-89.275,50.8A6.444,6.444,0,0,1-95.5,44.177a6.444,6.444,0,0,1,6.228-6.626,6.445,6.445,0,0,1,6.229,6.626A6.445,6.445,0,0,1-89.275,50.8Zm18.686,19.88a6.445,6.445,0,0,1-6.229-6.627,6.446,6.446,0,0,1,6.229-6.627,6.445,6.445,0,0,1,6.228,6.627A6.444,6.444,0,0,1-70.589,70.684ZM14.533,17.671A6.445,6.445,0,0,1,20.762,24.3a6.445,6.445,0,0,1-6.229,6.627A6.444,6.444,0,0,1,8.305,24.3,6.444,6.444,0,0,1,14.533,17.671ZM-12.226-8.694a10.607,10.607,0,0,1,10.15-8.977H2.076A10.608,10.608,0,0,1,12.227-8.694,19.818,19.818,0,0,1,0-4.418,19.815,19.815,0,0,1-12.226-8.694ZM0-22.089a6.444,6.444,0,0,1-6.228-6.626A6.444,6.444,0,0,1,0-35.342a6.445,6.445,0,0,1,6.229,6.627A6.445,6.445,0,0,1,0-22.089ZM0-48.6c11.448,0,20.762,9.909,20.762,22.088a22.8,22.8,0,0,1-5.091,14.444A15.239,15.239,0,0,0,7.4-21a11.357,11.357,0,0,0,2.977-7.717C10.381-34.805,5.724-39.76,0-39.76s-10.381,4.955-10.381,11.045A11.357,11.357,0,0,0-7.4-21a15.239,15.239,0,0,0-8.267,8.935,22.8,22.8,0,0,1-5.09-14.444C-20.761-38.686-11.448-48.6,0-48.6ZM-89.275,4.418c0-12.18,9.314-22.089,20.762-22.089S-47.751-7.762-47.751,4.418A22.8,22.8,0,0,1-52.871,18.9a15.232,15.232,0,0,0-8.278-8.97,11.369,11.369,0,0,0,2.975-7.718c0-6.09-4.657-11.045-10.381-11.045s-10.38,4.955-10.38,11.045a11.356,11.356,0,0,0,2.977,7.718,15.223,15.223,0,0,0-8.257,8.9A22.81,22.81,0,0,1-89.275,4.418Zm14.492-2.209a6.444,6.444,0,0,1,6.228-6.627,6.445,6.445,0,0,1,6.229,6.627,6.445,6.445,0,0,1-6.229,6.626A6.444,6.444,0,0,1-74.783,2.209ZM-80.775,22.2a10.6,10.6,0,0,1,10.144-8.948h4.153a10.606,10.606,0,0,1,10.154,9.006,19.805,19.805,0,0,1-12.189,4.247A19.813,19.813,0,0,1-80.775,22.2ZM-39.252,70.8a10.6,10.6,0,0,1,10.144-8.948h4.153A10.606,10.606,0,0,1-14.8,70.854,19.806,19.806,0,0,1-26.99,75.1,19.814,19.814,0,0,1-39.252,70.8ZM-27.031,57.43A6.445,6.445,0,0,1-33.26,50.8a6.445,6.445,0,0,1,6.229-6.627A6.445,6.445,0,0,1-20.8,50.8,6.445,6.445,0,0,1-27.031,57.43Zm20.8-4.417a22.805,22.805,0,0,1-5.12,14.479,15.232,15.232,0,0,0-8.278-8.97A11.369,11.369,0,0,0-16.651,50.8c0-6.09-4.656-11.044-10.38-11.044S-37.412,44.714-37.412,50.8a11.361,11.361,0,0,0,2.977,7.718,15.223,15.223,0,0,0-8.257,8.9,22.807,22.807,0,0,1-5.059-14.408c0-12.18,9.313-22.089,20.761-22.089S-6.228,40.833-6.228,53.013ZM-20.514,27.447a23.405,23.405,0,0,0-6.476-.941,23.821,23.821,0,0,0-15.139,5.505L-50.3,22.447A27.312,27.312,0,0,0-43.6,4.418a27.9,27.9,0,0,0-1.262-8.281l22.833-10.3A25.774,25.774,0,0,0-10.379-2.441Z" transform="translate(1246.465 5710.819)" fill="none" stroke="#ebecec" stroke-width="0.75"/></g></svg>