<svg xmlns="http://www.w3.org/2000/svg" viewBox="0 0 1498.352 516.094" preserveAspectRatio="none"><path d="M-2125.6,720.6h-.029c-20.73,0-41.34-.95-61.257-2.821a602.385,602.385,0,0,1-60.672-8.805,573.551,573.551,0,0,1-60.031-15.316A570.952,570.952,0,0,1-2366.93,671.3a594.883,594.883,0,0,1-58.6-29.911,647.8,647.8,0,0,1-57.8-38,733.9,733.9,0,0,1-56.957-46.6c-18.924-17.105-37.785-35.859-56.057-55.739-27.141-24.407-185.011-218.367-236.888-282.1l-1.06-1.3c-4.917-6.042-8.245-10.13-10.706-13.144h107.317c12.933,18.617,26.537,39.538,42.813,65.839,14.351,23.192,28.5,46.875,43.474,71.947l.012.02.029.047c36.509,61.122,74.262,124.324,114.459,178.771,10.383,14.065,20.685,27.193,30.621,39.021,10.651,12.678,21.3,24.362,31.653,34.728a380.87,380.87,0,0,0,32.8,29.425,266.93,266.93,0,0,0,34.064,23.11c10.122,5.717,20.509,11.129,30.873,16.084,10.242,4.9,20.747,9.489,31.223,13.645,10.349,4.105,20.968,7.906,31.561,11.3,10.447,3.344,21.174,6.385,31.884,9.039,10.546,2.614,21.376,4.926,32.191,6.872,10.654,1.917,21.584,3.53,32.485,4.8a572.865,572.865,0,0,0,65.8,3.728c13.462,0,27.324-.454,41.2-1.349,13.571-.875,27.555-2.2,41.565-3.932,13.69-1.7,27.79-3.829,41.906-6.343,13.768-2.451,27.974-5.339,42.224-8.581,13.861-3.155,28.165-6.737,42.515-10.649,13.913-3.791,28.307-8.01,42.783-12.542,27.416-8.583,56.443-18.7,86.272-30.08,27.782-10.6,56.256-22.239,87.048-35.592,27.437-11.9,56.1-24.892,87.627-39.725,58.723-27.629,118.423-57.465,176.157-86.319l.019-.009.032-.015.455-.228c37.64-18.812,76.562-38.264,115.294-57.141v50.978c-39.959,17.114-80.224,34.9-119.163,52.1l-.011,0-.1.044-.028.013-.074.032-.053.023-.052.023c-54.8,24.2-111.465,49.232-167.06,72.315-29.923,12.425-57.17,23.315-83.3,33.294-29.3,11.189-56.435,20.947-82.957,29.829-28.481,9.538-56.239,18.02-82.5,25.21-28.111,7.7-55.677,14.235-81.935,19.436-13.723,2.718-27.423,5.138-40.72,7.192-13.653,2.11-27.291,3.9-40.536,5.316-13.558,1.452-27.129,2.561-40.337,3.3C-2098.95,720.215-2112.45,720.6-2125.6,720.6Z" transform="translate(2845 -204.501)" fill="#fff" opacity="0.2"/></svg>