<svg xmlns="http://www.w3.org/2000/svg" width="212.25" height="212.25" viewBox="0 0 212.25 212.25"><g transform="translate(-1265.113 -3330.919)"><path d="M0,0A106.125,106.125,0,0,0,106.125-106.125,106.125,106.125,0,0,0,0-212.25,106.125,106.125,0,0,0-106.125-106.125,106.125,106.125,0,0,0,0,0" transform="translate(1371.238 3543.169)" fill="#ebecec"/><path d="M0,0A1.891,1.891,0,0,0,1.891-1.891V-4.944c0-10.275,5.653-18.808,13.757-22.033a18.044,18.044,0,0,1-3.455-2.585C3.8-25.253-1.891-15.962-1.891-4.944v3.053A1.891,1.891,0,0,0,0,0" transform="translate(1312.628 3454.06)" fill="#d53216"/><path d="M0,0A1.891,1.891,0,0,0,1.891-1.891V-4.944c0-10.275,5.653-18.808,13.757-22.033a18.044,18.044,0,0,1-3.455-2.585C3.8-25.253-1.891-15.962-1.891-4.944v3.053A1.891,1.891,0,0,0,0,0Z" transform="translate(1312.628 3454.06)" fill="none" stroke="#ebecec" stroke-width="0.5"/><path d="M0,0C8.739,2.836,14.953,11.687,14.953,22.457V25.51a1.89,1.89,0,0,0,3.781,0V22.457c0-11.569-6.272-21.231-15.371-25.224A18,18,0,0,1,0,0" transform="translate(1346.832 3426.659)" fill="#d53216"/><path d="M0,0C8.739,2.836,14.953,11.687,14.953,22.457V25.51a1.89,1.89,0,0,0,3.781,0V22.457c0-11.569-6.272-21.231-15.371-25.224A18,18,0,0,1,0,0Z" transform="translate(1346.832 3426.659)" fill="none" stroke="#ebecec" stroke-width="0.5"/><path d="M0,0A14.181,14.181,0,0,0-14.178,14.182,14.183,14.183,0,0,0,0,28.359,14.185,14.185,0,0,0,14.181,14.182,14.182,14.182,0,0,0,0,0M0,24.578a10.408,10.408,0,0,1-10.4-10.4A10.411,10.411,0,0,1,0,3.781a10.412,10.412,0,0,1,10.4,10.4A10.41,10.41,0,0,1,0,24.578" transform="translate(1337.205 3397.341)" fill="#d53216"/><path d="M0,0A14.181,14.181,0,0,0-14.178,14.182,14.183,14.183,0,0,0,0,28.359,14.185,14.185,0,0,0,14.181,14.182,14.182,14.182,0,0,0,0,0ZM0,24.578a10.408,10.408,0,0,1-10.4-10.4A10.411,10.411,0,0,1,0,3.781a10.412,10.412,0,0,1,10.4,10.4A10.41,10.41,0,0,1,0,24.578Z" transform="translate(1337.205 3397.341)" fill="none" stroke="#ebecec" stroke-width="0.5"/><path d="M0,0A10.4,10.4,0,0,0-10.4-10.4,10.4,10.4,0,0,0-20.8,0a10.4,10.4,0,0,0,6.3,9.556c-6.83.635-12.145,4.3-14.81,9.845-2.666-5.54-7.982-9.208-14.811-9.845A10.4,10.4,0,0,0-37.813,0a10.4,10.4,0,0,0-10.4-10.4A10.4,10.4,0,0,0-58.609,0a10.4,10.4,0,0,0,6.3,9.556c-9.936.924-16.7,8.25-16.7,18.454v2.239a1.891,1.891,0,0,0,1.891,1.891,1.891,1.891,0,0,0,1.89-1.891V28.01c0-8.977,5.916-14.777,15.073-14.777h3.877c9.162,0,15.082,5.8,15.082,14.777v2.238h0a1.891,1.891,0,0,0,1.89,1.891,1.891,1.891,0,0,0,1.891-1.891h0V28.01c0-8.977,5.916-14.777,15.072-14.777h3.878c9.162,0,15.081,5.8,15.081,14.777v2.238h0a1.89,1.89,0,1,0,3.781,0h0V28.01c0-8.977,5.917-14.777,15.074-14.777h3.877c9.161,0,15.081,5.8,15.081,14.777v2.238a1.89,1.89,0,1,0,3.781,0V28.01c0-10.2-6.765-17.527-16.7-18.454A10.4,10.4,0,0,0,37.813,0a10.4,10.4,0,0,0-10.4-10.4A10.4,10.4,0,0,0,17.016,0a10.4,10.4,0,0,0,6.3,9.556c-6.828.636-12.144,4.3-14.809,9.846C5.842,13.862.526,10.193-6.3,9.556A10.4,10.4,0,0,0,0,0M-48.212,6.616A6.624,6.624,0,0,1-54.828,0a6.625,6.625,0,0,1,6.616-6.618A6.626,6.626,0,0,1-41.594,0a6.625,6.625,0,0,1-6.618,6.616M20.8,0A6.617,6.617,0,1,1,34.031,0a6.624,6.624,0,0,1-6.617,6.616A6.624,6.624,0,0,1,20.8,0M-10.4,6.616A6.624,6.624,0,0,1-17.016,0,6.626,6.626,0,0,1-10.4-6.618,6.626,6.626,0,0,1-3.781,0,6.625,6.625,0,0,1-10.4,6.616" transform="translate(1381.636 3465.405)" fill="#d53216"/><path d="M0,0A10.4,10.4,0,0,0-10.4-10.4,10.4,10.4,0,0,0-20.8,0a10.4,10.4,0,0,0,6.3,9.556c-6.83.635-12.145,4.3-14.81,9.845-2.666-5.54-7.982-9.208-14.811-9.845A10.4,10.4,0,0,0-37.813,0a10.4,10.4,0,0,0-10.4-10.4A10.4,10.4,0,0,0-58.609,0a10.4,10.4,0,0,0,6.3,9.556c-9.936.924-16.7,8.25-16.7,18.454v2.239a1.891,1.891,0,0,0,1.891,1.891,1.891,1.891,0,0,0,1.89-1.891V28.01c0-8.977,5.916-14.777,15.073-14.777h3.877c9.162,0,15.082,5.8,15.082,14.777v2.238h0a1.891,1.891,0,0,0,1.89,1.891,1.891,1.891,0,0,0,1.891-1.891h0V28.01c0-8.977,5.916-14.777,15.072-14.777h3.878c9.162,0,15.081,5.8,15.081,14.777v2.238h0a1.89,1.89,0,1,0,3.781,0h0V28.01c0-8.977,5.917-14.777,15.074-14.777h3.877c9.161,0,15.081,5.8,15.081,14.777v2.238a1.89,1.89,0,1,0,3.781,0V28.01c0-10.2-6.765-17.527-16.7-18.454A10.4,10.4,0,0,0,37.813,0a10.4,10.4,0,0,0-10.4-10.4A10.4,10.4,0,0,0,17.016,0a10.4,10.4,0,0,0,6.3,9.556c-6.828.636-12.144,4.3-14.809,9.846C5.842,13.862.526,10.193-6.3,9.556A10.4,10.4,0,0,0,0,0ZM-48.212,6.616A6.624,6.624,0,0,1-54.828,0a6.625,6.625,0,0,1,6.616-6.618A6.626,6.626,0,0,1-41.594,0,6.625,6.625,0,0,1-48.212,6.616ZM20.8,0A6.617,6.617,0,1,1,34.031,0a6.624,6.624,0,0,1-6.617,6.616A6.624,6.624,0,0,1,20.8,0ZM-10.4,6.616A6.624,6.624,0,0,1-17.016,0,6.626,6.626,0,0,1-10.4-6.618,6.626,6.626,0,0,1-3.781,0,6.625,6.625,0,0,1-10.4,6.616Z" transform="translate(1381.636 3465.405)" fill="none" stroke="#ebecec" stroke-width="0.5"/><path d="M0,0V5.672a1.891,1.891,0,0,0,3.781,0V0a1.891,1.891,0,0,0-1.89-1.891A1.891,1.891,0,0,0,0,0" transform="translate(1374.074 3426.646)" fill="#d53216"/><path d="M0,0V5.672a1.891,1.891,0,0,0,3.781,0V0a1.891,1.891,0,0,0-1.89-1.891A1.891,1.891,0,0,0,0,0Z" transform="translate(1374.074 3426.646)" fill="none" stroke="#ebecec" stroke-width="0.5"/><path d="M0,0V11.344a1.891,1.891,0,0,0,3.781,0V0a1.891,1.891,0,0,0-1.89-1.891A1.891,1.891,0,0,0,0,0" transform="translate(1383.527 3420.974)" fill="#d53216"/><path d="M0,0V11.344a1.891,1.891,0,0,0,3.781,0V0a1.891,1.891,0,0,0-1.89-1.891A1.891,1.891,0,0,0,0,0Z" transform="translate(1383.527 3420.974)" fill="none" stroke="#ebecec" stroke-width="0.5"/><path d="M0,0V18.906a1.891,1.891,0,1,0,3.781,0V0a1.891,1.891,0,0,0-1.89-1.891A1.891,1.891,0,0,0,0,0" transform="translate(1392.98 3413.411)" fill="#d53216"/><path d="M0,0V18.906a1.891,1.891,0,1,0,3.781,0V0a1.891,1.891,0,0,0-1.89-1.891A1.891,1.891,0,0,0,0,0Z" transform="translate(1392.98 3413.411)" fill="none" stroke="#ebecec" stroke-width="0.5"/><path d="M0,0V26.469a1.891,1.891,0,0,0,3.781,0V0a1.891,1.891,0,0,0-1.89-1.891A1.891,1.891,0,0,0,0,0" transform="translate(1402.433 3405.849)" fill="#d53216"/><path d="M0,0V26.469a1.891,1.891,0,0,0,3.781,0V0a1.891,1.891,0,0,0-1.89-1.891A1.891,1.891,0,0,0,0,0Z" transform="translate(1402.433 3405.849)" fill="none" stroke="#ebecec" stroke-width="0.5"/><path d="M0,0V-34.031a1.891,1.891,0,0,0-1.891-1.891,1.891,1.891,0,0,0-1.89,1.891V0a1.891,1.891,0,0,0,1.89,1.891A1.891,1.891,0,0,0,0,0" transform="translate(1415.667 3432.318)" fill="#d53216"/><path d="M0,0V-34.031a1.891,1.891,0,0,0-1.891-1.891,1.891,1.891,0,0,0-1.89,1.891V0a1.891,1.891,0,0,0,1.89,1.891A1.891,1.891,0,0,0,0,0Z" transform="translate(1415.667 3432.318)" fill="none" stroke="#ebecec" stroke-width="0.5"/><path d="M0,0A1.886,1.886,0,0,0,1.437.661,1.889,1.889,0,0,0,2.666.207L32.3-25.168l-.027.14a1.89,1.89,0,0,0,1.49,2.22,1.9,1.9,0,0,0,.366.036A1.89,1.89,0,0,0,35.981-24.3l1.341-6.816a1.888,1.888,0,0,0-.614-1.791,1.889,1.889,0,0,0-1.859-.36L28.472-31.06a1.89,1.89,0,0,0-1.168,2.4,1.883,1.883,0,0,0,1.775,1.265L.207-2.666A1.891,1.891,0,0,0,0,0" transform="translate(1372.637 3422.204)" fill="#d53216"/><path d="M0,0A1.886,1.886,0,0,0,1.437.661,1.889,1.889,0,0,0,2.666.207L32.3-25.168l-.027.14a1.89,1.89,0,0,0,1.49,2.22,1.9,1.9,0,0,0,.366.036A1.89,1.89,0,0,0,35.981-24.3l1.341-6.816a1.888,1.888,0,0,0-.614-1.791,1.889,1.889,0,0,0-1.859-.36L28.472-31.06a1.89,1.89,0,0,0-1.168,2.4,1.883,1.883,0,0,0,1.775,1.265L.207-2.666A1.891,1.891,0,0,0,0,0Z" transform="translate(1372.637 3422.204)" fill="none" stroke="#ebecec" stroke-width="0.5"/><path d="M0,0A18.006,18.006,0,0,1-3.135-.292L-5.588,13.065A3.275,3.275,0,0,0-3.88,16.613l2.7,1.749.154.088a4.355,4.355,0,0,0,1.991.459,4.341,4.341,0,0,0,1.992-.46l2.854-1.836a3.16,3.16,0,0,0,1.631-3.626L4.44-.578A17.92,17.92,0,0,1,.687-.035L3.682,13.488,1.185,15.1a1.214,1.214,0,0,1-.433,0l-2.565-1.66L.662-.033C.441-.026.224,0,0,0" transform="translate(1337.205 3429.482)" fill="#d53216"/><path d="M0,0A18.006,18.006,0,0,1-3.135-.292L-5.588,13.065A3.275,3.275,0,0,0-3.88,16.613l2.7,1.749.154.088a4.355,4.355,0,0,0,1.991.459,4.341,4.341,0,0,0,1.992-.46l2.854-1.836a3.16,3.16,0,0,0,1.631-3.626L4.44-.578A17.92,17.92,0,0,1,.687-.035L3.682,13.488,1.185,15.1a1.214,1.214,0,0,1-.433,0l-2.565-1.66L.662-.033C.441-.026.224,0,0,0Z" transform="translate(1337.205 3429.482)" fill="none" stroke="#ebecec" stroke-width="0.5"/><path d="M0,0H-86.98a3.957,3.957,0,0,0-3.776,4.115v12.9a17.865,17.865,0,0,1,3.782.409V4.115a.563.563,0,0,1,.094-.334H-.1a.563.563,0,0,1,.094.334V65.839a.562.562,0,0,1-.094.333H-59.2a34.432,34.432,0,0,1,.483,3.781H0a3.956,3.956,0,0,0,3.776-4.114V4.115A3.957,3.957,0,0,0,0,0" transform="translate(1427.962 3376.544)" fill="#d53216"/><path d="M0,0H-86.98a3.957,3.957,0,0,0-3.776,4.115v12.9a17.865,17.865,0,0,1,3.782.409V4.115a.563.563,0,0,1,.094-.334H-.1a.563.563,0,0,1,.094.334V65.839a.562.562,0,0,1-.094.333H-59.2a34.432,34.432,0,0,1,.483,3.781H0a3.956,3.956,0,0,0,3.776-4.114V4.115A3.957,3.957,0,0,0,0,0Z" transform="translate(1427.962 3376.544)" fill="none" stroke="#ebecec" stroke-width="0.5"/><path d="M0,0H16.1a.661.661,0,0,0,.256-.051,4.053,4.053,0,0,0,3.4-4,4.044,4.044,0,0,0-2.274-3.635v-.041A5.99,5.99,0,0,0,11.5-13.706a5.954,5.954,0,0,0-5.163,2.964,3.487,3.487,0,0,0-1.8-.5A3.521,3.521,0,0,0,1.066-8.265,4.189,4.189,0,0,0-.1-8.433,4.2,4.2,0,0,0-4.3-4.241,4.327,4.327,0,0,0,0,0M-.1-7.109a2.864,2.864,0,0,1,1.492.422A.659.659,0,0,0,2.1-6.7a.663.663,0,0,0,.283-.658,2.156,2.156,0,0,1-.038-.362A2.194,2.194,0,0,1,4.539-9.915a2.176,2.176,0,0,1,1.564.66.666.666,0,0,0,.6.185.664.664,0,0,0,.485-.4A4.639,4.639,0,0,1,11.5-12.381a4.664,4.664,0,0,1,4.66,4.659c0,.139-.01.276-.022.413a.662.662,0,0,0,.447.686,2.723,2.723,0,0,1,1.849,2.577,2.726,2.726,0,0,1-2.724,2.723H0A2.985,2.985,0,0,1-2.973-4.24,2.871,2.871,0,0,1-.1-7.109" transform="translate(1362.134 3400.691)" fill="#ed3d1b"/><path d="M0,0H16.1a.661.661,0,0,0,.256-.051,4.053,4.053,0,0,0,3.4-4,4.044,4.044,0,0,0-2.274-3.635v-.041A5.99,5.99,0,0,0,11.5-13.706a5.954,5.954,0,0,0-5.163,2.964,3.487,3.487,0,0,0-1.8-.5A3.521,3.521,0,0,0,1.066-8.265,4.189,4.189,0,0,0-.1-8.433,4.2,4.2,0,0,0-4.3-4.241,4.327,4.327,0,0,0,0,0ZM-.1-7.109a2.864,2.864,0,0,1,1.492.422A.659.659,0,0,0,2.1-6.7a.663.663,0,0,0,.283-.658,2.156,2.156,0,0,1-.038-.362A2.194,2.194,0,0,1,4.539-9.915a2.176,2.176,0,0,1,1.564.66.666.666,0,0,0,.6.185.664.664,0,0,0,.485-.4A4.639,4.639,0,0,1,11.5-12.381a4.664,4.664,0,0,1,4.66,4.659c0,.139-.01.276-.022.413a.662.662,0,0,0,.447.686,2.723,2.723,0,0,1,1.849,2.577,2.726,2.726,0,0,1-2.724,2.723H0A2.985,2.985,0,0,1-2.973-4.24,2.871,2.871,0,0,1-.1-7.109Z" transform="translate(1362.134 3400.691)" fill="none" stroke="#d53216" stroke-width="1.8"/><path d="M0,0V-3.309a.662.662,0,0,0-.662-.662.662.662,0,0,0-.662.662V0A.662.662,0,0,0-.662.662.662.662,0,0,0,0,0" transform="translate(1361.009 3407.867)" fill="#ed3d1b"/><path d="M0,0V-3.309a.662.662,0,0,0-.662-.662.662.662,0,0,0-.662.662V0A.662.662,0,0,0-.662.662.662.662,0,0,0,0,0Z" transform="translate(1361.009 3407.867)" fill="none" stroke="#d53216" stroke-width="1.8"/><path d="M0,0A.662.662,0,0,0-.662.662V3.847A.662.662,0,0,0,0,4.509a.662.662,0,0,0,.662-.662V.662A.662.662,0,0,0,0,0" transform="translate(1378.086 3405.102)" fill="#ed3d1b"/><path d="M0,0A.662.662,0,0,0-.662.662V3.847A.662.662,0,0,0,0,4.509a.662.662,0,0,0,.662-.662V.662A.662.662,0,0,0,0,0Z" transform="translate(1378.086 3405.102)" fill="none" stroke="#d53216" stroke-width="1.8"/><path d="M0,0A.662.662,0,0,0,.662-.662V-2.978A.662.662,0,0,0,0-3.64a.662.662,0,0,0-.662.662V-.662A.662.662,0,0,0,0,0" transform="translate(1371.192 3409.9)" fill="#ed3d1b"/><path d="M0,0A.662.662,0,0,0,.662-.662V-2.978A.662.662,0,0,0,0-3.64a.662.662,0,0,0-.662.662V-.662A.662.662,0,0,0,0,0Z" transform="translate(1371.192 3409.9)" fill="none" stroke="#d53216" stroke-width="1.8"/><path d="M0,0V-2.958a.661.661,0,0,0-.662-.661.661.661,0,0,0-.662.661V0A.662.662,0,0,0-.662.662.662.662,0,0,0,0,0" transform="translate(1363.79 3415.67)" fill="#ed3d1b"/><path d="M0,0V-2.958a.661.661,0,0,0-.662-.661.661.661,0,0,0-.662.661V0A.662.662,0,0,0-.662.662.662.662,0,0,0,0,0Z" transform="translate(1363.79 3415.67)" fill="none" stroke="#d53216" stroke-width="1.8"/></g></svg>