<svg xmlns="http://www.w3.org/2000/svg" width="212.25" height="212.25" viewBox="0 0 212.25 212.25"><g transform="translate(-1261.418 -4466.749)"><path d="M0,0A106.125,106.125,0,0,0,106.125-106.125,106.125,106.125,0,0,0,0-212.25,106.125,106.125,0,0,0-106.125-106.125,106.125,106.125,0,0,0,0,0" transform="translate(1367.543 4678.999)" fill="#ebecec"/><g transform="translate(1145.924 3839.468)"><path d="M263.534,705.242a6.962,6.962,0,0,0,0-13.9H252.147l-3.713-15.775c-2-8.514-10.129-13.688-18.146-11.555a14.77,14.77,0,0,0-6.941,4.174l-1.267,1.337-1.259-1.337a14.352,14.352,0,0,0-20.278-.875q-.461.423-.883.884a16.153,16.153,0,0,0-3.93,7.372l-3.718,15.775H180.625a6.963,6.963,0,0,0,0,13.9h10.909v4.635a9.286,9.286,0,0,0,0,18.538h.113a29.051,29.051,0,0,0,5.8,15.083c-9.986,3.36-16.785,13.186-16.822,24.311V802.6h82.909v-34.79c-.038-11.124-6.837-20.949-16.822-24.311a29.05,29.05,0,0,0,5.8-15.083h.113a9.288,9.288,0,0,0,0-18.542v-4.631Zm-72,18.538a4.5,4.5,0,0,1-4.364-4.632v-.006a4.506,4.506,0,0,1,4.364-4.631Zm8.424-47.087c1.42-6.032,7.174-9.7,12.854-8.191a10.463,10.463,0,0,1,4.922,2.961l2.8,2.979,4.364,4.635,3.085-3.277-2.821-3,1.259-1.337a10.165,10.165,0,0,1,14.362-.627q.327.3.627.627a11.447,11.447,0,0,1,2.788,5.23l1.265,5.376H198.692ZM197.6,686.7h48.955l1.091,4.634H196.511Zm22.3,83.263v4.794h4.363v-4.794c8.714-1.175,15.254-9.045,15.269-18.379v-1.527a26.211,26.211,0,0,0,3.609-2.735,18.47,18.47,0,0,1,2.937.83v50.33h-48v-50.33a18.5,18.5,0,0,1,2.937-.83,26.211,26.211,0,0,0,3.609,2.735v1.527c.015,9.334,6.555,17.2,15.273,18.379m-10.88-17.739a25.047,25.047,0,0,0,8.946,1.677h8.247a25.037,25.037,0,0,0,8.945-1.677c-.323,7.422-6.081,13.264-13.077,13.264s-12.739-5.85-13.061-13.264m-24.031,15.581a21.318,21.318,0,0,1,8.728-17.331v26.6h-8.728Zm8.728,30.677h-8.727V781.713h8.727Zm56.727-48.008a21.318,21.318,0,0,1,8.728,17.331v9.269h-8.728Zm8.728,48.008h-8.727V781.713h8.727Zm-10.91-86.292v13.648c0,12.937-9.872,23.427-22.054,23.428h-8.251c-12.181,0-22.057-10.486-22.058-23.424v-20.6h52.363Zm8.728,6.948a4.5,4.5,0,0,1-4.362,4.634h0v-9.265a4.506,4.506,0,0,1,4.364,4.631m-76.364-18.535a2.321,2.321,0,0,1,0-4.634h82.909a2.321,2.321,0,0,1,0,4.634Z" fill="#f09300"/><path d="M263.534,705.242a6.962,6.962,0,0,0,0-13.9H252.147l-3.713-15.775c-2-8.514-10.129-13.688-18.146-11.555a14.77,14.77,0,0,0-6.941,4.174l-1.267,1.337-1.259-1.337a14.352,14.352,0,0,0-20.278-.875q-.461.423-.883.884a16.153,16.153,0,0,0-3.93,7.372l-3.718,15.775H180.625a6.963,6.963,0,0,0,0,13.9h10.909v4.635a9.286,9.286,0,0,0,0,18.538h.113a29.051,29.051,0,0,0,5.8,15.083c-9.986,3.36-16.785,13.186-16.822,24.311V802.6h82.909v-34.79c-.038-11.124-6.837-20.949-16.822-24.311a29.05,29.05,0,0,0,5.8-15.083h.113a9.288,9.288,0,0,0,0-18.542v-4.631Zm-72,18.538a4.5,4.5,0,0,1-4.364-4.632v-.006a4.506,4.506,0,0,1,4.364-4.631Zm8.424-47.087c1.42-6.032,7.174-9.7,12.854-8.191a10.463,10.463,0,0,1,4.922,2.961l2.8,2.979,4.364,4.635,3.085-3.277-2.821-3,1.259-1.337a10.165,10.165,0,0,1,14.362-.627q.327.3.627.627a11.447,11.447,0,0,1,2.788,5.23l1.265,5.376H198.692ZM197.6,686.7h48.955l1.091,4.634H196.511Zm22.3,83.263v4.794h4.363v-4.794c8.714-1.175,15.254-9.045,15.269-18.379v-1.527a26.211,26.211,0,0,0,3.609-2.735,18.47,18.47,0,0,1,2.937.83v50.33h-48v-50.33a18.5,18.5,0,0,1,2.937-.83,26.211,26.211,0,0,0,3.609,2.735v1.527c.014,9.334,6.554,17.2,15.272,18.379Zm-10.883-17.739a25.047,25.047,0,0,0,8.946,1.677h8.247a25.037,25.037,0,0,0,8.945-1.677c-.323,7.422-6.081,13.264-13.077,13.264S209.341,759.642,209.019,752.228Zm-24.031,15.581a21.318,21.318,0,0,1,8.728-17.331v26.6h-8.728Zm8.728,30.677h-8.727V781.713h8.727Zm56.727-48.008a21.318,21.318,0,0,1,8.728,17.331v9.269h-8.728Zm8.728,48.008h-8.727V781.713h8.727Zm-10.91-86.292v13.648c0,12.937-9.872,23.427-22.054,23.428h-8.251c-12.181,0-22.057-10.486-22.058-23.424v-20.6h52.363Zm8.728,6.948a4.5,4.5,0,0,1-4.362,4.634h0v-9.265A4.506,4.506,0,0,1,256.989,719.142Zm-76.364-18.535a2.321,2.321,0,0,1,0-4.634h82.909a2.321,2.321,0,0,1,0,4.634Z" fill="none" stroke="#ebecec" stroke-width="0.8"/></g></g></svg>