<svg xmlns="http://www.w3.org/2000/svg" width="212.25" height="212.25" viewBox="0 0 212.25 212.25"><g transform="translate(-1291.24 -3296.622)"><g transform="translate(1397.365 3508.872)"><path d="M0,0A106.125,106.125,0,0,0,106.125-106.125,106.125,106.125,0,0,0,0-212.25,106.125,106.125,0,0,0-106.125-106.125,106.125,106.125,0,0,0,0,0" fill="#ebecec"/></g><path d="M0,0A26.7,26.7,0,0,0-20.407-20.407l1.774-8.873A36.54,36.54,0,0,1,8.429-2.218Z" transform="translate(1394.03 3354.61)" fill="#323e5f"/><path d="M0,0C-15.971-3.549-27.949-18.189-27.949-34.6A35.535,35.535,0,0,1,0-69.206l1.774,8.872C-10.2-58.115-19.076-47.025-19.076-34.6A27.058,27.058,0,0,0,1.774-8.429Z" transform="translate(1360.314 3394.98)" fill="#323e5f"/><path d="M0,0-1.775-8.873a28.317,28.317,0,0,0,8.429-3.549l4.88,7.542A37.637,37.637,0,0,1,0,0" transform="translate(1375.397 3394.98)" fill="#323e5f"/><path d="M0,0-7.542-4.88a22.9,22.9,0,0,0,3.549-8.429L4.88-11.534A37.648,37.648,0,0,1,0,0" transform="translate(1397.579 3379.454)" fill="#323e5f"/><path d="M0,0-18.546-18.544a24.762,24.762,0,0,0-3.509-30.6,24.758,24.758,0,0,0-35.015,0,24.76,24.76,0,0,0,0,35.011,24.768,24.768,0,0,0,30.6,3.513L-7.923,7.925C-2.714,13.134,5.211,5.211,0,0M-29.98-22.053a13.557,13.557,0,0,1-19.166,0,13.552,13.552,0,0,1,0-19.166,13.548,13.548,0,0,1,19.166,0,13.553,13.553,0,0,1,0,19.166" transform="translate(1477.639 3431.522)" fill="#323e5f"/><path d="M0,0-18.546-18.544a24.762,24.762,0,0,0-3.509-30.6,24.758,24.758,0,0,0-35.015,0,24.76,24.76,0,0,0,0,35.011,24.768,24.768,0,0,0,30.6,3.513L-7.923,7.925C-2.714,13.134,5.211,5.211,0,0ZM-29.98-22.053a13.557,13.557,0,0,1-19.166,0,13.552,13.552,0,0,1,0-19.166,13.548,13.548,0,0,1,19.166,0A13.553,13.553,0,0,1-29.98-22.053Z" transform="translate(1477.639 3431.522)" fill="none" stroke="#ebecec" stroke-width="5"/><g transform="translate(1453.428 3438.826)"><path d="M0,0V30.5H-11.136V0Z" fill="#323e5f"/></g><g transform="translate(1453.428 3438.826)"><path d="M0,0V30.5H-11.136V0Z" fill="none" stroke="#ebecec" stroke-width="5"/></g><path d="M2065.2-1815.293h-11.134v-23.036H2065.2Z" transform="translate(-630 5284.622)" fill="#323e5f" stroke="#ebecec" stroke-width="5"/><path d="M2028.746-1815.293h-11.134v-68.6h11.134Z" transform="translate(-630 5284.622)" fill="#323e5f" stroke="#ebecec" stroke-width="5"/><path d="M2046.972-1815.293h-11.134v-38.224h11.134Z" transform="translate(-630 5284.622)" fill="#323e5f" stroke="#ebecec" stroke-width="5"/><path d="M2010.521-1815.293h-11.134v-47.292h11.134Z" transform="translate(-630 5284.622)" fill="#323e5f" stroke="#ebecec" stroke-width="5"/><path d="M1992.3-1815.293h-11.134v-37.778H1992.3Z" transform="translate(-630 5284.622)" fill="#323e5f" stroke="#ebecec" stroke-width="5"/></g></svg>