<svg xmlns="http://www.w3.org/2000/svg" width="212.25" height="212.25" viewBox="0 0 212.25 212.25"><g transform="translate(-547.414 -3581.511)"><path d="M0,0A106.125,106.125,0,0,0,106.125-106.125,106.125,106.125,0,0,0,0-212.25,106.125,106.125,0,0,0-106.125-106.125,106.125,106.125,0,0,0,0,0" transform="translate(653.539 3793.761)" fill="#ebecec"/><path d="M0,0H-121.555a2.1,2.1,0,0,0-2.1,2.1v100.6a2.1,2.1,0,0,0,2.1,2.1H0a2.1,2.1,0,0,0,2.1-2.1V2.1A2.1,2.1,0,0,0,0,0M-2.1,100.6H-119.46V4.191H-2.1Z" transform="translate(715.316 3636.511)" fill="#b81370"/><path d="M0,0H-121.555a2.1,2.1,0,0,0-2.1,2.1v100.6a2.1,2.1,0,0,0,2.1,2.1H0a2.1,2.1,0,0,0,2.1-2.1V2.1A2.1,2.1,0,0,0,0,0ZM-2.1,100.6H-119.46V4.191H-2.1Z" transform="translate(715.316 3636.511)" fill="none" stroke="#ebecec" stroke-width="0.6"/><path d="M0,0A8.383,8.383,0,0,1,8.383,8.383a2.1,2.1,0,0,0,2.1,2.1H94.31a2.1,2.1,0,0,0,2.1-2.1A8.383,8.383,0,0,1,104.789,0a2.1,2.1,0,0,0,2.1-2.1V-64.969a2.1,2.1,0,0,0-2.1-2.1,8.383,8.383,0,0,1-8.383-8.383,2.1,2.1,0,0,0-2.1-2.1H10.479a2.1,2.1,0,0,0-2.1,2.1A8.383,8.383,0,0,1,0-67.065a2.1,2.1,0,0,0-2.1,2.1V-2.1A2.1,2.1,0,0,0,0,0M2.1-63.047A12.612,12.612,0,0,0,12.4-73.352H92.388a12.612,12.612,0,0,0,10.305,10.3V-4.018A12.612,12.612,0,0,0,92.388,6.287H12.4A12.612,12.612,0,0,0,2.1-4.018Z" transform="translate(602.145 3722.438)" fill="#b81370"/><path d="M0,0A8.383,8.383,0,0,1,8.383,8.383a2.1,2.1,0,0,0,2.1,2.1H94.31a2.1,2.1,0,0,0,2.1-2.1A8.383,8.383,0,0,1,104.789,0a2.1,2.1,0,0,0,2.1-2.1V-64.969a2.1,2.1,0,0,0-2.1-2.1,8.383,8.383,0,0,1-8.383-8.383,2.1,2.1,0,0,0-2.1-2.1H10.479a2.1,2.1,0,0,0-2.1,2.1A8.383,8.383,0,0,1,0-67.065a2.1,2.1,0,0,0-2.1,2.1V-2.1A2.1,2.1,0,0,0,0,0ZM2.1-63.047A12.612,12.612,0,0,0,12.4-73.352H92.388a12.612,12.612,0,0,0,10.305,10.3V-4.018A12.612,12.612,0,0,0,92.388,6.287H12.4A12.612,12.612,0,0,0,2.1-4.018Z" transform="translate(602.145 3722.438)" fill="none" stroke="#ebecec" stroke-width="0.6"/><path d="M0,0A10.479,10.479,0,0,0,0,20.958,10.48,10.48,0,0,0,10.479,10.479,10.491,10.491,0,0,0,0,0M0,16.766a6.287,6.287,0,0,1-6.287-6.287A6.286,6.286,0,0,1,0,4.192a6.287,6.287,0,0,1,6.287,6.287A6.287,6.287,0,0,1,0,16.766" transform="translate(654.539 3703.576)" fill="#b81370"/><path d="M0,0A10.479,10.479,0,0,0,0,20.958,10.48,10.48,0,0,0,10.479,10.479,10.491,10.491,0,0,0,0,0ZM0,16.766a6.287,6.287,0,0,1-6.287-6.287A6.286,6.286,0,0,1,0,4.192a6.287,6.287,0,0,1,6.287,6.287A6.287,6.287,0,0,1,0,16.766Z" transform="translate(654.539 3703.576)" fill="none" stroke="#ebecec" stroke-width="0.6"/><path d="M0,0A48.59,48.59,0,0,1,32.053,11.963L35.014,9A51.919,51.919,0,0,0,0-4.192,51.919,51.919,0,0,0-35.014,9l2.961,2.966A48.59,48.59,0,0,1,0,0" transform="translate(654.539 3657.469)" fill="#b81370"/><path d="M0,0A48.59,48.59,0,0,1,32.053,11.963L35.014,9A51.919,51.919,0,0,0,0-4.192,51.919,51.919,0,0,0-35.014,9l2.961,2.966A48.59,48.59,0,0,1,0,0Z" transform="translate(654.539 3657.469)" fill="none" stroke="#ebecec" stroke-width="0.6"/><path d="M1273.06-2906.221h20.958v4.191H1273.06Z" transform="translate(-629 6567.881)" fill="#b81370" stroke="#ebecec" stroke-width="0.6"/><path d="M1256.293-2897.838h54.49v4.192h-54.49Z" transform="translate(-629 6567.881)" fill="#b81370" stroke="#ebecec" stroke-width="0.6"/><path d="M1264.677-2889.455H1302.4v4.192h-37.724Z" transform="translate(-629 6567.881)" fill="#b81370" stroke="#ebecec" stroke-width="0.6"/><path d="M0,0H67.065a2.1,2.1,0,0,0,2.1-2.1v-8.383a2.1,2.1,0,0,0-2.1-2.1H0a2.1,2.1,0,0,0-2.1,2.1V-2.1A2.1,2.1,0,0,0,0,0M2.1-8.383H64.969v4.192H2.1Z" transform="translate(621.006 3699.384)" fill="#b81370"/><path d="M0,0H67.065a2.1,2.1,0,0,0,2.1-2.1v-8.383a2.1,2.1,0,0,0-2.1-2.1H0a2.1,2.1,0,0,0-2.1,2.1V-2.1A2.1,2.1,0,0,0,0,0ZM2.1-8.383H64.969v4.192H2.1Z" transform="translate(621.006 3699.384)" fill="none" stroke="#ebecec" stroke-width="0.6"/></g></svg>