<svg xmlns="http://www.w3.org/2000/svg" width="212.25" height="212.25" viewBox="0 0 212.25 212.25"><g transform="translate(-1194.342 -4526.258)"><path d="M0,0A106.125,106.125,0,0,0,106.125-106.125,106.125,106.125,0,0,0,0-212.25,106.125,106.125,0,0,0-106.125-106.125,106.125,106.125,0,0,0,0,0" transform="translate(1300.467 4738.508)" fill="#ebecec"/><path d="M0,0-1.168-10.725c-.043-2.631-4.077-30.039-21.125-36.233a9.428,9.428,0,0,0-6.486-3.665l.138-2.318c10,4.089,15.8-1.574,15.8-1.574a17.529,17.529,0,0,1-3.665-14.624c2.554-11.675-3.072-20.914-10.206-21.294-1.339-2.012-5.853-3.539-10.661-3.539-5.264,0-21.316,2.015-20.342,27.395,0,0,2.146-.238,2.611-.3-.28,6.041-6.114,12.439-6.114,12.439C-57.2-51.521-51.1-50.353-44.451-52.9l.136,2.275a9.245,9.245,0,0,0-6.4,3.677c-18.006,7.231-21.047,33.59-21.09,36.221L-72.976,0l-.229,2.1v.017H.231V2.1m-26.842-90.42c7.749,1.39,9.745,11.009,8.056,18.734a18.326,18.326,0,0,0,2.649,14.711c-1.621.862-5.456,2.242-11.148.28A15.729,15.729,0,0,0-21.4-71.989s-5.635-2.569-6.737-10.837a39.647,39.647,0,0,0,1.527-5.5m-28.93,19.388q0-.224,0-.45c0-20.3,12.7-22.488,18.164-22.488,4.65,0,8.029,1.524,8.823,2.472a36.13,36.13,0,0,1-1.6,5.971c-5.337,7.812-14.536,13.051-25.391,14.5m-2.464,14.02c1.613-2.039,4.937-6.889,5.012-12.3.235-.044.469-.088.7-.137,0,0-.627,7.219,6.37,12.752a15.925,15.925,0,0,1-12.083-.315m7.812-12.907c7.986-1.971,15.519-6.465,20.366-12.526A16.58,16.58,0,0,0-23.2-70.626,13.73,13.73,0,0,1-36.488-53.563,13.724,13.724,0,0,1-50.194-67.821M-30.767-52.54l-.246,4.117L-36.5-41.494l-5.591-7.058-.239-4.037a15.6,15.6,0,0,0,11.563.049m-13.927,4.08L-36.5-38.113l8.194-10.347c4.516.819,6.727,6.452,7.623,9.615l-7-3.606L-36.5-34.214l-8.822-8.237-7,3.607c.888-3.163,3.093-8.8,7.622-9.616m-25.015,37.8c0-1.91,3.477-25.446,16.974-33.045a36.169,36.169,0,0,0-2.5,8.727l9.557-4.926,9.174,8.564,9.172-8.564,9.56,4.926a31.364,31.364,0,0,0-2.506-8.746C-6.818-36.307-3.268-12.573-3.268-10.663L-2.111,0h-9.215l-1-10.45-4.646-9.186a12.9,12.9,0,0,0,.507-6.98l-2.043.482a8.617,8.617,0,0,1-4.9,10.189c0,9.623,2.856,6.638,5.276,15.945H-54.847c.914-6.474,6.015-7.975,5.277-15.945-6.54-2.81-4.968-9.906-4.9-10.189l-2.043-.482a12.888,12.888,0,0,0,.505,6.982l-4.644,9.184-1,10.45h-9.214ZM-13.433,0h-2.445c-1.257-6.831-5.774-9.359-5.457-14.652a9.929,9.929,0,0,0,3.142-2.755l3.82,7.549ZM-57.067,0h-2.477l.942-9.858,3.818-7.549a9.934,9.934,0,0,0,3.143,2.755C-51.244-9.781-55.715-6.9-57.067,0m19.64-7.4a.938.938,0,0,1,.939-.938.938.938,0,0,1,.937.938.938.938,0,0,1-.937.938.938.938,0,0,1-.939-.938m0-11.336a.938.938,0,0,1,.939-.939.939.939,0,0,1,.937.939.937.937,0,0,1-.937.937.937.937,0,0,1-.939-.937" transform="translate(1305.203 4687.565)" fill="#d53216"/><path d="M0,0-1.168-10.725c-.043-2.631-4.077-30.039-21.125-36.233a9.428,9.428,0,0,0-6.486-3.665l.138-2.318c10,4.089,15.8-1.574,15.8-1.574a17.529,17.529,0,0,1-3.665-14.624c2.554-11.675-3.072-20.914-10.206-21.294-1.339-2.012-5.853-3.539-10.661-3.539-5.264,0-21.316,2.015-20.342,27.395,0,0,2.146-.238,2.611-.3-.28,6.041-6.114,12.439-6.114,12.439C-57.2-51.521-51.1-50.353-44.451-52.9l.136,2.275a9.245,9.245,0,0,0-6.4,3.677c-18.006,7.231-21.047,33.59-21.09,36.221L-72.976,0l-.229,2.1v.017H.231V2.1m-26.842-90.42c7.749,1.39,9.745,11.009,8.056,18.734a18.326,18.326,0,0,0,2.649,14.711c-1.621.862-5.456,2.242-11.148.28A15.729,15.729,0,0,0-21.4-71.989s-5.635-2.569-6.737-10.837A39.647,39.647,0,0,0-26.612-88.322Zm-28.93,19.388q0-.224,0-.45c0-20.3,12.7-22.488,18.164-22.488,4.65,0,8.029,1.524,8.823,2.472a36.13,36.13,0,0,1-1.6,5.971C-35.488-75.617-44.687-70.378-55.542-68.934Zm-2.464,14.02c1.613-2.039,4.937-6.889,5.012-12.3.235-.044.469-.088.7-.137,0,0-.627,7.219,6.37,12.752A15.925,15.925,0,0,1-58.006-54.914Zm7.812-12.907c7.986-1.971,15.519-6.465,20.366-12.526A16.58,16.58,0,0,0-23.2-70.626,13.73,13.73,0,0,1-36.488-53.563,13.724,13.724,0,0,1-50.194-67.821ZM-30.767-52.54l-.246,4.117L-36.5-41.494l-5.591-7.058-.239-4.037A15.6,15.6,0,0,0-30.767-52.54Zm-13.927,4.08L-36.5-38.113l8.194-10.347c4.516.819,6.727,6.452,7.623,9.615l-7-3.606L-36.5-34.214l-8.822-8.237-7,3.607C-51.428-42.007-49.223-47.641-44.694-48.46Zm-25.015,37.8c0-1.91,3.477-25.446,16.974-33.045a36.169,36.169,0,0,0-2.5,8.727l9.557-4.926,9.174,8.564,9.172-8.564,9.56,4.926a31.364,31.364,0,0,0-2.506-8.746C-6.818-36.307-3.268-12.573-3.268-10.663L-2.111,0h-9.215l-1-10.45-4.646-9.186a12.9,12.9,0,0,0,.507-6.98l-2.043.482a8.617,8.617,0,0,1-4.9,10.189c0,9.623,2.856,6.638,5.276,15.945H-54.847c.914-6.474,6.015-7.975,5.277-15.945-6.54-2.81-4.968-9.906-4.9-10.189l-2.043-.482a12.888,12.888,0,0,0,.505,6.982l-4.644,9.184-1,10.45h-9.214ZM-13.433,0h-2.445c-1.257-6.831-5.774-9.359-5.457-14.652a9.929,9.929,0,0,0,3.142-2.755l3.82,7.549ZM-57.067,0h-2.477l.942-9.858,3.818-7.549a9.934,9.934,0,0,0,3.143,2.755C-51.244-9.781-55.715-6.9-57.067,0Zm19.64-7.4a.938.938,0,0,1,.939-.938.938.938,0,0,1,.937.938.938.938,0,0,1-.937.938A.938.938,0,0,1-37.427-7.4Zm0-11.336a.938.938,0,0,1,.939-.939.939.939,0,0,1,.937.939.937.937,0,0,1-.937.937A.937.937,0,0,1-37.427-18.739Z" transform="translate(1305.203 4687.565)" fill="none" stroke="#d53216" stroke-width="0.75"/><path d="M0,0A1.849,1.849,0,0,0,.341,3.683a1.93,1.93,0,0,0,.34,0C2.523,3.333,4.078,1.2,4.5.552c.635-.92,2.007-3.378,1-5.118A1.839,1.839,0,0,0,2.96-5.114a1.84,1.84,0,0,0-.778,2.03A4.788,4.788,0,0,1,1.445-1.51,5.317,5.317,0,0,1,0,0" transform="translate(1360.975 4624.1)" fill="#ed3d1b"/><path d="M0,0A1.849,1.849,0,0,0,.341,3.683a1.93,1.93,0,0,0,.34,0C2.523,3.333,4.078,1.2,4.5.552c.635-.92,2.007-3.378,1-5.118A1.839,1.839,0,0,0,2.96-5.114a1.84,1.84,0,0,0-.778,2.03A4.788,4.788,0,0,1,1.445-1.51,5.317,5.317,0,0,1,0,0Z" transform="translate(1360.975 4624.1)" fill="none" stroke="#ebecec" stroke-width="0.808"/><path d="M0,0A34.985,34.985,0,0,0-16.415-29.636a18.321,18.321,0,0,1,.764,5.036A31.434,31.434,0,0,1-5.275-9.869a11.242,11.242,0,0,0-3.867.745l-.5.157a6.991,6.991,0,0,0-4.171-1.621,3.961,3.961,0,0,0-3.323,1.381A4.026,4.026,0,0,0-17.99-5.69a5.992,5.992,0,0,0,.5,1.326,1.525,1.525,0,0,1-.544-.129,3.488,3.488,0,0,0-3.535-1.031,2.982,2.982,0,0,0-1.942,2.661,7.114,7.114,0,0,0,1.7,5.395A7.5,7.5,0,0,0-18.6,4.511l-.065.111c-.221.377-.442.755-.681,1.114a15.126,15.126,0,0,1-.985,1.316,13.816,13.816,0,0,0-2.311,3.775,14.059,14.059,0,0,0-.663,3.738,14.484,14.484,0,0,1-.3,2.3,4.878,4.878,0,0,1-1.05,1.731,16.987,16.987,0,0,1-3.231,2.873c-.286.2-1.234.847-1.621.451A6.992,6.992,0,0,1-31.1,18.487a11.85,11.85,0,0,1-.2-1.915,11.98,11.98,0,0,0-.442-3.342,7.737,7.737,0,0,0-.479-1.261,2.483,2.483,0,0,1-.322-.8A6.448,6.448,0,0,0-33,7.881a5.523,5.523,0,0,1-6.785-2.357l-.35-.608h-.221A6.517,6.517,0,0,1-43.5,4l-.331-.157C-45.14,3.231-46.3,2.21-45.977-1.077a6.376,6.376,0,0,1,.92-2.67l-1.988-3.489a10.358,10.358,0,0,0-2.606,5.8c-.4,4.2,1.022,7.1,4.254,8.608l.322.147A9.528,9.528,0,0,0-39.984,8.59h.212c.663-.138,2.375-.212,3.1.451a2.134,2.134,0,0,1,.424,1.841,4.934,4.934,0,0,0,.709,2.836,5.165,5.165,0,0,1,.3.653,8.967,8.967,0,0,1,.248,2.3,14.677,14.677,0,0,0,.276,2.661,10.555,10.555,0,0,0,2.541,5.211,3.987,3.987,0,0,0,2.937,1.233,6.04,6.04,0,0,0,3.508-1.289,20.251,20.251,0,0,0,3.931-3.544,8.157,8.157,0,0,0,1.749-3.14,17.381,17.381,0,0,0,.406-2.89,11.008,11.008,0,0,1,.46-2.762,10.685,10.685,0,0,1,1.749-2.762c.378-.479.764-.976,1.123-1.51s.553-.866.81-1.317l.369-.607a3.25,3.25,0,0,0,.589-2.762A2.6,2.6,0,0,0-16.148,1.6l-.8-.295A5.145,5.145,0,0,1-19.067.193a3.155,3.155,0,0,1-.7-1.362,5.525,5.525,0,0,0,3.259.525,3.538,3.538,0,0,0,2.762-1.842c.635-1.261,0-2.522-.451-3.452-.083-.175-.212-.433-.231-.488a.369.369,0,0,1,.083-.322.3.3,0,0,1,.276-.12,2.972,2.972,0,0,1,2.1.921c1.022,1.408,2.652.865,3.969.423.975-.322,2.448-.81,3.148-.442a2.064,2.064,0,0,1,.764,1.225A31.228,31.228,0,0,1-29.175,30.75a11.327,11.327,0,0,0-7.274-4.8c-4.962-.92-9.657,1.768-11.112,2.7a31.4,31.4,0,0,1-8.6-5.635,3.879,3.879,0,0,0,.341-.313c1.491-1.574,1.335-3.94,1.1-5.211a5.241,5.241,0,0,1,.193-1.933v-.12a10.458,10.458,0,0,1,.414-1.316,8.277,8.277,0,0,0,.709-3.554c-.193-2.605-2.025-4.18-3.5-5.441-1.326-1.142-2.145-1.906-2.265-2.928a21.585,21.585,0,0,1,0-4.161,1.719,1.719,0,0,0,0-.2c-.092-2.762-2.385-4.6-6.224-5.091.2-.847.451-1.666.718-2.485a3.452,3.452,0,0,0,.6.073h.129c2.071,0,3.866-1.841,5.2-3.415a8.535,8.535,0,0,1,3.259-2.127l.691-.322a9.029,9.029,0,0,0,2.292-1.5s-.644-1.464-.7-1.62a16.738,16.738,0,0,1-.58-1.842,15.511,15.511,0,0,1-.543-4.032,18.971,18.971,0,0,1,.5-4.014c.083-.35.175-.709.276-1.05a34.985,34.985,0,0,0-11.1,48.216,34.985,34.985,0,0,0,48.216,11.1A34.984,34.984,0,0,0,0,0M-54.659-24.305a3.985,3.985,0,0,0,.083.6,4.8,4.8,0,0,0,.1.755,5.118,5.118,0,0,1,0,2.329c-.239.691-.829,1.216-1.97,1.759l-.654.3a11.8,11.8,0,0,0-4.539,3.1,13.821,13.821,0,0,1-1.353,1.427,31.519,31.519,0,0,1,8.332-10.274m-2.909,37.194a13.3,13.3,0,0,0-.553,1.841v.12a8.382,8.382,0,0,0-.212,3.351,2.91,2.91,0,0,1-.156,2.026.562.562,0,0,1-.313.092A31.23,31.23,0,0,1-66.048-3.554c1.354.148,3.066.571,3.177,1.5a25.2,25.2,0,0,0,.064,4.741c.286,2.532,2.081,4.07,3.526,5.3s2.145,1.842,2.219,2.919a5.315,5.315,0,0,1-.506,1.979M-34.985,31.3a31.265,31.265,0,0,1-7.733-.967,10.713,10.713,0,0,1,5.616-.754,7.066,7.066,0,0,1,3.48,1.721Z" transform="translate(1376.045 4611.211)" fill="#d53216"/><path d="M0,0A34.985,34.985,0,0,0-16.415-29.636a18.321,18.321,0,0,1,.764,5.036A31.434,31.434,0,0,1-5.275-9.869a11.242,11.242,0,0,0-3.867.745l-.5.157a6.991,6.991,0,0,0-4.171-1.621,3.961,3.961,0,0,0-3.323,1.381A4.026,4.026,0,0,0-17.99-5.69a5.992,5.992,0,0,0,.5,1.326,1.525,1.525,0,0,1-.544-.129,3.488,3.488,0,0,0-3.535-1.031,2.982,2.982,0,0,0-1.942,2.661,7.114,7.114,0,0,0,1.7,5.395A7.5,7.5,0,0,0-18.6,4.511l-.065.111c-.221.377-.442.755-.681,1.114a15.126,15.126,0,0,1-.985,1.316,13.816,13.816,0,0,0-2.311,3.775,14.059,14.059,0,0,0-.663,3.738,14.484,14.484,0,0,1-.3,2.3,4.878,4.878,0,0,1-1.05,1.731,16.987,16.987,0,0,1-3.231,2.873c-.286.2-1.234.847-1.621.451A6.992,6.992,0,0,1-31.1,18.487a11.85,11.85,0,0,1-.2-1.915,11.98,11.98,0,0,0-.442-3.342,7.737,7.737,0,0,0-.479-1.261,2.483,2.483,0,0,1-.322-.8A6.448,6.448,0,0,0-33,7.881a5.523,5.523,0,0,1-6.785-2.357l-.35-.608h-.221A6.517,6.517,0,0,1-43.5,4l-.331-.157C-45.14,3.231-46.3,2.21-45.977-1.077a6.376,6.376,0,0,1,.92-2.67l-1.988-3.489a10.358,10.358,0,0,0-2.606,5.8c-.4,4.2,1.022,7.1,4.254,8.608l.322.147A9.528,9.528,0,0,0-39.984,8.59h.212c.663-.138,2.375-.212,3.1.451a2.134,2.134,0,0,1,.424,1.841,4.934,4.934,0,0,0,.709,2.836,5.165,5.165,0,0,1,.3.653,8.967,8.967,0,0,1,.248,2.3,14.677,14.677,0,0,0,.276,2.661,10.555,10.555,0,0,0,2.541,5.211,3.987,3.987,0,0,0,2.937,1.233,6.04,6.04,0,0,0,3.508-1.289,20.251,20.251,0,0,0,3.931-3.544,8.157,8.157,0,0,0,1.749-3.14,17.381,17.381,0,0,0,.406-2.89,11.008,11.008,0,0,1,.46-2.762,10.685,10.685,0,0,1,1.749-2.762c.378-.479.764-.976,1.123-1.51s.553-.866.81-1.317l.369-.607a3.25,3.25,0,0,0,.589-2.762A2.6,2.6,0,0,0-16.148,1.6l-.8-.295A5.145,5.145,0,0,1-19.067.193a3.155,3.155,0,0,1-.7-1.362,5.525,5.525,0,0,0,3.259.525,3.538,3.538,0,0,0,2.762-1.842c.635-1.261,0-2.522-.451-3.452-.083-.175-.212-.433-.231-.488a.369.369,0,0,1,.083-.322.3.3,0,0,1,.276-.12,2.972,2.972,0,0,1,2.1.921c1.022,1.408,2.652.865,3.969.423.975-.322,2.448-.81,3.148-.442a2.064,2.064,0,0,1,.764,1.225A31.228,31.228,0,0,1-29.175,30.75a11.327,11.327,0,0,0-7.274-4.8c-4.962-.92-9.657,1.768-11.112,2.7a31.4,31.4,0,0,1-8.6-5.635,3.879,3.879,0,0,0,.341-.313c1.491-1.574,1.335-3.94,1.1-5.211a5.241,5.241,0,0,1,.193-1.933v-.12a10.458,10.458,0,0,1,.414-1.316,8.277,8.277,0,0,0,.709-3.554c-.193-2.605-2.025-4.18-3.5-5.441-1.326-1.142-2.145-1.906-2.265-2.928a21.585,21.585,0,0,1,0-4.161,1.719,1.719,0,0,0,0-.2c-.092-2.762-2.385-4.6-6.224-5.091.2-.847.451-1.666.718-2.485a3.452,3.452,0,0,0,.6.073h.129c2.071,0,3.866-1.841,5.2-3.415a8.535,8.535,0,0,1,3.259-2.127l.691-.322a9.029,9.029,0,0,0,2.292-1.5s-.644-1.464-.7-1.62a16.738,16.738,0,0,1-.58-1.842,15.511,15.511,0,0,1-.543-4.032,18.971,18.971,0,0,1,.5-4.014c.083-.35.175-.709.276-1.05a34.985,34.985,0,0,0-11.1,48.216,34.985,34.985,0,0,0,48.216,11.1A34.984,34.984,0,0,0,0,0ZM-54.659-24.305a3.985,3.985,0,0,0,.083.6,4.8,4.8,0,0,0,.1.755,5.118,5.118,0,0,1,0,2.329c-.239.691-.829,1.216-1.97,1.759l-.654.3a11.8,11.8,0,0,0-4.539,3.1,13.821,13.821,0,0,1-1.353,1.427A31.519,31.519,0,0,1-54.659-24.305Zm-2.909,37.194a13.3,13.3,0,0,0-.553,1.841v.12a8.382,8.382,0,0,0-.212,3.351,2.91,2.91,0,0,1-.156,2.026.562.562,0,0,1-.313.092A31.23,31.23,0,0,1-66.048-3.554c1.354.148,3.066.571,3.177,1.5a25.2,25.2,0,0,0,.064,4.741c.286,2.532,2.081,4.07,3.526,5.3s2.145,1.842,2.219,2.919A5.315,5.315,0,0,1-57.568,12.889ZM-34.985,31.3a31.265,31.265,0,0,1-7.733-.967,10.713,10.713,0,0,1,5.616-.754,7.066,7.066,0,0,1,3.48,1.721Z" transform="translate(1376.045 4611.211)" fill="none" stroke="#ebecec" stroke-width="0.808"/><path d="M0,0,11.8,20.742a1.841,1.841,0,0,0,3.2,0L26.524.488a15.341,15.341,0,0,0,2.532-7.844A15.435,15.435,0,0,0,13.4-22.528,15.434,15.434,0,0,0-2.246-7.356,14.1,14.1,0,0,0,0,0M13.4-18.846A11.748,11.748,0,0,1,25.373-7.356c0,2.044-.746,3.765-2.053,6.039L13.4,16.139,3.2-1.823A10.682,10.682,0,0,1,1.436-7.347,11.749,11.749,0,0,1,13.4-18.846" transform="translate(1327.656 4594.151)" fill="#d53216"/><path d="M0,0,11.8,20.742a1.841,1.841,0,0,0,3.2,0L26.524.488a15.341,15.341,0,0,0,2.532-7.844A15.435,15.435,0,0,0,13.4-22.528,15.434,15.434,0,0,0-2.246-7.356,14.1,14.1,0,0,0,0,0ZM13.4-18.846A11.748,11.748,0,0,1,25.373-7.356c0,2.044-.746,3.765-2.053,6.039L13.4,16.139,3.2-1.823A10.682,10.682,0,0,1,1.436-7.347,11.749,11.749,0,0,1,13.4-18.846Z" transform="translate(1327.656 4594.151)" fill="none" stroke="#ebecec" stroke-width="0.808"/><path d="M0,0A6.445,6.445,0,0,0,6.445-6.445,6.445,6.445,0,0,0,0-12.889,6.445,6.445,0,0,0-6.445-6.445,6.445,6.445,0,0,0,0,0M0-9.206A2.762,2.762,0,0,1,2.762-6.445,2.762,2.762,0,0,1,0-3.683,2.762,2.762,0,0,1-2.762-6.445,2.762,2.762,0,0,1,0-9.206" transform="translate(1341.061 4592.798)" fill="#d53216"/><path d="M0,0A6.445,6.445,0,0,0,6.445-6.445,6.445,6.445,0,0,0,0-12.889,6.445,6.445,0,0,0-6.445-6.445,6.445,6.445,0,0,0,0,0ZM0-9.206A2.762,2.762,0,0,1,2.762-6.445,2.762,2.762,0,0,1,0-3.683,2.762,2.762,0,0,1-2.762-6.445,2.762,2.762,0,0,1,0-9.206Z" transform="translate(1341.061 4592.798)" fill="none" stroke="#ebecec" stroke-width="0.808"/></g></svg>