<svg xmlns="http://www.w3.org/2000/svg" width="212.25" height="212.25" viewBox="0 0 212.25 212.25"><g transform="translate(-484.04 -5333.26)"><path d="M0,0A106.125,106.125,0,0,0,106.125-106.125,106.125,106.125,0,0,0,0-212.25,106.125,106.125,0,0,0-106.125-106.125,106.125,106.125,0,0,0,0,0" transform="translate(590.165 5545.51)" fill="#ebecec"/><path d="M0,0,1.162-3.521c.01-.03.019-.06.028-.091A2.235,2.235,0,0,0-.345-6.376L-16-10.849a2.236,2.236,0,0,0-2.732,1.443l-1.577,4.731-5.6-1.129a2.235,2.235,0,0,1-1.865-2.2v-6.3a20.179,20.179,0,0,0,5.56-5.57H-7.644a2.236,2.236,0,0,0,2.236-2.236V-55.66A33.51,33.51,0,0,0-9.584-71.844l1.824-5.471a2.267,2.267,0,0,0,.116-.707v-4.472A2.237,2.237,0,0,0-8.3-84.075l-4.473-4.473a2.237,2.237,0,0,0-1.581-.655h-49.2a2.237,2.237,0,0,0-1.581.655L-69.6-84.075a2.237,2.237,0,0,0-.655,1.581v4.472a2.231,2.231,0,0,0,.108.707l1.828,5.486A33.462,33.462,0,0,0-72.494-55.66v33.543a2.236,2.236,0,0,0,2.236,2.236h14.585a20.251,20.251,0,0,0,5.541,5.541v6.331a2.254,2.254,0,0,1-1.934,2.216l-5.549,1.121-1.578-4.734a2.237,2.237,0,0,0-2.733-1.443L-77.579-6.376c-.03.008-.061.018-.091.028a2.235,2.235,0,0,0-1.416,2.827L-77.911,0A11.208,11.208,0,0,0-83.675,9.74V51.677a2.236,2.236,0,0,0,2.236,2.237H3.537a2.236,2.236,0,0,0,2.236-2.237V9.74A11.216,11.216,0,0,0,0,0M-15.153-5.96-3.805-2.718-4.233-1.43l-11.65-2.351ZM-25.534-1.166V1.555l-6.708,6.709-3.547-3.546,6.908-6.908a6.658,6.658,0,0,0,2.16.785Zm-13.678,19.3h.524l3.913,31.306h-8.351Zm1.571-4.473h-2.62L-42.5,11.426l3.547-3.547,3.547,3.547Zm-1.31-69.322c-13.189,0-18.672-3.934-20.914-6.708h13.574a31.287,31.287,0,0,0,6.34,4.237,2.24,2.24,0,0,0,1,.235,2.24,2.24,0,0,0,1-.235,26.952,26.952,0,0,0,6.338-4.237H-18.1c-2.3,2.776-7.842,6.708-20.846,6.708M-49.676-66.841H-61.939l-.745-2.236h12.552a6.109,6.109,0,0,0,.456,2.236m-13.873,2.235v.01l-.079.016Zm35.779-4.471h12.546l-.747,2.236H-28.308a6.255,6.255,0,0,0,.538-2.236m-11.17,6.418c-3.084-1.738-6.72-4.609-6.72-6.418v-8.945h13.418l.011,8.84c-.011.038-.387,3.086-6.709,6.523m21.326,18.367a4.46,4.46,0,0,1,3.261,4.286A4.456,4.456,0,0,1-18.4-35.577ZM-9.88-55.66v31.307h-10.1a20.01,20.01,0,0,0,1.158-6.507l.018-.2A8.944,8.944,0,0,0-9.88-40.006a8.935,8.935,0,0,0-7.329-8.782l.62-6.872v-1.85a13.37,13.37,0,0,0,4.378-6.455l.535-1.6a29.044,29.044,0,0,1,1.8,9.91M-65.785-81.568l3.162-3.162h47.344l3.162,3.162v3.184l-1.614,4.835H-27.77v-6.709a2.236,2.236,0,0,0-2.236-2.236H-47.9a2.236,2.236,0,0,0-2.236,2.236v6.709H-64.174l-1.611-4.835Zm-2.236,57.215V-55.66a28.988,28.988,0,0,1,1.766-9.969l.577,1.731h0c.456,1.7,3.78,10.869,21.365,12.453a31.124,31.124,0,0,1-19.237,6.966v4.473a35.654,35.654,0,0,0,3.633-.216l.839,9.16A20.1,20.1,0,0,0-57.9-24.353Zm13.408-6.91-.886-9.752a35.314,35.314,0,0,0,17.505-10.2c7.621-.113,13.011-1.5,16.816-3.352L-23.3-31.062A15.658,15.658,0,0,1-39.056-15.5,15.658,15.658,0,0,1-54.613-31.263m15.662,20.327a20.024,20.024,0,0,0,6.709-1.16v4.087A6.642,6.642,0,0,0-31.8-5.6l-7.155,7.154L-46.108-5.6a6.64,6.64,0,0,0,.448-2.407v-4.1a20.053,20.053,0,0,0,6.709,1.176m-12.3,9.542a6.668,6.668,0,0,0,2.229-.8l6.908,6.908L-45.66,8.264l-6.708-6.709V-1.168ZM-62.771-5.96l.731,2.182L-73.689-1.426l-.431-1.292ZM-79.2,9.74a6.734,6.734,0,0,1,5.309-6.561L-56.841-.265V2.481a2.238,2.238,0,0,0,.656,1.581l8.944,8.945,3.7,3.7-4.092,32.735H-70.219c.385-13.037,4.026-18.836,4.058-18.884a2.257,2.257,0,0,0,.376-1.241V18.135h-4.473V28.71c-1.082,1.967-4.1,8.523-4.438,20.731H-79.2Zm80.5,39.7H-3.206C-3.542,37.233-6.562,30.677-7.644,28.71V18.135h-4.473V29.316a2.3,2.3,0,0,0,.367,1.227c.04.062,3.682,5.861,4.067,18.9H-30.268L-34.36,16.7l3.7-3.7,8.944-8.945a2.238,2.238,0,0,0,.656-1.581V-.263L-4.026,3.175A6.74,6.74,0,0,1,1.3,9.74Z" transform="translate(628.116 5456.902)" fill="#62c1ee"/><path d="M0,0,1.162-3.521c.01-.03.019-.06.028-.091A2.235,2.235,0,0,0-.345-6.376L-16-10.849a2.236,2.236,0,0,0-2.732,1.443l-1.577,4.731-5.6-1.129a2.235,2.235,0,0,1-1.865-2.2v-6.3a20.179,20.179,0,0,0,5.56-5.57H-7.644a2.236,2.236,0,0,0,2.236-2.236V-55.66A33.51,33.51,0,0,0-9.584-71.844l1.824-5.471a2.267,2.267,0,0,0,.116-.707v-4.472A2.237,2.237,0,0,0-8.3-84.075l-4.473-4.473a2.237,2.237,0,0,0-1.581-.655h-49.2a2.237,2.237,0,0,0-1.581.655L-69.6-84.075a2.237,2.237,0,0,0-.655,1.581v4.472a2.231,2.231,0,0,0,.108.707l1.828,5.486A33.462,33.462,0,0,0-72.494-55.66v33.543a2.236,2.236,0,0,0,2.236,2.236h14.585a20.251,20.251,0,0,0,5.541,5.541v6.331a2.254,2.254,0,0,1-1.934,2.216l-5.549,1.121-1.578-4.734a2.237,2.237,0,0,0-2.733-1.443L-77.579-6.376c-.03.008-.061.018-.091.028a2.235,2.235,0,0,0-1.416,2.827L-77.911,0A11.208,11.208,0,0,0-83.675,9.74V51.677a2.236,2.236,0,0,0,2.236,2.237H3.537a2.236,2.236,0,0,0,2.236-2.237V9.74A11.216,11.216,0,0,0,0,0ZM-15.153-5.96-3.805-2.718-4.233-1.43l-11.65-2.351ZM-25.534-1.166V1.555l-6.708,6.709-3.547-3.546,6.908-6.908a6.658,6.658,0,0,0,2.16.785Zm-13.678,19.3h.524l3.913,31.306h-8.351Zm1.571-4.473h-2.62L-42.5,11.426l3.547-3.547,3.547,3.547Zm-1.31-69.322c-13.189,0-18.672-3.934-20.914-6.708h13.574a31.287,31.287,0,0,0,6.34,4.237,2.24,2.24,0,0,0,1,.235,2.24,2.24,0,0,0,1-.235,26.952,26.952,0,0,0,6.338-4.237H-18.1C-20.408-59.592-25.947-55.66-38.951-55.66ZM-49.676-66.841H-61.939l-.745-2.236h12.552A6.109,6.109,0,0,0-49.676-66.841Zm-13.873,2.235v.01l-.079.016Zm35.779-4.471h12.546l-.747,2.236H-28.308A6.255,6.255,0,0,0-27.77-69.077Zm-11.17,6.418c-3.084-1.738-6.72-4.609-6.72-6.418v-8.945h13.418l.011,8.84C-32.242-69.144-32.618-66.1-38.94-62.659Zm21.326,18.367a4.46,4.46,0,0,1,3.261,4.286A4.456,4.456,0,0,1-18.4-35.577ZM-9.88-55.66v31.307h-10.1a20.01,20.01,0,0,0,1.158-6.507l.018-.2A8.944,8.944,0,0,0-9.88-40.006a8.935,8.935,0,0,0-7.329-8.782l.62-6.872v-1.85a13.37,13.37,0,0,0,4.378-6.455l.535-1.6A29.044,29.044,0,0,1-9.88-55.66ZM-65.785-81.568l3.162-3.162h47.344l3.162,3.162v3.184l-1.614,4.835H-27.77v-6.709a2.236,2.236,0,0,0-2.236-2.236H-47.9a2.236,2.236,0,0,0-2.236,2.236v6.709H-64.174l-1.611-4.835Zm-2.236,57.215V-55.66a28.988,28.988,0,0,1,1.766-9.969l.577,1.731h0c.456,1.7,3.78,10.869,21.365,12.453a31.124,31.124,0,0,1-19.237,6.966v4.473a35.654,35.654,0,0,0,3.633-.216l.839,9.16A20.1,20.1,0,0,0-57.9-24.353Zm13.408-6.91-.886-9.752a35.314,35.314,0,0,0,17.505-10.2c7.621-.113,13.011-1.5,16.816-3.352L-23.3-31.062A15.658,15.658,0,0,1-39.056-15.5,15.658,15.658,0,0,1-54.613-31.263Zm15.662,20.327a20.024,20.024,0,0,0,6.709-1.16v4.087A6.642,6.642,0,0,0-31.8-5.6l-7.155,7.154L-46.108-5.6a6.64,6.64,0,0,0,.448-2.407v-4.1A20.053,20.053,0,0,0-38.951-10.936Zm-12.3,9.542a6.668,6.668,0,0,0,2.229-.8l6.908,6.908L-45.66,8.264l-6.708-6.709V-1.168ZM-62.771-5.96l.731,2.182L-73.689-1.426l-.431-1.292ZM-79.2,9.74a6.734,6.734,0,0,1,5.309-6.561L-56.841-.265V2.481a2.238,2.238,0,0,0,.656,1.581l8.944,8.945,3.7,3.7-4.092,32.735H-70.219c.385-13.037,4.026-18.836,4.058-18.884a2.257,2.257,0,0,0,.376-1.241V18.135h-4.473V28.71c-1.082,1.967-4.1,8.523-4.438,20.731H-79.2Zm80.5,39.7H-3.206C-3.542,37.233-6.562,30.677-7.644,28.71V18.135h-4.473V29.316a2.3,2.3,0,0,0,.367,1.227c.04.062,3.682,5.861,4.067,18.9H-30.268L-34.36,16.7l3.7-3.7,8.944-8.945a2.238,2.238,0,0,0,.656-1.581V-.263L-4.026,3.175A6.74,6.74,0,0,1,1.3,9.74Z" transform="translate(628.116 5456.902)" fill="none" stroke="#ebecec" stroke-width="1"/><path d="M1227.346-3969.806h13.417v-4.472h-13.417Z" transform="translate(-627 9458.26)" fill="#62c1ee" stroke="#ebecec" stroke-width="1"/><path d="M1204.984-3974.278h-13.417v4.472h13.417Z" transform="translate(-627 9458.26)" fill="#62c1ee" stroke="#ebecec" stroke-width="1"/></g></svg>