<svg xmlns="http://www.w3.org/2000/svg" width="212.25" height="212.25" viewBox="0 0 212.25 212.25"><g transform="translate(-1312.332 -3356.875)"><path d="M0,0A106.125,106.125,0,0,0,106.125-106.125,106.125,106.125,0,0,0,0-212.25,106.125,106.125,0,0,0-106.125-106.125,106.125,106.125,0,0,0,0,0" transform="translate(1418.457 3569.125)" fill="#ebecec"/><path d="M0,0A11.009,11.009,0,0,0,11.142-10.845a10.685,10.685,0,0,0-2.451-6.77,10.685,10.685,0,0,0,2.451-6.77,10.768,10.768,0,0,0-6.848-10,9.591,9.591,0,0,0,.128-1.547A10.035,10.035,0,0,0-5.734-45.82a10.034,10.034,0,0,0-10.155,9.886,9.48,9.48,0,0,0,.129,1.547,10.768,10.768,0,0,0-6.85,10,10.678,10.678,0,0,0,2.454,6.77,10.678,10.678,0,0,0-2.454,6.77A11.011,11.011,0,0,0-11.465,0,11.237,11.237,0,0,0-7.449-.74v5.7h-3.107a8.346,8.346,0,0,0-6.208,2.759,8.138,8.138,0,0,0-2.042,6.361l.538,9.062h-5.421A24.766,24.766,0,0,0-47.08-.29l.01-3.236c2.906-.107,9.6-.853,13.835-5.254,5.539-5.747,4.567-15.133,4.523-15.53a1.7,1.7,0,0,0-1.618-1.507c-1.029-.045-10.157-.284-15.5,5.259A14.8,14.8,0,0,0-48.808-15.9a15.029,15.029,0,0,0-3.056-4.7c-5.69-5.815-15.511-5.211-15.608-5.209a1.7,1.7,0,0,0-1.607,1.526c-.037.4-.873,9.85,4.71,15.556C-60.09-4.356-53.4-3.62-50.5-3.517L-50.51-.281A24.792,24.792,0,0,0-73.756,23.146H-79.23l.583-8.955a8.171,8.171,0,0,0-2.034-6.469,8.346,8.346,0,0,0-6.206-2.758H-90V-.74A11.252,11.252,0,0,0-85.978,0,11.009,11.009,0,0,0-74.836-10.845a10.679,10.679,0,0,0-2.451-6.77,10.679,10.679,0,0,0,2.451-6.77,10.766,10.766,0,0,0-6.848-10,9.479,9.479,0,0,0,.128-1.547A10.034,10.034,0,0,0-91.711-45.82a10.034,10.034,0,0,0-10.155,9.886,9.479,9.479,0,0,0,.128,1.547,10.766,10.766,0,0,0-6.848,10,10.674,10.674,0,0,0,2.452,6.77,10.674,10.674,0,0,0-2.452,6.77A11.009,11.009,0,0,0-97.444,0a11.261,11.261,0,0,0,4.019-.74v5.7h-3.109a8.346,8.346,0,0,0-6.207,2.759,8.153,8.153,0,0,0-2.044,6.361l.54,9.062h-2.627a1.7,1.7,0,0,0-1.714,1.689v45.6a1.7,1.7,0,0,0,1.714,1.69H9.427a1.706,1.706,0,0,0,1.715-1.69v-45.6a1.7,1.7,0,0,0-1.715-1.689H6.79l.54-8.955A8.164,8.164,0,0,0,5.3,7.723,8.345,8.345,0,0,0-.91,4.964H-4.019V-.74A11.265,11.265,0,0,0,0,0M-43.344-18.233c3.289-3.413,8.822-4.072,11.284-4.192.008,2.428-.371,7.9-3.659,11.319s-8.822,4.072-11.286,4.192c-.007-2.429.372-7.9,3.661-11.319M-61.9-11.073c-3.342-3.416-3.788-8.914-3.81-11.354,2.474.111,8.034.753,11.377,4.169s3.789,8.914,3.81,11.354C-53-7.015-58.557-7.656-61.9-11.073M-48.722,3a21.469,21.469,0,0,1,21.6,20.142h-31.5a9.88,9.88,0,0,1,9.9-8.627,1.7,1.7,0,0,0,1.714-1.689,1.7,1.7,0,0,0-1.714-1.689A13.375,13.375,0,0,0-62.058,23.146h-8.266A21.471,21.471,0,0,1-48.722,3M-97.444-3.378a7.6,7.6,0,0,1-7.713-7.467,7.375,7.375,0,0,1,2.527-5.512,1.677,1.677,0,0,0,.57-1.258,1.684,1.684,0,0,0-.571-1.259,7.373,7.373,0,0,1-2.526-5.511,7.493,7.493,0,0,1,5.873-7.242,1.714,1.714,0,0,0,1.1-.833,1.671,1.671,0,0,0,.113-1.365,6.333,6.333,0,0,1-.37-2.109,6.627,6.627,0,0,1,6.726-6.508,6.627,6.627,0,0,1,6.726,6.508,6.333,6.333,0,0,1-.37,2.109,1.671,1.671,0,0,0,.113,1.365,1.714,1.714,0,0,0,1.1.833,7.493,7.493,0,0,1,5.873,7.242,7.372,7.372,0,0,1-2.526,5.511,1.686,1.686,0,0,0-.57,1.259,1.677,1.677,0,0,0,.57,1.258,7.377,7.377,0,0,1,2.526,5.512,7.6,7.6,0,0,1-7.713,7.467A7.81,7.81,0,0,1-90-4.51V-27.147a1.7,1.7,0,0,0-1.715-1.689,1.7,1.7,0,0,0-1.714,1.689V-4.51a7.816,7.816,0,0,1-4.019,1.132m-2.728,13.339a4.894,4.894,0,0,1,3.638-1.619h9.647A4.892,4.892,0,0,1-83.25,9.961a4.866,4.866,0,0,1,1.189,3.915l-.605,9.27H-100.81l-.247-4.138h6.843A1.7,1.7,0,0,0-92.5,17.319a1.7,1.7,0,0,0-1.714-1.689h-7.045l-.112-1.852a4.819,4.819,0,0,1,1.2-3.817M7.711,26.524V38.082h-57.3a1.7,1.7,0,0,0-1.715,1.69,1.7,1.7,0,0,0,1.715,1.689h57.3V53.805H-60.933a1.7,1.7,0,0,0-1.714,1.69,1.7,1.7,0,0,0,1.714,1.69H7.711V68.742H-105.157V57.185h33.7a1.7,1.7,0,0,0,1.715-1.69,1.7,1.7,0,0,0-1.715-1.69h-33.7V26.524ZM-.91,8.342A4.89,4.89,0,0,1,2.727,9.961a4.875,4.875,0,0,1,1.191,3.923l-.563,9.262H-14.833l-.248-4.138h6.845A1.706,1.706,0,0,0-6.52,17.319,1.7,1.7,0,0,0-8.236,15.63h-7.045l-.113-1.851a4.831,4.831,0,0,1,1.2-3.818,4.9,4.9,0,0,1,3.639-1.619ZM-5.734-28.836a1.7,1.7,0,0,0-1.715,1.689V-4.51a7.806,7.806,0,0,1-4.016,1.132,7.6,7.6,0,0,1-7.714-7.467,7.377,7.377,0,0,1,2.526-5.512,1.676,1.676,0,0,0,.572-1.258,1.685,1.685,0,0,0-.572-1.259,7.373,7.373,0,0,1-2.526-5.511,7.494,7.494,0,0,1,5.873-7.242,1.708,1.708,0,0,0,1.1-.833,1.657,1.657,0,0,0,.113-1.365,6.338,6.338,0,0,1-.368-2.109,6.626,6.626,0,0,1,6.724-6.508A6.627,6.627,0,0,1,.992-35.934a6.322,6.322,0,0,1-.37,2.11A1.68,1.68,0,0,0,.735-32.46a1.724,1.724,0,0,0,1.105.833,7.492,7.492,0,0,1,5.871,7.242,7.369,7.369,0,0,1-2.525,5.511,1.686,1.686,0,0,0-.57,1.259,1.684,1.684,0,0,0,.57,1.258,7.37,7.37,0,0,1,2.525,5.512A7.6,7.6,0,0,1,0-3.378,7.814,7.814,0,0,1-4.019-4.51V-27.147a1.7,1.7,0,0,0-1.715-1.689" transform="translate(1467.375 3449.849)" fill="#f09300"/><path d="M0,0A11.009,11.009,0,0,0,11.142-10.845a10.685,10.685,0,0,0-2.451-6.77,10.685,10.685,0,0,0,2.451-6.77,10.768,10.768,0,0,0-6.848-10,9.591,9.591,0,0,0,.128-1.547A10.035,10.035,0,0,0-5.734-45.82a10.034,10.034,0,0,0-10.155,9.886,9.48,9.48,0,0,0,.129,1.547,10.768,10.768,0,0,0-6.85,10,10.678,10.678,0,0,0,2.454,6.77,10.678,10.678,0,0,0-2.454,6.77A11.011,11.011,0,0,0-11.465,0,11.237,11.237,0,0,0-7.449-.74v5.7h-3.107a8.346,8.346,0,0,0-6.208,2.759,8.138,8.138,0,0,0-2.042,6.361l.538,9.062h-5.421A24.766,24.766,0,0,0-47.08-.29l.01-3.236c2.906-.107,9.6-.853,13.835-5.254,5.539-5.747,4.567-15.133,4.523-15.53a1.7,1.7,0,0,0-1.618-1.507c-1.029-.045-10.157-.284-15.5,5.259A14.8,14.8,0,0,0-48.808-15.9a15.029,15.029,0,0,0-3.056-4.7c-5.69-5.815-15.511-5.211-15.608-5.209a1.7,1.7,0,0,0-1.607,1.526c-.037.4-.873,9.85,4.71,15.556C-60.09-4.356-53.4-3.62-50.5-3.517L-50.51-.281A24.792,24.792,0,0,0-73.756,23.146H-79.23l.583-8.955a8.171,8.171,0,0,0-2.034-6.469,8.346,8.346,0,0,0-6.206-2.758H-90V-.74A11.252,11.252,0,0,0-85.978,0,11.009,11.009,0,0,0-74.836-10.845a10.679,10.679,0,0,0-2.451-6.77,10.679,10.679,0,0,0,2.451-6.77,10.766,10.766,0,0,0-6.848-10,9.479,9.479,0,0,0,.128-1.547A10.034,10.034,0,0,0-91.711-45.82a10.034,10.034,0,0,0-10.155,9.886,9.479,9.479,0,0,0,.128,1.547,10.766,10.766,0,0,0-6.848,10,10.674,10.674,0,0,0,2.452,6.77,10.674,10.674,0,0,0-2.452,6.77A11.009,11.009,0,0,0-97.444,0a11.261,11.261,0,0,0,4.019-.74v5.7h-3.109a8.346,8.346,0,0,0-6.207,2.759,8.153,8.153,0,0,0-2.044,6.361l.54,9.062h-2.627a1.7,1.7,0,0,0-1.714,1.689v45.6a1.7,1.7,0,0,0,1.714,1.69H9.427a1.706,1.706,0,0,0,1.715-1.69v-45.6a1.7,1.7,0,0,0-1.715-1.689H6.79l.54-8.955A8.164,8.164,0,0,0,5.3,7.723,8.345,8.345,0,0,0-.91,4.964H-4.019V-.74A11.265,11.265,0,0,0,0,0ZM-43.344-18.233c3.289-3.413,8.822-4.072,11.284-4.192.008,2.428-.371,7.9-3.659,11.319s-8.822,4.072-11.286,4.192C-47.012-9.343-46.633-14.818-43.344-18.233ZM-61.9-11.073c-3.342-3.416-3.788-8.914-3.81-11.354,2.474.111,8.034.753,11.377,4.169s3.789,8.914,3.81,11.354C-53-7.015-58.557-7.656-61.9-11.073ZM-48.722,3a21.469,21.469,0,0,1,21.6,20.142h-31.5a9.88,9.88,0,0,1,9.9-8.627,1.7,1.7,0,0,0,1.714-1.689,1.7,1.7,0,0,0-1.714-1.689A13.375,13.375,0,0,0-62.058,23.146h-8.266A21.471,21.471,0,0,1-48.722,3ZM-97.444-3.378a7.6,7.6,0,0,1-7.713-7.467,7.375,7.375,0,0,1,2.527-5.512,1.677,1.677,0,0,0,.57-1.258,1.684,1.684,0,0,0-.571-1.259,7.373,7.373,0,0,1-2.526-5.511,7.493,7.493,0,0,1,5.873-7.242,1.714,1.714,0,0,0,1.1-.833,1.671,1.671,0,0,0,.113-1.365,6.333,6.333,0,0,1-.37-2.109,6.627,6.627,0,0,1,6.726-6.508,6.627,6.627,0,0,1,6.726,6.508,6.333,6.333,0,0,1-.37,2.109,1.671,1.671,0,0,0,.113,1.365,1.714,1.714,0,0,0,1.1.833,7.493,7.493,0,0,1,5.873,7.242,7.372,7.372,0,0,1-2.526,5.511,1.686,1.686,0,0,0-.57,1.259,1.677,1.677,0,0,0,.57,1.258,7.377,7.377,0,0,1,2.526,5.512,7.6,7.6,0,0,1-7.713,7.467A7.81,7.81,0,0,1-90-4.51V-27.147a1.7,1.7,0,0,0-1.715-1.689,1.7,1.7,0,0,0-1.714,1.689V-4.51A7.816,7.816,0,0,1-97.444-3.378Zm-2.728,13.339a4.894,4.894,0,0,1,3.638-1.619h9.647A4.892,4.892,0,0,1-83.25,9.961a4.866,4.866,0,0,1,1.189,3.915l-.605,9.27H-100.81l-.247-4.138h6.843A1.7,1.7,0,0,0-92.5,17.319a1.7,1.7,0,0,0-1.714-1.689h-7.045l-.112-1.852A4.819,4.819,0,0,1-100.172,9.961ZM7.711,26.524V38.082h-57.3a1.7,1.7,0,0,0-1.715,1.69,1.7,1.7,0,0,0,1.715,1.689h57.3V53.805H-60.933a1.7,1.7,0,0,0-1.714,1.69,1.7,1.7,0,0,0,1.714,1.69H7.711V68.742H-105.157V57.185h33.7a1.7,1.7,0,0,0,1.715-1.69,1.7,1.7,0,0,0-1.715-1.69h-33.7V26.524ZM-.91,8.342A4.89,4.89,0,0,1,2.727,9.961a4.875,4.875,0,0,1,1.191,3.923l-.563,9.262H-14.833l-.248-4.138h6.845A1.706,1.706,0,0,0-6.52,17.319,1.7,1.7,0,0,0-8.236,15.63h-7.045l-.113-1.851a4.831,4.831,0,0,1,1.2-3.818,4.9,4.9,0,0,1,3.639-1.619ZM-5.734-28.836a1.7,1.7,0,0,0-1.715,1.689V-4.51a7.806,7.806,0,0,1-4.016,1.132,7.6,7.6,0,0,1-7.714-7.467,7.377,7.377,0,0,1,2.526-5.512,1.676,1.676,0,0,0,.572-1.258,1.685,1.685,0,0,0-.572-1.259,7.373,7.373,0,0,1-2.526-5.511,7.494,7.494,0,0,1,5.873-7.242,1.708,1.708,0,0,0,1.1-.833,1.657,1.657,0,0,0,.113-1.365,6.338,6.338,0,0,1-.368-2.109,6.626,6.626,0,0,1,6.724-6.508A6.627,6.627,0,0,1,.992-35.934a6.322,6.322,0,0,1-.37,2.11A1.68,1.68,0,0,0,.735-32.46a1.724,1.724,0,0,0,1.105.833,7.492,7.492,0,0,1,5.871,7.242,7.369,7.369,0,0,1-2.525,5.511,1.686,1.686,0,0,0-.57,1.259,1.684,1.684,0,0,0,.57,1.258,7.37,7.37,0,0,1,2.525,5.512A7.6,7.6,0,0,1,0-3.378,7.814,7.814,0,0,1-4.019-4.51V-27.147A1.7,1.7,0,0,0-5.734-28.836Z" transform="translate(1467.375 3449.849)" fill="none" stroke="#ebecec" stroke-width="0.25"/><path d="M0,0H22.76a1.7,1.7,0,0,0,1.715-1.69A1.7,1.7,0,0,0,22.76-3.379H0A1.7,1.7,0,0,0-1.714-1.69,1.7,1.7,0,0,0,0,0" transform="translate(1378.488 3464.69)" fill="#f09300"/></g></svg>