<svg xmlns="http://www.w3.org/2000/svg" width="212.25" height="212.25" viewBox="0 0 212.25 212.25"><g transform="translate(-1219.582 -3739.26)"><path d="M0,0A106.125,106.125,0,0,0,106.125-106.125,106.125,106.125,0,0,0,0-212.25,106.125,106.125,0,0,0-106.125-106.125,106.125,106.125,0,0,0,0,0" transform="translate(1325.707 3951.51)" fill="#ebecec"/><path d="M0,0H-4.813L-58.325-99.335l6.388-12.873a2.288,2.288,0,0,0,.119-1.761,2.292,2.292,0,0,0-1.16-1.33,2.283,2.283,0,0,0-1.759-.121,2.289,2.289,0,0,0-1.334,1.162l-2.544,5.126v-9.937a2.31,2.31,0,0,0-2.307-2.307,2.31,2.31,0,0,0-2.307,2.307v10.623l-2.884-5.812a2.3,2.3,0,0,0-1.339-1.166,2.279,2.279,0,0,0-1.752.124,2.293,2.293,0,0,0-1.162,1.331,2.288,2.288,0,0,0,.119,1.761l6.55,13.2L-117.031,0h-4.424a2.31,2.31,0,0,0-2.307,2.307,2.31,2.31,0,0,0,2.307,2.307H0A2.31,2.31,0,0,0,2.307,2.307,2.31,2.31,0,0,0,0,0M-10.057,0H-58.428V-32.008H-27.3ZM-58.428-36.622V-38.1l1.065,1.474Zm8.035-7.7-3.421,4.733-3.419-4.733Zm-8.035-4.614V-89.8l22.012,40.863Zm15.135,4.614h6.859l-3.43,4.738Zm-6.972,7.7,3.423-4.736,3.427,4.736Zm13.952,0,3.744-5.172,2.785,5.172Zm-26.729,4.614V0h-48.746l17.241-32.006ZM-85.427-48.934l22.385-41.555v41.555Zm.318,4.613h6.842l-3.421,4.734Zm6.972,7.7,3.419-4.733L-71.3-36.62Zm-13.925,0,2.915-5.41,3.91,5.41Zm27.731-7.7-3.419,4.733-3.42-4.733Zm1.289,6.1v1.6H-64.2Z" transform="translate(1386.9 3893.886)" fill="#66c1ed"/><path d="M0,0H-4.813L-58.325-99.335l6.388-12.873a2.288,2.288,0,0,0,.119-1.761,2.292,2.292,0,0,0-1.16-1.33,2.283,2.283,0,0,0-1.759-.121,2.289,2.289,0,0,0-1.334,1.162l-2.544,5.126v-9.937a2.31,2.31,0,0,0-2.307-2.307,2.31,2.31,0,0,0-2.307,2.307v10.623l-2.884-5.812a2.3,2.3,0,0,0-1.339-1.166,2.279,2.279,0,0,0-1.752.124,2.293,2.293,0,0,0-1.162,1.331,2.288,2.288,0,0,0,.119,1.761l6.55,13.2L-117.031,0h-4.424a2.31,2.31,0,0,0-2.307,2.307,2.31,2.31,0,0,0,2.307,2.307H0A2.31,2.31,0,0,0,2.307,2.307,2.31,2.31,0,0,0,0,0ZM-10.057,0H-58.428V-32.008H-27.3ZM-58.428-36.622V-38.1l1.065,1.474Zm8.035-7.7-3.421,4.733-3.419-4.733Zm-8.035-4.614V-89.8l22.012,40.863Zm15.135,4.614h6.859l-3.43,4.738Zm-6.972,7.7,3.423-4.736,3.427,4.736Zm13.952,0,3.744-5.172,2.785,5.172Zm-26.729,4.614V0h-48.746l17.241-32.006ZM-85.427-48.934l22.385-41.555v41.555Zm.318,4.613h6.842l-3.421,4.734Zm6.972,7.7,3.419-4.733L-71.3-36.62Zm-13.925,0,2.915-5.41,3.91,5.41Zm27.731-7.7-3.419,4.733-3.42-4.733Zm1.289,6.1v1.6H-64.2Z" transform="translate(1386.9 3893.886)" fill="none" stroke="#ebecec" stroke-width="0.75"/></g></svg>