<svg xmlns="http://www.w3.org/2000/svg" width="212.25" height="212.25" viewBox="0 0 212.25 212.25"><g transform="translate(-1148.732 -6149.717)"><path d="M0,0A106.125,106.125,0,0,0,106.125-106.125,106.125,106.125,0,0,0,0-212.25,106.125,106.125,0,0,0-106.125-106.125,106.125,106.125,0,0,0,0,0" transform="translate(1254.857 6361.967)" fill="#ebecec"/><g transform="translate(1258.086 6245.735)"><path d="M0,0V-7.266H-4.229v5.5l-3.61,3.633,2.99,3.009Z" fill="#62c1ee"/></g><g transform="translate(1258.086 6245.735)"><path d="M0,0V-7.266H-4.229v5.5l-3.61,3.633,2.99,3.009Z" fill="none" stroke="#e5e5e5" stroke-width="0.75"/></g><path d="M0,0H-39.119V-4.648a6.373,6.373,0,0,0,4.229-5.993V-31.923a6.373,6.373,0,0,0-4.229-5.993V-49.97l-10.572-8.513v-5.363h4.229v-5.138L-56.035-79.625v-5.5h-4.229v5.5L-70.836-68.984v5.138h4.229v5.363L-77.18-49.97v12.056a6.373,6.373,0,0,0-4.229,5.993v21.282A6.373,6.373,0,0,0-77.18-4.646V0H-116.3l-7.4,9.932V46.821H7.4V9.932ZM-2.115,4.256,1.057,8.513H-39.119V4.256ZM-5.286,25.538H-9.515V21.282h4.229Zm-8.458-8.512v8.512H-22.2V17.026H-34.89v8.512h-4.229V12.769H3.172V25.538H-1.057V17.026Zm-12.688,8.512h-4.229V21.282h4.229Zm-59.206,0h-4.229V21.282h4.229ZM-94.1,17.026v8.512h-8.458V17.026h-12.687v8.512h-4.229V12.769h42.29V25.538h-4.229V17.026Zm-12.687,8.512h-4.229V21.282h4.229Zm38.061,17.026h-4.229V-4.256h4.229Zm0-46.82,16.174-51.077,5.286,4.256H-69.037l5.286-4.256Zm4.971,8.512h4.229v8.513h-4.229Zm0,8.513-16.916-8.513h4.229v8.513h-4.229Zm0,8.513,8.458-8.513h4.229v8.513h-4.229Zm-12.687,8.513h-4.229v-8.513h4.229Zm0-8.513,10.573,14.9A10.619,10.619,0,0,1-47.577-21.282,10.619,10.619,0,0,1-58.149-10.641,10.619,10.619,0,0,1-68.722-21.282,10.619,10.619,0,0,1-58.149-31.923m6.343,57.461H-64.493V12.769h12.687Zm0-17.025H-64.493V-4.256h12.687ZM-64.493,29.8h12.687V42.564H-64.493ZM-47.577-4.256h4.229v46.82h-4.229Zm8.458-6.385a2.123,2.123,0,0,1-2.114,2.128h-9.331a14.91,14.91,0,0,0,7.216-12.769,14.91,14.91,0,0,0-7.216-12.769h9.331a2.123,2.123,0,0,1,2.114,2.128Zm-19.03-65.093,7.582,7.631H-65.732ZM-53.92-59.59h-8.458v-4.256h8.458Zm0-4.256M-77.18-31.923a2.123,2.123,0,0,1,2.115-2.128h9.331a14.909,14.909,0,0,0-7.217,12.769A14.909,14.909,0,0,0-65.734-8.513h-9.331a2.123,2.123,0,0,1-2.115-2.128Zm-37,36.179h37V8.513h-40.176ZM-119.47,29.8h42.29V42.564h-4.229V34.051H-94.1v8.513h-8.458V34.051h-12.687v8.513h-4.229Zm33.832,12.769h-4.229V38.308h4.229Zm-21.145,0h-4.229V38.308h4.229Zm80.351,0h-4.229V38.308h4.229Zm21.146,0H-9.515V38.308h4.229Zm4.229,0V34.051H-13.744v8.513H-22.2V34.051H-34.89v8.513h-4.229V29.8H3.172V42.564Z" transform="translate(1314.12 6266.136)" fill="#62c1ee"/><path d="M0,0H-39.119V-4.648a6.373,6.373,0,0,0,4.229-5.993V-31.923a6.373,6.373,0,0,0-4.229-5.993V-49.97l-10.572-8.513v-5.363h4.229v-5.138L-56.035-79.625v-5.5h-4.229v5.5L-70.836-68.984v5.138h4.229v5.363L-77.18-49.97v12.056a6.373,6.373,0,0,0-4.229,5.993v21.282A6.373,6.373,0,0,0-77.18-4.646V0H-116.3l-7.4,9.932V46.821H7.4V9.932ZM-2.115,4.256,1.057,8.513H-39.119V4.256ZM-5.286,25.538H-9.515V21.282h4.229Zm-8.458-8.512v8.512H-22.2V17.026H-34.89v8.512h-4.229V12.769H3.172V25.538H-1.057V17.026Zm-12.688,8.512h-4.229V21.282h4.229Zm-59.206,0h-4.229V21.282h4.229ZM-94.1,17.026v8.512h-8.458V17.026h-12.687v8.512h-4.229V12.769h42.29V25.538h-4.229V17.026Zm-12.687,8.512h-4.229V21.282h4.229Zm38.061,17.026h-4.229V-4.256h4.229Zm0-46.82,16.174-51.077,5.286,4.256H-69.037l5.286-4.256Zm4.971,8.512h4.229v8.513h-4.229Zm0,8.513-16.916-8.513h4.229v8.513h-4.229Zm0,8.513,8.458-8.513h4.229v8.513h-4.229Zm-12.687,8.513h-4.229v-8.513h4.229Zm0-8.513,10.573,14.9A10.619,10.619,0,0,1-47.577-21.282,10.619,10.619,0,0,1-58.149-10.641,10.619,10.619,0,0,1-68.722-21.282,10.619,10.619,0,0,1-58.149-31.923Zm6.343,57.461H-64.493V12.769h12.687Zm0-17.025H-64.493V-4.256h12.687ZM-64.493,29.8h12.687V42.564H-64.493ZM-47.577-4.256h4.229v46.82h-4.229Zm8.458-6.385a2.123,2.123,0,0,1-2.114,2.128h-9.331a14.91,14.91,0,0,0,7.216-12.769,14.91,14.91,0,0,0-7.216-12.769h9.331a2.123,2.123,0,0,1,2.114,2.128Zm-19.03-65.093,7.582,7.631H-65.732ZM-53.92-59.59h-8.458v-4.256h8.458Zm0-4.256M-77.18-31.923a2.123,2.123,0,0,1,2.115-2.128h9.331a14.909,14.909,0,0,0-7.217,12.769A14.909,14.909,0,0,0-65.734-8.513h-9.331a2.123,2.123,0,0,1-2.115-2.128Zm-37,36.179h37V8.513h-40.176ZM-119.47,29.8h42.29V42.564h-4.229V34.051H-94.1v8.513h-8.458V34.051h-12.687v8.513h-4.229Zm33.832,12.769h-4.229V38.308h4.229Zm-21.145,0h-4.229V38.308h4.229Zm80.351,0h-4.229V38.308h4.229Zm21.146,0H-9.515V38.308h4.229Zm4.229,0V34.051H-13.744v8.513H-22.2V34.051H-34.89v8.513h-4.229V29.8H3.172V42.564Z" transform="translate(1314.12 6266.136)" fill="none" stroke="#e5e5e5" stroke-width="0.75"/><path d="M1880.857-3192.124h4.229v4.256h-4.229Z" transform="translate(-627 9458.26)" fill="#62c1ee" stroke="#e5e5e5" stroke-width="0.75"/><path d="M1880.857-3175.1h4.229v4.256h-4.229Z" transform="translate(-627 9458.26)" fill="#62c1ee" stroke="#e5e5e5" stroke-width="0.75"/><path d="M1880.857-3158.073h4.229v4.256h-4.229Z" transform="translate(-627 9458.26)" fill="#62c1ee" stroke="#e5e5e5" stroke-width="0.75"/></g></svg>