<svg xmlns="http://www.w3.org/2000/svg" width="212.25" height="212.25" viewBox="0 0 212.25 212.25"><g transform="translate(-1264.24 -3939.205)"><path d="M0,0A106.125,106.125,0,0,0,106.125-106.125,106.125,106.125,0,0,0,0-212.25,106.125,106.125,0,0,0-106.125-106.125,106.125,106.125,0,0,0,0,0" transform="translate(1370.365 4151.455)" fill="#ebecec"/><g transform="translate(1372.56 4092.506)"><path d="M0,0-1.168-10.725c-.043-2.631-4.077-30.039-21.125-36.233a9.428,9.428,0,0,0-6.486-3.665l.138-2.318c10,4.089,15.8-1.574,15.8-1.574a17.529,17.529,0,0,1-3.665-14.624c2.554-11.675-3.072-20.914-10.206-21.294-1.339-2.012-5.853-3.539-10.661-3.539-5.264,0-21.316,2.015-20.342,27.395,0,0,2.146-.238,2.611-.3-.28,6.041-6.114,12.439-6.114,12.439C-57.2-51.521-51.1-50.353-44.451-52.9l.136,2.275a9.245,9.245,0,0,0-6.4,3.677c-18.006,7.231-21.047,33.59-21.09,36.221L-72.976,0l-.229,2.1v.017H.231V2.1m-26.842-90.42c7.749,1.39,9.745,11.009,8.056,18.734a18.326,18.326,0,0,0,2.649,14.711c-1.621.862-5.456,2.242-11.148.28A15.729,15.729,0,0,0-21.4-71.989s-5.635-2.569-6.737-10.837a39.647,39.647,0,0,0,1.527-5.5m-28.93,19.388q0-.224,0-.45c0-20.3,12.7-22.488,18.164-22.488,4.65,0,8.029,1.524,8.823,2.472a36.13,36.13,0,0,1-1.6,5.971c-5.337,7.812-14.536,13.051-25.391,14.5m-2.464,14.02c1.613-2.039,4.937-6.889,5.012-12.3.235-.044.469-.088.7-.137,0,0-.627,7.219,6.37,12.752a15.925,15.925,0,0,1-12.083-.315m7.812-12.907c7.986-1.971,15.519-6.465,20.366-12.526A16.58,16.58,0,0,0-23.2-70.626,13.73,13.73,0,0,1-36.488-53.563,13.724,13.724,0,0,1-50.194-67.821M-30.767-52.54l-.246,4.117L-36.5-41.494l-5.591-7.058-.239-4.037a15.6,15.6,0,0,0,11.563.049m-13.927,4.08L-36.5-38.113l8.194-10.347c4.516.819,6.727,6.452,7.623,9.615l-7-3.606L-36.5-34.214l-8.822-8.237-7,3.607c.888-3.163,3.093-8.8,7.622-9.616m-25.015,37.8c0-1.91,3.477-25.446,16.974-33.045a36.169,36.169,0,0,0-2.5,8.727l9.557-4.926,9.174,8.564,9.172-8.564,9.56,4.926a31.364,31.364,0,0,0-2.506-8.746C-6.818-36.307-3.268-12.573-3.268-10.663L-2.111,0h-9.215l-1-10.45-4.646-9.186a12.9,12.9,0,0,0,.507-6.98l-2.043.482a8.617,8.617,0,0,1-4.9,10.189c0,9.623,2.856,6.638,5.276,15.945H-54.847c.914-6.474,6.015-7.975,5.277-15.945-6.54-2.81-4.968-9.906-4.9-10.189l-2.043-.482a12.888,12.888,0,0,0,.505,6.982l-4.644,9.184-1,10.45h-9.214ZM-13.433,0h-2.445c-1.257-6.831-5.774-9.359-5.457-14.652a9.929,9.929,0,0,0,3.142-2.755l3.82,7.549ZM-57.067,0h-2.477l.942-9.858,3.818-7.549a9.934,9.934,0,0,0,3.143,2.755C-51.244-9.781-55.715-6.9-57.067,0m19.64-7.4a.938.938,0,0,1,.939-.938.938.938,0,0,1,.937.938.938.938,0,0,1-.937.938.938.938,0,0,1-.939-.938m0-11.336a.938.938,0,0,1,.939-.939.939.939,0,0,1,.937.939.937.937,0,0,1-.937.937.937.937,0,0,1-.939-.937" fill="#323e5f"/></g><g transform="translate(1372.56 4092.506)"><path d="M0,0-1.168-10.725c-.043-2.631-4.077-30.039-21.125-36.233a9.428,9.428,0,0,0-6.486-3.665l.138-2.318c10,4.089,15.8-1.574,15.8-1.574a17.529,17.529,0,0,1-3.665-14.624c2.554-11.675-3.072-20.914-10.206-21.294-1.339-2.012-5.853-3.539-10.661-3.539-5.264,0-21.316,2.015-20.342,27.395,0,0,2.146-.238,2.611-.3-.28,6.041-6.114,12.439-6.114,12.439C-57.2-51.521-51.1-50.353-44.451-52.9l.136,2.275a9.245,9.245,0,0,0-6.4,3.677c-18.006,7.231-21.047,33.59-21.09,36.221L-72.976,0l-.229,2.1v.017H.231V2.1m-26.842-90.42c7.749,1.39,9.745,11.009,8.056,18.734a18.326,18.326,0,0,0,2.649,14.711c-1.621.862-5.456,2.242-11.148.28A15.729,15.729,0,0,0-21.4-71.989s-5.635-2.569-6.737-10.837A39.647,39.647,0,0,0-26.612-88.322Zm-28.93,19.388q0-.224,0-.45c0-20.3,12.7-22.488,18.164-22.488,4.65,0,8.029,1.524,8.823,2.472a36.13,36.13,0,0,1-1.6,5.971C-35.488-75.617-44.687-70.378-55.542-68.934Zm-2.464,14.02c1.613-2.039,4.937-6.889,5.012-12.3.235-.044.469-.088.7-.137,0,0-.627,7.219,6.37,12.752A15.925,15.925,0,0,1-58.006-54.914Zm7.812-12.907c7.986-1.971,15.519-6.465,20.366-12.526A16.58,16.58,0,0,0-23.2-70.626,13.73,13.73,0,0,1-36.488-53.563,13.724,13.724,0,0,1-50.194-67.821ZM-30.767-52.54l-.246,4.117L-36.5-41.494l-5.591-7.058-.239-4.037A15.6,15.6,0,0,0-30.767-52.54Zm-13.927,4.08L-36.5-38.113l8.194-10.347c4.516.819,6.727,6.452,7.623,9.615l-7-3.606L-36.5-34.214l-8.822-8.237-7,3.607C-51.428-42.007-49.223-47.641-44.694-48.46Zm-25.015,37.8c0-1.91,3.477-25.446,16.974-33.045a36.169,36.169,0,0,0-2.5,8.727l9.557-4.926,9.174,8.564,9.172-8.564,9.56,4.926a31.364,31.364,0,0,0-2.506-8.746C-6.818-36.307-3.268-12.573-3.268-10.663L-2.111,0h-9.215l-1-10.45-4.646-9.186a12.9,12.9,0,0,0,.507-6.98l-2.043.482a8.617,8.617,0,0,1-4.9,10.189c0,9.623,2.856,6.638,5.276,15.945H-54.847c.914-6.474,6.015-7.975,5.277-15.945-6.54-2.81-4.968-9.906-4.9-10.189l-2.043-.482a12.888,12.888,0,0,0,.505,6.982l-4.644,9.184-1,10.45h-9.214ZM-13.433,0h-2.445c-1.257-6.831-5.774-9.359-5.457-14.652a9.929,9.929,0,0,0,3.142-2.755l3.82,7.549ZM-57.067,0h-2.477l.942-9.858,3.818-7.549a9.934,9.934,0,0,0,3.143,2.755C-51.244-9.781-55.715-6.9-57.067,0Zm19.64-7.4a.938.938,0,0,1,.939-.938.938.938,0,0,1,.937.938.938.938,0,0,1-.937.938A.938.938,0,0,1-37.427-7.4Zm0-11.336a.938.938,0,0,1,.939-.939.939.939,0,0,1,.937.939.937.937,0,0,1-.937.937A.937.937,0,0,1-37.427-18.739Z" fill="none" stroke="#323e5f" stroke-width="0.75"/></g><g transform="translate(1380.885 4076.974)"><path d="M0,0H68.255V-30.142c0-12.766-12.207-24.144-26.169-24.144H26.163C12.377-54.286,0-43.08,0-30.142V0ZM39.871-52.187l-5.725,7c-.007.007-.012.016-.019.024-.007-.008-.012-.017-.019-.026l-5.729-7Zm1.073,40.311L34.127-4.912,27.31-11.874,34.127-43.4ZM2.1-30.142c0-10.38,9.852-21.773,23.575-22.04l6.491,7.932L25.14-11.766a1.047,1.047,0,0,0,.277.957l7.962,8.133a1.05,1.05,0,0,0,1.5,0l7.963-8.133a1.049,1.049,0,0,0,.276-.957L36.093-44.25c1.185-1.451,5.309-6.495,6.487-7.932,12.618.259,23.578,10.446,23.578,22.04V-1.948H53.144v-29.83A1.049,1.049,0,0,0,52.1-32.827a1.049,1.049,0,0,0-1.048,1.049v29.83H17.208v-29.83a1.049,1.049,0,0,0-1.049-1.049,1.05,1.05,0,0,0-1.049,1.049v29.83H2.1V-30.142ZM34.04-54.833A20.558,20.558,0,0,0,54.575-75.365,20.558,20.558,0,0,0,34.04-95.9,20.556,20.556,0,0,0,13.507-75.365,20.555,20.555,0,0,0,34.04-54.833m0-38.966A18.456,18.456,0,0,1,52.475-75.364,18.454,18.454,0,0,1,34.04-56.93,18.455,18.455,0,0,1,15.6-75.364,18.457,18.457,0,0,1,34.04-93.8" fill="#323e5f"/></g><g transform="translate(1380.885 4076.974)"><path d="M0,0H68.255V-30.142c0-12.766-12.207-24.144-26.169-24.144H26.163C12.377-54.286,0-43.08,0-30.142V0ZM39.871-52.187l-5.725,7c-.007.007-.012.016-.019.024-.007-.008-.012-.017-.019-.026l-5.729-7Zm1.073,40.311L34.127-4.912,27.31-11.874,34.127-43.4ZM2.1-30.142c0-10.38,9.852-21.773,23.575-22.04l6.491,7.932L25.14-11.766a1.047,1.047,0,0,0,.277.957l7.962,8.133a1.05,1.05,0,0,0,1.5,0l7.963-8.133a1.049,1.049,0,0,0,.276-.957L36.093-44.25c1.185-1.451,5.309-6.495,6.487-7.932,12.618.259,23.578,10.446,23.578,22.04V-1.948H53.144v-29.83A1.049,1.049,0,0,0,52.1-32.827a1.049,1.049,0,0,0-1.048,1.049v29.83H17.208v-29.83a1.049,1.049,0,0,0-1.049-1.049,1.05,1.05,0,0,0-1.049,1.049v29.83H2.1V-30.142ZM34.04-54.833A20.558,20.558,0,0,0,54.575-75.365,20.558,20.558,0,0,0,34.04-95.9,20.556,20.556,0,0,0,13.507-75.365,20.555,20.555,0,0,0,34.04-54.833Zm0-38.966A18.456,18.456,0,0,1,52.475-75.364,18.454,18.454,0,0,1,34.04-56.93,18.455,18.455,0,0,1,15.6-75.364,18.457,18.457,0,0,1,34.04-93.8Z" fill="none" stroke="#323e5f" stroke-width="0.75"/></g></g></svg>