<svg xmlns="http://www.w3.org/2000/svg" width="212.25" height="212.25" viewBox="0 0 212.25 212.25"><g transform="translate(-567.029 -3518.428)"><path d="M0,0A106.125,106.125,0,0,0,106.125-106.125,106.125,106.125,0,0,0,0-212.25,106.125,106.125,0,0,0-106.125-106.125,106.125,106.125,0,0,0,0,0" transform="translate(673.154 3730.678)" fill="#ebecec"/><path d="M0,0H-21.5V-24.027a5.653,5.653,0,0,0-5.751-5.535h-86.88a5.653,5.653,0,0,0-5.751,5.535V81.814a5.652,5.652,0,0,0,5.751,5.534h86.88A5.652,5.652,0,0,0-21.5,81.814V67.782H0a1.983,1.983,0,0,0,2.011-1.948V1.949A1.984,1.984,0,0,0,0,0M-2.012,63.885H-68.684V3.9H-2.012Zm0-59.987M-87.965-9.244h34.539a7.239,7.239,0,0,0,7.41-7.038v-1.393h11V0H-70.695a1.983,1.983,0,0,0-2.011,1.949V65.834a1.982,1.982,0,0,0,2.011,1.948h35.678V74.5h-71.356V-17.675h11v1.393a7.239,7.239,0,0,0,7.41,7.038m-27.9-14.783a1.687,1.687,0,0,1,1.728-1.637h18.76v4.091h-13.011a1.982,1.982,0,0,0-2.01,1.949V76.444a1.982,1.982,0,0,0,2.01,1.949H-33a1.983,1.983,0,0,0,2.011-1.949V67.782h5.467V81.814a1.687,1.687,0,0,1-1.729,1.637h-86.88a1.687,1.687,0,0,1-1.728-1.637ZM-25.526,0h-5.467V-19.624A1.983,1.983,0,0,0-33-21.573H-46.016v-4.091h18.761a1.687,1.687,0,0,1,1.729,1.637ZM-50.037-16.282a3.275,3.275,0,0,1-3.389,3.14H-87.965a3.274,3.274,0,0,1-3.388-3.14v-1.393h41.316Zm-41.316-9.382h41.315v4.091H-91.353Zm0,4.091" transform="translate(737.699 3594.789)" fill="#219e49"/><path d="M0,0H-21.5V-24.027a5.653,5.653,0,0,0-5.751-5.535h-86.88a5.653,5.653,0,0,0-5.751,5.535V81.814a5.652,5.652,0,0,0,5.751,5.534h86.88A5.652,5.652,0,0,0-21.5,81.814V67.782H0a1.983,1.983,0,0,0,2.011-1.948V1.949A1.984,1.984,0,0,0,0,0ZM-2.012,63.885H-68.684V3.9H-2.012Zm0-59.987M-87.965-9.244h34.539a7.239,7.239,0,0,0,7.41-7.038v-1.393h11V0H-70.695a1.983,1.983,0,0,0-2.011,1.949V65.834a1.982,1.982,0,0,0,2.011,1.948h35.678V74.5h-71.356V-17.675h11v1.393A7.239,7.239,0,0,0-87.965-9.244Zm-27.9-14.783a1.687,1.687,0,0,1,1.728-1.637h18.76v4.091h-13.011a1.982,1.982,0,0,0-2.01,1.949V76.444a1.982,1.982,0,0,0,2.01,1.949H-33a1.983,1.983,0,0,0,2.011-1.949V67.782h5.467V81.814a1.687,1.687,0,0,1-1.729,1.637h-86.88a1.687,1.687,0,0,1-1.728-1.637ZM-25.526,0h-5.467V-19.624A1.983,1.983,0,0,0-33-21.573H-46.016v-4.091h18.761a1.687,1.687,0,0,1,1.729,1.637ZM-50.037-16.282a3.275,3.275,0,0,1-3.389,3.14H-87.965a3.274,3.274,0,0,1-3.388-3.14v-1.393h41.316Zm-41.316-9.382h41.315v4.091H-91.353Zm0,4.091" transform="translate(737.699 3594.789)" fill="none" stroke="#ebecec" stroke-width="0.5"/><path d="M0,0,4.384,4.2,0,8.409a1.9,1.9,0,0,0,0,2.77,2.107,2.107,0,0,0,2.828,0L7.244,6.946l4.415,4.233a2.057,2.057,0,0,0,2.828,0,1.905,1.905,0,0,0,0-2.77L10.1,4.2,14.487,0a1.905,1.905,0,0,0,.6-1.385,1.907,1.907,0,0,0-.6-1.386,2.062,2.062,0,0,0-2.828,0L7.244,1.462,2.828-2.771A2.061,2.061,0,0,0,0-2.771,1.9,1.9,0,0,0-.6-1.385,1.9,1.9,0,0,0,0,0" transform="translate(642.728 3592.534)" fill="#219e49"/><path d="M0,0,4.384,4.2,0,8.409a1.9,1.9,0,0,0,0,2.77,2.107,2.107,0,0,0,2.828,0L7.244,6.946l4.415,4.233a2.057,2.057,0,0,0,2.828,0,1.905,1.905,0,0,0,0-2.77L10.1,4.2,14.487,0a1.905,1.905,0,0,0,.6-1.385,1.907,1.907,0,0,0-.6-1.386,2.062,2.062,0,0,0-2.828,0L7.244,1.462,2.828-2.771A2.061,2.061,0,0,0,0-2.771,1.9,1.9,0,0,0-.6-1.385,1.9,1.9,0,0,0,0,0Z" transform="translate(642.728 3592.534)" fill="none" stroke="#ebecec" stroke-width="0.5"/><path d="M0,0A1.91,1.91,0,0,0-.6-1.385h0a2.068,2.068,0,0,0-2.828,0L-7.84,2.849l-4.416-4.235a2.066,2.066,0,0,0-2.828,0A1.9,1.9,0,0,0-15.682,0a1.905,1.905,0,0,0,.6,1.387l4.384,4.2-4.384,4.2a1.9,1.9,0,0,0-.6,1.385,1.905,1.905,0,0,0,.6,1.385,2.11,2.11,0,0,0,2.829,0L-7.84,8.33l4.414,4.233a2.03,2.03,0,0,0,1.416.564A2.029,2.029,0,0,0-.6,12.563,1.908,1.908,0,0,0,0,11.178,1.9,1.9,0,0,0-.6,9.793l-4.383-4.2L-.6,1.386A1.91,1.91,0,0,0,0,0" transform="translate(657.812 3620.123)" fill="#219e49"/><path d="M0,0A1.91,1.91,0,0,0-.6-1.385h0a2.068,2.068,0,0,0-2.828,0L-7.84,2.849l-4.416-4.235a2.066,2.066,0,0,0-2.828,0A1.9,1.9,0,0,0-15.682,0a1.905,1.905,0,0,0,.6,1.387l4.384,4.2-4.384,4.2a1.9,1.9,0,0,0-.6,1.385,1.905,1.905,0,0,0,.6,1.385,2.11,2.11,0,0,0,2.829,0L-7.84,8.33l4.414,4.233a2.03,2.03,0,0,0,1.416.564A2.029,2.029,0,0,0-.6,12.563,1.908,1.908,0,0,0,0,11.178,1.9,1.9,0,0,0-.6,9.793l-4.383-4.2L-.6,1.386A1.91,1.91,0,0,0,0,0Z" transform="translate(657.812 3620.123)" fill="none" stroke="#ebecec" stroke-width="0.5"/><path d="M0,0A1.907,1.907,0,0,0-.6-1.386a2.06,2.06,0,0,0-2.828,0L-7.84,2.848l-4.416-4.234a2.062,2.062,0,0,0-2.828,0A1.908,1.908,0,0,0-15.682,0a1.908,1.908,0,0,0,.6,1.386l4.384,4.2-4.384,4.2a1.907,1.907,0,0,0-.6,1.387,1.9,1.9,0,0,0,.6,1.383,2.105,2.105,0,0,0,2.829,0L-7.84,8.331l4.414,4.232a2.029,2.029,0,0,0,1.416.565A2.025,2.025,0,0,0-.6,12.564,1.9,1.9,0,0,0,0,11.18,1.91,1.91,0,0,0-.6,9.793L-4.98,5.59-.6,1.386A1.907,1.907,0,0,0,0,0" transform="translate(657.812 3649.097)" fill="#219e49"/><path d="M0,0A1.907,1.907,0,0,0-.6-1.386a2.06,2.06,0,0,0-2.828,0L-7.84,2.848l-4.416-4.234a2.062,2.062,0,0,0-2.828,0A1.908,1.908,0,0,0-15.682,0a1.908,1.908,0,0,0,.6,1.386l4.384,4.2-4.384,4.2a1.907,1.907,0,0,0-.6,1.387,1.9,1.9,0,0,0,.6,1.383,2.105,2.105,0,0,0,2.829,0L-7.84,8.331l4.414,4.232a2.029,2.029,0,0,0,1.416.565A2.025,2.025,0,0,0-.6,12.564,1.9,1.9,0,0,0,0,11.18,1.91,1.91,0,0,0-.6,9.793L-4.98,5.59-.6,1.386A1.907,1.907,0,0,0,0,0Z" transform="translate(657.812 3649.097)" fill="none" stroke="#ebecec" stroke-width="0.5"/><path d="M0,0A25.317,25.317,0,0,0,23.072,14.464c.271,0,.536-.018.8-.034l.3-.029a1.4,1.4,0,0,0,.515-.015A25.387,25.387,0,0,0,44.672,2.7a1.672,1.672,0,0,0,.346-.547A23.41,23.41,0,0,0,48.295-9.739a23.177,23.177,0,0,0-1.381-7.828l-.065-.178A24.767,24.767,0,0,0,33.277-31.853l-.2.46.178-.469a.976.976,0,0,0-.155-.07A25.891,25.891,0,0,0,23.072-33.94c-13.907,0-25.221,10.856-25.221,24.2A23.089,23.089,0,0,0-.095-.2,1.236,1.236,0,0,0,0,0M36.008-19.259A7.674,7.674,0,0,0,31.385-21c-1.512-.163-2.021-.218-2.7-1.895-.909-2.223,2.4-4.292,3.76-5.029A20.736,20.736,0,0,1,42.485-17.866a6.767,6.767,0,0,1-6.477-1.393m-11.068-2.2a6.31,6.31,0,0,0,6.007,4.332,3.828,3.828,0,0,1,2.366.759,10.832,10.832,0,0,0,10.423,2.188,19.3,19.3,0,0,1,.535,4.438,19.389,19.389,0,0,1-1.265,6.9,17.407,17.407,0,0,0-10.865-7.451,9.66,9.66,0,0,0-9.875,3.537C18.15-1.717,21.109,5.936,21.252,6.293a14.722,14.722,0,0,1,1.238,4.263A21.486,21.486,0,0,1,5.118,1.013C13.041.254,17.263-4.342,17.67-12.659c.174-3.568.572-4.279,3.623-8.22a5.788,5.788,0,0,0,1.2-4.544,9.122,9.122,0,0,0-2.249-4.423,20.866,20.866,0,0,1,7.5.32c-2.951,2.432-3.945,5.269-2.8,8.07M25.419-4.33a5.554,5.554,0,0,1,5.669-2.2,2.027,2.027,0,0,0,.335.072c.057.009,5.764.894,9.428,7.726a21.231,21.231,0,0,1-14.341,9,18.106,18.106,0,0,0-1.551-5.485c-.029-.08-2.148-5.928.46-9.119M18.076-23.218c-3.388,4.375-4.2,5.857-4.424,10.374C13.429-8.262,12.027-3,3.175-2.794a19.372,19.372,0,0,1-1.3-6.945A20.406,20.406,0,0,1,15.736-28.764c.8.687,2.533,2.348,2.782,3.937a1.96,1.96,0,0,1-.442,1.609M.428-.261h0Z" transform="translate(679.877 3638.546)" fill="#219e49"/><path d="M0,0A25.317,25.317,0,0,0,23.072,14.464c.271,0,.536-.018.8-.034l.3-.029a1.4,1.4,0,0,0,.515-.015A25.387,25.387,0,0,0,44.672,2.7a1.672,1.672,0,0,0,.346-.547A23.41,23.41,0,0,0,48.295-9.739a23.177,23.177,0,0,0-1.381-7.828l-.065-.178A24.767,24.767,0,0,0,33.277-31.853l-.2.46.178-.469a.976.976,0,0,0-.155-.07A25.891,25.891,0,0,0,23.072-33.94c-13.907,0-25.221,10.856-25.221,24.2A23.089,23.089,0,0,0-.095-.2,1.236,1.236,0,0,0,0,0ZM36.008-19.259A7.674,7.674,0,0,0,31.385-21c-1.512-.163-2.021-.218-2.7-1.895-.909-2.223,2.4-4.292,3.76-5.029A20.736,20.736,0,0,1,42.485-17.866,6.767,6.767,0,0,1,36.008-19.259Zm-11.068-2.2a6.31,6.31,0,0,0,6.007,4.332,3.828,3.828,0,0,1,2.366.759,10.832,10.832,0,0,0,10.423,2.188,19.3,19.3,0,0,1,.535,4.438,19.389,19.389,0,0,1-1.265,6.9,17.407,17.407,0,0,0-10.865-7.451,9.66,9.66,0,0,0-9.875,3.537C18.15-1.717,21.109,5.936,21.252,6.293a14.722,14.722,0,0,1,1.238,4.263A21.486,21.486,0,0,1,5.118,1.013C13.041.254,17.263-4.342,17.67-12.659c.174-3.568.572-4.279,3.623-8.22a5.788,5.788,0,0,0,1.2-4.544,9.122,9.122,0,0,0-2.249-4.423,20.866,20.866,0,0,1,7.5.32C24.789-27.094,23.8-24.257,24.94-21.456ZM25.419-4.33a5.554,5.554,0,0,1,5.669-2.2,2.027,2.027,0,0,0,.335.072c.057.009,5.764.894,9.428,7.726a21.231,21.231,0,0,1-14.341,9,18.106,18.106,0,0,0-1.551-5.485C24.93,4.709,22.811-1.139,25.419-4.33ZM18.076-23.218c-3.388,4.375-4.2,5.857-4.424,10.374C13.429-8.262,12.027-3,3.175-2.794a19.372,19.372,0,0,1-1.3-6.945A20.406,20.406,0,0,1,15.736-28.764c.8.687,2.533,2.348,2.782,3.937A1.96,1.96,0,0,1,18.076-23.218ZM.428-.261h0Z" transform="translate(679.877 3638.546)" fill="none" stroke="#ebecec" stroke-width="0.5"/></g></svg>