<svg xmlns="http://www.w3.org/2000/svg" width="212.25" height="212.25" viewBox="0 0 212.25 212.25"><g transform="translate(-404.199 -3417.26)"><path d="M0,0A106.125,106.125,0,0,0,106.125-106.125,106.125,106.125,0,0,0,0-212.25,106.125,106.125,0,0,0-106.125-106.125,106.125,106.125,0,0,0,0,0" transform="translate(510.324 3629.51)" fill="#ebecec"/><path d="M0,0-31.69-42.558a.746.746,0,0,0-.5-.3.75.75,0,0,0-.561.151L-50.776-28.649a.75.75,0,0,0-.283.694H-85.127c-2.327,0-7.969.479-11.416,4.794l-4.242-2,1.828-2.456a.75.75,0,0,0-.141-1.039L-117.122-42.7a.746.746,0,0,0-.562-.152.75.75,0,0,0-.5.295L-149.871,0a.75.75,0,0,0,.141,1.04L-131.7,15.09a.741.741,0,0,0,.561.151.75.75,0,0,0,.5-.294l3-4.025,2.932,2.292-.119.168a10.017,10.017,0,0,0-1.78,7.365,9.569,9.569,0,0,0,3.7,6.3,9.158,9.158,0,0,0,5.564,1.863,7.273,7.273,0,0,0,.845-.053,9.791,9.791,0,0,0,3.743,8.818,9.18,9.18,0,0,0,5.557,1.858,8.282,8.282,0,0,0,1.651-.174,8.9,8.9,0,0,0,.078,1.4,9.6,9.6,0,0,0,3.721,6.412,9.19,9.19,0,0,0,5.557,1.855,9.522,9.522,0,0,0,5.312-1.636,9.469,9.469,0,0,0,3.32,4.774,9.267,9.267,0,0,0,10.472.424l1.115.82a9.456,9.456,0,0,0,5.659,1.883,9.591,9.591,0,0,0,1.578-.13A9.321,9.321,0,0,0-62.6,51.28a9.365,9.365,0,0,0,1.681-4.7,9.513,9.513,0,0,0,4.7,1.241A9.422,9.422,0,0,0-48.5,43.81a9.7,9.7,0,0,0,1.7-5.8,9.319,9.319,0,0,0,10.043-3.7,9.679,9.679,0,0,0,1.719-6.158,9.058,9.058,0,0,0,1.6.147,9.421,9.421,0,0,0,7.7-4.008,9.738,9.738,0,0,0,1.6-7.269,9.911,9.911,0,0,0-2.11-4.61l3.24-2.518,3.762,5.052a.745.745,0,0,0,.5.3.745.745,0,0,0,.561-.151L-.141,1.04A.751.751,0,0,0,0,0M-143.856-.3l27.01-36.275,11.875,9.26-27,36.277ZM-29.494,21.566a4.749,4.749,0,0,1-3.141,1.975,4.973,4.973,0,0,1-3.771-.922L-50.241,12.511a.636.636,0,0,0-.106-.064l-4.269-3.116a.754.754,0,0,0-.567-.134.745.745,0,0,0-.491.311l-1.808,2.6a.75.75,0,0,0,.172,1.035l15.532,11.365a5.174,5.174,0,0,1,1.252,7.08,4.756,4.756,0,0,1-3.139,1.973,4.979,4.979,0,0,1-3.777-.916L-62.9,21.339a.758.758,0,0,0-.566-.135.745.745,0,0,0-.492.309l-1.821,2.593a.749.749,0,0,0,.169,1.036l12.076,8.876a5.18,5.18,0,0,1,1.254,7.076,4.73,4.73,0,0,1-3.127,1.969,4.994,4.994,0,0,1-3.785-.917l-4.222-3.1a10.177,10.177,0,0,0-1.5-1.383l-2.2-1.613a9.665,9.665,0,0,0-3.759-7.087,8.868,8.868,0,0,0-4.795-1.706,9.99,9.99,0,0,0,1.561-6.91,9.577,9.577,0,0,0-3.72-6.411,9.626,9.626,0,0,0-12.182.878,9.44,9.44,0,0,0-3.168-4.33,9.728,9.728,0,0,0-12.266.953,9.286,9.286,0,0,0-3.156-4.3,9.3,9.3,0,0,0-6.96-1.651,9.725,9.725,0,0,0-6.419,3.864l-.034.046-2.844-2.218,21.221-28.506,4.326,2.033-2.694,3.847a10,10,0,0,0-1.78,7.365,9.549,9.549,0,0,0,3.693,6.286,9.185,9.185,0,0,0,7,1.753,9.638,9.638,0,0,0,6.381-3.938l4.541-6.42,6.941-.025c1.42,6.6,7.535,12.07,13.65,12.07h13.238l17.6,12.833a5.238,5.238,0,0,1,2.057,3.343,5,5,0,0,1-.812,3.743Zm-92.549-1.52a5.308,5.308,0,0,1,.954-3.91l2.85-4.03a5.063,5.063,0,0,1,4.082-2.125,4.665,4.665,0,0,1,2.81.934,4.894,4.894,0,0,1,1.884,3.234,5.33,5.33,0,0,1-.954,3.909l-3.067,4.268a5.013,5.013,0,0,1-6.676.952,4.9,4.9,0,0,1-1.883-3.232M-46.655-2.9a.749.749,0,0,0-.443-.144H-61.577c-4.5,0-9.118-4.869-9.325-9.83l-.069-1.532a.748.748,0,0,0-.749-.717h0l-12.433.043a.753.753,0,0,0-.61.317L-90.45-6.734a5.008,5.008,0,0,1-3.336,2.052,4.634,4.634,0,0,1-3.555-.884,4.891,4.891,0,0,1-1.877-3.215,5.338,5.338,0,0,1,.956-3.919l4.915-7.018c2.169-3.289,6.841-3.544,8.222-3.544h37.447l21.9,29.407-4.1,3.186Zm-64.3,29.669,1.225-1.686a1.746,1.746,0,0,0,.207-.238l6.713-9.4a5.054,5.054,0,0,1,4.074-2.12,4.63,4.63,0,0,1,2.81.938,5.188,5.188,0,0,1,.966,7.115l-8.16,11.334a5.093,5.093,0,0,1-3.372,2.012,4.629,4.629,0,0,1-3.515-.818,5.186,5.186,0,0,1-.948-7.134m11,9.5,8.709-12.112c.009-.012.017-.025.025-.038l3.754-5.223a5.05,5.05,0,0,1,4.077-2.117,4.626,4.626,0,0,1,2.809.933A4.91,4.91,0,0,1-78.685,21a5.313,5.313,0,0,1-.946,3.837l-4.405,6.108a1.787,1.787,0,0,0-.195.228L-89.484,38.5a.975.975,0,0,0-.1.168l-2.541,3.536a5.069,5.069,0,0,1-3.363,2.008A4.68,4.68,0,0,1-99,43.391l0,0a4.916,4.916,0,0,1-1.9-3.289,5.29,5.29,0,0,1,.947-3.833m14.118,5.148,5.513-7.673a5,5,0,0,1,3.9-1.93,4.62,4.62,0,0,1,2.8.928,5.181,5.181,0,0,1,.952,7.137l-5.252,7.332a5.069,5.069,0,0,1-3.35,2.01,4.653,4.653,0,0,1-3.536-.828,5.19,5.19,0,0,1-1.023-6.976m16.894,1.228a8.868,8.868,0,0,0,.772-1.3l1.568,1.149a5.134,5.134,0,0,1,.247,6.061h0a4.756,4.756,0,0,1-3.129,1.972,4.926,4.926,0,0,1-3.778-.916l-.435-.322Zm35.914-79.216L-6.018-.3-17.9,8.964l-27-36.277Z" transform="translate(584.352 3517.173)" fill="#66c1ed"/><path d="M0,0-31.69-42.558a.746.746,0,0,0-.5-.3.75.75,0,0,0-.561.151L-50.776-28.649a.75.75,0,0,0-.283.694H-85.127c-2.327,0-7.969.479-11.416,4.794l-4.242-2,1.828-2.456a.75.75,0,0,0-.141-1.039L-117.122-42.7a.746.746,0,0,0-.562-.152.75.75,0,0,0-.5.295L-149.871,0a.75.75,0,0,0,.141,1.04L-131.7,15.09a.741.741,0,0,0,.561.151.75.75,0,0,0,.5-.294l3-4.025,2.932,2.292-.119.168a10.017,10.017,0,0,0-1.78,7.365,9.569,9.569,0,0,0,3.7,6.3,9.158,9.158,0,0,0,5.564,1.863,7.273,7.273,0,0,0,.845-.053,9.791,9.791,0,0,0,3.743,8.818,9.18,9.18,0,0,0,5.557,1.858,8.282,8.282,0,0,0,1.651-.174,8.9,8.9,0,0,0,.078,1.4,9.6,9.6,0,0,0,3.721,6.412,9.19,9.19,0,0,0,5.557,1.855,9.522,9.522,0,0,0,5.312-1.636,9.469,9.469,0,0,0,3.32,4.774,9.267,9.267,0,0,0,10.472.424l1.115.82a9.456,9.456,0,0,0,5.659,1.883,9.591,9.591,0,0,0,1.578-.13A9.321,9.321,0,0,0-62.6,51.28a9.365,9.365,0,0,0,1.681-4.7,9.513,9.513,0,0,0,4.7,1.241A9.422,9.422,0,0,0-48.5,43.81a9.7,9.7,0,0,0,1.7-5.8,9.319,9.319,0,0,0,10.043-3.7,9.679,9.679,0,0,0,1.719-6.158,9.058,9.058,0,0,0,1.6.147,9.421,9.421,0,0,0,7.7-4.008,9.738,9.738,0,0,0,1.6-7.269,9.911,9.911,0,0,0-2.11-4.61l3.24-2.518,3.762,5.052a.745.745,0,0,0,.5.3.745.745,0,0,0,.561-.151L-.141,1.04A.751.751,0,0,0,0,0ZM-143.856-.3l27.01-36.275,11.875,9.26-27,36.277ZM-29.494,21.566a4.749,4.749,0,0,1-3.141,1.975,4.973,4.973,0,0,1-3.771-.922L-50.241,12.511a.636.636,0,0,0-.106-.064l-4.269-3.116a.754.754,0,0,0-.567-.134.745.745,0,0,0-.491.311l-1.808,2.6a.75.75,0,0,0,.172,1.035l15.532,11.365a5.174,5.174,0,0,1,1.252,7.08,4.756,4.756,0,0,1-3.139,1.973,4.979,4.979,0,0,1-3.777-.916L-62.9,21.339a.758.758,0,0,0-.566-.135.745.745,0,0,0-.492.309l-1.821,2.593a.749.749,0,0,0,.169,1.036l12.076,8.876a5.18,5.18,0,0,1,1.254,7.076,4.73,4.73,0,0,1-3.127,1.969,4.994,4.994,0,0,1-3.785-.917l-4.222-3.1a10.177,10.177,0,0,0-1.5-1.383l-2.2-1.613a9.665,9.665,0,0,0-3.759-7.087,8.868,8.868,0,0,0-4.795-1.706,9.99,9.99,0,0,0,1.561-6.91,9.577,9.577,0,0,0-3.72-6.411,9.626,9.626,0,0,0-12.182.878,9.44,9.44,0,0,0-3.168-4.33,9.728,9.728,0,0,0-12.266.953,9.286,9.286,0,0,0-3.156-4.3,9.3,9.3,0,0,0-6.96-1.651,9.725,9.725,0,0,0-6.419,3.864l-.034.046-2.844-2.218,21.221-28.506,4.326,2.033-2.694,3.847a10,10,0,0,0-1.78,7.365,9.549,9.549,0,0,0,3.693,6.286,9.185,9.185,0,0,0,7,1.753,9.638,9.638,0,0,0,6.381-3.938l4.541-6.42,6.941-.025c1.42,6.6,7.535,12.07,13.65,12.07h13.238l17.6,12.833a5.238,5.238,0,0,1,2.057,3.343,5,5,0,0,1-.812,3.743Zm-92.549-1.52a5.308,5.308,0,0,1,.954-3.91l2.85-4.03a5.063,5.063,0,0,1,4.082-2.125,4.665,4.665,0,0,1,2.81.934,4.894,4.894,0,0,1,1.884,3.234,5.33,5.33,0,0,1-.954,3.909l-3.067,4.268a5.013,5.013,0,0,1-6.676.952A4.9,4.9,0,0,1-122.043,20.046ZM-46.655-2.9a.749.749,0,0,0-.443-.144H-61.577c-4.5,0-9.118-4.869-9.325-9.83l-.069-1.532a.748.748,0,0,0-.749-.717h0l-12.433.043a.753.753,0,0,0-.61.317L-90.45-6.734a5.008,5.008,0,0,1-3.336,2.052,4.634,4.634,0,0,1-3.555-.884,4.891,4.891,0,0,1-1.877-3.215,5.338,5.338,0,0,1,.956-3.919l4.915-7.018c2.169-3.289,6.841-3.544,8.222-3.544h37.447l21.9,29.407-4.1,3.186Zm-64.3,29.669,1.225-1.686a1.746,1.746,0,0,0,.207-.238l6.713-9.4a5.054,5.054,0,0,1,4.074-2.12,4.63,4.63,0,0,1,2.81.938,5.188,5.188,0,0,1,.966,7.115l-8.16,11.334a5.093,5.093,0,0,1-3.372,2.012,4.629,4.629,0,0,1-3.515-.818A5.186,5.186,0,0,1-110.957,26.767Zm11,9.5,8.709-12.112c.009-.012.017-.025.025-.038l3.754-5.223a5.05,5.05,0,0,1,4.077-2.117,4.626,4.626,0,0,1,2.809.933A4.91,4.91,0,0,1-78.685,21a5.313,5.313,0,0,1-.946,3.837l-4.405,6.108a1.787,1.787,0,0,0-.195.228L-89.484,38.5a.975.975,0,0,0-.1.168l-2.541,3.536a5.069,5.069,0,0,1-3.363,2.008A4.68,4.68,0,0,1-99,43.391l0,0a4.916,4.916,0,0,1-1.9-3.289A5.29,5.29,0,0,1-99.953,36.267Zm14.118,5.148,5.513-7.673a5,5,0,0,1,3.9-1.93,4.62,4.62,0,0,1,2.8.928,5.181,5.181,0,0,1,.952,7.137l-5.252,7.332a5.069,5.069,0,0,1-3.35,2.01,4.653,4.653,0,0,1-3.536-.828A5.19,5.19,0,0,1-85.835,41.415Zm16.894,1.228a8.868,8.868,0,0,0,.772-1.3l1.568,1.149a5.134,5.134,0,0,1,.247,6.061h0a4.756,4.756,0,0,1-3.129,1.972,4.926,4.926,0,0,1-3.778-.916l-.435-.322Zm35.914-79.216L-6.018-.3-17.9,8.964l-27-36.277Z" transform="translate(584.352 3517.173)" fill="none" stroke="#ebecec" stroke-width="1"/></g></svg>