<svg xmlns="http://www.w3.org/2000/svg" width="212.25" height="212.25" viewBox="0 0 212.25 212.25"><g transform="translate(-413.794 -6977.717)"><path d="M0,0A106.125,106.125,0,0,0,106.125-106.125,106.125,106.125,0,0,0,0-212.25,106.125,106.125,0,0,0-106.125-106.125,106.125,106.125,0,0,0,0,0" transform="translate(519.919 7189.967)" fill="#ebecec"/><path d="M0,0-43.542-77.353c-4.239-7.526-10.067-11.671-16.41-11.671s-12.174,4.145-16.413,11.671L-119.916,0c-4.225,7.5-4.75,14.715-1.48,20.3s9.826,8.673,18.455,8.673h85.974c8.626,0,15.182-3.08,18.451-8.671S4.228,7.5,0,0M-3.185,17.577c-2.262,3.864-7.157,6-13.783,6h-85.971c-6.628,0-11.525-2.131-13.788-6s-1.72-9.164,1.524-14.925L-71.652-74.7c3.239-5.748,7.393-8.917,11.7-8.917s8.459,3.169,11.7,8.918L-4.714,2.65C-1.465,8.412-.921,13.713-3.185,17.577" transform="translate(580.037 7107.323)" fill="#62c1ee"/><path d="M0,0-43.542-77.353c-4.239-7.526-10.067-11.671-16.41-11.671s-12.174,4.145-16.413,11.671L-119.916,0c-4.225,7.5-4.75,14.715-1.48,20.3s9.826,8.673,18.455,8.673h85.974c8.626,0,15.182-3.08,18.451-8.671S4.228,7.5,0,0ZM-3.185,17.577c-2.262,3.864-7.157,6-13.783,6h-85.971c-6.628,0-11.525-2.131-13.788-6s-1.72-9.164,1.524-14.925L-71.652-74.7c3.239-5.748,7.393-8.917,11.7-8.917s8.459,3.169,11.7,8.918L-4.714,2.65C-1.465,8.412-.921,13.713-3.185,17.577Z" transform="translate(580.037 7107.323)" fill="none" stroke="#ebecec" stroke-width="1"/><path d="M0,0A10.49,10.49,0,0,0-10.48,10.477,10.485,10.485,0,0,0,0,20.943,10.482,10.482,0,0,0,10.476,10.477,10.487,10.487,0,0,0,0,0M0,15.541a5.074,5.074,0,0,1-5.072-5.064A5.081,5.081,0,0,1,0,5.4a5.078,5.078,0,0,1,5.069,5.076A5.073,5.073,0,0,1,0,15.541" transform="translate(520.085 7100.101)" fill="#62c1ee"/><path d="M0,0A10.49,10.49,0,0,0-10.48,10.477,10.485,10.485,0,0,0,0,20.943,10.482,10.482,0,0,0,10.476,10.477,10.487,10.487,0,0,0,0,0ZM0,15.541a5.074,5.074,0,0,1-5.072-5.064A5.081,5.081,0,0,1,0,5.4a5.078,5.078,0,0,1,5.069,5.076A5.073,5.073,0,0,1,0,15.541Z" transform="translate(520.085 7100.101)" fill="none" stroke="#ebecec" stroke-width="1"/><path d="M0,0A7.624,7.624,0,0,0,7.617,7.509,7.626,7.626,0,0,0,15.236,0c2.209-33.514,2.209-33.692,2.209-33.811A9.832,9.832,0,0,0,7.62-43.63a9.835,9.835,0,0,0-9.829,9.819c0,.141,0,.274,2.151,32.92ZM7.62-38.227a4.4,4.4,0,0,1,4.42,4.3C12-33.221,10.579-11.606,9.832-.277L9.827-.1A2.21,2.21,0,0,1,7.619,2.108,2.209,2.209,0,0,1,5.411-.1s-.022-.414-.07-1.148C4-21.506,3.225-33.418,3.2-33.809A4.42,4.42,0,0,1,7.62-38.227" transform="translate(512.465 7090.129)" fill="#62c1ee"/><path d="M0,0A7.624,7.624,0,0,0,7.617,7.509,7.626,7.626,0,0,0,15.236,0c2.209-33.514,2.209-33.692,2.209-33.811A9.832,9.832,0,0,0,7.62-43.63a9.835,9.835,0,0,0-9.829,9.819c0,.141,0,.274,2.151,32.92ZM7.62-38.227a4.4,4.4,0,0,1,4.42,4.3C12-33.221,10.579-11.606,9.832-.277L9.827-.1A2.21,2.21,0,0,1,7.619,2.108,2.209,2.209,0,0,1,5.411-.1s-.022-.414-.07-1.148C4-21.506,3.225-33.418,3.2-33.809A4.42,4.42,0,0,1,7.62-38.227Z" transform="translate(512.465 7090.129)" fill="none" stroke="#ebecec" stroke-width="1"/></g></svg>