<svg xmlns="http://www.w3.org/2000/svg" width="212.25" height="212.25" viewBox="0 0 212.25 212.25"><g transform="translate(-547.362 -6401.969)"><path d="M0,0A106.125,106.125,0,0,0,106.125-106.125,106.125,106.125,0,0,0,0-212.25,106.125,106.125,0,0,0-106.125-106.125,106.125,106.125,0,0,0,0,0" transform="translate(653.487 6614.219)" fill="#ebecec"/><path d="M0,0A37.947,37.947,0,0,0,29-13.4l.3-.294a37.9,37.9,0,0,0,8.979-24.583A38.291,38.291,0,0,0,0-76.546,38.2,38.2,0,0,0-38.273-38.273,38.29,38.29,0,0,0,0,0M-32.68-35.476H-15.9a72.549,72.549,0,0,0,1.619,12.807A66.865,66.865,0,0,0-26.644-18.99,33.009,33.009,0,0,1-32.68-35.476m5.889-21.787a65.289,65.289,0,0,0,12.218,3.68A59.527,59.527,0,0,0-15.9-40.923H-32.68a31.844,31.844,0,0,1,5.889-16.34M0-71.1H.736A47.571,47.571,0,0,1,6.624-58.146,59.376,59.376,0,0,1-.589-57.7,57.6,57.6,0,0,1-7.8-58.146,54.825,54.825,0,0,1-2.061-71.1,9.632,9.632,0,0,0,0-71.1M32.679-40.923H14.573a89.963,89.963,0,0,0-1.325-12.66A52.456,52.456,0,0,0,26.35-57.7a33.881,33.881,0,0,1,6.329,16.781M26.2-18.695a62.98,62.98,0,0,0-13.248-3.974,72.549,72.549,0,0,0,1.619-12.807H32.679A33.519,33.519,0,0,1,26.2-18.695M0-5.447H-1.325A51.793,51.793,0,0,1-7.508-18.253c2.209-.148,4.564-.3,6.772-.3,2.355,0,4.563.147,6.918.3A51.756,51.756,0,0,1,0-5.447M-8.391-6.624a31.959,31.959,0,0,1-14.573-8.244,52.548,52.548,0,0,1,10.01-2.649A48.485,48.485,0,0,0-8.391-6.624M9.127-35.476a64.458,64.458,0,0,1-1.62,12.07,75.385,75.385,0,0,0-8.243-.441,75.385,75.385,0,0,0-8.243.441,77.035,77.035,0,0,1-1.62-12.07ZM-10.6-40.923A77.9,77.9,0,0,1-9.274-52.7a80.937,80.937,0,0,0,8.538.441A80.937,80.937,0,0,0,7.8-52.7,78.03,78.03,0,0,1,9.127-40.923ZM11.629-17.517a62.292,62.292,0,0,1,10.893,3.091,34.079,34.079,0,0,1-15.6,8.243,72.868,72.868,0,0,0,4.71-11.334m.294-41.365A64.718,64.718,0,0,0,7.507-70.217a32.587,32.587,0,0,1,15.162,8.244,64.446,64.446,0,0,1-10.746,3.091m-25.319,0a54.266,54.266,0,0,1-9.862-2.8,34.42,34.42,0,0,1,14.279-8.1A64.85,64.85,0,0,0-13.4-58.882" transform="translate(653.697 6514.263)" fill="#62c1ee"/><path d="M0,0A37.947,37.947,0,0,0,29-13.4l.3-.294a37.9,37.9,0,0,0,8.979-24.583A38.291,38.291,0,0,0,0-76.546,38.2,38.2,0,0,0-38.273-38.273,38.29,38.29,0,0,0,0,0ZM-32.68-35.476H-15.9a72.549,72.549,0,0,0,1.619,12.807A66.865,66.865,0,0,0-26.644-18.99,33.009,33.009,0,0,1-32.68-35.476Zm5.889-21.787a65.289,65.289,0,0,0,12.218,3.68A59.527,59.527,0,0,0-15.9-40.923H-32.68A31.844,31.844,0,0,1-26.791-57.263ZM0-71.1H.736A47.571,47.571,0,0,1,6.624-58.146,59.376,59.376,0,0,1-.589-57.7,57.6,57.6,0,0,1-7.8-58.146,54.825,54.825,0,0,1-2.061-71.1,9.632,9.632,0,0,0,0-71.1ZM32.679-40.923H14.573a89.963,89.963,0,0,0-1.325-12.66A52.456,52.456,0,0,0,26.35-57.7,33.881,33.881,0,0,1,32.679-40.923ZM26.2-18.695a62.98,62.98,0,0,0-13.248-3.974,72.549,72.549,0,0,0,1.619-12.807H32.679A33.519,33.519,0,0,1,26.2-18.695ZM0-5.447H-1.325A51.793,51.793,0,0,1-7.508-18.253c2.209-.148,4.564-.3,6.772-.3,2.355,0,4.563.147,6.918.3A51.756,51.756,0,0,1,0-5.447ZM-8.391-6.624a31.959,31.959,0,0,1-14.573-8.244,52.548,52.548,0,0,1,10.01-2.649A48.485,48.485,0,0,0-8.391-6.624ZM9.127-35.476a64.458,64.458,0,0,1-1.62,12.07,75.385,75.385,0,0,0-8.243-.441,75.385,75.385,0,0,0-8.243.441,77.035,77.035,0,0,1-1.62-12.07ZM-10.6-40.923A77.9,77.9,0,0,1-9.274-52.7a80.937,80.937,0,0,0,8.538.441A80.937,80.937,0,0,0,7.8-52.7,78.03,78.03,0,0,1,9.127-40.923ZM11.629-17.517a62.292,62.292,0,0,1,10.893,3.091,34.079,34.079,0,0,1-15.6,8.243A72.868,72.868,0,0,0,11.629-17.517Zm.294-41.365A64.718,64.718,0,0,0,7.507-70.217a32.587,32.587,0,0,1,15.162,8.244A64.446,64.446,0,0,1,11.923-58.882Zm-25.319,0a54.266,54.266,0,0,1-9.862-2.8,34.42,34.42,0,0,1,14.279-8.1A64.85,64.85,0,0,0-13.4-58.882Z" transform="translate(653.697 6514.263)" fill="none" stroke="#ebecec" stroke-width="1.5"/><path d="M0,0H-7.066V-7.066A2.638,2.638,0,0,0-9.715-9.715H-20.167a2.638,2.638,0,0,0-2.65,2.649,2.639,2.639,0,0,0,2.65,2.65h7.507V54.907H-52.4A17.68,17.68,0,0,0-60.8,56.821v-28.7a2.638,2.638,0,0,0-2.649-2.649,2.638,2.638,0,0,0-2.65,2.649v28.7a17.68,17.68,0,0,0-8.391-1.914h-39.745V-4.416h7.508a2.638,2.638,0,0,0,2.649-2.65,2.638,2.638,0,0,0-2.649-2.649H-116.88a2.638,2.638,0,0,0-2.65,2.649V.147H-126.6a2.639,2.639,0,0,0-2.65,2.65v64.77a2.639,2.639,0,0,0,2.65,2.65h52.258a18,18,0,0,1,9.421,3.091A3.079,3.079,0,0,0-63.3,73.9a2.211,2.211,0,0,0,1.619-.589,18.663,18.663,0,0,1,9.421-3.091H0a2.639,2.639,0,0,0,2.65-2.65V2.8A2.675,2.675,0,0,0,0,0M-123.946,64.77V5.447h4.416V57.7a2.639,2.639,0,0,0,2.65,2.65h42.394c3.828,0,8.391,1.031,8.391,5.888a.542.542,0,0,0,.147.442,20.142,20.142,0,0,0-8.39-1.914Zm121.149,0H-52.258a20.142,20.142,0,0,0-8.39,1.914c0-.147.147-.295.147-.442,0-4.857,4.563-5.888,8.391-5.888h42.4A2.638,2.638,0,0,0-7.066,57.7V5.447H-2.65V64.77Z" transform="translate(716.995 6492.035)" fill="#62c1ee"/><path d="M0,0H-7.066V-7.066A2.638,2.638,0,0,0-9.715-9.715H-20.167a2.638,2.638,0,0,0-2.65,2.649,2.639,2.639,0,0,0,2.65,2.65h7.507V54.907H-52.4A17.68,17.68,0,0,0-60.8,56.821v-28.7a2.638,2.638,0,0,0-2.649-2.649,2.638,2.638,0,0,0-2.65,2.649v28.7a17.68,17.68,0,0,0-8.391-1.914h-39.745V-4.416h7.508a2.638,2.638,0,0,0,2.649-2.65,2.638,2.638,0,0,0-2.649-2.649H-116.88a2.638,2.638,0,0,0-2.65,2.649V.147H-126.6a2.639,2.639,0,0,0-2.65,2.65v64.77a2.639,2.639,0,0,0,2.65,2.65h52.258a18,18,0,0,1,9.421,3.091A3.079,3.079,0,0,0-63.3,73.9a2.211,2.211,0,0,0,1.619-.589,18.663,18.663,0,0,1,9.421-3.091H0a2.639,2.639,0,0,0,2.65-2.65V2.8A2.675,2.675,0,0,0,0,0ZM-123.946,64.77V5.447h4.416V57.7a2.639,2.639,0,0,0,2.65,2.65h42.394c3.828,0,8.391,1.031,8.391,5.888a.542.542,0,0,0,.147.442,20.142,20.142,0,0,0-8.39-1.914Zm121.149,0H-52.258a20.142,20.142,0,0,0-8.39,1.914c0-.147.147-.295.147-.442,0-4.857,4.563-5.888,8.391-5.888h42.4A2.638,2.638,0,0,0-7.066,57.7V5.447H-2.65V64.77Z" transform="translate(716.995 6492.035)" fill="none" stroke="#ebecec" stroke-width="1.5"/><path d="M0,0A2.639,2.639,0,0,0,2.65,2.65H17.517A2.639,2.639,0,0,0,20.167,0a2.639,2.639,0,0,0-2.65-2.65H2.65A2.639,2.639,0,0,0,0,0" transform="translate(611.302 6520.151)" fill="#62c1ee"/><path d="M0,0A2.639,2.639,0,0,0,2.65,2.65H17.517A2.639,2.639,0,0,0,20.167,0a2.639,2.639,0,0,0-2.65-2.65H2.65A2.639,2.639,0,0,0,0,0Z" transform="translate(611.302 6520.151)" fill="none" stroke="#ebecec" stroke-width="1.5"/><path d="M0,0A2.639,2.639,0,0,0,2.65-2.65,2.638,2.638,0,0,0,0-5.3H-4.563A2.638,2.638,0,0,0-7.213-2.65,2.639,2.639,0,0,0-4.563,0Z" transform="translate(618.515 6531.191)" fill="#62c1ee"/><path d="M0,0A2.639,2.639,0,0,0,2.65-2.65,2.638,2.638,0,0,0,0-5.3H-4.563A2.638,2.638,0,0,0-7.213-2.65,2.639,2.639,0,0,0-4.563,0Z" transform="translate(618.515 6531.191)" fill="none" stroke="#ebecec" stroke-width="1.5"/><path d="M0,0A2.639,2.639,0,0,0-2.65-2.65H-16.34A2.638,2.638,0,0,0-18.989,0,2.638,2.638,0,0,0-16.34,2.65H-2.65A2.637,2.637,0,0,0,0,0" transform="translate(645.012 6528.395)" fill="#62c1ee"/><path d="M0,0A2.639,2.639,0,0,0-2.65-2.65H-16.34A2.638,2.638,0,0,0-18.989,0,2.638,2.638,0,0,0-16.34,2.65H-2.65A2.637,2.637,0,0,0,0,0Z" transform="translate(645.012 6528.395)" fill="none" stroke="#ebecec" stroke-width="1.5"/><path d="M0,0H16.045a2.639,2.639,0,0,0,2.65-2.65A2.638,2.638,0,0,0,16.045-5.3H0A2.638,2.638,0,0,0-2.65-2.65,2.551,2.551,0,0,0,0,0" transform="translate(614.393 6540.024)" fill="#62c1ee"/><path d="M0,0H16.045a2.639,2.639,0,0,0,2.65-2.65A2.638,2.638,0,0,0,16.045-5.3H0A2.638,2.638,0,0,0-2.65-2.65,2.551,2.551,0,0,0,0,0Z" transform="translate(614.393 6540.024)" fill="none" stroke="#ebecec" stroke-width="1.5"/><path d="M0,0A2.639,2.639,0,0,0-2.65,2.65,2.638,2.638,0,0,0,0,5.3H1.619a2.649,2.649,0,1,0,0-5.3Z" transform="translate(639.123 6534.725)" fill="#62c1ee"/><path d="M0,0A2.639,2.639,0,0,0-2.65,2.65,2.638,2.638,0,0,0,0,5.3H1.619a2.649,2.649,0,1,0,0-5.3Z" transform="translate(639.123 6534.725)" fill="none" stroke="#ebecec" stroke-width="1.5"/><path d="M0,0H14.868a2.638,2.638,0,0,0,2.649-2.65A2.638,2.638,0,0,0,14.868-5.3H0A2.638,2.638,0,0,0-2.65-2.65,2.639,2.639,0,0,0,0,0" transform="translate(666.209 6522.801)" fill="#62c1ee"/><path d="M0,0H14.868a2.638,2.638,0,0,0,2.649-2.65A2.638,2.638,0,0,0,14.868-5.3H0A2.638,2.638,0,0,0-2.65-2.65,2.639,2.639,0,0,0,0,0Z" transform="translate(666.209 6522.801)" fill="none" stroke="#ebecec" stroke-width="1.5"/><path d="M0,0H4.563a2.639,2.639,0,0,0,2.65-2.65A2.638,2.638,0,0,0,4.563-5.3H0A2.638,2.638,0,0,0-2.65-2.65,2.737,2.737,0,0,0,0,0" transform="translate(666.209 6531.191)" fill="#62c1ee"/><path d="M0,0H4.563a2.639,2.639,0,0,0,2.65-2.65A2.638,2.638,0,0,0,4.563-5.3H0A2.638,2.638,0,0,0-2.65-2.65,2.737,2.737,0,0,0,0,0Z" transform="translate(666.209 6531.191)" fill="none" stroke="#ebecec" stroke-width="1.5"/><path d="M0,0A2.639,2.639,0,0,0-2.65-2.65H-16.487A2.639,2.639,0,0,0-19.137,0a2.639,2.639,0,0,0,2.65,2.65H-2.8A2.672,2.672,0,0,0,0,0" transform="translate(697.27 6528.395)" fill="#62c1ee"/><path d="M0,0A2.639,2.639,0,0,0-2.65-2.65H-16.487A2.639,2.639,0,0,0-19.137,0a2.639,2.639,0,0,0,2.65,2.65H-2.8A2.672,2.672,0,0,0,0,0Z" transform="translate(697.27 6528.395)" fill="none" stroke="#ebecec" stroke-width="1.5"/><path d="M0,0H16.045a2.639,2.639,0,0,0,2.65-2.65A2.638,2.638,0,0,0,16.045-5.3H0A2.638,2.638,0,0,0-2.65-2.65,2.551,2.551,0,0,0,0,0" transform="translate(666.65 6540.024)" fill="#62c1ee"/><path d="M0,0H16.045a2.639,2.639,0,0,0,2.65-2.65A2.638,2.638,0,0,0,16.045-5.3H0A2.638,2.638,0,0,0-2.65-2.65,2.551,2.551,0,0,0,0,0Z" transform="translate(666.65 6540.024)" fill="none" stroke="#ebecec" stroke-width="1.5"/><path d="M0,0A2.639,2.639,0,0,0-2.65,2.65,2.638,2.638,0,0,0,0,5.3H1.619a2.649,2.649,0,1,0,0-5.3Z" transform="translate(691.381 6534.725)" fill="#62c1ee"/><path d="M0,0A2.639,2.639,0,0,0-2.65,2.65,2.638,2.638,0,0,0,0,5.3H1.619a2.649,2.649,0,1,0,0-5.3Z" transform="translate(691.381 6534.725)" fill="none" stroke="#ebecec" stroke-width="1.5"/></g></svg>