<svg xmlns="http://www.w3.org/2000/svg" width="212.25" height="212.25" viewBox="0 0 212.25 212.25"><g transform="translate(-1130.555 -3252.806)"><path d="M0,0A106.125,106.125,0,0,0,106.125-106.125,106.125,106.125,0,0,0,0-212.25,106.125,106.125,0,0,0-106.125-106.125,106.125,106.125,0,0,0,0,0" transform="translate(1236.68 3465.056)" fill="#ebecec"/><path d="M0,0V19.63c0,9.164,7.7,16.617,17.2,16.617,9.483,0,17.187-7.454,17.187-16.617V.116a37.125,37.125,0,0,0,21.4-33.3A36.249,36.249,0,0,0,44.193-59.749,39.584,39.584,0,0,0,14.776-70.294,38.928,38.928,0,0,0-10.8-58.661a36.32,36.32,0,0,0-10.6,25.35A36.69,36.69,0,0,0,0,0M30.09,15.222H4.3V7.966H30.09Zm0-7.256-12.9,23.865c-7.111,0-12.9-5.321-12.9-12.309H30.1c0,6.988-5.79,12.309-12.917,12.309M-7.729-55.652A34.645,34.645,0,0,1,15.031-66q1.056-.063,2.107-.063a35.2,35.2,0,0,1,24.109,9.443A31.993,31.993,0,0,1,51.5-33.18c0,12.788-7.9,24.548-20.12,29.958A2.156,2.156,0,0,0,30.09-1.256V3.666H19.344V-7.869L26.78-22.245a11.545,11.545,0,0,0,14.255-7.964,11.572,11.572,0,0,0,.413-3.9l-.982-15.241c0-.013,0-.024-.005-.036q-.009-.1-.027-.2c0-.019,0-.038-.009-.057a2.432,2.432,0,0,0-.063-.237c-.005-.018-.013-.035-.019-.052-.022-.061-.046-.121-.072-.179l-.033-.068c-.029-.057-.06-.112-.093-.166l-.03-.049a2.007,2.007,0,0,0-.15-.2L39.96-50.6a2.274,2.274,0,0,0-.166-.174l-.049-.043a1.847,1.847,0,0,0-.146-.119c-.021-.015-.04-.03-.061-.044-.056-.039-.114-.074-.174-.108-.013-.007-.024-.016-.036-.022l-.009,0-.011-.007c-.072-.036-.145-.069-.221-.1l-.052-.017a1.866,1.866,0,0,0-.193-.059l-.065-.015a1.883,1.883,0,0,0-.2-.033.464.464,0,0,0-.052-.007,2.183,2.183,0,0,0-.5.009l-.068.012c-.06.01-.119.023-.178.038l-.072.019a2.082,2.082,0,0,0-.218.076l-.015.006a2.229,2.229,0,0,0-.224.112l-.022.011-13.2,7.734a11.566,11.566,0,0,0-5.177,13.371l0,.01a11.573,11.573,0,0,0,4.068,5.784L15.263-9.383c-.02.039-.035.079-.054.119l-1.08-2.011a11.54,11.54,0,0,0,1.646-16.232,11.542,11.542,0,0,0-3.11-2.663L-.527-37.9l-.031-.016c-.058-.033-.118-.063-.178-.09l-.05-.023a2.128,2.128,0,0,0-.228-.08c-.023-.007-.047-.012-.07-.018-.057-.014-.114-.027-.173-.037l-.08-.012c-.063-.008-.126-.013-.188-.016-.019,0-.037,0-.056,0a2.305,2.305,0,0,0-.249.011c-.012,0-.024,0-.036.005a1.863,1.863,0,0,0-.209.036l-.07.017c-.059.015-.118.033-.176.053l-.071.025a2.175,2.175,0,0,0-.2.092c-.008,0-.017.007-.025.012l0,0,0,0a2.4,2.4,0,0,0-.211.131c-.018.013-.034.027-.052.039-.052.039-.1.079-.15.122-.017.015-.034.03-.05.046a1.935,1.935,0,0,0-.14.147l-.032.036a2.149,2.149,0,0,0-.151.2l-.01.017c-.04.064-.076.129-.11.2-.011.022-.021.044-.031.066-.025.054-.047.111-.067.168-.008.023-.017.045-.025.069a2.132,2.132,0,0,0-.062.238.039.039,0,0,1,0,.015,2.07,2.07,0,0,0-.031.235c0,.01,0,.018,0,.027l-.981,15.234A11.568,11.568,0,0,0,6.058-8.656q.361.023.723.024a11.574,11.574,0,0,0,3.593-.575L15.045-.529V3.666H4.3V-1.391A2.156,2.156,0,0,0,2.986-3.368,32.569,32.569,0,0,1-17.1-33.3,32.049,32.049,0,0,1-7.729-55.652Zm30.691,24.42a7.272,7.272,0,0,1,3.251-8.4l6.779-3.97L24.949-28.076A7.281,7.281,0,0,1,22.962-31.232ZM36.673-41.359l.483,7.535a7.258,7.258,0,0,1-6.782,7.705,7.223,7.223,0,0,1-1.562-.069ZM13.749-18.065a7.278,7.278,0,0,1-1.713,2.889L3.9-30.321l6.582,3.855a7.275,7.275,0,0,1,3.266,8.4m-14.2-2.6.5-7.742L8.277-13.088a7.158,7.158,0,0,1-3.6-.161l-.011,0A7.187,7.187,0,0,1-.448-20.662" transform="translate(1220.733 3388.413)" fill="#219e44"/><path d="M0,0V19.63c0,9.164,7.7,16.617,17.2,16.617,9.483,0,17.187-7.454,17.187-16.617V.116a37.125,37.125,0,0,0,21.4-33.3A36.249,36.249,0,0,0,44.193-59.749,39.584,39.584,0,0,0,14.776-70.294,38.928,38.928,0,0,0-10.8-58.661a36.32,36.32,0,0,0-10.6,25.35A36.69,36.69,0,0,0,0,0ZM30.09,15.222H4.3V7.966H30.09Zm0-7.256-12.9,23.865c-7.111,0-12.9-5.321-12.9-12.309H30.1C30.1,26.51,24.314,31.831,17.187,31.831ZM-7.729-55.652A34.645,34.645,0,0,1,15.031-66q1.056-.063,2.107-.063a35.2,35.2,0,0,1,24.109,9.443A31.993,31.993,0,0,1,51.5-33.18c0,12.788-7.9,24.548-20.12,29.958A2.156,2.156,0,0,0,30.09-1.256V3.666H19.344V-7.869L26.78-22.245a11.545,11.545,0,0,0,14.255-7.964,11.572,11.572,0,0,0,.413-3.9l-.982-15.241c0-.013,0-.024-.005-.036q-.009-.1-.027-.2c0-.019,0-.038-.009-.057a2.432,2.432,0,0,0-.063-.237c-.005-.018-.013-.035-.019-.052-.022-.061-.046-.121-.072-.179l-.033-.068c-.029-.057-.06-.112-.093-.166l-.03-.049a2.007,2.007,0,0,0-.15-.2L39.96-50.6a2.274,2.274,0,0,0-.166-.174l-.049-.043a1.847,1.847,0,0,0-.146-.119c-.021-.015-.04-.03-.061-.044-.056-.039-.114-.074-.174-.108-.013-.007-.024-.016-.036-.022l-.009,0-.011-.007c-.072-.036-.145-.069-.221-.1l-.052-.017a1.866,1.866,0,0,0-.193-.059l-.065-.015a1.883,1.883,0,0,0-.2-.033.464.464,0,0,0-.052-.007,2.183,2.183,0,0,0-.5.009l-.068.012c-.06.01-.119.023-.178.038l-.072.019a2.082,2.082,0,0,0-.218.076l-.015.006a2.229,2.229,0,0,0-.224.112l-.022.011-13.2,7.734a11.566,11.566,0,0,0-5.177,13.371l0,.01a11.573,11.573,0,0,0,4.068,5.784L15.263-9.383c-.02.039-.035.079-.054.119l-1.08-2.011a11.54,11.54,0,0,0,1.646-16.232,11.542,11.542,0,0,0-3.11-2.663L-.527-37.9l-.031-.016c-.058-.033-.118-.063-.178-.09l-.05-.023a2.128,2.128,0,0,0-.228-.08c-.023-.007-.047-.012-.07-.018-.057-.014-.114-.027-.173-.037l-.08-.012c-.063-.008-.126-.013-.188-.016-.019,0-.037,0-.056,0a2.305,2.305,0,0,0-.249.011c-.012,0-.024,0-.036.005a1.863,1.863,0,0,0-.209.036l-.07.017c-.059.015-.118.033-.176.053l-.071.025a2.175,2.175,0,0,0-.2.092c-.008,0-.017.007-.025.012l0,0,0,0a2.4,2.4,0,0,0-.211.131c-.018.013-.034.027-.052.039-.052.039-.1.079-.15.122-.017.015-.034.03-.05.046a1.935,1.935,0,0,0-.14.147l-.032.036a2.149,2.149,0,0,0-.151.2l-.01.017c-.04.064-.076.129-.11.2-.011.022-.021.044-.031.066-.025.054-.047.111-.067.168-.008.023-.017.045-.025.069a2.132,2.132,0,0,0-.062.238.039.039,0,0,1,0,.015,2.07,2.07,0,0,0-.031.235c0,.01,0,.018,0,.027l-.981,15.234A11.568,11.568,0,0,0,6.058-8.656q.361.023.723.024a11.574,11.574,0,0,0,3.593-.575L15.045-.529V3.666H4.3V-1.391A2.156,2.156,0,0,0,2.986-3.368,32.569,32.569,0,0,1-17.1-33.3,32.049,32.049,0,0,1-7.729-55.652Zm30.691,24.42a7.272,7.272,0,0,1,3.251-8.4l6.779-3.97L24.949-28.076a7.281,7.281,0,0,1-1.987-3.156ZM36.673-41.359l.483,7.535a7.258,7.258,0,0,1-6.782,7.705,7.223,7.223,0,0,1-1.562-.069ZM13.749-18.065a7.278,7.278,0,0,1-1.713,2.889L3.9-30.321l6.582,3.855A7.275,7.275,0,0,1,13.749-18.065Zm-14.2-2.6.5-7.742L8.277-13.088a7.158,7.158,0,0,1-3.6-.161l-.011,0A7.187,7.187,0,0,1-.448-20.662Z" transform="translate(1220.733 3388.413)" fill="none" stroke="#ebecec" stroke-width="0.5"/><path d="M0,0A2.149,2.149,0,0,0,2.149-2.15V-18.556A2.15,2.15,0,0,0,0-20.706a2.15,2.15,0,0,0-2.149,2.15V-2.15A2.149,2.149,0,0,0,0,0" transform="translate(1237.928 3313.016)" fill="#219e44"/><path d="M0,0A2.149,2.149,0,0,0,2.149-2.15V-18.556A2.15,2.15,0,0,0,0-20.706a2.15,2.15,0,0,0-2.149,2.15V-2.15A2.149,2.149,0,0,0,0,0Z" transform="translate(1237.928 3313.016)" fill="none" stroke="#ebecec" stroke-width="0.5"/><path d="M0,0H-17.069a2.15,2.15,0,0,0-2.149,2.15A2.15,2.15,0,0,0-17.069,4.3H0A2.15,2.15,0,0,0,2.149,2.15,2.15,2.15,0,0,0,0,0" transform="translate(1191.229 3353.648)" fill="#219e44"/><path d="M0,0H-17.069a2.15,2.15,0,0,0-2.149,2.15A2.15,2.15,0,0,0-17.069,4.3H0A2.15,2.15,0,0,0,2.149,2.15,2.15,2.15,0,0,0,0,0Z" transform="translate(1191.229 3353.648)" fill="none" stroke="#ebecec" stroke-width="0.5"/><path d="M0,0H-17.069a2.15,2.15,0,0,0-2.149,2.15A2.15,2.15,0,0,0-17.069,4.3H0A2.15,2.15,0,0,0,2.149,2.15,2.15,2.15,0,0,0,0,0" transform="translate(1301.696 3353.648)" fill="#219e44"/><path d="M0,0H-17.069a2.15,2.15,0,0,0-2.149,2.15A2.15,2.15,0,0,0-17.069,4.3H0A2.15,2.15,0,0,0,2.149,2.15,2.15,2.15,0,0,0,0,0Z" transform="translate(1301.696 3353.648)" fill="none" stroke="#ebecec" stroke-width="0.5"/><path d="M0,0A2.149,2.149,0,0,0,3.039-.078a2.151,2.151,0,0,0-.078-3.04L-9.192-14.667a2.148,2.148,0,0,0-3.038.078,2.15,2.15,0,0,0,.078,3.04Z" transform="translate(1203.539 3325.549)" fill="#219e44"/><path d="M0,0A2.149,2.149,0,0,0,3.039-.078a2.151,2.151,0,0,0-.078-3.04L-9.192-14.667a2.148,2.148,0,0,0-3.038.078,2.15,2.15,0,0,0,.078,3.04Z" transform="translate(1203.539 3325.549)" fill="none" stroke="#ebecec" stroke-width="0.5"/><path d="M0,0A2.145,2.145,0,0,0,1.48-.591l12.153-11.55a2.152,2.152,0,0,0,.078-3.04,2.149,2.149,0,0,0-3.039-.077L-1.481-3.709A2.15,2.15,0,0,0-1.559-.67,2.149,2.149,0,0,0,0,0Z" transform="translate(1270.836 3326.141)" fill="#219e44"/><path d="M0,0A2.145,2.145,0,0,0,1.48-.591l12.153-11.55a2.152,2.152,0,0,0,.078-3.04,2.149,2.149,0,0,0-3.039-.077L-1.481-3.709A2.15,2.15,0,0,0-1.559-.67,2.149,2.149,0,0,0,0,0Z" transform="translate(1270.836 3326.141)" fill="none" stroke="#ebecec" stroke-width="0.5"/></g></svg>