<svg xmlns="http://www.w3.org/2000/svg" width="212.25" height="212.25" viewBox="0 0 212.25 212.25"><g transform="translate(-1048 -3925.25)"><path d="M0,0A106.125,106.125,0,0,0,106.125-106.125,106.125,106.125,0,0,0,0-212.25,106.125,106.125,0,0,0-106.125-106.125,106.125,106.125,0,0,0,0,0" transform="translate(1154.125 4137.5)" fill="#ebecec"/><path d="M0,0A156.048,156.048,0,0,0-15.585-27.407a211.684,211.684,0,0,0-22.6-27.262,2.916,2.916,0,0,0-4.054-.035A196.833,196.833,0,0,0-64.862-27.967,149.675,149.675,0,0,0-80.458-.608c-4.77,11.184-7.187,21.844-7.187,31.685A47.47,47.47,0,0,0-40.228,78.493,47.47,47.47,0,0,0,7.189,31.077C7.189,21.566,4.771,11.11,0,0M-40.228,72.656A41.627,41.627,0,0,1-81.809,31.077c0-20.591,11.774-41.591,21.651-55.585a202.451,202.451,0,0,1,19.9-23.929A217.014,217.014,0,0,1-20.372-24.062C-10.461-9.879,1.352,11.2,1.352,31.077a41.627,41.627,0,0,1-41.58,41.579m1.1-14.234a31.217,31.217,0,0,1-19.794-9.075,28.744,28.744,0,0,1-8.1-20.1c-.02-3.764-5.859-3.765-5.839,0a35,35,0,0,0,9.817,24.225A36.995,36.995,0,0,0-39.131,64.261a2.929,2.929,0,0,0,2.919-2.92,2.971,2.971,0,0,0-2.919-2.919m-31-38.586c1.38.378,3.376-.46,3.592-2.039q.406-2.979.813-5.958a3,3,0,0,0-2.038-3.591c-1.378-.379-3.375.458-3.591,2.037q-.406,2.979-.813,5.958a3,3,0,0,0,2.037,3.593" transform="translate(1194.353 4019.882)" fill="#7771b1"/></g></svg>