<svg xmlns="http://www.w3.org/2000/svg" width="212.25" height="212.25" viewBox="0 0 212.25 212.25"><g transform="translate(-1115.874 -3377.25)"><path d="M0,0A106.125,106.125,0,0,0,106.125-106.125,106.125,106.125,0,0,0,0-212.25,106.125,106.125,0,0,0-106.125-106.125,106.125,106.125,0,0,0,0,0" transform="translate(1221.999 3589.5)" fill="#ebecec"/><path d="M0,0-43.341-43.341a9.953,9.953,0,0,0-14.031,0L-100.713,0a9.916,9.916,0,0,0-.006,14.025l.006.006,43.341,43.341a9.917,9.917,0,0,0,14.025.006l.006-.006L0,14.031A9.917,9.917,0,0,0,.006.006L0,0M-2.608,11.423-45.949,54.764a6.243,6.243,0,0,1-8.815,0L-98.106,11.423a6.207,6.207,0,0,1-.036-8.778l.036-.037,43.342-43.341a6.206,6.206,0,0,1,8.778-.037l.037.037L-2.608,2.608a6.207,6.207,0,0,1,.037,8.778l-.037.037" transform="translate(1238.33 3460.444)" fill="#7771b1"/><path d="M0,0A22.038,22.038,0,0,0-22.038,22.038V38.566H-31.22l15.757,15.758L.257,38.566H-11.019V22.038A11.019,11.019,0,0,1,0,11.019,11.019,11.019,0,0,1,11.019,22.038V45.912H22.038V22.038A22.038,22.038,0,0,0,0,0" transform="translate(1189.81 3439.912)" fill="#7771b1"/><path d="M0,0-32.707-32.707a7.511,7.511,0,0,0-10.589,0L-76,0a7.512,7.512,0,0,0,0,10.588L-43.3,43.3a7.485,7.485,0,0,0,10.584,0l.005,0L0,10.588A7.512,7.512,0,0,0,0,0M-1.968,8.62-34.675,41.328a4.657,4.657,0,0,1-6.585.067l-.068-.067L-74.035,8.62a4.713,4.713,0,0,1,0-6.652l32.707-32.707a4.685,4.685,0,0,1,6.625-.028c.009.009.019.018.028.028L-1.968,1.968a4.711,4.711,0,0,1,0,6.652" transform="translate(1308.594 3494.845)" fill="#7771b1"/><path d="M0,0H-20.789V8.315H0V29.1H8.315V-20.789H0Z" transform="translate(1266.435 3495.982)" fill="#7771b1"/></g></svg>