<svg xmlns="http://www.w3.org/2000/svg" width="212.25" height="212.25" viewBox="0 0 212.25 212.25"><g transform="translate(-1226.365 -3767.593)"><path d="M0,0A106.125,106.125,0,0,0,106.125-106.125,106.125,106.125,0,0,0,0-212.25,106.125,106.125,0,0,0-106.125-106.125,106.125,106.125,0,0,0,0,0" transform="translate(1332.49 3979.843)" fill="#ebecec"/><path d="M0,0A49.149,49.149,0,0,1,44.508-24.1l-6.373-6.4a3.4,3.4,0,0,1,0-4.805,3.377,3.377,0,0,1,4.788,0l12.2,12.25a3.406,3.406,0,0,1,0,4.8h0L42.923-5.994A3.378,3.378,0,0,1,38.135-6a3.406,3.406,0,0,1,0-4.8l6.473-6.5A42.332,42.332,0,0,0,5.837,3.446,3.38,3.38,0,0,1,1.2,4.646,3.405,3.405,0,0,1,0,0M98.172,19.985,91.8,26.38A49.4,49.4,0,0,0,67.787-18.285a3.379,3.379,0,0,0-4.629,1.228,3.406,3.406,0,0,0,1.2,4.63A42.55,42.55,0,0,1,85.023,26.481l-6.474-6.5a3.392,3.392,0,0,0-4.788,4.806L85.966,37.038a3.377,3.377,0,0,0,4.787,0s0,0,0,0L102.961,24.79a3.392,3.392,0,0,0-4.789-4.806ZM-4.746,12.7-16.953,24.953a3.406,3.406,0,0,0,0,4.805,3.377,3.377,0,0,0,4.788,0l6.375-6.4A49.4,49.4,0,0,0,18.22,68.028a3.4,3.4,0,0,0,3.434-5.858A42.55,42.55,0,0,1,.985,23.261l6.474,6.5a3.392,3.392,0,0,0,4.788-4.805L.042,12.7a3.376,3.376,0,0,0-4.787,0,0,0,0,0,0,0,0M86.008,49.742A3.389,3.389,0,0,0,80.171,46.3,42.325,42.325,0,0,1,41.4,67.039l6.474-6.5a3.392,3.392,0,0,0-4.788-4.805L30.88,67.986a3.405,3.405,0,0,0,0,4.8h0l12.2,12.249a3.392,3.392,0,0,0,4.788-4.805l-6.372-6.4c.78.038,1.561.083,2.34.083a49.2,49.2,0,0,0,42.167-24.18" transform="translate(1289.486 3848.847)" fill="#219e44"/><path d="M0,0A49.149,49.149,0,0,1,44.508-24.1l-6.373-6.4a3.4,3.4,0,0,1,0-4.805,3.377,3.377,0,0,1,4.788,0l12.2,12.25a3.406,3.406,0,0,1,0,4.8h0L42.923-5.994A3.378,3.378,0,0,1,38.135-6a3.406,3.406,0,0,1,0-4.8l6.473-6.5A42.332,42.332,0,0,0,5.837,3.446,3.38,3.38,0,0,1,1.2,4.646,3.405,3.405,0,0,1,0,0ZM98.172,19.985,91.8,26.38A49.4,49.4,0,0,0,67.787-18.285a3.379,3.379,0,0,0-4.629,1.228,3.406,3.406,0,0,0,1.2,4.63A42.55,42.55,0,0,1,85.023,26.481l-6.474-6.5a3.392,3.392,0,0,0-4.788,4.806L85.966,37.038a3.377,3.377,0,0,0,4.787,0s0,0,0,0L102.961,24.79a3.392,3.392,0,0,0-4.789-4.806ZM-4.746,12.7-16.953,24.953a3.406,3.406,0,0,0,0,4.805,3.377,3.377,0,0,0,4.788,0l6.375-6.4A49.4,49.4,0,0,0,18.22,68.028a3.4,3.4,0,0,0,3.434-5.858A42.55,42.55,0,0,1,.985,23.261l6.474,6.5a3.392,3.392,0,0,0,4.788-4.805L.042,12.7a3.376,3.376,0,0,0-4.787,0A0,0,0,0,0-4.746,12.7ZM86.008,49.742A3.389,3.389,0,0,0,80.171,46.3,42.325,42.325,0,0,1,41.4,67.039l6.474-6.5a3.392,3.392,0,0,0-4.788-4.805L30.88,67.986a3.405,3.405,0,0,0,0,4.8h0l12.2,12.249a3.392,3.392,0,0,0,4.788-4.805l-6.372-6.4c.78.038,1.561.083,2.34.083A49.2,49.2,0,0,0,86.008,49.742Z" transform="translate(1289.486 3848.847)" fill="none" stroke="#ebecec" stroke-width="2"/></g></svg>