<svg xmlns="http://www.w3.org/2000/svg" width="212.25" height="212.25" viewBox="0 0 212.25 212.25"><g transform="translate(-1263.822 -3302.889)"><path d="M0,0A106.125,106.125,0,0,0,106.125-106.125,106.125,106.125,0,0,0,0-212.25,106.125,106.125,0,0,0-106.125-106.125,106.125,106.125,0,0,0,0,0" transform="translate(1369.947 3515.139)" fill="#ebecec"/><path d="M0,0-3.462-25.913A12.936,12.936,0,0,0-14.128-36.647l-18.255-3.4-5.566-4.465v-5.357a20.478,20.478,0,0,0,8.8-14.548h.139c4.933,0,8.933-3.736,8.933-8.345s-4-8.344-8.933-8.344V-93.365c.015-4.83-4.164-8.757-9.335-8.771q-.342,0-.684.021a10.482,10.482,0,0,0-8.375-4.024H-60.282c-7.4.006-13.393,5.607-13.4,12.517V-81.1c-4.934,0-8.933,3.736-8.933,8.344s4,8.345,8.933,8.345h.138a20.487,20.487,0,0,0,8.795,14.548v5.357l-5.565,4.465-18.747,3.5a13.958,13.958,0,0,0-5.2,2.122l.446-2.528a1.942,1.942,0,0,0-.116-1.091l-9.784-23.771a3.962,3.962,0,0,0,1-2.6,4.327,4.327,0,0,0-4.462-4.177,4.329,4.329,0,0,0-4.472,4.168,4.122,4.122,0,0,0,2.122,3.556l-4.205,56.954h-.3l-4.205-56.954a4.017,4.017,0,0,0,1.457-5.742,4.653,4.653,0,0,0-6.147-1.36,4.119,4.119,0,0,0-2.122,3.555,3.962,3.962,0,0,0,1,2.6l-9.788,23.771a1.942,1.942,0,0,0-.117,1.091l4.467,25.034a2.174,2.174,0,0,0,1.956,1.732c.082.008.164.013.246.013a2.238,2.238,0,0,0,2.07-1.3l5.251-12.113,1.454,19.675h-2.075a6.491,6.491,0,0,0-6.7,6.259V4.728a8.47,8.47,0,0,0-6.7,8.048v4.173a2.163,2.163,0,0,0,2.233,2.086h120.6C-4.985,19.028.01,14.362.018,8.6V.259H-2.216ZM-126.389-19.894l-3.057-17.191,7.2-17.483,1.586,21.476Zm92.965-.209,1.972,7.367L-38.5-4.183l-.48-.148-.708-3A5.757,5.757,0,0,0-40.745-9.52l7.875-23.257,5.092,8.877-4.186,1.3a2.066,2.066,0,0,0-1.451,2.5Zm-.058,34.965h-9.344a5.847,5.847,0,0,0,.411-2.086V.259a5.912,5.912,0,0,0-.163-1.3l9.1,2.8ZM-70.743-22.581l-4.185-1.3,5.092-8.877,7.874,23.257a5.785,5.785,0,0,0-1.06,2.187l-.691,2.968-.5.157-7.039-8.539,1.972-7.367a2.067,2.067,0,0,0-1.461-2.482m10.461-24.837a23.311,23.311,0,0,0,17.867,0v3.111l-8.934,10.014-8.933-10.014ZM-49.115-6.083a2.348,2.348,0,0,1,2.568-2,2.464,2.464,0,0,1,2.508,1.669l.147.626a6.051,6.051,0,0,0-.784-.132A4.861,4.861,0,0,0-45.52-6h-3.6Zm0-5.736a7.248,7.248,0,0,0-2.234,1.252,7.243,7.243,0,0,0-2.233-1.252V-25.475l2.233-2.387,2.234,2.387Zm4.533-.169L-44.649-12v-8.712l2.22,2.37ZM-58.049-12l-.067.014-2.153-6.356,2.22-2.37Zm-.609,5.57A2.466,2.466,0,0,1-56.15-8.086a2.349,2.349,0,0,1,2.568,2V-6h-4.467a2.479,2.479,0,0,0-.706.106h-.031Zm17.806-16.575L-48.4-31.068l8.487-9.522,3.94,3.163Zm16.3-49.753a4.327,4.327,0,0,1-4.466,4.173v-8.345a4.327,4.327,0,0,1,4.466,4.172m-8.933-20.6v7.6a80.564,80.564,0,0,1-4.467-8.276v-3.937a4.77,4.77,0,0,1,4.467,4.611m-26.8-8.6h12.873a5.909,5.909,0,0,1,4.994,2.62v3.639H-68.934a8.866,8.866,0,0,1,8.652-6.259m-8.933,10.431h3.24c-.811,1.6-1.927,3.672-3.24,5.773ZM-78.149-72.76a4.347,4.347,0,0,1,4.467-4.172v8.345a4.327,4.327,0,0,1-4.467-4.173m8.934,6.259V-78.292A67.386,67.386,0,0,0-61.05-91.536h19.4a67.233,67.233,0,0,0,8.165,13.244V-66.5a16.391,16.391,0,0,1-7.944,13.874,19.2,19.2,0,0,1-19.848,0A16.39,16.39,0,0,1-69.215-66.5m6.434,25.911,8.487,9.522-7.549,8.061-4.887-14.42Zm-25.4,8.137,14.675-2.74-6.606,11.516a2.019,2.019,0,0,0,.913,2.825,2.354,2.354,0,0,0,.349.14l4.736,1.477-1.73,6.467a1.981,1.981,0,0,0,.4,1.778L-68.7-2.8l-3.106.973h-6.341V-12.259h-4.466V-1.827h-13.4V2.345h13.4V14.862H-93.782V12.776a8.47,8.47,0,0,0-6.7-8.048V2.345a5.746,5.746,0,0,0-.3-1.746l.261.046,5.315-26.464a8.581,8.581,0,0,1,7.02-6.634m-13.19,12.559-5.72-13.189,1.586-21.476,7.2,17.482Zm-6.419-3.7,5.2,11.99-1.682,8.328a7.03,7.03,0,0,0-2.9-.643h-2.075ZM-122.815,2.345A2.163,2.163,0,0,1-120.582.259h13.4a2.163,2.163,0,0,1,2.233,2.086V4.431h-17.866Zm20.1,12.517h-26.8V12.776A4.326,4.326,0,0,1-125.049,8.6h22.334a4.326,4.326,0,0,1,4.466,4.172v2.086ZM-78.149,2.345h4.467V14.862h-4.467Zm24.567,12.517H-69.215V1.763l11.528-3.59h8.572a2.306,2.306,0,0,1,1.069.256,2.563,2.563,0,0,1,.7.563,2,2,0,0,1,.46,1.267V12.776a2.163,2.163,0,0,1-2.233,2.086ZM-29.015,2.345h4.467V14.862h-4.467Zm0,12.517,17.866,0h-8.933V2.345H-8.916V-1.827H-20.082V-12.259h-4.467V-1.827h-6.345l-3.1-.956,6.75-8.2a1.982,1.982,0,0,0,.395-1.776l-1.731-6.467,4.737-1.477a2.059,2.059,0,0,0,1.412-2.639,2.039,2.039,0,0,0-.15-.326l-6.609-11.52,14.18,2.639A8.642,8.642,0,0,1-7.893-25.4L-4.449.386V8.6a6.49,6.49,0,0,1-6.7,6.258" transform="translate(1437.221 3449.609)" fill="#b81370"/><path d="M0,0-3.462-25.913A12.936,12.936,0,0,0-14.128-36.647l-18.255-3.4-5.566-4.465v-5.357a20.478,20.478,0,0,0,8.8-14.548h.139c4.933,0,8.933-3.736,8.933-8.345s-4-8.344-8.933-8.344V-93.365c.015-4.83-4.164-8.757-9.335-8.771q-.342,0-.684.021a10.482,10.482,0,0,0-8.375-4.024H-60.282c-7.4.006-13.393,5.607-13.4,12.517V-81.1c-4.934,0-8.933,3.736-8.933,8.344s4,8.345,8.933,8.345h.138a20.487,20.487,0,0,0,8.795,14.548v5.357l-5.565,4.465-18.747,3.5a13.958,13.958,0,0,0-5.2,2.122l.446-2.528a1.942,1.942,0,0,0-.116-1.091l-9.784-23.771a3.962,3.962,0,0,0,1-2.6,4.327,4.327,0,0,0-4.462-4.177,4.329,4.329,0,0,0-4.472,4.168,4.122,4.122,0,0,0,2.122,3.556l-4.205,56.954h-.3l-4.205-56.954a4.017,4.017,0,0,0,1.457-5.742,4.653,4.653,0,0,0-6.147-1.36,4.119,4.119,0,0,0-2.122,3.555,3.962,3.962,0,0,0,1,2.6l-9.788,23.771a1.942,1.942,0,0,0-.117,1.091l4.467,25.034a2.174,2.174,0,0,0,1.956,1.732c.082.008.164.013.246.013a2.238,2.238,0,0,0,2.07-1.3l5.251-12.113,1.454,19.675h-2.075a6.491,6.491,0,0,0-6.7,6.259V4.728a8.47,8.47,0,0,0-6.7,8.048v4.173a2.163,2.163,0,0,0,2.233,2.086h120.6C-4.985,19.028.01,14.362.018,8.6V.259H-2.216ZM-126.389-19.894l-3.057-17.191,7.2-17.483,1.586,21.476Zm92.965-.209,1.972,7.367L-38.5-4.183l-.48-.148-.708-3A5.757,5.757,0,0,0-40.745-9.52l7.875-23.257,5.092,8.877-4.186,1.3a2.066,2.066,0,0,0-1.451,2.5Zm-.058,34.965h-9.344a5.847,5.847,0,0,0,.411-2.086V.259a5.912,5.912,0,0,0-.163-1.3l9.1,2.8ZM-70.743-22.581l-4.185-1.3,5.092-8.877,7.874,23.257a5.785,5.785,0,0,0-1.06,2.187l-.691,2.968-.5.157-7.039-8.539,1.972-7.367A2.067,2.067,0,0,0-70.743-22.581Zm10.461-24.837a23.311,23.311,0,0,0,17.867,0v3.111l-8.934,10.014-8.933-10.014ZM-49.115-6.083a2.348,2.348,0,0,1,2.568-2,2.464,2.464,0,0,1,2.508,1.669l.147.626a6.051,6.051,0,0,0-.784-.132A4.861,4.861,0,0,0-45.52-6h-3.6Zm0-5.736a7.248,7.248,0,0,0-2.234,1.252,7.243,7.243,0,0,0-2.233-1.252V-25.475l2.233-2.387,2.234,2.387Zm4.533-.169L-44.649-12v-8.712l2.22,2.37ZM-58.049-12l-.067.014-2.153-6.356,2.22-2.37Zm-.609,5.57A2.466,2.466,0,0,1-56.15-8.086a2.349,2.349,0,0,1,2.568,2V-6h-4.467a2.479,2.479,0,0,0-.706.106h-.031Zm17.806-16.575L-48.4-31.068l8.487-9.522,3.94,3.163Zm16.3-49.753a4.327,4.327,0,0,1-4.466,4.173v-8.345A4.327,4.327,0,0,1-24.549-72.76Zm-8.933-20.6v7.6a80.564,80.564,0,0,1-4.467-8.276v-3.937A4.77,4.77,0,0,1-33.482-93.365Zm-26.8-8.6h12.873a5.909,5.909,0,0,1,4.994,2.62v3.639H-68.934A8.866,8.866,0,0,1-60.282-101.967Zm-8.933,10.431h3.24c-.811,1.6-1.927,3.672-3.24,5.773ZM-78.149-72.76a4.347,4.347,0,0,1,4.467-4.172v8.345A4.327,4.327,0,0,1-78.149-72.76Zm8.934,6.259V-78.292A67.386,67.386,0,0,0-61.05-91.536h19.4a67.233,67.233,0,0,0,8.165,13.244V-66.5a16.391,16.391,0,0,1-7.944,13.874,19.2,19.2,0,0,1-19.848,0A16.39,16.39,0,0,1-69.215-66.5Zm6.434,25.911,8.487,9.522-7.549,8.061-4.887-14.42Zm-25.4,8.137,14.675-2.74-6.606,11.516a2.019,2.019,0,0,0,.913,2.825,2.354,2.354,0,0,0,.349.14l4.736,1.477-1.73,6.467a1.981,1.981,0,0,0,.4,1.778L-68.7-2.8l-3.106.973h-6.341V-12.259h-4.466V-1.827h-13.4V2.345h13.4V14.862H-93.782V12.776a8.47,8.47,0,0,0-6.7-8.048V2.345a5.746,5.746,0,0,0-.3-1.746l.261.046,5.315-26.464A8.581,8.581,0,0,1-88.185-32.453Zm-13.19,12.559-5.72-13.189,1.586-21.476,7.2,17.482Zm-6.419-3.7,5.2,11.99-1.682,8.328a7.03,7.03,0,0,0-2.9-.643h-2.075ZM-122.815,2.345A2.163,2.163,0,0,1-120.582.259h13.4a2.163,2.163,0,0,1,2.233,2.086V4.431h-17.866Zm20.1,12.517h-26.8V12.776A4.326,4.326,0,0,1-125.049,8.6h22.334a4.326,4.326,0,0,1,4.466,4.172v2.086ZM-78.149,2.345h4.467V14.862h-4.467Zm24.567,12.517H-69.215V1.763l11.528-3.59h8.572a2.306,2.306,0,0,1,1.069.256,2.563,2.563,0,0,1,.7.563,2,2,0,0,1,.46,1.267V12.776a2.163,2.163,0,0,1-2.233,2.086ZM-29.015,2.345h4.467V14.862h-4.467Zm0,12.517,17.866,0h-8.933V2.345H-8.916V-1.827H-20.082V-12.259h-4.467V-1.827h-6.345l-3.1-.956,6.75-8.2a1.982,1.982,0,0,0,.395-1.776l-1.731-6.467,4.737-1.477a2.059,2.059,0,0,0,1.412-2.639,2.039,2.039,0,0,0-.15-.326l-6.609-11.52,14.18,2.639A8.642,8.642,0,0,1-7.893-25.4L-4.449.386V8.6A6.49,6.49,0,0,1-11.149,14.862Z" transform="translate(1437.221 3449.609)" fill="none" stroke="#d2d1cf" stroke-width="0.75"/></g></svg>