<svg xmlns="http://www.w3.org/2000/svg" width="212.25" height="212.25" viewBox="0 0 212.25 212.25"><g transform="translate(-500.072 -4105.511)"><path d="M0,0A106.125,106.125,0,0,0,106.125-106.125,106.125,106.125,0,0,0,0-212.25,106.125,106.125,0,0,0-106.125-106.125,106.125,106.125,0,0,0,0,0" transform="translate(606.197 4317.761)" fill="#ebecec"/><path d="M0,0A6.15,6.15,0,0,0-6.251,6.03,6.151,6.151,0,0,0,0,12.06,6.151,6.151,0,0,0,6.251,6.03,6.15,6.15,0,0,0,0,0M0,8.04A2.049,2.049,0,0,1-2.084,6.03,2.049,2.049,0,0,1,0,4.02,2.049,2.049,0,0,1,2.084,6.03,2.049,2.049,0,0,1,0,8.04" transform="translate(607.334 4256.771)" fill="#b81370"/><path d="M0,0A6.15,6.15,0,0,0-6.251,6.03,6.151,6.151,0,0,0,0,12.06,6.151,6.151,0,0,0,6.251,6.03,6.15,6.15,0,0,0,0,0ZM0,8.04A2.049,2.049,0,0,1-2.084,6.03,2.049,2.049,0,0,1,0,4.02,2.049,2.049,0,0,1,2.084,6.03,2.049,2.049,0,0,1,0,8.04Z" transform="translate(607.334 4256.771)" fill="none" stroke="#ebecec" stroke-width="0.7"/><path d="M0,0H-56.245a12.3,12.3,0,0,1-12.5-12.06V-113.114a12.3,12.3,0,0,1,12.5-12.06H0a12.3,12.3,0,0,1,12.5,12.06V-12.06A12.3,12.3,0,0,1,0,0M-56.245-121.154a8.2,8.2,0,0,0-8.335,8.04V-12.06a8.2,8.2,0,0,0,8.335,8.04H0a8.2,8.2,0,0,0,8.335-8.04V-113.114A8.2,8.2,0,0,0,0-121.154Z" transform="translate(634.256 4276.063)" fill="#b81370"/><path d="M0,0H-56.245a12.3,12.3,0,0,1-12.5-12.06V-113.114a12.3,12.3,0,0,1,12.5-12.06H0a12.3,12.3,0,0,1,12.5,12.06V-12.06A12.3,12.3,0,0,1,0,0ZM-56.245-121.154a8.2,8.2,0,0,0-8.335,8.04V-12.06a8.2,8.2,0,0,0,8.335,8.04H0a8.2,8.2,0,0,0,8.335-8.04V-113.114A8.2,8.2,0,0,0,0-121.154Z" transform="translate(634.256 4276.063)" fill="none" stroke="#ebecec" stroke-width="0.7"/><path d="M0,0H-56.555a4.055,4.055,0,0,1-4.122-3.975V-85.507a4.057,4.057,0,0,1,4.122-3.976H0a4.056,4.056,0,0,1,4.121,3.976V-3.975A4.053,4.053,0,0,1,0,0M-56.555-85.551-56.6-3.975,0-3.93a.045.045,0,0,0,.047-.045V-85.507Z" transform="translate(634.414 4250.649)" fill="#b81370"/><path d="M0,0H-56.555a4.055,4.055,0,0,1-4.122-3.975V-85.507a4.057,4.057,0,0,1,4.122-3.976H0a4.056,4.056,0,0,1,4.121,3.976V-3.975A4.053,4.053,0,0,1,0,0ZM-56.555-85.551-56.6-3.975,0-3.93a.045.045,0,0,0,.047-.045V-85.507Z" transform="translate(634.414 4250.649)" fill="none" stroke="#ebecec" stroke-width="0.7"/><path d="M0,0A1,1,0,0,0,.323.2L.461.318l.99.114L1.874.376,17.157-14.208a1.871,1.871,0,0,0-.183-2.5h0a1.921,1.921,0,0,0-2.671,0L3.062-5.864V-43.346a1.87,1.87,0,0,0-1.9-1.832,1.87,1.87,0,0,0-1.9,1.832V-5.864L-11.979-16.708a1.957,1.957,0,0,0-2.671,0,1.759,1.759,0,0,0,0,2.576Z" transform="translate(605.063 4220.289)" fill="#b81370"/><path d="M0,0A1,1,0,0,0,.323.2L.461.318l.99.114L1.874.376,17.157-14.208a1.871,1.871,0,0,0-.183-2.5h0a1.921,1.921,0,0,0-2.671,0L3.062-5.864V-43.346a1.87,1.87,0,0,0-1.9-1.832,1.87,1.87,0,0,0-1.9,1.832V-5.864L-11.979-16.708a1.957,1.957,0,0,0-2.671,0,1.759,1.759,0,0,0,0,2.576Z" transform="translate(605.063 4220.289)" fill="none" stroke="#ebecec" stroke-width="0.7"/><path d="M0,0H-28.952a1.869,1.869,0,0,0-1.9,1.832,1.87,1.87,0,0,0,1.9,1.835H0A1.871,1.871,0,0,0,1.9,1.832,1.87,1.87,0,0,0,0,0" transform="translate(620.701 4222.586)" fill="#b81370"/><path d="M0,0H-28.952a1.869,1.869,0,0,0-1.9,1.832,1.87,1.87,0,0,0,1.9,1.835H0A1.871,1.871,0,0,0,1.9,1.832,1.87,1.87,0,0,0,0,0Z" transform="translate(620.701 4222.586)" fill="none" stroke="#ebecec" stroke-width="0.7"/></g></svg>