<svg xmlns="http://www.w3.org/2000/svg" width="212.25" height="212.25" viewBox="0 0 212.25 212.25"><g transform="translate(-562.802 -4007.845)"><path d="M0,0A106.125,106.125,0,0,0,106.125-106.125,106.125,106.125,0,0,0,0-212.25,106.125,106.125,0,0,0-106.125-106.125,106.125,106.125,0,0,0,0,0" transform="translate(668.927 4220.095)" fill="#ebecec"/><path d="M0,0H66.187a9.2,9.2,0,0,0,6.627-2.814,9.742,9.742,0,0,0,2.771-6.837,9.671,9.671,0,0,0-6.28-9.142l-.33-.119v-83.5l.33-.12a9.755,9.755,0,0,0,5.745-12.339,9.429,9.429,0,0,0-8.862-6.453H0a9.2,9.2,0,0,0-6.628,2.814A9.747,9.747,0,0,0-9.4-111.677a9.666,9.666,0,0,0,6.28,9.141l.33.119v83.5l-.33.119A9.753,9.753,0,0,0-8.861-6.454,9.428,9.428,0,0,0,0,0M-3.786-111.634a3.858,3.858,0,0,1,3.807-3.9H66.168a3.858,3.858,0,0,1,3.807,3.9,3.857,3.857,0,0,1-3.807,3.9H.021a3.857,3.857,0,0,1-3.807-3.9M63.36-19.388H2.829V-101.94H63.36Zm0-82.551M.021-13.592H66.168a3.858,3.858,0,0,1,3.807,3.9,3.857,3.857,0,0,1-3.807,3.9H.021a3.857,3.857,0,0,1-3.807-3.9,3.858,3.858,0,0,1,3.807-3.9" transform="translate(635.628 4175.135)" fill="#219e44"/><path d="M0,0H66.187a9.2,9.2,0,0,0,6.627-2.814,9.742,9.742,0,0,0,2.771-6.837,9.671,9.671,0,0,0-6.28-9.142l-.33-.119v-83.5l.33-.12a9.755,9.755,0,0,0,5.745-12.339,9.429,9.429,0,0,0-8.862-6.453H0a9.2,9.2,0,0,0-6.628,2.814A9.747,9.747,0,0,0-9.4-111.677a9.666,9.666,0,0,0,6.28,9.141l.33.119v83.5l-.33.119A9.753,9.753,0,0,0-8.861-6.454,9.428,9.428,0,0,0,0,0ZM-3.786-111.634a3.858,3.858,0,0,1,3.807-3.9H66.168a3.858,3.858,0,0,1,3.807,3.9,3.857,3.857,0,0,1-3.807,3.9H.021A3.857,3.857,0,0,1-3.786-111.634ZM63.36-19.388H2.829V-101.94H63.36Zm0-82.551M.021-13.592H66.168a3.858,3.858,0,0,1,3.807,3.9,3.857,3.857,0,0,1-3.807,3.9H.021a3.857,3.857,0,0,1-3.807-3.9A3.858,3.858,0,0,1,.021-13.592Z" transform="translate(635.628 4175.135)" fill="none" stroke="#ebecec" stroke-width="1"/><path d="M0,0A22.508,22.508,0,0,0,.14-2.785,23.285,23.285,0,0,0-13.6-24.21h0a2.714,2.714,0,0,0-2.115-.04A2.829,2.829,0,0,0-17.285-22.7l-5.228,12.589-5.223-12.581A2.826,2.826,0,0,0-29.3-24.247a2.71,2.71,0,0,0-2.115.034A23.283,23.283,0,0,0-45.164-2.791a22.371,22.371,0,0,0,.158,2.8A2.85,2.85,0,0,0-42.227,2.52a2.8,2.8,0,0,0,.33-.02L-28.726.9l-7.9,10.871a2.963,2.963,0,0,0,.562,4.051,22.142,22.142,0,0,0,27.13,0,2.965,2.965,0,0,0,.563-4.052L-16.278.9-3.107,2.5a2.349,2.349,0,0,0,.326.019A2.847,2.847,0,0,0,0,0M-26.476-.875a2.651,2.651,0,0,0,.167-1.608l-.01-.308a3.933,3.933,0,0,1,2.3-3.591,2.7,2.7,0,0,0,1.086-.943l.415-.622.416.621a2.728,2.728,0,0,0,1.092.946,4.019,4.019,0,0,1,2.33,3.591v.055l-.011.053a2.947,2.947,0,0,0,.2,1.8l.293.642-.7.063a2.7,2.7,0,0,0-1.322.492,3.7,3.7,0,0,1-2.293.792A3.751,3.751,0,0,1-24.828.3a2.712,2.712,0,0,0-1.247-.477l-.673-.078Zm-2.416-9.05a9.762,9.762,0,0,0-2.816,5.016l-.076.346-7.756.942.05-.61A17.541,17.541,0,0,1-32.219-17.17l.511-.365,3.066,7.374Zm14.2,22.692-.542.258a16.876,16.876,0,0,1-7.278,1.657,16.871,16.871,0,0,1-7.276-1.657l-.542-.258,4.664-6.42.344.11a9.12,9.12,0,0,0,5.622,0l.344-.11Zm1.452-17.33-.077-.346a9.753,9.753,0,0,0-2.815-5.016l-.25-.236,3.065-7.373.511.364A17.541,17.541,0,0,1-5.533-4.231l.05.61Z" transform="translate(691.234 4117.262)" fill="#219e44"/><path d="M0,0A22.508,22.508,0,0,0,.14-2.785,23.285,23.285,0,0,0-13.6-24.21h0a2.714,2.714,0,0,0-2.115-.04A2.829,2.829,0,0,0-17.285-22.7l-5.228,12.589-5.223-12.581A2.826,2.826,0,0,0-29.3-24.247a2.71,2.71,0,0,0-2.115.034A23.283,23.283,0,0,0-45.164-2.791a22.371,22.371,0,0,0,.158,2.8A2.85,2.85,0,0,0-42.227,2.52a2.8,2.8,0,0,0,.33-.02L-28.726.9l-7.9,10.871a2.963,2.963,0,0,0,.562,4.051,22.142,22.142,0,0,0,27.13,0,2.965,2.965,0,0,0,.563-4.052L-16.278.9-3.107,2.5a2.349,2.349,0,0,0,.326.019A2.847,2.847,0,0,0,0,0ZM-26.476-.875a2.651,2.651,0,0,0,.167-1.608l-.01-.308a3.933,3.933,0,0,1,2.3-3.591,2.7,2.7,0,0,0,1.086-.943l.415-.622.416.621a2.728,2.728,0,0,0,1.092.946,4.019,4.019,0,0,1,2.33,3.591v.055l-.011.053a2.947,2.947,0,0,0,.2,1.8l.293.642-.7.063a2.7,2.7,0,0,0-1.322.492,3.7,3.7,0,0,1-2.293.792A3.751,3.751,0,0,1-24.828.3a2.712,2.712,0,0,0-1.247-.477l-.673-.078Zm-2.416-9.05a9.762,9.762,0,0,0-2.816,5.016l-.076.346-7.756.942.05-.61A17.541,17.541,0,0,1-32.219-17.17l.511-.365,3.066,7.374Zm14.2,22.692-.542.258a16.876,16.876,0,0,1-7.278,1.657,16.871,16.871,0,0,1-7.276-1.657l-.542-.258,4.664-6.42.344.11a9.12,9.12,0,0,0,5.622,0l.344-.11Zm1.452-17.33-.077-.346a9.753,9.753,0,0,0-2.815-5.016l-.25-.236,3.065-7.373.511.364A17.541,17.541,0,0,1-5.533-4.231l.05.61Z" transform="translate(691.234 4117.262)" fill="none" stroke="#ebecec" stroke-width="1"/></g></svg>