<svg xmlns="http://www.w3.org/2000/svg" width="1890" height="467.279" viewBox="0 0 1890 467.279"><path d="M-2087.806,567.782c-21.487,0-42.633-.9-62.85-2.68a619.771,619.771,0,0,1-61.545-8.474,554.254,554.254,0,0,1-60.087-14.928,519.659,519.659,0,0,1-58.482-22.043,514.745,514.745,0,0,1-56.728-29.815c-9.31-5.659-18.616-11.724-27.659-18.028-9.152-6.379-18.292-13.181-27.166-20.218-8.977-7.119-17.944-14.686-26.651-22.491-8.8-7.889-17.59-16.248-26.121-24.845-8.63-8.7-17.233-17.878-25.571-27.284-8.433-9.514-16.845-19.542-25-29.8-9.673-10.017-40.739-51.916-92.335-124.534V100.5c7.882,13.565,16.3,28.982,25.739,47.13,11.271,21.673,22.275,43.908,33.926,67.448l.005.011,0,.005c25.841,52.208,52.562,106.193,82.216,153.362,7.665,12.193,15.345,23.621,22.825,33.969,8.019,11.093,16.135,21.394,24.122,30.616a316.155,316.155,0,0,0,25.615,26.463,228.587,228.587,0,0,0,27.3,21.507c10.4,6.921,21.19,13.465,32.058,19.449,10.7,5.891,21.771,11.4,32.906,16.379,10.95,4.9,22.293,9.425,33.711,13.458,11.21,3.96,22.81,7.554,34.475,10.682,11.449,3.07,23.292,5.78,35.2,8.053,11.674,2.229,23.745,4.1,35.88,5.57,11.873,1.437,24.161,2.525,36.521,3.235,12.077.694,24.566,1.046,37.12,1.046,21.094,0,43.244-.995,65.836-2.956,21.529-1.869,44.177-4.68,67.316-8.353,21.873-3.473,44.947-7.84,68.582-12.98,22.1-4.806,45.529-10.47,69.637-16.835,22.454-5.928,45.508-12.444,70.479-19.92,22.26-6.664,45.519-13.937,71.108-22.233,47.661-15.452,96.208-32.145,143.156-48.288l.1-.035.452-.155.032-.011c46.978-16.154,95.555-32.858,143.066-48.266,25.573-8.293,48.8-15.558,71-22.209,24.934-7.468,47.946-13.976,70.351-19.9,24.066-6.359,47.446-12.017,69.49-16.815,23.577-5.132,46.595-9.493,68.414-12.963,23.076-3.669,45.66-6.476,67.126-8.343,22.519-1.958,44.6-2.951,65.625-2.951a617.534,617.534,0,0,1,68.233,3.673c11.254,1.257,22.458,2.861,33.3,4.766,11.05,1.943,22.057,4.258,32.714,6.879,10.841,2.666,21.64,5.73,32.1,9.105,10.636,3.435,21.216,7.287,31.446,11.452,10.4,4.234,20.753,8.916,30.763,13.915,10.153,5.069,20.263,10.619,30.05,16.494v77.951c-87.157-54-186.418-80.258-303.455-80.258-20.067,0-41.045.786-62.353,2.336-20.312,1.477-41.614,3.7-63.314,6.6-20.515,2.746-42.094,6.2-64.139,10.261-20.618,3.8-42.429,8.277-64.827,13.309-20.883,4.691-42.268,9.842-65.376,15.747-20.592,5.261-42.113,11.01-65.791,17.576-43.968,12.192-88.816,25.4-132.187,38.177l-.02.006-.069.02-.1.03-.036.011c-43.377,12.777-88.23,25.988-132.256,38.2-23.689,6.568-45.214,12.319-65.8,17.58-23.145,5.914-44.535,11.066-65.391,15.751-22.419,5.036-44.235,9.515-64.841,13.313-22.061,4.064-43.645,7.517-64.153,10.263-21.689,2.9-43,5.126-63.327,6.605-21.314,1.551-42.295,2.337-62.36,2.337h0Z" transform="translate(2638 -100.503)" opacity="0.5"/></svg>