<svg xmlns="http://www.w3.org/2000/svg" width="212.25" height="212.25" viewBox="0 0 212.25 212.25"><g transform="translate(-1305.1 -3922.04)"><path d="M0,0A106.125,106.125,0,0,0,106.125-106.125,106.125,106.125,0,0,0,0-212.25,106.125,106.125,0,0,0-106.125-106.125,106.125,106.125,0,0,0,0,0" transform="translate(1411.225 4134.29)" fill="#ebecec"/><path d="M0,0C19.307,0,35.094,11.853,37.164,35.5c1.938,22.14-2.3,37.683-5,45.007-1.159,3.132,6.255-.151,12.824,11,4.372,2.055,11.089,7.09,12.236,11.336,2.281,8.449,2.055,28.264,2.055,28.264S39.561,140.6.1,140.6m0,0c-39.461,0-59.175-9.487-59.175-9.487s-.226-19.815,2.056-28.264c1.025-3.8,5.451-7.453,11-10.632,1.088-.623,5.25-7.706,15.52-6.985-4.243-14.135-7.964-34.882-6.665-49.725C-35.094,11.853-19.307,0,0,0M-25.974,38.228S-21.327,19.283.085,19.283s25.87,18.945,25.87,18.945C25.873,57.074,16.919,78.189-.009,78.189m0,0c-16.928,0-25.883-21.115-25.965-39.961m-.247-12.809c-.06,4.948-.027,10.591.326,14.068M44.984,91.508S41.056,108.4,15.578,113.935M-30.5,85.227A41.457,41.457,0,0,0-8.492,101.863M25.957,87.956a26.1,26.1,0,0,1-10.379,5.758m-48.056,19.613a50.822,50.822,0,0,0,16.49,9.113" transform="translate(1411.586 3957.277)" fill="none" stroke="#f09300" stroke-linecap="round" stroke-linejoin="round" stroke-width="4"/></g></svg>