<svg xmlns="http://www.w3.org/2000/svg" width="212.25" height="212.25" viewBox="0 0 212.25 212.25"><g transform="translate(-1346.1 -6677.836)"><path d="M0,0A106.125,106.125,0,0,0,106.125-106.125,106.125,106.125,0,0,0,0-212.25,106.125,106.125,0,0,0-106.125-106.125,106.125,106.125,0,0,0,0,0" transform="translate(1452.225 6890.086)" fill="#ebecec"/><path d="M0,0H-44.647C-60.063,0-75.2,15.135-75.2,30.553a2.35,2.35,0,0,0,2.35,2.35,2.35,2.35,0,0,0,2.35-2.35C-70.5,18.543-59.005,6.3-47,4.842V15.276c-8.953,5.688-14.1,17.134-14.1,31.8,0,13.138,4.817,25.218,12.924,32.315a2.348,2.348,0,0,0,1.551.588h27.446a2.35,2.35,0,0,0,1.551-.588C-9.4,72.222-4.7,60.142-4.7,47c0-14.665-5.146-26.11-14.1-31.8V4.7H-8.084A9.2,9.2,0,0,0-9.4,9.4,9.4,9.4,0,0,0,0,18.8,9.4,9.4,0,0,0,9.4,9.4,9.4,9.4,0,0,0,0,0M-42.3,4.7h18.8v9.4H-42.3Zm1.387,28.2a41.982,41.982,0,0,1,5.264-14.1h5.5a42,42,0,0,1,5.264,14.1Zm16.8,4.7A71.888,71.888,0,0,1-23.5,47a71.9,71.9,0,0,1-.611,9.4H-41.687a72.68,72.68,0,0,1,0-18.8Zm-19.9-18.8h2.937a51.483,51.483,0,0,0-4.7,14.1h-8.578a24.37,24.37,0,0,1,10.34-14.1M-56.4,47a49.645,49.645,0,0,1,.846-9.4h9.094a82.094,82.094,0,0,0,0,18.8h-8.976A47.2,47.2,0,0,1-56.4,47m10.668,28.2a33.055,33.055,0,0,1-8.459-14.1h8.459a51.519,51.519,0,0,0,4.7,14.1Zm15.58,0h-5.5a41.982,41.982,0,0,1-5.264-14.1h16.026a42,42,0,0,1-5.264,14.1m10.081,0h-4.7a51.485,51.485,0,0,0,4.7-14.1h8.46a33.047,33.047,0,0,1-8.46,14.1M-9.4,47a47.2,47.2,0,0,1-.963,9.4H-19.34A81.568,81.568,0,0,0-18.8,47a81.563,81.563,0,0,0-.541-9.4h9.1A49.562,49.562,0,0,1-9.4,47m-2.044-14.1h-8.624a51.486,51.486,0,0,0-4.7-14.1h2.938A24.376,24.376,0,0,1-11.444,32.9M0,14.1A4.7,4.7,0,0,1-4.7,9.4,4.7,4.7,0,0,1,0,4.7,4.7,4.7,0,0,1,4.7,9.4,4.7,4.7,0,0,1,0,14.1" transform="translate(1519.737 6741.847)" fill="#56cdf2"/><path d="M0,0H-44.647C-60.063,0-75.2,15.135-75.2,30.553a2.35,2.35,0,0,0,2.35,2.35,2.35,2.35,0,0,0,2.35-2.35C-70.5,18.543-59.005,6.3-47,4.842V15.276c-8.953,5.688-14.1,17.134-14.1,31.8,0,13.138,4.817,25.218,12.924,32.315a2.348,2.348,0,0,0,1.551.588h27.446a2.35,2.35,0,0,0,1.551-.588C-9.4,72.222-4.7,60.142-4.7,47c0-14.665-5.146-26.11-14.1-31.8V4.7H-8.084A9.2,9.2,0,0,0-9.4,9.4,9.4,9.4,0,0,0,0,18.8,9.4,9.4,0,0,0,9.4,9.4,9.4,9.4,0,0,0,0,0ZM-42.3,4.7h18.8v9.4H-42.3Zm1.387,28.2a41.982,41.982,0,0,1,5.264-14.1h5.5a42,42,0,0,1,5.264,14.1Zm16.8,4.7A71.888,71.888,0,0,1-23.5,47a71.9,71.9,0,0,1-.611,9.4H-41.687a72.68,72.68,0,0,1,0-18.8Zm-19.9-18.8h2.937a51.483,51.483,0,0,0-4.7,14.1h-8.578A24.37,24.37,0,0,1-44.013,18.8ZM-56.4,47a49.645,49.645,0,0,1,.846-9.4h9.094a82.094,82.094,0,0,0,0,18.8h-8.976A47.2,47.2,0,0,1-56.4,47Zm10.668,28.2a33.055,33.055,0,0,1-8.459-14.1h8.459a51.519,51.519,0,0,0,4.7,14.1Zm15.58,0h-5.5a41.982,41.982,0,0,1-5.264-14.1h16.026A42,42,0,0,1-30.149,75.207Zm10.081,0h-4.7a51.485,51.485,0,0,0,4.7-14.1h8.46A33.047,33.047,0,0,1-20.068,75.207ZM-9.4,47a47.2,47.2,0,0,1-.963,9.4H-19.34A81.568,81.568,0,0,0-18.8,47a81.563,81.563,0,0,0-.541-9.4h9.1A49.562,49.562,0,0,1-9.4,47Zm-2.044-14.1h-8.624a51.486,51.486,0,0,0-4.7-14.1h2.938A24.376,24.376,0,0,1-11.444,32.9ZM0,14.1A4.7,4.7,0,0,1-4.7,9.4,4.7,4.7,0,0,1,0,4.7,4.7,4.7,0,0,1,4.7,9.4,4.7,4.7,0,0,1,0,14.1Z" transform="translate(1519.737 6741.847)" fill="none" stroke="#ebecec" stroke-width="0.5"/><path d="M0,0V52.044H.022C.479,73.438,10.966,75.1,11.422,75.162l.193.026.193-.026c.456-.061,10.943-1.724,11.4-23.118h.022V0a4.352,4.352,0,0,0,4.356-4.337A4.352,4.352,0,0,0,23.23-8.674H0A4.352,4.352,0,0,0-4.356-4.337,4.352,4.352,0,0,0,0,0M11.618,72.247c-1.308-.379-8.321-3.206-8.7-20.2H20.311c-.378,17.029-7.417,19.834-8.693,20.2m8.708-23.094H2.9V0H20.326ZM0-5.783H23.23a1.451,1.451,0,0,1,1.452,1.446A1.451,1.451,0,0,1,23.23-2.891H0A1.451,1.451,0,0,1-1.452-4.337,1.451,1.451,0,0,1,0-5.783" transform="translate(1410.009 6750.701)" fill="#56cdf2"/><path d="M0,0V52.044H.022C.479,73.438,10.966,75.1,11.422,75.162l.193.026.193-.026c.456-.061,10.943-1.724,11.4-23.118h.022V0a4.352,4.352,0,0,0,4.356-4.337A4.352,4.352,0,0,0,23.23-8.674H0A4.352,4.352,0,0,0-4.356-4.337,4.352,4.352,0,0,0,0,0ZM11.618,72.247c-1.308-.379-8.321-3.206-8.7-20.2H20.311C19.933,69.073,12.894,71.878,11.618,72.247Zm8.708-23.094H2.9V0H20.326ZM0-5.783H23.23a1.451,1.451,0,0,1,1.452,1.446A1.451,1.451,0,0,1,23.23-2.891H0A1.451,1.451,0,0,1-1.452-4.337,1.451,1.451,0,0,1,0-5.783Z" transform="translate(1410.009 6750.701)" fill="none" stroke="#56cdf2" stroke-width="1"/><path d="M0,0H-18.243a3.41,3.41,0,0,0-3.42,3.393,3.41,3.41,0,0,0,3.42,3.392V47.5h.017c.359,16.735,8.6,18.036,8.953,18.083l.156.022.157-.023C-8.6,65.527-.377,64.156-.017,47.5H0V6.785A3.411,3.411,0,0,0,3.421,3.393,3.411,3.411,0,0,0,0,0M-9.126,63.3c-1.048-.305-6.529-2.538-6.824-15.8H-2.293c-.3,13.21-5.784,15.487-6.833,15.8M-2.28,45.234H-15.962V6.785H-2.28ZM0,4.523H-18.243a1.137,1.137,0,0,1-1.14-1.13,1.138,1.138,0,0,1,1.14-1.131H0A1.138,1.138,0,0,1,1.14,3.393,1.137,1.137,0,0,1,0,4.523" transform="translate(1397.1 6756.673)" fill="#56cdf2"/><path d="M0,0H-18.243a3.41,3.41,0,0,0-3.42,3.393,3.41,3.41,0,0,0,3.42,3.392V47.5h.017c.359,16.735,8.6,18.036,8.953,18.083l.156.022.157-.023C-8.6,65.527-.377,64.156-.017,47.5H0V6.785A3.411,3.411,0,0,0,3.421,3.393,3.411,3.411,0,0,0,0,0ZM-9.126,63.3c-1.048-.305-6.529-2.538-6.824-15.8H-2.293C-2.59,60.706-8.077,62.983-9.126,63.3ZM-2.28,45.234H-15.962V6.785H-2.28ZM0,4.523H-18.243a1.137,1.137,0,0,1-1.14-1.13,1.138,1.138,0,0,1,1.14-1.131H0A1.138,1.138,0,0,1,1.14,3.393,1.137,1.137,0,0,1,0,4.523Z" transform="translate(1397.1 6756.673)" fill="none" stroke="#56cdf2" stroke-width="1.3"/></g></svg>