<svg xmlns="http://www.w3.org/2000/svg" width="212.25" height="212.25" viewBox="0 0 212.25 212.25"><g transform="translate(-1210.467 -3936.636)"><path d="M0,0A106.125,106.125,0,0,0,106.125-106.125,106.125,106.125,0,0,0,0-212.25,106.125,106.125,0,0,0-106.125-106.125,106.125,106.125,0,0,0,0,0" transform="translate(1316.592 4148.886)" fill="#ebecec"/><g transform="translate(1343.408 4070.011)"><path d="M0,0-8.607-13.257-17.68-7.366-9.074,5.886ZM-9.536-8.88-4.379-.934-8.143,1.508-13.3-6.437Z" fill="#d53216"/></g><g transform="translate(1343.408 4070.011)"><path d="M0,0-8.607-13.257-17.68-7.366-9.074,5.886ZM-9.536-8.88-4.379-.934-8.143,1.508-13.3-6.437Z" fill="none" stroke="#ebecec" stroke-width="0.241"/></g><g transform="translate(1316.725 4055.13)"><path d="M0,0-4.848-8.539l-9.217,5.234,4.847,8.539ZM-6.036-4.223-4.314-1.19-8.027.918-9.75-2.115Z" fill="#d53216" stroke="#ebecec" stroke-width="0.241"/></g><path d="M0,0A1.583,1.583,0,0,0,1.583,1.583,12.389,12.389,0,0,1,7.01,2.672a15.556,15.556,0,0,0,6.6,1.315,15.543,15.543,0,0,0,6.6-1.315A12.369,12.369,0,0,1,25.63,1.583a12.371,12.371,0,0,1,5.424,1.089,15.562,15.562,0,0,0,6.6,1.315,15.562,15.562,0,0,0,6.6-1.315,12.371,12.371,0,0,1,5.424-1.089A12.374,12.374,0,0,1,55.1,2.672a15.554,15.554,0,0,0,6.6,1.315,15.556,15.556,0,0,0,6.6-1.315,14.072,14.072,0,0,1,10.856,0,15.568,15.568,0,0,0,6.6,1.315,15.561,15.561,0,0,0,6.6-1.315,14.082,14.082,0,0,1,10.86,0,15.577,15.577,0,0,0,6.605,1.315,15.579,15.579,0,0,0,6.606-1.315,12.411,12.411,0,0,1,5.432-1.089A1.581,1.581,0,0,0,123.45,0a1.581,1.581,0,0,0-1.582-1.583,15.561,15.561,0,0,0-6.606,1.316A12.412,12.412,0,0,1,109.83.821,12.4,12.4,0,0,1,104.4-.267a15.526,15.526,0,0,0-6-1.3L79.861-29.521l6.928,1.159.522-3.123-40.666-6.8-.194.458L22.633-14.434,14.107.81c-.165,0-.318.013-.5.013A12.389,12.389,0,0,1,8.184-.266a15.556,15.556,0,0,0-6.6-1.315A1.58,1.58,0,0,0,0,0M33.7.277l.487-1.146L34.973.6A10.291,10.291,0,0,1,33.7.277M67.132-.267a13.586,13.586,0,0,1-2.886.894L60.01-6.263l5.644-3.494,5.379,8.363a16.185,16.185,0,0,0-3.9,1.127M48.583-34.751l27,4.517L94.755-1.342A16.267,16.267,0,0,0,91.19-.266,12.389,12.389,0,0,1,85.763.823a12.394,12.394,0,0,1-5.43-1.089,15.422,15.422,0,0,0-5.644-1.29L66.632-14.081,55.657-7.288,60.628.791a12.211,12.211,0,0,1-4.35-1.057,15.562,15.562,0,0,0-6.6-1.315,15.554,15.554,0,0,0-6.6,1.315A12.192,12.192,0,0,1,38.662.8L35.778-4.61ZM25.015-12.336l18.2-17.878L30.733-.826a15.42,15.42,0,0,0-5.1-.758,15.529,15.529,0,0,0-6.6,1.315c-.306.122-.6.239-.909.351Z" transform="translate(1256.122 4078.079)" fill="#d53216"/><path d="M0,0A1.583,1.583,0,0,0,1.583,1.583,12.389,12.389,0,0,1,7.01,2.672a15.556,15.556,0,0,0,6.6,1.315,15.543,15.543,0,0,0,6.6-1.315A12.369,12.369,0,0,1,25.63,1.583a12.371,12.371,0,0,1,5.424,1.089,15.562,15.562,0,0,0,6.6,1.315,15.562,15.562,0,0,0,6.6-1.315,12.371,12.371,0,0,1,5.424-1.089A12.374,12.374,0,0,1,55.1,2.672a15.554,15.554,0,0,0,6.6,1.315,15.556,15.556,0,0,0,6.6-1.315,14.072,14.072,0,0,1,10.856,0,15.568,15.568,0,0,0,6.6,1.315,15.561,15.561,0,0,0,6.6-1.315,14.082,14.082,0,0,1,10.86,0,15.577,15.577,0,0,0,6.605,1.315,15.579,15.579,0,0,0,6.606-1.315,12.411,12.411,0,0,1,5.432-1.089A1.581,1.581,0,0,0,123.45,0a1.581,1.581,0,0,0-1.582-1.583,15.561,15.561,0,0,0-6.606,1.316A12.412,12.412,0,0,1,109.83.821,12.4,12.4,0,0,1,104.4-.267a15.526,15.526,0,0,0-6-1.3L79.861-29.521l6.928,1.159.522-3.123-40.666-6.8-.194.458L22.633-14.434,14.107.81c-.165,0-.318.013-.5.013A12.389,12.389,0,0,1,8.184-.266a15.556,15.556,0,0,0-6.6-1.315A1.58,1.58,0,0,0,0,0ZM33.7.277l.487-1.146L34.973.6A10.291,10.291,0,0,1,33.7.277ZM67.132-.267a13.586,13.586,0,0,1-2.886.894L60.01-6.263l5.644-3.494,5.379,8.363A16.185,16.185,0,0,0,67.132-.267ZM48.583-34.751l27,4.517L94.755-1.342A16.267,16.267,0,0,0,91.19-.266,12.389,12.389,0,0,1,85.763.823a12.394,12.394,0,0,1-5.43-1.089,15.422,15.422,0,0,0-5.644-1.29L66.632-14.081,55.657-7.288,60.628.791a12.211,12.211,0,0,1-4.35-1.057,15.562,15.562,0,0,0-6.6-1.315,15.554,15.554,0,0,0-6.6,1.315A12.192,12.192,0,0,1,38.662.8L35.778-4.61ZM25.015-12.336l18.2-17.878L30.733-.826a15.42,15.42,0,0,0-5.1-.758,15.529,15.529,0,0,0-6.6,1.315c-.306.122-.6.239-.909.351Z" transform="translate(1256.122 4078.079)" fill="none" stroke="#ebecec" stroke-width="0.241"/><path d="M0,0A15.579,15.579,0,0,0-6.606,1.315,12.411,12.411,0,0,1-12.038,2.4a12.4,12.4,0,0,1-5.43-1.089A15.579,15.579,0,0,0-24.074,0a15.567,15.567,0,0,0-6.6,1.315A12.4,12.4,0,0,1-36.1,2.4a12.4,12.4,0,0,1-5.431-1.089A15.567,15.567,0,0,0-48.138,0a15.56,15.56,0,0,0-6.6,1.315A12.4,12.4,0,0,1-60.166,2.4,12.371,12.371,0,0,1-65.59,1.315,15.562,15.562,0,0,0-72.19,0a15.558,15.558,0,0,0-6.6,1.315A12.371,12.371,0,0,1-84.214,2.4a12.371,12.371,0,0,1-5.424-1.089A15.554,15.554,0,0,0-96.238,0a15.533,15.533,0,0,0-6.6,1.315A12.372,12.372,0,0,1-108.257,2.4a12.389,12.389,0,0,1-5.427-1.089A15.556,15.556,0,0,0-120.285,0a1.583,1.583,0,0,0-1.583,1.583,1.582,1.582,0,0,0,1.583,1.582,12.386,12.386,0,0,1,5.427,1.089,15.541,15.541,0,0,0,6.6,1.316,15.534,15.534,0,0,0,6.6-1.316,12.361,12.361,0,0,1,5.42-1.089,12.367,12.367,0,0,1,5.424,1.089,15.543,15.543,0,0,0,6.6,1.316,15.54,15.54,0,0,0,6.6-1.316A12.371,12.371,0,0,1-72.19,3.165a12.371,12.371,0,0,1,5.424,1.089,15.536,15.536,0,0,0,6.6,1.316,15.534,15.534,0,0,0,6.6-1.316,12.4,12.4,0,0,1,5.427-1.089,12.4,12.4,0,0,1,5.429,1.089A15.551,15.551,0,0,0-36.1,5.57a15.541,15.541,0,0,0,6.6-1.316,12.392,12.392,0,0,1,5.429-1.089,12.4,12.4,0,0,1,5.431,1.089,15.563,15.563,0,0,0,6.6,1.316A15.561,15.561,0,0,0-5.432,4.254,12.411,12.411,0,0,1,0,3.165,1.581,1.581,0,0,0,1.583,1.583,1.582,1.582,0,0,0,0,0" transform="translate(1377.99 4085.993)" fill="#d53216"/><path d="M0,0A15.579,15.579,0,0,0-6.606,1.315,12.411,12.411,0,0,1-12.038,2.4a12.4,12.4,0,0,1-5.43-1.089A15.579,15.579,0,0,0-24.074,0a15.567,15.567,0,0,0-6.6,1.315A12.4,12.4,0,0,1-36.1,2.4a12.4,12.4,0,0,1-5.431-1.089A15.567,15.567,0,0,0-48.138,0a15.56,15.56,0,0,0-6.6,1.315A12.4,12.4,0,0,1-60.166,2.4,12.371,12.371,0,0,1-65.59,1.315,15.562,15.562,0,0,0-72.19,0a15.558,15.558,0,0,0-6.6,1.315A12.371,12.371,0,0,1-84.214,2.4a12.371,12.371,0,0,1-5.424-1.089A15.554,15.554,0,0,0-96.238,0a15.533,15.533,0,0,0-6.6,1.315A12.372,12.372,0,0,1-108.257,2.4a12.389,12.389,0,0,1-5.427-1.089A15.556,15.556,0,0,0-120.285,0a1.583,1.583,0,0,0-1.583,1.583,1.582,1.582,0,0,0,1.583,1.582,12.386,12.386,0,0,1,5.427,1.089,15.541,15.541,0,0,0,6.6,1.316,15.534,15.534,0,0,0,6.6-1.316,12.361,12.361,0,0,1,5.42-1.089,12.367,12.367,0,0,1,5.424,1.089,15.543,15.543,0,0,0,6.6,1.316,15.54,15.54,0,0,0,6.6-1.316A12.371,12.371,0,0,1-72.19,3.165a12.371,12.371,0,0,1,5.424,1.089,15.536,15.536,0,0,0,6.6,1.316,15.534,15.534,0,0,0,6.6-1.316,12.4,12.4,0,0,1,5.427-1.089,12.4,12.4,0,0,1,5.429,1.089A15.551,15.551,0,0,0-36.1,5.57a15.541,15.541,0,0,0,6.6-1.316,12.392,12.392,0,0,1,5.429-1.089,12.4,12.4,0,0,1,5.431,1.089,15.563,15.563,0,0,0,6.6,1.316A15.561,15.561,0,0,0-5.432,4.254,12.411,12.411,0,0,1,0,3.165,1.581,1.581,0,0,0,1.583,1.583,1.582,1.582,0,0,0,0,0Z" transform="translate(1377.99 4085.993)" fill="none" stroke="#ebecec" stroke-width="0.241"/><path d="M0,0A15.579,15.579,0,0,0-6.606,1.315,12.411,12.411,0,0,1-12.038,2.4a12.4,12.4,0,0,1-5.43-1.089A15.579,15.579,0,0,0-24.074,0a15.567,15.567,0,0,0-6.6,1.315A12.4,12.4,0,0,1-36.1,2.4a12.4,12.4,0,0,1-5.431-1.089A15.567,15.567,0,0,0-48.138,0a15.56,15.56,0,0,0-6.6,1.315A12.4,12.4,0,0,1-60.166,2.4,12.371,12.371,0,0,1-65.59,1.315,15.562,15.562,0,0,0-72.19,0a15.558,15.558,0,0,0-6.6,1.315A12.371,12.371,0,0,1-84.214,2.4a12.371,12.371,0,0,1-5.424-1.089A15.554,15.554,0,0,0-96.238,0a15.533,15.533,0,0,0-6.6,1.315A12.372,12.372,0,0,1-108.257,2.4a12.389,12.389,0,0,1-5.427-1.089A15.556,15.556,0,0,0-120.285,0a1.583,1.583,0,0,0-1.583,1.583,1.582,1.582,0,0,0,1.583,1.582,12.386,12.386,0,0,1,5.427,1.089,15.541,15.541,0,0,0,6.6,1.316,15.534,15.534,0,0,0,6.6-1.316,12.361,12.361,0,0,1,5.42-1.089,12.367,12.367,0,0,1,5.424,1.089,15.543,15.543,0,0,0,6.6,1.316,15.54,15.54,0,0,0,6.6-1.316A12.371,12.371,0,0,1-72.19,3.165a12.371,12.371,0,0,1,5.424,1.089,15.536,15.536,0,0,0,6.6,1.316,15.534,15.534,0,0,0,6.6-1.316,12.4,12.4,0,0,1,5.427-1.089,12.4,12.4,0,0,1,5.429,1.089A15.551,15.551,0,0,0-36.1,5.57a15.541,15.541,0,0,0,6.6-1.316,12.392,12.392,0,0,1,5.429-1.089,12.4,12.4,0,0,1,5.431,1.089,15.563,15.563,0,0,0,6.6,1.316A15.561,15.561,0,0,0-5.432,4.254,12.411,12.411,0,0,1,0,3.165,1.581,1.581,0,0,0,1.583,1.583,1.582,1.582,0,0,0,0,0" transform="translate(1377.99 4095.489)" fill="#d53216"/><path d="M0,0A15.579,15.579,0,0,0-6.606,1.315,12.411,12.411,0,0,1-12.038,2.4a12.4,12.4,0,0,1-5.43-1.089A15.579,15.579,0,0,0-24.074,0a15.567,15.567,0,0,0-6.6,1.315A12.4,12.4,0,0,1-36.1,2.4a12.4,12.4,0,0,1-5.431-1.089A15.567,15.567,0,0,0-48.138,0a15.56,15.56,0,0,0-6.6,1.315A12.4,12.4,0,0,1-60.166,2.4,12.371,12.371,0,0,1-65.59,1.315,15.562,15.562,0,0,0-72.19,0a15.558,15.558,0,0,0-6.6,1.315A12.371,12.371,0,0,1-84.214,2.4a12.371,12.371,0,0,1-5.424-1.089A15.554,15.554,0,0,0-96.238,0a15.533,15.533,0,0,0-6.6,1.315A12.372,12.372,0,0,1-108.257,2.4a12.389,12.389,0,0,1-5.427-1.089A15.556,15.556,0,0,0-120.285,0a1.583,1.583,0,0,0-1.583,1.583,1.582,1.582,0,0,0,1.583,1.582,12.386,12.386,0,0,1,5.427,1.089,15.541,15.541,0,0,0,6.6,1.316,15.534,15.534,0,0,0,6.6-1.316,12.361,12.361,0,0,1,5.42-1.089,12.367,12.367,0,0,1,5.424,1.089,15.543,15.543,0,0,0,6.6,1.316,15.54,15.54,0,0,0,6.6-1.316A12.371,12.371,0,0,1-72.19,3.165a12.371,12.371,0,0,1,5.424,1.089,15.536,15.536,0,0,0,6.6,1.316,15.534,15.534,0,0,0,6.6-1.316,12.4,12.4,0,0,1,5.427-1.089,12.4,12.4,0,0,1,5.429,1.089A15.551,15.551,0,0,0-36.1,5.57a15.541,15.541,0,0,0,6.6-1.316,12.392,12.392,0,0,1,5.429-1.089,12.4,12.4,0,0,1,5.431,1.089,15.563,15.563,0,0,0,6.6,1.316A15.561,15.561,0,0,0-5.432,4.254,12.411,12.411,0,0,1,0,3.165,1.581,1.581,0,0,0,1.583,1.583,1.582,1.582,0,0,0,0,0Z" transform="translate(1377.99 4095.489)" fill="none" stroke="#ebecec" stroke-width="0.241"/><path d="M0,0A15.579,15.579,0,0,0-6.606,1.315,12.411,12.411,0,0,1-12.038,2.4a12.4,12.4,0,0,1-5.43-1.089A15.579,15.579,0,0,0-24.074,0a15.567,15.567,0,0,0-6.6,1.315A12.4,12.4,0,0,1-36.1,2.4a12.4,12.4,0,0,1-5.431-1.089A15.567,15.567,0,0,0-48.138,0a15.56,15.56,0,0,0-6.6,1.315A12.4,12.4,0,0,1-60.166,2.4,12.371,12.371,0,0,1-65.59,1.315,15.562,15.562,0,0,0-72.19,0a15.558,15.558,0,0,0-6.6,1.315A12.371,12.371,0,0,1-84.214,2.4a12.371,12.371,0,0,1-5.424-1.089A15.554,15.554,0,0,0-96.238,0a15.533,15.533,0,0,0-6.6,1.315A12.372,12.372,0,0,1-108.257,2.4a12.389,12.389,0,0,1-5.427-1.089A15.556,15.556,0,0,0-120.285,0a1.583,1.583,0,0,0-1.583,1.583,1.582,1.582,0,0,0,1.583,1.582,12.386,12.386,0,0,1,5.427,1.089,15.544,15.544,0,0,0,6.6,1.315,15.537,15.537,0,0,0,6.6-1.315,12.361,12.361,0,0,1,5.42-1.089,12.367,12.367,0,0,1,5.424,1.089,15.546,15.546,0,0,0,6.6,1.315,15.542,15.542,0,0,0,6.6-1.315A12.371,12.371,0,0,1-72.19,3.165a12.371,12.371,0,0,1,5.424,1.089,15.539,15.539,0,0,0,6.6,1.315,15.537,15.537,0,0,0,6.6-1.315,12.4,12.4,0,0,1,5.427-1.089,12.4,12.4,0,0,1,5.429,1.089,15.554,15.554,0,0,0,6.6,1.315,15.544,15.544,0,0,0,6.6-1.315,12.392,12.392,0,0,1,5.429-1.089,12.4,12.4,0,0,1,5.431,1.089,15.565,15.565,0,0,0,6.6,1.315A15.563,15.563,0,0,0-5.432,4.254,12.411,12.411,0,0,1,0,3.165,1.581,1.581,0,0,0,1.583,1.583,1.582,1.582,0,0,0,0,0" transform="translate(1377.99 4104.985)" fill="#d53216"/><path d="M0,0A15.579,15.579,0,0,0-6.606,1.315,12.411,12.411,0,0,1-12.038,2.4a12.4,12.4,0,0,1-5.43-1.089A15.579,15.579,0,0,0-24.074,0a15.567,15.567,0,0,0-6.6,1.315A12.4,12.4,0,0,1-36.1,2.4a12.4,12.4,0,0,1-5.431-1.089A15.567,15.567,0,0,0-48.138,0a15.56,15.56,0,0,0-6.6,1.315A12.4,12.4,0,0,1-60.166,2.4,12.371,12.371,0,0,1-65.59,1.315,15.562,15.562,0,0,0-72.19,0a15.558,15.558,0,0,0-6.6,1.315A12.371,12.371,0,0,1-84.214,2.4a12.371,12.371,0,0,1-5.424-1.089A15.554,15.554,0,0,0-96.238,0a15.533,15.533,0,0,0-6.6,1.315A12.372,12.372,0,0,1-108.257,2.4a12.389,12.389,0,0,1-5.427-1.089A15.556,15.556,0,0,0-120.285,0a1.583,1.583,0,0,0-1.583,1.583,1.582,1.582,0,0,0,1.583,1.582,12.386,12.386,0,0,1,5.427,1.089,15.544,15.544,0,0,0,6.6,1.315,15.537,15.537,0,0,0,6.6-1.315,12.361,12.361,0,0,1,5.42-1.089,12.367,12.367,0,0,1,5.424,1.089,15.546,15.546,0,0,0,6.6,1.315,15.542,15.542,0,0,0,6.6-1.315A12.371,12.371,0,0,1-72.19,3.165a12.371,12.371,0,0,1,5.424,1.089,15.539,15.539,0,0,0,6.6,1.315,15.537,15.537,0,0,0,6.6-1.315,12.4,12.4,0,0,1,5.427-1.089,12.4,12.4,0,0,1,5.429,1.089,15.554,15.554,0,0,0,6.6,1.315,15.544,15.544,0,0,0,6.6-1.315,12.392,12.392,0,0,1,5.429-1.089,12.4,12.4,0,0,1,5.431,1.089,15.565,15.565,0,0,0,6.6,1.315A15.563,15.563,0,0,0-5.432,4.254,12.411,12.411,0,0,1,0,3.165,1.581,1.581,0,0,0,1.583,1.583,1.582,1.582,0,0,0,0,0Z" transform="translate(1377.99 4104.985)" fill="none" stroke="#ebecec" stroke-width="0.241"/><path d="M0,0H38.5a1.571,1.571,0,0,0,.611-.122,9.7,9.7,0,0,0,8.145-9.556,9.677,9.677,0,0,0-5.438-8.7v-.1A14.324,14.324,0,0,0,27.512-32.778a14.238,14.238,0,0,0-12.347,7.089,8.334,8.334,0,0,0-4.308-1.188A8.421,8.421,0,0,0,2.55-19.765a10,10,0,0,0-2.8-.4A10.038,10.038,0,0,0-10.275-10.14,10.346,10.346,0,0,0,0,0M-.247-17a6.831,6.831,0,0,1,3.566,1.009,1.584,1.584,0,0,0,1.712-.038A1.583,1.583,0,0,0,5.706-17.6a5.134,5.134,0,0,1-.092-.865,5.247,5.247,0,0,1,5.242-5.243,5.21,5.21,0,0,1,3.74,1.576,1.587,1.587,0,0,0,1.437.443,1.573,1.573,0,0,0,1.158-.957,11.1,11.1,0,0,1,10.321-6.961A11.154,11.154,0,0,1,38.654-18.469c0,.333-.02.66-.05.988A1.58,1.58,0,0,0,39.67-15.84a6.509,6.509,0,0,1,4.421,6.163,6.523,6.523,0,0,1-6.516,6.513H0A7.138,7.138,0,0,1-7.109-10.14,6.868,6.868,0,0,1-.247-17" transform="translate(1263.887 4005.426)" fill="#ed3d1b"/><path d="M0,0H38.5a1.571,1.571,0,0,0,.611-.122,9.7,9.7,0,0,0,8.145-9.556,9.677,9.677,0,0,0-5.438-8.7v-.1A14.324,14.324,0,0,0,27.512-32.778a14.238,14.238,0,0,0-12.347,7.089,8.334,8.334,0,0,0-4.308-1.188A8.421,8.421,0,0,0,2.55-19.765a10,10,0,0,0-2.8-.4A10.038,10.038,0,0,0-10.275-10.14,10.346,10.346,0,0,0,0,0ZM-.247-17a6.831,6.831,0,0,1,3.566,1.009,1.584,1.584,0,0,0,1.712-.038A1.583,1.583,0,0,0,5.706-17.6a5.134,5.134,0,0,1-.092-.865,5.247,5.247,0,0,1,5.242-5.243,5.21,5.21,0,0,1,3.74,1.576,1.587,1.587,0,0,0,1.437.443,1.573,1.573,0,0,0,1.158-.957,11.1,11.1,0,0,1,10.321-6.961A11.154,11.154,0,0,1,38.654-18.469c0,.333-.02.66-.05.988A1.58,1.58,0,0,0,39.67-15.84a6.509,6.509,0,0,1,4.421,6.163,6.523,6.523,0,0,1-6.516,6.513H0A7.138,7.138,0,0,1-7.109-10.14,6.868,6.868,0,0,1-.247-17Z" transform="translate(1263.887 4005.426)" fill="#d53216" stroke="#ebecec" stroke-width="0.241"/><path d="M0,0A6.722,6.722,0,0,1,9.936,3.787a1.583,1.583,0,1,0,3.028-.922A9.884,9.884,0,0,0-1.644-2.7,1.582,1.582,0,0,0-2.173-.529,1.578,1.578,0,0,0,0,0" transform="translate(1287.149 3984.008)" fill="#ed3d1b"/><path d="M0,0A6.722,6.722,0,0,1,9.936,3.787a1.583,1.583,0,1,0,3.028-.922A9.884,9.884,0,0,0-1.644-2.7,1.582,1.582,0,0,0-2.173-.529,1.578,1.578,0,0,0,0,0Z" transform="translate(1287.149 3984.008)" fill="#d53216" stroke="#ebecec" stroke-width="0.241"/><path d="M0,0H38.5a1.571,1.571,0,0,0,.611-.122,9.7,9.7,0,0,0,8.144-9.556,9.674,9.674,0,0,0-5.438-8.694v-.1A14.324,14.324,0,0,0,27.512-32.778a14.239,14.239,0,0,0-12.348,7.089,8.332,8.332,0,0,0-4.308-1.188A8.419,8.419,0,0,0,2.55-19.765a10,10,0,0,0-2.8-.4A10.039,10.039,0,0,0-10.276-10.142,10.346,10.346,0,0,0,0,0M-.248-17a6.845,6.845,0,0,1,3.567,1.009A1.578,1.578,0,0,0,5.03-16.03,1.587,1.587,0,0,0,5.706-17.6a5.134,5.134,0,0,1-.091-.865,5.248,5.248,0,0,1,5.241-5.243,5.209,5.209,0,0,1,3.74,1.578,1.593,1.593,0,0,0,1.435.443,1.584,1.584,0,0,0,1.159-.957,11.094,11.094,0,0,1,10.32-6.961A11.155,11.155,0,0,1,38.654-18.467c0,.332-.024.66-.052.988a1.581,1.581,0,0,0,1.068,1.641,6.511,6.511,0,0,1,4.422,6.163,6.522,6.522,0,0,1-6.516,6.513H0a7.139,7.139,0,0,1-7.109-6.977A6.867,6.867,0,0,1-.248-17" transform="translate(1332.189 4005.426)" fill="#ed3d1b"/><path d="M0,0H38.5a1.571,1.571,0,0,0,.611-.122,9.7,9.7,0,0,0,8.144-9.556,9.674,9.674,0,0,0-5.438-8.694v-.1A14.324,14.324,0,0,0,27.512-32.778a14.239,14.239,0,0,0-12.348,7.089,8.332,8.332,0,0,0-4.308-1.188A8.419,8.419,0,0,0,2.55-19.765a10,10,0,0,0-2.8-.4A10.039,10.039,0,0,0-10.276-10.142,10.346,10.346,0,0,0,0,0ZM-.248-17a6.845,6.845,0,0,1,3.567,1.009A1.578,1.578,0,0,0,5.03-16.03,1.587,1.587,0,0,0,5.706-17.6a5.134,5.134,0,0,1-.091-.865,5.248,5.248,0,0,1,5.241-5.243,5.209,5.209,0,0,1,3.74,1.578,1.593,1.593,0,0,0,1.435.443,1.584,1.584,0,0,0,1.159-.957,11.094,11.094,0,0,1,10.32-6.961A11.155,11.155,0,0,1,38.654-18.467c0,.332-.024.66-.052.988a1.581,1.581,0,0,0,1.068,1.641,6.511,6.511,0,0,1,4.422,6.163,6.522,6.522,0,0,1-6.516,6.513H0a7.139,7.139,0,0,1-7.109-6.977A6.867,6.867,0,0,1-.248-17Z" transform="translate(1332.189 4005.426)" fill="#d53216" stroke="#ebecec" stroke-width="0.241"/><path d="M0,0A6.719,6.719,0,0,1,9.933,3.786a1.586,1.586,0,0,0,1.515,1.122,1.534,1.534,0,0,0,.46-.07,1.584,1.584,0,0,0,1.054-1.975A9.886,9.886,0,0,0-1.647-2.7,1.582,1.582,0,0,0-2.176-.53,1.582,1.582,0,0,0,0,0" transform="translate(1355.452 3984.008)" fill="#ed3d1b"/><path d="M0,0A6.719,6.719,0,0,1,9.933,3.786a1.586,1.586,0,0,0,1.515,1.122,1.534,1.534,0,0,0,.46-.07,1.584,1.584,0,0,0,1.054-1.975A9.886,9.886,0,0,0-1.647-2.7,1.582,1.582,0,0,0-2.176-.53,1.582,1.582,0,0,0,0,0Z" transform="translate(1355.452 3984.008)" fill="#d53216" stroke="#ebecec" stroke-width="0.241"/><path d="M0,0A1.583,1.583,0,0,0-1.583,1.583V7.122A1.583,1.583,0,0,0,0,8.7,1.583,1.583,0,0,0,1.583,7.122V1.583A1.583,1.583,0,0,0,0,0" transform="translate(1262.321 4013.205)" fill="#d53216"/><path d="M0,0A1.583,1.583,0,0,0-1.583,1.583V7.122A1.583,1.583,0,0,0,0,8.7,1.583,1.583,0,0,0,1.583,7.122V1.583A1.583,1.583,0,0,0,0,0Z" transform="translate(1262.321 4013.205)" fill="none" stroke="#ebecec" stroke-width="0.241"/><path d="M0,0V-8.309A1.583,1.583,0,0,0-1.583-9.892,1.583,1.583,0,0,0-3.165-8.309V0A1.583,1.583,0,0,0-1.583,1.583,1.583,1.583,0,0,0,0,0" transform="translate(1302.284 4025.866)" fill="#d53216"/><path d="M0,0V-8.309A1.583,1.583,0,0,0-1.583-9.892,1.583,1.583,0,0,0-3.165-8.309V0A1.583,1.583,0,0,0-1.583,1.583,1.583,1.583,0,0,0,0,0Z" transform="translate(1302.284 4025.866)" fill="none" stroke="#ebecec" stroke-width="0.241"/><path d="M0,0A1.583,1.583,0,0,0,1.583-1.583V-8.507A1.583,1.583,0,0,0,0-10.09,1.583,1.583,0,0,0-1.583-8.507v6.924A1.583,1.583,0,0,0,0,0" transform="translate(1282.377 4030.219)" fill="#d53216"/><path d="M0,0A1.583,1.583,0,0,0,1.583-1.583V-8.507A1.583,1.583,0,0,0,0-10.09,1.583,1.583,0,0,0-1.583-8.507v6.924A1.583,1.583,0,0,0,0,0Z" transform="translate(1282.377 4030.219)" fill="none" stroke="#ebecec" stroke-width="0.241"/><path d="M0,0A1.583,1.583,0,0,0,1.583,1.583,1.582,1.582,0,0,0,3.165,0V-6.682A1.583,1.583,0,0,0,1.583-8.265,1.583,1.583,0,0,0,0-6.682Z" transform="translate(1260.739 4046.397)" fill="#d53216"/><path d="M0,0A1.583,1.583,0,0,0,1.583,1.583,1.582,1.582,0,0,0,3.165,0V-6.682A1.583,1.583,0,0,0,1.583-8.265,1.583,1.583,0,0,0,0-6.682Z" transform="translate(1260.739 4046.397)" fill="none" stroke="#ebecec" stroke-width="0.241"/><path d="M0,0V4.694a1.583,1.583,0,1,0,3.165,0V0A1.583,1.583,0,0,0,1.583-1.583,1.583,1.583,0,0,0,0,0" transform="translate(1278.148 4043.056)" fill="#d53216"/><path d="M0,0V4.694a1.583,1.583,0,1,0,3.165,0V0A1.583,1.583,0,0,0,1.583-1.583,1.583,1.583,0,0,0,0,0Z" transform="translate(1278.148 4043.056)" fill="none" stroke="#ebecec" stroke-width="0.241"/><path d="M0,0V5.474a1.583,1.583,0,1,0,3.165,0V0A1.582,1.582,0,0,0,1.583-1.583,1.583,1.583,0,0,0,0,0" transform="translate(1263.113 4060.686)" fill="#ed3d1b"/><path d="M0,0V5.474a1.583,1.583,0,1,0,3.165,0V0A1.582,1.582,0,0,0,1.583-1.583,1.583,1.583,0,0,0,0,0Z" transform="translate(1263.113 4060.686)" fill="#d53216" stroke="#ebecec" stroke-width="0.241"/><path d="M0,0V-7.913A1.583,1.583,0,0,0-1.583-9.5,1.582,1.582,0,0,0-3.165-7.913V0A1.582,1.582,0,0,0-1.583,1.583,1.583,1.583,0,0,0,0,0" transform="translate(1329.5 4020.327)" fill="#d53216"/><path d="M0,0V-7.913A1.583,1.583,0,0,0-1.583-9.5,1.582,1.582,0,0,0-3.165-7.913V0A1.582,1.582,0,0,0-1.583,1.583,1.583,1.583,0,0,0,0,0Z" transform="translate(1329.5 4020.327)" fill="none" stroke="#ebecec" stroke-width="0.241"/><path d="M0,0A1.583,1.583,0,0,0-1.583,1.583V9.2A1.583,1.583,0,0,0,0,10.783,1.583,1.583,0,0,0,1.583,9.2V1.583A1.583,1.583,0,0,0,0,0" transform="translate(1370.34 4015.974)" fill="#d53216"/><path d="M0,0A1.583,1.583,0,0,0-1.583,1.583V9.2A1.583,1.583,0,0,0,0,10.783,1.583,1.583,0,0,0,1.583,9.2V1.583A1.583,1.583,0,0,0,0,0Z" transform="translate(1370.34 4015.974)" fill="none" stroke="#ebecec" stroke-width="0.241"/><path d="M0,0A1.582,1.582,0,0,0,1.583,1.583,1.581,1.581,0,0,0,3.165,0V-9.422a1.582,1.582,0,0,0-1.582-1.583A1.583,1.583,0,0,0,0-9.422Z" transform="translate(1368.758 4052.478)" fill="#ed3d1b"/><path d="M0,0A1.582,1.582,0,0,0,1.583,1.583,1.581,1.581,0,0,0,3.165,0V-9.422a1.582,1.582,0,0,0-1.582-1.583A1.583,1.583,0,0,0,0-9.422Z" transform="translate(1368.758 4052.478)" fill="#d53216" stroke="#ebecec" stroke-width="0.241"/><path d="M0,0A1.583,1.583,0,0,0,1.583-1.583V-7.122A1.583,1.583,0,0,0,0-8.7,1.583,1.583,0,0,0-1.583-7.122v5.539A1.583,1.583,0,0,0,0,0" transform="translate(1353.854 4027.449)" fill="#ed3d1b"/><path d="M0,0A1.583,1.583,0,0,0,1.583-1.583V-7.122A1.583,1.583,0,0,0,0-8.7,1.583,1.583,0,0,0-1.583-7.122v5.539A1.583,1.583,0,0,0,0,0Z" transform="translate(1353.854 4027.449)" fill="#d53216" stroke="#ebecec" stroke-width="0.241"/><path d="M0,0V-7.073A1.582,1.582,0,0,0-1.583-8.656,1.582,1.582,0,0,0-3.165-7.073V0A1.582,1.582,0,0,0-1.583,1.583,1.582,1.582,0,0,0,0,0" transform="translate(1336.151 4041.248)" fill="#d53216"/><path d="M0,0V-7.073A1.582,1.582,0,0,0-1.583-8.656,1.582,1.582,0,0,0-3.165-7.073V0A1.582,1.582,0,0,0-1.583,1.583,1.582,1.582,0,0,0,0,0Z" transform="translate(1336.151 4041.248)" fill="none" stroke="#ebecec" stroke-width="0.241"/><path d="M0,0A1.583,1.583,0,0,0,1.583-1.583V-7.122A1.583,1.583,0,0,0,0-8.7,1.583,1.583,0,0,0-1.583-7.122v5.539A1.583,1.583,0,0,0,0,0" transform="translate(1315.331 4035.758)" fill="#ed3d1b"/><path d="M0,0A1.583,1.583,0,0,0,1.583-1.583V-7.122A1.583,1.583,0,0,0,0-8.7,1.583,1.583,0,0,0-1.583-7.122v5.539A1.583,1.583,0,0,0,0,0Z" transform="translate(1315.331 4035.758)" fill="#d53216" stroke="#ebecec" stroke-width="0.241"/><path d="M0,0V-4.481A1.581,1.581,0,0,0-1.583-6.063,1.58,1.58,0,0,0-3.165-4.481V0A1.581,1.581,0,0,0-1.583,1.583,1.581,1.581,0,0,0,0,0" transform="translate(1359.262 4063.422)" fill="#d53216"/><path d="M0,0V-4.481A1.581,1.581,0,0,0-1.583-6.063,1.58,1.58,0,0,0-3.165-4.481V0A1.581,1.581,0,0,0-1.583,1.583,1.581,1.581,0,0,0,0,0Z" transform="translate(1359.262 4063.422)" fill="none" stroke="#ebecec" stroke-width="0.241"/><path d="M0,0A1.582,1.582,0,0,0,1.583,1.583,1.581,1.581,0,0,0,3.165,0V-5.688A1.582,1.582,0,0,0,1.583-7.271,1.583,1.583,0,0,0,0-5.688Z" transform="translate(1352.271 4045.403)" fill="#d53216"/><path d="M0,0A1.582,1.582,0,0,0,1.583,1.583,1.581,1.581,0,0,0,3.165,0V-5.688A1.582,1.582,0,0,0,1.583-7.271,1.583,1.583,0,0,0,0-5.688Z" transform="translate(1352.271 4045.403)" fill="none" stroke="#ebecec" stroke-width="0.241"/><path d="M0,0V4.583a1.583,1.583,0,1,0,3.165,0V0A1.581,1.581,0,0,0,1.583-1.583,1.582,1.582,0,0,0,0,0" transform="translate(1370.736 4068.599)" fill="#d53216"/><path d="M0,0V4.583a1.583,1.583,0,1,0,3.165,0V0A1.581,1.581,0,0,0,1.583-1.583,1.582,1.582,0,0,0,0,0Z" transform="translate(1370.736 4068.599)" fill="none" stroke="#ebecec" stroke-width="0.241"/></g></svg>