<svg xmlns="http://www.w3.org/2000/svg" width="212.25" height="212.25" viewBox="0 0 212.25 212.25"><g transform="translate(-1148.732 -6149.717)"><path d="M0,0A106.125,106.125,0,0,0,106.125-106.125,106.125,106.125,0,0,0,0-212.25,106.125,106.125,0,0,0-106.125-106.125,106.125,106.125,0,0,0,0,0" transform="translate(1254.857 6361.967)" fill="#ebecec"/><path d="M300.114,419.753v-7.266h-4.229v5.5l-3.61,3.633,2.99,3.009Z" transform="translate(957.925 5826.35)" fill="#49b6eb"/><path d="M300.114,419.753v-7.266h-4.229v5.5l-3.61,3.633,2.99,3.009Z" transform="translate(957.925 5826.35)" fill="none" stroke="#dfdfdf" stroke-miterlimit="10" stroke-width="0.75"/><path d="M355.092,482.718V474.2H342.4v8.513h-8.458V474.2H321.259v8.513H317.03V469.949h42.291v12.769Zm-4.229,0h-4.229v-4.256h4.229Zm-21.145,0h-4.229v-4.256h4.229Zm-80.352,0h-4.229v-4.256h4.229Zm21.145,0h-4.229v-4.256h4.229Zm-33.832-12.769h42.29v12.769H274.74V474.2H262.053v8.513H253.6V474.2H240.908v8.513h-4.229Zm5.286-25.539h37v4.257H238.793Zm37-36.179a2.123,2.123,0,0,1,2.115-2.128h9.331a14.9,14.9,0,0,0,0,25.538h-9.331a2.123,2.123,0,0,1-2.115-2.128Zm23.26-27.667h-8.458v-4.256h8.458ZM298,364.42l7.582,7.632H290.417Zm19.03,65.093a2.123,2.123,0,0,1-2.114,2.128h-9.331a14.906,14.906,0,0,0,0-25.538h9.331a2.123,2.123,0,0,1,2.114,2.128Zm-8.458,6.385H312.8v46.82h-4.229Zm-16.916,34.051h12.687v12.769H291.656Zm12.687-21.282H291.656V435.9h12.687Zm0,17.025H291.656V452.923h12.687ZM298,408.231a10.641,10.641,0,1,1-10.573,10.641A10.619,10.619,0,0,1,298,408.231m-10.573-6.385H283.2v-8.513h4.229Zm12.687-8.512h4.229v8.513h-4.229Zm-8.458,0h4.229v8.513h-4.229Zm16.916,0H312.8v8.513h-4.229Zm-4.971-8.513,5.286,4.256H287.112l5.286-4.256Zm-16.174,97.9H283.2V435.9h4.229Zm-38.061-17.026h-4.229v-4.256h4.229Zm12.687-8.512v8.512H253.6V457.18H240.908v8.512h-4.229V452.923h42.29v12.769H274.74V457.18Zm8.458,8.512h-4.229v-4.256h4.229Zm59.207,0h-4.229v-4.256h4.229ZM342.4,457.18v8.512h-8.458V457.18H321.259v8.512H317.03V452.923h42.291v12.769h-4.229V457.18Zm8.458,8.512h-4.229v-4.256h4.229Zm3.171-21.282,3.172,4.257H317.03V444.41Zm2.115-4.256H317.03v-4.648a6.373,6.373,0,0,0,4.229-5.993V408.231a6.373,6.373,0,0,0-4.229-5.993V390.184l-10.572-8.513v-5.363h4.229V371.17l-10.573-10.641v-5.5h-4.229v5.5L285.313,371.17v5.138h4.229v5.363l-10.573,8.513V402.24a6.373,6.373,0,0,0-4.229,5.993v21.282a6.373,6.373,0,0,0,4.229,5.993v4.646H239.851l-7.4,9.932v36.888h131.1V450.086Z" transform="translate(957.925 5826.35)" fill="#62c1ee"/><path d="M355.092,482.718V474.2H342.4v8.513h-8.458V474.2H321.259v8.513H317.03V469.949h42.291v12.769Zm-4.229,0h-4.229v-4.256h4.229Zm-21.145,0h-4.229v-4.256h4.229Zm-80.352,0h-4.229v-4.256h4.229Zm21.145,0h-4.229v-4.256h4.229Zm-33.832-12.769h42.29v12.769H274.74V474.2H262.053v8.513H253.6V474.2H240.908v8.513h-4.229Zm5.286-25.539h37v4.257H238.793Zm37-36.179a2.123,2.123,0,0,1,2.115-2.128h9.331a14.9,14.9,0,0,0,0,25.538h-9.331a2.123,2.123,0,0,1-2.115-2.128Zm23.26-27.667h-8.458v-4.256h8.458ZM298,364.42l7.582,7.632H290.417Zm19.03,65.093a2.123,2.123,0,0,1-2.114,2.128h-9.331a14.906,14.906,0,0,0,0-25.538h9.331a2.123,2.123,0,0,1,2.114,2.128Zm-8.458,6.385H312.8v46.82h-4.229Zm-16.916,34.051h12.687v12.769H291.656Zm12.687-21.282H291.656V435.9h12.687Zm0,17.025H291.656V452.923h12.687ZM298,408.231a10.641,10.641,0,1,1-10.573,10.641A10.619,10.619,0,0,1,298,408.231Zm-10.573-6.385H283.2v-8.513h4.229Zm12.687-8.512h4.229v8.513h-4.229Zm-8.458,0h4.229v8.513h-4.229Zm16.916,0H312.8v8.513h-4.229Zm-4.971-8.513,5.286,4.256H287.112l5.286-4.256Zm-16.174,97.9H283.2V435.9h4.229Zm-38.061-17.026h-4.229v-4.256h4.229Zm12.687-8.512v8.512H253.6V457.18H240.908v8.512h-4.229V452.923h42.29v12.769H274.74V457.18Zm8.458,8.512h-4.229v-4.256h4.229Zm59.207,0h-4.229v-4.256h4.229ZM342.4,457.18v8.512h-8.458V457.18H321.259v8.512H317.03V452.923h42.291v12.769h-4.229V457.18Zm8.458,8.512h-4.229v-4.256h4.229Zm3.171-21.282,3.172,4.257H317.03V444.41Zm2.115-4.256H317.03v-4.648a6.373,6.373,0,0,0,4.229-5.993V408.231a6.373,6.373,0,0,0-4.229-5.993V390.184l-10.572-8.513v-5.363h4.229V371.17l-10.573-10.641v-5.5h-4.229v5.5L285.313,371.17v5.138h4.229v5.363l-10.573,8.513V402.24a6.373,6.373,0,0,0-4.229,5.993v21.282a6.373,6.373,0,0,0,4.229,5.993v4.646H239.851l-7.4,9.932v36.888h131.1V450.086Z" transform="translate(957.925 5826.35)" fill="none" stroke="#dfdfdf" stroke-miterlimit="10" stroke-width="0.75"/><rect width="131.85" height="132.699" transform="translate(1190 6181)" fill="none"/><rect width="4.229" height="4.256" transform="translate(1253.81 6266.503)" fill="#49b6eb"/><rect width="4.229" height="4.256" transform="translate(1253.81 6266.503)" fill="none" stroke="#dfdfdf" stroke-miterlimit="10" stroke-width="0.75"/><rect width="4.229" height="4.256" transform="translate(1253.81 6283.529)" fill="#49b6eb"/><rect width="4.229" height="4.256" transform="translate(1253.81 6283.529)" fill="none" stroke="#dfdfdf" stroke-miterlimit="10" stroke-width="0.75"/><rect width="4.229" height="4.256" transform="translate(1253.81 6300.555)" fill="#49b6eb"/><rect width="4.229" height="4.256" transform="translate(1253.81 6300.555)" fill="none" stroke="#dfdfdf" stroke-miterlimit="10" stroke-width="0.75"/></g></svg>