<svg xmlns="http://www.w3.org/2000/svg" width="212.25" height="212.25" viewBox="0 0 212.25 212.25"><g transform="translate(-477.365 -3672.875)"><path d="M0,0A106.125,106.125,0,0,0,106.125-106.125,106.125,106.125,0,0,0,0-212.25,106.125,106.125,0,0,0-106.125-106.125,106.125,106.125,0,0,0,0,0" transform="translate(583.49 3885.125)" fill="#ebecec"/><path d="M0,0V49a1.689,1.689,0,0,0,1.724,1.65H25.291A1.688,1.688,0,0,0,27.015,49V0a1.688,1.688,0,0,0-1.724-1.65H1.724A1.688,1.688,0,0,0,0,0M3.449,1.65H23.567v45.7H3.449Z" transform="translate(519.551 3779.492)" fill="#f09300"/><path d="M0,0A1.688,1.688,0,0,0-1.724,1.65V72.79A1.688,1.688,0,0,0,0,74.44H23.565a1.688,1.688,0,0,0,1.724-1.65V1.65A1.688,1.688,0,0,0,23.565,0ZM21.84,71.14H1.724V3.3H21.84Z" transform="translate(552.889 3755.702)" fill="#f09300"/><path d="M0,0A1.688,1.688,0,0,0-1.724,1.65V61.968A1.689,1.689,0,0,0,0,63.618H23.565a1.689,1.689,0,0,0,1.724-1.65V1.65A1.688,1.688,0,0,0,23.565,0ZM21.84,60.317H1.724V3.3H21.84Z" transform="translate(584.5 3766.524)" fill="#f09300"/><path d="M0,0V-84.83a1.69,1.69,0,0,0-1.724-1.651H-25.291a1.689,1.689,0,0,0-1.724,1.651V0a1.688,1.688,0,0,0,1.724,1.65H-1.724A1.689,1.689,0,0,0,0,0M-3.449-1.65H-23.567V-83.18H-3.449Z" transform="translate(641.404 3828.492)" fill="#f09300"/><path d="M0,0A5.072,5.072,0,0,0-5.173,4.951,5.072,5.072,0,0,0,0,9.9,5.072,5.072,0,0,0,5.173,4.951a4.74,4.74,0,0,0-.657-2.367L27.658-11.461a5.267,5.267,0,0,0,3.237,1.12,5.19,5.19,0,0,0,4.6-2.727L57.35-4.631a5.07,5.07,0,0,0,5.157,4.8,5.071,5.071,0,0,0,5.173-4.95A4.735,4.735,0,0,0,66.991-7.2L91.25-32.787a5.316,5.316,0,0,0,2.87.835A5.072,5.072,0,0,0,99.293-36.9a5.072,5.072,0,0,0-5.173-4.951A5.072,5.072,0,0,0,88.947-36.9a4.706,4.706,0,0,0,.232,1.388L64.395-9.377a5.336,5.336,0,0,0-1.888-.353,5.232,5.232,0,0,0-4.088,1.952L35.9-16.468A5.129,5.129,0,0,0,30.9-20.242a5.072,5.072,0,0,0-5.173,4.951,4.772,4.772,0,0,0,.114,1.026L1.8.325A5.346,5.346,0,0,0,0,0M0,6.6a1.691,1.691,0,0,1-1.724-1.65A1.691,1.691,0,0,1,0,3.3a1.691,1.691,0,0,1,1.724,1.65A1.691,1.691,0,0,1,0,6.6M94.12-38.553a1.69,1.69,0,0,1,1.724,1.65,1.691,1.691,0,0,1-1.724,1.65,1.691,1.691,0,0,1-1.725-1.65,1.69,1.69,0,0,1,1.725-1.65M62.507-6.428a1.692,1.692,0,0,1,1.725,1.651,1.692,1.692,0,0,1-1.725,1.65,1.691,1.691,0,0,1-1.724-1.65,1.69,1.69,0,0,1,1.724-1.651M30.9-16.942a1.691,1.691,0,0,1,1.724,1.651,1.691,1.691,0,0,1-1.724,1.65,1.691,1.691,0,0,1-1.724-1.65A1.69,1.69,0,0,1,30.9-16.942" transform="translate(533.775 3745.852)" fill="#f09300"/></g></svg>