<svg xmlns="http://www.w3.org/2000/svg" width="212.25" height="212.25" viewBox="0 0 212.25 212.25"><g transform="translate(-508.739 -3015.376)"><path d="M0,0A106.125,106.125,0,0,0,106.125-106.125,106.125,106.125,0,0,0,0-212.25,106.125,106.125,0,0,0-106.125-106.125,106.125,106.125,0,0,0,0,0" transform="translate(614.864 3227.626)" fill="#ebecec"/><path d="M0,0,5.724-5.724a3.235,3.235,0,0,0,0-4.576,3.235,3.235,0,0,0-4.576,0L-4.608-4.608-18.336-18.336a3.234,3.234,0,0,0-4.574,0l0,0A25.032,25.032,0,0,0-30.27-.226a25.874,25.874,0,0,0,5.547,15.733l-2.765,2.781-8-8a3.234,3.234,0,0,0-4.574,0s0,0,0,0l-8,8L-51.484,14.8l5.724-5.659a3.234,3.234,0,0,0,0-4.574l0,0L-67.492-17.156a3.233,3.233,0,0,0-4.573,0l0,0L-88.076-1.148a3.234,3.234,0,0,0,0,4.574l0,0,21.781,21.716a3.234,3.234,0,0,0,4.573,0l0,0,5.724-5.724,3.363,3.46L-62.916,33.164a3.232,3.232,0,0,0,0,4.573l0,0,2.28,2.28L-74.493,53.861a3.233,3.233,0,0,0,0,4.573l0,0,11.432,11.432a3.232,3.232,0,0,0,4.573,0l0,0,13.857-13.841,2.28,2.28a3.233,3.233,0,0,0,4.573,0l0,0,10.284-10.284,3.428,3.428-5.692,5.708a3.233,3.233,0,0,0,0,4.573l0,0L-8.085,83.468a3.235,3.235,0,0,0,4.574,0l0,0L12.5,67.46a3.234,3.234,0,0,0,0-4.574l0,0L-9.184,41.152a3.234,3.234,0,0,0-4.574,0l0,0L-19.4,46.876l-3.428-3.428,8-8a3.234,3.234,0,0,0,0-4.574l0,0L-22.9,22.88l2.749-2.749A25.866,25.866,0,0,0-4.414,25.677h.258A25.028,25.028,0,0,0,13.631,18.32a3.233,3.233,0,0,0,0-4.573l0,0ZM-69.772-10.3l17.14,17.156-3.428,3.428L-73.2-6.872Zm5.724,28.588L-81.2,1.132-77.776-2.3-60.636,14.8Zm3.234,44.725-6.856-6.856L-56.109,44.6l6.856,6.856Zm54.977,13.6L-22.9,59.456l3.492-3.428L-2.312,73.167Zm-5.627-28.588L5.692,65.164,2.264,68.592l-17.156-17.14Zm-28.588,3.428-2.28-2.28-2.377-2.377L-56.028,35.476-37.756,17.14l16.008,16.008Zm35.7-32.339a19.727,19.727,0,0,1-19.4-19.4A18.675,18.675,0,0,1-20.374-11.27l27,27.084A18.922,18.922,0,0,1-4.35,19.177Z" transform="translate(678.237 3074.632)" fill="#d53216"/><path d="M0,0,5.724-5.724a3.235,3.235,0,0,0,0-4.576,3.235,3.235,0,0,0-4.576,0L-4.608-4.608-18.336-18.336a3.234,3.234,0,0,0-4.574,0l0,0A25.032,25.032,0,0,0-30.27-.226a25.874,25.874,0,0,0,5.547,15.733l-2.765,2.781-8-8a3.234,3.234,0,0,0-4.574,0s0,0,0,0l-8,8L-51.484,14.8l5.724-5.659a3.234,3.234,0,0,0,0-4.574l0,0L-67.492-17.156a3.233,3.233,0,0,0-4.573,0l0,0L-88.076-1.148a3.234,3.234,0,0,0,0,4.574l0,0,21.781,21.716a3.234,3.234,0,0,0,4.573,0l0,0,5.724-5.724,3.363,3.46L-62.916,33.164a3.232,3.232,0,0,0,0,4.573l0,0,2.28,2.28L-74.493,53.861a3.233,3.233,0,0,0,0,4.573l0,0,11.432,11.432a3.232,3.232,0,0,0,4.573,0l0,0,13.857-13.841,2.28,2.28a3.233,3.233,0,0,0,4.573,0l0,0,10.284-10.284,3.428,3.428-5.692,5.708a3.233,3.233,0,0,0,0,4.573l0,0L-8.085,83.468a3.235,3.235,0,0,0,4.574,0l0,0L12.5,67.46a3.234,3.234,0,0,0,0-4.574l0,0L-9.184,41.152a3.234,3.234,0,0,0-4.574,0l0,0L-19.4,46.876l-3.428-3.428,8-8a3.234,3.234,0,0,0,0-4.574l0,0L-22.9,22.88l2.749-2.749A25.866,25.866,0,0,0-4.414,25.677h.258A25.028,25.028,0,0,0,13.631,18.32a3.233,3.233,0,0,0,0-4.573l0,0ZM-69.772-10.3l17.14,17.156-3.428,3.428L-73.2-6.872Zm5.724,28.588L-81.2,1.132-77.776-2.3-60.636,14.8Zm3.234,44.725-6.856-6.856L-56.109,44.6l6.856,6.856Zm54.977,13.6L-22.9,59.456l3.492-3.428L-2.312,73.167Zm-5.627-28.588L5.692,65.164,2.264,68.592l-17.156-17.14Zm-28.588,3.428-2.28-2.28-2.377-2.377L-56.028,35.476-37.756,17.14l16.008,16.008Zm35.7-32.339a19.727,19.727,0,0,1-19.4-19.4A18.675,18.675,0,0,1-20.374-11.27l27,27.084A18.922,18.922,0,0,1-4.35,19.177Z" transform="translate(678.237 3074.632)" fill="none" stroke="#ebecec" stroke-width="2.8"/><path d="M0,0A5.106,5.106,0,0,0-5.085,5.086V58.847A5.106,5.106,0,0,0,0,63.932H31.966a5.107,5.107,0,0,0,5.086-5.085V5.086A5.107,5.107,0,0,0,31.966,0ZM0,2.906H31.966a2.144,2.144,0,0,1,2.18,2.18V7.265H-2.179V5.086A2.143,2.143,0,0,1,0,2.906m-2.179,7.265H34.146V50.855H-2.179ZM21.069,21.8a1.567,1.567,0,0,0,1.453,1.453h3.746L15.189,34.327l-4.064-3.473a1.5,1.5,0,0,0-1.93.022L1.2,38.142A1.512,1.512,0,0,0,1.1,40.2a1.512,1.512,0,0,0,2.06.1l7.038-6.4L14.3,37.415a1.506,1.506,0,0,0,1.975-.068L28.334,25.292V29.06a1.453,1.453,0,1,0,2.906,0V21.8a1.51,1.51,0,0,0-1.453-1.453H22.522A1.5,1.5,0,0,0,21.069,21.8M-2.179,53.761H34.146v5.086a2.143,2.143,0,0,1-2.18,2.179H0a2.142,2.142,0,0,1-2.179-2.179Zm18.162,1.453a2.18,2.18,0,1,0,2.18,2.18,2.179,2.179,0,0,0-2.18-2.18" transform="translate(553.948 3113.607)" fill="#d53216"/></g></svg>