<svg xmlns="http://www.w3.org/2000/svg" width="212.25" height="212.25" viewBox="0 0 212.25 212.25"><g transform="translate(-531 -3651.25)"><path d="M0,0A106.125,106.125,0,0,0,106.125-106.125,106.125,106.125,0,0,0,0-212.25,106.125,106.125,0,0,0-106.125-106.125,106.125,106.125,0,0,0,0,0" transform="translate(637.125 3863.5)" fill="#ebecec"/><path d="M0,0H-7.123A16.642,16.642,0,0,0-18.6-15.8a26.015,26.015,0,0,0,6.31-12.889A11.85,11.85,0,0,0-2.525-42.3a11.85,11.85,0,0,0-9.346-9.692v-.237c0-.043-.021-.079-.024-.121s.017-.076,0-.117l-2.374-23.742a2.373,2.373,0,0,0-2.35-2.136H-59.355a2.374,2.374,0,0,0-2.374,2.136L-64.1-52.47c0,.041.014.079.012.117s-.012.078-.012.121v.237a11.849,11.849,0,0,0-9.261,13.966A11.847,11.847,0,0,0-63.68-28.69,26.018,26.018,0,0,0-57.37-15.8,16.643,16.643,0,0,0-68.852,0h-7.122A7.123,7.123,0,0,0-83.1,7.123V61.729A2.374,2.374,0,0,0-80.722,64.1H4.748a2.374,2.374,0,0,0,2.375-2.374V7.123A7.123,7.123,0,0,0,0,0M-11.871-47.078a7.135,7.135,0,0,1,4.748,6.717,7.135,7.135,0,0,1-4.748,6.716ZM-64.1-33.645a7.137,7.137,0,0,1-4.749-6.716A7.137,7.137,0,0,1-64.1-47.078ZM-11.871,0h-3.915l-10.33-8.265v-1.74a26.087,26.087,0,0,0,3.01-1.8A11.858,11.858,0,0,1-11.871,0M-57.206-73.6h38.45l1.9,18.994H-59.1Zm-2.149,40.361V-49.858h42.736v16.619A21.368,21.368,0,0,1-37.987-11.871,21.368,21.368,0,0,1-59.355-33.239m15.964,56.981,5.4-9.459,5.4,9.459Zm4.421,4.748-6.14,6.14V28.49ZM-45.11-.983V-8.134a25.58,25.58,0,0,0,14.246,0V-.983L-37.987,6.14Zm-7.758-10.824a25.946,25.946,0,0,0,3.01,1.8v1.74L-60.188,0H-64.1A11.858,11.858,0,0,1-52.868-11.807M-66.477,21.368A2.374,2.374,0,0,1-64.1,23.742a2.374,2.374,0,0,1-2.374,2.374,2.374,2.374,0,0,1-2.375-2.374,2.374,2.374,0,0,1,2.375-2.374m16.619,37.987H-64.1V37.987a2.374,2.374,0,0,0-2.374-2.374,2.374,2.374,0,0,0-2.375,2.374V59.355h-9.5V7.123a2.374,2.374,0,0,1,2.374-2.375h7.122V17.056a7.122,7.122,0,0,0-4.34,9.09,7.121,7.121,0,0,0,9.089,4.34A7.122,7.122,0,0,0-59.762,21.4,7.124,7.124,0,0,0-64.1,17.056V4.748h3.281l10.964,21.928ZM-56.366,3.041l6.508-5.223V0a2.377,2.377,0,0,0,.7,1.679l8.214,8.214-6.4,11.192Zm25.5,56.314H-34.63l3.766-3.766Zm0-10.48-10.48,10.48H-45.11V55.589l14.246-14.245Zm0-14.245L-45.11,48.875V41.344L-32.256,28.49h1.392ZM-35.026,9.893l8.214-8.214A2.377,2.377,0,0,0-26.116,0V-2.182L-19.6,3.041-28.63,21.085Zm37.4,49.462h-9.5V37.987A2.374,2.374,0,0,0-9.5,35.613a2.374,2.374,0,0,0-2.374,2.374V59.355H-26.116V26.676L-15.152,4.748h3.281V8.514L-18.3,14.941a2.379,2.379,0,0,0-.7,1.678V30.864a2.375,2.375,0,0,0,2.375,2.375h2.374a2.374,2.374,0,0,0,2.374-2.375,2.374,2.374,0,0,0-2.374-2.374V17.6L-9.5,12.854-4.748,17.6V28.49a2.374,2.374,0,0,0-2.375,2.374,2.375,2.375,0,0,0,2.375,2.375h2.374A2.374,2.374,0,0,0,0,30.864V16.619a2.37,2.37,0,0,0-.7-1.678L-7.123,8.514V4.748H0A2.374,2.374,0,0,1,2.374,7.123V59.355Z" transform="translate(675.112 3764.498)" fill="#7771b1"/></g></svg>