<svg xmlns="http://www.w3.org/2000/svg" width="1890.001" height="532.961" viewBox="0 0 1890.001 532.961"><path d="M-2845,783.954V663.693c8.1-12.466,16.7-24.614,25.558-36.1,8.723-11.321,17.941-22.325,27.4-32.705,9.313-10.224,19.122-20.134,29.155-29.454,9.874-9.173,20.247-18.038,30.831-26.349,10.416-8.178,21.327-16.049,32.43-23.393,10.915-7.221,22.337-14.147,33.947-20.585,11.406-6.323,23.312-12.354,35.386-17.924,11.848-5.466,24.211-10.65,36.744-15.411,12.279-4.663,25.072-9.051,38.022-13.044,12.676-3.907,25.871-7.55,39.22-10.826,13.03-3.2,26.6-6.143,40.339-8.755,13.386-2.544,27.308-4.843,41.378-6.833,26.936-3.809,55.719-6.665,85.549-8.487,27.884-1.7,57.741-2.567,88.743-2.567,28.96,0,58.9.714,91.531,2.182,29.05,1.306,59.617,3.187,93.45,5.751,62.806,4.761,127.516,11.214,190.1,17.454l.032,0,.028,0,.031,0,.146.015.043,0c62.524,6.233,127.176,12.678,189.928,17.435,33.8,2.563,64.37,4.445,93.469,5.754,32.643,1.469,62.584,2.183,91.535,2.183,81.747,0,152.236-5.838,215.494-17.846,17.186-3.261,34.08-7.042,50.212-11.236,16.605-4.318,32.9-9.2,48.436-14.523,15.953-5.462,31.6-11.55,46.505-18.1,15.277-6.71,30.221-14.1,44.419-21.958,14.53-8.043,28.72-16.827,42.177-26.107a491.828,491.828,0,0,0,39.779-30.543,494.889,494.889,0,0,0,37.228-35.268c10.63-11.17,20.98-23.105,30.762-35.472v14.353c-9.195,9.944-18.791,19.613-28.523,28.74a564.1,564.1,0,0,1-43.608,36.92c-14.753,11.256-30.342,21.978-46.336,31.868-15.606,9.651-32.051,18.792-48.876,27.169-16.385,8.158-33.62,15.835-51.226,22.82-17.1,6.784-35.063,13.116-53.386,18.821-17.747,5.526-36.372,10.631-55.358,15.173-18.32,4.384-37.544,8.38-57.138,11.877-18.81,3.358-38.569,6.362-58.729,8.931-19.266,2.454-39.5,4.585-60.133,6.335-19.611,1.663-40.25,3.04-61.344,4.091-38.5,1.919-79.577,2.851-125.569,2.851-71.978,0-146.406-2.331-218.383-4.585h-.047c-71.957-2.254-146.364-4.585-218.381-4.585-41.947,0-79.624.772-115.182,2.36-19.389.866-38.37,2-56.416,3.355-18.97,1.428-37.622,3.165-55.437,5.163-18.576,2.084-36.85,4.521-54.313,7.243-18.139,2.829-35.986,6.056-53.043,9.592-17.655,3.661-35.025,7.769-51.629,12.211-17.133,4.584-33.978,9.664-50.068,15.1-143.778,48.57-250.7,132.686-326.874,257.156Z" transform="translate(2845.001 -250.992)" opacity="0.2"/></svg>