<svg xmlns="http://www.w3.org/2000/svg" width="212.25" height="212.25" viewBox="0 0 212.25 212.25"><g transform="translate(-400.365 -3616.622)"><path d="M0,0A106.125,106.125,0,0,0,106.125-106.125,106.125,106.125,0,0,0,0-212.25,106.125,106.125,0,0,0-106.125-106.125,106.125,106.125,0,0,0,0,0" transform="translate(506.49 3828.872)" fill="#ebecec"/><path d="M0,0H-10.421V5.21H0A2.605,2.605,0,0,1,2.605,7.815V67.734H-112.022V7.815a2.605,2.605,0,0,1,2.605-2.605H-99V0h-10.421a7.815,7.815,0,0,0-7.815,7.815V80.76a7.816,7.816,0,0,0,7.815,7.816h36.472v7.815a4.908,4.908,0,0,1-4.584,5.212,4.817,4.817,0,0,1-.647,0h-5.189v5.211h57.313V101.6h-5.21a4.9,4.9,0,0,1-5.21-4.575,4.806,4.806,0,0,1,0-.635V88.576H0A7.816,7.816,0,0,0,7.816,80.76V7.815A7.815,7.815,0,0,0,0,0M-40.414,101.6H-69a10.632,10.632,0,0,0,1.269-5.21V88.576h26.051v7.815a10.632,10.632,0,0,0,1.269,5.21M0,83.365H-109.417a2.6,2.6,0,0,1-2.605-2.6V72.945H2.605V80.76A2.6,2.6,0,0,1,0,83.365" transform="translate(560.598 3677.858)" fill="#323e5f"/><path d="M0,0H-10.421V5.21H0A2.605,2.605,0,0,1,2.605,7.815V67.734H-112.022V7.815a2.605,2.605,0,0,1,2.605-2.605H-99V0h-10.421a7.815,7.815,0,0,0-7.815,7.815V80.76a7.816,7.816,0,0,0,7.815,7.816h36.472v7.815a4.908,4.908,0,0,1-4.584,5.212,4.817,4.817,0,0,1-.647,0h-5.189v5.211h57.313V101.6h-5.21a4.9,4.9,0,0,1-5.21-4.575,4.806,4.806,0,0,1,0-.635V88.576H0A7.816,7.816,0,0,0,7.816,80.76V7.815A7.815,7.815,0,0,0,0,0ZM-40.414,101.6H-69a10.632,10.632,0,0,0,1.269-5.21V88.576h26.051v7.815A10.632,10.632,0,0,0-40.414,101.6ZM0,83.365H-109.417a2.6,2.6,0,0,1-2.605-2.6V72.945H2.605V80.76A2.6,2.6,0,0,1,0,83.365Z" transform="translate(560.598 3677.858)" fill="none" stroke="#ebecec" stroke-width="0.75"/><path d="M0,0,11.447,4.9V31.473a7.815,7.815,0,0,0,7.816,7.815H55.735a7.815,7.815,0,0,0,7.816-7.815V4.9l7.815-3.35V13.711a7.816,7.816,0,1,0,5.21,0V-2.394A2.6,2.6,0,0,0,75-4.788L38.525-20.419a2.605,2.605,0,0,0-2.053,0L0-4.788A2.605,2.605,0,0,0-1.367-1.367,2.6,2.6,0,0,0,0,0M58.34,31.473a2.6,2.6,0,0,1-2.6,2.6H19.263a2.605,2.605,0,0,1-2.606-2.6V7.138l19.815,8.493a2.605,2.605,0,0,0,2.053,0L58.34,7.138Zm15.631-7.816a2.6,2.6,0,1,1,2.6-2.6,2.6,2.6,0,0,1-2.6,2.6M37.5-15.191l29.858,12.8L37.5,10.4,7.641-2.394Z" transform="translate(468.39 3680.252)" fill="#323e5f"/><path d="M0,0,11.447,4.9V31.473a7.815,7.815,0,0,0,7.816,7.815H55.735a7.815,7.815,0,0,0,7.816-7.815V4.9l7.815-3.35V13.711a7.816,7.816,0,1,0,5.21,0V-2.394A2.6,2.6,0,0,0,75-4.788L38.525-20.419a2.605,2.605,0,0,0-2.053,0L0-4.788A2.605,2.605,0,0,0-1.367-1.367,2.6,2.6,0,0,0,0,0ZM58.34,31.473a2.6,2.6,0,0,1-2.6,2.6H19.263a2.605,2.605,0,0,1-2.606-2.6V7.138l19.815,8.493a2.605,2.605,0,0,0,2.053,0L58.34,7.138Zm15.631-7.816a2.6,2.6,0,1,1,2.6-2.6A2.6,2.6,0,0,1,73.971,23.657ZM37.5-15.191l29.858,12.8L37.5,10.4,7.641-2.394Z" transform="translate(468.39 3680.252)" fill="none" stroke="#ebecec" stroke-width="0.75"/></g></svg>