<svg xmlns="http://www.w3.org/2000/svg" width="212.25" height="212.25" viewBox="0 0 212.25 212.25"><g transform="translate(-407.443 -2890.559)"><path d="M0,0A106.125,106.125,0,0,0,106.125-106.125,106.125,106.125,0,0,0,0-212.25,106.125,106.125,0,0,0-106.125-106.125,106.125,106.125,0,0,0,0,0" transform="translate(513.568 3102.809)" fill="#ebecec"/><path d="M0,0C13.738,0,24.914-11.89,24.914-26.506S13.738-53.013,0-53.013c-9.976,0-18.577,6.284-22.553,15.316l-6.671-2.619a11.4,11.4,0,0,0,.158-1.653c0-6.089-4.657-11.044-10.381-11.044s-10.381,4.955-10.381,11.044,4.657,11.045,10.381,11.045a10.244,10.244,0,0,0,8.795-5.244l6.66,2.615a27.883,27.883,0,0,0-.922,7.047,27.912,27.912,0,0,0,1.262,8.281L-46.485-7.93c-4.182-8.409-12.48-14.159-22.028-14.159a23.467,23.467,0,0,0-8.782,1.732L-83.038-33.2a11.238,11.238,0,0,0,4.144-8.772c0-6.089-4.657-11.044-10.381-11.044s-10.38,4.955-10.38,11.044S-95-30.924-89.275-30.924a9.66,9.66,0,0,0,2.5-.36l5.736,12.827A26.849,26.849,0,0,0-93.427,4.418,26.98,26.98,0,0,0-82.374,26.429l-3.8,7.263a9.717,9.717,0,0,0-3.1-.559c-5.724,0-10.38,4.955-10.38,11.044S-95,55.222-89.275,55.222s10.381-4.955,10.381-11.045a11.271,11.271,0,0,0-3.648-8.336l3.806-7.278a23.469,23.469,0,0,0,10.223,2.361,23.82,23.82,0,0,0,15.139-5.5l8.172,9.564a27.312,27.312,0,0,0-6.7,18.029,28.421,28.421,0,0,0,.309,3.965L-61.209,59.4a10.351,10.351,0,0,0-9.38-6.392c-5.724,0-10.381,4.954-10.381,11.044S-76.313,75.1-70.589,75.1s10.381-4.955,10.381-11.045c0-.121-.032-.236-.034-.358l9.6-2.42c3.272,10.578,12.632,18.24,23.656,18.24,13.738,0,24.914-11.89,24.914-26.506A27.659,27.659,0,0,0-5.047,40.48L7.148,32.044a10.054,10.054,0,0,0,7.385,3.3c5.724,0,10.381-4.955,10.381-11.044S20.257,13.253,14.533,13.253,4.152,18.208,4.152,24.3a11.567,11.567,0,0,0,.741,4.035L-7.331,36.789a25.375,25.375,0,0,0-9.278-7.842L-6.475-.941A23.392,23.392,0,0,0,0,0M-39.447-35.342a6.444,6.444,0,0,1-6.228-6.627A6.444,6.444,0,0,1-39.447-48.6a6.444,6.444,0,0,1,6.228,6.626,6.444,6.444,0,0,1-6.228,6.627M-95.5-41.969A6.444,6.444,0,0,1-89.275-48.6a6.445,6.445,0,0,1,6.229,6.626,6.445,6.445,0,0,1-6.229,6.627A6.444,6.444,0,0,1-95.5-41.969M-89.275,50.8A6.444,6.444,0,0,1-95.5,44.177a6.444,6.444,0,0,1,6.228-6.626,6.445,6.445,0,0,1,6.229,6.626A6.445,6.445,0,0,1-89.275,50.8m18.686,19.88a6.445,6.445,0,0,1-6.229-6.627,6.445,6.445,0,0,1,6.229-6.626,6.444,6.444,0,0,1,6.228,6.626,6.444,6.444,0,0,1-6.228,6.627M14.533,17.671A6.445,6.445,0,0,1,20.762,24.3a6.445,6.445,0,0,1-6.229,6.626A6.444,6.444,0,0,1,8.305,24.3a6.444,6.444,0,0,1,6.228-6.627M-12.227-8.694A10.608,10.608,0,0,1-2.076-17.671H2.076a10.606,10.606,0,0,1,10.15,8.977A19.815,19.815,0,0,1,0-4.418,19.82,19.82,0,0,1-12.227-8.694M0-22.089a6.445,6.445,0,0,1-6.229-6.626A6.445,6.445,0,0,1,0-35.342a6.445,6.445,0,0,1,6.229,6.627A6.445,6.445,0,0,1,0-22.089M0-48.6c11.448,0,20.762,9.909,20.762,22.089a22.8,22.8,0,0,1-5.091,14.443A15.235,15.235,0,0,0,7.4-21a11.361,11.361,0,0,0,2.977-7.718C10.381-34.805,5.724-39.76,0-39.76s-10.381,4.955-10.381,11.045A11.361,11.361,0,0,0-7.4-21a15.235,15.235,0,0,0-8.267,8.934,22.8,22.8,0,0,1-5.091-14.443C-20.762-38.686-11.448-48.6,0-48.6M-89.275,4.418c0-12.18,9.314-22.089,20.762-22.089S-47.752-7.762-47.752,4.418A22.8,22.8,0,0,1-52.871,18.9a15.235,15.235,0,0,0-8.278-8.97,11.369,11.369,0,0,0,2.975-7.718c0-6.09-4.657-11.044-10.381-11.044s-10.38,4.954-10.38,11.044a11.356,11.356,0,0,0,2.977,7.718,15.223,15.223,0,0,0-8.257,8.9,22.81,22.81,0,0,1-5.06-14.408m14.492-2.209a6.444,6.444,0,0,1,6.228-6.627,6.445,6.445,0,0,1,6.229,6.627,6.446,6.446,0,0,1-6.229,6.627,6.445,6.445,0,0,1-6.228-6.627M-80.775,22.2a10.6,10.6,0,0,1,10.144-8.948h4.153a10.607,10.607,0,0,1,10.154,9.006,19.805,19.805,0,0,1-12.189,4.247A19.811,19.811,0,0,1-80.775,22.2m41.523,48.6a10.6,10.6,0,0,1,10.144-8.949h4.153A10.606,10.606,0,0,1-14.8,70.854,19.806,19.806,0,0,1-26.99,75.1,19.819,19.819,0,0,1-39.252,70.8m12.221-13.366A6.445,6.445,0,0,1-33.26,50.8a6.445,6.445,0,0,1,6.229-6.627A6.446,6.446,0,0,1-20.8,50.8a6.446,6.446,0,0,1-6.228,6.627m20.8-4.418a22.8,22.8,0,0,1-5.119,14.479,15.232,15.232,0,0,0-8.278-8.97A11.369,11.369,0,0,0-16.651,50.8c0-6.09-4.657-11.044-10.38-11.044S-37.412,44.714-37.412,50.8a11.356,11.356,0,0,0,2.977,7.718,15.223,15.223,0,0,0-8.257,8.9,22.808,22.808,0,0,1-5.06-14.408c0-12.18,9.314-22.089,20.762-22.089S-6.229,40.833-6.229,53.013M-20.515,27.447a23.392,23.392,0,0,0-6.475-.941,23.821,23.821,0,0,0-15.139,5.505L-50.3,22.447A27.312,27.312,0,0,0-43.6,4.418a27.87,27.87,0,0,0-1.263-8.281l22.834-10.3A25.774,25.774,0,0,0-10.379-2.441Z" transform="translate(550.939 2983.43)" fill="#379f44"/><path d="M0,0C13.738,0,24.914-11.89,24.914-26.506S13.738-53.013,0-53.013c-9.976,0-18.577,6.284-22.553,15.316l-6.671-2.619a11.4,11.4,0,0,0,.158-1.653c0-6.089-4.657-11.044-10.381-11.044s-10.381,4.955-10.381,11.044,4.657,11.045,10.381,11.045a10.244,10.244,0,0,0,8.795-5.244l6.66,2.615a27.883,27.883,0,0,0-.922,7.047,27.912,27.912,0,0,0,1.262,8.281L-46.485-7.93c-4.182-8.409-12.48-14.159-22.028-14.159a23.467,23.467,0,0,0-8.782,1.732L-83.038-33.2a11.238,11.238,0,0,0,4.144-8.772c0-6.089-4.657-11.044-10.381-11.044s-10.38,4.955-10.38,11.044S-95-30.924-89.275-30.924a9.66,9.66,0,0,0,2.5-.36l5.736,12.827A26.849,26.849,0,0,0-93.427,4.418,26.98,26.98,0,0,0-82.374,26.429l-3.8,7.263a9.717,9.717,0,0,0-3.1-.559c-5.724,0-10.38,4.955-10.38,11.044S-95,55.222-89.275,55.222s10.381-4.955,10.381-11.045a11.271,11.271,0,0,0-3.648-8.336l3.806-7.278a23.469,23.469,0,0,0,10.223,2.361,23.82,23.82,0,0,0,15.139-5.5l8.172,9.564a27.312,27.312,0,0,0-6.7,18.029,28.421,28.421,0,0,0,.309,3.965L-61.209,59.4a10.351,10.351,0,0,0-9.38-6.392c-5.724,0-10.381,4.954-10.381,11.044S-76.313,75.1-70.589,75.1s10.381-4.955,10.381-11.045c0-.121-.032-.236-.034-.358l9.6-2.42c3.272,10.578,12.632,18.24,23.656,18.24,13.738,0,24.914-11.89,24.914-26.506A27.659,27.659,0,0,0-5.047,40.48L7.148,32.044a10.054,10.054,0,0,0,7.385,3.3c5.724,0,10.381-4.955,10.381-11.044S20.257,13.253,14.533,13.253,4.152,18.208,4.152,24.3a11.567,11.567,0,0,0,.741,4.035L-7.331,36.789a25.375,25.375,0,0,0-9.278-7.842L-6.475-.941A23.392,23.392,0,0,0,0,0ZM-39.447-35.342a6.444,6.444,0,0,1-6.228-6.627A6.444,6.444,0,0,1-39.447-48.6a6.444,6.444,0,0,1,6.228,6.626A6.444,6.444,0,0,1-39.447-35.342ZM-95.5-41.969A6.444,6.444,0,0,1-89.275-48.6a6.445,6.445,0,0,1,6.229,6.626,6.445,6.445,0,0,1-6.229,6.627A6.444,6.444,0,0,1-95.5-41.969ZM-89.275,50.8A6.444,6.444,0,0,1-95.5,44.177a6.444,6.444,0,0,1,6.228-6.626,6.445,6.445,0,0,1,6.229,6.626A6.445,6.445,0,0,1-89.275,50.8Zm18.686,19.88a6.445,6.445,0,0,1-6.229-6.627,6.445,6.445,0,0,1,6.229-6.626,6.444,6.444,0,0,1,6.228,6.626A6.444,6.444,0,0,1-70.589,70.684ZM14.533,17.671A6.445,6.445,0,0,1,20.762,24.3a6.445,6.445,0,0,1-6.229,6.626A6.444,6.444,0,0,1,8.305,24.3,6.444,6.444,0,0,1,14.533,17.671ZM-12.227-8.694A10.608,10.608,0,0,1-2.076-17.671H2.076a10.606,10.606,0,0,1,10.15,8.977A19.815,19.815,0,0,1,0-4.418,19.82,19.82,0,0,1-12.227-8.694ZM0-22.089a6.445,6.445,0,0,1-6.229-6.626A6.445,6.445,0,0,1,0-35.342a6.445,6.445,0,0,1,6.229,6.627A6.445,6.445,0,0,1,0-22.089ZM0-48.6c11.448,0,20.762,9.909,20.762,22.089a22.8,22.8,0,0,1-5.091,14.443A15.235,15.235,0,0,0,7.4-21a11.361,11.361,0,0,0,2.977-7.718C10.381-34.805,5.724-39.76,0-39.76s-10.381,4.955-10.381,11.045A11.361,11.361,0,0,0-7.4-21a15.235,15.235,0,0,0-8.267,8.934,22.8,22.8,0,0,1-5.091-14.443C-20.762-38.686-11.448-48.6,0-48.6ZM-89.275,4.418c0-12.18,9.314-22.089,20.762-22.089S-47.752-7.762-47.752,4.418A22.8,22.8,0,0,1-52.871,18.9a15.235,15.235,0,0,0-8.278-8.97,11.369,11.369,0,0,0,2.975-7.718c0-6.09-4.657-11.044-10.381-11.044s-10.38,4.954-10.38,11.044a11.356,11.356,0,0,0,2.977,7.718,15.223,15.223,0,0,0-8.257,8.9A22.81,22.81,0,0,1-89.275,4.418Zm14.492-2.209a6.444,6.444,0,0,1,6.228-6.627,6.445,6.445,0,0,1,6.229,6.627,6.446,6.446,0,0,1-6.229,6.627A6.445,6.445,0,0,1-74.783,2.209ZM-80.775,22.2a10.6,10.6,0,0,1,10.144-8.948h4.153a10.607,10.607,0,0,1,10.154,9.006,19.805,19.805,0,0,1-12.189,4.247A19.811,19.811,0,0,1-80.775,22.2Zm41.523,48.6a10.6,10.6,0,0,1,10.144-8.949h4.153A10.606,10.606,0,0,1-14.8,70.854,19.806,19.806,0,0,1-26.99,75.1,19.819,19.819,0,0,1-39.252,70.8Zm12.221-13.366A6.445,6.445,0,0,1-33.26,50.8a6.445,6.445,0,0,1,6.229-6.627A6.446,6.446,0,0,1-20.8,50.8,6.446,6.446,0,0,1-27.031,57.431Zm20.8-4.418a22.8,22.8,0,0,1-5.119,14.479,15.232,15.232,0,0,0-8.278-8.97A11.369,11.369,0,0,0-16.651,50.8c0-6.09-4.657-11.044-10.38-11.044S-37.412,44.714-37.412,50.8a11.356,11.356,0,0,0,2.977,7.718,15.223,15.223,0,0,0-8.257,8.9,22.808,22.808,0,0,1-5.06-14.408c0-12.18,9.314-22.089,20.762-22.089S-6.229,40.833-6.229,53.013ZM-20.515,27.447a23.392,23.392,0,0,0-6.475-.941,23.821,23.821,0,0,0-15.139,5.505L-50.3,22.447A27.312,27.312,0,0,0-43.6,4.418a27.87,27.87,0,0,0-1.263-8.281l22.834-10.3A25.774,25.774,0,0,0-10.379-2.441Z" transform="translate(550.939 2983.43)" fill="none" stroke="#ebecec" stroke-width="0.75"/></g></svg>