<svg xmlns="http://www.w3.org/2000/svg" width="212.25" height="212.25" viewBox="0 0 212.25 212.25"><g transform="translate(-537 -4199.25)"><path d="M0,0A106.125,106.125,0,0,0,106.125-106.125,106.125,106.125,0,0,0,0-212.25,106.125,106.125,0,0,0-106.125-106.125,106.125,106.125,0,0,0,0,0" transform="translate(643.125 4411.5)" fill="#ebecec"/><path d="M0,0-6.3-.7l-1.048-4.34a12.682,12.682,0,0,0,4.99-6.352H.478a6.323,6.323,0,0,0,6.314-6.315A6.323,6.323,0,0,0,.478-24.023h-2.1A12.642,12.642,0,0,0-14.256-36.652,12.642,12.642,0,0,0-26.885-24.023h-2.1a6.276,6.276,0,0,0-4.21,1.642,6.376,6.376,0,0,0-.665-.549,16.342,16.342,0,0,0,2.77-9.15v-4.572A4.214,4.214,0,0,0-35.3-40.861H-59.167A14.031,14.031,0,0,0-71.651-33.2a16.733,16.733,0,0,0-13.993-7.663h-8.775a16.747,16.747,0,0,0-14.287,8.091,16.666,16.666,0,0,0-2.373,8.569V2.562a14.7,14.7,0,0,0-6.314,12.081v32.9a10.585,10.585,0,0,0,7.057,9.929l-.926,11.119h6.5V89.639H4.688V57.854a10.544,10.544,0,0,0,8.419-10.312v-32.9A14.717,14.717,0,0,0,0,0M.478-19.813a2.107,2.107,0,0,1,2.1,2.1A2.107,2.107,0,0,1,.478-15.6h-2.1v-4.21ZM8.9,14.643V28.6H4.688V20.676L6.571,16.91,2.806,15.026.478,19.682V39.123H-24.78V14.643A14.687,14.687,0,0,0-28.954,4.38c.3-.061.6-.162.907-.2l5.736-.637a8.4,8.4,0,0,0,8.055,6.108A8.4,8.4,0,0,0-6.2,3.547l5.736.637A10.512,10.512,0,0,1,8.9,14.643m-63.145,46.4V85.429H-66.877V47.542h29.468V85.429H-50.038V59.3l-4.827-4.827-2.976,2.976ZM-79.506,85.429h-8.419V68.59h8.419Zm0-16.839,4.21,0h4.21V85.429H-75.3ZM-43.4,3.625l-2.845,4.742-2.594-2.593,3.541-2.36ZM-28.99,14.643V43.332H-33.2V20.676l1.884-3.766-3.765-1.884-2.328,4.656v23.65H-50.038V10.526l4.628,4.627L-38.8,4.134l.448.05a10.512,10.512,0,0,1,9.36,10.459m-30-11.231,3.54,2.359-2.593,2.594-2.846-4.743ZM-48.23.307l-3.913,2.608L-56.056.307l.914-3.656a12.562,12.562,0,0,0,3,.375,12.575,12.575,0,0,0,3-.375Zm-3.913-7.491A8.428,8.428,0,0,1-60.562-15.6v-8.42h16.838v8.42a8.428,8.428,0,0,1-8.419,8.419m-6.912,2.137L-60.144-.7-66.4,0a14.893,14.893,0,0,0-2.583.526V-11.785a6.145,6.145,0,0,0,2.105.392h2.842a12.66,12.66,0,0,0,4.98,6.346M-64.772-15.6h-2.1a2.107,2.107,0,0,1-2.105-2.105,2.107,2.107,0,0,1,2.105-2.1h2.1ZM-65.934,4.184l.448-.05,6.612,11.019,4.626-4.627V43.332H-66.877V19.682L-69.2,15.029l-3.765,1.883,1.881,3.764V43.332H-75.3V14.643A10.512,10.512,0,0,1-65.934,4.184M-75.3,47.542h4.209v8.032A6.306,6.306,0,0,1-75.3,49.647Zm42.1,0h4.21a6.3,6.3,0,0,1-4.21,5.927ZM-10.053,1.469a4.216,4.216,0,0,1-4.2,3.976,4.216,4.216,0,0,1-4.2-3.976l1.206-4.818a12.539,12.539,0,0,0,3,.375,12.569,12.569,0,0,0,3-.375ZM-22.675-24.023a8.428,8.428,0,0,1,8.419-8.419,8.428,8.428,0,0,1,8.419,8.419v8.42a8.428,8.428,0,0,1-8.419,8.419A8.428,8.428,0,0,1-22.675-15.6Zm1.507,18.976L-22.257-.7-28.51,0A14.684,14.684,0,0,0-33.2,1.341,14.7,14.7,0,0,0-37.887,0l-6.256-.7-1.088-4.35a12.688,12.688,0,0,0,4.98-6.346h2.842A6.272,6.272,0,0,0-33.2-13.035a6.266,6.266,0,0,0,4.21,1.642h2.842a12.66,12.66,0,0,0,4.98,6.346M-39.514-19.813h2.1a2.107,2.107,0,0,1,2.1,2.1,2.107,2.107,0,0,1-2.1,2.105h-2.1Zm10.524,0h2.1v4.21h-2.1a2.107,2.107,0,0,1-2.1-2.105,2.107,2.107,0,0,1,2.1-2.1M-59.167-36.652H-35.3v4.572a12.174,12.174,0,0,1-3.034,8.057h-1.176a4.214,4.214,0,0,0-4.21-4.209H-60.562a4.214,4.214,0,0,0-4.21,4.209h-2.1a6.312,6.312,0,0,0-1.606.232,9.861,9.861,0,0,1-.5-3.046,9.827,9.827,0,0,1,9.815-9.815m-47.7,12.451a12.474,12.474,0,0,1,1.774-6.405,12.52,12.52,0,0,1,10.678-6.046h8.775a12.515,12.515,0,0,1,10.676,6.043A12.483,12.483,0,0,1-73.192-24.2V.537A14.525,14.525,0,0,0-75.774,0L-82.03-.695l-1.088-4.35A12.626,12.626,0,0,0-77.4-15.6v-4.21a8.428,8.428,0,0,0-8.42-8.419H-94.24a8.428,8.428,0,0,0-8.419,8.419v4.21A12.619,12.619,0,0,0-96.943-5.047L-98.031-.7l-6.255.7a15.065,15.065,0,0,0-2.583.528ZM-90.03-7.184A8.428,8.428,0,0,1-98.45-15.6v-4.21a4.215,4.215,0,0,1,4.21-4.21h8.419a4.215,4.215,0,0,1,4.21,4.21v4.21A8.428,8.428,0,0,1-90.03-7.184M-85.894,1.2l-1.213,4.247h-5.845L-94.164,1.2l1.136-4.547a12.548,12.548,0,0,0,3,.375,12.575,12.575,0,0,0,3-.375Zm-2.417,8.457-1.06,3.713a.717.717,0,0,1-1.32,0L-91.75,9.655Zm-15.51-5.471,5.942-.66,3.142,11a4.912,4.912,0,0,0,4.707,3.553,4.91,4.91,0,0,0,4.706-3.553l3.143-11,5.942.66c.311.034.6.135.907.2a14.69,14.69,0,0,0-4.174,10.263v24.48h-25.258V24.618a25.2,25.2,0,0,1,1.3-7.986l.7-2.1-3.992-1.333-.7,2.1a29.4,29.4,0,0,0-1.514,9.318l0,3.98h-4.211V14.643a10.512,10.512,0,0,1,9.362-10.459m-9.362,43.358V32.808h4.213l.005,8.245-1,11.987a6.354,6.354,0,0,1-3.218-5.5m8.244-4.21h25.433v6.315a10.542,10.542,0,0,0,8.419,10.311v4.423h-35.6Zm4.385,25.258h8.419V85.429h-8.419Zm88.4,16.839V59.3l-4.827-4.827-2.976,2.976,3.593,3.593V85.429H-33.2V57.854a10.543,10.543,0,0,0,8.42-10.312v-4.21H.478v42.1ZM4.688,53.469V32.808H8.9V47.542a6.305,6.305,0,0,1-4.209,5.927" transform="translate(695.268 4280.361)" fill="#7771b1"/></g></svg>