<svg xmlns="http://www.w3.org/2000/svg" width="212.25" height="212.25" viewBox="0 0 212.25 212.25"><g transform="translate(-541.592 -3648.589)"><path d="M0,0A106.125,106.125,0,0,0,106.125-106.125,106.125,106.125,0,0,0,0-212.25,106.125,106.125,0,0,0-106.125-106.125,106.125,106.125,0,0,0,0,0" transform="translate(647.717 3860.839)" fill="#ebecec"/><path d="M0,0H-82.557a1.652,1.652,0,0,0-1.652,1.651V125.487a1.652,1.652,0,0,0,1.652,1.651h66.045a1.641,1.641,0,0,0,.636-.128,1.66,1.66,0,0,0,.532-.355h0l16.511-16.51h0a1.653,1.653,0,0,0,.356-.531,1.645,1.645,0,0,0,.128-.636V1.651A1.651,1.651,0,0,0,0,0M-14.86,121.5V110.627H-3.986Zm13.209-14.176H-16.512a1.651,1.651,0,0,0-1.651,1.651v14.86H-80.906V3.3H-1.651Z" transform="translate(688.996 3691.145)" fill="#d53216"/><path d="M0,0A14.051,14.051,0,0,0,14.035-14.035,14.051,14.051,0,0,0,0-28.07,14.051,14.051,0,0,0-14.035-14.035,14.051,14.051,0,0,0,0,0M1.651-24.627v-.14l.166.166a10.743,10.743,0,0,1,8.75,8.749l.166.166H1.651Zm-3.3,0v10.592A1.651,1.651,0,0,0,0-12.384H10.592A10.74,10.74,0,0,1,0-3.3,10.745,10.745,0,0,1-10.732-14.035,10.74,10.74,0,0,1-1.651-24.627" transform="translate(627.078 3735.726)" fill="#d53216"/><path d="M0,0H33.023a1.651,1.651,0,0,0,1.651-1.651A1.651,1.651,0,0,0,33.023-3.3H0A1.651,1.651,0,0,0-1.651-1.651,1.651,1.651,0,0,0,0,0" transform="translate(647.717 3710.958)" fill="#d53216"/><path d="M0,0H33.023a1.651,1.651,0,0,0,1.651-1.651A1.651,1.651,0,0,0,33.023-3.3H0A1.651,1.651,0,0,0-1.651-1.651,1.651,1.651,0,0,0,0,0" transform="translate(647.717 3719.214)" fill="#d53216"/><path d="M0,0H33.023a1.651,1.651,0,0,0,1.651-1.651A1.651,1.651,0,0,0,33.023-3.3H0A1.651,1.651,0,0,0-1.651-1.651,1.651,1.651,0,0,0,0,0" transform="translate(647.717 3727.47)" fill="#d53216"/><path d="M0,0H33.023a1.651,1.651,0,0,0,1.651-1.651A1.651,1.651,0,0,0,33.023-3.3H0A1.651,1.651,0,0,0-1.651-1.651,1.651,1.651,0,0,0,0,0" transform="translate(647.717 3735.726)" fill="#d53216"/><path d="M0,0A1.649,1.649,0,0,0,1.167.484c.039,0,.079,0,.117,0a1.647,1.647,0,0,0,1.2-.657L14.872-16.688A1.652,1.652,0,0,0,14.542-19a1.653,1.653,0,0,0-2.312.33L10.6-16.5.988-3.681-5.421-10.09l-.5-.5a1.649,1.649,0,0,0-2.335,0,1.65,1.65,0,0,0,0,2.334Z" transform="translate(621.783 3768.265)" fill="#d53216"/><path d="M0,0H-41.279A1.651,1.651,0,0,0-42.93,1.651,1.651,1.651,0,0,0-41.279,3.3H0A1.651,1.651,0,0,0,0,0" transform="translate(680.74 3757.19)" fill="#d53216"/><path d="M0,0H-41.279A1.651,1.651,0,0,0-42.93,1.651,1.651,1.651,0,0,0-41.279,3.3H0A1.651,1.651,0,0,0,0,0" transform="translate(680.74 3765.446)" fill="#d53216"/><path d="M0,0A1.649,1.649,0,0,0,1.167.484c.039,0,.079,0,.117,0a1.651,1.651,0,0,0,1.2-.657L14.872-16.688A1.652,1.652,0,0,0,14.542-19a1.653,1.653,0,0,0-2.312.33L10.6-16.5.988-3.681-5.421-10.09l-.5-.5a1.651,1.651,0,0,0-2.335,0,1.651,1.651,0,0,0,0,2.335Z" transform="translate(621.783 3793.032)" fill="#d53216"/><path d="M0,0H-41.279A1.651,1.651,0,0,0-42.93,1.651,1.651,1.651,0,0,0-41.279,3.3H0A1.651,1.651,0,0,0,0,0" transform="translate(680.74 3781.958)" fill="#d53216"/><path d="M0,0H-41.279A1.651,1.651,0,0,0-42.93,1.651,1.651,1.651,0,0,0-41.279,3.3H0A1.651,1.651,0,0,0,0,0" transform="translate(680.74 3790.213)" fill="#d53216"/></g></svg>