<svg xmlns="http://www.w3.org/2000/svg" width="212.25" height="212.25" viewBox="0 0 212.25 212.25"><g transform="translate(-1162.822 -4365.261)"><path d="M0,0A106.125,106.125,0,0,0,106.125-106.125,106.125,106.125,0,0,0,0-212.25,106.125,106.125,0,0,0-106.125-106.125,106.125,106.125,0,0,0,0,0" transform="translate(1268.947 4577.511)" fill="#ebecec"/><path d="M0,0A11.979,11.979,0,0,0,11.745-12.2,11.979,11.979,0,0,0,0-24.4,11.979,11.979,0,0,0-11.745-12.2,11.991,11.991,0,0,0,0,0M0-20.333A7.986,7.986,0,0,1,7.83-12.2,7.987,7.987,0,0,1,0-4.066,7.987,7.987,0,0,1-7.83-12.2,7.986,7.986,0,0,1,0-20.333" transform="translate(1269.799 4429.917)" fill="#b81370"/><path d="M0,0A11.979,11.979,0,0,0,11.745-12.2,11.979,11.979,0,0,0,0-24.4,11.979,11.979,0,0,0-11.745-12.2,11.991,11.991,0,0,0,0,0ZM0-20.333A7.986,7.986,0,0,1,7.83-12.2,7.987,7.987,0,0,1,0-4.066,7.987,7.987,0,0,1-7.83-12.2,7.986,7.986,0,0,1,0-20.333Z" transform="translate(1269.799 4429.917)" fill="none" stroke="#ebecec" stroke-width="0.75"/><path d="M0,0A3.9,3.9,0,0,0-3.453-2.19H-7.368a3.993,3.993,0,0,0-3.915,4.067A3.993,3.993,0,0,0-7.368,5.943h3.915A3.881,3.881,0,0,0-.172,4.081,6.056,6.056,0,0,1,4.377,10.01V24.243H-3.571c-.951-8.871-7.99-16.266-15.947-16.266H-38.283c-7.957,0-15,7.395-15.948,16.266h-7.947V10.01a6.056,6.056,0,0,1,4.549-5.929,3.881,3.881,0,0,0,3.281,1.862h3.915a3.993,3.993,0,0,0,3.915-4.066A3.993,3.993,0,0,0-50.433-2.19h-3.915A3.9,3.9,0,0,0-57.8,0a10.041,10.041,0,0,0-8.292,10.01V24.243h-15.66a1.978,1.978,0,0,0-1.919,1.627L-87.587,46.2a2.033,2.033,0,0,0,1.527,2.4,1.911,1.911,0,0,0,.392.041H27.867a2,2,0,0,0,1.958-2.033,2.057,2.057,0,0,0-.04-.407L25.87,25.87a1.978,1.978,0,0,0-1.918-1.627H8.292V10.01A10.043,10.043,0,0,0,0,0M-38.283,12.043h18.765c6.264,0,11.093,6.086,12,12.2h-42.76c.9-6.114,5.74-12.2,12-12.2M22.349,28.31l3.132,16.266H-83.28l3.132-16.266Z" transform="translate(1298.699 4423.974)" fill="#b81370"/><path d="M0,0A3.9,3.9,0,0,0-3.453-2.19H-7.368a3.993,3.993,0,0,0-3.915,4.067A3.993,3.993,0,0,0-7.368,5.943h3.915A3.881,3.881,0,0,0-.172,4.081,6.056,6.056,0,0,1,4.377,10.01V24.243H-3.571c-.951-8.871-7.99-16.266-15.947-16.266H-38.283c-7.957,0-15,7.395-15.948,16.266h-7.947V10.01a6.056,6.056,0,0,1,4.549-5.929,3.881,3.881,0,0,0,3.281,1.862h3.915a3.993,3.993,0,0,0,3.915-4.066A3.993,3.993,0,0,0-50.433-2.19h-3.915A3.9,3.9,0,0,0-57.8,0a10.041,10.041,0,0,0-8.292,10.01V24.243h-15.66a1.978,1.978,0,0,0-1.919,1.627L-87.587,46.2a2.033,2.033,0,0,0,1.527,2.4,1.911,1.911,0,0,0,.392.041H27.867a2,2,0,0,0,1.958-2.033,2.057,2.057,0,0,0-.04-.407L25.87,25.87a1.978,1.978,0,0,0-1.918-1.627H8.292V10.01A10.043,10.043,0,0,0,0,0ZM-38.283,12.043h18.765c6.264,0,11.093,6.086,12,12.2h-42.76C-49.376,18.129-44.541,12.043-38.283,12.043ZM22.349,28.31l3.132,16.266H-83.28l3.132-16.266Z" transform="translate(1298.699 4423.974)" fill="none" stroke="#ebecec" stroke-width="0.75"/><path d="M0,0H23.49a2,2,0,0,0,1.958-2.033A10,10,0,0,0,15.66-12.2H7.83A10,10,0,0,0-1.958-2.033,2,2,0,0,0,0,0M7.83-8.133h7.83A5.9,5.9,0,0,1,21.2-4.067H2.292A5.9,5.9,0,0,1,7.83-8.133" transform="translate(1213.031 4527.517)" fill="#b81370"/><path d="M0,0H23.49a2,2,0,0,0,1.958-2.033A10,10,0,0,0,15.66-12.2H7.83A10,10,0,0,0-1.958-2.033,2,2,0,0,0,0,0ZM7.83-8.133h7.83A5.9,5.9,0,0,1,21.2-4.067H2.292A5.9,5.9,0,0,1,7.83-8.133Z" transform="translate(1213.031 4527.517)" fill="none" stroke="#ebecec" stroke-width="0.75"/><path d="M0,0A5.989,5.989,0,0,0,5.872,6.1,5.989,5.989,0,0,0,11.745,0,5.989,5.989,0,0,0,5.872-6.1,5.989,5.989,0,0,0,0,0M7.83,0A2,2,0,0,1,5.872,2.033,2,2,0,0,1,3.915,0,2,2,0,0,1,5.872-2.033,2,2,0,0,1,7.83,0" transform="translate(1218.902 4507.184)" fill="#b81370"/><path d="M0,0A5.989,5.989,0,0,0,5.872,6.1,5.989,5.989,0,0,0,11.745,0,5.989,5.989,0,0,0,5.872-6.1,5.989,5.989,0,0,0,0,0ZM7.83,0A2,2,0,0,1,5.872,2.033,2,2,0,0,1,3.915,0,2,2,0,0,1,5.872-2.033,2,2,0,0,1,7.83,0Z" transform="translate(1218.902 4507.184)" fill="none" stroke="#ebecec" stroke-width="0.75"/><path d="M0,0A2,2,0,0,0,1.957,2.033H25.448A2,2,0,0,0,27.405,0a9.995,9.995,0,0,0-9.787-10.167H9.787A9.995,9.995,0,0,0,0,0M9.787-6.1h7.831a5.9,5.9,0,0,1,5.537,4.067H4.25A5.9,5.9,0,0,1,9.787-6.1" transform="translate(1256.096 4525.483)" fill="#b81370"/><path d="M0,0A2,2,0,0,0,1.957,2.033H25.448A2,2,0,0,0,27.405,0a9.995,9.995,0,0,0-9.787-10.167H9.787A9.995,9.995,0,0,0,0,0ZM9.787-6.1h7.831a5.9,5.9,0,0,1,5.537,4.067H4.25A5.9,5.9,0,0,1,9.787-6.1Z" transform="translate(1256.096 4525.483)" fill="none" stroke="#ebecec" stroke-width="0.75"/><path d="M0,0A5.989,5.989,0,0,0-5.873-6.1,5.989,5.989,0,0,0-11.745,0,5.989,5.989,0,0,0-5.873,6.1,5.989,5.989,0,0,0,0,0M-7.83,0A2,2,0,0,1-5.873-2.033,2,2,0,0,1-3.915,0,2,2,0,0,1-5.873,2.033,2,2,0,0,1-7.83,0" transform="translate(1275.672 4507.184)" fill="#b81370"/><path d="M0,0A5.989,5.989,0,0,0-5.873-6.1,5.989,5.989,0,0,0-11.745,0,5.989,5.989,0,0,0-5.873,6.1,5.989,5.989,0,0,0,0,0ZM-7.83,0A2,2,0,0,1-5.873-2.033,2,2,0,0,1-3.915,0,2,2,0,0,1-5.873,2.033,2,2,0,0,1-7.83,0Z" transform="translate(1275.672 4507.184)" fill="none" stroke="#ebecec" stroke-width="0.75"/><path d="M0,0H-7.83a10,10,0,0,0-9.788,10.167A2,2,0,0,0-15.66,12.2H7.83a2,2,0,0,0,1.957-2.033A9.994,9.994,0,0,0,0,0M-13.368,8.133A5.9,5.9,0,0,1-7.83,4.066H0A5.9,5.9,0,0,1,5.538,8.133Z" transform="translate(1318.736 4515.317)" fill="#b81370"/><path d="M0,0H-7.83a10,10,0,0,0-9.788,10.167A2,2,0,0,0-15.66,12.2H7.83a2,2,0,0,0,1.957-2.033A9.994,9.994,0,0,0,0,0ZM-13.368,8.133A5.9,5.9,0,0,1-7.83,4.066H0A5.9,5.9,0,0,1,5.538,8.133Z" transform="translate(1318.736 4515.317)" fill="none" stroke="#ebecec" stroke-width="0.75"/><path d="M0,0A5.989,5.989,0,0,0,5.872,6.1,5.989,5.989,0,0,0,11.745,0,5.989,5.989,0,0,0,5.872-6.1,5.989,5.989,0,0,0,0,0M7.83,0A2,2,0,0,1,5.872,2.033,2,2,0,0,1,3.915,0,2,2,0,0,1,5.872-2.033,2,2,0,0,1,7.83,0" transform="translate(1308.949 4507.184)" fill="#b81370"/><path d="M0,0A5.989,5.989,0,0,0,5.872,6.1,5.989,5.989,0,0,0,11.745,0,5.989,5.989,0,0,0,5.872-6.1,5.989,5.989,0,0,0,0,0ZM7.83,0A2,2,0,0,1,5.872,2.033,2,2,0,0,1,3.915,0,2,2,0,0,1,5.872-2.033,2,2,0,0,1,7.83,0Z" transform="translate(1308.949 4507.184)" fill="none" stroke="#ebecec" stroke-width="0.75"/><path d="M0,0A2,2,0,0,0,1.958,2.033h23.49A2,2,0,0,0,27.405,0a9.994,9.994,0,0,0-9.787-10.167H9.787A9.995,9.995,0,0,0,0,0M9.787-6.1h7.831a5.9,5.9,0,0,1,5.537,4.067H4.25A5.9,5.9,0,0,1,9.787-6.1" transform="translate(1232.605 4501.083)" fill="#b81370"/><path d="M0,0A2,2,0,0,0,1.958,2.033h23.49A2,2,0,0,0,27.405,0a9.994,9.994,0,0,0-9.787-10.167H9.787A9.995,9.995,0,0,0,0,0ZM9.787-6.1h7.831a5.9,5.9,0,0,1,5.537,4.067H4.25A5.9,5.9,0,0,1,9.787-6.1Z" transform="translate(1232.605 4501.083)" fill="none" stroke="#ebecec" stroke-width="0.75"/><path d="M0,0A5.989,5.989,0,0,0-5.873-6.1,5.989,5.989,0,0,0-11.745,0,5.989,5.989,0,0,0-5.873,6.1,5.989,5.989,0,0,0,0,0M-7.83,0A2,2,0,0,1-5.873-2.033,2,2,0,0,1-3.915,0,2,2,0,0,1-5.873,2.033,2,2,0,0,1-7.83,0" transform="translate(1252.182 4482.784)" fill="#b81370"/><path d="M0,0A5.989,5.989,0,0,0-5.873-6.1,5.989,5.989,0,0,0-11.745,0,5.989,5.989,0,0,0-5.873,6.1,5.989,5.989,0,0,0,0,0ZM-7.83,0A2,2,0,0,1-5.873-2.033,2,2,0,0,1-3.915,0,2,2,0,0,1-5.873,2.033,2,2,0,0,1-7.83,0Z" transform="translate(1252.182 4482.784)" fill="none" stroke="#ebecec" stroke-width="0.75"/><path d="M0,0A9.995,9.995,0,0,0-9.788-10.167h-7.83A9.994,9.994,0,0,0-27.405,0a2,2,0,0,0,1.957,2.033h23.49A2,2,0,0,0,0,0M-23.155-2.033A5.9,5.9,0,0,1-17.618-6.1h7.83A5.9,5.9,0,0,1-4.25-2.033Z" transform="translate(1306.99 4501.083)" fill="#b81370"/><path d="M0,0A9.995,9.995,0,0,0-9.788-10.167h-7.83A9.994,9.994,0,0,0-27.405,0a2,2,0,0,0,1.957,2.033h23.49A2,2,0,0,0,0,0ZM-23.155-2.033A5.9,5.9,0,0,1-17.618-6.1h7.83A5.9,5.9,0,0,1-4.25-2.033Z" transform="translate(1306.99 4501.083)" fill="none" stroke="#ebecec" stroke-width="0.75"/><path d="M0,0A5.989,5.989,0,0,0-5.873-6.1,5.989,5.989,0,0,0-11.745,0,5.989,5.989,0,0,0-5.873,6.1,5.989,5.989,0,0,0,0,0M-7.83,0A2,2,0,0,1-5.873-2.033,2,2,0,0,1-3.915,0,2,2,0,0,1-5.873,2.033,2,2,0,0,1-7.83,0" transform="translate(1299.16 4482.784)" fill="#b81370"/><path d="M0,0A5.989,5.989,0,0,0-5.873-6.1,5.989,5.989,0,0,0-11.745,0,5.989,5.989,0,0,0-5.873,6.1,5.989,5.989,0,0,0,0,0ZM-7.83,0A2,2,0,0,1-5.873-2.033,2,2,0,0,1-3.915,0,2,2,0,0,1-5.873,2.033,2,2,0,0,1-7.83,0Z" transform="translate(1299.16 4482.784)" fill="none" stroke="#ebecec" stroke-width="0.75"/></g></svg>