<svg xmlns="http://www.w3.org/2000/svg" width="212.25" height="212.25" viewBox="0 0 212.25 212.25"><g transform="translate(-1128.24 -4292.462)"><path d="M0,0A106.125,106.125,0,0,0,106.125-106.125,106.125,106.125,0,0,0,0-212.25,106.125,106.125,0,0,0-106.125-106.125,106.125,106.125,0,0,0,0,0" transform="translate(1234.365 4504.712)" fill="#ebecec"/><path d="M0,0H127.582a2.093,2.093,0,0,0,1.689-.877,2.332,2.332,0,0,0,.364-1.944l-6.151-23.936a3.79,3.79,0,0,0-3.615-2.913H107.946L102.22-51.95a3.787,3.787,0,0,0-3.614-2.912H86.682l-5.725-22.28a3.789,3.789,0,0,0-3.615-2.913H50.24a3.789,3.789,0,0,0-3.614,2.913L40.9-54.862H28.977a3.79,3.79,0,0,0-3.615,2.912L19.636-29.67H7.713A3.79,3.79,0,0,0,4.1-26.757L-2.053-2.821A2.327,2.327,0,0,0-1.688-.877,2.09,2.09,0,0,0,0,0M42.527-10.808l-3.7-14.386h7.393ZM45.3-4.475l5.325-20.719H76.953L82.278-4.475Zm39.751-6.333-3.7-14.386H88.75Zm39.75,6.333H87.832l5.324-20.719h26.325ZM103.542-29.668H66.568l5.325-20.717H98.217ZM63.791-36l-3.7-14.384h7.393ZM50.629-75.579H76.952l5.324,20.717H45.3ZM29.365-50.385H55.69l5.324,20.717H24.041ZM8.1-25.193H34.426L39.75-4.474H2.777Z" transform="translate(1170.742 4442.95)" fill="#219e44"/><path d="M0,0H127.582a2.093,2.093,0,0,0,1.689-.877,2.332,2.332,0,0,0,.364-1.944l-6.151-23.936a3.79,3.79,0,0,0-3.615-2.913H107.946L102.22-51.95a3.787,3.787,0,0,0-3.614-2.912H86.682l-5.725-22.28a3.789,3.789,0,0,0-3.615-2.913H50.24a3.789,3.789,0,0,0-3.614,2.913L40.9-54.862H28.977a3.79,3.79,0,0,0-3.615,2.912L19.636-29.67H7.713A3.79,3.79,0,0,0,4.1-26.757L-2.053-2.821A2.327,2.327,0,0,0-1.688-.877,2.09,2.09,0,0,0,0,0ZM42.527-10.808l-3.7-14.386h7.393ZM45.3-4.475l5.325-20.719H76.953L82.278-4.475Zm39.751-6.333-3.7-14.386H88.75Zm39.75,6.333H87.832l5.324-20.719h26.325ZM103.542-29.668H66.568l5.325-20.717H98.217ZM63.791-36l-3.7-14.384h7.393ZM50.629-75.579H76.952l5.324,20.717H45.3ZM29.365-50.385H55.69l5.324,20.717H24.041ZM8.1-25.193H34.426L39.75-4.474H2.777Z" transform="translate(1170.742 4442.95)" fill="none" stroke="#ebecec" stroke-width="0.3"/><path d="M0,0A7.513,7.513,0,0,1,7.3,7.686,2.183,2.183,0,0,0,9.431,9.924a2.183,2.183,0,0,0,2.126-2.238A7.512,7.512,0,0,1,18.861,0a2.183,2.183,0,0,0,2.126-2.238,2.183,2.183,0,0,0-2.126-2.237,7.512,7.512,0,0,1-7.3-7.688A2.183,2.183,0,0,0,9.431-14.4,2.183,2.183,0,0,0,7.3-12.163,7.514,7.514,0,0,1,0-4.475,2.183,2.183,0,0,0-2.126-2.238,2.183,2.183,0,0,0,0,0M9.43-5.139a11.967,11.967,0,0,0,2.757,2.9A11.991,11.991,0,0,0,9.43.664a11.975,11.975,0,0,0-2.758-2.9,11.952,11.952,0,0,0,2.758-2.9" transform="translate(1183.229 4370.147)" fill="#219e44"/><path d="M0,0A7.513,7.513,0,0,1,7.3,7.686,2.183,2.183,0,0,0,9.431,9.924a2.183,2.183,0,0,0,2.126-2.238A7.512,7.512,0,0,1,18.861,0a2.183,2.183,0,0,0,2.126-2.238,2.183,2.183,0,0,0-2.126-2.237,7.512,7.512,0,0,1-7.3-7.688A2.183,2.183,0,0,0,9.431-14.4,2.183,2.183,0,0,0,7.3-12.163,7.514,7.514,0,0,1,0-4.475,2.183,2.183,0,0,0-2.126-2.238,2.183,2.183,0,0,0,0,0ZM9.43-5.139a11.967,11.967,0,0,0,2.757,2.9A11.991,11.991,0,0,0,9.43.664a11.975,11.975,0,0,0-2.758-2.9A11.952,11.952,0,0,0,9.43-5.139Z" transform="translate(1183.229 4370.147)" fill="none" stroke="#ebecec" stroke-width="0.3"/><path d="M0,0A10.605,10.605,0,0,1,10.313,10.853a2.129,2.129,0,1,0,4.253,0A10.605,10.605,0,0,1,24.879,0,2.183,2.183,0,0,0,27-2.238a2.183,2.183,0,0,0-2.126-2.238A10.6,10.6,0,0,1,14.566-15.329a2.183,2.183,0,0,0-2.127-2.237,2.183,2.183,0,0,0-2.126,2.237A10.605,10.605,0,0,1,0-4.476,2.183,2.183,0,0,0-2.126-2.238,2.183,2.183,0,0,0,0,0M12.439-7.362a15.077,15.077,0,0,0,4.87,5.124,15.08,15.08,0,0,0-4.87,5.125A15.077,15.077,0,0,0,7.57-2.238a15.074,15.074,0,0,0,4.869-5.124" transform="translate(1261.343 4354.28)" fill="#219e44"/><path d="M0,0A10.605,10.605,0,0,1,10.313,10.853a2.129,2.129,0,1,0,4.253,0A10.605,10.605,0,0,1,24.879,0,2.183,2.183,0,0,0,27-2.238a2.183,2.183,0,0,0-2.126-2.238A10.6,10.6,0,0,1,14.566-15.329a2.183,2.183,0,0,0-2.127-2.237,2.183,2.183,0,0,0-2.126,2.237A10.605,10.605,0,0,1,0-4.476,2.183,2.183,0,0,0-2.126-2.238,2.183,2.183,0,0,0,0,0ZM12.439-7.362a15.077,15.077,0,0,0,4.87,5.124,15.08,15.08,0,0,0-4.87,5.125A15.077,15.077,0,0,0,7.57-2.238,15.074,15.074,0,0,0,12.439-7.362Z" transform="translate(1261.343 4354.28)" fill="none" stroke="#ebecec" stroke-width="0.3"/></g></svg>