<svg xmlns="http://www.w3.org/2000/svg" width="212.25" height="212.25" viewBox="0 0 212.25 212.25"><g transform="translate(-502.592 -4234.258)"><path d="M0,0A106.125,106.125,0,0,0,106.125-106.125,106.125,106.125,0,0,0,0-212.25,106.125,106.125,0,0,0-106.125-106.125,106.125,106.125,0,0,0,0,0" transform="translate(608.717 4446.508)" fill="#ebecec"/><path d="M0,0-28.265-17.269a3.9,3.9,0,0,0-3.9,0l-.351.234L-62.651-.624l-43.508-16.645a3.9,3.9,0,0,0-5.041,2.233,3.9,3.9,0,0,0-.262,1.392V73.365a3.9,3.9,0,0,0,2.5,3.625l16.725,6.394-8.928,8.965a3.9,3.9,0,0,0-.425,5.5,3.9,3.9,0,0,0,5.5.425,3.8,3.8,0,0,0,.426-.425l11.423-11.422,20.273,7.8a3.894,3.894,0,0,0,1.4.272h.429a3.889,3.889,0,0,0,1.871-.467L-30.526,77.77-4.172,93.909a3.9,3.9,0,0,0,5.358-1.3A3.9,3.9,0,0,0,1.754,90.6V3.313A3.9,3.9,0,0,0,0,0M-70.877,67.635h0A11.7,11.7,0,0,1-71.023,51.1a11.7,11.7,0,0,1,8.372-3.5A11.7,11.7,0,0,1-51.064,59.4a11.7,11.7,0,0,1-11.8,11.586,11.7,11.7,0,0,1-8.048-3.312Zm-32.787,3.04V-7.991L-66.549,6.354V40.23a19.491,19.491,0,0,0-15.345,22.9,19.478,19.478,0,0,0,2.908,7.038l-7.057,7.212Zm25.419,9.746,4.8-4.795a19.493,19.493,0,0,0,6.9,2.846v6.471Zm43.664-9.356L-58.245,84.007v-5.73a19.493,19.493,0,0,0,9.434-5.146,19.49,19.49,0,0,0,0-27.565,19.49,19.49,0,0,0-9.437-5.219V5.847l23.664-12.9ZM-5.926,83.617-26.394,71.143V-6.822L-5.926,5.652Z" transform="translate(664.27 4303.634)" fill="#d53216"/><path d="M0,0-28.265-17.269a3.9,3.9,0,0,0-3.9,0l-.351.234L-62.651-.624l-43.508-16.645a3.9,3.9,0,0,0-5.041,2.233,3.9,3.9,0,0,0-.262,1.392V73.365a3.9,3.9,0,0,0,2.5,3.625l16.725,6.394-8.928,8.965a3.9,3.9,0,0,0-.425,5.5,3.9,3.9,0,0,0,5.5.425,3.8,3.8,0,0,0,.426-.425l11.423-11.422,20.273,7.8a3.894,3.894,0,0,0,1.4.272h.429a3.889,3.889,0,0,0,1.871-.467L-30.526,77.77-4.172,93.909a3.9,3.9,0,0,0,5.358-1.3A3.9,3.9,0,0,0,1.754,90.6V3.313A3.9,3.9,0,0,0,0,0ZM-70.877,67.635h0A11.7,11.7,0,0,1-71.023,51.1a11.7,11.7,0,0,1,8.372-3.5A11.7,11.7,0,0,1-51.064,59.4a11.7,11.7,0,0,1-11.8,11.586,11.7,11.7,0,0,1-8.048-3.312Zm-32.787,3.04V-7.991L-66.549,6.354V40.23a19.491,19.491,0,0,0-15.345,22.9,19.478,19.478,0,0,0,2.908,7.038l-7.057,7.212Zm25.419,9.746,4.8-4.795a19.493,19.493,0,0,0,6.9,2.846v6.471Zm43.664-9.356L-58.245,84.007v-5.73a19.493,19.493,0,0,0,9.434-5.146,19.49,19.49,0,0,0,0-27.565,19.49,19.49,0,0,0-9.437-5.219V5.847l23.664-12.9ZM-5.926,83.617-26.394,71.143V-6.822L-5.926,5.652Z" transform="translate(664.27 4303.634)" fill="none" stroke="#ebecec" stroke-width="3.4"/></g></svg>