<svg xmlns="http://www.w3.org/2000/svg" width="212.25" height="212.25" viewBox="0 0 212.25 212.25"><g transform="translate(-1248.137 -3212.559)"><path d="M0,0A106.125,106.125,0,0,0,106.125-106.125,106.125,106.125,0,0,0,0-212.25,106.125,106.125,0,0,0-106.125-106.125,106.125,106.125,0,0,0,0,0" transform="translate(1354.262 3424.809)" fill="#ebecec"/><path d="M0,0C-30.4,0-55.135,24.911-55.135,55.532S-30.4,111.065,0,111.065,55.137,86.154,55.137,55.532,30.4,0,0,0M-.7,97.489c.24-.934.577-2.1.952-3.4l.062-.213c2.772-9.535,4.348-15.97,1.15-18.444C.911,75,.289,74.586-.4,74.126c-2.528-1.693-4.062-2.872-4.062-4.977,0-4.416.079-5.88,1.738-7.318.457-.4,2.565-1.422,10.4,2.11,1.331.6,1.358.853,1.448,1.691a4.714,4.714,0,0,0,3.882,4.57c.912.254,2.005.47,3.062.679,1.475.29,5.4,1.061,5.847,1.827a.8.8,0,0,1-.061.26,35.4,35.4,0,0,0-1.032,3.881c-.9,4-1.431,5.278-2.969,5.452-4.3.488-6.451,3.984-8.351,7.074A24.268,24.268,0,0,1,6.964,93.01C4.474,95.722.552,100.771.605,105.618A9.417,9.417,0,0,1-.7,97.489m6.134,8.431c-.3-2.686,2.343-6.668,5.058-9.625a28.025,28.025,0,0,0,3.1-4.374c1.513-2.459,2.819-4.584,4.8-4.807,5.182-.59,6.3-5.565,7.121-9.2a32.259,32.259,0,0,1,.881-3.348,4.944,4.944,0,0,0-.284-4.205c-1.56-2.746-5.4-3.5-9.23-4.261-.946-.187-1.846-.364-2.6-.572-.157-.044-.269-.085-.343-.112-.013-.1-.025-.216-.034-.309-.218-2.006-.886-4.071-4.268-5.6-7.657-3.453-12.58-3.883-15.495-1.358-3.41,2.955-3.41,6.5-3.41,10.989,0,4.854,3.736,7.354,6.238,9.029.509.341,1.006.673,1.42.977.293.62.256,3.229-2.689,13.362-.42,1.441-.8,2.738-1.059,3.766a14.5,14.5,0,0,0,.66,9.705,50.7,50.7,0,0,1-45.63-50.454A50.819,50.819,0,0,1-43.6,30.246c1.6,1.16,4.275,3.443,4.674,6,.749,4.795,5.191,9.518,9.5,14.094,1.158,1.229,2.29,2.434,3.3,3.589,4.432,5.094,7.9,7.466,10.93,7.466a4.116,4.116,0,0,0,3.8-2.267c.548-1.113,1.067-3.509-1.61-7.059A6.646,6.646,0,0,1-13.67,51c3.846.072,9.673-1.994,11.862-6.186.171-.326.33-.64.484-.946l.119-.237c1.352-2.686,2.329-4.627,8.2-9.382,2.8-2.269,4.08-4.512,3.909-6.858C10.625,23.606,6.85,21.368,2.852,19c-.536-.318-1.072-.638-1.6-.961a6.37,6.37,0,0,0-4.915-1c-2.477.616-3.809,2.846-4.785,4.481-.147.248-.409.686-.633,1.018-3.57-1.178-3.439-2.453-3.375-3.079.01-.1.189-.49.885-1.016a14.691,14.691,0,0,1,9.427-2.206c4.717.883,6.514-3.208,7.3-5.163a24.4,24.4,0,0,1,6.054,7.9c1.166,2.722,3.094,3.167,4.231,3.192,3.732,0,6.913-5.025,7.422-6.14a19.458,19.458,0,0,1,5.521-2.335,51.142,51.142,0,0,1,15.2,16.522,6.916,6.916,0,0,0-4.03,1.233,5.959,5.959,0,0,0-2.285,5.519c.318,5.051-.075,7.091-3.436,11.821a10.688,10.688,0,0,0-1.154,10.352,11.4,11.4,0,0,0,8.81,6.906l1.173.19A40.706,40.706,0,0,1,48.9,67.5,50.377,50.377,0,0,1,5.436,105.92m13.217-92.2A10.242,10.242,0,0,1,15.7,17.224c-.025-.048-.05-.1-.078-.168C13.855,12.939,7.743,5.234,4.2,5.558,2.123,5.713,1.341,7.652.768,9.075c-1.039,2.584-1.4,2.515-2.056,2.4a19.121,19.121,0,0,0-13.18,3.1,6.328,6.328,0,0,0-2.78,4.4c-.407,4.049,2.135,6.89,7.557,8.445,2.849.813,4.36-1.724,5.359-3.4.509-.852,1.278-2.139,1.811-2.27a2.056,2.056,0,0,1,1.279.438q.82.5,1.66,1c2.362,1.4,5.6,3.318,5.685,4.566.033.464-.509,1.424-2.128,2.734C-2.7,35.885-3.931,38.339-5.5,41.456l-.562,1.1c-1.24,2.375-5.75,3.879-7.932,3.567A3.933,3.933,0,0,0-18.269,47.9c-1.26,2.159-.085,5.083,1.434,7.1a7.135,7.135,0,0,1,.845,1.373c-1.057-.408-3.095-1.7-6.521-5.635-1.041-1.2-2.213-2.443-3.434-3.742-3.613-3.839-7.707-8.19-8.222-11.5-.67-4.282-4.341-7.557-6.82-9.319A50.271,50.271,0,0,1,0,4.844a50,50,0,0,1,23.018,5.627c-2.384,1.033-3.816,2.1-4.365,3.245M37.11,57.274a5.791,5.791,0,0,1,.626-5.667c4.107-5.773,4.7-8.934,4.327-14.939-.027-.469.005-1.075.318-1.305a2.684,2.684,0,0,1,1.472-.313,8.534,8.534,0,0,1,2.319.359,50.512,50.512,0,0,1,4.151,20.127,50.505,50.505,0,0,1-.507,7.184,53.675,53.675,0,0,0-6.392-1.267l-1.175-.19a6.634,6.634,0,0,1-5.139-3.989" transform="translate(1354.261 3263.151)" fill="#379f44"/><path d="M0,0C-30.4,0-55.135,24.911-55.135,55.532S-30.4,111.065,0,111.065,55.137,86.154,55.137,55.532,30.4,0,0,0ZM-.7,97.489c.24-.934.577-2.1.952-3.4l.062-.213c2.772-9.535,4.348-15.97,1.15-18.444C.911,75,.289,74.586-.4,74.126c-2.528-1.693-4.062-2.872-4.062-4.977,0-4.416.079-5.88,1.738-7.318.457-.4,2.565-1.422,10.4,2.11,1.331.6,1.358.853,1.448,1.691a4.714,4.714,0,0,0,3.882,4.57c.912.254,2.005.47,3.062.679,1.475.29,5.4,1.061,5.847,1.827a.8.8,0,0,1-.061.26,35.4,35.4,0,0,0-1.032,3.881c-.9,4-1.431,5.278-2.969,5.452-4.3.488-6.451,3.984-8.351,7.074A24.268,24.268,0,0,1,6.964,93.01C4.474,95.722.552,100.771.605,105.618A9.417,9.417,0,0,1-.7,97.489Zm6.134,8.431c-.3-2.686,2.343-6.668,5.058-9.625a28.025,28.025,0,0,0,3.1-4.374c1.513-2.459,2.819-4.584,4.8-4.807,5.182-.59,6.3-5.565,7.121-9.2a32.259,32.259,0,0,1,.881-3.348,4.944,4.944,0,0,0-.284-4.205c-1.56-2.746-5.4-3.5-9.23-4.261-.946-.187-1.846-.364-2.6-.572-.157-.044-.269-.085-.343-.112-.013-.1-.025-.216-.034-.309-.218-2.006-.886-4.071-4.268-5.6-7.657-3.453-12.58-3.883-15.495-1.358-3.41,2.955-3.41,6.5-3.41,10.989,0,4.854,3.736,7.354,6.238,9.029.509.341,1.006.673,1.42.977.293.62.256,3.229-2.689,13.362-.42,1.441-.8,2.738-1.059,3.766a14.5,14.5,0,0,0,.66,9.705,50.7,50.7,0,0,1-45.63-50.454A50.819,50.819,0,0,1-43.6,30.246c1.6,1.16,4.275,3.443,4.674,6,.749,4.795,5.191,9.518,9.5,14.094,1.158,1.229,2.29,2.434,3.3,3.589,4.432,5.094,7.9,7.466,10.93,7.466a4.116,4.116,0,0,0,3.8-2.267c.548-1.113,1.067-3.509-1.61-7.059A6.646,6.646,0,0,1-13.67,51c3.846.072,9.673-1.994,11.862-6.186.171-.326.33-.64.484-.946l.119-.237c1.352-2.686,2.329-4.627,8.2-9.382,2.8-2.269,4.08-4.512,3.909-6.858C10.625,23.606,6.85,21.368,2.852,19c-.536-.318-1.072-.638-1.6-.961a6.37,6.37,0,0,0-4.915-1c-2.477.616-3.809,2.846-4.785,4.481-.147.248-.409.686-.633,1.018-3.57-1.178-3.439-2.453-3.375-3.079.01-.1.189-.49.885-1.016a14.691,14.691,0,0,1,9.427-2.206c4.717.883,6.514-3.208,7.3-5.163a24.4,24.4,0,0,1,6.054,7.9c1.166,2.722,3.094,3.167,4.231,3.192,3.732,0,6.913-5.025,7.422-6.14a19.458,19.458,0,0,1,5.521-2.335,51.142,51.142,0,0,1,15.2,16.522,6.916,6.916,0,0,0-4.03,1.233,5.959,5.959,0,0,0-2.285,5.519c.318,5.051-.075,7.091-3.436,11.821a10.688,10.688,0,0,0-1.154,10.352,11.4,11.4,0,0,0,8.81,6.906l1.173.19A40.706,40.706,0,0,1,48.9,67.5,50.377,50.377,0,0,1,5.436,105.92Zm13.217-92.2A10.242,10.242,0,0,1,15.7,17.224c-.025-.048-.05-.1-.078-.168C13.855,12.939,7.743,5.234,4.2,5.558,2.123,5.713,1.341,7.652.768,9.075c-1.039,2.584-1.4,2.515-2.056,2.4a19.121,19.121,0,0,0-13.18,3.1,6.328,6.328,0,0,0-2.78,4.4c-.407,4.049,2.135,6.89,7.557,8.445,2.849.813,4.36-1.724,5.359-3.4.509-.852,1.278-2.139,1.811-2.27a2.056,2.056,0,0,1,1.279.438q.82.5,1.66,1c2.362,1.4,5.6,3.318,5.685,4.566.033.464-.509,1.424-2.128,2.734C-2.7,35.885-3.931,38.339-5.5,41.456l-.562,1.1c-1.24,2.375-5.75,3.879-7.932,3.567A3.933,3.933,0,0,0-18.269,47.9c-1.26,2.159-.085,5.083,1.434,7.1a7.135,7.135,0,0,1,.845,1.373c-1.057-.408-3.095-1.7-6.521-5.635-1.041-1.2-2.213-2.443-3.434-3.742-3.613-3.839-7.707-8.19-8.222-11.5-.67-4.282-4.341-7.557-6.82-9.319A50.271,50.271,0,0,1,0,4.844a50,50,0,0,1,23.018,5.627C20.634,11.5,19.2,12.571,18.653,13.716ZM37.11,57.274a5.791,5.791,0,0,1,.626-5.667c4.107-5.773,4.7-8.934,4.327-14.939-.027-.469.005-1.075.318-1.305a2.684,2.684,0,0,1,1.472-.313,8.534,8.534,0,0,1,2.319.359,50.512,50.512,0,0,1,4.151,20.127,50.505,50.505,0,0,1-.507,7.184,53.675,53.675,0,0,0-6.392-1.267l-1.175-.19A6.634,6.634,0,0,1,37.11,57.274Z" transform="translate(1354.261 3263.151)" fill="none" stroke="#ebecec" stroke-width="0.75"/></g></svg>