<svg xmlns="http://www.w3.org/2000/svg" width="212.25" height="212.25" viewBox="0 0 212.25 212.25"><g transform="translate(-1150.75 -4507.422)"><path d="M0,0A106.125,106.125,0,0,0,106.125-106.125,106.125,106.125,0,0,0,0-212.25,106.125,106.125,0,0,0-106.125-106.125,106.125,106.125,0,0,0,0,0" transform="translate(1256.875 4719.672)" fill="#ebecec"/><g transform="translate(538.774 3876.236)"><path d="M722.037,787.672v-.359H722l-.191-1.741.372-.041-1.165-10.69c-.059-3.606-4.607-30.384-21.269-36.541a9.85,9.85,0,0,0-6.322-3.679l.087-1.451c9.816,3.759,15.659-1.787,15.718-1.845l.247-.241-.22-.266a17.08,17.08,0,0,1-3.588-14.3c1.442-6.59.357-13.077-2.9-17.355a10.448,10.448,0,0,0-7.468-4.383c-1.543-2.066-6.053-3.55-10.863-3.55a19.894,19.894,0,0,0-14.385,5.766c-4.58,4.759-6.71,12.167-6.332,22.019l.015.4.4-.044s1.374-.153,2.164-.246c-.524,5.705-5.929,11.7-5.985,11.759l-.283.31.34.247c4.478,3.25,10.666,3.9,16.643,1.761l.085,1.421a9.647,9.647,0,0,0-6.242,3.7c-19.218,7.812-21.223,36.243-21.226,36.489l-1.4,12.884v.375h73.811l.375-.016v-.375l-.375.009Zm-18.493-18.814,3.522,6.962.894,9.377h-1.723a22.91,22.91,0,0,0-3.095-7.357c-1.285-2.206-2.4-4.119-2.307-6.7A10.232,10.232,0,0,0,703.544,768.858Zm2.164-9.977-.077-.378-2.8.659.1.374a8.278,8.278,0,0,1-4.686,9.746l-.227.1v.247c0,5.568.978,7.062,2.216,8.953a20.1,20.1,0,0,1,2.947,6.617H667.4a15.986,15.986,0,0,1,2.542-5.862c1.527-2.474,3.1-5.032,2.669-9.742l-.02-.223-.205-.088c-6.294-2.7-4.752-9.47-4.683-9.758l.088-.365L665,758.5l-.077.378a13.236,13.236,0,0,0,.465,7.03l-4.572,9.042L659.813,785.2h-8.455l1.112-10.245,0-.04c0-2.312,3.473-24.2,15.822-32.14a36.571,36.571,0,0,0-2.094,7.764l-.112.729,9.977-5.144,9.237,8.623,9.235-8.623,9.964,5.136-.1-.713a31.7,31.7,0,0,0-2.078-7.788c12.36,7.824,15.836,29.823,15.838,32.193l1.112,10.248h-8.456l-.967-10.111-4.613-9.177A13.271,13.271,0,0,0,705.708,758.881ZM663.571,775.82l3.52-6.962a10.227,10.227,0,0,0,2.714,2.288c.126,2.359-.964,4.284-2.221,6.5a25.279,25.279,0,0,0-3.151,7.549h-1.759Zm13.389-38.295,8.346,10.538,8.345-10.538c3.794.84,5.861,5.329,6.859,8.464l-6.45-3.322-8.754,8.177-8.759-8.177-6.45,3.323C671.093,742.854,673.159,738.364,676.96,737.525Zm13.466-.518-5.12,6.467-5.224-6.595-.2-3.339a15.9,15.9,0,0,0,10.745.045Zm-23.786-20.8v-.018c0-19.959,12.44-22.113,17.789-22.113,4.426,0,7.543,1.381,8.42,2.217a35.9,35.9,0,0,1-1.534,5.68C686.134,709.532,677.16,714.7,666.64,716.207Zm36.247-.311a18.723,18.723,0,0,0,2.467,14.657c-1.753.833-5.062,1.747-9.812.287a16.1,16.1,0,0,0,5.221-17.37l-.05-.158-.151-.07c-.054-.025-5.421-2.581-6.509-10.456a40.161,40.161,0,0,0,1.433-5.094,8.721,8.721,0,0,1,5.527,3.846C703.343,705.024,704.06,710.53,702.887,715.9Zm-30.908,2.152A38.582,38.582,0,0,0,691.8,706.032a16.94,16.94,0,0,0,6.472,9.14,13.334,13.334,0,1,1-26.3,3.1C671.977,718.2,671.977,718.124,671.979,718.048Zm-2.833,1.224a16.467,16.467,0,0,0,5.986,11.573A15.469,15.469,0,0,1,664.4,730.5C665.928,728.488,668.761,724.155,669.146,719.272Z" fill="#7771b1"/><path d="M685.317,776.859A1.314,1.314,0,0,0,684,778.172h0a1.313,1.313,0,1,0,1.313-1.314Z" fill="#7771b1"/><path d="M685.315,765.521A1.316,1.316,0,0,0,684,766.833h0v0h.178l-.178,0a1.309,1.309,0,0,0,1.309,1.308h.005a1.313,1.313,0,1,0,0-2.626Z" fill="#7771b1"/><path d="M772.217,715.378h-5.151a20.908,20.908,0,1,0-5.79,0h-4.982c-14.137,0-26.538,11.457-26.538,24.518v30.518h69V739.9C798.76,726.835,786.356,715.378,772.217,715.378Zm-8.046-38.763a18.06,18.06,0,1,1-18.065,18.06A18.111,18.111,0,0,1,764.171,676.615Zm18.06,60.223a1.426,1.426,0,0,0-1.424,1.423v29.455H765.178c.034-.028.067-.059.1-.09l7.962-8.134a1.42,1.42,0,0,0,.376-1.3l-6.988-32.307c1.274-1.56,4.986-6.1,6.257-7.652,12.289.35,23.029,10.43,23.029,21.661v27.82H783.65V738.261A1.426,1.426,0,0,0,782.231,736.838ZM757.85,758.047l6.408-29.634,6.408,29.632-6.408,6.546Zm-2.946.147a1.422,1.422,0,0,0,.375,1.3l7.963,8.134c.031.031.063.062.1.09H747.714V738.261a1.424,1.424,0,0,0-2.848,0v29.455h-12.26V739.9c0-9.988,9.447-21.3,23.025-21.661l6.261,7.652Zm14.307-39.967-4.952,6.055-4.958-6.057Z" fill="#7771b1"/></g></g></svg>