<svg xmlns="http://www.w3.org/2000/svg" width="212.25" height="212.25" viewBox="0 0 212.25 212.25"><g transform="translate(-586.844 -3046.295)"><path d="M0,0A106.125,106.125,0,0,0,106.125-106.125,106.125,106.125,0,0,0,0-212.25,106.125,106.125,0,0,0-106.125-106.125,106.125,106.125,0,0,0,0,0" transform="translate(692.969 3258.545)" fill="#ebecec"/><path d="M0,0H-115.866A1.906,1.906,0,0,0-117.8,1.875v112.5a1.906,1.906,0,0,0,1.931,1.875H0a1.906,1.906,0,0,0,1.931-1.875V1.875A1.906,1.906,0,0,0,0,0M-1.931,112.5h-112V21.75h112Zm0-90.75,0-3.75h-112V3.75h112Zm0-14.25" transform="translate(749.91 3093.518)" fill="#f09300"/><path d="M0,0V3.365H-7.709A1.9,1.9,0,0,0-9.636,5.236,1.9,1.9,0,0,0-7.709,7.108H0V9.914a1.9,1.9,0,0,0,1.927,1.871A1.9,1.9,0,0,0,3.854,9.914V7.108H6.745c.265,0,.487-.053.734-.075A6.342,6.342,0,0,0,13.43,1.277a6.533,6.533,0,0,0,.06-.719,8.126,8.126,0,0,0-.1-1.282,5.5,5.5,0,0,0-.907-2.33,5.214,5.214,0,0,0-1.51-1.424A8.082,8.082,0,0,0,8.76-5.411c-.248-.067-.5-.123-.761-.176a17.926,17.926,0,0,0-2-.281c-.484-.042-.97-.07-1.454-.088-.232-.008-.463-.017-.693-.021V-11.6h7.709a1.9,1.9,0,0,0,1.927-1.872,1.9,1.9,0,0,0-1.927-1.871H3.854v-2.807a1.9,1.9,0,0,0-1.927-1.871A1.9,1.9,0,0,0,0-18.154v2.807H-2.891c-.265,0-.487.053-.734.075A6.341,6.341,0,0,0-9.576-9.517a6.533,6.533,0,0,0-.06.719,8.018,8.018,0,0,0,.1,1.283,5.5,5.5,0,0,0,.906,2.33,5.2,5.2,0,0,0,1.51,1.423,8.064,8.064,0,0,0,2.209.933c.248.067.5.124.761.176a17.7,17.7,0,0,0,2,.281c.484.042.97.071,1.455.088.231.009.463.017.692.022V0ZM3.854,1.235V-2.226l.6.02c.75.029,1.407.074,1.966.142.229.027.444.059.644.094,1.56.274,2.249.79,2.475,1.69a3.466,3.466,0,0,1,.093.838A2.671,2.671,0,0,1,6.745,3.365H3.854ZM-.6-6.034c-.75-.029-1.407-.074-1.966-.141q-.344-.042-.644-.094c-1.56-.275-2.249-.79-2.475-1.691A3.46,3.46,0,0,1-5.782-8.8,2.671,2.671,0,0,1-2.891-11.6H0v5.59c-.21-.005-.408-.012-.6-.02" transform="translate(689.281 3162.659)" fill="#f09300"/><path d="M0,0C14.4,0,26.115-11.374,26.115-25.355S14.4-50.711,0-50.711-26.114-39.336-26.114-25.355-14.4,0,0,0M0-46.968c12.275,0,22.261,9.7,22.261,21.613S12.275-3.742,0-3.742s-22.26-9.7-22.26-21.613S-12.274-46.968,0-46.968" transform="translate(691.264 3183.229)" fill="#f09300"/><path d="M0,0A5.337,5.337,0,0,0,5.407-5.25,5.336,5.336,0,0,0,0-10.5,5.336,5.336,0,0,0-5.407-5.25,5.337,5.337,0,0,0,0,0M0-7.5A2.286,2.286,0,0,1,2.317-5.25,2.286,2.286,0,0,1,0-3,2.286,2.286,0,0,1-2.317-5.25,2.286,2.286,0,0,1,0-7.5" transform="translate(645.631 3109.643)" fill="#f09300"/><path d="M0,0A5.337,5.337,0,0,0,5.407-5.25,5.336,5.336,0,0,0,0-10.5,5.336,5.336,0,0,0-5.407-5.25,5.337,5.337,0,0,0,0,0M0-7.5A2.286,2.286,0,0,1,2.317-5.25,2.286,2.286,0,0,1,0-3,2.286,2.286,0,0,1-2.317-5.25,2.286,2.286,0,0,1,0-7.5" transform="translate(661.08 3109.643)" fill="#f09300"/><path d="M0,0A5.337,5.337,0,0,0,5.407-5.25,5.336,5.336,0,0,0,0-10.5,5.336,5.336,0,0,0-5.407-5.25,5.337,5.337,0,0,0,0,0M0-7.5A2.286,2.286,0,0,1,2.317-5.25,2.286,2.286,0,0,1,0-3,2.286,2.286,0,0,1-2.317-5.25,2.286,2.286,0,0,1,0-7.5" transform="translate(676.527 3109.643)" fill="#f09300"/></g></svg>