<svg xmlns="http://www.w3.org/2000/svg" width="212.25" height="212.25" viewBox="0 0 212.25 212.25"><g transform="translate(-439.259 -5886.882)"><path d="M0,0A106.125,106.125,0,0,0,106.125-106.125,106.125,106.125,0,0,0,0-212.25,106.125,106.125,0,0,0-106.125-106.125,106.125,106.125,0,0,0,0,0" transform="translate(545.384 6099.132)" fill="#ebecec"/><path d="M0,0-.72-2.237l-.087-1.1A3.675,3.675,0,0,0-1.28-4.855L-1.965-6.04l-.05-.172.031-.588A3.615,3.615,0,0,0-2.4-8.682l-.545-1.031a3.66,3.66,0,0,0-.363-.556l-1.274-1.608c-.04-.05-.081-.1-.125-.149l-1.268-1.436,1.509-1.845a3.627,3.627,0,0,0-.326-4.94l-.351-.328-.371-.994A3.635,3.635,0,0,0-7.21-23.5a3.676,3.676,0,0,0-.148-.342l-.7-1.428-.081-1.475a3.622,3.622,0,0,0-.363-1.394l.44-2.044a3.642,3.642,0,0,0,.06-1.15l-.154-1.433a3.632,3.632,0,0,0,.54-.81l.517-1.062a3.647,3.647,0,0,0,.356-1.343l.034-.491.191-.318.321-.245a3.626,3.626,0,0,0,1.04-4.531l-.911-1.789A3.62,3.62,0,0,0-8.42-45.233l-2.3-.579a3.624,3.624,0,0,0-.882-.11,3.608,3.608,0,0,0-1.2.205l-1.517.535L-15.352-45l-2.887.259c-.11.011-.217.025-.327.044l-.39.071-2.721-.465a3.586,3.586,0,0,0-.612-.052,3.618,3.618,0,0,0-1.815.487l-2.98-3.608-1.579-1.927a3.624,3.624,0,0,0-2.8-1.328h-.048l-1.695.022-1.976-.823a3.62,3.62,0,0,0-1.394-.278,3.665,3.665,0,0,0-.564.043l-1.208.191a3.612,3.612,0,0,0-1.031.326l-.718.352-.4-.217a3.578,3.578,0,0,0-1.415-.426l-3.272-.286c-.106-.008-.209-.015-.315-.015a3.616,3.616,0,0,0-.828.1l-.008,0-.112-.334a3.621,3.621,0,0,0-1.5-1.9l.262-.521a3.819,3.819,0,0,0,.238-.6l.444-1.526a3.619,3.619,0,0,0-.19-2.537l-.795-1.716a3.635,3.635,0,0,0-.5-.791l-1.548-1.867-.9-2.849a3.629,3.629,0,0,0-2.326-2.355l.572-.934a3.592,3.592,0,0,0,.531-1.716l.117-2.34.643-2.511,1.048-2.336.651-.725.264-.031a3.624,3.624,0,0,0,2.685-1.728l1.786-2.965.394-.255,3.762-1.1a3.588,3.588,0,0,0,1.372-.751l1.921-1.677a3.624,3.624,0,0,0,.826-4.413l-1.164-2.218a3.633,3.633,0,0,0-1.977-1.726l-2.841-1.028A3.621,3.621,0,0,0-43.91-98.2a3.63,3.63,0,0,0-1.62.381l-.76.38c-.062,0-.126,0-.188,0a3.635,3.635,0,0,0-2.422.925l-.622.156a3.625,3.625,0,0,0-2.552,2.351l-.492,1.446-3.449,1.307a3.678,3.678,0,0,0-1.008.583l-2.735,2.235-2.311.044-1.332-.579a3.614,3.614,0,0,0-1.445-.3,3.644,3.644,0,0,0-1.755.452l-1.272.7a3.613,3.613,0,0,0-1.371,1.336l-1.1-.361a3.6,3.6,0,0,0-1.135-.183,3.621,3.621,0,0,0-1.824.492l-1.488.865a3.648,3.648,0,0,0-1.276,1.254L-76.5-84l-2.733,1.564a3.623,3.623,0,0,0-1.787,2.627l-.224,1.543-.56.957a3.624,3.624,0,0,0-.278,3.075c.037.1.077.2.123.295A3.607,3.607,0,0,0-82.58-72.6c-.1.052-.193.108-.286.168l-1.7,1.11A3.641,3.641,0,0,0-85.788-70l-.676,1.264-.274.359-1.438,1.438-.971.485-1.137.256a3.577,3.577,0,0,0-.872.317,3.63,3.63,0,0,0-1.514-.606,3.571,3.571,0,0,0-.554-.041,3.618,3.618,0,0,0-2.243.776l-1.272,1a3.624,3.624,0,0,0-1.077,4.305l.487,1.11a3.585,3.585,0,0,0,.621.963l0,0a3.619,3.619,0,0,0-1.9.76l-.377.3a3.635,3.635,0,0,0-1.368,2.5,3.6,3.6,0,0,0-.726,1.539l-.324,1.569a3.626,3.626,0,0,0,.774,3.064l.82.978a3.629,3.629,0,0,0,1.305,2.99l.523.433c.039.071.081.139.124.206a3.625,3.625,0,0,0-.234.643l-.259,1a3.621,3.621,0,0,0,.769,3.291l.235.27-.355.292a3.632,3.632,0,0,0-1.295,3.222,3.632,3.632,0,0,0,1.559,2.571c0,.106.006.214.014.32l.056.606-.075,1.353a3.635,3.635,0,0,0,.37,1.807l-.353,1.309a3.57,3.57,0,0,0-.089,1.44l0,.029a3.659,3.659,0,0,0-.3,1.361l-.033,1.538a3.621,3.621,0,0,0,.9,2.467,3.621,3.621,0,0,0-.624,1.94l-.322.533-.06.021a3.624,3.624,0,0,0-2.175,2.1,3.618,3.618,0,0,0-.251,1.373,3.664,3.664,0,0,0-.242.465,3.652,3.652,0,0,0-.318.195l-.348-.025c-.087-.006-.175-.01-.262-.01a3.611,3.611,0,0,0-1.317.249,3.487,3.487,0,0,0-.49-.033,3.626,3.626,0,0,0-2.778,1.292l-.857,1.019-.945,1.054a3.626,3.626,0,0,0-.927,2.422v.356a3.638,3.638,0,0,0-1.255,1l-1.3,1.629a3.622,3.622,0,0,0-.76,2.757A3.613,3.613,0,0,0-110.7.265l.361.26.352.255A3.637,3.637,0,0,0-108.842,2.1l4.637,3.274a3.531,3.531,0,0,0,.637.359l2.324,1.019,1.374.8a3.623,3.623,0,0,0,.921.377l.133.166a3.625,3.625,0,0,0,1.4,1.069,3.627,3.627,0,0,0,1.38,1.477l1.187.706a3.661,3.661,0,0,0,.865.373l3.586,1.017a3.62,3.62,0,0,0,.988.137h3.077a3.621,3.621,0,0,0,1.933-.558l2.3,1.743a3.637,3.637,0,0,0,1.808.716l1.348.143,1.113.556a3.621,3.621,0,0,0,1.62.384,3.839,3.839,0,0,0,.479-.031l.988.649a3.6,3.6,0,0,0,1.191.506,3.494,3.494,0,0,0,.39.359l1.6,1.274.137.376a3.49,3.49,0,0,0,.3.626l.029.048v.087a3.625,3.625,0,0,0,1.527,2.957l.94.668a3.608,3.608,0,0,0,1.446.61l.664.594c.062.054.124.108.189.157l1.091.849a3.649,3.649,0,0,0,.822.481,3.476,3.476,0,0,0,.089.606l.212.911a3.614,3.614,0,0,0,1.461,2.152l1.394.971c.023.017.045.031.068.046a3.627,3.627,0,0,0,1.444,3.251l1.426,1.062a3.487,3.487,0,0,0,.357.235l1.209.7a3.619,3.619,0,0,0,1.808.484,3.641,3.641,0,0,0,.815-.094l1.183-.273.936-.216.8.228a3.613,3.613,0,0,0,1,.139,3.587,3.587,0,0,0,.854-.1l1.874-.454,1.326-.22a3.622,3.622,0,0,0,1.643-.726,3.631,3.631,0,0,0,1.438.429l1.486.12c.1.009.2.013.295.013a3.59,3.59,0,0,0,1.056-.158l1.294-.394.42.475a3.613,3.613,0,0,0,1.305.94l-2.992,5.837a3.632,3.632,0,0,0-.1,3.094A3.615,3.615,0,0,0-38,47.173l1.789.517a3.677,3.677,0,0,0,1,.141,3.682,3.682,0,0,0,.628-.054l.88.94a3.622,3.622,0,0,0,2.646,1.148,3.76,3.76,0,0,0,.641-.056l1.183-.212a3.626,3.626,0,0,0,2.938-2.988l1.535-9.486,2.283-11.348.624-2.71a3.631,3.631,0,0,0-.261-2.38l-1.613-3.372.077-1a3.619,3.619,0,0,0-1.531-3.243l-2.143-1.507-.32-.259V9.8c.075-.044.149-.089.222-.139l.581-.392.187.118a3.626,3.626,0,0,0,1.936.56,3.606,3.606,0,0,0,1.465-.309l1.305-.577a3.625,3.625,0,0,0,2.16-3.315V3.778A3.621,3.621,0,0,0-21.515.687l-.73-.448.133,0,3.494.151c.029,0,.058,0,.087,0l3.154.06h.07A3.616,3.616,0,0,0-14.02.22,3.684,3.684,0,0,0-13.4.274h.426A3.543,3.543,0,0,0-12.259.2l1.366-.274A3.621,3.621,0,0,0-9.428-.726l-.007.041A3.648,3.648,0,0,0-9.445.2l.183,1.637A3.627,3.627,0,0,0-7.868,4.312a3.631,3.631,0,0,0,2.21.751,3.357,3.357,0,0,0,.539-.042L-2.9,4.687A3.62,3.62,0,0,0-.363,3.013,3.626,3.626,0,0,0,0,0M-5.667,1.444-5.849-.193-5.7-1.316l.152-1.7L-7.063-5.2-8.337-6.715l-1.668.7-1.608,2.4-1.366.274H-13.4l-.82-1.486-.848-.454-.577.911.334,1.214-3.154-.06-3.519-.152L-25.324-3.5l-1.638-.395-2.456,1,.031,3.882.363,1.031,1,.546,3.125.3,1.486.91V5.754l-1.306.577-1.728-1.092-1.7.546-1.306.88-1.819.031v6.339l1.759,1.425,2.245,1.577-.151,1.971,2.031,4.246-.63,2.757-2.306,11.464-1.548,9.553-1.182.212-2.245-2.4-1.911.363L-37,43.69l4.853-9.464-.728-.637h-.788l-1.214-.728h-.94l-1.123-1.275-1.365-.879-1.606.577-1.4.425-1.485-.12-1.546-1.183-1.457.06-.971,1.457-1.456.243-2,.485-1.7-.485-1.851.425-1.183.274-1.213-.7L-57.6,31.1l.486-1.546-.218-1.334-.571-.7-1.305.212-1.394-.971-.212-.911.274-.911-.517-.94-.911-1.274h-1.062l-1.091-.849-1.426-1.274-1-.183-.94-.667V18.668l-.546-.911-.485-1.334-2.4-1.911-.911-1.062h-.939l-2.123-1.395-1.334.183-1.7-.849-2-.212-3.092-2.342-2-.423-1.328.846h-3.077l-3.586-1.017-1.186-.705L-94.5,6.067-96,5.841l-1.016-1.27-1.046-.141-1.552-.9-2.513-1.1-4.637-3.275v-.5l-1.472-1.062-.361-.259,1.3-1.629,1.822.135,1.019.226.114-.973-.249-.974-.577-.091-.079-.792V-7.918l.984-1.1.894-1.062.633.407,1.177-.623.94.069h1.051l.669-.669,1.458.135.034-.711.1-1.166,1.1-.905-.554-1.052,1.288-.452,1.449-2.4.091-.531-.023-.5,1.37-1.029.147-.61.465-.793.442-.94-1.482.181-.124-.872.5-.826-.5-.305-.8,1.085-.282-.317.033-1.538,1.062-.78-.7-.452-.1-.735.521-1.933.373-1.007-.792-.917.091-1.618-.079-.871.056-1.449-.645-1.052-1-.486,1.222-1.006,1.019-.544.317-1.074-.747-1.662-1.255-1.449.259-1,.567.351.135-.769s.17-1.03.17-1.1.17-.94.17-.94l-.531-1.042-.747-.045-.237-.509-1.131-.938.117-1.386-1.781-2.121.324-1.568.784-.6v-1.326l.378-.3,1.11.946,1.65-.919-.027-.488.514-1.407.92-.054.242-.622L-93.314-60l-.7-.784L-94.5-61.9l1.272-1,1.326,1.948,2.49,2.868.243.676-.434.38.434.514,1.029-.323.108-1.353-.407-1.054.108-1.515-1.488-1.218.324-.676L-87.931-63l1.894-.946,2.029-2.029.6-.785.811-1.514,1.7-1.111.919.135h1.73l.162-1.813-.967-.7.758-.946.46-2.461-.838-.3.919-1.569.324-2.245,3.544-2.029.919-1.515,1.488-.865,2.786.919.027,1.245-.541.108-.324.433.6.135h.406l.677.324.784-1.84.623-.65.323-1.921,1.272-.7,2.057.893,4.355-.082,3.706-3.029,3.923-1.488,1.245-.784.919-2.706.65-.161.568.487.812-.351-.38-.46.515-.488.784.135,1.784-.892,2.841,1.027,1.164,2.218-1.921,1.677L-46.1-88.4l-1.542,1-2.218,3.679-1.622.188-1.948,2.165-1.407,3.137-.812,3.164-.134,2.706-1.38,2.245-1.353,2.434-.973.541.39.293,1.651-.1.986-.856.89,1.525,1.175.19,1.112,3.526,2,2.413.795,1.716-.444,1.525-.762,1.525.318,3.557,1.491.126.731,2.16,1.62,1.017L-45.505-49l3.272.287,1.461.8.444-.064h.921l1.621-.8,1.207-.191,2.668,1.113,2.447-.031,1.587,1.938,4.14,5.011.772.012.921.56,1.757-1.147,3.353.573,1.023-.187,3.042-.274,1.471-.262,1.8-.632,2.3.578.911,1.789-.88.668-1,1.669-.091,1.365-.525,1.064-1.062,1.123.334,3.093-.789,3.671.637.729.123,2.213,1.031,2.094.394,1.94H-8.91l.668,1.789.971.91-1.637,2-2.305,2.122-.454.911,1.942.334L-7.42-9.622l1.274,1.609L-5.6-6.982-5.66-5.8l.334,1.183.911,1.577.122,1.517.849,2.639Z" transform="translate(601.4 6017.176)" fill="#56cdf2"/><path d="M0,0-.72-2.237l-.087-1.1A3.675,3.675,0,0,0-1.28-4.855L-1.965-6.04l-.05-.172.031-.588A3.615,3.615,0,0,0-2.4-8.682l-.545-1.031a3.66,3.66,0,0,0-.363-.556l-1.274-1.608c-.04-.05-.081-.1-.125-.149l-1.268-1.436,1.509-1.845a3.627,3.627,0,0,0-.326-4.94l-.351-.328-.371-.994A3.635,3.635,0,0,0-7.21-23.5a3.676,3.676,0,0,0-.148-.342l-.7-1.428-.081-1.475a3.622,3.622,0,0,0-.363-1.394l.44-2.044a3.642,3.642,0,0,0,.06-1.15l-.154-1.433a3.632,3.632,0,0,0,.54-.81l.517-1.062a3.647,3.647,0,0,0,.356-1.343l.034-.491.191-.318.321-.245a3.626,3.626,0,0,0,1.04-4.531l-.911-1.789A3.62,3.62,0,0,0-8.42-45.233l-2.3-.579a3.624,3.624,0,0,0-.882-.11,3.608,3.608,0,0,0-1.2.205l-1.517.535L-15.352-45l-2.887.259c-.11.011-.217.025-.327.044l-.39.071-2.721-.465a3.586,3.586,0,0,0-.612-.052,3.618,3.618,0,0,0-1.815.487l-2.98-3.608-1.579-1.927a3.624,3.624,0,0,0-2.8-1.328h-.048l-1.695.022-1.976-.823a3.62,3.62,0,0,0-1.394-.278,3.665,3.665,0,0,0-.564.043l-1.208.191a3.612,3.612,0,0,0-1.031.326l-.718.352-.4-.217a3.578,3.578,0,0,0-1.415-.426l-3.272-.286c-.106-.008-.209-.015-.315-.015a3.616,3.616,0,0,0-.828.1l-.008,0-.112-.334a3.621,3.621,0,0,0-1.5-1.9l.262-.521a3.819,3.819,0,0,0,.238-.6l.444-1.526a3.619,3.619,0,0,0-.19-2.537l-.795-1.716a3.635,3.635,0,0,0-.5-.791l-1.548-1.867-.9-2.849a3.629,3.629,0,0,0-2.326-2.355l.572-.934a3.592,3.592,0,0,0,.531-1.716l.117-2.34.643-2.511,1.048-2.336.651-.725.264-.031a3.624,3.624,0,0,0,2.685-1.728l1.786-2.965.394-.255,3.762-1.1a3.588,3.588,0,0,0,1.372-.751l1.921-1.677a3.624,3.624,0,0,0,.826-4.413l-1.164-2.218a3.633,3.633,0,0,0-1.977-1.726l-2.841-1.028A3.621,3.621,0,0,0-43.91-98.2a3.63,3.63,0,0,0-1.62.381l-.76.38c-.062,0-.126,0-.188,0a3.635,3.635,0,0,0-2.422.925l-.622.156a3.625,3.625,0,0,0-2.552,2.351l-.492,1.446-3.449,1.307a3.678,3.678,0,0,0-1.008.583l-2.735,2.235-2.311.044-1.332-.579a3.614,3.614,0,0,0-1.445-.3,3.644,3.644,0,0,0-1.755.452l-1.272.7a3.613,3.613,0,0,0-1.371,1.336l-1.1-.361a3.6,3.6,0,0,0-1.135-.183,3.621,3.621,0,0,0-1.824.492l-1.488.865a3.648,3.648,0,0,0-1.276,1.254L-76.5-84l-2.733,1.564a3.623,3.623,0,0,0-1.787,2.627l-.224,1.543-.56.957a3.624,3.624,0,0,0-.278,3.075c.037.1.077.2.123.295A3.607,3.607,0,0,0-82.58-72.6c-.1.052-.193.108-.286.168l-1.7,1.11A3.641,3.641,0,0,0-85.788-70l-.676,1.264-.274.359-1.438,1.438-.971.485-1.137.256a3.577,3.577,0,0,0-.872.317,3.63,3.63,0,0,0-1.514-.606,3.571,3.571,0,0,0-.554-.041,3.618,3.618,0,0,0-2.243.776l-1.272,1a3.624,3.624,0,0,0-1.077,4.305l.487,1.11a3.585,3.585,0,0,0,.621.963l0,0a3.619,3.619,0,0,0-1.9.76l-.377.3a3.635,3.635,0,0,0-1.368,2.5,3.6,3.6,0,0,0-.726,1.539l-.324,1.569a3.626,3.626,0,0,0,.774,3.064l.82.978a3.629,3.629,0,0,0,1.305,2.99l.523.433c.039.071.081.139.124.206a3.625,3.625,0,0,0-.234.643l-.259,1a3.621,3.621,0,0,0,.769,3.291l.235.27-.355.292a3.632,3.632,0,0,0-1.295,3.222,3.632,3.632,0,0,0,1.559,2.571c0,.106.006.214.014.32l.056.606-.075,1.353a3.635,3.635,0,0,0,.37,1.807l-.353,1.309a3.57,3.57,0,0,0-.089,1.44l0,.029a3.659,3.659,0,0,0-.3,1.361l-.033,1.538a3.621,3.621,0,0,0,.9,2.467,3.621,3.621,0,0,0-.624,1.94l-.322.533-.06.021a3.624,3.624,0,0,0-2.175,2.1,3.618,3.618,0,0,0-.251,1.373,3.664,3.664,0,0,0-.242.465,3.652,3.652,0,0,0-.318.195l-.348-.025c-.087-.006-.175-.01-.262-.01a3.611,3.611,0,0,0-1.317.249,3.487,3.487,0,0,0-.49-.033,3.626,3.626,0,0,0-2.778,1.292l-.857,1.019-.945,1.054a3.626,3.626,0,0,0-.927,2.422v.356a3.638,3.638,0,0,0-1.255,1l-1.3,1.629a3.622,3.622,0,0,0-.76,2.757A3.613,3.613,0,0,0-110.7.265l.361.26.352.255A3.637,3.637,0,0,0-108.842,2.1l4.637,3.274a3.531,3.531,0,0,0,.637.359l2.324,1.019,1.374.8a3.623,3.623,0,0,0,.921.377l.133.166a3.625,3.625,0,0,0,1.4,1.069,3.627,3.627,0,0,0,1.38,1.477l1.187.706a3.661,3.661,0,0,0,.865.373l3.586,1.017a3.62,3.62,0,0,0,.988.137h3.077a3.621,3.621,0,0,0,1.933-.558l2.3,1.743a3.637,3.637,0,0,0,1.808.716l1.348.143,1.113.556a3.621,3.621,0,0,0,1.62.384,3.839,3.839,0,0,0,.479-.031l.988.649a3.6,3.6,0,0,0,1.191.506,3.494,3.494,0,0,0,.39.359l1.6,1.274.137.376a3.49,3.49,0,0,0,.3.626l.029.048v.087a3.625,3.625,0,0,0,1.527,2.957l.94.668a3.608,3.608,0,0,0,1.446.61l.664.594c.062.054.124.108.189.157l1.091.849a3.649,3.649,0,0,0,.822.481,3.476,3.476,0,0,0,.089.606l.212.911a3.614,3.614,0,0,0,1.461,2.152l1.394.971c.023.017.045.031.068.046a3.627,3.627,0,0,0,1.444,3.251l1.426,1.062a3.487,3.487,0,0,0,.357.235l1.209.7a3.619,3.619,0,0,0,1.808.484,3.641,3.641,0,0,0,.815-.094l1.183-.273.936-.216.8.228a3.613,3.613,0,0,0,1,.139,3.587,3.587,0,0,0,.854-.1l1.874-.454,1.326-.22a3.622,3.622,0,0,0,1.643-.726,3.631,3.631,0,0,0,1.438.429l1.486.12c.1.009.2.013.295.013a3.59,3.59,0,0,0,1.056-.158l1.294-.394.42.475a3.613,3.613,0,0,0,1.305.94l-2.992,5.837a3.632,3.632,0,0,0-.1,3.094A3.615,3.615,0,0,0-38,47.173l1.789.517a3.677,3.677,0,0,0,1,.141,3.682,3.682,0,0,0,.628-.054l.88.94a3.622,3.622,0,0,0,2.646,1.148,3.76,3.76,0,0,0,.641-.056l1.183-.212a3.626,3.626,0,0,0,2.938-2.988l1.535-9.486,2.283-11.348.624-2.71a3.631,3.631,0,0,0-.261-2.38l-1.613-3.372.077-1a3.619,3.619,0,0,0-1.531-3.243l-2.143-1.507-.32-.259V9.8c.075-.044.149-.089.222-.139l.581-.392.187.118a3.626,3.626,0,0,0,1.936.56,3.606,3.606,0,0,0,1.465-.309l1.305-.577a3.625,3.625,0,0,0,2.16-3.315V3.778A3.621,3.621,0,0,0-21.515.687l-.73-.448.133,0,3.494.151c.029,0,.058,0,.087,0l3.154.06h.07A3.616,3.616,0,0,0-14.02.22,3.684,3.684,0,0,0-13.4.274h.426A3.543,3.543,0,0,0-12.259.2l1.366-.274A3.621,3.621,0,0,0-9.428-.726l-.007.041A3.648,3.648,0,0,0-9.445.2l.183,1.637A3.627,3.627,0,0,0-7.868,4.312a3.631,3.631,0,0,0,2.21.751,3.357,3.357,0,0,0,.539-.042L-2.9,4.687A3.62,3.62,0,0,0-.363,3.013,3.626,3.626,0,0,0,0,0ZM-5.667,1.444-5.849-.193-5.7-1.316l.152-1.7L-7.063-5.2-8.337-6.715l-1.668.7-1.608,2.4-1.366.274H-13.4l-.82-1.486-.848-.454-.577.911.334,1.214-3.154-.06-3.519-.152L-25.324-3.5l-1.638-.395-2.456,1,.031,3.882.363,1.031,1,.546,3.125.3,1.486.91V5.754l-1.306.577-1.728-1.092-1.7.546-1.306.88-1.819.031v6.339l1.759,1.425,2.245,1.577-.151,1.971,2.031,4.246-.63,2.757-2.306,11.464-1.548,9.553-1.182.212-2.245-2.4-1.911.363L-37,43.69l4.853-9.464-.728-.637h-.788l-1.214-.728h-.94l-1.123-1.275-1.365-.879-1.606.577-1.4.425-1.485-.12-1.546-1.183-1.457.06-.971,1.457-1.456.243-2,.485-1.7-.485-1.851.425-1.183.274-1.213-.7L-57.6,31.1l.486-1.546-.218-1.334-.571-.7-1.305.212-1.394-.971-.212-.911.274-.911-.517-.94-.911-1.274h-1.062l-1.091-.849-1.426-1.274-1-.183-.94-.667V18.668l-.546-.911-.485-1.334-2.4-1.911-.911-1.062h-.939l-2.123-1.395-1.334.183-1.7-.849-2-.212-3.092-2.342-2-.423-1.328.846h-3.077l-3.586-1.017-1.186-.705L-94.5,6.067-96,5.841l-1.016-1.27-1.046-.141-1.552-.9-2.513-1.1-4.637-3.275v-.5l-1.472-1.062-.361-.259,1.3-1.629,1.822.135,1.019.226.114-.973-.249-.974-.577-.091-.079-.792V-7.918l.984-1.1.894-1.062.633.407,1.177-.623.94.069h1.051l.669-.669,1.458.135.034-.711.1-1.166,1.1-.905-.554-1.052,1.288-.452,1.449-2.4.091-.531-.023-.5,1.37-1.029.147-.61.465-.793.442-.94-1.482.181-.124-.872.5-.826-.5-.305-.8,1.085-.282-.317.033-1.538,1.062-.78-.7-.452-.1-.735.521-1.933.373-1.007-.792-.917.091-1.618-.079-.871.056-1.449-.645-1.052-1-.486,1.222-1.006,1.019-.544.317-1.074-.747-1.662-1.255-1.449.259-1,.567.351.135-.769s.17-1.03.17-1.1.17-.94.17-.94l-.531-1.042-.747-.045-.237-.509-1.131-.938.117-1.386-1.781-2.121.324-1.568.784-.6v-1.326l.378-.3,1.11.946,1.65-.919-.027-.488.514-1.407.92-.054.242-.622L-93.314-60l-.7-.784L-94.5-61.9l1.272-1,1.326,1.948,2.49,2.868.243.676-.434.38.434.514,1.029-.323.108-1.353-.407-1.054.108-1.515-1.488-1.218.324-.676L-87.931-63l1.894-.946,2.029-2.029.6-.785.811-1.514,1.7-1.111.919.135h1.73l.162-1.813-.967-.7.758-.946.46-2.461-.838-.3.919-1.569.324-2.245,3.544-2.029.919-1.515,1.488-.865,2.786.919.027,1.245-.541.108-.324.433.6.135h.406l.677.324.784-1.84.623-.65.323-1.921,1.272-.7,2.057.893,4.355-.082,3.706-3.029,3.923-1.488,1.245-.784.919-2.706.65-.161.568.487.812-.351-.38-.46.515-.488.784.135,1.784-.892,2.841,1.027,1.164,2.218-1.921,1.677L-46.1-88.4l-1.542,1-2.218,3.679-1.622.188-1.948,2.165-1.407,3.137-.812,3.164-.134,2.706-1.38,2.245-1.353,2.434-.973.541.39.293,1.651-.1.986-.856.89,1.525,1.175.19,1.112,3.526,2,2.413.795,1.716-.444,1.525-.762,1.525.318,3.557,1.491.126.731,2.16,1.62,1.017L-45.505-49l3.272.287,1.461.8.444-.064h.921l1.621-.8,1.207-.191,2.668,1.113,2.447-.031,1.587,1.938,4.14,5.011.772.012.921.56,1.757-1.147,3.353.573,1.023-.187,3.042-.274,1.471-.262,1.8-.632,2.3.578.911,1.789-.88.668-1,1.669-.091,1.365-.525,1.064-1.062,1.123.334,3.093-.789,3.671.637.729.123,2.213,1.031,2.094.394,1.94H-8.91l.668,1.789.971.91-1.637,2-2.305,2.122-.454.911,1.942.334L-7.42-9.622l1.274,1.609L-5.6-6.982-5.66-5.8l.334,1.183.911,1.577.122,1.517.849,2.639Z" transform="translate(601.4 6017.176)" fill="none" stroke="#ebecec" stroke-width="0.25"/></g></svg>