<svg xmlns="http://www.w3.org/2000/svg" width="212.25" height="212.25" viewBox="0 0 212.25 212.25"><g transform="translate(-1192.342 -3833.511)"><path d="M0,0A106.125,106.125,0,0,0,106.125-106.125,106.125,106.125,0,0,0,0-212.25,106.125,106.125,0,0,0-106.125-106.125,106.125,106.125,0,0,0,0,0" transform="translate(1298.467 4045.761)" fill="#ebecec"/><path d="M0,0H-20a7.5,7.5,0,0,0-6.524-3.975A7.3,7.3,0,0,0-30.763-2.61a7.6,7.6,0,0,0-7.125-5.34,7.3,7.3,0,0,0-4.241,1.365,7.6,7.6,0,0,0-7.125-5.34,7.6,7.6,0,0,0-7.125,5.34A7.3,7.3,0,0,0-60.62-7.95,7.778,7.778,0,0,0-68.2,0H-87.141a1.827,1.827,0,0,0-.847.209l-18.944,9.937a2,2,0,0,0-1.048,1.78,2,2,0,0,0,1.048,1.778l18.944,9.938a1.827,1.827,0,0,0,.847.209h11.366v15.9A15.8,15.8,0,0,0-64.409,55.129V63.6H-66.3A1.942,1.942,0,0,0-68.2,65.59v43.726A1.942,1.942,0,0,0-66.3,111.3h37.887a1.942,1.942,0,0,0,1.9-1.987V65.59a1.942,1.942,0,0,0-1.9-1.988H-30.31V53.5a16.05,16.05,0,0,0,7.577-13.75V26.721A7.791,7.791,0,0,0-20,23.851H0a9.724,9.724,0,0,0,9.472-9.938V9.938A9.724,9.724,0,0,0,0,0M-37.888-3.975A3.889,3.889,0,0,1-34.1,0V23.851h-7.577V0a3.889,3.889,0,0,1,3.788-3.975m-15.155,0A3.89,3.89,0,0,1-49.254-7.95a3.889,3.889,0,0,1,3.789,3.975V23.851h-7.578v-5.08a8,8,0,0,0,3.789-6.845A8,8,0,0,0-53.043,5.08V-3.975Zm-3.788,27.826H-60.62V19.876h3.789ZM-60.62-3.975A3.89,3.89,0,0,1-56.831,0V3.975h-7.578V0A3.889,3.889,0,0,1-60.62-3.975M-73.157,5.963h-7.517l-1.894-1.988H-68.2a7.314,7.314,0,0,0-4.959,1.988m-2.618,7.95h-4.9l-1.894-1.987,1.894-1.988h5.168a8.2,8.2,0,0,0-.269,1.988Zm-10.811-.582,2.449,2.57-3.378,3.543-3.415-1.79V6.2l3.415-1.791,3.378,3.544-2.449,2.57a2.055,2.055,0,0,0,0,2.811m-8.133-5.146v7.481l-7.13-3.74Zm12.151,11.691,1.894-1.988h4.9v1.988Zm52.258,87.452h-34.1V67.577h34.1Zm3.789-67.577c0,6.577-5.1,11.926-11.367,11.926v3.975a14.4,14.4,0,0,0,3.789-.523V63.6H-60.62v-7.95h3.789V51.677H-60.62c-6.269,0-11.366-5.349-11.366-11.926V11.926A3.889,3.889,0,0,1-68.2,7.95h11.367a3.889,3.889,0,0,1,3.788,3.976A3.889,3.889,0,0,1-56.831,15.9h-5.684a1.942,1.942,0,0,0-1.894,1.987V31.8H-68.2v3.975h7.578a7.778,7.778,0,0,1,7.577,7.95h3.789a3.889,3.889,0,0,1,3.789-3.975h7.577V35.776h-7.577a7.353,7.353,0,0,0-5.2,2.2A11.3,11.3,0,0,0-60.62,31.8V27.826h34.1Zm3.788-19.875a3.889,3.889,0,0,1-3.788,3.975H-30.31V3.975A3.889,3.889,0,0,1-26.521,0a3.889,3.889,0,0,1,3.788,3.975Zm17.05-5.963H-18.944V9.938H-5.683Zm0-7.95H-18.944V3.975H-5.683Zm0-1.988M-18.944,17.888H-5.683v1.988H-18.944ZM5.683,13.913A5.836,5.836,0,0,1,0,19.876H-1.894V3.975H0A5.835,5.835,0,0,1,5.683,9.938Z" transform="translate(1346.777 3894.716)" fill="#b81370"/><path d="M0,0H-20a7.5,7.5,0,0,0-6.524-3.975A7.3,7.3,0,0,0-30.763-2.61a7.6,7.6,0,0,0-7.125-5.34,7.3,7.3,0,0,0-4.241,1.365,7.6,7.6,0,0,0-7.125-5.34,7.6,7.6,0,0,0-7.125,5.34A7.3,7.3,0,0,0-60.62-7.95,7.778,7.778,0,0,0-68.2,0H-87.141a1.827,1.827,0,0,0-.847.209l-18.944,9.937a2,2,0,0,0-1.048,1.78,2,2,0,0,0,1.048,1.778l18.944,9.938a1.827,1.827,0,0,0,.847.209h11.366v15.9A15.8,15.8,0,0,0-64.409,55.129V63.6H-66.3A1.942,1.942,0,0,0-68.2,65.59v43.726A1.942,1.942,0,0,0-66.3,111.3h37.887a1.942,1.942,0,0,0,1.9-1.987V65.59a1.942,1.942,0,0,0-1.9-1.988H-30.31V53.5a16.05,16.05,0,0,0,7.577-13.75V26.721A7.791,7.791,0,0,0-20,23.851H0a9.724,9.724,0,0,0,9.472-9.938V9.938A9.724,9.724,0,0,0,0,0ZM-37.888-3.975A3.889,3.889,0,0,1-34.1,0V23.851h-7.577V0A3.889,3.889,0,0,1-37.888-3.975Zm-15.155,0A3.89,3.89,0,0,1-49.254-7.95a3.889,3.889,0,0,1,3.789,3.975V23.851h-7.578v-5.08a8,8,0,0,0,3.789-6.845A8,8,0,0,0-53.043,5.08V-3.975Zm-3.788,27.826H-60.62V19.876h3.789ZM-60.62-3.975A3.89,3.89,0,0,1-56.831,0V3.975h-7.578V0A3.889,3.889,0,0,1-60.62-3.975ZM-73.157,5.963h-7.517l-1.894-1.988H-68.2A7.314,7.314,0,0,0-73.157,5.963Zm-2.618,7.95h-4.9l-1.894-1.987,1.894-1.988h5.168a8.2,8.2,0,0,0-.269,1.988Zm-10.811-.582,2.449,2.57-3.378,3.543-3.415-1.79V6.2l3.415-1.791,3.378,3.544-2.449,2.57A2.055,2.055,0,0,0-86.586,13.331Zm-8.133-5.146v7.481l-7.13-3.74Zm12.151,11.691,1.894-1.988h4.9v1.988Zm52.258,87.452h-34.1V67.577h34.1Zm3.789-67.577c0,6.577-5.1,11.926-11.367,11.926v3.975a14.4,14.4,0,0,0,3.789-.523V63.6H-60.62v-7.95h3.789V51.677H-60.62c-6.269,0-11.366-5.349-11.366-11.926V11.926A3.889,3.889,0,0,1-68.2,7.95h11.367a3.889,3.889,0,0,1,3.788,3.976A3.889,3.889,0,0,1-56.831,15.9h-5.684a1.942,1.942,0,0,0-1.894,1.987V31.8H-68.2v3.975h7.578a7.778,7.778,0,0,1,7.577,7.95h3.789a3.889,3.889,0,0,1,3.789-3.975h7.577V35.776h-7.577a7.353,7.353,0,0,0-5.2,2.2A11.3,11.3,0,0,0-60.62,31.8V27.826h34.1Zm3.788-19.875a3.889,3.889,0,0,1-3.788,3.975H-30.31V3.975A3.889,3.889,0,0,1-26.521,0a3.889,3.889,0,0,1,3.788,3.975Zm17.05-5.963H-18.944V9.938H-5.683Zm0-7.95H-18.944V3.975H-5.683Zm0-1.988M-18.944,17.888H-5.683v1.988H-18.944ZM5.683,13.913A5.836,5.836,0,0,1,0,19.876H-1.894V3.975H0A5.835,5.835,0,0,1,5.683,9.938Z" transform="translate(1346.777 3894.716)" fill="none" stroke="#ebecec" stroke-width="0.6"/></g></svg>