<svg xmlns="http://www.w3.org/2000/svg" width="287.984" height="292.604" viewBox="0 0 287.984 292.604"><path d="M493.235,895.725c-4.37-4.874-7.914-8.952-11.176-12.859-3.624-4.189-7.081-8.617-10.256-13.132a75.556,75.556,0,0,1-5.822-11.041c-.645-1.4-1.291-2.808-1.937-4.134a50.035,50.035,0,0,0-4.316-7.794,20.589,20.589,0,0,0-1.355-1.631c-1.054-1.177-1.56-1.788-1.564-2.8-.017-4.152-.012-8.307-.006-12.461l.006-23.981c0-.5-.039-1.091-.084-1.734-.091-1.3-.28-4.018.443-4.5a5.323,5.323,0,0,1,1.451-.463,12.291,12.291,0,0,0,1.539-.428,17.789,17.789,0,0,0,3.5-1.727c4.148-2.679,6.547-7.913,6.261-13.661-.127-2.528-.127-2.528,1.324-2.736a18.992,18.992,0,0,0,7.684-2.782c4.42-2.847,6.519-7.875,6.239-14.941-.008-.189-.018-.368-.029-.537-.015-.259-.036-.613-.041-.652a.854.854,0,0,1,.135-.134c.267-.231.568-.3,1.361-.424.3-.048.609-.1.9-.162a18.023,18.023,0,0,0,7.524-3.5c4.739-3.915,5.678-10.913,4.171-15.75a13.742,13.742,0,0,0-5.329-7.506,15.105,15.105,0,0,0-3.388-1.536,8.874,8.874,0,0,1-2.825-1.352c-.409-.371-.275-1.983-.187-3.049a13.2,13.2,0,0,0,.014-3.164,16.441,16.441,0,0,0-3.083-7.4c-3.881-5.017-10.129-5.724-16.3-5.741-3.177-.01-6.353,0-9.526.005q-3.99.009-7.978.008l-.591,0a7.143,7.143,0,0,1-2.161-.164,1.377,1.377,0,0,1-.089-.593c-.006-.714.363-1.173,1.341-2.208a14.337,14.337,0,0,0,1.509-1.8c3.116-4.6,3.66-9.709,1.521-14.406a16.376,16.376,0,0,0-10.425-8.819c-4.565-1.329-9.692.37-14.824,4.915l-2.086,1.851c-3.677,3.261-7.478,6.634-11.3,9.843-3.739,3.143-8.392,7.054-13.11,10.337a76.656,76.656,0,0,1-12.031,6.424c-.927.427-1.858.856-2.745,1.275a63.873,63.873,0,0,0-7.66,4.029,31.085,31.085,0,0,0-3.07,2.254c-.283.237-.559.505-.835.776a3.96,3.96,0,0,1-1.129.907,9,9,0,0,1-2.7.046c-.574-.04-1.131-.077-1.635-.077H354.829q-9.015,0-18.03.006l-5.15.006c-.327,0-.688.022-1.063.048a5.6,5.6,0,0,1-1.672-.036c-.339-.15-.425-.664-.384-2.291a14.935,14.935,0,0,0-.021-1.691c-.511-5.821-3.059-10.544-7.038-12.984a17.341,17.341,0,0,0-7.55-2.282,13.732,13.732,0,0,0-2.157.047c-2.1.16-2.362.011-2.5-.388a9.41,9.41,0,0,1-.327-1.726,13.557,13.557,0,0,0-.456-2.355,20.02,20.02,0,0,0-1.574-3.685,12.623,12.623,0,0,0-5.632-5.417,17.217,17.217,0,0,0-8.64-1.749c-2.647.119-2.646.12-3.026-1.827-1.12-5.732-4.385-9.913-9.191-11.774a15.473,15.473,0,0,0-15.81,2.755l-.125.119a16.437,16.437,0,0,0-4.048,7.082c-.414,1.276-.627,1.494-2.32,1.407-6.4-.335-10.977,1.382-14,5.24-3.621,4.62-3.61,10.359-3.6,15.423v9.819c0,.981.044,2,.089,3.036a33.919,33.919,0,0,1-.058,5.632.594.594,0,0,1-.4.533,1.484,1.484,0,0,1-1.4-.207c-.531-.4-1.02-.819-1.538-1.263a16.181,16.181,0,0,0-4.315-2.927,13.95,13.95,0,0,0-14.6,1.854c-3.235,2.459-6.576,7.382-6.268,12.377.342,5.5,4.044,9.572,7.309,13.161.418.459.831.912,1.231,1.363q1.3,1.463,2.618,2.935c6.643,7.435,13.512,15.123,18.56,23.588a89.126,89.126,0,0,1,4.47,8.992c.832,1.847,1.694,3.756,2.607,5.58A36.878,36.878,0,0,0,253.4,802.3c.245.291.519.573.8.854a4.261,4.261,0,0,1,.94,1.17,7.4,7.4,0,0,1,.047,2.19c-.031.464-.059.915-.059,1.321q-.009,18.32-.01,36.636c0,.266.011.531.021.792.034.839.016,1.116-.1,1.258a4.326,4.326,0,0,1-1.661.732l-.14.034a16.216,16.216,0,0,0-5.764,2.969,13.585,13.585,0,0,0-4.027,6.013,18.389,18.389,0,0,0-.964,4.326,14.038,14.038,0,0,0,.038,2.52,10,10,0,0,1,.037,1.852c-.054.442-.169.652-2.339.981a14.76,14.76,0,0,0-1.97.389,16.068,16.068,0,0,0-7,3.931l-.1.1a15.327,15.327,0,0,0-3.71,7.577,14.278,14.278,0,0,0-.03,3.575,8.227,8.227,0,0,1-.121,3.215c-.082.162-.337.244-1.239.4-.249.043-.5.087-.737.139a21.538,21.538,0,0,0-3.953,1.247,13.856,13.856,0,0,0-5.893,4.433,15.58,15.58,0,0,0-.8,16.939,13.6,13.6,0,0,0,6.324,5.549,14.675,14.675,0,0,0,1.781.652c1,.317,2.122.676,2.272,1.18a6.751,6.751,0,0,1-.1,2.034,14.331,14.331,0,0,0-.167,1.989,14.936,14.936,0,0,0,.586,3.83,14.137,14.137,0,0,0,4.387,7.239c4.784,3.9,10.5,3.916,15.54,3.932,2.159,0,4.388-.055,6.536-.114a108.248,108.248,0,0,1,12.04.107,1.044,1.044,0,0,1,.758.326,1.43,1.43,0,0,1,.1,1.121,4.513,4.513,0,0,1-1.081,1.26,11.429,11.429,0,0,0-1.347,1.444c-3.542,4.775-4.229,10.151-1.923,15.164a16.227,16.227,0,0,0,9.43,8.375c5.028,1.8,10.454.141,16.135-4.944l2.949-2.648c7.589-6.824,15.435-13.879,23.916-19.522a80.06,80.06,0,0,1,11-5.8c1.008-.467,2.02-.936,2.994-1.4a70.34,70.34,0,0,0,7.6-3.986,28.936,28.936,0,0,0,3.392-2.515c.234-.2.457-.415.677-.628a3.151,3.151,0,0,1,1.145-.867,10.2,10.2,0,0,1,2.717-.043c.563.036,1.113.069,1.617.069l12.858.01q9.428.006,18.861-.01l5.143-.009.281-.02a4.968,4.968,0,0,1,2.09.146c.354.349.281,1.569.221,2.564a15.939,15.939,0,0,0-.04,1.813c.371,6.566,3.247,11.7,7.894,14.1a17.038,17.038,0,0,0,8.759,1.859l.276-.015c2.231-.122,2.256,0,2.4.652,1.054,4.608,2.365,10.344,8.371,13.087a16.707,16.707,0,0,0,8.165,1.489l.262-.02c2.407-.177,2.469.032,2.636.593.2.675.361,1.339.522,1.993a17.586,17.586,0,0,0,2.37,6.077,13.22,13.22,0,0,0,6.089,4.821,15.5,15.5,0,0,0,14.965-1.611,13.678,13.678,0,0,0,4.526-5.822,15.765,15.765,0,0,0,.578-1.618c.481-1.519.741-2.079,1.243-2.2a6.082,6.082,0,0,1,1.873.1,12.157,12.157,0,0,0,2.073.18,15.644,15.644,0,0,0,3.76-.616,14.681,14.681,0,0,0,6.837-3.826c4.422-4.709,4.433-10.952,4.442-16.513,0-2.161-.013-4.325-.03-6.489-.029-3.66-.059-7.444.018-11.144a1.926,1.926,0,0,1,.534-1.464.982.982,0,0,1,.851.013,4.088,4.088,0,0,1,.693.663c.233.255.464.5.7.719a16.644,16.644,0,0,0,3.2,2.314,14.078,14.078,0,0,0,15.385-.441,15.416,15.416,0,0,0,4.693-4.783,16.511,16.511,0,0,0,2.457-6.589l.005-.033C500.625,903.981,496.528,899.4,493.235,895.725Zm-32.764,20.261q.008,2.857.01,5.711v17.491c0,.557.036,1.172.075,1.815.1,1.593.217,3.575-.5,4.579a3.215,3.215,0,0,1-2.955,1.439l-.753-.007c-2.169-.018-2.84-.073-3.876-1.207-.444-.487-.459-.645-.457-1.94v-.182c-.008-3.684-.037-7.369-.066-11.052q-.025-3.291-.047-6.579c0-.5.022-1.042.047-1.612.1-2.323.227-5.213-1.153-7.345a4.924,4.924,0,0,0-7.727-.918c-2.105,2.132-1.955,5.411-1.845,7.8.021.466.042.91.043,1.313l.022,12.308c0,4.227.008,8.454.054,12.679.006.5.024,1.031.042,1.577.182,5.354-.259,7.29-3.1,7.492-2.164.156-3.6.048-4.542-.966-.907-.976-.946-2.255-.933-4.261v-.281q.029-8.691.028-17.379v-8.9c0-.673.031-1.376.062-2.088a21.393,21.393,0,0,0-.395-6.5,5.961,5.961,0,0,0-3.791-4.137,4.479,4.479,0,0,0-1.318-.2,4.637,4.637,0,0,0-3.036,1.187c-2.179,1.868-2.164,4.763-2.152,6.876v.671q-.021,2.625-.034,5.254c-.023,3.95-.046,7.9-.111,11.849-.041,2.517-.7,3.428-1.689,3.954a9.2,9.2,0,0,1-5.118.092c-2.139-1.011-2.133-4.143-1.9-8.122.05-.861.1-1.673.1-2.427q-.006-4.6,0-9.2c0-.384.017-.794.033-1.216.087-2.207.205-5.232-1.779-7.3a4.881,4.881,0,0,0-1.046-.859,4.842,4.842,0,0,0-6.616,1.557c-1.438,2.081-1.329,4.665-1.242,6.744.019.443.037.874.038,1.282.006,2.326-.395,3.334-1.64,4.064a7.584,7.584,0,0,1-4.848.294c-2.423-.816-2.434-4.1-2.2-8.3.047-.837.091-1.622.092-2.31.033-11.2.045-15.328-.124-17.028h.069l.007-5.337c.007-3.735.013-7.471-.01-11.206-.071-11.956,1.05-21.543,6.711-29.406a50.048,50.048,0,0,1,5.058-5.543c2.291-2.353,2.48-4.986,2.48-7.709q-.012-5.721,0-11.446l0-5.727q0-9.021-.014-18.044c0-.634-.057-1.371-.117-2.152-.117-1.533-.313-4.1.2-4.943.262-.429.711-.505,2.41-.405.444.027.879.059,1.312.049q8.907-.042,17.821-.076,4.461-.028,8.925-.027c.629,0,1.34-.052,2.093-.107,1.456-.1,3.655-.264,4.517.165.656.325.472,2.732.384,3.888-.047.61-.088,1.175-.088,1.65v34.9c0,.41-.016.842-.031,1.285-.082,2.316-.183,5.2,1.586,7.421a23.023,23.023,0,0,0,2.77,2.78,21.685,21.685,0,0,1,2.206,2.158,30.73,30.73,0,0,1,3.281,4.781,33.668,33.668,0,0,1,2.67,6.29c.135.434.258.863.38,1.286a16.263,16.263,0,0,0,2.455,5.615c2.293,3.073,4.749,6.091,7.123,9.009,1.215,1.492,2.428,2.984,3.622,4.484q5.617,7.068,11.252,14.118c.572.716,1.222,1.44,1.85,2.14,1.988,2.212,4.043,4.5,4.088,6.952a4.623,4.623,0,0,1-2.323,4.21,5.228,5.228,0,0,1-4.294,0,17.059,17.059,0,0,1-3.369-3.413c-.465-.562-.918-1.107-1.359-1.592q-2.871-3.176-5.748-6.348c-.188-.208-.387-.444-.6-.693-1.425-1.691-3.574-4.244-6.72-3.579-2.783.593-4.212,3.085-4.247,7.4C460.451,908.348,460.461,912.167,460.471,915.986Zm-76.838-30.712c.117,3.557.077,7.206.038,10.736-.023,2.064-.045,4.128-.039,6.189,0,.572.052,1.209.1,1.883.106,1.371.3,3.925-.333,4.583-.464.481-2.351.334-3.478.245-.615-.048-1.2-.091-1.706-.091l-34.027,0c-.567,0-1.18-.031-1.817-.062-2.5-.122-5.342-.264-7.672,1.038a13.609,13.609,0,0,0-3.5,3.2,18.238,18.238,0,0,1-1.531,1.646,31.643,31.643,0,0,1-10.639,6.243c-.68.24-1.419.432-2.2.634a17.536,17.536,0,0,0-4.645,1.69l-.1.067a61.506,61.506,0,0,0-6.617,5.154l-14.076,11.2q-2.274,1.808-4.578,3.59c-3.012,2.348-6.127,4.774-9.1,7.283a5.837,5.837,0,0,1-4.676,1.493,4.763,4.763,0,0,1-3.265-2.4,4.625,4.625,0,0,1,.429-4.48,68.831,68.831,0,0,1,5.725-5.3c2.19-1.973,4.376-3.95,6.614-5.983,1.461-1.325,4.18-3.791,2.7-7.1-1.528-3.4-5.582-3.357-7.995-3.336l-35.216.011c-.422,0-.891.023-1.381.048a7.961,7.961,0,0,1-3.294-.232,3.4,3.4,0,0,1-1.787-2.371c-.177-1.8-.278-3.791.63-4.812l.12-.146a2.353,2.353,0,0,1,1.974-.948l.066,0,.066,0c1.683-.039,3.412-.034,5.083-.026.869,0,1.738.008,2.606,0l8.8-.031c.674-.007,1.4.023,2.121.048a25.045,25.045,0,0,0,6.074-.283,6.341,6.341,0,0,0,4.635-3.616,4.479,4.479,0,0,0-.655-4.342c-1.892-2.618-5.332-2.544-7.61-2.5-.288.005-.565.011-.828.011q-8.524.014-17.043.046-4.346.014-8.692.046c-.792.007-1.624.055-2.469.1a20.011,20.011,0,0,1-4.774-.068A3.192,3.192,0,0,1,223.3,901.9c-.209-1.972-.3-3.825.741-4.917,1.1-1.159,1.884-1.205,4.207-1.19l26.517,0c.7,0,1.435.036,2.187.072a19.767,19.767,0,0,0,7.2-.546,5.781,5.781,0,0,0,3.612-3.431,4.537,4.537,0,0,0-.539-4.041c-1.783-2.722-5.142-2.709-7.37-2.711l-8.885-.047q-1.438-.008-2.88,0c-2.071,0-4.21,0-6.295-.064-1.983-.062-3.25-.722-3.763-1.961-.56-1.35-.316-4.329.428-5.225,1.039-1.253,1.6-1.364,4.016-1.37q5.634-.013,11.269,0l5.843,0c2.383.011,7.372.013,8.3-4.319a4.579,4.579,0,0,0-.791-3.787,6.871,6.871,0,0,0-4.95-2.481c-.852-.072-1.75-.062-2.7-.053-4.32.048-5.816-.3-6.19-2.391-.354-1.975-.174-4.014.42-4.744,1.107-1.364,1.9-1.44,4.493-1.424h.18q5.543,0,11.083.013c7.917.014,16.1.028,24.155-.02l1.13-.007c10.45-.079,20.321-.136,29.306,4.807a30.269,30.269,0,0,1,5.213,3.647,19.592,19.592,0,0,1,1.56,1.6,14.617,14.617,0,0,0,3.547,3.12c2.2,1.214,4.722,1.114,6.951,1.026.514-.02,1.015-.04,1.492-.04H351.4q8.838.009,17.676,0,4.529,0,9.054-.018c.515,0,1.107-.041,1.736-.086,1.355-.093,3.406-.241,4.067.331.529.459.179,2.9.029,3.941-.087.6-.166,1.168-.2,1.652A75.64,75.64,0,0,0,383.633,885.274ZM222.8,739.069a4.622,4.622,0,0,1,4.654-4.745,4.884,4.884,0,0,1,1.365.2c1.185.3,2.565,1.993,3.674,3.355.423.519.824,1.01,1.2,1.424l5.463,6.035c.272.3.554.65.849,1.016,1.36,1.68,3.052,3.771,5.6,4.114,2.664.356,4.872-1.468,5.61-4.64a25.125,25.125,0,0,0,.312-6.8c-.037-.826-.074-1.637-.074-2.417V710.525c0-.587-.032-1.269-.067-2.007-.235-4.914.069-7.644,2.342-7.99s4.4-.014,5.426.845a2.165,2.165,0,0,1,.763,1.763c.08,3.791.083,7.655.085,11.391,0,1.893,0,3.786.014,5.679,0,.648-.03,1.341-.065,2.055-.116,2.415-.247,5.153.841,7.486a5.335,5.335,0,0,0,3.882,3.079,4.659,4.659,0,0,0,4.165-1.412c2.021-2.076,1.919-5.1,1.845-7.306-.013-.387-.026-.762-.026-1.112,0-2.741.006-5.48-.009-8.224l-.122-17.94c0-.63-.05-1.334-.1-2.069a12.46,12.46,0,0,1,.187-4.585,3.23,3.23,0,0,1,2.957-1.93l.314-.009c2.437-.066,3.47-.047,4.514,1.21.83,1,.786,2.474.734,4.181-.011.39-.023.778-.025,1.164q-.024,8.429-.024,16.857v9.268c0,.57-.027,1.172-.055,1.787-.1,2.185-.21,4.661.729,6.857a5.353,5.353,0,0,0,4.021,3.25,4.734,4.734,0,0,0,4.371-1.734c1.724-2.043,1.653-4.756,1.6-6.936-.01-.4-.021-.792-.018-1.16.018-1.932,0-3.88-.024-5.832-.039-3.651-.08-7.426.152-11.116a3.4,3.4,0,0,1,2.312-3.112,9.5,9.5,0,0,1,4.447.1c2.219,1.038,2.207,4.259,1.959,8.351-.055.9-.107,1.76-.107,2.55v9.034c0,.368-.014.757-.028,1.157-.076,2.123-.17,4.764,1.459,6.825a4.762,4.762,0,0,0,4.385,1.893,5.33,5.33,0,0,0,4.1-3.2,13.712,13.712,0,0,0,.731-6.2c-.021-.528-.042-1.047-.041-1.547.006-1.778.654-2.966,1.928-3.532a9.169,9.169,0,0,1,4.875-.073c2.182,1.022,2.162,4.272,1.906,8.405-.056.9-.108,1.746-.108,2.518l0,1.69c-.015,9.671-.021,13.4.129,15h-.08l0,4.64c-.006,3.945-.012,7.889.019,11.829.06,9.521-.383,20.407-6.441,29.1a24.158,24.158,0,0,1-2.731,3.053c-2.319,2.328-4.947,4.967-5.078,8.894-.124,3.769-.082,7.593-.041,11.292.02,1.861.04,3.719.04,5.574q0,8.93.016,17.857l.015,5.1.017.253a8.019,8.019,0,0,1-.079,2.582c-.177.433-.361.513-2.027.46-.3-.008-.605-.017-.919-.017q-8.746.027-17.491.068-4.7.021-9.4.054c-.714,0-1.5.066-2.339.134a13.725,13.725,0,0,1-4.644-.1c-.56-.21-.711-.267-.621-2.314.016-.378.032-.76.032-1.14V808.2c0-.5.024-1.033.048-1.581.1-2.312.214-4.933-1.051-7.152a15,15,0,0,0-3.415-3.734,18.993,18.993,0,0,1-1.945-1.852,30.644,30.644,0,0,1-3.463-5.006,33.21,33.21,0,0,1-2.462-5.663c-.195-.589-.356-1.188-.519-1.785a16.263,16.263,0,0,0-2.033-5.064,116.951,116.951,0,0,0-7.533-9.664c-1.228-1.467-2.5-2.983-3.685-4.474q-5.349-6.73-10.711-13.448c-.632-.792-1.276-1.578-1.92-2.363-1.267-1.546-2.578-3.144-3.789-4.807a3.719,3.719,0,0,1-.774-2.413l0-.064ZM384.052,860.544H340.815c-.21,0-.415.005-.618.011-.8.021-1.142.012-1.381-.164a10.146,10.146,0,0,1-1.139-1.06c-.358-.366-.715-.728-1.087-1.05a41.92,41.92,0,0,0-5.392-3.95,50.068,50.068,0,0,0-12.6-5.443c-.417-.12-.894-.224-1.4-.331-.991-.211-2.449-.523-2.87-1.057a5.769,5.769,0,0,1,.042-1.6l.026-4.576q0-15.711,0-31.426c0-.617-.049-1.284-.1-1.99-.108-1.482-.257-3.514.246-4.3a15.648,15.648,0,0,1,1.977-2.293,22.753,22.753,0,0,0,2.123-2.4,55.511,55.511,0,0,0,6.2-11.734c.55-1.313.764-1.33,1.189-1.364a45.642,45.642,0,0,1,4.753-.037c.843.022,1.684.043,2.515.043h16.314v-2h0v2l18.237,0c.581,0,1.2-.037,1.821-.075,1.67-.1,3.4-.21,4.222.545a50.18,50.18,0,0,0,5.775,4.739,49.007,49.007,0,0,0,14.272,6.466c.339.1.7.183,1.056.271,1.966.478,2.467.738,2.551,1.323a29.18,29.18,0,0,1,.064,5.175c-.042.951-.084,1.891-.084,2.8q-.006,15.934,0,31.867c0,.516.027,1.044.055,1.572.094,1.832.1,3-.557,3.725a51.515,51.515,0,0,0-4.323,5.225,44.741,44.741,0,0,0-3.727,6.484c-.24.507-.444,1.07-.661,1.666-.355.979-.951,2.618-1.541,2.935a5.5,5.5,0,0,1-1.683.048C384.725,860.564,384.374,860.544,384.052,860.544Zm-55.719-102.47c-.021-1.584-.041-3.169-.041-4.754v-9.36c0-.547-.047-1.183-.1-1.856-.092-1.224-.283-3.774.208-4.388.443-.552,3.313-.345,4.257-.275.631.046,1.2.085,1.665.085l35.521-.006c.429-.007.841.013,1.283.027,2.282.071,5.125.161,7.35-1.478a20.518,20.518,0,0,0,3.075-2.989,21.172,21.172,0,0,1,2.116-2.163,30.283,30.283,0,0,1,5.054-3.4,33.659,33.659,0,0,1,6.036-2.5c.422-.13.834-.248,1.238-.364a15.573,15.573,0,0,0,5.712-2.568c6.23-4.838,12.487-9.852,18.539-14.7q4.595-3.682,9.2-7.351c.759-.6,1.514-1.256,2.276-1.915a33.022,33.022,0,0,1,4.445-3.438,5.168,5.168,0,0,1,4.258-.116l.136.088a4.785,4.785,0,0,1,2.319,4.556l-.008.126c-.046,1.434-.756,2.133-2.357,3.578l-.468.424q-2.2,2.015-4.422,4.005l-2.2,1.985c-.453.408-.964.823-1.489,1.252a18.443,18.443,0,0,0-4.368,4.474c-1.351,2.265-.952,3.909-.38,4.888,1.764,3.021,7.053,3.153,11.875,3.032.351-.008.645-.016.864-.016H466.67c.838,0,1.708-.035,2.588-.07a28.591,28.591,0,0,1,5.008.078,2.622,2.622,0,0,1,1.893,1.08,7.294,7.294,0,0,1,.635,5.263c-.376,1.987-1.9,2.294-6.022,2.154-.583-.021-1.147-.036-1.665-.035-1.991.014-3.988,0-5.985-.005-3.85-.018-7.831-.032-11.752.106-5.895.21-6.8,3.5-6.91,4.911a4.647,4.647,0,0,0,1.1,3.472,7.636,7.636,0,0,0,5.088,2.22c3.913.29,7.919.181,11.792.078,1.85-.05,3.693-.1,5.516-.106,2.411-.007,4.821-.029,7.233-.05,3.4-.031,6.8-.061,10.2-.051l.147-.005a3.6,3.6,0,0,1,3.381,1.745c.207.36.509,1.383.208,4.211-.262,2.476-2.518,2.821-7.485,2.661-.605-.019-1.181-.038-1.7-.038H453.124l-.492,0c-2.331-.019-6.254-.055-7.771,3.283a4.514,4.514,0,0,0,.133,4.6c1.925,2.883,7.139,2.964,11.873,2.813.457-.015.843-.02,1.109-.026q4.567.018,9.134.054c.483,0,1-.014,1.53-.032,1.585-.055,3.384-.118,4.364.547a4.249,4.249,0,0,1,1.661,3.343,5.158,5.158,0,0,1-1.465,4.1c-.706.618-1.294.644-2.888.635l-11.849-.006c-2.038,0-4.077-.007-6.114,0s-6.309.037-7.63,3.674a4.627,4.627,0,0,0,.342,4.443c1.763,2.517,5.977,2.521,9.363,2.524a18.872,18.872,0,0,1,2.693.1,3.469,3.469,0,0,1,2.077,2.381c.338,2.633.022,4.092-.39,4.582-1.2,1.422-2.03,1.489-4.712,1.489h-8.833c-5.157,0-10.315.039-15.472.079-6.476.049-13.175.1-19.755.068-7.9-.038-19.038-1.608-27.2-8.872a19.769,19.769,0,0,1-1.39-1.43,11.433,11.433,0,0,0-4.573-3.518,12.547,12.547,0,0,0-4.092-.57c-.71,0-1.407.031-2.074.06-.6.027-1.2.054-1.761.054h-17.6q-5.375,0-10.748-.014l-6.573-.01c-.526,0-1.129.043-1.767.088-1.4.1-3.516.252-4.16-.368-.436-.419-.226-2-.088-3.05.067-.507.13-.995.16-1.44C328.434,766.114,328.382,762.027,328.333,758.074Z" transform="translate(-212.008 -677.459)" fill="#b81370"/></svg>