<svg xmlns="http://www.w3.org/2000/svg" width="307.796" height="235.981" viewBox="0 0 307.796 235.981"><path d="M0,0A7.4,7.4,0,0,1,5.536,1.165l86.028,58.61,1.269-8.652a34.621,34.621,0,0,1,5.7-14.877c5.511-7.943,14.082-13.192,24.788-15.176,14.233-2.638,31.28.811,46.77,9.464l4.355,2.434,9.479-13.653-.687-2.449a7.85,7.85,0,0,1,.95-6.636A8.13,8.13,0,0,1,195.43,8.14a7.958,7.958,0,0,1,2.063,11.146,7.787,7.787,0,0,1-5.087,3.151c-.279.052-.562.091-.845.119l-2.545.243L179.55,36.452l3.856,3.161c24.977,20.47,33.5,49.184,20.263,68.274a34.88,34.88,0,0,1-12,10.553l-7.728,4.27,86.106,58.663a7.284,7.284,0,0,1,1.889,10.19l-28.492,41.1a7.493,7.493,0,0,1-4.745,3.063,7.4,7.4,0,0,1-5.536-1.164l-90.933-61.943a7.276,7.276,0,0,1-3.073-4.712l-2.481-13.447a9.977,9.977,0,0,0,.027-1.345l-.411-7.072-7.283,2.421a29.579,29.579,0,0,1-3.791,1.091,32.425,32.425,0,0,1-24.3-5.1A31.876,31.876,0,0,1,87.4,123.777a28.036,28.036,0,0,1-.328-3.93l-.3-7.5-6.778,2.067a9.892,9.892,0,0,0-1.326.527l-13.548,2.522a7.385,7.385,0,0,1-5.536-1.16L-31.354,54.357a7.245,7.245,0,0,1-3.071-4.7,7.248,7.248,0,0,1,1.184-5.49l28.5-41.1A7.384,7.384,0,0,1,0,0M27.662,34.055,3.228,17.4-16.891,46.411,7.557,63.064ZM60.719,56.57,32.773,37.522,12.656,66.534,40.616,85.58ZM155.5,69.546a3.077,3.077,0,0,1-3.114-4.761l13.854-19.973-5.485-2.826c-11.7-6.028-24.28-8.4-34.507-6.5-6.968,1.291-12.349,4.421-15.564,9.048-9.535,13.774.91,38.01,22.807,52.932,13.624,9.282,29.907,13.6,42.494,11.267,6.9-1.278,12.26-4.434,15.518-9.125,8.258-11.919,1.575-32.234-15.539-47.26l-4.629-4.063L157.5,68.261a3.093,3.093,0,0,1-1.993,1.285M87.022,81.358l-1.461-7.882L65.819,60.04l-20.1,29L65.437,102.5l7.944-1.473Zm35.53,53.788a17.649,17.649,0,0,0,11.38-7.343,17.1,17.1,0,0,0,2.831-7.512l.535-3.776-3.4-1.773a86.9,86.9,0,0,1-8.794-5.186,90.481,90.481,0,0,1-8.085-6.284l-2.9-2.5-3.358,1.868a18.374,18.374,0,0,0-4.453,3.384l-1.8.333-.46,2.68a17.453,17.453,0,0,0,5.252,23.331,17.683,17.683,0,0,0,13.245,2.774m70.429,11.536-19.734-13.447-7.933,1.471-13.631,19.642,1.444,7.886,19.745,13.456Zm33.069,22.512-27.971-19.037-20.111,29.006,27.96,19.042Zm29.541,20.126-24.448-16.654L211.034,201.69l24.447,16.635Z" transform="translate(34.549 0.126)" fill="#d53216"/></svg>