<svg xmlns="http://www.w3.org/2000/svg" viewBox="0 0 339.993 290">
<g id="hero-icon-pillar-people" transform="translate(-1139.403 -539)">
<path id="Caminho_2974" data-name="Caminho 2974" d="M1390.727,807.238c0-4.507.006-9.014-.022-13.522-.008-1.277,0-2.556.014-3.834a97.237,97.237,0,0,0-.359-11.424c-2.368-21.7-20.412-40.7-41.968-44.2a7.088,7.088,0,0,0-7.215,2.713,40.624,40.624,0,0,1-44.621,12.811,40.215,40.215,0,0,1-18.832-13.242c-.064-.077-.124-.158-.185-.238a5.128,5.128,0,0,0-5.138-2.289,51.245,51.245,0,0,0-43.768,50.8v12.423c0,8.451.009,17.192-.054,25.781a5.324,5.324,0,0,0,1.316,3.893,5.231,5.231,0,0,0,3.874,1.329l.09,0c20.5-.046,41.34-.046,61.5-.04h28.15q31.095-.026,62.2.036a5.14,5.14,0,0,0,3.786-1.3,5.075,5.075,0,0,0,1.272-3.734C1390.72,817.889,1390.727,812.475,1390.727,807.238Zm-145.49-9.3c-.005-4.749-.01-9.658.032-14.48.13-15.023,9.157-27.148,23.559-31.633a3.062,3.062,0,0,1,.366-.1h0c.043.035.1.083.171.152a57.908,57.908,0,0,0,40.308,16.513h.021a57.9,57.9,0,0,0,40.311-16.537c.068-.067.125-.116.168-.152.054.012.119.029.2.053a32.866,32.866,0,0,1,23.7,31.537c.052,5.155.046,10.407.04,15.486,0,4.276-.009,8.553.018,12.83q-26.177-.03-52.35-.03h-25.172c-16.85-.007-34.255-.007-51.4.035C1245.247,807.042,1245.242,802.422,1245.237,797.942Z" fill="#7771b1"/>
<path id="Caminho_2975" data-name="Caminho 2975" d="M1309.658,732.112h.082a48.405,48.405,0,0,0,47.244-47.378c-.054-25.185-22.14-47.236-47.29-47.236h-.087c-25.209.052-47.283,22.188-47.237,47.371a48.391,48.391,0,0,0,47.288,47.242Zm.01-77.994h.051c17.481.023,30.656,13.214,30.645,30.679a29.935,29.935,0,0,1-30.689,30.7h-.142c-17.467-.071-30.6-13.3-30.544-30.78C1279.044,667.262,1292.229,654.118,1309.668,654.118Z" fill="#7771b1"/>
<path id="Caminho_2976" data-name="Caminho 2976" d="M1409.365,751.221h.17a33.321,33.321,0,0,0,23.536-10.005,35.276,35.276,0,0,0,.064-50.418,33.345,33.345,0,0,0-23.623-10.077h-.032a34.5,34.5,0,0,0-24.636,10.875,35.45,35.45,0,0,0-.026,48.738A34.554,34.554,0,0,0,1409.365,751.221Zm16.91-28.676a16.952,16.952,0,0,1-18.717,11.977c-10.345-1.285-15.81-7.708-15.81-18.576,0-6.425,2.035-14.725,11.735-17.725a20.91,20.91,0,0,1,6.186-.963,17.708,17.708,0,0,1,8.935,2.347,16.85,16.85,0,0,1,7.971,11.1A23.943,23.943,0,0,1,1426.275,722.545Z" fill="#7771b1"/>
<path id="Caminho_2977" data-name="Caminho 2977" d="M1440.415,748.682h-4.29l-2.291,3.627c-5.925,9.382-19.938,10.394-25.687,10.394h0a7.784,7.784,0,0,0-7.784,7.784v0a7.784,7.784,0,0,0,7.785,7.783c19.748,0,30.422-7.423,35.922-13.73,14.834,2.451,19.759,19.7,19.759,28.379v27.342a7.784,7.784,0,0,0,7.784,7.784h0a7.783,7.783,0,0,0,7.782-7.784V792.921C1479.4,762.407,1456.6,748.682,1440.415,748.682Z" fill="#7771b1"/>
<path id="Caminho_2978" data-name="Caminho 2978" d="M1209.263,751.226h.171a34.559,34.559,0,0,0,24.546-10.9,35.441,35.441,0,0,0-.026-48.733,34.506,34.506,0,0,0-24.637-10.87h-.031a33.349,33.349,0,0,0-23.618,10.07,35.287,35.287,0,0,0,.059,50.43A33.325,33.325,0,0,0,1209.263,751.226Zm-17.039-40.512a16.847,16.847,0,0,1,7.971-11.1v-.005a17.7,17.7,0,0,1,8.933-2.347,20.87,20.87,0,0,1,6.186.963c9.7,3,11.735,11.3,11.735,17.725,0,10.868-5.464,17.292-15.81,18.576a16.959,16.959,0,0,1-18.716-11.971A23.948,23.948,0,0,1,1192.224,710.714Z" fill="#7771b1"/>
<path id="Caminho_2979" data-name="Caminho 2979" d="M1210.653,762.7c-5.75,0-19.766-1.012-25.687-10.394l-2.291-3.627h-4.291c-16.186,0-38.981,13.725-38.981,44.239v27.342a7.784,7.784,0,1,0,15.568,0V792.921c0-8.674,4.925-25.928,19.76-28.379,5.5,6.307,16.174,13.73,35.922,13.73h0a7.784,7.784,0,0,0,0-15.569Z" fill="#7771b1"/>
</g>
</svg>