<svg xmlns="http://www.w3.org/2000/svg" width="341.668" height="281.641" viewBox="0 0 341.668 281.641"><path d="M440.568,657.525h0a33.979,33.979,0,0,0,18.268-21.08c4.2-13.637.911-26.723-2.425-36.6a5.472,5.472,0,0,0-3.681-3.429,6.408,6.408,0,0,0-5.737.958c-7.146,5.416-14.5,11.565-19.868,19.8-8.163,12.529-8.56,24.242-1.213,35.809.589.927.728,1.37.333,2.008-1.308,2.111-7.375,10.816-10.16,14.1a26.641,26.641,0,0,0-1.3-6.943c-4.824-15.946-17.108-23.457-28.488-28.7a5.3,5.3,0,0,0-4.955.28,6.12,6.12,0,0,0-3.008,4.778,93.739,93.739,0,0,0-.529,13.767c.486,7.213,1.7,15.563,7.037,22.809,3.8,5.165,9.125,8.5,16.257,10.18a127.285,127.285,0,0,0-12.128,17.443q-.56-.844-1.09-1.654c-1.069-1.624-2.078-3.158-3.129-4.667q-1.179-1.687-2.34-3.39c-3.986-5.8-8.108-11.807-13.324-16.816A36.456,36.456,0,0,0,341.1,665.743c-9.555.776-18.256,5.782-24.5,14.1-3.288,4.377-6.166,9.092-8.949,13.651-.948,1.555-1.9,3.11-2.864,4.655-1.4,2.237-2.243,3.587-2.938,3.678s-1.8-.956-3.658-2.687q-2.16-2.019-4.306-4.056l-76.539-72.254c-4.431-4.181-9.67-5.355-15.153-3.394-5.926,2.116-9.468,6.419-10.245,12.459a59.241,59.241,0,0,0-.259,7.191c-.024,4.088-.02,8.177-.015,12.516l0,4.547q-2.19-1.5-4.275-2.918c-3.45-2.352-6.728-4.587-9.986-6.854C166.754,638.952,156.245,631,146.4,623.487c-5.711-4.353-12.063-4.978-18.37-1.8-5.925,2.976-8.911,8.169-8.875,15.433.082,16.492.058,33.263.036,49.482l-.01,7.193a88.844,88.844,0,0,0,6.344,33.588c8.457,21.1,21.9,34.717,41.111,41.611,5.721,2.054,11.491,4.291,17.072,6.454l4.381,1.7a7.2,7.2,0,0,0,.733.223,3.013,3.013,0,0,1,1.267.546c-12.308,3.014-24.448,4.931-33.7,6.269-4.338.629-6.433,3.357-5.9,7.681.213,1.725.456,3.474.723,5.2l.078.5,27.845-4.753.01.06.508-.1c10.351-2,20.733-4.536,30.857-7.54,2.9-.855,5.6-2.171,5.758-5.979.174-4.108-2.762-5.751-5.34-6.723-4.4-1.659-8.787-3.358-13.173-5.058-8.4-3.254-17.082-6.619-25.731-9.628-16.362-5.692-27.8-17.133-34.963-34.975a80.141,80.141,0,0,1-5.574-29.9c-.05-11.5-.045-23.2-.039-34.508q0-10.458,0-20.915c0-2.56.37-4.122,2.323-5.049,1.894-.9,3.682-.563,5.8,1.1,12.983,10.215,26.5,20.1,40.186,29.386,22.426,15.256,46.131,29.28,69.056,42.84q7.021,4.155,14.037,8.32c5.716,3.4,11.473,6.952,17.041,10.386q2.876,1.776,5.753,3.545c3.925,2.413,5.973,2.276,9.526-.64a97.733,97.733,0,0,0,22.309-26.371,111.706,111.706,0,0,1,9.542-14.43c7.929-9.656,19.361-11.416,29.821-4.6a37.727,37.727,0,0,1,9.173,8.994c4.606,6,8.864,12.4,12.98,18.585l1.546,2.322c.443.664.631,1.12.56,1.354-.089.295-.743.589-1.349.841-3.84,1.6-7.721,3.272-11.475,4.893-4.742,2.045-9.646,4.163-14.509,6.14-12.911,5.25-18.848,14.151-18.682,28.013a59.217,59.217,0,0,1-44.463,58.84c-7.751,2.087-15.815,2.036-23.617,2q-3.6-.024-7.213.013c-3.055.033-6.212.065-9.306-.073-3.85-.16-6.268,1.422-7.844,5.163q-1.569,3.723-3.16,7.434l-1.661,3.894.168.074L231.33,845.65c-2.366,5.515-4.729,11.03-7.109,16.595a4.245,4.245,0,0,1-.835,1.523l-5.084,11.51.5.183c1.731.629,3.513,1.241,5.3,1.82a9.024,9.024,0,0,0,2.741.481c2.629,0,4.522-1.6,5.962-4.95l1.771-4.121c5.646-13.133,11.484-26.714,17.142-40.109.816-1.93,1.653-2.519,3.577-2.446,5.586.159,11.266.116,16.76.075l2.565-.019c18.416-.128,34.454-6.061,47.67-17.635,17-14.887,25.389-34.107,24.933-57.126-.125-6.324,2.206-10.68,6.925-12.949,6.516-3.129,13.027-5.913,19.921-8.86,2.568-1.1,5.149-2.2,7.741-3.329a126.433,126.433,0,0,0-1.05,12.917,6.362,6.362,0,0,0,1.593,4.633,5.728,5.728,0,0,0,6.478,1.735c2.772-1.005,4.156-3.019,4.229-6.168A74.792,74.792,0,0,1,399.206,710c.114-.255.224-.513.335-.773a9.862,9.862,0,0,1,1.771-3.088c5.39,7.237,9.945,10.541,16.652,12.123,13.82,3.261,25.755-2.412,34.611-7.719a5.425,5.425,0,0,0,2.533-4.368,5.8,5.8,0,0,0-1.926-4.886c-10.12-8.3-20.419-15.612-34.988-14.1,4.462-5.65,16.3-21.567,18.548-25.962A7.94,7.94,0,0,1,440.568,657.525Zm-14.46,42.085a33.1,33.1,0,0,1,11.25,5.093c-7.864,2.735-14.469,3.633-20.869-.394-.564-.356-2.063-1.3-2.051-1.8s1.541-1.363,2.191-1.729a12.689,12.689,0,0,1,8.955-1.286Zm8.929-71.7c2.43-5.09,6.138-9.667,11.975-14.766,3.288,13.174.19,25.09-8.17,31.237-1.309.964-2.2,1.6-2.621,1.48s-.886-1.044-1.548-2.468l-.026-.06C432.333,638.347,432.46,633.3,435.037,627.905Zm-44.613,21.822c4.955,3.346,8.251,6.559,10.624,10.344a18.806,18.806,0,0,1,2.859,11.49v.005c-.055.82-.206,1.318-.449,1.482s-.76.11-1.611-.17a14.461,14.461,0,0,1-8.857-8.387C391.111,660.3,390.31,655.714,390.424,649.727Zm-98.073,63.632c-1.977,2.278-3.384,2.413-6.273.6-12.082-7.56-24.553-14.93-36.613-22.059-14.143-8.358-28.768-17-42.89-26.023A4.764,4.764,0,0,1,204,661.151c.161-8.719.1-17.586.039-26.16-.017-2.493.875-3.717,2.977-4.073a4.149,4.149,0,0,1,2.357,1.375Q250.8,671.4,292.26,710.462C293.532,711.663,293.542,711.987,292.351,713.359Z" transform="translate(-119.151 -596.122)" fill="#62c1ee"/></svg>