<svg xmlns="http://www.w3.org/2000/svg" width="197.513" height="197.443" viewBox="0 0 197.513 197.443"><path d="M304.525,797.532l-.115-.386-3.089-3.09-.352-.12c-2.519-.857-4.907-.586-7.543-.186-18.613,2.862-35.108,5.889-50.424,9.262-21.519,4.743-44.406,10.373-65.989,19.4-8.434,3.532-18.064,7.9-25.664,15.132-14.59,13.9-22.639,31.376-23.925,51.959-.319,5.119,2.611,8.754,7.293,9.048a7.431,7.431,0,0,0,5.5-1.782A8.915,8.915,0,0,0,143,890.435a59.808,59.808,0,0,1,2.288-13.776c4.406-14.584,11.806-25.106,22.606-32.167,8.887-5.812,19-9.573,28.6-12.773,32.506-10.831,65.93-17.1,91.53-21.353-2.761,17.233-5.843,33.1-9.422,48.533-4.428,19.088-9.647,39.374-17.787,58.4-4.965,11.6-10.44,19.323-17.74,25.032-21.995,17.189-53.974,17.317-76.035.306-.073-.056-.136-.107-.19-.151.036-.037.077-.079.123-.123,5.692-5.571,11.47-11.349,17.666-17.658a3.01,3.01,0,0,1,2.562-.985c10.23.2,20.63.352,30.688.5l7.972.12c.809.012,1.62.032,2.43.052,2.023.051,4.116.1,6.192.026a7.79,7.79,0,0,0,6.6-4.007,7.711,7.711,0,0,0-.072-7.638c-1.48-2.588-3.971-3.921-7.4-3.961q-13.721-.177-27.442-.392l-5.118-.078,32.392-32.384,2.731-2.724c2.116-2.111,4.231-4.22,6.331-6.351,2.677-2.723,3.433-6.045,2.077-9.123a7.592,7.592,0,0,0-5.57-4.515,8.311,8.311,0,0,0-7.451,2.483q-15.413,15.4-30.812,30.8L189.785,897.5l.1-6.807q.183-13.2.431-26.392c.058-3.137-.91-5.448-2.96-7.063a7.467,7.467,0,0,0-8.216-.943,7.8,7.8,0,0,0-4.466,7.425q-.133,9.372-.274,18.742-.238,14.677-.411,29.356a3.275,3.275,0,0,1-1.082,2.6q-25.656,25.6-51.281,51.233l-10.57,10.571-.43.422c-.406.4-.824.806-1.224,1.267a7.862,7.862,0,0,0-.085,10.114,7.676,7.676,0,0,0,5.9,2.793,7.783,7.783,0,0,0,4.3-1.312,15.9,15.9,0,0,0,2.458-2.1l5.605-5.593c8.96-8.938,18.225-18.182,27.272-27.35.969-.977.971-.976,2-.185,21.478,16.467,45.4,20.9,71.111,13.173,18.556-5.577,32.433-16.327,41.246-31.955,5.2-9.217,9.616-19.8,13.916-33.317,11.123-35,17.387-70.548,21.6-97.61A15.724,15.724,0,0,0,304.525,797.532Z" transform="translate(-107.517 -793.371)" fill="#219e44"/></svg>