<svg xmlns="http://www.w3.org/2000/svg" width="185.736" height="211.564" viewBox="0 0 185.736 211.564"><path d="M448.868,725.1a7.118,7.118,0,0,0-7.118-7.118H384.368a7.118,7.118,0,0,0-7.118,7.118h0c0,.063.008.124.01.187s-.009.111-.009.167v46.813h-49.4a7.962,7.962,0,0,0-7.664,7.477v60.767h-49.94a12.492,12.492,0,0,0-7.119,10.573v71.342a7.118,7.118,0,1,0,14.236,0v-67.68h42.823v67.68a7.118,7.118,0,1,0,14.236,0V786.5h42.824V922.423a7.118,7.118,0,1,0,14.236,0V732.214h43.145V922.423a7.118,7.118,0,1,0,14.236,0V725.451c0-.059-.007-.117-.009-.177S448.868,725.156,448.868,725.1Z" transform="translate(-263.132 -717.978)" fill="#f09300"/></svg>