<svg xmlns="http://www.w3.org/2000/svg" viewBox="0 0 1889.998 354.565"><g transform="translate(-15.001 -290.53)"><path d="M1842.972,462.051c-15.521,4.058-31.634,7.732-47.891,10.92-15.835,3.1-32.268,5.837-48.84,8.122-16.117,2.221-32.843,4.084-49.715,5.538-16.369,1.409-33.366,2.474-50.519,3.167-16.617.669-33.86,1.009-51.248,1.009h-.06c-19.023,0-38.881-.4-59.024-1.2-19.215-.761-39.342-1.9-59.824-3.4-37.794-2.763-77.522-6.737-121.454-12.149-36.625-4.511-76.911-10.131-123.16-17.18-41.174-6.274-83.18-13.079-123.8-19.66l-.058-.009-.165-.027-.185-.03c-81.367-13.183-165.5-26.815-247.251-36.884-43.969-5.416-83.712-9.392-121.5-12.155-20.479-1.5-40.612-2.643-59.842-3.406-20.192-.8-40.074-1.2-59.093-1.2-127.075,0-234.368,17.863-328.01,54.61-12.79,5.019-25.513,10.474-37.815,16.213-12.5,5.831-24.94,12.129-36.967,18.719-12.215,6.694-24.352,13.879-36.073,21.354-11.9,7.585-23.717,15.7-35.138,24.114-11.59,8.54-23.083,17.624-34.16,27-11.243,9.516-22.392,19.614-33.138,30.013-10.89,10.539-21.682,21.693-32.074,33.152C35.438,620.291,25.019,632.543,15,645.094v0H1905V442.852c-5.022,1.812-10.121,3.584-15.156,5.269C1874.637,453.21,1858.867,457.9,1842.972,462.051Z" fill="#fff"/><path d="M15,645.1V519.123c8.408-10.674,17.143-21.111,25.964-31.023,8.72-9.8,17.758-19.344,26.864-28.376,9-8.927,18.33-17.613,27.732-25.817,9.281-8.1,18.893-15.954,28.57-23.349,9.552-7.3,19.436-14.354,29.378-20.968,9.815-6.529,19.961-12.813,30.156-18.678,10.057-5.785,20.454-11.328,30.9-16.475,10.293-5.071,20.931-9.9,31.619-14.363,10.524-4.391,21.393-8.542,32.305-12.34,10.727-3.734,21.817-7.235,32.961-10.4a657.766,657.766,0,0,1,67.766-15.364c22.441-3.877,46-6.8,70.025-8.7,23.08-1.818,47.318-2.74,72.04-2.74,21.738,0,44.521.712,67.718,2.116,22.113,1.339,45.336,3.352,69.025,5.981,43.725,4.855,89.92,11.839,141.225,21.35,42.765,7.928,89.941,17.8,144.222,30.186,48.357,11.033,97.781,23,145.577,34.569h.013l.076.018.065.015h.008c47.824,11.579,97.276,23.552,145.726,34.606,54.3,12.388,101.48,22.262,144.236,30.189,51.321,9.514,97.521,16.5,141.24,21.353,23.68,2.63,46.9,4.643,69.027,5.983,23.191,1.4,45.974,2.117,67.714,2.117,23.115,0,45.86-.812,67.6-2.415,21.786-1.6,43.228-4.052,63.73-7.274,20.522-3.225,40.718-7.322,60.026-12.177s38.317-10.618,56.49-17.125v2.83c-5.022,1.812-10.121,3.584-15.156,5.269-15.206,5.089-30.976,9.776-46.871,13.93-15.521,4.058-31.634,7.732-47.891,10.92-15.835,3.1-32.268,5.837-48.84,8.122-16.117,2.221-32.843,4.084-49.715,5.538-16.369,1.409-33.366,2.474-50.519,3.167-16.617.669-33.86,1.009-51.248,1.009h-.06c-19.023,0-38.881-.4-59.024-1.2-19.215-.761-39.342-1.9-59.824-3.4-37.794-2.763-77.522-6.737-121.454-12.149-36.625-4.511-76.911-10.131-123.16-17.18-41.174-6.274-83.18-13.079-123.8-19.66l-.058-.009-.165-.027-.185-.03c-81.367-13.183-165.5-26.815-247.251-36.884-43.969-5.416-83.712-9.392-121.5-12.155-20.479-1.5-40.612-2.643-59.842-3.406-20.192-.8-40.074-1.2-59.093-1.2-127.075,0-234.368,17.863-328.01,54.61-12.79,5.019-25.513,10.474-37.815,16.213-12.5,5.831-24.94,12.129-36.967,18.719-12.215,6.694-24.352,13.879-36.073,21.354-11.9,7.585-23.717,15.7-35.138,24.114-11.59,8.54-23.083,17.624-34.16,27-11.243,9.516-22.392,19.614-33.138,30.013-10.89,10.539-21.682,21.693-32.074,33.152C35.438,620.291,25.019,632.543,15,645.094Z" fill="#b5d1db"/></g></svg>