<svg xmlns="http://www.w3.org/2000/svg" viewBox="0 0 1890.002 255.13">
  <g class="section-wave-2" transform="translate(-14.999 -320.355)">
    <path class="bg-wave" d="M1218.662,575.485h-.015c-16.5,0-33.294-.427-49.915-1.269-15.869-.8-32.1-2.009-48.227-3.584-29.816-2.909-60.027-7.093-92.358-12.79-26.955-4.75-55.9-10.665-88.5-18.083-29-6.6-58.138-13.751-86.317-20.668l-.2-.048-.051-.013-.071-.017h-.032c-28.215-6.926-57.39-14.088-86.524-20.719-32.589-7.417-61.531-13.331-88.482-18.08-32.334-5.7-62.538-9.88-92.338-12.788-16.151-1.576-32.374-2.781-48.219-3.582-16.619-.841-33.41-1.268-49.907-1.268-16.71,0-33.654.438-50.359,1.3-17.32.894-34.95,2.275-52.4,4.1-18.022,1.889-36.415,4.315-54.668,7.212-18.8,2.982-38.026,6.556-57.156,10.622-19.66,4.179-39.8,9-59.865,14.338-20.581,5.469-41.708,11.649-62.791,18.349-21.6,6.871-43.786,14.5-65.948,22.678-22.662,8.361-45.985,17.548-69.32,27.3V536.21c28.819-12.953,57.35-25.2,84.8-36.4,27.174-11.087,54.08-21.471,79.969-30.865,25.6-9.29,50.96-17.883,75.373-25.541,24.11-7.563,48-14.436,71.015-20.426,22.7-5.91,45.208-11.132,66.893-15.522,21.385-4.328,42.585-7.971,63.008-10.827,20.123-2.814,40.094-4.949,59.36-6.343,18.958-1.372,37.782-2.067,55.949-2.067,13.2,0,26.4.367,39.211,1.092,12.641.714,25.284,1.8,37.58,3.218,12.119,1.4,24.245,3.17,36.042,5.26,11.629,2.06,23.271,4.489,34.6,7.218,11.16,2.689,22.348,5.749,33.254,9.093,10.707,3.283,21.474,6.944,32,10.882,10.324,3.862,20.7,8.1,30.846,12.588,9.944,4.4,19.965,9.183,29.785,14.209,14.233,5.773,28.7,11.779,42.683,17.587l.038.016.158.066c109.709,45.557,223.153,92.665,369.57,92.665,19.436,0,39.315-.849,59.085-2.524,20.578-1.742,41.71-4.435,62.808-8.005,21.879-3.7,44.391-8.462,66.912-14.145,23.281-5.873,47.3-12.917,71.4-20.935,24.826-8.262,50.483-17.811,76.26-28.381,26.512-10.873,53.934-23.148,81.505-36.483,28.287-13.681,57.6-28.9,87.128-45.238,30.226-16.723,61.561-35.109,93.133-54.647,16.177-10.011,32.877-20.575,49.637-31.4v45.637c-33.669,18.35-67.063,35.659-99.254,51.445-34.348,16.844-68.448,32.508-101.352,46.556-31.994,13.661-63.818,26.2-94.588,37.28-29.839,10.741-59.576,20.422-88.385,28.773-27.87,8.078-55.709,15.156-82.745,21.037-26.066,5.67-52.2,10.4-77.666,14.071-24.434,3.52-49.045,6.17-73.151,7.879C1264.885,574.659,1241.6,575.485,1218.662,575.485Z" fill="#88b9e1"/>
    <path class="bg-prev" d="M15,320.355V536.21c28.819-12.953,57.35-25.2,84.8-36.4,27.174-11.088,54.08-21.471,79.969-30.865,25.6-9.291,50.96-17.883,75.373-25.541,24.11-7.563,48-14.437,71.015-20.427,22.7-5.909,45.208-11.131,66.893-15.521,21.385-4.328,42.585-7.971,63.008-10.828,20.123-2.813,40.094-4.948,59.36-6.342,18.958-1.372,37.782-2.067,55.949-2.067,13.2,0,26.4.367,39.211,1.091,12.641.714,25.284,1.8,37.58,3.219,12.119,1.4,24.245,3.169,36.042,5.26,11.629,2.06,23.271,4.488,34.6,7.217,11.16,2.69,22.348,5.75,33.254,9.094,10.707,3.283,21.474,6.944,32,10.882,10.324,3.862,20.7,8.1,30.846,12.588,9.944,4.4,19.965,9.183,29.785,14.209,14.233,5.773,28.7,11.779,42.683,17.586l.038.016.158.066c109.709,45.557,223.153,92.665,369.57,92.665,19.436,0,39.315-.849,59.085-2.524,20.578-1.742,41.71-4.435,62.808-8.005,21.879-3.7,44.391-8.462,66.912-14.145,23.281-5.873,47.3-12.917,71.4-20.935,24.826-8.262,50.483-17.811,76.26-28.381,26.512-10.873,53.934-23.148,81.505-36.483,28.287-13.681,57.6-28.9,87.128-45.238,30.226-16.723,61.561-35.109,93.133-54.647,16.177-10.011,32.877-20.575,49.637-31.4H15Z" fill="#fff"/>
  </g>
</svg>
