<svg xmlns="http://www.w3.org/2000/svg" viewBox="0 0 1890.494 476.398">
  <g class="section-wave-1" transform="translate(-14.753 -217.281)">
    <path class="bg-prev" d="M14.753,217.48V673.385c17.013-6.57,34.317-13.919,51.432-21.843,16.322-7.557,33-15.883,49.584-24.747,30.611-16.365,61.583-34.86,94.683-56.546,27.588-18.078,57.182-38.746,90.461-63.188,29.726-21.829,59.523-44.537,88.34-66.5l.014-.011.178-.136c22.5-17.143,44.721-33.234,66.049-47.823,22.721-15.544,45.448-30.088,67.55-43.226,23.241-13.817,46.715-26.628,69.768-38.079,24.034-11.937,48.5-22.833,72.705-32.382,12.455-4.914,25.132-9.586,37.68-13.886,12.758-4.372,25.772-8.5,38.682-12.255,13.113-3.818,26.5-7.37,39.776-10.557,13.472-3.235,27.253-6.193,40.96-8.793,13.884-2.633,28.093-4.974,42.232-6.958,14.334-2.01,29-3.71,43.6-5.054,14.789-1.362,29.945-2.4,45.049-3.083,15.282-.687,30.957-1.037,46.59-1.037,23.833,0,48.457.815,73.187,2.424,25.1,1.631,51.064,4.13,77.186,7.425,26.472,3.34,53.89,7.6,81.493,12.66,27.955,5.127,56.925,11.226,86.1,18.129,29.516,6.983,60.142,15,91.026,23.83,31.214,8.926,63.6,18.939,96.252,29.765,32.989,10.937,67.235,23.026,101.786,35.933,34.873,13.027,71.083,27.27,107.626,42.333,15.485,6.384,63.114,27.073,112.256,49.313,26.583,12.03,49.4,22.6,67.823,31.428,3.651,1.75,7.16,3.445,10.426,5.039V217.48Z" fill="#fff"/>
    <path class="bg-wave" d="M14.753,693.679h0V673.386c17.013-6.571,34.317-13.92,51.432-21.843,16.322-7.557,33-15.884,49.584-24.747,30.611-16.365,61.583-34.86,94.683-56.547,27.588-18.078,57.182-38.745,90.461-63.187,29.726-21.83,59.523-44.537,88.34-66.5l.014-.011.178-.136c22.5-17.144,44.721-33.234,66.049-47.824,22.721-15.544,45.448-30.087,67.55-43.226,23.241-13.816,46.715-26.628,69.768-38.078,24.034-11.938,48.5-22.833,72.705-32.383,12.455-4.913,25.132-9.585,37.68-13.885,12.758-4.373,25.772-8.5,38.682-12.255,13.113-3.818,26.5-7.37,39.776-10.558,13.472-3.234,27.253-6.192,40.96-8.793,13.884-2.633,28.093-4.974,42.232-6.958,14.334-2.01,29-3.71,43.6-5.054,14.789-1.362,29.945-2.4,45.049-3.083,15.282-.687,30.957-1.037,46.59-1.037,23.833,0,48.457.815,73.187,2.424,25.1,1.631,51.064,4.13,77.186,7.425,26.472,3.34,53.89,7.6,81.493,12.66,27.955,5.127,56.925,11.226,86.1,18.13,29.516,6.983,60.142,15,91.026,23.829,31.214,8.926,63.6,18.939,96.252,29.766,32.989,10.937,67.235,23.026,101.786,35.932,34.873,13.027,71.083,27.27,107.626,42.333,15.485,6.385,63.114,27.073,112.256,49.313,26.583,12.03,49.4,22.6,67.823,31.428,3.651,1.75,7.16,3.446,10.426,5.039v46.1c-7.656-3.9-11.667-6.086-12.26-6.686C1629.93,392.027,1395.1,332.262,1175.081,332.262c-17.532,0-35.252.384-52.669,1.14-17.037.74-34.289,1.859-51.278,3.325-16.6,1.433-33.414,3.238-49.98,5.364-16.151,2.072-32.561,4.513-48.775,7.256-15.761,2.666-31.8,5.7-47.662,9-15.4,3.21-31.09,6.779-46.644,10.606-29.49,7.255-59.972,15.812-90.6,25.434-28.521,8.96-57.186,18.8-87.635,30.094-27.141,10.064-55.079,21.051-85.412,33.591-56.394,23.313-112.67,48.57-167.092,73l-.038.017-.077.034-.066.03-.092.041c-34.057,15.285-69.274,31.09-104.3,46.316-39.232,17.054-73.882,31.476-105.929,44.089-38.442,15.131-74.049,28.048-108.854,39.49-18.829,6.19-37.663,12.011-55.978,17.3C52.835,683.928,33.572,689.07,14.753,693.679Z" fill="#cce0f2"/>
  </g>
</svg>
