<svg xmlns="http://www.w3.org/2000/svg" viewBox="0 0 1890 317.213"><path d="M-11003.6,417.473h-.006c-17.49,0-34.814-.7-51.491-2.09-17.136-1.428-34.1-3.623-50.408-6.526a498.1,498.1,0,0,1-49.229-11.335A469.581,469.581,0,0,1-11202.7,381a460.5,460.5,0,0,1-46.6-22.091,472.345,472.345,0,0,1-45.144-28.032,508.392,508.392,0,0,1-43.6-34.352A568.54,568.54,0,0,1-11380,255.47V174.388a609.961,609.961,0,0,0,46.829,41.746,558.555,558.555,0,0,0,48.528,34.812,533.516,533.516,0,0,0,50.122,28.3,531.654,531.654,0,0,0,51.61,22.211,553.205,553.205,0,0,0,53,16.542c17.565,4.532,35.828,8.332,54.283,11.3,17.949,2.881,36.61,5.056,55.467,6.466,18.278,1.368,37.3,2.062,56.54,2.062,21.885,0,44.795-.9,68.093-2.668,22.222-1.688,45.532-4.225,69.284-7.54,22.466-3.133,46.121-7.075,70.307-11.715,22.608-4.335,46.55-9.447,71.157-15.194,22.941-5.358,46.44-11.24,71.84-17.981,22.688-6.02,46.354-12.584,72.351-20.066,48.528-13.968,97.852-29.04,145.551-43.617l.51-.155c47.6-14.542,96.813-29.578,145.038-43.459,26.011-7.485,49.678-14.049,72.354-20.066,25.47-6.759,48.969-12.641,71.84-17.981,24.66-5.758,48.6-10.871,71.163-15.2,24.161-4.636,47.816-8.579,70.307-11.718,23.751-3.314,47.063-5.851,69.286-7.54,23.292-1.77,46.2-2.667,68.088-2.667s43.458.9,64.086,2.667c21.386,1.833,42.473,4.663,62.675,8.411a578.71,578.71,0,0,1,61.115,14.774,540.06,540.06,0,0,1,59.412,21.749,530.642,530.642,0,0,1,57.548,29.343c10.618,6.259,21.257,13.043,31.618,20.163v12.708c-4.545-3.655-9.186-7.259-13.8-10.711-9.086-6.8-18.474-13.333-27.9-19.41-9.3-5.992-18.89-11.7-28.5-16.967-9.491-5.2-19.271-10.123-29.069-14.623-9.7-4.451-19.663-8.614-29.627-12.372-9.835-3.709-19.979-7.145-30.15-10.213-10.039-3.024-20.354-5.764-30.659-8.145a527.193,527.193,0,0,0-62.735-10.47,612.4,612.4,0,0,0-64.482-3.324c-22.7,0-46.543,1.185-70.857,3.521-23.153,2.226-47.521,5.575-72.426,9.953-23.528,4.139-48.35,9.342-73.773,15.465-23.766,5.724-48.965,12.472-74.9,20.058-24.091,7.045-48.885,14.809-75.8,23.733-23.961,7.95-48.976,16.616-76.472,26.492-51.153,18.375-103.42,38.282-153.967,57.535l-.108.042-.047.017-.068.026c-50.492,19.236-102.7,39.127-154.01,57.554-27.479,9.872-52.5,18.538-76.479,26.495-26.88,8.914-51.676,16.678-75.8,23.736-25.931,7.585-51.133,14.335-74.907,20.061-25.412,6.123-50.236,11.327-73.782,15.468-24.893,4.379-49.262,7.729-72.431,9.956C-10957.062,416.289-10980.9,417.473-11003.6,417.473Z" transform="translate(11380 -100.26)"/></svg>