<svg xmlns="http://www.w3.org/2000/svg" width="212.25" height="212.25" viewBox="0 0 212.25 212.25"><g transform="translate(-555 -3103)"><g transform="translate(-62 2477.984)"><path d="M788.985,790.812a2,2,0,0,1-1.975-1.7l-1.981-12.949a3.07,3.07,0,0,0-1.189-1.229l-9.4-3.476a12.649,12.649,0,0,1-5.045,2.589c-.034.009-.068.016-.1.023a10.172,10.172,0,0,1-3.934,0c-.034-.007-.069-.014-.1-.023a12.713,12.713,0,0,1-5.055-2.586l-9.39,3.473a3.084,3.084,0,0,0-1.2,1.231l-1.989,12.948a2,2,0,0,1-3.953,0l-1.99-12.95a3.067,3.067,0,0,0-1.19-1.229l-9.392-3.475a12.628,12.628,0,0,1-5.045,2.588c-.034.009-.068.016-.1.023a10.183,10.183,0,0,1-3.936,0c-.034-.007-.068-.014-.1-.023a12.708,12.708,0,0,1-5.054-2.586l-9.388,3.473a3.08,3.08,0,0,0-1.192,1.23L704.3,789.115a2,2,0,0,1-3.953,0l-1.991-12.95a3.066,3.066,0,0,0-1.19-1.229l-9.4-3.476a12.638,12.638,0,0,1-5.047,2.589c-.034.009-.068.016-.1.023a10.178,10.178,0,0,1-3.935,0c-.034-.007-.068-.014-.1-.023a12.709,12.709,0,0,1-5.054-2.586l-9.389,3.473a3.073,3.073,0,0,0-1.19,1.229l-1.993,12.951a2,2,0,0,1-3.954-.609l2.039-13.24a1.959,1.959,0,0,1,.143-.5,7.085,7.085,0,0,1,3.2-3.434,1.95,1.95,0,0,1,.233-.105l8.15-3.013c-.024-.041-.049-.082-.072-.123-1.619-3.148-2.132-10.244-1.886-13.089.592-6.793,6.555-9.886,11.845-9.886h0c5.289,0,11.251,3.094,11.842,9.885v0c.244,2.846-.268,9.946-1.839,13-.041.07-.081.139-.123.208l8.152,3.015a1.94,1.94,0,0,1,.232.1,7.076,7.076,0,0,1,3.2,3.435,2.043,2.043,0,0,1,.143.5l.057.372.057-.372a2.016,2.016,0,0,1,.144-.5,7.094,7.094,0,0,1,3.2-3.432,1.95,1.95,0,0,1,.233-.105l8.149-3.013-.072-.123-.049-.088c-1.571-3.066-2.082-10.16-1.837-13,.6-6.793,6.557-9.886,11.846-9.886h0c5.287,0,11.247,3.095,11.838,9.884v0c.245,2.845-.268,9.943-1.839,13q-.06.105-.123.21l8.148,3.013a1.934,1.934,0,0,1,.232.1,7.076,7.076,0,0,1,3.2,3.435,2.043,2.043,0,0,1,.143.5l.057.372.057-.372a2,2,0,0,1,.144-.5,7.093,7.093,0,0,1,3.209-3.434,2.252,2.252,0,0,1,.23-.1l8.148-3.013-.071-.123c-1.62-3.147-2.13-10.244-1.884-13.09.59-6.79,6.551-9.884,11.84-9.885h0c5.29,0,11.252,3.093,11.844,9.884v0c.245,2.845-.268,9.942-1.839,13-.04.07-.082.139-.123.209l8.153,3.014a1.95,1.95,0,0,1,.233.105,7.085,7.085,0,0,1,3.2,3.434,2.008,2.008,0,0,1,.144.5l2.025,13.24a2,2,0,0,1-1.674,2.279A1.873,1.873,0,0,1,788.985,790.812Zm-22.8-20.656a6.134,6.134,0,0,0,2.292,0,8.736,8.736,0,0,0,5.349-4.062c.987-1.926,1.587-8.135,1.364-10.74h0c-.375-4.3-4.217-6.232-7.859-6.232h0c-3.64,0-7.481,1.928-7.854,6.231-.226,2.6.372,8.814,1.408,10.829A8.684,8.684,0,0,0,766.182,770.156Zm-43.339,0a6.139,6.139,0,0,0,2.293,0,8.723,8.723,0,0,0,5.348-4.061c.987-1.927,1.587-8.136,1.364-10.741h0c-.375-4.3-4.214-6.231-7.854-6.232h0c-3.642,0-7.484,1.927-7.861,6.232-.223,2.581.368,8.724,1.39,10.787A8.727,8.727,0,0,0,722.843,770.156Zm-43.338,0a6.181,6.181,0,0,0,2.293,0,8.726,8.726,0,0,0,5.348-4.061c.987-1.925,1.587-8.134,1.364-10.742h0c-.374-4.3-4.216-6.23-7.856-6.231h0c-3.642,0-7.484,1.927-7.86,6.232-.224,2.6.377,8.812,1.412,10.828A8.684,8.684,0,0,0,679.505,770.156ZM659.42,757.771a2,2,0,0,1-2-1.925l-1.411-37.817c-.272-8.061,3.808-17.6,11.9-19.738a14.737,14.737,0,0,1-2.4-2.8c-.019-.029-.037-.058-.054-.088-1.921-3.261-2.912-10.817-2.811-13.843.2-6.3,5.19-10.541,12.409-10.541,7.093,0,12.469,4.145,13.379,10.315v0c.445,3.041.317,10.631-1.23,13.907l-.054.106a12.882,12.882,0,0,1-3.382,3.976c3.048.841,5.652,2.013,6.949,3.47,2.882,3.238,4.641,7.346,6.343,11.318.582,1.358,1.14,2.661,1.723,3.881l15.044-2.038a4.349,4.349,0,0,1,3.707,1.242l36.118-13.808a2,2,0,0,1,1.429,3.736l-35.715,13.654c.023.107.044.214.063.324.653,3.685-.66,8.043-4.379,8.859l-23.411,4.717a2,2,0,0,1-2.1-.913l-8.456-13.746a2,2,0,0,1,3.408-2.1l7.724,12.557,22.009-4.433c.981-.216,1.612-2.283,1.265-4.247-.171-.964-.624-1.946-1.127-1.883l-16.463,2.23a1.984,1.984,0,0,1-2.041-1.054c-.89-1.7-1.7-3.586-2.477-5.406-1.575-3.679-3.2-7.483-5.654-10.234-2.145-2.409-13.548-4.483-18.492-3.368-6.063,1.374-9.454,9.114-9.229,15.8L661.42,755.7a2,2,0,0,1-1.924,2.074Zm9.46-64.442a10.711,10.711,0,0,0,6.435,4.483,6.474,6.474,0,0,0,2.626-.013,8.874,8.874,0,0,0,5.67-4.318c1-2.21,1.273-8.794.866-11.568-.751-5.091-5.544-6.9-9.421-6.9-3.962,0-8.252,1.753-8.411,6.672C666.553,684.465,667.6,691.092,668.88,693.329Zm112.8,48.126h-84.4a2,2,0,0,1,0-4h82.4v-59.5h-88.77a2,2,0,0,1,0-4h90.77a2,2,0,0,1,2,2v63.5A2,2,0,0,1,781.679,741.455Z" fill="#7771b1"/></g></g></svg>